<svg width="1440" height="384" viewBox="0 0 1440 384" fill="none" xmlns="http://www.w3.org/2000/svg">
<rect width="1440" height="384" fill="url(#paint0_linear_5069_5293)"/>
<g clip-path="url(#clip0_5069_5293)">
<rect x="70" width="90" height="414" fill="#3568DD"/>
<rect x="180" width="90" height="414" fill="#3568DD"/>
<rect x="290" width="90" height="414" fill="#3568DD"/>
<rect x="400" width="90" height="414" fill="#3568DD"/>
<rect x="510" width="90" height="414" fill="#3568DD"/>
<rect x="620" width="90" height="414" fill="#3568DD"/>
<rect x="730" width="90" height="414" fill="#3568DD"/>
<rect x="840" width="90" height="414" fill="#3568DD"/>
<rect x="950" width="90" height="414" fill="#3568DD"/>
<rect x="1060" width="90" height="414" fill="#3568DD"/>
<rect x="1170" width="90" height="414" fill="#3568DD"/>
<rect x="1280" width="90" height="414" fill="#3568DD"/>
<g clip-path="url(#clip1_5069_5293)">
<path d="M479.29 92.5663C479.29 62.2381 472.313 32.3163 458.899 5.11566C445.485 -22.0849 425.994 -45.8352 401.933 -64.2979C377.872 -82.7606 349.886 -95.4408 320.141 -101.358C290.395 -107.274 259.687 -106.269 230.392 -98.4195C201.098 -90.5699 174.001 -76.0866 151.199 -56.0897C128.397 -36.0929 110.501 -11.1187 98.8946 16.901C87.2884 44.9207 82.2836 75.2347 84.2671 105.498C86.2507 135.761 95.1695 165.163 110.334 191.428L161.704 161.769C151.089 143.384 144.846 122.803 143.457 101.619C142.069 80.4342 145.572 59.2144 153.696 39.6006C161.821 19.9868 174.348 2.50486 190.309 -11.4929C206.271 -25.4907 225.238 -35.6291 245.745 -41.1237C266.251 -46.6184 287.747 -47.3221 308.569 -43.1804C329.39 -39.0387 348.98 -30.1625 365.823 -17.2386C382.666 -4.31477 396.31 12.3104 405.7 31.3509C415.089 50.3913 419.973 71.3365 419.973 92.5663H479.29Z" fill="#3568DD" stroke="#191919" stroke-width="2"/>
<path d="M479.29 92.5663C479.29 66.601 474.176 40.8899 464.239 16.901C454.303 -7.08788 439.739 -28.8847 421.378 -47.245C403.018 -65.6053 381.221 -80.1695 357.232 -90.106C333.243 -100.042 307.532 -105.157 281.567 -105.157L281.567 -45.8398C299.743 -45.8398 317.74 -42.2598 334.533 -35.3043C351.325 -28.3487 366.583 -18.1538 379.435 -5.30159C392.287 7.55061 402.482 22.8084 409.438 39.6006C416.393 56.3928 419.973 74.3906 419.973 92.5663H479.29Z" fill="#457EFF" stroke="#191919" stroke-width="2"/>
<path d="M281.566 290.289C246.859 290.289 212.762 281.153 182.705 263.799C152.647 246.445 127.687 221.485 110.333 191.428L161.703 161.769C173.851 182.81 191.323 200.282 212.363 212.429C233.404 224.577 257.271 230.972 281.566 230.972L281.566 290.289Z" fill="#FF5E0D" stroke="#191919" stroke-width="2"/>
<path d="M479.291 92.5664C479.291 118.532 474.176 144.243 464.24 168.232C454.303 192.221 439.739 214.017 421.379 232.378L379.436 190.434C392.288 177.582 402.483 162.324 409.438 145.532C416.394 128.74 419.974 110.742 419.974 92.5664H479.291Z" fill="#191919" stroke="#191919" stroke-width="2"/>
<path d="M421.379 232.377C403.019 250.738 381.222 265.302 357.233 275.238C333.244 285.175 307.533 290.289 281.568 290.289L281.568 230.972C299.744 230.972 317.741 227.392 334.534 220.437C351.326 213.481 366.584 203.286 379.436 190.434L421.379 232.377Z" fill="white" stroke="#191919" stroke-width="2"/>
</g>
<path d="M1490.61 295.423C1387.98 -109.767 880.425 -245.515 588.574 54.1699L504.75 140.244C440.072 206.658 359.237 255.148 270.171 280.958L108.002 327.951C-278.397 439.923 -407.76 921.82 -129.218 1211.63L-12.3158 1333.27C51.8889 1400.07 97.6049 1482.4 120.349 1572.2L149.826 1688.58C252.457 2093.77 760.012 2229.52 1051.86 1929.83L1135.69 1843.76C1200.36 1777.34 1281.2 1728.85 1370.27 1703.04L1532.43 1656.05C1918.83 1544.08 2048.2 1062.18 1769.65 772.367L1652.75 650.735C1588.55 583.932 1542.83 501.596 1520.09 411.8L1490.61 295.423Z" fill="#3568DD" stroke="#0E0E0E" stroke-width="2"/>
<rect x="283.626" y="259.464" width="363.333" height="88.1668" rx="15" transform="rotate(101.604 283.626 259.464)" fill="white" stroke="#191919" stroke-width="2"/>
<circle cx="229.129" cy="303.213" r="26.1195" transform="rotate(101.604 229.129 303.213)" fill="#2DBA8D" stroke="#191919" stroke-width="2"/>
<rect x="242.932" y="347.87" width="183.489" height="18.4643" rx="4" transform="rotate(101.604 242.932 347.87)" fill="#D9D9D9"/>
<rect x="215.802" y="342.299" width="136.174" height="18.4643" rx="4" transform="rotate(101.604 215.802 342.299)" fill="#D9D9D9"/>
<rect x="349.762" y="215.044" width="363.333" height="88.1668" rx="15" transform="rotate(105 349.762 215.044)" fill="white" stroke="#191919" stroke-width="2"/>
<circle cx="292.768" cy="255.487" r="26.1195" transform="rotate(105 292.768 255.487)" fill="#457EFF" stroke="#191919" stroke-width="2"/>
<rect x="303.902" y="300.883" width="183.489" height="18.4643" rx="4" transform="rotate(105 303.902 300.883)" fill="#D9D9D9"/>
<rect x="277.149" y="293.715" width="136.174" height="18.4643" rx="4" transform="rotate(105 277.149 293.715)" fill="#D9D9D9"/>
<rect x="415.956" y="297.787" width="363.333" height="88.1668" rx="15" transform="rotate(107.531 415.956 297.787)" fill="white" stroke="#191919" stroke-width="2"/>
<circle cx="357.233" cy="335.674" r="26.1195" transform="rotate(107.531 357.233 335.674)" fill="#FF5E0D" stroke="#191919" stroke-width="2"/>
<rect x="366.351" y="381.518" width="183.489" height="18.4643" rx="4" transform="rotate(107.531 366.351 381.518)" fill="#D9D9D9"/>
<rect x="339.94" y="373.175" width="110.599" height="18.4643" rx="4" transform="rotate(107.531 339.94 373.175)" fill="#D9D9D9"/>
<path d="M1060 0L1060 154" stroke="#191919" stroke-width="2" stroke-linecap="round" stroke-dasharray="20 20"/>
<path d="M1060 350L1060 504" stroke="#191919" stroke-width="2" stroke-linecap="round" stroke-dasharray="20 20"/>
<path d="M1060 354L1060 410" stroke="#191919" stroke-width="2" stroke-linecap="round" stroke-dasharray="20 20"/>
<path d="M1260 0L1260 154" stroke="#191919" stroke-width="2" stroke-linecap="round" stroke-dasharray="20 20"/>
<path d="M1170 0L1170 154" stroke="#191919" stroke-width="2" stroke-linecap="round" stroke-dasharray="20 20"/>
<path d="M1150 0L1150 154" stroke="#191919" stroke-width="2" stroke-linecap="round" stroke-dasharray="20 20"/>
<path d="M1260 350L1260 504" stroke="#191919" stroke-width="2" stroke-linecap="round" stroke-dasharray="20 20"/>
<path d="M1260 354L1260 410" stroke="#191919" stroke-width="2" stroke-linecap="round" stroke-dasharray="20 20"/>
<path d="M1170 354L1170 410" stroke="#191919" stroke-width="2" stroke-linecap="round" stroke-dasharray="20 20"/>
<path d="M1150 354L1150 410" stroke="#191919" stroke-width="2" stroke-linecap="round" stroke-dasharray="20 20"/>
<rect width="199.722" height="199.722" transform="matrix(-1 0 0 1 1259.86 154.14)" fill="#457EFF" stroke="#191919" stroke-width="2"/>
<rect width="8.27862" height="8.27862" transform="matrix(-1 0 0 1 1064.28 150)" fill="#457EFF" stroke="#191919" stroke-width="2"/>
<rect width="8.27862" height="8.27862" transform="matrix(-1 0 0 1 1064.28 349.722)" fill="#457EFF" stroke="#191919" stroke-width="2"/>
<rect width="8.27862" height="8.27862" transform="matrix(-1 0 0 1 1264 150)" fill="#457EFF" stroke="#191919" stroke-width="2"/>
<rect width="8.27862" height="8.27862" transform="matrix(-1 0 0 1 1264 349.722)" fill="#457EFF" stroke="#191919" stroke-width="2"/>
<path d="M1147.55 189.641L1147.72 189.192L1148.17 189.043C1151.79 187.867 1155.87 187.288 1160.43 187.288C1165.13 187.288 1169.15 187.865 1172.46 189.053L1172.89 189.208L1173.06 189.639L1221.47 316.932L1221.83 317.861L1220.9 318.22C1218.23 319.255 1214.84 319.75 1210.87 319.75C1208 319.75 1204.66 319.244 1200.8 318.257L1200.28 318.126L1200.1 317.63L1189.54 288.637H1131.88L1121.48 317.626L1121.3 318.125L1120.79 318.257C1116.92 319.245 1113.5 319.75 1110.55 319.75C1106.33 319.75 1102.88 319.255 1100.05 318.228L1099.1 317.882L1099.46 316.934L1147.55 189.641ZM1138.45 270.634H1182.96L1160.59 209.1L1138.45 270.634Z" fill="#3568DD" stroke="#191919" stroke-width="2"/>
</g>
<defs>
<linearGradient id="paint0_linear_5069_5293" x1="720" y1="0" x2="720" y2="384" gradientUnits="userSpaceOnUse">
<stop stop-color="#457EFF"/>
<stop offset="1" stop-color="#3568DD"/>
</linearGradient>
<clipPath id="clip0_5069_5293">
<rect width="1440" height="383" fill="white"/>
</clipPath>
<clipPath id="clip1_5069_5293">
<rect width="420" height="420" fill="white" transform="translate(71 -118)"/>
</clipPath>
</defs>
</svg>
