<svg width="453" height="437" viewBox="0 0 453 437" fill="none" xmlns="http://www.w3.org/2000/svg">
<circle cx="215.059" cy="222.624" r="184.432" transform="rotate(-9.11964 215.059 222.624)" fill="#2A4FA2" stroke="#191919" stroke-width="5"/>
<circle cx="238.001" cy="218.876" r="184.362" transform="rotate(-9.11964 238.001 218.876)" fill="#457EFF" stroke="#191919" stroke-width="5"/>
<path d="M178.995 347.664L180.809 345.944L178.995 347.664L184.01 352.956C186.237 355.306 189.918 355.494 192.381 353.405L355.273 215.279C365.798 206.355 363.099 189.541 350.31 184.359L152.37 104.156C149.377 102.943 145.94 104.274 144.561 107.202L141.453 113.798L143.715 114.864L141.453 113.798C140.063 116.749 141.269 120.205 144.069 121.74C158.897 129.863 171.567 139.653 182.045 150.617C221.025 191.4 230.281 249.056 206.024 299.991C199.503 313.682 190.534 326.947 178.994 339.303L178.994 339.303C176.814 341.636 176.751 345.297 178.995 347.664Z" fill="white" stroke="#191919" stroke-width="5"/>
<path d="M370.315 62.0618H370.349L321.778 114.102C321.778 114.103 321.777 114.103 321.777 114.104C321.592 114.301 321.347 114.433 321.081 114.479C320.814 114.526 320.539 114.484 320.297 114.361C320.056 114.237 319.861 114.039 319.742 113.795C319.624 113.552 319.588 113.278 319.638 113.013C319.639 113.012 319.639 113.01 319.639 113.009L326.509 78.6473L326.925 76.5637L324.936 75.8167L297.922 65.673L297.919 65.6719C297.726 65.5995 297.553 65.4804 297.417 65.3252L295.767 66.7715L297.417 65.3252C297.281 65.1699 297.185 64.9834 297.139 64.7822C297.093 64.581 297.097 64.3714 297.151 64.1722C297.205 63.973 297.308 63.7904 297.45 63.6406L297.457 63.6331L297.465 63.6255L349.961 7.37907C349.962 7.37861 349.962 7.37816 349.962 7.37771C350.148 7.18054 350.392 7.04882 350.659 7.00235C350.926 6.95576 351.201 6.99734 351.442 7.12082C351.684 7.24429 351.879 7.44296 351.997 7.68685C352.115 7.92928 352.152 8.20329 352.101 8.46801C352.101 8.46962 352.101 8.47122 352.1 8.47282L345.212 42.871L344.795 44.9561L346.786 45.7027L373.791 55.829C373.792 55.8294 373.793 55.8298 373.794 55.8302C373.985 55.9031 374.155 56.0216 374.289 56.1754L376.172 54.5309L374.289 56.1754C374.424 56.3301 374.519 56.5156 374.565 56.7156C374.611 56.9156 374.608 57.124 374.555 57.3222C374.501 57.5205 374.4 57.7026 374.259 57.8524L370.315 62.0618Z" fill="#FFC93E" stroke="#191919" stroke-width="5"/>
</svg>
