<svg width="1274" height="453" viewBox="0 0 1274 453" fill="none" xmlns="http://www.w3.org/2000/svg">
<path opacity="0.2" d="M1272.99 273.646C1272.99 298.016 1255.36 321.348 1223.19 342.661C1191.05 363.962 1144.5 383.163 1086.93 399.296C971.804 431.561 812.73 451.523 637 451.523C461.271 451.523 302.196 431.561 187.069 399.296C129.502 383.163 82.952 363.962 50.8052 342.661C18.639 321.348 1.0105 298.016 1.0105 273.646C1.0105 249.275 18.639 225.943 50.8052 204.63C82.952 183.329 129.502 164.128 187.069 147.995C302.196 115.73 461.271 95.7677 637 95.7677C812.73 95.7677 971.804 115.73 1086.93 147.995C1144.5 164.128 1191.05 183.329 1223.19 204.63C1255.36 225.943 1272.99 249.275 1272.99 273.646Z" stroke="white"/>
<path opacity="0.4" d="M1135.24 273.645C1135.24 292.685 1121.46 310.939 1096.27 327.634C1071.09 344.315 1034.63 359.357 989.524 371.997C899.326 397.275 774.69 412.917 637 412.917C499.31 412.917 374.674 397.275 284.476 371.997C239.374 359.357 202.91 344.315 177.734 327.634C152.539 310.939 138.765 292.685 138.765 273.645C138.765 254.605 152.539 236.351 177.734 219.656C202.91 202.975 239.374 187.933 284.476 175.293C374.674 150.015 499.31 134.373 637 134.373C774.69 134.373 899.326 150.015 989.524 175.293C1034.63 187.933 1071.09 202.975 1096.27 219.656C1121.46 236.351 1135.24 254.605 1135.24 273.645Z" stroke="white"/>
<path opacity="0.6" d="M998.178 273.645C998.178 287.382 988.239 300.584 969.979 312.683C951.738 324.769 925.311 335.672 892.61 344.837C827.214 363.164 736.842 374.506 637 374.506C537.158 374.506 446.786 363.164 381.39 344.837C348.689 335.672 322.262 324.769 304.021 312.683C285.761 300.584 275.822 287.382 275.822 273.645C275.822 259.909 285.761 246.707 304.021 234.608C322.262 222.522 348.689 211.618 381.39 202.454C446.786 184.126 537.158 172.784 637 172.784C736.842 172.784 827.214 184.126 892.61 202.454C925.311 211.618 951.738 222.522 969.979 234.608C988.239 246.707 998.178 259.909 998.178 273.645Z" stroke="white"/>
<path opacity="0.8" d="M863.465 273.645C863.465 282.169 857.296 290.405 845.853 297.987C834.429 305.556 817.866 312.392 797.354 318.141C756.336 329.636 699.642 336.752 637 336.752C574.358 336.752 517.664 329.636 476.647 318.141C456.134 312.392 439.571 305.556 428.147 297.987C416.704 290.405 410.535 282.169 410.535 273.645C410.535 265.121 416.704 256.885 428.147 249.303C439.571 241.733 456.134 234.897 476.647 229.149C517.664 217.654 574.358 210.537 637 210.537C699.642 210.537 756.336 217.654 797.354 229.149C817.866 234.897 834.429 241.733 845.853 249.303C857.296 256.885 863.465 265.121 863.465 273.645Z" stroke="white"/>
<path d="M722.472 273.646C722.472 276.714 720.248 279.753 715.94 282.607C711.651 285.449 705.412 288.028 697.657 290.201C682.154 294.546 660.708 297.24 637 297.24C613.292 297.24 591.846 294.546 576.343 290.201C568.589 288.028 562.349 285.449 558.06 282.607C553.752 279.753 551.528 276.714 551.528 273.646C551.528 270.577 553.752 267.539 558.06 264.684C562.349 261.842 568.589 259.264 576.343 257.09C591.846 252.746 613.292 250.052 637 250.052C660.708 250.052 682.154 252.746 697.657 257.09C705.412 259.264 711.651 261.842 715.94 264.684C720.248 267.539 722.472 270.577 722.472 273.646Z" stroke="white"/>
<circle cx="628.552" cy="137.145" r="136.5" fill="white" fill-opacity="0.3"/>
<circle cx="645.5" cy="137.093" r="136.449" fill="white"/>
<path fill-rule="evenodd" clip-rule="evenodd" d="M596.038 227.235C594.845 227.957 593.292 227.623 592.507 226.475L589.504 222.079C588.719 220.931 588.983 219.377 590.083 218.522C599.976 210.838 608.109 202.178 614.504 192.902C638.318 158.362 638.318 114.898 614.504 80.3586C608.109 71.0825 599.976 62.4219 590.083 54.738C588.983 53.8835 588.719 52.3291 589.504 51.1814L592.507 46.7854C593.292 45.6377 594.845 45.303 596.038 46.0249L729.466 126.758C736.913 131.264 736.913 141.996 729.466 146.502L596.038 227.235Z" fill="url(#paint0_linear_2444_20137)"/>
<defs>
<linearGradient id="paint0_linear_2444_20137" x1="735.051" y1="105.671" x2="589.052" y2="105.671" gradientUnits="userSpaceOnUse">
<stop stop-color="#3568DD"/>
<stop offset="1" stop-color="#7DA3F9"/>
</linearGradient>
</defs>
</svg>
