<svg width="33" height="32" viewBox="0 0 33 32" fill="none" xmlns="http://www.w3.org/2000/svg">
<g clip-path="url(#clip0_5069_8062)">
<path d="M31.2723 21.7985L27.5836 7.24976C27.4865 6.871 27.2811 6.52879 26.9924 6.26502C26.7038 6.00126 26.3445 5.82741 25.9586 5.76476L21.4511 5.02476C20.9542 4.94483 20.4453 5.05258 20.0234 5.32705C19.6015 5.60152 19.2968 6.02308 19.1686 6.50976L19.1423 6.61601C19.1253 6.68351 19.1226 6.75382 19.1343 6.82243C19.1461 6.89104 19.172 6.95645 19.2105 7.01446C19.249 7.07247 19.2991 7.1218 19.3578 7.15931C19.4164 7.19681 19.4823 7.22166 19.5511 7.23226C20.5854 7.38405 21.6058 7.61898 22.6023 7.93476C22.8514 8.00993 23.0627 8.17704 23.1931 8.40221C23.3236 8.62738 23.3635 8.89373 23.3048 9.14726C23.2711 9.27937 23.2107 9.40319 23.1273 9.5111C23.044 9.61902 22.9395 9.70875 22.8202 9.77478C22.7009 9.84081 22.5693 9.88174 22.4336 9.89507C22.2979 9.90839 22.1609 9.89382 22.0311 9.85226C18.3333 8.71824 14.3813 8.71388 10.6811 9.83976C10.4306 9.92395 10.1574 9.90846 9.91814 9.7965C9.67885 9.68454 9.49188 9.4847 9.39606 9.23851C9.35052 9.11217 9.33089 8.97796 9.33834 8.84388C9.34579 8.70979 9.38017 8.57858 9.43944 8.45807C9.4987 8.33757 9.58163 8.23023 9.68327 8.14247C9.78492 8.0547 9.9032 7.98831 10.0311 7.94726C11.0401 7.62587 12.0734 7.38675 13.1211 7.23226C13.1899 7.22166 13.2557 7.19681 13.3143 7.15931C13.373 7.1218 13.4231 7.07247 13.4616 7.01446C13.5001 6.95645 13.526 6.89104 13.5378 6.82243C13.5495 6.75382 13.5468 6.68351 13.5298 6.61601L13.5036 6.50976C13.3752 6.02267 13.0701 5.60084 12.6477 5.32652C12.2252 5.0522 11.7157 4.94507 11.2186 5.02601L6.70856 5.76601C6.32277 5.82856 5.96359 6.00223 5.67498 6.26576C5.38637 6.52928 5.18084 6.87123 5.08356 7.24976L1.39481 21.7985C1.27915 22.2558 1.32949 22.7393 1.53686 23.163C1.74424 23.5867 2.0952 23.9231 2.52731 24.1123L10.9023 27.826C11.1541 27.938 11.4262 27.9972 11.7018 28.0002C11.9773 28.0031 12.2506 27.9497 12.5048 27.8432C12.7589 27.7366 12.9886 27.5792 13.1797 27.3807C13.3708 27.1821 13.5193 26.9466 13.6161 26.6885L14.0523 25.5073C14.0783 25.4365 14.088 25.3608 14.0806 25.2858C14.0732 25.2108 14.0489 25.1384 14.0096 25.0741C13.9703 25.0098 13.9169 24.9552 13.8536 24.9144C13.7902 24.8736 13.7184 24.8476 13.6436 24.8385C12.4292 24.6915 11.2312 24.432 10.0648 24.0635C9.8167 23.9881 9.60639 23.8215 9.47627 23.5972C9.34614 23.3729 9.30587 23.1076 9.36356 22.8548C9.397 22.7223 9.45723 22.5981 9.54054 22.4898C9.62385 22.3815 9.72847 22.2914 9.84795 22.2251C9.96742 22.1588 10.0992 22.1177 10.2352 22.1043C10.3712 22.0909 10.5085 22.1055 10.6386 22.1473C14.3502 23.2839 18.317 23.2839 22.0286 22.1473C22.1585 22.1057 22.2956 22.0912 22.4313 22.1046C22.5671 22.118 22.6987 22.159 22.818 22.2252C22.9373 22.2913 23.0418 22.3812 23.1251 22.4893C23.2084 22.5973 23.2687 22.7213 23.3023 22.8535C23.3607 23.1065 23.3207 23.3723 23.1905 23.5969C23.0603 23.8216 22.8496 23.9883 22.6011 24.0635C21.4352 24.4321 20.2375 24.6916 19.0236 24.8385C18.9487 24.8476 18.8769 24.8736 18.8136 24.9144C18.7502 24.9552 18.6968 25.0098 18.6575 25.0741C18.6182 25.1384 18.5939 25.2108 18.5865 25.2858C18.5792 25.3608 18.5888 25.4365 18.6148 25.5073L19.0511 26.6885C19.1479 26.9464 19.2965 27.1819 19.4876 27.3803C19.6788 27.5788 19.9084 27.7361 20.1626 27.8426C20.4167 27.9492 20.6899 28.0026 20.9654 27.9998C21.2409 27.9969 21.513 27.9378 21.7648 27.826L30.1398 24.1123C30.5719 23.9231 30.9229 23.5867 31.1303 23.163C31.3376 22.7393 31.388 22.2558 31.2723 21.7985ZM11.8336 18.9998C11.5369 18.9998 11.2469 18.9118 11.0002 18.747C10.7535 18.5821 10.5613 18.3479 10.4477 18.0738C10.3342 17.7997 10.3045 17.4981 10.3624 17.2071C10.4203 16.9161 10.5631 16.6489 10.7729 16.4391C10.9827 16.2293 11.25 16.0865 11.5409 16.0286C11.8319 15.9707 12.1335 16.0004 12.4076 16.1139C12.6817 16.2275 12.9159 16.4197 13.0808 16.6664C13.2456 16.9131 13.3336 17.2031 13.3336 17.4998C13.3336 17.8976 13.1755 18.2791 12.8942 18.5604C12.6129 18.8417 12.2314 18.9998 11.8336 18.9998ZM20.8336 18.9998C20.5369 18.9998 20.2469 18.9118 20.0002 18.747C19.7535 18.5821 19.5613 18.3479 19.4477 18.0738C19.3342 17.7997 19.3045 17.4981 19.3624 17.2071C19.4203 16.9161 19.5631 16.6489 19.7729 16.4391C19.9827 16.2293 20.25 16.0865 20.5409 16.0286C20.8319 15.9707 21.1335 16.0004 21.4076 16.1139C21.6817 16.2275 21.9159 16.4197 22.0808 16.6664C22.2456 16.9131 22.3336 17.2031 22.3336 17.4998C22.3336 17.8976 22.1755 18.2791 21.8942 18.5604C21.6129 18.8417 21.2314 18.9998 20.8336 18.9998Z" fill="white" fill-opacity="0.4"/>
</g>
<defs>
<clipPath id="clip0_5069_8062">
<rect width="32" height="32" fill="white" transform="translate(0.333496)"/>
</clipPath>
</defs>
</svg>
