<svg width="33" height="32" viewBox="0 0 33 32" fill="none" xmlns="http://www.w3.org/2000/svg">
<g clip-path="url(#clip0_5069_8059)">
<path d="M31.3334 12.9996C31.3333 12.2331 31.1128 11.4827 30.6984 10.8379C30.284 10.1931 29.693 9.6809 28.9958 9.36233C28.2987 9.04376 27.5246 8.93223 26.7659 9.04099C26.0071 9.14976 25.2956 9.47425 24.7159 9.97584C22.6222 8.86334 20.1209 8.19084 17.5084 8.03459L18.1572 4.13834L20.3722 4.47834C20.4846 5.17705 20.8403 5.81354 21.3766 6.27531C21.9129 6.73708 22.5951 6.9944 23.3028 7.00179C24.0104 7.00918 24.6979 6.76616 25.2437 6.31569C25.7895 5.86522 26.1585 5.23631 26.2855 4.54009C26.4124 3.84388 26.2891 3.12521 25.9375 2.51109C25.5858 1.89697 25.0283 1.42696 24.3636 1.18411C23.6989 0.941268 22.9697 0.941232 22.3049 1.18401C21.6402 1.42679 21.0827 1.89675 20.7309 2.51084L17.4809 2.01084C17.2209 1.97075 16.9556 2.03473 16.7424 2.18892C16.5293 2.34312 16.3855 2.5751 16.3422 2.83459L15.4834 8.01959C12.7534 8.13709 10.1309 8.81709 7.95094 9.97584C7.15482 9.3033 6.12765 8.96803 5.08807 9.04139C4.04848 9.11475 3.07858 9.59094 2.38479 10.3686C1.69101 11.1463 1.32814 12.164 1.37341 13.2052C1.41868 14.2464 1.86852 15.2288 2.62719 15.9433C2.43276 16.6115 2.33386 17.3037 2.33344 17.9996C2.33344 20.7408 3.83344 23.2933 6.57219 25.1858C9.19344 26.9996 12.6597 27.9996 16.3334 27.9996C20.0072 27.9996 23.4734 26.9996 26.0947 25.1858C28.8334 23.2933 30.3334 20.7408 30.3334 17.9996C30.333 17.3037 30.2341 16.6115 30.0397 15.9433C30.4463 15.5681 30.7711 15.113 30.9937 14.6065C31.2163 14.0999 31.332 13.5529 31.3334 12.9996ZM23.3334 2.99959C23.5312 2.99959 23.7246 3.05824 23.889 3.16812C24.0535 3.278 24.1816 3.43418 24.2573 3.6169C24.333 3.79963 24.3528 4.0007 24.3142 4.19468C24.2756 4.38866 24.1804 4.56684 24.0405 4.70669C23.9007 4.84655 23.7225 4.94179 23.5285 4.98037C23.3345 5.01896 23.1335 4.99915 22.9508 4.92347C22.768 4.84778 22.6119 4.71961 22.502 4.55516C22.3921 4.39071 22.3334 4.19737 22.3334 3.99959C22.3334 3.73437 22.4388 3.48002 22.6263 3.29248C22.8139 3.10494 23.0682 2.99959 23.3334 2.99959ZM9.33344 15.9996C9.33344 15.604 9.45074 15.2173 9.6705 14.8884C9.89026 14.5595 10.2026 14.3032 10.5681 14.1518C10.9335 14.0005 11.3357 13.9608 11.7236 14.038C12.1116 14.1152 12.4679 14.3057 12.7477 14.5854C13.0274 14.8651 13.2178 15.2214 13.295 15.6094C13.3722 15.9974 13.3326 16.3995 13.1812 16.765C13.0298 17.1304 12.7735 17.4428 12.4446 17.6625C12.1157 17.8823 11.729 17.9996 11.3334 17.9996C10.803 17.9996 10.2943 17.7889 9.91923 17.4138C9.54415 17.0387 9.33344 16.53 9.33344 15.9996ZM20.8022 22.8833C19.4262 23.6146 17.8917 23.997 16.3334 23.997C14.7752 23.997 13.2407 23.6146 11.8647 22.8833C11.7486 22.8218 11.6458 22.738 11.5622 22.6367C11.4785 22.5354 11.4156 22.4186 11.3771 22.293C11.3385 22.1674 11.3251 22.0355 11.3376 21.9047C11.35 21.7739 11.3881 21.6469 11.4497 21.5308C11.5112 21.4148 11.5951 21.312 11.6963 21.2283C11.7976 21.1447 11.9144 21.0818 12.04 21.0432C12.1656 21.0047 12.2975 20.9913 12.4283 21.0037C12.5591 21.0162 12.6861 21.0543 12.8022 21.1158C13.8895 21.6939 15.102 21.9962 16.3334 21.9962C17.5648 21.9962 18.7774 21.6939 19.8647 21.1158C19.9807 21.0543 20.1078 21.0162 20.2386 21.0037C20.3693 20.9913 20.5013 21.0047 20.6269 21.0432C20.7525 21.0818 20.8693 21.1447 20.9705 21.2283C21.0718 21.312 21.1556 21.4148 21.2172 21.5308C21.2787 21.6469 21.3168 21.7739 21.3293 21.9047C21.3418 22.0355 21.3283 22.1674 21.2898 22.293C21.2513 22.4186 21.1884 22.5354 21.1047 22.6367C21.021 22.738 20.9182 22.8218 20.8022 22.8833ZM21.3334 17.9996C20.9379 17.9996 20.5512 17.8823 20.2223 17.6625C19.8934 17.4428 19.6371 17.1304 19.4857 16.765C19.3343 16.3995 19.2947 15.9974 19.3719 15.6094C19.449 15.2214 19.6395 14.8651 19.9192 14.5854C20.1989 14.3057 20.5553 14.1152 20.9433 14.038C21.3312 13.9608 21.7334 14.0005 22.0988 14.1518C22.4643 14.3032 22.7766 14.5595 22.9964 14.8884C23.2161 15.2173 23.3334 15.604 23.3334 15.9996C23.3334 16.53 23.1227 17.0387 22.7477 17.4138C22.3726 17.7889 21.8639 17.9996 21.3334 17.9996Z" fill="white" fill-opacity="0.4"/>
</g>
<defs>
<clipPath id="clip0_5069_8059">
<rect width="32" height="32" fill="white" transform="translate(0.333496)"/>
</clipPath>
</defs>
</svg>
