<svg width="33" height="32" viewBox="0 0 33 32" fill="none" xmlns="http://www.w3.org/2000/svg">
<g clip-path="url(#clip0_5069_8058)">
<path d="M30.2763 3.27376C30.1214 3.13997 29.9329 3.051 29.7311 3.01641C29.5294 2.98183 29.322 3.00296 29.1313 3.07751L3.79883 12.9913C3.43981 13.1309 3.13586 13.3833 2.93274 13.7106C2.72961 14.0379 2.63831 14.4224 2.67258 14.806C2.70684 15.1897 2.86482 15.5519 3.12272 15.838C3.38063 16.1241 3.72451 16.3187 4.10258 16.3925L10.6663 17.6813V25C10.665 25.3987 10.7835 25.7885 11.0064 26.119C11.2293 26.4496 11.5463 26.7055 11.9163 26.8538C12.2858 27.0046 12.6922 27.0409 13.0825 26.9577C13.4729 26.8746 13.8292 26.6759 14.1051 26.3875L17.2701 23.105L22.2913 27.5C22.6536 27.8213 23.1208 27.9992 23.6051 28C23.8173 27.9998 24.0282 27.9665 24.2301 27.9013C24.56 27.7966 24.8568 27.6073 25.0908 27.3522C25.3248 27.0971 25.4879 26.7852 25.5638 26.4475L30.6376 4.37501C30.683 4.17595 30.6733 3.96829 30.6097 3.77429C30.546 3.58029 30.4308 3.40727 30.2763 3.27376ZM23.6076 26L13.2726 16.9375L28.1476 6.27626L23.6076 26Z" fill="white" fill-opacity="0.4"/>
</g>
<defs>
<clipPath id="clip0_5069_8058">
<rect width="32" height="32" fill="white" transform="translate(0.666504)"/>
</clipPath>
</defs>
</svg>
