<svg width="33" height="32" viewBox="0 0 33 32" fill="none" xmlns="http://www.w3.org/2000/svg">
<path d="M29.9578 8.69C29.84 8.22919 29.6143 7.80298 29.2994 7.44654C28.9845 7.09011 28.5893 6.81366 28.1465 6.64C23.8615 4.985 17.0415 5 16.6665 5C16.2915 5 9.4715 4.985 5.1865 6.64C4.74371 6.81366 4.34855 7.09011 4.03362 7.44654C3.7187 7.80298 3.49304 8.22919 3.37525 8.69C3.0515 9.9375 2.6665 12.2175 2.6665 16C2.6665 19.7825 3.0515 22.0625 3.37525 23.31C3.49286 23.771 3.71844 24.1975 4.03338 24.5542C4.34831 24.9108 4.74356 25.1875 5.1865 25.3613C9.2915 26.945 15.7165 27 16.584 27H16.749C17.6165 27 24.0453 26.945 28.1465 25.3613C28.5894 25.1875 28.9847 24.9108 29.2996 24.5542C29.6146 24.1975 29.8401 23.771 29.9578 23.31C30.2815 22.06 30.6665 19.7825 30.6665 16C30.6665 12.2175 30.2815 9.9375 29.9578 8.69ZM20.944 16.4163L14.944 20.4163C14.8687 20.4665 14.7811 20.4954 14.6907 20.4997C14.6003 20.5041 14.5103 20.4839 14.4305 20.4411C14.3507 20.3984 14.284 20.3348 14.2375 20.2571C14.191 20.1794 14.1664 20.0905 14.1665 20V12C14.1664 11.9095 14.191 11.8206 14.2375 11.7429C14.284 11.6652 14.3507 11.6016 14.4305 11.5589C14.5103 11.5161 14.6003 11.4959 14.6907 11.5003C14.7811 11.5046 14.8687 11.5335 14.944 11.5838L20.944 15.5838C21.0126 15.6294 21.0688 15.6913 21.1077 15.7639C21.1466 15.8365 21.167 15.9176 21.167 16C21.167 16.0824 21.1466 16.1635 21.1077 16.2361C21.0688 16.3087 21.0126 16.3706 20.944 16.4163Z" fill="white" fill-opacity="0.4"/>
</svg>
