<svg width="200" height="29" viewBox="0 0 200 29" fill="none" xmlns="http://www.w3.org/2000/svg">
<path fill-rule="evenodd" clip-rule="evenodd" d="M18.4885 12.7848C20.6826 10.3607 23.0945 8.11316 25.4954 6.08219C22.9404 2.69187 18.88 0.5 14.3077 0.5C6.57566 0.5 0.307617 6.76801 0.307617 14.5C0.307617 20.7123 4.35392 25.9796 9.9548 27.8101C11.1368 22.2847 14.501 17.1905 18.4885 12.7848ZM20.2185 14.3506C22.2574 12.0979 24.4997 9.99532 26.7508 8.07714C27.7458 10.0008 28.3078 12.1848 28.3078 14.5C28.3078 22.232 22.0397 28.5 14.3077 28.5C13.6006 28.5 12.9058 28.4476 12.2268 28.3464C13.2745 23.3888 16.3276 18.6495 20.2185 14.3506ZM10.0461 9.44002L9.08222 6.4734L8.1183 9.44002H4.999L7.52257 11.2735L6.55865 14.2401L9.08222 12.4066L11.6058 14.2401L10.6419 11.2735L13.1654 9.44002H10.0461Z" fill="white"/>
<path d="M191.984 20.538V9.91633H187.04V7.71875H199.419V9.91633H194.365V20.538H191.984Z" fill="white"/>
<path d="M171.391 20.538V7.71875H182.342V9.87971H173.735V18.377H182.416V20.538H171.391ZM172.673 15.044V12.9197H181.408V15.044H172.673Z" fill="white"/>
<path d="M154.292 20.538V7.71875H165.243V9.87971H156.636V18.377H165.316V20.538H154.292ZM155.573 15.044V12.9197H164.309V15.044H155.573Z" fill="white"/>
<path d="M138.073 20.538V7.71875H140.453V18.3404H148.933V20.538H138.073Z" fill="white"/>
<path d="M121.545 20.538V7.71875H123.926V20.538H121.545ZM122.424 15.4652V13.3043H131.453V15.4652H122.424ZM122.681 9.91633V7.71875H132.24V9.91633H122.681Z" fill="white"/>
<path d="M93.8618 20.538V7.71875H101.334C102.188 7.71875 102.945 7.88967 103.604 8.23152C104.264 8.57337 104.783 9.04951 105.161 9.65995C105.552 10.2582 105.747 10.9419 105.747 11.711C105.747 12.5046 105.533 13.2188 105.106 13.8537C104.691 14.4885 104.129 14.9952 103.421 15.3737C102.725 15.7399 101.95 15.9231 101.096 15.9231H96.1876V20.538H93.8618ZM103.604 20.538L99.2459 14.751L101.773 14.2932L106.498 20.5563L103.604 20.538ZM96.1876 13.8537H100.857C101.285 13.8537 101.682 13.7621 102.048 13.579C102.414 13.3836 102.707 13.1334 102.927 12.8281C103.147 12.5107 103.257 12.1566 103.257 11.766C103.257 11.3997 103.147 11.0762 102.927 10.7954C102.707 10.5146 102.414 10.2887 102.048 10.1178C101.682 9.94686 101.279 9.8614 100.839 9.8614H96.1876V13.8537Z" fill="white"/>
<path d="M73.9888 20.538L80.2885 7.71875H82.8158L89.0789 20.538H86.5334L82.4129 12.1505C82.2908 11.9064 82.1748 11.6744 82.0649 11.4546C81.9551 11.2227 81.8513 10.9968 81.7536 10.7771C81.6559 10.5451 81.5583 10.3131 81.4606 10.0812C81.3629 9.83698 81.2714 9.58059 81.1859 9.312L81.8085 9.29369C81.7109 9.57449 81.6132 9.84308 81.5155 10.0995C81.4179 10.3436 81.3141 10.5817 81.2042 10.8137C81.0943 11.0456 80.9844 11.2776 80.8746 11.5096C80.7647 11.7293 80.6548 11.9613 80.5449 12.2055L76.4427 20.538H73.9888ZM76.7907 17.791L77.6697 15.7216H85.2881L85.636 17.791H76.7907Z" fill="white"/>
<path d="M64.1326 20.538V9.91633H59.188V7.71875H71.5678V9.91633H66.5133V20.538H64.1326Z" fill="white"/>
<path d="M48.9771 20.7212C48.0248 20.7212 47.1457 20.6296 46.34 20.4465C45.5342 20.2633 44.7955 19.9947 44.1241 19.6407C43.4648 19.2866 42.8604 18.8593 42.311 18.3587L43.6296 16.3992C44.4964 17.1806 45.3755 17.7544 46.2667 18.1207C47.158 18.4747 48.0919 18.6518 49.0686 18.6518C49.6302 18.6518 50.1735 18.5907 50.6985 18.4686C51.2357 18.3343 51.6813 18.1329 52.0354 17.8643C52.3894 17.5957 52.5665 17.2416 52.5665 16.8021C52.5665 16.5335 52.4749 16.3138 52.2918 16.1429C52.1086 15.9597 51.8645 15.8132 51.5592 15.7033C51.254 15.5935 50.9183 15.508 50.552 15.447C50.1857 15.3737 49.8195 15.3188 49.4532 15.2821C49.087 15.2455 48.7573 15.215 48.4643 15.1906C47.6341 15.0929 46.8771 14.9525 46.1935 14.7694C45.522 14.574 44.9481 14.3237 44.472 14.0185C43.9959 13.7133 43.6296 13.347 43.3732 12.9197C43.1168 12.4802 42.9886 11.9735 42.9886 11.3997C42.9886 10.7771 43.1351 10.2277 43.4281 9.75155C43.7334 9.2632 44.1546 8.8542 44.6918 8.52456C45.2412 8.19493 45.8699 7.94464 46.578 7.77372C47.2984 7.59059 48.0736 7.49902 48.9038 7.49902C49.7829 7.49902 50.5825 7.58449 51.3029 7.75541C52.0232 7.92633 52.6641 8.17051 53.2258 8.48794C53.7874 8.79316 54.2513 9.16552 54.6176 9.60504L53.2258 11.3082C52.8717 10.9297 52.4627 10.6123 51.9988 10.3559C51.5348 10.0995 51.0343 9.91026 50.4971 9.78817C49.9599 9.65388 49.4044 9.58673 48.8306 9.58673C48.2079 9.58673 47.6463 9.64777 47.1457 9.76986C46.6574 9.89195 46.2667 10.069 45.9737 10.3009C45.6929 10.5329 45.5525 10.8259 45.5525 11.18C45.5525 11.473 45.6502 11.7233 45.8455 11.9308C46.0531 12.1384 46.3277 12.3093 46.6696 12.4436C47.0114 12.5779 47.4082 12.6878 47.86 12.7732C48.3239 12.8465 48.8123 12.9136 49.325 12.9747C50.0576 13.0601 50.7718 13.17 51.4677 13.3043C52.1636 13.4264 52.7862 13.6095 53.3356 13.8537C53.885 14.0979 54.3184 14.4336 54.6359 14.8609C54.9655 15.276 55.1303 15.8315 55.1303 16.5274C55.1303 17.382 54.8678 18.1268 54.3429 18.7616C53.8301 19.3843 53.1098 19.8665 52.1819 20.2084C51.2662 20.5502 50.198 20.7212 48.9771 20.7212Z" fill="white"/>
</svg>
