<svg width="343" height="474" viewBox="0 0 343 474" fill="none" xmlns="http://www.w3.org/2000/svg">
<g clip-path="url(#clip0_65_2015)">
<rect width="343" height="474" rx="20.1148" fill="#3668DD"/>
<g style="mix-blend-mode:hard-light">
<mask id="path-2-inside-1_65_2015" fill="white">
<path fill-rule="evenodd" clip-rule="evenodd" d="M89.7051 354.685C89.7051 361.65 95.3513 367.296 102.316 367.296L146.286 367.296C153.251 367.296 158.897 361.65 158.897 354.685L158.897 312.756C158.897 311.803 159.743 311.078 160.696 311.078V311.078L204.666 311.078C211.631 311.078 217.277 305.432 217.277 298.467L217.277 254.497C217.277 247.532 211.631 241.886 204.666 241.886L160.696 241.886C153.731 241.886 148.085 247.532 148.085 254.497L148.085 296.426C148.085 297.379 147.239 298.104 146.286 298.104V298.104L102.316 298.104C95.3513 298.104 89.7051 303.751 89.7051 310.716L89.7051 354.685Z"/>
</mask>
<path d="M217.277 298.467L218.663 298.467L217.277 298.467ZM217.277 254.497L215.891 254.497L217.277 254.497ZM204.666 241.886L204.666 240.5L204.666 241.886ZM160.696 241.886L160.696 243.272L160.696 241.886ZM148.085 254.497L149.471 254.497L148.085 254.497ZM102.316 298.104L102.316 296.718L102.316 298.104ZM148.085 296.426L149.471 296.426L148.085 296.426ZM102.316 365.91C96.1167 365.91 91.091 360.885 91.091 354.685L88.3192 354.685C88.3192 362.415 94.5859 368.682 102.316 368.682L102.316 365.91ZM146.286 365.91L102.316 365.91L102.316 368.682L146.286 368.682L146.286 365.91ZM157.511 354.685C157.511 360.885 152.485 365.91 146.286 365.91L146.286 368.682C154.016 368.682 160.283 362.415 160.283 354.685L157.511 354.685ZM157.511 312.756L157.511 354.685L160.283 354.685L160.283 312.756L157.511 312.756ZM204.666 309.692L160.696 309.692L160.696 312.464L204.666 312.464L204.666 309.692ZM215.891 298.467C215.891 304.666 210.865 309.692 204.666 309.692L204.666 312.464C212.396 312.464 218.663 306.197 218.663 298.467L215.891 298.467ZM215.891 254.497L215.891 298.467L218.663 298.467L218.663 254.497L215.891 254.497ZM204.666 243.272C210.865 243.272 215.891 248.298 215.891 254.497L218.663 254.497C218.663 246.767 212.396 240.5 204.666 240.5L204.666 243.272ZM160.696 243.272L204.666 243.272L204.666 240.5L160.696 240.5L160.696 243.272ZM149.471 254.497C149.471 248.298 154.497 243.272 160.696 243.272L160.696 240.5C152.966 240.5 146.699 246.767 146.699 254.497L149.471 254.497ZM149.471 296.426L149.471 254.497L146.699 254.497L146.699 296.426L149.471 296.426ZM102.316 299.49L146.286 299.49L146.286 296.718L102.316 296.718L102.316 299.49ZM91.091 310.716C91.091 304.516 96.1167 299.49 102.316 299.49L102.316 296.718C94.5859 296.718 88.3192 302.985 88.3192 310.716L91.091 310.716ZM91.091 354.685L91.091 310.716L88.3192 310.716L88.3192 354.685L91.091 354.685ZM146.699 296.426C146.699 296.473 146.683 296.531 146.611 296.597C146.533 296.668 146.414 296.718 146.286 296.718L146.286 299.49C147.875 299.49 149.471 298.267 149.471 296.426L146.699 296.426ZM160.283 312.756C160.283 312.709 160.299 312.651 160.371 312.585C160.449 312.514 160.568 312.464 160.696 312.464L160.696 309.692C159.106 309.692 157.511 310.915 157.511 312.756L160.283 312.756Z" fill="url(#paint0_linear_65_2015)" mask="url(#path-2-inside-1_65_2015)"/>
<mask id="path-4-inside-2_65_2015" fill="white">
<path fill-rule="evenodd" clip-rule="evenodd" d="M114.567 441.887C114.567 448.852 120.214 454.498 127.179 454.498L171.148 454.498C178.113 454.498 183.759 448.852 183.759 441.887L183.759 399.958C183.759 399.005 184.606 398.28 185.559 398.28V398.28L229.528 398.28C236.493 398.28 242.139 392.634 242.139 385.669L242.139 341.699C242.139 334.734 236.493 329.088 229.528 329.088L185.559 329.088C178.594 329.088 172.947 334.734 172.947 341.699L172.947 383.628C172.947 384.581 172.101 385.306 171.148 385.306V385.306L127.179 385.306C120.214 385.306 114.567 390.952 114.567 397.917L114.567 441.887Z"/>
</mask>
<path d="M183.759 441.887L182.373 441.887L183.759 441.887ZM127.179 385.306L127.179 383.92L127.179 385.306ZM183.759 399.958L185.145 399.958L183.759 399.958ZM127.179 453.112C120.979 453.112 115.953 448.086 115.953 441.887L113.181 441.887C113.181 449.617 119.448 455.884 127.179 455.884L127.179 453.112ZM171.148 453.112L127.179 453.112L127.179 455.884L171.148 455.884L171.148 453.112ZM182.373 441.887C182.373 448.086 177.348 453.112 171.148 453.112L171.148 455.884C178.878 455.884 185.145 449.617 185.145 441.887L182.373 441.887ZM182.373 399.958L182.373 441.887L185.145 441.887L185.145 399.958L182.373 399.958ZM229.528 396.894L185.559 396.894L185.559 399.666L229.528 399.666L229.528 396.894ZM240.753 385.669C240.753 391.868 235.727 396.894 229.528 396.894L229.528 399.666C237.258 399.666 243.525 393.399 243.525 385.669L240.753 385.669ZM240.753 341.699L240.753 385.669L243.525 385.669L243.525 341.699L240.753 341.699ZM229.528 330.474C235.728 330.474 240.753 335.5 240.753 341.699L243.525 341.699C243.525 333.969 237.258 327.702 229.528 327.702L229.528 330.474ZM185.559 330.474L229.528 330.474L229.528 327.702L185.559 327.702L185.559 330.474ZM174.333 341.699C174.333 335.5 179.359 330.474 185.559 330.474L185.559 327.702C177.828 327.702 171.561 333.969 171.561 341.699L174.333 341.699ZM174.333 383.628L174.333 341.699L171.561 341.699L171.561 383.628L174.333 383.628ZM127.179 386.692L171.148 386.692L171.148 383.92L127.179 383.92L127.179 386.692ZM115.953 397.917C115.953 391.718 120.979 386.692 127.179 386.692L127.179 383.92C119.448 383.92 113.181 390.187 113.181 397.917L115.953 397.917ZM115.953 441.887L115.953 397.917L113.181 397.917L113.181 441.887L115.953 441.887ZM171.561 383.628C171.561 383.675 171.545 383.733 171.473 383.799C171.395 383.87 171.276 383.92 171.148 383.92L171.148 386.692C172.738 386.692 174.333 385.469 174.333 383.628L171.561 383.628ZM185.145 399.958C185.145 399.912 185.161 399.853 185.233 399.788C185.312 399.716 185.43 399.666 185.559 399.666L185.559 396.894C183.969 396.894 182.373 398.117 182.373 399.958L185.145 399.958Z" fill="url(#paint1_linear_65_2015)" mask="url(#path-4-inside-2_65_2015)"/>
<mask id="path-6-inside-3_65_2015" fill="white">
<path fill-rule="evenodd" clip-rule="evenodd" d="M255.037 385.414C255.037 392.379 260.683 398.025 267.648 398.025L311.618 398.025C318.583 398.025 324.229 392.379 324.229 385.414L324.229 343.486C324.229 342.533 325.076 341.807 326.029 341.807V341.807L369.998 341.807C376.963 341.807 382.61 336.161 382.61 329.196L382.61 285.227C382.61 278.262 376.963 272.616 369.998 272.616L326.029 272.616C319.064 272.616 313.418 278.262 313.418 285.227L313.418 327.155C313.418 328.108 312.571 328.834 311.618 328.834V328.834L267.648 328.834C260.683 328.834 255.037 334.48 255.037 341.445L255.037 385.414Z"/>
</mask>
<path d="M267.648 328.834L267.648 327.448L267.648 328.834ZM267.648 396.64C261.449 396.64 256.423 391.614 256.423 385.414L253.651 385.414C253.651 393.145 259.918 399.411 267.648 399.411L267.648 396.64ZM311.618 396.64L267.648 396.64L267.648 399.411L311.618 399.411L311.618 396.64ZM322.843 385.414C322.843 391.614 317.817 396.64 311.618 396.64L311.618 399.411C319.348 399.411 325.615 393.145 325.615 385.414L322.843 385.414ZM322.843 343.486L322.843 385.414L325.615 385.414L325.615 343.486L322.843 343.486ZM369.998 340.421L326.029 340.421L326.029 343.193L369.998 343.193L369.998 340.421ZM381.224 329.196C381.224 335.396 376.198 340.421 369.998 340.421L369.998 343.193C377.729 343.193 383.996 336.927 383.996 329.196L381.224 329.196ZM381.224 285.227L381.224 329.196L383.996 329.196L383.996 285.227L381.224 285.227ZM369.998 274.001C376.198 274.001 381.224 279.027 381.224 285.227L383.996 285.227C383.996 277.496 377.729 271.23 369.998 271.23L369.998 274.001ZM326.029 274.001L369.998 274.001L369.998 271.23L326.029 271.23L326.029 274.001ZM314.804 285.227C314.804 279.027 319.829 274.001 326.029 274.001L326.029 271.23C318.299 271.23 312.032 277.496 312.032 285.227L314.804 285.227ZM314.804 327.155L314.804 285.227L312.032 285.227L312.032 327.155L314.804 327.155ZM267.648 330.219L311.618 330.219L311.618 327.448L267.648 327.448L267.648 330.219ZM256.423 341.445C256.423 335.245 261.449 330.219 267.648 330.219L267.648 327.448C259.918 327.448 253.651 333.714 253.651 341.445L256.423 341.445ZM256.423 385.414L256.423 341.445L253.651 341.445L253.651 385.414L256.423 385.414ZM312.032 327.155C312.032 327.202 312.016 327.26 311.943 327.326C311.865 327.397 311.746 327.448 311.618 327.448L311.618 330.219C313.208 330.219 314.804 328.996 314.804 327.155L312.032 327.155ZM325.615 343.486C325.615 343.439 325.631 343.381 325.703 343.315C325.782 343.244 325.9 343.193 326.029 343.193L326.029 340.421C324.439 340.421 322.843 341.645 322.843 343.486L325.615 343.486Z" fill="url(#paint2_linear_65_2015)" mask="url(#path-6-inside-3_65_2015)"/>
</g>
</g>
<defs>
<linearGradient id="paint0_linear_65_2015" x1="89.7051" y1="304.591" x2="217.277" y2="304.591" gradientUnits="userSpaceOnUse">
<stop stop-color="#2EBB8E"/>
<stop offset="1" stop-color="#457EFF"/>
</linearGradient>
<linearGradient id="paint1_linear_65_2015" x1="114.567" y1="391.793" x2="242.139" y2="391.793" gradientUnits="userSpaceOnUse">
<stop stop-color="#2EBB8E"/>
<stop offset="1" stop-color="#457EFF"/>
</linearGradient>
<linearGradient id="paint2_linear_65_2015" x1="255.037" y1="335.32" x2="382.61" y2="335.32" gradientUnits="userSpaceOnUse">
<stop stop-color="#2EBB8E"/>
<stop offset="1" stop-color="#457EFF"/>
</linearGradient>
<clipPath id="clip0_65_2015">
<rect width="343" height="474" rx="20.1148" fill="white"/>
</clipPath>
</defs>
</svg>
