<svg width="704" height="305" viewBox="0 0 704 305" fill="none" xmlns="http://www.w3.org/2000/svg">
<g clip-path="url(#clip0_65_1878)">
<rect width="704" height="305" rx="20.1148" fill="#3668DD"/>
<g style="mix-blend-mode:hard-light">
<mask id="path-2-inside-1_65_1878" fill="white">
<path fill-rule="evenodd" clip-rule="evenodd" d="M348.979 136.916C348.979 143.881 354.626 149.527 361.591 149.527L405.56 149.527C412.525 149.527 418.171 143.881 418.171 136.916L418.171 94.9863C418.171 94.0335 419.018 93.3085 419.97 93.3085V93.3085L463.94 93.3085C470.905 93.3085 476.551 87.6622 476.551 80.6973L476.551 36.7279C476.551 29.7629 470.905 24.1167 463.94 24.1167L419.97 24.1167C413.006 24.1167 407.359 29.7629 407.359 36.7279L407.359 78.6574C407.359 79.6102 406.513 80.3353 405.56 80.3353V80.3353L361.591 80.3353C354.626 80.3353 348.979 85.9815 348.979 92.9464L348.979 136.916Z"/>
</mask>
<path d="M361.591 149.527L361.591 150.913L361.591 149.527ZM405.56 149.527L405.56 148.141L405.56 149.527ZM418.171 136.916L416.785 136.916L418.171 136.916ZM407.359 36.7279L405.973 36.7279L407.359 36.7279ZM407.359 78.6574L405.973 78.6574L407.359 78.6574ZM418.171 94.9863L419.557 94.9863L418.171 94.9863ZM361.591 148.141C355.391 148.141 350.365 143.115 350.365 136.916L347.594 136.916C347.594 144.646 353.86 150.913 361.591 150.913L361.591 148.141ZM405.56 148.141L361.591 148.141L361.591 150.913L405.56 150.913L405.56 148.141ZM416.785 136.916C416.785 143.115 411.76 148.141 405.56 148.141L405.56 150.913C413.29 150.913 419.557 144.646 419.557 136.916L416.785 136.916ZM416.785 94.9863L416.785 136.916L419.557 136.916L419.557 94.9863L416.785 94.9863ZM463.94 91.9226L419.97 91.9226L419.97 94.6943L463.94 94.6943L463.94 91.9226ZM475.165 80.6973C475.165 86.8968 470.139 91.9226 463.94 91.9226L463.94 94.6943C471.67 94.6943 477.937 88.4276 477.937 80.6973L475.165 80.6973ZM475.165 36.7279L475.165 80.6973L477.937 80.6973L477.937 36.7279L475.165 36.7279ZM463.94 25.5026C470.139 25.5026 475.165 30.5283 475.165 36.7279L477.937 36.7279C477.937 28.9975 471.67 22.7308 463.94 22.7308L463.94 25.5026ZM419.97 25.5026L463.94 25.5026L463.94 22.7308L419.97 22.7308L419.97 25.5026ZM408.745 36.7279C408.745 30.5283 413.771 25.5026 419.97 25.5026L419.97 22.7308C412.24 22.7308 405.973 28.9975 405.973 36.7279L408.745 36.7279ZM408.745 78.6574L408.745 36.7279L405.973 36.7279L405.973 78.6574L408.745 78.6574ZM361.591 81.7211L405.56 81.7211L405.56 78.9494L361.591 78.9494L361.591 81.7211ZM350.365 92.9464C350.365 86.7469 355.391 81.7211 361.591 81.7211L361.591 78.9494C353.86 78.9494 347.594 85.2161 347.594 92.9464L350.365 92.9464ZM350.365 136.916L350.365 92.9464L347.594 92.9464L347.594 136.916L350.365 136.916ZM405.973 78.6574C405.973 78.7039 405.957 78.7624 405.885 78.8277C405.807 78.8988 405.688 78.9494 405.56 78.9494L405.56 81.7211C407.15 81.7211 408.745 80.4981 408.745 78.6574L405.973 78.6574ZM419.557 94.9863C419.557 94.9399 419.573 94.8813 419.645 94.816C419.724 94.7449 419.842 94.6943 419.97 94.6943L419.97 91.9226C418.381 91.9226 416.785 93.1456 416.785 94.9863L419.557 94.9863Z" fill="url(#paint0_linear_65_1878)" mask="url(#path-2-inside-1_65_1878)"/>
<mask id="path-4-inside-2_65_1878" fill="white">
<path fill-rule="evenodd" clip-rule="evenodd" d="M489.449 80.4435C489.449 87.4085 495.095 93.0547 502.06 93.0547L546.03 93.0547C552.995 93.0547 558.641 87.4085 558.641 80.4435L558.641 38.5144C558.641 37.5615 559.488 36.8364 560.44 36.8364V36.8364L604.41 36.8364C611.375 36.8364 617.021 31.1902 617.021 24.2252L617.021 -19.7442C617.021 -26.7091 611.375 -32.3554 604.41 -32.3554L560.44 -32.3554C553.475 -32.3554 547.829 -26.7091 547.829 -19.7442L547.829 22.1849C547.829 23.1378 546.983 23.8629 546.03 23.8629V23.8629L502.06 23.8629C495.095 23.8629 489.449 29.5091 489.449 36.4741L489.449 80.4435Z"/>
</mask>
<path d="M558.641 80.4435L557.255 80.4435L558.641 80.4435ZM502.06 23.8629L502.06 25.2488L502.06 23.8629ZM558.641 38.5144L560.027 38.5144L558.641 38.5144ZM502.06 91.6688C495.861 91.6688 490.835 86.6431 490.835 80.4435L488.063 80.4435C488.063 88.1739 494.33 94.4406 502.06 94.4406L502.06 91.6688ZM546.03 91.6688L502.06 91.6688L502.06 94.4406L546.03 94.4406L546.03 91.6688ZM557.255 80.4435C557.255 86.6431 552.229 91.6688 546.03 91.6688L546.03 94.4406C553.76 94.4406 560.027 88.1739 560.027 80.4435L557.255 80.4435ZM557.255 38.5144L557.255 80.4435L560.027 80.4435L560.027 38.5144L557.255 38.5144ZM604.41 35.4505L560.44 35.4505L560.44 38.2223L604.41 38.2223L604.41 35.4505ZM615.635 24.2252C615.635 30.4248 610.609 35.4505 604.41 35.4505L604.41 38.2223C612.14 38.2223 618.407 31.9556 618.407 24.2252L615.635 24.2252ZM615.635 -19.7442L615.635 24.2252L618.407 24.2252L618.407 -19.7442L615.635 -19.7442ZM604.41 -30.9695C610.609 -30.9695 615.635 -25.9437 615.635 -19.7442L618.407 -19.7442C618.407 -27.4745 612.14 -33.7412 604.41 -33.7412L604.41 -30.9695ZM560.44 -30.9695L604.41 -30.9695L604.41 -33.7412L560.44 -33.7412L560.44 -30.9695ZM549.215 -19.7442C549.215 -25.9437 554.241 -30.9695 560.44 -30.9695L560.44 -33.7412C552.71 -33.7412 546.443 -27.4745 546.443 -19.7442L549.215 -19.7442ZM549.215 22.1849L549.215 -19.7442L546.443 -19.7442L546.443 22.1849L549.215 22.1849ZM502.06 25.2488L546.03 25.2488L546.03 22.477L502.06 22.477L502.06 25.2488ZM490.835 36.4741C490.835 30.2745 495.861 25.2488 502.06 25.2488L502.06 22.477C494.33 22.477 488.063 28.7437 488.063 36.4741L490.835 36.4741ZM490.835 80.4435L490.835 36.4741L488.063 36.4741L488.063 80.4435L490.835 80.4435ZM546.443 22.1849C546.443 22.2314 546.427 22.29 546.355 22.3553C546.277 22.4265 546.158 22.477 546.03 22.477L546.03 25.2488C547.62 25.2488 549.215 24.0257 549.215 22.1849L546.443 22.1849ZM560.027 38.5144C560.027 38.4679 560.043 38.4093 560.115 38.344C560.193 38.2729 560.312 38.2223 560.44 38.2223L560.44 35.4505C558.851 35.4505 557.255 36.6737 557.255 38.5144L560.027 38.5144Z" fill="url(#paint1_linear_65_1878)" mask="url(#path-4-inside-2_65_1878)"/>
<mask id="path-6-inside-3_65_1878" fill="white">
<path fill-rule="evenodd" clip-rule="evenodd" d="M373.842 224.117C373.842 231.082 379.488 236.729 386.453 236.729L430.422 236.729C437.387 236.729 443.034 231.082 443.034 224.117L443.034 182.188C443.034 181.236 443.88 180.51 444.833 180.51V180.51L488.802 180.51C495.767 180.51 501.414 174.864 501.414 167.899L501.414 123.93C501.414 116.965 495.767 111.319 488.802 111.319L444.833 111.319C437.868 111.319 432.222 116.965 432.222 123.93L432.222 165.859C432.222 166.812 431.375 167.537 430.422 167.537V167.537L386.453 167.537C379.488 167.537 373.842 173.183 373.842 180.148L373.842 224.117Z"/>
</mask>
<path d="M386.453 236.729L386.453 238.114L386.453 236.729ZM430.422 236.729L430.422 235.343L430.422 236.729ZM443.034 224.117L441.648 224.117L443.034 224.117ZM386.453 167.537L386.453 168.923L386.453 167.537ZM443.034 182.188L444.419 182.188L443.034 182.188ZM386.453 235.343C380.253 235.343 375.228 230.317 375.228 224.117L372.456 224.117C372.456 231.848 378.723 238.114 386.453 238.114L386.453 235.343ZM430.422 235.343L386.453 235.343L386.453 238.114L430.422 238.114L430.422 235.343ZM441.648 224.117C441.648 230.317 436.622 235.343 430.422 235.343L430.422 238.114C438.153 238.114 444.419 231.848 444.419 224.117L441.648 224.117ZM441.648 182.188L441.648 224.117L444.419 224.117L444.419 182.188L441.648 182.188ZM488.802 179.125L444.833 179.125L444.833 181.896L488.802 181.896L488.802 179.125ZM500.028 167.899C500.028 174.099 495.002 179.125 488.802 179.125L488.802 181.896C496.533 181.896 502.799 175.63 502.799 167.899L500.028 167.899ZM500.028 123.93L500.028 167.899L502.799 167.899L502.799 123.93L500.028 123.93ZM488.802 112.705C495.002 112.705 500.028 117.73 500.028 123.93L502.799 123.93C502.799 116.2 496.533 109.933 488.802 109.933L488.802 112.705ZM444.833 112.705L488.802 112.705L488.802 109.933L444.833 109.933L444.833 112.705ZM433.608 123.93C433.608 117.73 438.633 112.705 444.833 112.705L444.833 109.933C437.103 109.933 430.836 116.2 430.836 123.93L433.608 123.93ZM433.608 165.859L433.608 123.93L430.836 123.93L430.836 165.859L433.608 165.859ZM386.453 168.923L430.422 168.923L430.422 166.151L386.453 166.151L386.453 168.923ZM375.228 180.148C375.228 173.948 380.253 168.923 386.453 168.923L386.453 166.151C378.723 166.151 372.456 172.418 372.456 180.148L375.228 180.148ZM375.228 224.117L375.228 180.148L372.456 180.148L372.456 224.117L375.228 224.117ZM430.836 165.859C430.836 165.905 430.82 165.964 430.748 166.029C430.669 166.1 430.551 166.151 430.422 166.151L430.422 168.923C432.012 168.923 433.608 167.699 433.608 165.859L430.836 165.859ZM444.419 182.188C444.419 182.142 444.436 182.083 444.508 182.018C444.586 181.947 444.705 181.896 444.833 181.896L444.833 179.125C443.243 179.125 441.648 180.348 441.648 182.188L444.419 182.188Z" fill="url(#paint2_linear_65_1878)" mask="url(#path-6-inside-3_65_1878)"/>
<mask id="path-8-inside-4_65_1878" fill="white">
<path fill-rule="evenodd" clip-rule="evenodd" d="M514.31 167.645C514.31 174.61 519.956 180.256 526.921 180.256L570.89 180.256C577.855 180.256 583.501 174.61 583.501 167.645L583.501 125.716C583.501 124.763 584.348 124.038 585.302 124.038V124.038L629.271 124.038C636.236 124.038 641.882 118.391 641.882 111.426L641.882 67.457C641.882 60.492 636.236 54.8458 629.271 54.8458L585.302 54.8458C578.337 54.8458 572.69 60.492 572.69 67.457L572.69 109.386C572.69 110.339 571.843 111.064 570.89 111.064V111.064L526.921 111.064C519.956 111.064 514.31 116.711 514.31 123.676L514.31 167.645Z"/>
</mask>
<path d="M629.271 124.038L629.271 125.423L629.271 124.038ZM526.921 178.87C520.721 178.87 515.695 173.844 515.695 167.645L512.924 167.645C512.924 175.375 519.19 181.642 526.921 181.642L526.921 178.87ZM570.89 178.87L526.921 178.87L526.921 181.642L570.89 181.642L570.89 178.87ZM582.115 167.645C582.115 173.844 577.09 178.87 570.89 178.87L570.89 181.642C578.621 181.642 584.887 175.375 584.887 167.645L582.115 167.645ZM582.115 125.716L582.115 167.645L584.887 167.645L584.887 125.716L582.115 125.716ZM629.271 122.652L585.302 122.652L585.302 125.423L629.271 125.423L629.271 122.652ZM640.496 111.426C640.496 117.626 635.471 122.652 629.271 122.652L629.271 125.423C637.001 125.423 643.268 119.157 643.268 111.426L640.496 111.426ZM640.496 67.457L640.496 111.426L643.268 111.426L643.268 67.457L640.496 67.457ZM629.271 56.2317C635.471 56.2317 640.496 61.2574 640.496 67.457L643.268 67.457C643.268 59.7266 637.001 53.4599 629.271 53.4599L629.271 56.2317ZM585.302 56.2317L629.271 56.2317L629.271 53.4599L585.302 53.4599L585.302 56.2317ZM574.076 67.457C574.076 61.2574 579.102 56.2317 585.302 56.2317L585.302 53.4599C577.571 53.4599 571.305 59.7266 571.305 67.457L574.076 67.457ZM574.076 109.386L574.076 67.457L571.305 67.457L571.305 109.386L574.076 109.386ZM526.921 112.45L570.89 112.45L570.89 109.678L526.921 109.678L526.921 112.45ZM515.695 123.676C515.695 117.476 520.721 112.45 526.921 112.45L526.921 109.678C519.19 109.678 512.924 115.945 512.924 123.676L515.695 123.676ZM515.695 167.645L515.695 123.676L512.924 123.676L512.924 167.645L515.695 167.645ZM571.305 109.386C571.305 109.432 571.288 109.491 571.216 109.557C571.138 109.628 571.019 109.678 570.89 109.678L570.89 112.45C572.48 112.45 574.076 111.227 574.076 109.386L571.305 109.386ZM584.887 125.716C584.887 125.67 584.904 125.611 584.976 125.545C585.054 125.474 585.173 125.423 585.302 125.423L585.302 122.652C583.711 122.652 582.115 123.875 582.115 125.716L584.887 125.716Z" fill="url(#paint3_linear_65_1878)" mask="url(#path-8-inside-4_65_1878)"/>
<mask id="path-10-inside-5_65_1878" fill="white">
<path fill-rule="evenodd" clip-rule="evenodd" d="M89.6973 336.723C89.6973 343.688 95.3435 349.334 102.308 349.334L146.278 349.334C153.243 349.334 158.889 343.688 158.889 336.723L158.889 294.794C158.889 293.841 159.736 293.116 160.688 293.116V293.116L204.658 293.116C211.623 293.116 217.269 287.47 217.269 280.505L217.269 236.536C217.269 229.571 211.623 223.924 204.658 223.924L160.688 223.924C153.723 223.924 148.077 229.571 148.077 236.536L148.077 278.465C148.077 279.418 147.231 280.143 146.278 280.143V280.143L102.308 280.143C95.3435 280.143 89.6973 285.789 89.6973 292.754L89.6973 336.723Z"/>
</mask>
<path d="M158.889 336.723L157.503 336.723L158.889 336.723ZM204.658 293.116L204.658 294.502L204.658 293.116ZM102.308 280.143L102.308 281.529L102.308 280.143ZM158.889 294.794L160.275 294.794L158.889 294.794ZM102.308 347.949C96.1089 347.949 91.0832 342.923 91.0832 336.723L88.3114 336.723C88.3114 344.454 94.5781 350.72 102.308 350.72L102.308 347.949ZM146.278 347.949L102.308 347.949L102.308 350.72L146.278 350.72L146.278 347.949ZM157.503 336.723C157.503 342.923 152.477 347.949 146.278 347.949L146.278 350.72C154.008 350.72 160.275 344.454 160.275 336.723L157.503 336.723ZM157.503 294.794L157.503 336.723L160.275 336.723L160.275 294.794L157.503 294.794ZM204.658 291.73L160.688 291.73L160.688 294.502L204.658 294.502L204.658 291.73ZM215.883 280.505C215.883 286.705 210.857 291.73 204.658 291.73L204.658 294.502C212.388 294.502 218.655 288.235 218.655 280.505L215.883 280.505ZM215.883 236.536L215.883 280.505L218.655 280.505L218.655 236.536L215.883 236.536ZM204.658 225.31C210.857 225.31 215.883 230.336 215.883 236.536L218.655 236.536C218.655 228.805 212.388 222.539 204.658 222.539L204.658 225.31ZM160.688 225.31L204.658 225.31L204.658 222.539L160.688 222.539L160.688 225.31ZM149.463 236.536C149.463 230.336 154.489 225.31 160.688 225.31L160.688 222.539C152.958 222.539 146.691 228.805 146.691 236.536L149.463 236.536ZM149.463 278.465L149.463 236.536L146.691 236.536L146.691 278.465L149.463 278.465ZM102.308 281.529L146.278 281.529L146.278 278.757L102.308 278.757L102.308 281.529ZM91.0832 292.754C91.0831 286.554 96.1089 281.529 102.308 281.529L102.308 278.757C94.5781 278.757 88.3114 285.024 88.3114 292.754L91.0832 292.754ZM91.0832 336.723L91.0832 292.754L88.3114 292.754L88.3114 336.723L91.0832 336.723ZM146.691 278.465C146.691 278.511 146.675 278.57 146.603 278.635C146.525 278.706 146.406 278.757 146.278 278.757L146.278 281.529C147.868 281.529 149.463 280.305 149.463 278.465L146.691 278.465ZM160.275 294.794C160.275 294.748 160.291 294.689 160.363 294.624C160.442 294.553 160.56 294.502 160.688 294.502L160.688 291.73C159.099 291.73 157.503 292.953 157.503 294.794L160.275 294.794Z" fill="url(#paint4_linear_65_1878)" mask="url(#path-10-inside-5_65_1878)"/>
<mask id="path-12-inside-6_65_1878" fill="white">
<path fill-rule="evenodd" clip-rule="evenodd" d="M617.891 286.934C617.891 293.899 623.537 299.545 630.502 299.545L674.471 299.545C681.436 299.545 687.082 293.899 687.082 286.934L687.082 245.005C687.082 244.052 687.929 243.327 688.882 243.327V243.327L732.851 243.327C739.816 243.327 745.462 237.68 745.462 230.715L745.462 186.746C745.462 179.781 739.816 174.135 732.851 174.135L688.882 174.135C681.917 174.135 676.271 179.781 676.271 186.746L676.271 228.675C676.271 229.628 675.424 230.353 674.471 230.353V230.353L630.502 230.353C623.537 230.353 617.891 235.999 617.891 242.964L617.891 286.934Z"/>
</mask>
<path d="M687.082 286.934L685.697 286.934L687.082 286.934ZM676.271 186.746L674.885 186.746L676.271 186.746ZM630.502 230.353L630.502 231.739L630.502 230.353ZM676.271 228.675L674.885 228.675L676.271 228.675ZM687.082 245.005L688.468 245.005L687.082 245.005ZM630.502 298.159C624.302 298.159 619.277 293.133 619.277 286.934L616.505 286.934C616.505 294.664 622.771 300.931 630.502 300.931L630.502 298.159ZM674.471 298.159L630.502 298.159L630.502 300.931L674.471 300.931L674.471 298.159ZM685.697 286.934C685.697 293.133 680.671 298.159 674.471 298.159L674.471 300.931C682.202 300.931 688.468 294.664 688.468 286.934L685.697 286.934ZM685.697 245.005L685.697 286.934L688.468 286.934L688.468 245.005L685.697 245.005ZM732.851 241.941L688.882 241.941L688.882 244.713L732.851 244.713L732.851 241.941ZM744.076 230.715C744.076 236.915 739.051 241.941 732.851 241.941L732.851 244.713C740.582 244.713 746.848 238.446 746.848 230.715L744.076 230.715ZM744.076 186.746L744.076 230.715L746.848 230.715L746.848 186.746L744.076 186.746ZM732.851 175.521C739.051 175.521 744.076 180.547 744.076 186.746L746.848 186.746C746.848 179.016 740.582 172.749 732.851 172.749L732.851 175.521ZM688.882 175.521L732.851 175.521L732.851 172.749L688.882 172.749L688.882 175.521ZM677.656 186.746C677.656 180.546 682.682 175.521 688.882 175.521L688.882 172.749C681.151 172.749 674.885 179.016 674.885 186.746L677.656 186.746ZM677.656 228.675L677.656 186.746L674.885 186.746L674.885 228.675L677.656 228.675ZM630.502 231.739L674.471 231.739L674.471 228.967L630.502 228.967L630.502 231.739ZM619.277 242.964C619.277 236.765 624.302 231.739 630.502 231.739L630.502 228.967C622.771 228.967 616.505 235.234 616.505 242.964L619.277 242.964ZM619.277 286.934L619.277 242.964L616.505 242.964L616.505 286.934L619.277 286.934ZM674.885 228.675C674.885 228.722 674.868 228.78 674.796 228.846C674.718 228.917 674.6 228.967 674.471 228.967L674.471 231.739C676.061 231.739 677.656 230.516 677.656 228.675L674.885 228.675ZM688.468 245.005C688.468 244.958 688.485 244.9 688.557 244.834C688.635 244.763 688.753 244.713 688.882 244.713L688.882 241.941C687.292 241.941 685.697 243.164 685.697 245.005L688.468 245.005Z" fill="url(#paint5_linear_65_1878)" mask="url(#path-12-inside-6_65_1878)"/>
<mask id="path-14-inside-7_65_1878" fill="white">
<path fill-rule="evenodd" clip-rule="evenodd" d="M255.029 367.453C255.029 374.417 260.676 380.064 267.64 380.064L311.61 380.064C318.575 380.064 324.221 374.418 324.221 367.453L324.221 325.524C324.221 324.571 325.068 323.846 326.021 323.846V323.846L369.991 323.846C376.956 323.846 382.602 318.199 382.602 311.234L382.602 267.265C382.602 260.3 376.956 254.654 369.991 254.654L326.021 254.654C319.056 254.654 313.41 260.3 313.41 267.265L313.41 309.193C313.41 310.147 312.563 310.872 311.61 310.872V310.872L267.64 310.872C260.676 310.872 255.029 316.518 255.029 323.483L255.029 367.453Z"/>
</mask>
<path d="M369.991 254.654L369.991 256.04L369.991 254.654ZM326.021 254.654L326.021 253.268L326.021 254.654ZM267.64 378.678C261.441 378.678 256.415 373.652 256.415 367.453L253.643 367.453C253.643 375.183 259.91 381.45 267.64 381.45L267.64 378.678ZM311.61 378.678L267.64 378.678L267.64 381.45L311.61 381.45L311.61 378.678ZM322.835 367.453C322.835 373.652 317.809 378.678 311.61 378.678L311.61 381.45C319.34 381.45 325.607 375.183 325.607 367.453L322.835 367.453ZM322.835 325.524L322.835 367.453L325.607 367.453L325.607 325.524L322.835 325.524ZM369.991 322.46L326.021 322.46L326.021 325.232L369.991 325.232L369.991 322.46ZM381.216 311.234C381.216 317.434 376.19 322.46 369.991 322.46L369.991 325.232C377.721 325.232 383.988 318.965 383.988 311.234L381.216 311.234ZM381.216 267.265L381.216 311.234L383.988 311.234L383.988 267.265L381.216 267.265ZM369.991 256.04C376.19 256.04 381.216 261.066 381.216 267.265L383.988 267.265C383.988 259.535 377.721 253.268 369.991 253.268L369.991 256.04ZM326.021 256.04L369.991 256.04L369.991 253.268L326.021 253.268L326.021 256.04ZM314.796 267.265C314.796 261.066 319.822 256.04 326.021 256.04L326.021 253.268C318.291 253.268 312.024 259.535 312.024 267.265L314.796 267.265ZM314.796 309.193L314.796 267.265L312.024 267.265L312.024 309.193L314.796 309.193ZM267.64 312.258L311.61 312.258L311.61 309.486L267.64 309.486L267.64 312.258ZM256.415 323.483C256.415 317.284 261.441 312.258 267.64 312.258L267.64 309.486C259.91 309.486 253.643 315.753 253.643 323.483L256.415 323.483ZM256.415 367.453L256.415 323.483L253.643 323.483L253.643 367.453L256.415 367.453ZM312.024 309.193C312.024 309.24 312.008 309.299 311.936 309.364C311.857 309.435 311.738 309.486 311.61 309.486L311.61 312.258C313.2 312.258 314.796 311.034 314.796 309.193L312.024 309.193ZM325.607 325.524C325.607 325.478 325.623 325.419 325.695 325.353C325.774 325.282 325.893 325.232 326.021 325.232L326.021 322.46C324.431 322.46 322.835 323.683 322.835 325.524L325.607 325.524Z" fill="url(#paint6_linear_65_1878)" mask="url(#path-14-inside-7_65_1878)"/>
</g>
</g>
<defs>
<linearGradient id="paint0_linear_65_1878" x1="348.979" y1="86.8219" x2="476.551" y2="86.8219" gradientUnits="userSpaceOnUse">
<stop stop-color="#2EBB8E"/>
<stop offset="1" stop-color="#457EFF"/>
</linearGradient>
<linearGradient id="paint1_linear_65_1878" x1="489.449" y1="30.3496" x2="617.021" y2="30.3496" gradientUnits="userSpaceOnUse">
<stop stop-color="#2EBB8E"/>
<stop offset="1" stop-color="#457EFF"/>
</linearGradient>
<linearGradient id="paint2_linear_65_1878" x1="373.842" y1="174.024" x2="501.414" y2="174.024" gradientUnits="userSpaceOnUse">
<stop stop-color="#2EBB8E"/>
<stop offset="1" stop-color="#457EFF"/>
</linearGradient>
<linearGradient id="paint3_linear_65_1878" x1="514.31" y1="117.551" x2="641.882" y2="117.551" gradientUnits="userSpaceOnUse">
<stop stop-color="#2EBB8E"/>
<stop offset="1" stop-color="#457EFF"/>
</linearGradient>
<linearGradient id="paint4_linear_65_1878" x1="89.6973" y1="286.629" x2="217.269" y2="286.629" gradientUnits="userSpaceOnUse">
<stop stop-color="#2EBB8E"/>
<stop offset="1" stop-color="#457EFF"/>
</linearGradient>
<linearGradient id="paint5_linear_65_1878" x1="617.891" y1="236.84" x2="745.463" y2="236.84" gradientUnits="userSpaceOnUse">
<stop stop-color="#2EBB8E"/>
<stop offset="1" stop-color="#457EFF"/>
</linearGradient>
<linearGradient id="paint6_linear_65_1878" x1="255.029" y1="317.359" x2="382.602" y2="317.359" gradientUnits="userSpaceOnUse">
<stop stop-color="#2EBB8E"/>
<stop offset="1" stop-color="#457EFF"/>
</linearGradient>
<clipPath id="clip0_65_1878">
<rect width="704" height="305" rx="20.1148" fill="white"/>
</clipPath>
</defs>
</svg>
