<svg width="1120" height="378" viewBox="0 0 1120 378" fill="none" xmlns="http://www.w3.org/2000/svg">
<g clip-path="url(#clip0_65_1741)">
<rect width="1120" height="378" rx="32" fill="#3668DD"/>
<g style="mix-blend-mode:hard-light">
<mask id="path-2-inside-1_65_1741" fill="white">
<path fill-rule="evenodd" clip-rule="evenodd" d="M555.194 217.815C555.194 228.896 564.176 237.878 575.257 237.878L645.206 237.878C656.287 237.878 665.269 228.896 665.269 217.815L665.269 151.113C665.269 149.596 666.616 148.442 668.133 148.442V148.442L738.083 148.442C749.163 148.442 758.145 139.46 758.145 128.379L758.145 58.4296C758.145 47.3492 749.163 38.3668 738.083 38.3668L668.133 38.3668C657.053 38.3668 648.07 47.3492 648.07 58.4296L648.07 125.132C648.07 126.649 646.723 127.803 645.206 127.803V127.803L575.257 127.803C564.176 127.803 555.194 136.785 555.194 147.866L555.194 217.815Z"/>
</mask>
<path d="M575.257 237.878L575.257 240.083L575.257 237.878ZM645.206 237.878L645.206 235.673L645.206 237.878ZM738.083 38.3668L738.083 36.162L738.083 38.3668ZM668.133 38.3668L668.133 40.5715L668.133 38.3668ZM575.257 127.803L575.257 125.598L575.257 127.803ZM575.257 235.673C565.394 235.673 557.399 227.678 557.399 217.815L552.989 217.815C552.989 230.113 562.959 240.083 575.257 240.083L575.257 235.673ZM645.206 235.673L575.257 235.673L575.257 240.083L645.206 240.083L645.206 235.673ZM663.064 217.815C663.064 227.678 655.069 235.673 645.206 235.673L645.206 240.083C657.504 240.083 667.474 230.113 667.474 217.815L663.064 217.815ZM663.064 151.113L663.064 217.815L667.474 217.815L667.474 151.113L663.064 151.113ZM738.083 146.237L668.133 146.237L668.133 150.647L738.083 150.647L738.083 146.237ZM755.941 128.379C755.941 138.242 747.945 146.237 738.083 146.237L738.083 150.647C750.381 150.647 760.35 140.677 760.35 128.379L755.941 128.379ZM755.941 58.4296L755.941 128.379L760.35 128.379L760.35 58.4296L755.941 58.4296ZM738.083 40.5715C747.945 40.5715 755.941 48.5668 755.941 58.4296L760.35 58.4296C760.35 46.1315 750.381 36.162 738.083 36.162L738.083 40.5715ZM668.133 40.5715L738.083 40.5715L738.083 36.162L668.133 36.162L668.133 40.5715ZM650.275 58.4296C650.275 48.5668 658.27 40.5715 668.133 40.5715L668.133 36.162C655.835 36.162 645.865 46.1315 645.865 58.4296L650.275 58.4296ZM650.275 125.132L650.275 58.4296L645.865 58.4296L645.865 125.132L650.275 125.132ZM575.257 130.008L645.206 130.008L645.206 125.598L575.257 125.598L575.257 130.008ZM557.399 147.866C557.399 138.003 565.394 130.008 575.257 130.008L575.257 125.598C562.959 125.598 552.989 135.568 552.989 147.866L557.399 147.866ZM557.399 217.815L557.399 147.866L552.989 147.866L552.989 217.815L557.399 217.815ZM645.865 125.132C645.865 125.207 645.839 125.3 645.725 125.404C645.6 125.518 645.411 125.598 645.206 125.598L645.206 130.008C647.736 130.008 650.275 128.061 650.275 125.132L645.865 125.132ZM667.474 151.113C667.474 151.038 667.5 150.945 667.615 150.841C667.739 150.727 667.928 150.647 668.133 150.647L668.133 146.237C665.603 146.237 663.064 148.183 663.064 151.113L667.474 151.113Z" fill="url(#paint0_linear_65_1741)" mask="url(#path-2-inside-1_65_1741)"/>
<mask id="path-4-inside-2_65_1741" fill="white">
<path fill-rule="evenodd" clip-rule="evenodd" d="M778.663 127.975C778.663 139.056 787.645 148.038 798.725 148.038L868.675 148.038C879.755 148.038 888.738 139.056 888.738 127.975L888.738 61.2724C888.738 59.7559 890.085 58.6019 891.601 58.6019V58.6019L961.551 58.6019C972.631 58.6019 981.614 49.6195 981.614 38.5391L981.614 -31.4105C981.614 -42.4909 972.631 -51.4733 961.551 -51.4733L891.601 -51.4733C880.521 -51.4733 871.539 -42.4909 871.539 -31.4105L871.539 35.2924C871.539 36.8089 870.191 37.9629 868.675 37.9629V37.9629L798.725 37.9629C787.645 37.9629 778.663 46.9453 778.663 58.0257L778.663 127.975Z"/>
</mask>
<path d="M798.725 148.038L798.725 150.243L798.725 148.038ZM868.675 148.038L868.675 145.833L868.675 148.038ZM871.539 -31.4105L873.743 -31.4105L871.539 -31.4105ZM798.725 37.9629L798.725 35.7581L798.725 37.9629ZM871.539 35.2924L869.334 35.2924L871.539 35.2924ZM798.725 145.833C788.863 145.833 780.867 137.838 780.867 127.975L776.458 127.975C776.458 140.273 786.427 150.243 798.725 150.243L798.725 145.833ZM868.675 145.833L798.725 145.833L798.725 150.243L868.675 150.243L868.675 145.833ZM886.533 127.975C886.533 137.838 878.538 145.833 868.675 145.833L868.675 150.243C880.973 150.243 890.943 140.273 890.943 127.975L886.533 127.975ZM886.533 61.2724L886.533 127.975L890.943 127.975L890.943 61.2724L886.533 61.2724ZM961.551 56.3972L891.601 56.3972L891.601 60.8067L961.551 60.8067L961.551 56.3972ZM979.409 38.5391C979.409 48.4018 971.414 56.3972 961.551 56.3972L961.551 60.8067C973.849 60.8067 983.819 50.8372 983.819 38.5391L979.409 38.5391ZM979.409 -31.4105L979.409 38.5391L983.819 38.5391L983.819 -31.4105L979.409 -31.4105ZM961.551 -49.2685C971.414 -49.2685 979.409 -41.2732 979.409 -31.4105L983.819 -31.4105C983.819 -43.7085 973.849 -53.6781 961.551 -53.6781L961.551 -49.2685ZM891.601 -49.2685L961.551 -49.2685L961.551 -53.6781L891.601 -53.6781L891.601 -49.2685ZM873.743 -31.4105C873.743 -41.2732 881.739 -49.2685 891.601 -49.2685L891.601 -53.6781C879.303 -53.6781 869.334 -43.7085 869.334 -31.4105L873.743 -31.4105ZM873.743 35.2924L873.743 -31.4105L869.334 -31.4105L869.334 35.2924L873.743 35.2924ZM798.725 40.1676L868.675 40.1676L868.675 35.7581L798.725 35.7581L798.725 40.1676ZM780.867 58.0257C780.867 48.1629 788.863 40.1676 798.725 40.1676L798.725 35.7581C786.427 35.7581 776.458 45.7276 776.458 58.0257L780.867 58.0257ZM780.867 127.975L780.867 58.0257L776.458 58.0257L776.458 127.975L780.867 127.975ZM869.334 35.2924C869.334 35.3666 869.308 35.4601 869.193 35.5642C869.068 35.6776 868.88 35.7581 868.675 35.7581L868.675 40.1676C871.205 40.1676 873.743 38.2215 873.743 35.2924L869.334 35.2924ZM890.943 61.2724C890.943 61.1981 890.969 61.1047 891.083 61.0006C891.208 60.8872 891.397 60.8067 891.601 60.8067L891.601 56.3972C889.072 56.3972 886.533 58.3433 886.533 61.2724L890.943 61.2724Z" fill="url(#paint1_linear_65_1741)" mask="url(#path-4-inside-2_65_1741)"/>
<mask id="path-6-inside-3_65_1741" fill="white">
<path fill-rule="evenodd" clip-rule="evenodd" d="M594.746 356.543C594.746 367.623 603.729 376.605 614.809 376.605L684.759 376.605C695.839 376.605 704.821 367.623 704.821 356.543L704.821 289.84C704.821 288.323 706.169 287.169 707.685 287.169V287.169L777.635 287.169C788.715 287.169 797.697 278.187 797.697 267.107L797.697 197.157C797.697 186.077 788.715 177.094 777.635 177.094L707.685 177.094C696.605 177.094 687.622 186.077 687.622 197.157L687.622 263.86C687.622 265.376 686.275 266.53 684.759 266.53V266.53L614.809 266.53C603.729 266.53 594.746 275.513 594.746 286.593L594.746 356.543Z"/>
</mask>
<path d="M614.809 376.605L614.809 378.81L614.809 376.605ZM684.759 376.605L684.759 374.401L684.759 376.605ZM614.809 374.401C604.946 374.401 596.951 366.405 596.951 356.543L592.541 356.543C592.541 368.841 602.511 378.81 614.809 378.81L614.809 374.401ZM684.759 374.401L614.809 374.401L614.809 378.81L684.759 378.81L684.759 374.401ZM702.617 356.543C702.617 366.405 694.621 374.401 684.759 374.401L684.759 378.81C697.057 378.81 707.026 368.841 707.026 356.543L702.617 356.543ZM702.617 289.84L702.617 356.543L707.026 356.543L707.026 289.84L702.617 289.84ZM777.635 284.965L707.685 284.965L707.685 289.374L777.635 289.374L777.635 284.965ZM795.493 267.107C795.493 276.969 787.497 284.965 777.635 284.965L777.635 289.374C789.933 289.374 799.902 279.405 799.902 267.107L795.493 267.107ZM795.493 197.157L795.493 267.107L799.902 267.107L799.902 197.157L795.493 197.157ZM777.635 179.299C787.497 179.299 795.493 187.294 795.493 197.157L799.902 197.157C799.902 184.859 789.933 174.889 777.635 174.889L777.635 179.299ZM707.685 179.299L777.635 179.299L777.635 174.889L707.685 174.889L707.685 179.299ZM689.827 197.157C689.827 187.294 697.822 179.299 707.685 179.299L707.685 174.889C695.387 174.889 685.417 184.859 685.417 197.157L689.827 197.157ZM689.827 263.86L689.827 197.157L685.417 197.157L685.417 263.86L689.827 263.86ZM614.809 268.735L684.759 268.735L684.759 264.325L614.809 264.325L614.809 268.735ZM596.951 286.593C596.951 276.73 604.946 268.735 614.809 268.735L614.809 264.325C602.511 264.325 592.541 274.295 592.541 286.593L596.951 286.593ZM596.951 356.543L596.951 286.593L592.541 286.593L592.541 356.543L596.951 356.543ZM685.417 263.86C685.417 263.934 685.391 264.027 685.277 264.131C685.152 264.245 684.963 264.325 684.759 264.325L684.759 268.735C687.288 268.735 689.827 266.789 689.827 263.86L685.417 263.86ZM707.026 289.84C707.026 289.766 707.052 289.672 707.167 289.568C707.292 289.455 707.48 289.374 707.685 289.374L707.685 284.965C705.155 284.965 702.617 286.911 702.617 289.84L707.026 289.84Z" fill="url(#paint2_linear_65_1741)" mask="url(#path-6-inside-3_65_1741)"/>
<mask id="path-8-inside-4_65_1741" fill="white">
<path fill-rule="evenodd" clip-rule="evenodd" d="M818.215 266.702C818.215 277.782 827.197 286.765 838.278 286.765L908.227 286.765C919.308 286.765 928.29 277.782 928.29 266.702L928.29 199.999C928.29 198.483 929.637 197.329 931.154 197.329V197.329L1001.1 197.329C1012.18 197.329 1021.17 188.346 1021.17 177.266L1021.17 107.316C1021.17 96.2357 1012.18 87.2533 1001.1 87.2533L931.154 87.2533C920.074 87.2533 911.091 96.2357 911.091 107.316L911.091 174.019C911.091 175.535 909.744 176.69 908.227 176.69V176.69L838.278 176.69C827.197 176.69 818.215 185.672 818.215 196.752L818.215 266.702Z"/>
</mask>
<path d="M838.278 286.765L838.278 288.97L838.278 286.765ZM908.227 286.765L908.227 284.56L908.227 286.765ZM1001.1 197.329L1001.1 195.124L1001.1 197.329ZM1021.17 177.266L1023.37 177.266L1021.17 177.266ZM1021.17 107.316L1018.96 107.316L1021.17 107.316ZM1001.1 87.2533L1001.1 85.0485L1001.1 87.2533ZM931.154 87.2533L931.154 89.4581L931.154 87.2533ZM838.278 176.69L838.278 174.485L838.278 176.69ZM838.278 284.56C828.415 284.56 820.42 276.565 820.42 266.702L816.01 266.702C816.01 279 825.98 288.97 838.278 288.97L838.278 284.56ZM908.227 284.56L838.278 284.56L838.278 288.97L908.227 288.97L908.227 284.56ZM926.085 266.702C926.085 276.565 918.09 284.56 908.227 284.56L908.227 288.97C920.525 288.97 930.495 279 930.495 266.702L926.085 266.702ZM926.085 199.999L926.085 266.702L930.495 266.702L930.495 199.999L926.085 199.999ZM1001.1 195.124L931.154 195.124L931.154 199.533L1001.1 199.533L1001.1 195.124ZM1018.96 177.266C1018.96 187.128 1010.97 195.124 1001.1 195.124L1001.1 199.533C1013.4 199.533 1023.37 189.564 1023.37 177.266L1018.96 177.266ZM1018.96 107.316L1018.96 177.266L1023.37 177.266L1023.37 107.316L1018.96 107.316ZM1001.1 89.4581C1010.97 89.4581 1018.96 97.4534 1018.96 107.316L1023.37 107.316C1023.37 95.018 1013.4 85.0485 1001.1 85.0485L1001.1 89.4581ZM931.154 89.4581L1001.1 89.4581L1001.1 85.0485L931.154 85.0485L931.154 89.4581ZM913.296 107.316C913.296 97.4534 921.291 89.4581 931.154 89.4581L931.154 85.0485C918.856 85.0485 908.886 95.0181 908.886 107.316L913.296 107.316ZM913.296 174.019L913.296 107.316L908.886 107.316L908.886 174.019L913.296 174.019ZM838.278 178.894L908.227 178.894L908.227 174.485L838.278 174.485L838.278 178.894ZM820.42 196.752C820.42 186.89 828.415 178.894 838.278 178.894L838.278 174.485C825.98 174.485 816.01 184.454 816.01 196.752L820.42 196.752ZM820.42 266.702L820.42 196.752L816.01 196.752L816.01 266.702L820.42 266.702ZM908.886 174.019C908.886 174.093 908.86 174.187 908.746 174.291C908.621 174.404 908.432 174.485 908.227 174.485L908.227 178.894C910.757 178.894 913.296 176.948 913.296 174.019L908.886 174.019ZM930.495 199.999C930.495 199.925 930.521 199.831 930.636 199.727C930.76 199.614 930.949 199.533 931.154 199.533L931.154 195.124C928.624 195.124 926.085 197.07 926.085 199.999L930.495 199.999Z" fill="url(#paint3_linear_65_1741)" mask="url(#path-8-inside-4_65_1741)"/>
<mask id="path-10-inside-5_65_1741" fill="white">
<path fill-rule="evenodd" clip-rule="evenodd" d="M142.71 535.683C142.71 546.764 151.693 555.746 162.773 555.746L232.723 555.746C243.803 555.746 252.786 546.764 252.786 535.683L252.786 468.981C252.786 467.464 254.133 466.31 255.649 466.31V466.31L325.599 466.31C336.679 466.31 345.662 457.328 345.662 446.247L345.662 376.298C345.662 365.217 336.679 356.235 325.599 356.235L255.649 356.235C244.569 356.235 235.587 365.217 235.587 376.298L235.587 443.001C235.587 444.517 234.239 445.671 232.723 445.671V445.671L162.773 445.671C151.693 445.671 142.71 454.653 142.71 465.734L142.71 535.683Z"/>
</mask>
<path d="M142.71 535.683L144.915 535.683L142.71 535.683ZM252.786 535.683L254.99 535.683L252.786 535.683ZM235.587 376.298L237.791 376.298L235.587 376.298ZM142.71 465.734L140.506 465.734L142.71 465.734ZM235.587 443.001L233.382 443.001L235.587 443.001ZM252.786 468.981L250.581 468.981L252.786 468.981ZM162.773 553.541C152.911 553.541 144.915 545.546 144.915 535.683L140.506 535.683C140.506 547.981 150.475 557.951 162.773 557.951L162.773 553.541ZM232.723 553.541L162.773 553.541L162.773 557.951L232.723 557.951L232.723 553.541ZM250.581 535.683C250.581 545.546 242.586 553.541 232.723 553.541L232.723 557.951C245.021 557.951 254.99 547.981 254.99 535.683L250.581 535.683ZM250.581 468.981L250.581 535.683L254.99 535.683L254.99 468.981L250.581 468.981ZM325.599 464.105L255.649 464.105L255.649 468.515L325.599 468.515L325.599 464.105ZM343.457 446.247C343.457 456.11 335.462 464.105 325.599 464.105L325.599 468.515C337.897 468.515 347.867 458.545 347.867 446.247L343.457 446.247ZM343.457 376.298L343.457 446.247L347.867 446.247L347.867 376.298L343.457 376.298ZM325.599 358.44C335.462 358.44 343.457 366.435 343.457 376.298L347.867 376.298C347.867 364 337.897 354.03 325.599 354.03L325.599 358.44ZM255.649 358.44L325.599 358.44L325.599 354.03L255.649 354.03L255.649 358.44ZM237.791 376.298C237.791 366.435 245.787 358.44 255.649 358.44L255.649 354.03C243.351 354.03 233.382 364 233.382 376.298L237.791 376.298ZM237.791 443.001L237.791 376.298L233.382 376.298L233.382 443.001L237.791 443.001ZM162.773 447.876L232.723 447.876L232.723 443.466L162.773 443.466L162.773 447.876ZM144.915 465.734C144.915 455.871 152.911 447.876 162.773 447.876L162.773 443.466C150.475 443.466 140.506 453.436 140.506 465.734L144.915 465.734ZM144.915 535.683L144.915 465.734L140.506 465.734L140.506 535.683L144.915 535.683ZM233.382 443.001C233.382 443.075 233.356 443.168 233.241 443.272C233.116 443.386 232.927 443.466 232.723 443.466L232.723 447.876C235.252 447.876 237.791 445.93 237.791 443.001L233.382 443.001ZM254.99 468.981C254.99 468.906 255.017 468.813 255.131 468.709C255.256 468.595 255.445 468.515 255.649 468.515L255.649 464.105C253.12 464.105 250.581 466.052 250.581 468.981L254.99 468.981Z" fill="url(#paint4_linear_65_1741)" mask="url(#path-10-inside-5_65_1741)"/>
<mask id="path-12-inside-6_65_1741" fill="white">
<path fill-rule="evenodd" clip-rule="evenodd" d="M982.995 456.474C982.995 467.555 991.978 476.537 1003.06 476.537L1073.01 476.537C1084.09 476.537 1093.07 467.555 1093.07 456.474L1093.07 389.772C1093.07 388.255 1094.42 387.101 1095.93 387.101V387.101L1165.88 387.101C1176.96 387.101 1185.95 378.119 1185.95 367.038L1185.95 297.089C1185.95 286.008 1176.96 277.026 1165.88 277.026L1095.93 277.026C1084.85 277.026 1075.87 286.008 1075.87 297.089L1075.87 363.791C1075.87 365.308 1074.52 366.462 1073.01 366.462V366.462L1003.06 366.462C991.978 366.462 982.995 375.444 982.995 386.525L982.995 456.474Z"/>
</mask>
<path d="M1165.88 277.026L1165.88 279.231L1165.88 277.026ZM1095.93 277.026L1095.93 274.821L1095.93 277.026ZM1003.06 366.462L1003.06 368.667L1003.06 366.462ZM1003.06 474.332C993.195 474.332 985.2 466.337 985.2 456.474L980.79 456.474C980.79 468.772 990.76 478.742 1003.06 478.742L1003.06 474.332ZM1073.01 474.332L1003.06 474.332L1003.06 478.742L1073.01 478.742L1073.01 474.332ZM1090.87 456.474C1090.87 466.337 1082.87 474.332 1073.01 474.332L1073.01 478.742C1085.31 478.742 1095.28 468.772 1095.28 456.474L1090.87 456.474ZM1090.87 389.772L1090.87 456.474L1095.28 456.474L1095.28 389.772L1090.87 389.772ZM1165.88 384.896L1095.93 384.896L1095.93 389.306L1165.88 389.306L1165.88 384.896ZM1183.74 367.038C1183.74 376.901 1175.75 384.896 1165.88 384.896L1165.88 389.306C1178.18 389.306 1188.15 379.336 1188.15 367.038L1183.74 367.038ZM1183.74 297.089L1183.74 367.038L1188.15 367.038L1188.15 297.089L1183.74 297.089ZM1165.88 279.231C1175.75 279.231 1183.74 287.226 1183.74 297.089L1188.15 297.089C1188.15 284.791 1178.18 274.821 1165.88 274.821L1165.88 279.231ZM1095.93 279.231L1165.88 279.231L1165.88 274.821L1095.93 274.821L1095.93 279.231ZM1078.08 297.089C1078.08 287.226 1086.07 279.231 1095.93 279.231L1095.93 274.821C1083.64 274.821 1073.67 284.791 1073.67 297.089L1078.08 297.089ZM1078.08 363.791L1078.08 297.089L1073.67 297.089L1073.67 363.791L1078.08 363.791ZM1003.06 368.667L1073.01 368.667L1073.01 364.257L1003.06 364.257L1003.06 368.667ZM985.2 386.525C985.2 376.662 993.195 368.667 1003.06 368.667L1003.06 364.257C990.76 364.257 980.79 374.227 980.79 386.525L985.2 386.525ZM985.2 456.474L985.2 386.525L980.79 386.525L980.79 456.474L985.2 456.474ZM1073.67 363.791C1073.67 363.866 1073.64 363.959 1073.53 364.063C1073.4 364.177 1073.21 364.257 1073.01 364.257L1073.01 368.667C1075.54 368.667 1078.08 366.72 1078.08 363.791L1073.67 363.791ZM1095.28 389.772C1095.28 389.697 1095.3 389.604 1095.42 389.5C1095.54 389.386 1095.73 389.306 1095.93 389.306L1095.93 384.896C1093.4 384.896 1090.87 386.842 1090.87 389.772L1095.28 389.772Z" fill="url(#paint5_linear_65_1741)" mask="url(#path-12-inside-6_65_1741)"/>
</g>
</g>
<defs>
<linearGradient id="paint0_linear_65_1741" x1="555.194" y1="138.122" x2="758.145" y2="138.122" gradientUnits="userSpaceOnUse">
<stop stop-color="#2EBB8E"/>
<stop offset="1" stop-color="#457EFF"/>
</linearGradient>
<linearGradient id="paint1_linear_65_1741" x1="778.663" y1="48.2824" x2="981.614" y2="48.2824" gradientUnits="userSpaceOnUse">
<stop stop-color="#2EBB8E"/>
<stop offset="1" stop-color="#457EFF"/>
</linearGradient>
<linearGradient id="paint2_linear_65_1741" x1="594.746" y1="276.85" x2="797.697" y2="276.85" gradientUnits="userSpaceOnUse">
<stop stop-color="#2EBB8E"/>
<stop offset="1" stop-color="#457EFF"/>
</linearGradient>
<linearGradient id="paint3_linear_65_1741" x1="818.215" y1="187.009" x2="1021.17" y2="187.009" gradientUnits="userSpaceOnUse">
<stop stop-color="#2EBB8E"/>
<stop offset="1" stop-color="#457EFF"/>
</linearGradient>
<linearGradient id="paint4_linear_65_1741" x1="142.71" y1="455.991" x2="345.662" y2="455.991" gradientUnits="userSpaceOnUse">
<stop stop-color="#2EBB8E"/>
<stop offset="1" stop-color="#457EFF"/>
</linearGradient>
<linearGradient id="paint5_linear_65_1741" x1="982.995" y1="376.781" x2="1185.95" y2="376.781" gradientUnits="userSpaceOnUse">
<stop stop-color="#2EBB8E"/>
<stop offset="1" stop-color="#457EFF"/>
</linearGradient>
<clipPath id="clip0_65_1741">
<rect width="1120" height="378" rx="32" fill="white"/>
</clipPath>
</defs>
</svg>
