<svg width="2737" height="1770" viewBox="0 0 2737 1770" fill="none" xmlns="http://www.w3.org/2000/svg">
<rect width="1609" height="1062" transform="translate(564 354)" fill="white"/>
<g opacity="0.3" filter="url(#filter0_f_13822_3657)">
<circle cx="1900" cy="837" r="273" fill="#457EFF"/>
</g>
<g opacity="0.3" filter="url(#filter1_f_13822_3657)">
<circle cx="837" cy="933" r="273" fill="#457EFF"/>
</g>
<g opacity="0.3">
<circle cx="1368.5" cy="885" r="141.5" stroke="#5080EC"/>
<circle cx="1368.5" cy="885" r="244.5" stroke="#7A9DEC"/>
<circle cx="1368.5" cy="885" r="348.5" stroke="#A0B9F0"/>
<circle cx="1368.5" cy="885" r="438.5" stroke="#C5D4F5"/>
<circle cx="1368.5" cy="885" r="530.5" stroke="#E9EFFB"/>
</g>
<circle cx="1358.39" cy="888.035" r="166.12" transform="rotate(-9.11964 1358.39 888.035)" fill="#2A4FA2" stroke="#29292D" stroke-width="2.68755"/>
<circle cx="1378.94" cy="884.677" r="166.057" transform="rotate(-9.11964 1378.94 884.677)" fill="#457EFF" stroke="#29292D" stroke-width="2.68755"/>
<path d="M1293.26 790.926L1294.48 791.498L1293.26 790.926C1292.22 793.129 1293.12 795.719 1295.22 796.872C1308.59 804.192 1320.01 813.019 1329.46 822.909C1364.64 859.714 1372.99 911.764 1351.1 957.73C1345.22 970.081 1337.13 982.04 1326.74 993.174C1325.1 994.928 1325.06 997.669 1326.73 999.436L1331.22 1004.18C1332.89 1005.94 1335.65 1006.08 1337.49 1004.51L1483.42 880.772C1492.34 873.213 1490.05 858.975 1479.22 854.586L1301.89 782.736C1299.65 781.827 1297.08 782.825 1296.04 785.017L1293.26 790.926Z" fill="white" stroke="#29292D" stroke-width="2.68755"/>
<path d="M1499.54 743.3H1499.57L1454.65 791.429C1454.65 791.429 1454.65 791.43 1454.65 791.431C1454.35 791.749 1453.95 791.961 1453.52 792.036C1453.09 792.111 1452.65 792.044 1452.26 791.845L1451.65 793.042L1452.26 791.845C1451.87 791.646 1451.56 791.326 1451.36 790.933C1451.17 790.54 1451.11 790.097 1451.2 789.668C1451.2 789.667 1451.2 789.666 1451.2 789.665L1457.35 758.878L1457.58 757.758L1456.51 757.357L1432.31 748.269L1432.31 748.269C1431.99 748.152 1431.72 747.96 1431.5 747.71C1431.28 747.459 1431.12 747.159 1431.05 746.834C1430.97 746.51 1430.98 746.172 1431.07 745.851C1431.15 745.529 1431.32 745.235 1431.55 744.993L1431.55 744.993L1431.56 744.985L1478.59 694.595C1478.59 694.595 1478.59 694.595 1478.59 694.594C1478.89 694.276 1479.28 694.063 1479.71 693.988C1480.14 693.913 1480.59 693.98 1480.98 694.179C1481.37 694.378 1481.68 694.699 1481.87 695.092L1483.07 694.508L1481.87 695.092C1482.06 695.484 1482.12 695.928 1482.04 696.356C1482.04 696.357 1482.04 696.358 1482.04 696.359L1475.87 727.179L1475.64 728.3L1476.71 728.701L1500.91 737.774C1500.91 737.775 1500.91 737.775 1500.91 737.775C1501.22 737.893 1501.49 738.084 1501.71 738.333C1501.93 738.582 1502.08 738.882 1502.16 739.204L1503.46 738.901L1502.16 739.204C1502.23 739.527 1502.22 739.863 1502.14 740.182C1502.05 740.502 1501.89 740.796 1501.66 741.037L1499.54 743.3Z" fill="#FFC93E" stroke="#29292D" stroke-width="2.68755"/>
<defs>
<filter id="filter0_f_13822_3657" x="1063" y="0" width="1674" height="1674" filterUnits="userSpaceOnUse" color-interpolation-filters="sRGB">
<feFlood flood-opacity="0" result="BackgroundImageFix"/>
<feBlend mode="normal" in="SourceGraphic" in2="BackgroundImageFix" result="shape"/>
<feGaussianBlur stdDeviation="282" result="effect1_foregroundBlur_13822_3657"/>
</filter>
<filter id="filter1_f_13822_3657" x="0" y="96" width="1674" height="1674" filterUnits="userSpaceOnUse" color-interpolation-filters="sRGB">
<feFlood flood-opacity="0" result="BackgroundImageFix"/>
<feBlend mode="normal" in="SourceGraphic" in2="BackgroundImageFix" result="shape"/>
<feGaussianBlur stdDeviation="282" result="effect1_foregroundBlur_13822_3657"/>
</filter>
</defs>
</svg>
