<svg width="602" height="601" viewBox="0 0 602 601" fill="none" xmlns="http://www.w3.org/2000/svg">
<rect width="377" height="508" transform="translate(112)" fill="white"/>
<g opacity="0.3">
<circle cx="300.486" cy="300.484" r="80.0725" stroke="#5080EC" stroke-width="0.565883"/>
<circle cx="300.485" cy="300.484" r="138.358" stroke="#7A9DEC" stroke-width="0.565883"/>
<circle cx="300.485" cy="300.484" r="197.21" stroke="#A0B9F0" stroke-width="0.565883"/>
<circle cx="300.484" cy="300.484" r="248.14" stroke="#C5D4F5" stroke-width="0.565883"/>
<circle cx="300.484" cy="300.484" r="300.201" stroke="#E9EFFB" stroke-width="0.565883"/>
</g>
<circle cx="296.421" cy="300.576" r="72.2488" transform="rotate(-9.11964 296.421 300.576)" fill="#2A4FA2" stroke="#29292D" stroke-width="1.16887"/>
<circle cx="305.36" cy="299.115" r="72.2214" transform="rotate(-9.11964 305.36 299.115)" fill="#457EFF" stroke="#29292D" stroke-width="1.16887"/>
<path d="M268.095 258.341L268.623 258.59L268.095 258.341C267.643 259.299 268.033 260.426 268.949 260.927C274.76 264.111 279.728 267.95 283.839 272.251C299.139 288.258 302.773 310.896 293.252 330.887C290.694 336.259 287.176 341.46 282.653 346.303C281.941 347.065 281.923 348.258 282.652 349.026L284.606 351.088C285.331 351.853 286.53 351.915 287.333 351.234L350.8 297.417C354.677 294.129 353.683 287.937 348.971 286.028L271.849 254.779C270.874 254.384 269.754 254.818 269.305 255.771L268.095 258.341Z" fill="white" stroke="#29292D" stroke-width="1.16887"/>
<path d="M357.812 237.627H357.823L338.286 258.56C338.286 258.56 338.286 258.56 338.286 258.56C338.156 258.699 337.984 258.791 337.797 258.824C337.61 258.857 337.417 258.827 337.247 258.741L336.981 259.261L337.247 258.741C337.078 258.654 336.941 258.515 336.858 258.344C336.775 258.173 336.75 257.98 336.786 257.794C336.786 257.793 336.786 257.793 336.786 257.793L339.463 244.403L339.56 243.916L339.095 243.741L328.57 239.789L328.569 239.789C328.434 239.738 328.313 239.654 328.217 239.545C328.122 239.436 328.055 239.306 328.022 239.165C327.99 239.023 327.993 238.876 328.031 238.737C328.069 238.597 328.141 238.469 328.241 238.364L328.241 238.364L328.244 238.36L348.698 216.445C348.698 216.445 348.699 216.445 348.699 216.445C348.829 216.306 349 216.213 349.187 216.181C349.375 216.148 349.568 216.177 349.737 216.264L350.002 215.745L349.737 216.264C349.907 216.35 350.043 216.49 350.126 216.661C350.209 216.831 350.235 217.024 350.199 217.211C350.199 217.211 350.199 217.212 350.199 217.212L347.514 230.616L347.417 231.104L347.882 231.278L358.405 235.224C358.406 235.224 358.406 235.225 358.406 235.225C358.541 235.276 358.66 235.359 358.755 235.467C358.849 235.576 358.916 235.706 358.949 235.846C358.981 235.986 358.978 236.132 358.941 236.272C358.904 236.411 358.833 236.538 358.734 236.643L357.812 237.627Z" fill="#FFC93E" stroke="#29292D" stroke-width="1.16887"/>
</svg>
