<svg width="40" height="41" viewBox="0 0 40 41" fill="none" xmlns="http://www.w3.org/2000/svg">
<g clip-path="url(#clip0_14209_804)">
<rect y="0.864258" width="40" height="40" rx="20" fill="white"/>
<g filter="url(#filter0_f_14209_804)">
<ellipse cx="19.989" cy="20.8545" rx="15.4959" ry="9.94576" transform="rotate(45 19.989 20.8545)" fill="#2DBA8D"/>
</g>
<circle cx="20" cy="20.8645" r="12" fill="url(#paint0_linear_14209_804)"/>
<path fill-rule="evenodd" clip-rule="evenodd" d="M16.6807 26.8394C16.6072 26.887 16.5114 26.865 16.463 26.7893L16.2779 26.4994C16.2295 26.4237 16.2458 26.3212 16.3136 26.2648C16.9235 25.7581 17.4248 25.187 17.819 24.5753C19.287 22.2976 19.287 19.4314 17.819 17.1537C17.4248 16.542 16.9235 15.9709 16.3136 15.4642C16.2458 15.4078 16.2295 15.3053 16.2779 15.2296L16.463 14.9397C16.5114 14.864 16.6072 14.842 16.6807 14.8896L24.9057 20.2135C25.3648 20.5106 25.3648 21.2184 24.9057 21.5155L16.6807 26.8394Z" fill="white"/>
<path d="M38.0247 12.1444L38.0247 13.2276C38.0247 16.0345 35.7493 18.3099 32.9424 18.3099C30.1355 18.3099 27.86 20.5853 27.86 23.3922C27.86 26.1991 25.5846 28.4746 22.7777 28.4745C19.9708 28.4745 17.6954 30.75 17.6954 33.5569C17.6954 36.3638 15.4199 38.6392 12.613 38.6392L11.5299 38.6392C9.09722 38.6392 6.89199 40.0696 5.90012 42.2908L5.16896 43.9282C4.65735 45.0739 4.39293 46.3165 4.39293 47.5713C4.39293 52.5321 8.41447 56.5628 13.3753 56.5628H50.9484C59.5088 56.5628 66.4484 49.6233 66.4484 41.0629V20.5074C66.4484 11.947 59.5088 5.00744 50.9484 5.00744H46.9548C45.7001 5.00744 44.4594 5.27186 43.3137 5.78347L41.6763 6.51464C39.4551 7.50651 38.0247 9.71173 38.0247 12.1444Z" fill="#C0C0C0" fill-opacity="0.4"/>
<path d="M6.20187 24.3107L6.20187 23.2275C6.20187 20.4206 8.47731 18.1452 11.2842 18.1452C14.0911 18.1452 16.3665 15.8698 16.3665 13.0629C16.3665 10.256 18.642 7.98053 21.4489 7.98053C24.2558 7.98053 26.5312 5.70509 26.5312 2.8982C26.5312 0.0913053 28.8066 -2.18413 31.6135 -2.18413L32.6967 -2.18413C35.1293 -2.18413 37.3346 -3.6145 38.3264 -5.83574L39.0576 -7.47313C39.5692 -8.61885 39.8336 -9.86146 39.8336 -11.1162C39.8336 -16.077 35.8121 -20.1078 30.8513 -20.1078H-6.72182C-15.2822 -20.1078 -22.2218 -13.1682 -22.2218 -4.60778V15.9476C-22.2218 24.5081 -15.2822 31.4476 -6.72182 31.4476H-2.72828C-1.47352 31.4476 -0.232849 31.1832 0.91287 30.6716L2.55026 29.9404C4.77149 28.9486 6.20187 26.7433 6.20187 24.3107Z" fill="#C0C0C0" fill-opacity="0.4"/>
</g>
<rect x="0.5" y="1.36426" width="39" height="39" rx="19.5" stroke="#E4E4E7"/>
<defs>
<filter id="filter0_f_14209_804" x="2.96777" y="3.83276" width="34.043" height="34.0435" filterUnits="userSpaceOnUse" color-interpolation-filters="sRGB">
<feFlood flood-opacity="0" result="BackgroundImageFix"/>
<feBlend mode="normal" in="SourceGraphic" in2="BackgroundImageFix" result="shape"/>
<feGaussianBlur stdDeviation="2" result="effect1_foregroundBlur_14209_804"/>
</filter>
<linearGradient id="paint0_linear_14209_804" x1="20" y1="8.8645" x2="20" y2="32.8645" gradientUnits="userSpaceOnUse">
<stop stop-color="#457EFF"/>
<stop offset="1" stop-color="#3568DD"/>
</linearGradient>
<clipPath id="clip0_14209_804">
<rect y="0.864258" width="40" height="40" rx="20" fill="white"/>
</clipPath>
</defs>
</svg>
