<svg width="280" height="65" viewBox="0 0 280 65" fill="none" xmlns="http://www.w3.org/2000/svg">
<rect y="0.271484" width="280" height="64.0001" rx="8" fill="white"/>
<path d="M17.5014 56.269C17.1191 56.269 16.746 56.2641 16.3667 56.2556C15.5809 56.2454 14.7969 56.177 14.0212 56.0509C13.2979 55.9264 12.5972 55.6947 11.9423 55.3634C11.2933 55.0349 10.7014 54.6042 10.1893 54.0878C9.66968 53.5774 9.2371 52.9854 8.90868 52.3354C8.57663 51.6811 8.34684 50.9798 8.2273 50.2559C8.09821 49.478 8.02836 48.6915 8.01837 47.903C8.01042 47.6384 8 46.7572 8 46.7572V17.7698C8 17.7698 8.01109 16.9022 8.01843 16.6473C8.028 15.8601 8.09744 15.0748 8.22615 14.2981C8.34591 13.5722 8.57588 12.8689 8.9081 12.2125C9.23532 11.5629 9.66549 10.9705 10.1819 10.4583C10.6978 9.9412 11.2916 9.50826 11.9416 9.17523C12.5951 8.84506 13.2945 8.61497 14.0163 8.49267C14.7945 8.36539 15.5812 8.29658 16.3698 8.28681L17.502 8.27148H146.46L147.606 8.28742C148.387 8.29671 149.167 8.36491 149.938 8.49144C150.667 8.61528 151.373 8.84697 152.034 9.17891C153.337 9.85005 154.396 10.9119 155.065 12.2155C155.392 12.8674 155.618 13.565 155.736 14.2847C155.867 15.0677 155.94 15.8592 155.955 16.6528C155.958 17.0082 155.958 17.3899 155.958 17.7698C155.968 18.2403 155.968 18.6882 155.968 19.1398V45.4019C155.968 45.8578 155.968 46.3026 155.958 46.7511C155.958 47.1592 155.958 47.533 155.953 47.9177C155.939 48.6972 155.867 49.4745 155.739 50.2436C155.622 50.9727 155.393 51.6795 155.061 52.3391C154.73 52.9821 154.3 53.569 153.787 54.078C153.274 54.5972 152.681 55.0304 152.031 55.361C151.372 55.6948 150.666 55.9274 149.938 56.0509C149.162 56.1776 148.378 56.246 147.592 56.2556C147.225 56.2641 146.84 56.269 146.466 56.269L145.106 56.2715L17.5014 56.269Z" fill="white"/>
<path d="M38.2709 32.133C38.285 31.0438 38.5743 29.9759 39.1119 29.0286C39.6496 28.0813 40.4181 27.2854 41.346 26.7149C40.7565 25.8731 39.9789 25.1802 39.0748 24.6915C38.1707 24.2027 37.1652 23.9315 36.1379 23.8994C33.9467 23.6694 31.8224 25.2106 30.7058 25.2106C29.5675 25.2106 27.8483 23.9222 25.997 23.9603C24.7995 23.999 23.6325 24.3472 22.6096 24.971C21.5867 25.5948 20.7429 26.473 20.1603 27.5199C17.6367 31.8892 19.5191 38.3107 21.9365 41.8426C23.146 43.5721 24.5596 45.5039 26.4092 45.4354C28.2192 45.3603 28.8952 44.2812 31.08 44.2812C33.2445 44.2812 33.8787 45.4354 35.7659 45.3919C37.7081 45.3603 38.9318 43.6547 40.0989 41.9089C40.9679 40.6766 41.6366 39.3146 42.0803 37.8735C40.9519 37.3962 39.989 36.5974 39.3116 35.5766C38.6342 34.5557 38.2722 33.3581 38.2709 32.133Z" fill="black"/>
<path d="M34.7061 21.5759C35.7651 20.3047 36.2868 18.6707 36.1605 17.021C34.5426 17.1909 33.0482 17.9642 31.9749 19.1866C31.4502 19.7838 31.0483 20.4786 30.7922 21.2312C30.5361 21.9839 30.4309 22.7796 30.4825 23.5729C31.2917 23.5812 32.0923 23.4058 32.8239 23.0599C33.5555 22.714 34.1991 22.2066 34.7061 21.5759Z" fill="black"/>
<path d="M59.9863 41.2294H54.0467L52.6203 45.4412H50.1045L55.7304 29.8586H58.3443L63.9702 45.4412H61.4115L59.9863 41.2294ZM54.6619 39.2859H59.37L57.049 32.4504H56.984L54.6619 39.2859Z" fill="black"/>
<path d="M76.1206 39.761C76.1206 43.2915 74.231 45.5598 71.3795 45.5598C70.6571 45.5975 69.9387 45.4311 69.3065 45.0796C68.6744 44.7281 68.1539 44.2056 67.8049 43.5721H67.7509V49.1993H65.4189V34.08H67.6762V35.9696H67.7191C68.0842 35.339 68.6134 34.8193 69.2504 34.4656C69.8874 34.112 70.6083 33.9376 71.3365 33.9611C74.22 33.9611 76.1206 36.2404 76.1206 39.761ZM73.7237 39.761C73.7237 37.4609 72.535 35.9487 70.7214 35.9487C68.9396 35.9487 67.7412 37.4928 67.7412 39.761C67.7412 42.0501 68.9396 43.5831 70.7214 43.5831C72.535 43.5831 73.7237 42.082 73.7237 39.761H73.7237Z" fill="black"/>
<path d="M88.6251 39.761C88.6251 43.2915 86.7349 45.5598 83.8834 45.5598C83.161 45.5975 82.4426 45.4311 81.8104 45.0796C81.1783 44.7281 80.6578 44.2056 80.3088 43.5721H80.2548V49.1993H77.9229V34.08H80.1801V35.9696H80.223C80.5881 35.339 81.1173 34.8193 81.7543 34.4656C82.3913 34.112 83.1122 33.9376 83.8404 33.9611C86.7239 33.9611 88.6251 36.2404 88.6251 39.761ZM86.2276 39.761C86.2276 37.4609 85.0389 35.9487 83.2253 35.9487C81.4435 35.9487 80.2451 37.4928 80.2451 39.761C80.2451 42.0501 81.4435 43.5831 83.2253 43.5831C85.0389 43.5831 86.2276 42.082 86.2276 39.761Z" fill="black"/>
<path d="M96.8882 41.0996C97.061 42.6449 98.5621 43.6594 100.613 43.6594C102.579 43.6594 103.993 42.6448 103.993 41.2515C103.993 40.042 103.14 39.3178 101.121 38.8215L99.1013 38.335C96.2399 37.6438 94.9116 36.3056 94.9116 34.1342C94.9116 31.4456 97.2546 29.5989 100.58 29.5989C103.874 29.5989 106.132 31.4456 106.208 34.1342H103.853C103.713 32.5791 102.427 31.6404 100.549 31.6404C98.6699 31.6404 97.3845 32.5902 97.3845 33.9724C97.3845 35.0741 98.2055 35.7223 100.214 36.2186L101.931 36.6401C105.128 37.3962 106.455 38.6805 106.455 40.9598C106.455 43.8751 104.134 45.701 100.441 45.701C96.9849 45.701 94.6517 43.918 94.501 41.0995L96.8882 41.0996Z" fill="black"/>
<path d="M111.491 31.3926V34.0812H113.651V35.9279H111.491V42.191C111.491 43.164 111.924 43.6174 112.873 43.6174C113.13 43.613 113.386 43.595 113.64 43.5635V45.3992C113.213 45.479 112.779 45.5151 112.345 45.507C110.045 45.507 109.148 44.6431 109.148 42.4398V35.9279H107.496V34.0812H109.148V31.3926H111.491Z" fill="black"/>
<path d="M114.9 39.7622C114.9 36.1876 117.006 33.9414 120.289 33.9414C123.583 33.9414 125.678 36.1876 125.678 39.7622C125.678 43.3466 123.594 45.583 120.289 45.583C116.985 45.583 114.9 43.3466 114.9 39.7622ZM123.302 39.7622C123.302 37.3101 122.178 35.8629 120.289 35.8629C118.399 35.8629 117.275 37.3211 117.275 39.7622C117.275 42.2241 118.399 43.6603 120.289 43.6603C122.178 43.6603 123.302 42.2241 123.302 39.7622H123.302Z" fill="black"/>
<path d="M127.602 34.0798H129.826V36.0135H129.88C130.03 35.4096 130.384 34.8759 130.882 34.5021C131.379 34.1283 131.99 33.9372 132.612 33.961C132.881 33.96 133.149 33.9892 133.411 34.048V36.2292C133.072 36.1256 132.718 36.078 132.364 36.0883C132.025 36.0746 131.687 36.1343 131.374 36.2634C131.06 36.3925 130.778 36.5879 130.547 36.8363C130.316 37.0846 130.142 37.3799 130.036 37.702C129.93 38.0241 129.895 38.3653 129.934 38.7021V45.4408H127.602L127.602 34.0798Z" fill="black"/>
<path d="M144.162 42.1052C143.849 44.1676 141.84 45.583 139.27 45.583C135.965 45.583 133.914 43.3686 133.914 39.8161C133.914 36.2526 135.976 33.9414 139.172 33.9414C142.316 33.9414 144.292 36.1006 144.292 39.5453V40.3443H136.268V40.4852C136.231 40.9033 136.283 41.3245 136.422 41.7208C136.56 42.1172 136.781 42.4795 137.07 42.7839C137.359 43.0883 137.71 43.3276 138.098 43.4861C138.487 43.6446 138.905 43.7186 139.324 43.7032C139.875 43.7548 140.428 43.6272 140.901 43.3392C141.374 43.0513 141.741 42.6185 141.948 42.1052L144.162 42.1052ZM136.279 38.7144H141.959C141.98 38.3385 141.923 37.9623 141.792 37.6094C141.66 37.2565 141.457 36.9346 141.196 36.6639C140.934 36.3931 140.619 36.1794 140.271 36.0361C139.923 35.8927 139.549 35.8229 139.172 35.831C138.793 35.8288 138.416 35.9017 138.065 36.0457C137.713 36.1897 137.394 36.4018 137.125 36.6699C136.856 36.938 136.643 37.2567 136.498 37.6076C136.352 37.9585 136.278 38.3347 136.279 38.7145V38.7144Z" fill="black"/>
<path d="M54.3705 18.1296C54.8594 18.0945 55.35 18.1684 55.8069 18.3458C56.2638 18.5233 56.6757 18.8 57.0127 19.1559C57.3497 19.5118 57.6036 19.9381 57.7559 20.4039C57.9082 20.8698 57.9553 21.3637 57.8936 21.85C57.8936 24.242 56.6008 25.617 54.3705 25.617H51.666V18.1296H54.3705ZM52.8289 24.5581H54.2406C54.59 24.579 54.9396 24.5217 55.264 24.3905C55.5884 24.2592 55.8795 24.0572 56.116 23.7993C56.3526 23.5413 56.5286 23.2339 56.6313 22.8993C56.7341 22.5647 56.7609 22.2115 56.7099 21.8652C56.7572 21.5204 56.7276 21.1693 56.6233 20.8372C56.519 20.5051 56.3426 20.2002 56.1066 19.9443C55.8706 19.6884 55.5809 19.4878 55.2583 19.357C54.9357 19.2262 54.5882 19.1684 54.2406 19.1877H52.8289V24.5581Z" fill="black"/>
<path d="M59.2069 22.7904C59.1714 22.4191 59.2139 22.0444 59.3317 21.6905C59.4494 21.3365 59.6398 21.0111 59.8907 20.7351C60.1416 20.459 60.4474 20.2385 60.7886 20.0875C61.1297 19.9366 61.4986 19.8586 61.8716 19.8586C62.2447 19.8586 62.6136 19.9366 62.9547 20.0875C63.2958 20.2385 63.6016 20.459 63.8525 20.7351C64.1034 21.0111 64.2939 21.3365 64.4116 21.6905C64.5294 22.0444 64.5718 22.4191 64.5363 22.7904C64.5725 23.1621 64.5306 23.5373 64.4131 23.8918C64.2957 24.2463 64.1053 24.5724 63.8544 24.849C63.6034 25.1255 63.2974 25.3466 62.9559 25.4978C62.6144 25.6491 62.2451 25.7272 61.8716 25.7272C61.4982 25.7272 61.1288 25.6491 60.7874 25.4978C60.4459 25.3466 60.1398 25.1255 59.8889 24.849C59.6379 24.5724 59.4476 24.2463 59.3302 23.8918C59.2127 23.5373 59.1707 23.1621 59.2069 22.7904ZM63.3893 22.7904C63.3893 21.5656 62.8391 20.8493 61.8735 20.8493C60.9042 20.8493 60.3589 21.5656 60.3589 22.7904C60.3589 24.0251 60.9042 24.7358 61.8735 24.7358C62.8391 24.7358 63.3893 24.0201 63.3893 22.7904H63.3893Z" fill="black"/>
<path d="M71.6209 25.6172H70.4641L69.2963 21.4557H69.208L68.0451 25.6172H66.8993L65.3418 19.9668H66.4729L67.4851 24.2784H67.5684L68.7301 19.9668H69.7999L70.9616 24.2784H71.0498L72.0571 19.9668H73.1723L71.6209 25.6172Z" fill="black"/>
<path d="M74.4824 19.9664H75.5559V20.8641H75.6392C75.7806 20.5417 76.019 20.2714 76.3213 20.091C76.6235 19.9105 76.9746 19.8288 77.3254 19.8574C77.6004 19.8367 77.8764 19.8782 78.1332 19.9787C78.3899 20.0792 78.6207 20.2362 78.8086 20.438C78.9964 20.6398 79.1364 20.8813 79.2182 21.1446C79.3 21.4079 79.3216 21.6862 79.2812 21.959V25.6168H78.1661V22.239C78.1661 21.331 77.7715 20.8794 76.9468 20.8794C76.7601 20.8707 76.5738 20.9025 76.4005 20.9725C76.2273 21.0426 76.0712 21.1493 75.9431 21.2853C75.8149 21.4213 75.7177 21.5834 75.6581 21.7605C75.5984 21.9376 75.5778 22.1255 75.5976 22.3113V25.6169H74.4824L74.4824 19.9664Z" fill="black"/>
<path d="M81.0576 17.761H82.1728V25.6172H81.0576V17.761Z" fill="black"/>
<path d="M83.7235 22.7886C83.688 22.4172 83.7305 22.0425 83.8483 21.6886C83.9661 21.3346 84.1565 21.0092 84.4075 20.7331C84.6584 20.4571 84.9642 20.2365 85.3054 20.0856C85.6465 19.9347 86.0155 19.8567 86.3885 19.8567C86.7616 19.8567 87.1305 19.9347 87.4716 20.0856C87.8128 20.2365 88.1186 20.4571 88.3695 20.7331C88.6205 21.0092 88.8109 21.3346 88.9287 21.6886C89.0465 22.0425 89.089 22.4172 89.0535 22.7886C89.0896 23.1603 89.0476 23.5355 88.9302 23.89C88.8127 24.2445 88.6223 24.5705 88.3713 24.8471C88.1204 25.1237 87.8143 25.3447 87.4728 25.4959C87.1313 25.6472 86.762 25.7253 86.3885 25.7253C86.015 25.7253 85.6457 25.6472 85.3042 25.4959C84.9627 25.3447 84.6566 25.1237 84.4057 24.8471C84.1547 24.5705 83.9643 24.2445 83.8469 23.89C83.7294 23.5355 83.6874 23.1603 83.7235 22.7886ZM87.9059 22.7886C87.9059 21.5638 87.3557 20.8475 86.39 20.8475C85.4207 20.8475 84.8755 21.5638 84.8755 22.7886C84.8755 24.0232 85.4208 24.7339 86.39 24.7339C87.3557 24.7339 87.9059 24.0183 87.9059 22.7886H87.9059Z" fill="black"/>
<path d="M90.2275 24.0202C90.2275 23.0031 90.9849 22.4167 92.3291 22.3334L93.8597 22.2452V21.7574C93.8597 21.1607 93.4651 20.8237 92.7029 20.8237C92.0804 20.8237 91.649 21.0522 91.5253 21.4517H90.4457C90.5596 20.4812 91.4726 19.8586 92.7544 19.8586C94.171 19.8586 94.9699 20.5639 94.9699 21.7574V25.6181H93.8965V24.8241H93.8082C93.6292 25.1089 93.3777 25.3411 93.0795 25.497C92.7813 25.6528 92.4471 25.7268 92.111 25.7112C91.8738 25.7359 91.6341 25.7106 91.4072 25.637C91.1804 25.5633 90.9715 25.4429 90.7941 25.2836C90.6166 25.1243 90.4745 24.9295 90.377 24.7119C90.2794 24.4943 90.2285 24.2587 90.2275 24.0202ZM93.8597 23.5374V23.065L92.4799 23.1532C91.7017 23.2053 91.3488 23.47 91.3488 23.9681C91.3488 24.4766 91.7899 24.7726 92.3966 24.7726C92.5743 24.7906 92.7539 24.7726 92.9245 24.7198C93.0952 24.667 93.2535 24.5804 93.39 24.4651C93.5265 24.3499 93.6384 24.2084 93.7191 24.049C93.7998 23.8896 93.8476 23.7156 93.8597 23.5374Z" fill="black"/>
<path d="M96.4355 22.7895C96.4355 21.0041 97.3534 19.873 98.781 19.873C99.1341 19.8568 99.4846 19.9413 99.7915 20.1169C100.098 20.2924 100.349 20.5517 100.514 20.8644H100.597V17.761H101.712V25.6172H100.644V24.7245H100.555C100.378 25.035 100.118 25.2911 99.8057 25.4648C99.4929 25.6386 99.1386 25.7235 98.781 25.7103C97.3436 25.7104 96.4355 24.5793 96.4355 22.7895ZM97.5875 22.7895C97.5875 23.988 98.1524 24.7092 99.0972 24.7092C100.037 24.7092 100.618 23.9776 100.618 22.7945C100.618 21.6168 100.031 20.8748 99.0972 20.8748C98.1585 20.8748 97.5874 21.6009 97.5874 22.7895H97.5875Z" fill="black"/>
<path d="M106.326 22.7904C106.291 22.4191 106.333 22.0444 106.451 21.6905C106.569 21.3365 106.759 21.0111 107.01 20.7351C107.261 20.459 107.567 20.2385 107.908 20.0875C108.249 19.9366 108.618 19.8586 108.991 19.8586C109.364 19.8586 109.733 19.9366 110.074 20.0875C110.415 20.2385 110.721 20.459 110.972 20.7351C111.223 21.0111 111.413 21.3365 111.531 21.6905C111.649 22.0444 111.691 22.4191 111.655 22.7904C111.692 23.1621 111.65 23.5373 111.532 23.8918C111.415 24.2463 111.224 24.5724 110.974 24.849C110.723 25.1255 110.417 25.3466 110.075 25.4978C109.734 25.6491 109.364 25.7272 108.991 25.7272C108.617 25.7272 108.248 25.6491 107.906 25.4978C107.565 25.3466 107.259 25.1255 107.008 24.849C106.757 24.5724 106.567 24.2463 106.449 23.8918C106.332 23.5373 106.29 23.1621 106.326 22.7904ZM110.508 22.7904C110.508 21.5656 109.958 20.8493 108.993 20.8493C108.023 20.8493 107.478 21.5656 107.478 22.7904C107.478 24.0251 108.023 24.7358 108.993 24.7358C109.958 24.7358 110.508 24.0201 110.508 22.7904Z" fill="black"/>
<path d="M113.151 19.9664H114.225V20.8641H114.308C114.45 20.5417 114.688 20.2714 114.99 20.091C115.292 19.9105 115.644 19.8288 115.994 19.8574C116.269 19.8367 116.545 19.8782 116.802 19.9787C117.059 20.0792 117.29 20.2362 117.478 20.438C117.665 20.6398 117.805 20.8813 117.887 21.1446C117.969 21.4079 117.991 21.6862 117.95 21.959V25.6168H116.835V22.239C116.835 21.331 116.44 20.8794 115.616 20.8794C115.429 20.8707 115.243 20.9025 115.069 20.9725C114.896 21.0426 114.74 21.1493 114.612 21.2853C114.484 21.4213 114.387 21.5834 114.327 21.7605C114.267 21.9376 114.247 22.1255 114.267 22.3113V25.6169H113.151V19.9664Z" fill="black"/>
<path d="M124.252 18.5598V19.9923H125.476V20.9316H124.252V23.8371C124.252 24.429 124.496 24.6882 125.051 24.6882C125.193 24.6877 125.335 24.6791 125.476 24.6624V25.5913C125.276 25.6271 125.073 25.6462 124.869 25.6483C123.629 25.6483 123.135 25.212 123.135 24.1226V20.9316H122.238V19.9923H123.135V18.5598H124.252Z" fill="black"/>
<path d="M126.999 17.761H128.104V20.8748H128.193C128.341 20.5494 128.586 20.2776 128.894 20.0965C129.202 19.9153 129.559 19.8337 129.915 19.8626C130.189 19.8477 130.462 19.8934 130.716 19.9963C130.97 20.0993 131.198 20.257 131.384 20.4582C131.57 20.6594 131.709 20.8991 131.791 21.1603C131.874 21.4215 131.898 21.6976 131.861 21.9691V25.6172H130.745V22.2442C130.745 21.3417 130.325 20.8846 129.537 20.8846C129.345 20.8689 129.152 20.8952 128.972 20.9618C128.792 21.0284 128.628 21.1336 128.492 21.27C128.357 21.4065 128.253 21.5709 128.188 21.7517C128.122 21.9326 128.097 22.1256 128.114 22.3171V25.6172H126.999L126.999 17.761Z" fill="black"/>
<path d="M138.363 24.0906C138.211 24.607 137.883 25.0538 137.436 25.3526C136.988 25.6514 136.45 25.7834 135.915 25.7253C135.542 25.7352 135.172 25.6639 134.83 25.5164C134.488 25.3689 134.183 25.1488 133.934 24.8713C133.686 24.5938 133.501 24.2656 133.392 23.9094C133.283 23.5533 133.253 23.1777 133.304 22.8088C133.255 22.4388 133.285 22.0624 133.394 21.7052C133.502 21.348 133.686 21.0183 133.933 20.7384C134.18 20.4584 134.485 20.2349 134.826 20.0828C135.167 19.9307 135.536 19.8536 135.91 19.8568C137.482 19.8568 138.43 20.9309 138.43 22.7053V23.0944H134.44V23.1569C134.423 23.3642 134.449 23.5729 134.517 23.7696C134.585 23.9663 134.693 24.1467 134.835 24.2991C134.976 24.4515 135.148 24.5726 135.34 24.6547C135.531 24.7367 135.737 24.7779 135.945 24.7756C136.212 24.8076 136.482 24.7596 136.722 24.6376C136.961 24.5156 137.159 24.3252 137.289 24.0906L138.363 24.0906ZM134.44 22.2696H137.294C137.308 22.08 137.283 21.8895 137.219 21.7104C137.155 21.5313 137.054 21.3676 136.923 21.2298C136.792 21.0919 136.634 20.983 136.458 20.91C136.282 20.837 136.094 20.8015 135.903 20.8059C135.711 20.8035 135.519 20.8397 135.341 20.9124C135.162 20.9851 135 21.0928 134.863 21.2292C134.727 21.3657 134.619 21.528 134.547 21.7067C134.474 21.8854 134.438 22.0768 134.44 22.2696H134.44Z" fill="black"/>
<path d="M246.75 33.2715C247.993 33.2715 249 34.2788 249 35.5215V41.0215C249 42.2641 247.993 43.2715 246.75 43.2715H241.25C240.007 43.2715 239 42.2641 239 41.0215V35.5215C239 34.2788 240.007 33.2715 241.25 33.2715H246.75ZM254.335 33.2715V36.6048H257.667V39.9382L254.335 39.9376V43.2709H251.001V39.9376L254.334 39.9382V36.6048H251.001V33.2715H254.335ZM261 39.9376V43.2709H257.667V39.9376H261ZM246.75 34.7715H241.25C240.836 34.7715 240.5 35.1073 240.5 35.5215V41.0215C240.5 41.4357 240.836 41.7715 241.25 41.7715H246.75C247.164 41.7715 247.5 41.4357 247.5 41.0215V35.5215C247.5 35.1073 247.164 34.7715 246.75 34.7715ZM245.5 36.7715V39.7715H242.5V36.7715H245.5ZM261 33.2715V36.6048H257.667V33.2715H261ZM246.75 21.2715C247.993 21.2715 249 22.2788 249 23.5215V29.0215C249 30.2641 247.993 31.2715 246.75 31.2715H241.25C240.007 31.2715 239 30.2641 239 29.0215V23.5215C239 22.2788 240.007 21.2715 241.25 21.2715H246.75ZM258.75 21.2715C259.993 21.2715 261 22.2788 261 23.5215V29.0215C261 30.2641 259.993 31.2715 258.75 31.2715H253.25C252.007 31.2715 251 30.2641 251 29.0215V23.5215C251 22.2788 252.007 21.2715 253.25 21.2715H258.75ZM246.75 22.7715H241.25C240.836 22.7715 240.5 23.1073 240.5 23.5215V29.0215C240.5 29.4357 240.836 29.7715 241.25 29.7715H246.75C247.164 29.7715 247.5 29.4357 247.5 29.0215V23.5215C247.5 23.1073 247.164 22.7715 246.75 22.7715ZM258.75 22.7715H253.25C252.836 22.7715 252.5 23.1073 252.5 23.5215V29.0215C252.5 29.4357 252.836 29.7715 253.25 29.7715H258.75C259.164 29.7715 259.5 29.4357 259.5 29.0215V23.5215C259.5 23.1073 259.164 22.7715 258.75 22.7715ZM245.5 24.7715V27.7715H242.5V24.7715H245.5ZM257.5 24.7715V27.7715H254.5V24.7715H257.5Z" fill="#29292D"/>
</svg>
