<svg width="90" height="56" viewBox="0 0 90 56" fill="none" xmlns="http://www.w3.org/2000/svg">
<rect width="89.0664" height="55.3656" transform="translate(0 0.0457153)" fill="#343438"/>
<mask id="path-1-inside-1_13481_33346" fill="white">
<path fill-rule="evenodd" clip-rule="evenodd" d="M36.5683 34.2684C35.9922 33.2013 36.149 31.8873 36.9601 30.9858L47.7254 19.0199L53.4986 12.603C53.688 12.3924 53.8452 12.155 53.9651 11.8984L55.4188 8.78722C56.4644 6.54932 59.6609 6.59024 60.6489 8.85418L74.4866 40.5628C75.4926 42.868 73.2573 45.2601 70.8893 44.4125L67.2754 43.1188C66.9258 42.9936 66.5553 42.9375 66.1843 42.9536L58.4391 43.2882L49.3208 43.6821V49.8402C49.3208 51.2137 48.2073 52.3272 46.8337 52.3272C45.4601 52.3272 44.3466 51.2137 44.3466 49.8402V43.897L43.6207 43.9284C42.6961 43.9684 41.8208 43.5607 41.2555 42.8536L38.7403 44.3058C37.3677 45.0982 35.6126 44.6279 34.8202 43.2554L32.9533 40.0218C32.1609 38.6493 32.6311 36.8942 34.0037 36.1017L36.7134 34.5373L36.5683 34.2684Z"/>
</mask>
<path fill-rule="evenodd" clip-rule="evenodd" d="M36.5683 34.2684C35.9922 33.2013 36.149 31.8873 36.9601 30.9858L47.7254 19.0199L53.4986 12.603C53.688 12.3924 53.8452 12.155 53.9651 11.8984L55.4188 8.78722C56.4644 6.54932 59.6609 6.59024 60.6489 8.85418L74.4866 40.5628C75.4926 42.868 73.2573 45.2601 70.8893 44.4125L67.2754 43.1188C66.9258 42.9936 66.5553 42.9375 66.1843 42.9536L58.4391 43.2882L49.3208 43.6821V49.8402C49.3208 51.2137 48.2073 52.3272 46.8337 52.3272C45.4601 52.3272 44.3466 51.2137 44.3466 49.8402V43.897L43.6207 43.9284C42.6961 43.9684 41.8208 43.5607 41.2555 42.8536L38.7403 44.3058C37.3677 45.0982 35.6126 44.6279 34.8202 43.2554L32.9533 40.0218C32.1609 38.6493 32.6311 36.8942 34.0037 36.1017L36.7134 34.5373L36.5683 34.2684Z" fill="#F2F2F3"/>
<path d="M36.9601 30.9858L36.289 30.382L36.289 30.382L36.9601 30.9858ZM36.5683 34.2684L35.7739 34.6973L35.7739 34.6973L36.5683 34.2684ZM47.7254 19.0199L47.0543 18.4162L47.7254 19.0199ZM53.4986 12.603L52.8275 11.9992H52.8275L53.4986 12.603ZM53.9651 11.8984L53.1473 11.5163L53.9651 11.8984ZM55.4188 8.78722L54.6009 8.4051V8.4051L55.4188 8.78722ZM60.6489 8.85418L59.8215 9.21523L60.6489 8.85418ZM74.4866 40.5628L73.6593 40.9239L74.4866 40.5628ZM70.8893 44.4125L70.585 45.2623L70.8893 44.4125ZM67.2754 43.1188L67.5796 42.2689H67.5796L67.2754 43.1188ZM66.1843 42.9536L66.1454 42.0517L66.1843 42.9536ZM58.4391 43.2882L58.4781 44.19L58.4391 43.2882ZM49.3208 43.6821L49.2818 42.7803L48.4181 42.8176V43.6821H49.3208ZM44.3466 43.897H45.2493V42.9545L44.3077 42.9952L44.3466 43.897ZM43.6207 43.9284L43.5817 43.0265H43.5817L43.6207 43.9284ZM41.2555 42.8536L41.9606 42.29L41.4761 41.6839L40.8041 42.0719L41.2555 42.8536ZM38.7403 44.3058L39.1916 45.0875H39.1916L38.7403 44.3058ZM34.8202 43.2554L35.602 42.804L34.8202 43.2554ZM32.9533 40.0218L32.1715 40.4732H32.1715L32.9533 40.0218ZM34.0037 36.1017L33.5523 35.32H33.5523L34.0037 36.1017ZM36.7134 34.5373L37.1648 35.319L37.9245 34.8804L37.5077 34.1084L36.7134 34.5373ZM36.289 30.382C35.2228 31.5671 35.0166 33.2945 35.7739 34.6973L37.3626 33.8396C36.9677 33.1082 37.0752 32.2075 37.6312 31.5895L36.289 30.382ZM47.0543 18.4162L36.289 30.382L37.6312 31.5895L48.3965 19.6237L47.0543 18.4162ZM52.8275 11.9992L47.0543 18.4162L48.3965 19.6237L54.1697 13.2067L52.8275 11.9992ZM53.1473 11.5163C53.0651 11.6921 52.9574 11.8549 52.8275 11.9992L54.1697 13.2067C54.4187 12.9299 54.6254 12.6178 54.783 12.2805L53.1473 11.5163ZM54.6009 8.4051L53.1473 11.5163L54.783 12.2805L56.2366 9.16934L54.6009 8.4051ZM61.4762 8.49312C60.1774 5.51704 55.9755 5.46325 54.6009 8.4051L56.2366 9.16934C56.9533 7.6354 59.1443 7.66345 59.8215 9.21523L61.4762 8.49312ZM75.314 40.2018L61.4762 8.49312L59.8215 9.21523L73.6593 40.9239L75.314 40.2018ZM70.585 45.2623C73.6979 46.3767 76.6364 43.2321 75.314 40.2018L73.6593 40.9239C74.3488 42.504 72.8166 44.1436 71.1935 43.5626L70.585 45.2623ZM66.9712 43.9687L70.585 45.2623L71.1935 43.5626L67.5796 42.2689L66.9712 43.9687ZM66.2233 43.8554C66.4776 43.8444 66.7315 43.8829 66.9712 43.9687L67.5796 42.2689C67.1201 42.1044 66.633 42.0306 66.1454 42.0517L66.2233 43.8554ZM58.4781 44.19L66.2233 43.8554L66.1454 42.0517L58.4002 42.3863L58.4781 44.19ZM49.3598 44.584L58.4781 44.19L58.4002 42.3863L49.2818 42.7803L49.3598 44.584ZM48.4181 43.6821V49.8402H50.2235V43.6821H48.4181ZM48.4181 49.8402C48.4181 50.7152 47.7087 51.4245 46.8337 51.4245V53.2299C48.7058 53.2299 50.2235 51.7123 50.2235 49.8402H48.4181ZM46.8337 51.4245C45.9587 51.4245 45.2493 50.7152 45.2493 49.8402H43.4439C43.4439 51.7123 44.9616 53.2299 46.8337 53.2299V51.4245ZM45.2493 49.8402V43.897H43.4439V49.8402H45.2493ZM43.6596 44.8303L44.3856 44.7989L44.3077 42.9952L43.5817 43.0265L43.6596 44.8303ZM40.5504 43.4173C41.2935 44.3468 42.4441 44.8828 43.6597 44.8303L43.5817 43.0265C42.9482 43.0539 42.348 42.7746 41.9606 42.29L40.5504 43.4173ZM39.1916 45.0875L41.7068 43.6354L40.8041 42.0719L38.2889 43.524L39.1916 45.0875ZM34.0384 43.7067C35.0802 45.511 37.3873 46.1292 39.1916 45.0875L38.2889 43.524C37.3481 44.0672 36.1451 43.7448 35.602 42.804L34.0384 43.7067ZM32.1715 40.4732L34.0384 43.7067L35.602 42.804L33.7351 39.5705L32.1715 40.4732ZM33.5523 35.32C31.748 36.3617 31.1298 38.6689 32.1715 40.4732L33.7351 39.5705C33.1919 38.6297 33.5142 37.4267 34.455 36.8835L33.5523 35.32ZM36.2621 33.7555L33.5523 35.32L34.455 36.8835L37.1648 35.319L36.2621 33.7555ZM35.7739 34.6973L35.9191 34.9661L37.5077 34.1084L37.3626 33.8396L35.7739 34.6973Z" fill="#0C0C0D" mask="url(#path-1-inside-1_13481_33346)"/>
<path d="M74.7348 21.4384C76.8779 26.4003 77.8999 31.2653 77.8359 35.109C77.7711 38.9985 76.6078 41.6514 74.6094 42.5145C72.611 43.3776 69.8821 42.4058 67.0062 39.7864C64.164 37.1978 61.323 33.1185 59.1799 28.1566C57.0368 23.1947 56.0148 18.3298 56.0788 14.4861C56.1436 10.5966 57.307 7.94366 59.3053 7.08055C61.3037 6.21745 64.0326 7.18926 66.9086 9.80863C69.7507 12.3972 72.5918 16.4765 74.7348 21.4384Z" fill="#D5D6D9" stroke="#0C0C0D" stroke-width="0.9027"/>
<path d="M43.9117 32.0087L47.2092 36.3983C48.0011 37.4525 46.7573 38.8257 45.6301 38.1417L40.4578 34.2519C37.2857 31.8664 33.4242 30.5764 29.4552 30.5764H17.8579C11.3585 30.5764 6.08973 25.3077 6.08973 18.8083C6.08973 12.3089 11.3585 7.04015 17.8579 7.04015H37.6235C42.4458 7.04015 46.7686 10.014 48.4925 14.5176L49.0203 15.8964C50.2049 18.9909 49.6195 22.4843 47.4908 25.0236L43.9866 29.2036C43.3126 30.0076 43.2816 31.17 43.9117 32.0087Z" fill="url(#paint0_linear_13481_33346)" stroke="#0C0C0D" stroke-width="0.9027" stroke-linecap="round" stroke-linejoin="round"/>
<defs>
<linearGradient id="paint0_linear_13481_33346" x1="50.9395" y1="7.04015" x2="44.1983" y2="48.9634" gradientUnits="userSpaceOnUse">
<stop offset="0.0127869" stop-color="white"/>
<stop offset="1" stop-color="#31CEFF"/>
</linearGradient>
</defs>
</svg>
