<svg width="280" height="65" viewBox="0 0 280 65" fill="none" xmlns="http://www.w3.org/2000/svg">
<rect y="0.271484" width="280" height="64" rx="8" fill="white"/>
<g clip-path="url(#clip0_14256_1959)">
<g clip-path="url(#clip1_14256_1959)">
<path d="M162.659 56.1521H13.7362C10.4599 56.1521 7.7793 53.4655 7.7793 50.182V14.3611C7.7793 11.0775 10.4599 8.39091 13.7362 8.39091H162.659C165.935 8.39091 168.615 11.0775 168.615 14.3611V50.182C168.615 53.4655 165.935 56.1521 162.659 56.1521Z" fill="white"/>
<path d="M32.3419 31.4639L19.6582 44.9561C19.6587 44.9589 19.6596 44.9612 19.6601 44.964C20.0491 46.429 21.3842 47.5078 22.9688 47.5078C23.6023 47.5078 24.197 47.3362 24.707 47.0349L24.7475 47.0111L39.0247 38.7543L32.3419 31.4639Z" fill="black"/>
<path d="M32.3419 31.4639L19.6582 44.9561C19.6587 44.9589 19.6596 44.9612 19.6601 44.964C20.0491 46.429 21.3842 47.5078 22.9688 47.5078C23.6023 47.5078 24.197 47.3362 24.707 47.0349L24.7475 47.0111L39.0247 38.7543L32.3419 31.4639" stroke="white" stroke-width="0.73825"/>
<path d="M45.1739 29.1664L45.1618 29.1581L38.998 25.5769L32.0537 31.7699L39.0222 38.7529L45.1534 35.2073C46.2284 34.6257 46.9581 33.49 46.9581 32.1803C46.9581 30.8801 46.2382 29.7499 45.1739 29.1664Z" fill="black"/>
<path d="M45.1739 29.1664L45.1618 29.1581L38.998 25.5769L32.0537 31.7699L39.0222 38.7529L45.1534 35.2073C46.2284 34.6257 46.9581 33.49 46.9581 32.1803C46.9581 30.8801 46.2382 29.7499 45.1739 29.1664" stroke="white" stroke-width="0.73825"/>
<path d="M19.6573 19.3487C19.5811 19.6305 19.541 19.9256 19.541 20.2321V44.0734C19.541 44.3794 19.5806 44.6755 19.6578 44.9563L32.778 31.8093L19.6573 19.3487Z" fill="black" stroke="white" stroke-width="0.73825"/>
<path d="M32.4349 32.1523L39 25.5746L24.739 17.288C24.2207 16.9768 23.6157 16.7973 22.9683 16.7973C21.3837 16.7973 20.0468 17.878 19.6577 19.3448C19.6572 19.3462 19.6572 19.3472 19.6572 19.3485L32.4349 32.1523Z" fill="black" stroke="white" stroke-width="0.73825"/>
</g>
<path d="M64.6131 20.6215C64.6131 21.6219 64.3175 22.4185 63.7255 23.0128C63.0531 23.7194 62.1768 24.073 61.0994 24.073C60.0677 24.073 59.1904 23.7148 58.4691 22.9974C57.7464 22.2805 57.3857 21.3916 57.3857 20.3309C57.3857 19.2698 57.7464 18.3813 58.4691 17.6639C59.1904 16.947 60.0677 16.5883 61.0994 16.5883C61.6113 16.5883 62.1015 16.6886 62.5668 16.8888C63.0322 17.0894 63.4054 17.3556 63.6847 17.6891L63.0564 18.3192C62.5831 17.7525 61.9316 17.4694 61.0994 17.4694C60.3469 17.4694 59.6963 17.7344 59.1472 18.2646C58.598 18.7955 58.3235 19.4839 58.3235 20.3309C58.3235 21.178 58.598 21.8663 59.1472 22.3972C59.6963 22.9274 60.3469 23.1924 61.0994 23.1924C61.8976 23.1924 62.5631 22.926 63.0959 22.3925C63.4418 22.0449 63.6418 21.5618 63.6953 20.9414H61.0994V20.0809H64.5633C64.5968 20.268 64.6131 20.4476 64.6131 20.6215Z" fill="black"/>
<path d="M64.6131 20.6218H64.494C64.493 21.5993 64.2082 22.3586 63.6413 22.9286L63.64 22.9296L63.6395 22.9305C62.9884 23.6128 62.1516 23.9524 61.0994 23.9538C60.0952 23.9524 59.2547 23.6091 58.5528 22.9132C57.8525 22.2159 57.5062 21.3647 57.5049 20.3311C57.5062 19.2971 57.8525 18.4464 58.5528 17.7495C59.2547 17.0532 60.0952 16.7094 61.0994 16.708C61.596 16.708 62.0688 16.805 62.5197 16.9986C62.9712 17.1936 63.3277 17.4491 63.5934 17.7664L63.6847 17.6893L63.6005 17.6049L62.9721 18.2355L63.0563 18.3194L63.1481 18.243C62.6528 17.6483 61.9577 17.3484 61.0994 17.3502C60.319 17.3493 59.6326 17.6287 59.0647 18.1791C58.4915 18.7314 58.2034 19.4584 58.2043 20.3311C58.2034 21.2038 58.4915 21.9309 59.0647 22.4831C59.6326 23.0336 60.319 23.313 61.0994 23.312C61.9241 23.3135 62.6269 23.0331 63.1801 22.4772C63.5497 22.1058 63.7591 21.5914 63.8141 20.9519L63.8251 20.8222H61.2185V20.2005H64.5633V20.0811L64.446 20.1021C64.4786 20.2831 64.494 20.4552 64.494 20.6218H64.6131H64.7323C64.7323 20.4403 64.7155 20.2538 64.6806 20.0597L64.6629 19.9617H60.9802V20.9416V21.061H63.6953V20.9416L63.5766 20.9314C63.5241 21.5322 63.3332 21.9846 63.0117 22.3083C62.4997 22.8195 61.8715 23.0718 61.0994 23.0732C60.3748 23.0723 59.76 22.8222 59.23 22.3116C58.7051 21.8027 58.4439 21.153 58.4426 20.3311C58.4439 19.5093 58.7051 18.8596 59.23 18.3507C59.76 17.84 60.3748 17.59 61.0994 17.589C61.905 17.591 62.5133 17.8577 62.9652 18.3964L63.049 18.4963L63.7689 17.7738L63.8461 17.6964L63.7758 17.6128C63.4831 17.2631 63.0932 16.9855 62.6137 16.7794C62.1335 16.5727 61.6267 16.4692 61.0994 16.4692C60.0402 16.4682 59.1262 16.8413 58.3848 17.5797C57.6407 18.3167 57.2657 19.243 57.2666 20.3311C57.2657 21.4188 57.6407 22.3456 58.3853 23.083C59.1262 23.8209 60.0402 24.1936 61.0994 24.1926C62.2024 24.1936 63.1173 23.8264 63.8117 23.0956L63.7255 23.013L63.8098 23.0975C64.4269 22.4794 64.7331 21.6446 64.7323 20.6218H64.6131Z" fill="black"/>
<path d="M70.1047 17.6293H66.8494V19.9008H69.785V20.7617H66.8494V23.0332H70.1047V23.9133H65.9316V16.7491H70.1047V17.6293Z" fill="black"/>
<path d="M70.1047 17.6293V17.5098H66.7302V20.0202H69.6659V20.6419L66.7302 20.6423V23.1526H69.9855V23.7939H66.0508V16.8685H69.9855V17.6293H70.1047V17.5098V17.6293H70.2238V16.7491V16.6297H65.8125V24.0327H70.2238V23.0332V22.9138H66.9685V20.8811H69.9042V19.9008V19.7814H66.9685V17.7487H70.2238V17.6293H70.1047Z" fill="black"/>
<path d="M73.9782 23.9133H73.059V17.6293H71.0625V16.7491H75.9747V17.6293H73.9782V23.9133Z" fill="black"/>
<path d="M73.9782 23.9133V23.7939H73.1781V17.5098H71.1816V16.8685H75.8555V17.5098H73.859V23.9133H73.9782V23.7939V23.9133H74.0973V17.7487H76.0938V16.7491V16.6297H70.9434V17.6293V17.7487H72.9399V24.0327H73.9782H74.0973V23.9133H73.9782Z" fill="black"/>
<path d="M79.5283 23.9133V16.7491H80.4465V23.9133H79.5283Z" fill="black"/>
<path d="M79.5283 23.9133H79.6475V16.8685H80.3274V23.7939H79.5283V23.9133H79.6475H79.5283V24.0327H80.4465H80.5656V16.6297H79.5283H79.4092V24.0327H79.5283V23.9133Z" fill="black"/>
<path d="M84.522 23.9133H83.6028V17.6293H81.6064V16.7491H86.5185V17.6293H84.522V23.9133Z" fill="black"/>
<path d="M84.521 23.9133V23.7939H83.721V17.5098H81.7246V16.8685H86.3984V17.5098H84.4019V23.9133H84.521V23.7939V23.9133H84.6401V17.7487H86.6367V16.7491V16.6297H81.4863V17.6293V17.7487H83.4827V24.0327H84.521H84.6401V23.9133H84.521Z" fill="black"/>
<path d="M91.2537 22.3874C91.7827 22.9242 92.4301 23.1924 93.1957 23.1924C93.9613 23.1924 94.609 22.9242 95.1373 22.3874C95.6669 21.8505 95.9322 21.1643 95.9322 20.3309C95.9322 19.4975 95.6669 18.8113 95.1373 18.2744C94.609 17.7376 93.9613 17.4694 93.1957 17.4694C92.4301 17.4694 91.7827 17.7376 91.2537 18.2744C90.7254 18.8113 90.4602 19.4975 90.4602 20.3309C90.4602 21.1643 90.7254 21.8505 91.2537 22.3874ZM95.8167 22.9871C95.1139 23.7114 94.24 24.073 93.1957 24.073C92.1504 24.073 91.2769 23.7114 90.5756 22.9871C89.8724 22.2637 89.5225 21.3781 89.5225 20.3309C89.5225 19.2837 89.8724 18.398 90.5756 17.6747C91.2769 16.9502 92.1504 16.5883 93.1957 16.5883C94.2345 16.5883 95.1061 16.9522 95.8121 17.6793C96.5172 18.4065 96.8699 19.2903 96.8699 20.3309C96.8699 21.3781 96.518 22.2637 95.8167 22.9871Z" fill="black"/>
<path d="M91.2537 22.3876L91.1689 22.4716C91.7177 23.0299 92.4023 23.3135 93.1957 23.312C93.9887 23.3135 94.6742 23.0299 95.222 22.4716C95.7743 21.9127 96.0522 21.1898 96.0513 20.3311C96.0522 19.4725 95.7743 18.7495 95.222 18.1907C94.6742 17.6324 93.9887 17.3488 93.1957 17.3502C92.4023 17.3488 91.7177 17.6324 91.1689 18.1907C90.6179 18.7495 90.3396 19.4725 90.3411 20.3311C90.3396 21.1898 90.6179 21.9127 91.1689 22.4716L91.2537 22.3876L91.3384 22.3037C90.833 21.7882 90.5803 21.1398 90.5793 20.3311C90.5803 19.5224 90.833 18.8741 91.3384 18.3586C91.8484 17.8433 92.4575 17.5905 93.1957 17.589C93.9333 17.5905 94.5439 17.8433 95.0526 18.3586C95.5589 18.8741 95.8116 19.5224 95.8126 20.3311C95.8116 21.1398 95.5589 21.7882 95.0526 22.3037C94.5439 22.819 93.9333 23.0718 93.1957 23.0732C92.4575 23.0718 91.8484 22.819 91.3384 22.3037L91.2537 22.3876ZM95.8168 22.9874L95.7316 22.9044C95.0484 23.6059 94.213 23.9524 93.1957 23.9538C92.1779 23.9524 91.3425 23.6059 90.6607 22.9044L90.6575 22.9007L90.6607 22.9044C89.979 22.2005 89.6426 21.3517 89.6416 20.3311C89.6426 19.3106 89.979 18.4618 90.6607 17.7579C91.3425 17.0564 92.1779 16.7094 93.1957 16.708C94.2065 16.7094 95.04 17.0578 95.7269 17.763C96.411 18.4701 96.7494 19.3176 96.7508 20.3311C96.7494 21.3517 96.412 22.2005 95.7316 22.9044L95.8168 22.9874L95.9024 23.0704C96.6246 22.327 96.9899 21.4048 96.9891 20.3311C96.9899 19.2636 96.6232 18.3433 95.8977 17.5966C95.1717 16.847 94.2624 16.4678 93.1957 16.4692C92.1235 16.4678 91.2114 16.8452 90.49 17.5919V17.5914C89.7663 18.3353 89.4024 19.2575 89.4033 20.3311C89.4024 21.4048 89.7663 22.327 90.49 23.0708L90.4932 23.0742L90.49 23.0704C91.2114 23.8171 92.1235 24.1936 93.1957 24.1926C94.2675 24.1936 95.1796 23.8171 95.9024 23.0704L95.8168 22.9874Z" fill="black"/>
<path d="M98.1592 23.9133V16.7491H99.2771L102.751 22.3224H102.791L102.751 20.9417V16.7491H103.67V23.9133H102.712L99.0769 18.07H99.0373L99.0769 19.4511V23.9133H98.1592Z" fill="black"/>
<path d="M98.1592 23.9133H98.2783V16.8685H99.2109L102.685 22.4418H102.791H102.913L102.87 20.9399V16.8685H103.551V23.7939H102.778L99.143 17.9506H99.0373H98.915L98.9578 19.453V23.7939H98.1592V23.9133H98.2783H98.1592V24.0327H99.0769H99.196V19.4492L99.1565 18.0667L99.0373 18.07V18.1894H99.0769V18.07L98.9759 18.1335L102.645 24.0327H103.67H103.789V16.6297H102.751H102.632V20.9432L102.672 22.3256L102.791 22.3224V22.203H102.751V22.3224L102.852 22.259L99.343 16.6297H98.1592H98.04V24.0327H98.1592V23.9133Z" fill="black"/>
<path d="M135.521 44.2118H137.744V29.2849H135.521V44.2118ZM155.544 34.6619L152.996 41.1334H152.92L150.275 34.6619H147.88L151.846 43.707L149.585 48.7383H151.904L158.016 34.6619H155.544ZM142.937 42.5163C142.208 42.5163 141.193 42.1516 141.193 41.2486C141.193 40.0965 142.458 39.6549 143.549 39.6549C144.527 39.6549 144.986 39.8661 145.581 40.1544C145.408 41.5369 144.22 42.5163 142.937 42.5163ZM143.205 34.3353C141.595 34.3353 139.929 35.0461 139.239 36.6208L141.212 37.4464C141.634 36.6208 142.419 36.3517 143.243 36.3517C144.393 36.3517 145.562 37.0434 145.581 38.2724V38.4258C145.178 38.1954 144.317 37.8498 143.262 37.8498C141.136 37.8498 138.97 39.0209 138.97 41.2103C138.97 43.2076 140.714 44.4944 142.668 44.4944C144.163 44.4944 144.986 43.8223 145.504 43.035H145.581V44.187H147.726V38.4641C147.726 35.8144 145.753 34.3353 143.205 34.3353ZM129.466 36.479H126.304V31.3624H129.466C131.128 31.3624 132.072 32.7415 132.072 33.9206C132.072 35.0774 131.128 36.479 129.466 36.479ZM129.409 29.2849H124.082V44.2118H126.304V38.5565H129.409C131.873 38.5565 134.295 36.7686 134.295 33.9206C134.295 31.0728 131.873 29.2849 129.409 29.2849ZM100.362 42.5191C98.826 42.5191 97.5402 41.2304 97.5402 39.4603C97.5402 37.6717 98.826 36.3634 100.362 36.3634C101.878 36.3634 103.068 37.6717 103.068 39.4603C103.068 41.2304 101.878 42.5191 100.362 42.5191ZM102.914 35.4977H102.838C102.339 34.9015 101.379 34.3629 100.17 34.3629C97.6361 34.3629 95.3138 36.5942 95.3138 39.4603C95.3138 42.3074 97.6361 44.5196 100.17 44.5196C101.379 44.5196 102.339 43.9808 102.838 43.3657H102.914V44.0965C102.914 46.0397 101.878 47.0784 100.208 47.0784C98.8456 47.0784 98.001 46.097 97.6551 45.27L95.7169 46.0779C96.2735 47.4244 97.7515 49.0789 100.208 49.0789C102.819 49.0789 105.026 47.5396 105.026 43.7887V34.6707H102.914V35.4977ZM106.561 44.2118H108.788V29.2845H106.561V44.2118ZM112.07 39.2873C112.012 37.3251 113.586 36.3251 114.718 36.3251C115.602 36.3251 116.35 36.7672 116.599 37.4026L112.07 39.2873ZM118.98 37.5947C118.558 36.4594 117.271 34.3629 114.642 34.3629C112.031 34.3629 109.863 36.4212 109.863 39.4412C109.863 42.2883 112.012 44.5196 114.891 44.5196C117.214 44.5196 118.558 43.0961 119.114 42.2691L117.387 41.1147C116.811 41.9612 116.024 42.5191 114.891 42.5191C113.759 42.5191 112.953 41.9996 112.434 40.9803L119.209 38.1716L118.98 37.5947ZM65.0002 35.9211V38.0755H70.144C69.9905 39.2873 69.5874 40.1721 68.9731 40.7878C68.2248 41.5382 67.054 42.3652 65.0002 42.3652C61.8332 42.3652 59.3574 39.8069 59.3574 36.6329C59.3574 33.4589 61.8332 30.9002 65.0002 30.9002C66.7086 30.9002 67.9558 31.5737 68.8772 32.4393L70.3935 30.9198C69.1076 29.6884 67.3992 28.7458 65.0002 28.7458C60.6623 28.7458 57.0156 32.2854 57.0156 36.6329C57.0156 40.9803 60.6623 44.5196 65.0002 44.5196C67.342 44.5196 69.1077 43.7505 70.4894 42.3074C71.9098 40.8839 72.3514 38.8834 72.3514 37.2678C72.3514 36.7672 72.3132 36.306 72.236 35.9211H65.0002ZM78.1994 42.5191C76.6636 42.5191 75.3392 41.2495 75.3392 39.4412C75.3392 37.6138 76.6636 36.3634 78.1994 36.3634C79.7346 36.3634 81.0591 37.6138 81.0591 39.4412C81.0591 41.2495 79.7346 42.5191 78.1994 42.5191ZM78.1994 34.3629C75.3968 34.3629 73.1127 36.4981 73.1127 39.4412C73.1127 42.3652 75.3968 44.5196 78.1994 44.5196C81.0014 44.5196 83.2855 42.3652 83.2855 39.4412C83.2855 36.4981 81.0014 34.3629 78.1994 34.3629ZM89.295 42.5191C87.7598 42.5191 86.4352 41.2495 86.4352 39.4412C86.4352 37.6138 87.7598 36.3634 89.295 36.3634C90.8303 36.3634 92.1548 37.6138 92.1548 39.4412C92.1548 41.2495 90.8303 42.5191 89.295 42.5191ZM89.295 34.3629C86.4925 34.3629 84.2089 36.4981 84.2089 39.4412C84.2089 42.3652 86.4925 44.5196 89.295 44.5196C92.0971 44.5196 94.3812 42.3652 94.3812 39.4412C94.3812 36.4981 92.0971 34.3629 89.295 34.3629Z" fill="black"/>
</g>
<path d="M246.75 33.2715C247.993 33.2715 249 34.2788 249 35.5215V41.0215C249 42.2641 247.993 43.2715 246.75 43.2715H241.25C240.007 43.2715 239 42.2641 239 41.0215V35.5215C239 34.2788 240.007 33.2715 241.25 33.2715H246.75ZM254.335 33.2715V36.6048H257.667V39.9382L254.335 39.9376V43.2709H251.001V39.9376L254.334 39.9382V36.6048H251.001V33.2715H254.335ZM261 39.9376V43.2709H257.667V39.9376H261ZM246.75 34.7715H241.25C240.836 34.7715 240.5 35.1073 240.5 35.5215V41.0215C240.5 41.4357 240.836 41.7715 241.25 41.7715H246.75C247.164 41.7715 247.5 41.4357 247.5 41.0215V35.5215C247.5 35.1073 247.164 34.7715 246.75 34.7715ZM245.5 36.7715V39.7715H242.5V36.7715H245.5ZM261 33.2715V36.6048H257.667V33.2715H261ZM246.75 21.2715C247.993 21.2715 249 22.2788 249 23.5215V29.0215C249 30.2641 247.993 31.2715 246.75 31.2715H241.25C240.007 31.2715 239 30.2641 239 29.0215V23.5215C239 22.2788 240.007 21.2715 241.25 21.2715H246.75ZM258.75 21.2715C259.993 21.2715 261 22.2788 261 23.5215V29.0215C261 30.2641 259.993 31.2715 258.75 31.2715H253.25C252.007 31.2715 251 30.2641 251 29.0215V23.5215C251 22.2788 252.007 21.2715 253.25 21.2715H258.75ZM246.75 22.7715H241.25C240.836 22.7715 240.5 23.1073 240.5 23.5215V29.0215C240.5 29.4357 240.836 29.7715 241.25 29.7715H246.75C247.164 29.7715 247.5 29.4357 247.5 29.0215V23.5215C247.5 23.1073 247.164 22.7715 246.75 22.7715ZM258.75 22.7715H253.25C252.836 22.7715 252.5 23.1073 252.5 23.5215V29.0215C252.5 29.4357 252.836 29.7715 253.25 29.7715H258.75C259.164 29.7715 259.5 29.4357 259.5 29.0215V23.5215C259.5 23.1073 259.164 22.7715 258.75 22.7715ZM245.5 24.7715V27.7715H242.5V24.7715H245.5ZM257.5 24.7715V27.7715H254.5V24.7715H257.5Z" fill="#29292D"/>
<defs>
<clipPath id="clip0_14256_1959">
<rect width="161.194" height="48" fill="white" transform="translate(8 8.27148)"/>
</clipPath>
<clipPath id="clip1_14256_1959">
<rect width="161.194" height="48" fill="white" transform="translate(7.66016 8.27148)"/>
</clipPath>
</defs>
</svg>
