<svg width="87" height="80" viewBox="0 0 87 80" fill="none" xmlns="http://www.w3.org/2000/svg">
<mask id="path-1-inside-1_13590_2867" fill="white">
<path fill-rule="evenodd" clip-rule="evenodd" d="M59.2613 74.1023C59.2757 74.1024 59.29 74.1024 59.3044 74.1024C59.3187 74.1024 59.3331 74.1024 59.3474 74.1023H67.7384C67.7528 74.1024 67.7671 74.1024 67.7815 74.1024C67.7958 74.1024 67.8102 74.1024 67.8245 74.1023H74.3445V74.1001C76.9241 74.0278 78.9932 71.9139 78.9932 69.3167C78.9932 66.6738 76.8507 64.5313 74.2078 64.5313C74.1549 64.5313 74.1023 64.5322 74.0498 64.5339C72.9954 62.1183 70.5856 60.4299 67.7815 60.4299C66.1804 60.4299 64.708 60.9803 63.5429 61.9021C62.3779 60.9803 60.9054 60.4299 59.3044 60.4299C56.7987 60.4299 54.6078 61.778 53.4175 63.7885C52.8257 63.5619 52.1831 63.4377 51.5115 63.4377C48.5665 63.4377 46.1792 65.8251 46.1792 68.77C46.1792 71.7149 48.5665 74.1023 51.5115 74.1023C51.5571 74.1023 51.6027 74.1017 51.6481 74.1006V74.1023H59.2613Z"/>
</mask>
<path fill-rule="evenodd" clip-rule="evenodd" d="M59.2613 74.1023C59.2757 74.1024 59.29 74.1024 59.3044 74.1024C59.3187 74.1024 59.3331 74.1024 59.3474 74.1023H67.7384C67.7528 74.1024 67.7671 74.1024 67.7815 74.1024C67.7958 74.1024 67.8102 74.1024 67.8245 74.1023H74.3445V74.1001C76.9241 74.0278 78.9932 71.9139 78.9932 69.3167C78.9932 66.6738 76.8507 64.5313 74.2078 64.5313C74.1549 64.5313 74.1023 64.5322 74.0498 64.5339C72.9954 62.1183 70.5856 60.4299 67.7815 60.4299C66.1804 60.4299 64.708 60.9803 63.5429 61.9021C62.3779 60.9803 60.9054 60.4299 59.3044 60.4299C56.7987 60.4299 54.6078 61.778 53.4175 63.7885C52.8257 63.5619 52.1831 63.4377 51.5115 63.4377C48.5665 63.4377 46.1792 65.8251 46.1792 68.77C46.1792 71.7149 48.5665 74.1023 51.5115 74.1023C51.5571 74.1023 51.6027 74.1017 51.6481 74.1006V74.1023H59.2613Z" fill="white"/>
<path d="M59.2613 74.1023V73.5383L59.2648 73.5383L59.2613 74.1023ZM59.3474 74.1023L59.3439 73.5383H59.3474V74.1023ZM67.7384 74.1023V73.5383L67.7419 73.5383L67.7384 74.1023ZM67.8245 74.1023L67.821 73.5383H67.8245V74.1023ZM74.3445 74.1023H74.9085V74.6663H74.3445V74.1023ZM74.3445 74.1001H73.7804V73.5517L74.3286 73.5363L74.3445 74.1001ZM74.0498 64.5339L74.0681 65.0976L73.6859 65.11L73.5329 64.7595L74.0498 64.5339ZM63.5429 61.9021L63.8929 62.3445L63.5429 62.6214L63.1929 62.3445L63.5429 61.9021ZM53.4175 63.7885L53.9029 64.0758L53.6604 64.4854L53.2159 64.3152L53.4175 63.7885ZM51.6481 74.1006L51.6339 73.5367L52.2121 73.5222V74.1006H51.6481ZM51.6481 74.1023V74.6663H51.0841V74.1023H51.6481ZM59.3044 74.6665C59.2889 74.6665 59.2734 74.6664 59.2579 74.6663L59.2648 73.5383C59.278 73.5384 59.2912 73.5384 59.3044 73.5384V74.6665ZM59.3509 74.6663C59.3354 74.6664 59.3199 74.6665 59.3044 74.6665V73.5384C59.3176 73.5384 59.3308 73.5384 59.3439 73.5383L59.3509 74.6663ZM59.3474 73.5383H67.7384V74.6663H59.3474V73.5383ZM67.7815 74.6665C67.766 74.6665 67.7505 74.6664 67.7349 74.6663L67.7419 73.5383C67.7551 73.5384 67.7683 73.5384 67.7815 73.5384V74.6665ZM67.828 74.6663C67.8125 74.6664 67.797 74.6665 67.7815 74.6665V73.5384C67.7947 73.5384 67.8078 73.5384 67.821 73.5383L67.828 74.6663ZM67.8245 73.5383H74.3445V74.6663H67.8245V73.5383ZM73.7804 74.1023V74.1001H74.9085V74.1023H73.7804ZM79.5572 69.3167C79.5572 72.2201 77.2443 74.5831 74.3603 74.664L74.3286 73.5363C76.604 73.4725 78.4291 71.6077 78.4291 69.3167H79.5572ZM74.2078 63.9673C77.1622 63.9673 79.5572 66.3623 79.5572 69.3167H78.4291C78.4291 66.9853 76.5392 65.0953 74.2078 65.0953V63.9673ZM74.0315 63.9701C74.0901 63.9682 74.1488 63.9673 74.2078 63.9673V65.0953C74.161 65.0953 74.1145 65.0961 74.0681 65.0976L74.0315 63.9701ZM67.7815 59.8659C70.8178 59.8659 73.4259 61.6945 74.5668 64.3082L73.5329 64.7595C72.565 62.542 70.3534 60.994 67.7815 60.994V59.8659ZM63.1929 61.4598C64.454 60.462 66.0489 59.8659 67.7815 59.8659V60.994C66.312 60.994 64.9619 61.4986 63.8929 62.3445L63.1929 61.4598ZM59.3044 59.8659C61.0369 59.8659 62.6318 60.462 63.8929 61.4598L63.1929 62.3445C62.1239 61.4986 60.7739 60.994 59.3044 60.994V59.8659ZM52.9322 63.5011C54.2198 61.3263 56.5912 59.8659 59.3044 59.8659V60.994C57.0061 60.994 54.9958 62.2298 53.9029 64.0758L52.9322 63.5011ZM51.5115 62.8737C52.2531 62.8737 52.964 63.0109 53.6192 63.2617L53.2159 64.3152C52.6874 64.1129 52.1131 64.0017 51.5115 64.0017V62.8737ZM45.6152 68.77C45.6152 65.5135 48.255 62.8737 51.5115 62.8737V64.0017C48.878 64.0017 46.7432 66.1366 46.7432 68.77H45.6152ZM51.5115 74.6663C48.255 74.6663 45.6152 72.0264 45.6152 68.77H46.7432C46.7432 71.4034 48.878 73.5382 51.5115 73.5382V74.6663ZM51.6623 74.6644C51.6121 74.6657 51.5619 74.6663 51.5115 74.6663V73.5382C51.5524 73.5382 51.5932 73.5377 51.6339 73.5367L51.6623 74.6644ZM52.2121 74.1006V74.1023H51.0841V74.1006H52.2121ZM51.6481 73.5383H59.2613V74.6663H51.6481V73.5383Z" fill="#0C0C0D" mask="url(#path-1-inside-1_13590_2867)"/>
<path d="M67.7401 72.6474L54.9218 49.6927C54.1403 48.2933 52.0598 48.5252 51.6056 50.0623L47.5996 63.6208C47.3804 64.3628 47.657 65.162 48.2879 65.6098L61.5267 75.006C61.8328 75.2232 62.1989 75.34 62.5743 75.34L66.1598 75.34C67.5417 75.34 68.4139 73.8539 67.7401 72.6474Z" fill="#D5D6D9" stroke="#0C0C0D" stroke-width="0.564035"/>
<path d="M21.5753 72.6474L34.3936 49.6927C35.1751 48.2933 37.2557 48.5252 37.7098 50.0623L41.7158 63.6208C41.935 64.3628 41.6585 65.162 41.0276 65.6098L27.7887 75.006C27.4826 75.2232 27.1165 75.34 26.7411 75.34L23.1556 75.34C21.7737 75.34 20.9015 73.8539 21.5753 72.6474Z" fill="#D5D6D9" stroke="#0C0C0D" stroke-width="0.564035"/>
<path d="M33.8816 36.2512C33.8816 30.1046 36.2781 24.2001 40.5619 19.7921C42.7315 17.5596 46.3164 17.5596 48.486 19.7921C52.7698 24.2001 55.1663 30.1046 55.1663 36.2512V73.7562C55.1663 74.6977 54.403 75.461 53.4614 75.461H35.5865C34.6449 75.461 33.8816 74.6977 33.8816 73.7562V36.2512Z" fill="#79D4B7" stroke="#0C0C0D" stroke-width="0.564035"/>
<mask id="path-6-inside-2_13590_2867" fill="white">
<path fill-rule="evenodd" clip-rule="evenodd" d="M34.6937 67.1294C34.6937 67.3704 34.6856 67.6095 34.6697 67.8464C35.5035 67.3062 36.4977 66.9926 37.5652 66.9926C40.5101 66.9926 42.8974 69.3799 42.8974 72.3249C42.8974 75.2698 40.5101 77.6571 37.5652 77.6571C37.5194 77.6571 37.4738 77.6565 37.4283 77.6554V77.6572H24.201C24.1893 77.6572 24.1776 77.6572 24.1659 77.6572C24.1542 77.6572 24.1425 77.6572 24.1308 77.6572H11.9974L11.9974 77.6571C8.07082 77.6571 4.8877 74.474 4.8877 70.5474C4.8877 66.6208 8.07082 63.4377 11.9974 63.4377C12.7596 63.4377 13.4938 63.5577 14.1821 63.7797C15.5814 59.6076 19.5226 56.6016 24.1659 56.6016C29.9802 56.6016 34.6937 61.315 34.6937 67.1294ZM49.1864 77.6572C50.8477 77.6572 52.1944 76.3105 52.1944 74.6492C52.1944 72.988 50.8477 71.6413 49.1864 71.6413C47.5252 71.6413 46.1785 72.988 46.1785 74.6492C46.1785 76.3105 47.5252 77.6572 49.1864 77.6572Z"/>
</mask>
<path fill-rule="evenodd" clip-rule="evenodd" d="M34.6937 67.1294C34.6937 67.3704 34.6856 67.6095 34.6697 67.8464C35.5035 67.3062 36.4977 66.9926 37.5652 66.9926C40.5101 66.9926 42.8974 69.3799 42.8974 72.3249C42.8974 75.2698 40.5101 77.6571 37.5652 77.6571C37.5194 77.6571 37.4738 77.6565 37.4283 77.6554V77.6572H24.201C24.1893 77.6572 24.1776 77.6572 24.1659 77.6572C24.1542 77.6572 24.1425 77.6572 24.1308 77.6572H11.9974L11.9974 77.6571C8.07082 77.6571 4.8877 74.474 4.8877 70.5474C4.8877 66.6208 8.07082 63.4377 11.9974 63.4377C12.7596 63.4377 13.4938 63.5577 14.1821 63.7797C15.5814 59.6076 19.5226 56.6016 24.1659 56.6016C29.9802 56.6016 34.6937 61.315 34.6937 67.1294ZM49.1864 77.6572C50.8477 77.6572 52.1944 76.3105 52.1944 74.6492C52.1944 72.988 50.8477 71.6413 49.1864 71.6413C47.5252 71.6413 46.1785 72.988 46.1785 74.6492C46.1785 76.3105 47.5252 77.6572 49.1864 77.6572Z" fill="white"/>
<path d="M34.6697 67.8464L34.1069 67.8086L34.0313 68.9321L34.9764 68.3198L34.6697 67.8464ZM37.4283 77.6554L37.4425 77.0915L36.8642 77.077V77.6554H37.4283ZM37.4283 77.6572V78.2212H37.9923V77.6572H37.4283ZM24.201 77.6572V77.0931L24.1991 77.0931L24.201 77.6572ZM24.1308 77.6572L24.1326 77.0931H24.1308V77.6572ZM11.9974 77.6572L11.4539 77.5062L11.2553 78.2212H11.9974V77.6572ZM11.9974 77.6571L12.5409 77.8081L12.7395 77.0931H11.9974V77.6571ZM14.1821 63.7797L14.009 64.3165L14.5396 64.4877L14.7169 63.9591L14.1821 63.7797ZM35.2324 67.8843C35.2492 67.6348 35.2577 67.383 35.2577 67.1294H34.1297C34.1297 67.3578 34.122 67.5842 34.1069 67.8086L35.2324 67.8843ZM37.5652 66.4285C36.3856 66.4285 35.2854 66.7755 34.363 67.3731L34.9764 68.3198C35.7216 67.837 36.6098 67.5566 37.5652 67.5566V66.4285ZM43.4615 72.3249C43.4615 69.0684 40.8216 66.4285 37.5652 66.4285V67.5566C40.1986 67.5566 42.3334 69.6914 42.3334 72.3249H43.4615ZM37.5652 78.2212C40.8216 78.2212 43.4615 75.5813 43.4615 72.3249H42.3334C42.3334 74.9583 40.1986 77.0931 37.5652 77.0931V78.2212ZM37.414 78.2193C37.4643 78.2205 37.5146 78.2212 37.5652 78.2212V77.0931C37.5241 77.0931 37.4832 77.0926 37.4425 77.0915L37.414 78.2193ZM36.8642 77.6554V77.6572H37.9923V77.6554H36.8642ZM37.4283 77.0931H24.201V78.2212H37.4283V77.0931ZM24.1659 78.2213C24.1782 78.2213 24.1905 78.2212 24.2028 78.2212L24.1991 77.0931C24.188 77.0932 24.177 77.0932 24.1659 77.0932V78.2213ZM24.129 78.2212C24.1413 78.2212 24.1536 78.2213 24.1659 78.2213V77.0932C24.1548 77.0932 24.1437 77.0932 24.1326 77.0931L24.129 78.2212ZM24.1308 77.0931H11.9974V78.2212H24.1308V77.0931ZM12.5408 77.8081L12.5409 77.8081L11.4539 77.5062L11.4539 77.5062L12.5408 77.8081ZM4.32366 70.5474C4.32366 74.7855 7.75931 78.2212 11.9974 78.2212V77.0931C8.38233 77.0931 5.45173 74.1625 5.45173 70.5474H4.32366ZM11.9974 62.8737C7.75931 62.8737 4.32366 66.3093 4.32366 70.5474H5.45173C5.45173 66.9324 8.38233 64.0018 11.9974 64.0018V62.8737ZM14.3553 63.2429C13.6117 63.003 12.8191 62.8737 11.9974 62.8737V64.0018C12.7001 64.0018 13.3759 64.1123 14.009 64.3165L14.3553 63.2429ZM24.1659 56.0375C19.2729 56.0375 15.1214 59.2054 13.6474 63.6004L14.7169 63.9591C16.0414 60.0098 19.7722 57.1656 24.1659 57.1656V56.0375ZM35.2577 67.1294C35.2577 61.0035 30.2917 56.0375 24.1659 56.0375V57.1656C29.6687 57.1656 34.1297 61.6265 34.1297 67.1294H35.2577ZM51.6303 74.6492C51.6303 75.999 50.5362 77.0931 49.1864 77.0931V78.2212C51.1592 78.2212 52.7584 76.622 52.7584 74.6492H51.6303ZM49.1864 72.2053C50.5362 72.2053 51.6303 73.2995 51.6303 74.6492H52.7584C52.7584 72.6765 51.1592 71.0772 49.1864 71.0772V72.2053ZM46.7425 74.6492C46.7425 73.2995 47.8367 72.2053 49.1864 72.2053V71.0772C47.2137 71.0772 45.6144 72.6765 45.6144 74.6492H46.7425ZM49.1864 77.0931C47.8367 77.0931 46.7425 75.999 46.7425 74.6492H45.6144C45.6144 76.622 47.2137 78.2212 49.1864 78.2212V77.0931Z" fill="#0C0C0D" mask="url(#path-6-inside-2_13590_2867)"/>
<circle cx="44.5383" cy="37.46" r="5.18699" fill="#7E7F8B" stroke="#0C0C0D" stroke-width="0.564035"/>
<circle cx="44.5372" cy="49.2183" r="1.35868" fill="#FF9863" stroke="#0C0C0D" stroke-width="0.564035"/>
<circle cx="44.5372" cy="54.9608" r="1.35868" fill="#FF9863" stroke="#0C0C0D" stroke-width="0.564035"/>
<path d="M73.4529 29.9963C73.9541 33.1868 71.5998 36.238 68.15 36.7799C64.7001 37.3217 61.5238 35.1394 61.0226 31.9488C60.5215 28.7583 62.8758 25.7072 66.3256 25.1653C69.7754 24.6234 72.9518 26.8058 73.4529 29.9963Z" fill="#3668DD" stroke="#0C0C0D" stroke-width="0.564035"/>
<circle cx="68.1134" cy="30.9158" r="5.87616" transform="rotate(-8.92691 68.1134 30.9158)" fill="#5080EC" stroke="#0C0C0D" stroke-width="0.564035"/>
<path d="M66.1967 35.111L66.0065 35.2901C65.8585 35.1329 65.8649 34.8924 66.0073 34.741C66.3755 34.3495 66.6607 33.9302 66.8679 33.4988C67.6371 31.8976 67.3525 30.0856 66.1294 28.7973C65.7999 28.4501 65.3999 28.1385 64.9294 27.8787C64.7474 27.7782 64.6676 27.5513 64.7603 27.3563L65.015 27.4773L64.7603 27.3563L64.8634 27.1393M66.1967 35.111L64.8634 27.1393M66.1967 35.111L66.0065 35.2901L66.1712 35.4651M66.1967 35.111L66.1712 35.4651M64.8634 27.1393C64.9549 26.9467 65.1809 26.8604 65.377 26.9406L71.8913 29.6057C72.4511 29.8347 72.5671 30.5731 72.1045 30.9627L66.721 35.4967L66.5393 35.281L66.721 35.4967C66.5589 35.6332 66.3173 35.6203 66.1712 35.4651M64.8634 27.1393L66.1712 35.4651" fill="white" stroke="#0C0C0D" stroke-width="0.564035"/>
<path d="M62.6904 36.8231C62.5138 36.6489 62.2155 36.7224 62.1401 36.9588L61.9252 37.6325C61.9077 37.6874 61.8762 37.7368 61.8339 37.7759L61.333 38.238C61.1405 38.4157 61.2195 38.7359 61.4725 38.8037L62.1308 38.98C62.1864 38.995 62.2372 39.0241 62.2782 39.0645L62.7817 39.5611C62.9584 39.7353 63.2567 39.6618 63.3321 39.4254L63.547 38.7517C63.5645 38.6968 63.5959 38.6474 63.6383 38.6083L64.1391 38.1462C64.3316 37.9685 64.2527 37.6483 63.9997 37.5805L63.3414 37.4042C63.2857 37.3892 63.2349 37.3601 63.1939 37.3197L62.6904 36.8231Z" fill="#3DFED6" stroke="#0C0C0D" stroke-width="0.564035" stroke-linejoin="round"/>
<path d="M74.8375 23.7175C74.6995 23.5114 74.3924 23.5235 74.2711 23.7399L73.9253 24.3568C73.8971 24.407 73.8564 24.4491 73.8071 24.4789L73.2236 24.8311C72.9993 24.9664 73.0124 25.2959 73.2466 25.4132L73.8561 25.7181C73.9076 25.7439 73.9516 25.7826 73.9836 25.8305L74.3771 26.4181C74.5151 26.6242 74.8222 26.6121 74.9435 26.3957L75.2893 25.7788C75.3175 25.7286 75.3582 25.6865 75.4075 25.6567L75.991 25.3045C76.2153 25.1692 76.2022 24.8397 75.968 24.7224L75.3585 24.4175C75.307 24.3917 75.263 24.353 75.231 24.3051L74.8375 23.7175Z" fill="#3DFED6" stroke="#0C0C0D" stroke-width="0.564035" stroke-linejoin="round"/>
<path d="M25.6943 17.5237C25.5789 17.2557 25.1989 17.2557 25.0835 17.5237L24.798 18.1863C24.776 18.2373 24.7416 18.282 24.6979 18.3163L24.0241 18.8452C23.8545 18.9784 23.8545 19.2353 24.0241 19.3684L24.6979 19.8974C24.7416 19.9317 24.776 19.9764 24.798 20.0274L25.0835 20.69C25.1989 20.958 25.5789 20.958 25.6943 20.69L25.9797 20.0274C26.0017 19.9764 26.0361 19.9317 26.0798 19.8974L26.7537 19.3684C26.9233 19.2353 26.9233 18.9784 26.7537 18.8452L26.0798 18.3163C26.0361 18.282 26.0017 18.2373 25.9797 18.1863L25.6943 17.5237Z" fill="#3DFED6" stroke="#0C0C0D" stroke-width="0.564035" stroke-linejoin="round"/>
<path d="M73.7454 33.4402C73.6542 33.2915 73.4381 33.2915 73.3468 33.4402L73.1599 33.7448C73.1387 33.7793 73.1089 33.8077 73.0734 33.8273L72.7795 33.9892C72.6181 34.0781 72.6181 34.31 72.7795 34.3988L73.0734 34.5608C73.1089 34.5803 73.1387 34.6087 73.1599 34.6433L73.3468 34.9478C73.4381 35.0965 73.6542 35.0965 73.7454 34.9478L73.9324 34.6433C73.9536 34.6087 73.9834 34.5803 74.0189 34.5608L74.3128 34.3988C74.4741 34.31 74.4741 34.0781 74.3128 33.9892L74.0189 33.8273C73.9834 33.8077 73.9536 33.7793 73.9324 33.7448L73.7454 33.4402Z" fill="#3DFED6" stroke="#0C0C0D" stroke-width="0.564035" stroke-linejoin="round"/>
</svg>
