<svg width="232" height="209" viewBox="0 0 232 209" fill="none" xmlns="http://www.w3.org/2000/svg">
<mask id="path-1-inside-1_5_7808" fill="white">
<path fill-rule="evenodd" clip-rule="evenodd" d="M137.354 195.846C137.233 195.85 137.112 195.851 136.99 195.851C129.158 195.851 122.809 189.502 122.809 181.67C122.809 173.839 129.158 167.49 136.99 167.49C138.776 167.49 140.485 167.82 142.06 168.423C145.225 163.076 151.052 159.49 157.715 159.49C161.973 159.49 165.889 160.954 168.987 163.406C172.086 160.954 176.002 159.49 180.259 159.49C187.717 159.49 194.126 163.981 196.93 170.405C197.069 170.401 197.209 170.399 197.349 170.399C204.377 170.399 210.075 176.096 210.075 183.125C210.075 190.032 204.573 195.653 197.713 195.846V195.851H137.354V195.846Z"/>
</mask>
<path fill-rule="evenodd" clip-rule="evenodd" d="M137.354 195.846C137.233 195.85 137.112 195.851 136.99 195.851C129.158 195.851 122.809 189.502 122.809 181.67C122.809 173.839 129.158 167.49 136.99 167.49C138.776 167.49 140.485 167.82 142.06 168.423C145.225 163.076 151.052 159.49 157.715 159.49C161.973 159.49 165.889 160.954 168.987 163.406C172.086 160.954 176.002 159.49 180.259 159.49C187.717 159.49 194.126 163.981 196.93 170.405C197.069 170.401 197.209 170.399 197.349 170.399C204.377 170.399 210.075 176.096 210.075 183.125C210.075 190.032 204.573 195.653 197.713 195.846V195.851H137.354V195.846Z" fill="white"/>
<path d="M137.354 195.846L137.316 194.347L138.854 194.308V195.846H137.354ZM142.06 168.423L143.35 169.187L142.706 170.276L141.523 169.824L142.06 168.423ZM168.987 163.406L169.918 164.582L168.987 165.318L168.057 164.582L168.987 163.406ZM196.93 170.405L196.978 171.905L195.962 171.937L195.555 171.005L196.93 170.405ZM197.713 195.846H196.213V194.387L197.671 194.347L197.713 195.846ZM197.713 195.851H199.213V197.351H197.713V195.851ZM137.354 195.851V197.351H135.854V195.851H137.354ZM137.392 197.346C137.258 197.349 137.124 197.351 136.99 197.351V194.351C137.099 194.351 137.208 194.35 137.316 194.347L137.392 197.346ZM136.99 197.351C128.33 197.351 121.309 190.331 121.309 181.67H124.309C124.309 188.674 129.987 194.351 136.99 194.351V197.351ZM121.309 181.67C121.309 173.01 128.33 165.99 136.99 165.99V168.99C129.987 168.99 124.309 174.667 124.309 181.67H121.309ZM136.99 165.99C138.963 165.99 140.853 166.355 142.596 167.022L141.523 169.824C140.118 169.285 138.59 168.99 136.99 168.99V165.99ZM140.769 167.659C144.193 161.874 150.5 157.99 157.715 157.99V160.99C151.603 160.99 146.257 164.277 143.35 169.187L140.769 167.659ZM157.715 157.99C162.323 157.99 166.564 159.576 169.918 162.229L168.057 164.582C165.214 162.333 161.623 160.99 157.715 160.99V157.99ZM168.057 162.229C171.41 159.576 175.652 157.99 180.259 157.99V160.99C176.351 160.99 172.761 162.333 169.918 164.582L168.057 162.229ZM180.259 157.99C188.335 157.99 195.271 162.854 198.305 169.805L195.555 171.005C192.981 165.108 187.099 160.99 180.259 160.99V157.99ZM196.881 168.906C197.037 168.901 197.193 168.899 197.349 168.899V171.899C197.225 171.899 197.101 171.901 196.978 171.905L196.881 168.906ZM197.349 168.899C205.206 168.899 211.575 175.268 211.575 183.125H208.575C208.575 176.925 203.549 171.899 197.349 171.899V168.899ZM211.575 183.125C211.575 190.846 205.425 197.13 197.755 197.345L197.671 194.347C203.722 194.177 208.575 189.217 208.575 183.125H211.575ZM196.213 195.851V195.846H199.213V195.851H196.213ZM137.354 194.351H197.713V197.351H137.354V194.351ZM138.854 195.846V195.851H135.854V195.846H138.854Z" fill="#0C0C0D" mask="url(#path-1-inside-1_5_7808)"/>
<path d="M180.149 191.982L146.06 130.936C143.982 127.215 138.449 127.831 137.241 131.919L126.587 167.977C126.004 169.95 126.74 172.075 128.418 173.266L163.625 198.255C164.439 198.832 165.413 199.143 166.411 199.143L175.947 199.143C179.622 199.143 181.941 195.191 180.149 191.982Z" fill="#D5D6D9" stroke="#0C0C0D" stroke-width="1.5"/>
<path d="M57.3788 191.982L91.468 130.936C93.5462 127.215 99.0793 127.831 100.287 131.919L110.941 167.977C111.524 169.95 110.788 172.075 109.11 173.266L73.9028 198.255C73.0887 198.832 72.1151 199.143 71.1168 199.143L61.5815 199.143C57.9066 199.143 55.587 195.191 57.3788 191.982Z" fill="#D5D6D9" stroke="#0C0C0D" stroke-width="1.5"/>
<path d="M90.1077 95.1898C90.1077 78.8434 96.4808 63.141 107.873 51.4184C113.643 45.4812 123.177 45.4812 128.947 51.4184C140.339 63.141 146.712 78.8434 146.712 95.1898V194.931C146.712 197.435 144.682 199.465 142.178 199.465H94.6416C92.1376 199.465 90.1077 197.435 90.1077 194.931V95.1898Z" fill="#79D4B7" stroke="#0C0C0D" stroke-width="1.5"/>
<mask id="path-6-inside-2_5_7808" fill="white">
<path fill-rule="evenodd" clip-rule="evenodd" d="M92.2665 177.307C92.2665 177.948 92.245 178.584 92.2026 179.214C94.4199 177.778 97.0638 176.944 99.9024 176.944C107.734 176.944 114.083 183.293 114.083 191.125C114.083 198.956 107.734 205.305 99.9024 205.305C99.7807 205.305 99.6593 205.304 99.5383 205.301V205.305H64.361C64.3303 205.305 64.2995 205.305 64.2687 205.305C64.238 205.305 64.2072 205.305 64.1765 205.305H31.9072C21.465 205.305 13 196.84 13 186.397C13 175.955 21.4652 167.49 31.9076 167.49C33.9347 167.49 35.8873 167.809 37.7179 168.399C41.4389 157.304 51.9203 149.31 64.2687 149.31C79.7315 149.31 92.2665 161.845 92.2665 177.307ZM130.808 205.305C135.226 205.305 138.808 201.724 138.808 197.306C138.808 192.888 135.226 189.306 130.808 189.306C126.391 189.306 122.809 192.888 122.809 197.306C122.809 201.724 126.391 205.305 130.808 205.305Z"/>
</mask>
<path fill-rule="evenodd" clip-rule="evenodd" d="M92.2665 177.307C92.2665 177.948 92.245 178.584 92.2026 179.214C94.4199 177.778 97.0638 176.944 99.9024 176.944C107.734 176.944 114.083 183.293 114.083 191.125C114.083 198.956 107.734 205.305 99.9024 205.305C99.7807 205.305 99.6593 205.304 99.5383 205.301V205.305H64.361C64.3303 205.305 64.2995 205.305 64.2687 205.305C64.238 205.305 64.2072 205.305 64.1765 205.305H31.9072C21.465 205.305 13 196.84 13 186.397C13 175.955 21.4652 167.49 31.9076 167.49C33.9347 167.49 35.8873 167.809 37.7179 168.399C41.4389 157.304 51.9203 149.31 64.2687 149.31C79.7315 149.31 92.2665 161.845 92.2665 177.307ZM130.808 205.305C135.226 205.305 138.808 201.724 138.808 197.306C138.808 192.888 135.226 189.306 130.808 189.306C126.391 189.306 122.809 192.888 122.809 197.306C122.809 201.724 126.391 205.305 130.808 205.305Z" fill="white"/>
<path d="M92.2026 179.214L90.706 179.114L90.5051 182.101L93.0182 180.473L92.2026 179.214ZM99.5383 205.301L99.576 203.801L98.0383 203.762V205.301H99.5383ZM99.5383 205.305V206.805H101.038V205.305H99.5383ZM64.361 205.305V203.805L64.3562 203.805L64.361 205.305ZM64.1765 205.305L64.1813 203.805H64.1765V205.305ZM31.9072 205.305L31.9072 206.805H31.9072V205.305ZM37.7179 168.399L37.2574 169.827L38.6685 170.282L39.14 168.876L37.7179 168.399ZM93.6992 179.315C93.7439 178.651 93.7665 177.982 93.7665 177.307H90.7665C90.7665 177.915 90.7461 178.517 90.706 179.114L93.6992 179.315ZM99.9024 175.444C96.7657 175.444 93.8399 176.366 91.3871 177.955L93.0182 180.473C94.9999 179.189 97.3618 178.444 99.9024 178.444V175.444ZM115.583 191.125C115.583 182.464 108.563 175.444 99.9024 175.444V178.444C106.906 178.444 112.583 184.121 112.583 191.125H115.583ZM99.9024 206.805C108.563 206.805 115.583 199.785 115.583 191.125H112.583C112.583 198.128 106.906 203.805 99.9024 203.805V206.805ZM99.5005 206.8C99.634 206.804 99.768 206.805 99.9024 206.805V203.805C99.7933 203.805 99.6845 203.804 99.576 203.801L99.5005 206.8ZM98.0383 205.301V205.305H101.038V205.301H98.0383ZM99.5383 203.805H64.361V206.805H99.5383V203.805ZM64.2687 206.805C64.3011 206.805 64.3335 206.805 64.3658 206.805L64.3562 203.805C64.327 203.805 64.2979 203.805 64.2687 203.805V206.805ZM64.1716 206.805C64.204 206.805 64.2364 206.805 64.2687 206.805V203.805C64.2396 203.805 64.2104 203.805 64.1813 203.805L64.1716 206.805ZM64.1765 203.805H31.9072V206.805H64.1765V203.805ZM11.5 186.397C11.5 197.668 20.6366 206.805 31.9072 206.805L31.9073 203.805C22.2935 203.805 14.5 196.011 14.5 186.397H11.5ZM31.9076 165.99C20.6368 165.99 11.5 175.127 11.5 186.397H14.5C14.5 176.783 22.2936 168.99 31.9076 168.99V165.99ZM38.1784 166.972C36.2008 166.334 34.0929 165.99 31.9076 165.99V168.99C33.7765 168.99 35.5737 169.284 37.2574 169.827L38.1784 166.972ZM64.2687 147.81C51.2564 147.81 40.2156 156.234 36.2957 167.922L39.14 168.876C42.6623 158.374 52.5842 150.81 64.2687 150.81V147.81ZM93.7665 177.307C93.7665 161.016 80.5599 147.81 64.2687 147.81V150.81C78.9031 150.81 90.7665 162.673 90.7665 177.307H93.7665ZM137.308 197.306C137.308 200.895 134.398 203.805 130.808 203.805V206.805C136.055 206.805 140.308 202.552 140.308 197.306H137.308ZM130.808 190.806C134.398 190.806 137.308 193.716 137.308 197.306H140.308C140.308 192.059 136.055 187.806 130.808 187.806V190.806ZM124.309 197.306C124.309 193.716 127.219 190.806 130.808 190.806V187.806C125.562 187.806 121.309 192.059 121.309 197.306H124.309ZM130.808 203.805C127.219 203.805 124.309 200.895 124.309 197.306H121.309C121.309 202.552 125.562 206.805 130.808 206.805V203.805Z" fill="#0C0C0D" mask="url(#path-6-inside-2_5_7808)"/>
<circle cx="118.446" cy="98.4044" r="13.7943" fill="#7E7F8B" stroke="#0C0C0D" stroke-width="1.5"/>
<circle cx="118.446" cy="129.675" r="3.61329" fill="#FF9863" stroke="#0C0C0D" stroke-width="1.5"/>
<circle cx="118.446" cy="144.946" r="3.61329" fill="#FF9863" stroke="#0C0C0D" stroke-width="1.5"/>
<path d="M195.341 78.5556C196.674 87.0405 190.413 95.1546 181.238 96.5957C172.064 98.0369 163.616 92.233 162.284 83.7481C160.951 75.2632 167.212 67.1491 176.386 65.708C185.561 64.2668 194.008 70.0707 195.341 78.5556Z" fill="#3668DD" stroke="#0C0C0D" stroke-width="1.5"/>
<circle cx="181.14" cy="81.0005" r="15.6271" transform="rotate(-8.92691 181.14 81.0005)" fill="#5080EC" stroke="#0C0C0D" stroke-width="1.5"/>
<path d="M172.223 71.5349L172.901 71.8568L172.223 71.5349C171.977 72.0535 172.189 72.6571 172.673 72.9243C173.924 73.6152 174.988 74.4439 175.865 75.3671C179.117 78.7931 179.874 83.612 177.829 87.8702C177.277 89.0176 176.519 90.1327 175.54 91.1739C175.161 91.5766 175.144 92.2162 175.538 92.6342L175.976 93.0995C176.364 93.5123 177.007 93.5465 177.438 93.1835L191.755 81.1259C192.985 80.0898 192.676 78.1261 191.188 77.5171L173.864 70.4295C173.342 70.2162 172.741 70.4456 172.498 70.9577L172.223 71.5349Z" fill="white" stroke="#0C0C0D" stroke-width="1.5"/>
<path d="M166.717 96.7107C166.247 96.2474 165.454 96.443 165.254 97.0716L164.682 98.8633C164.635 99.0093 164.552 99.1406 164.439 99.2445L163.107 100.474C162.595 100.946 162.805 101.798 163.478 101.978L165.229 102.447C165.377 102.487 165.512 102.564 165.621 102.672L166.96 103.992C167.43 104.456 168.223 104.26 168.424 103.631L168.995 101.84C169.042 101.694 169.125 101.562 169.238 101.458L170.57 100.229C171.082 99.7568 170.872 98.9054 170.199 98.7251L168.448 98.256C168.3 98.2164 168.165 98.139 168.056 98.0314L166.717 96.7107Z" fill="#3DFED6" stroke="#0C0C0D" stroke-width="1.5" stroke-linejoin="round"/>
<path d="M199.022 61.8571C198.655 61.3089 197.839 61.3412 197.516 61.9168L196.596 63.5572C196.521 63.6908 196.413 63.8027 196.282 63.8819L194.73 64.8185C194.134 65.1785 194.168 66.0548 194.791 66.3666L196.412 67.1776C196.549 67.2462 196.666 67.3492 196.751 67.4764L197.798 69.0391C198.165 69.5873 198.981 69.555 199.304 68.9795L200.224 67.339C200.299 67.2054 200.407 67.0935 200.538 67.0144L202.09 66.0777C202.686 65.7177 202.652 64.8415 202.029 64.5297L200.408 63.7186C200.271 63.65 200.154 63.5471 200.069 63.4198L199.022 61.8571Z" fill="#3DFED6" stroke="#0C0C0D" stroke-width="1.5" stroke-linejoin="round"/>
<path d="M68.328 45.3854C68.021 44.6728 67.0105 44.6728 66.7035 45.3854L65.9444 47.1476C65.8859 47.2832 65.7944 47.4021 65.6782 47.4933L63.8862 48.9C63.4351 49.2541 63.4351 49.9373 63.8862 50.2914L65.6782 51.698C65.7944 51.7893 65.8859 51.9081 65.9444 52.0438L66.7035 53.8059C67.0105 54.5186 68.021 54.5186 68.328 53.8059L69.0871 52.0438C69.1455 51.9081 69.237 51.7893 69.3532 51.698L71.1453 50.2914C71.5963 49.9373 71.5963 49.2541 71.1453 48.9L69.3532 47.4933C69.237 47.4021 69.1455 47.2832 69.0871 47.1476L68.328 45.3854Z" fill="#3DFED6" stroke="#0C0C0D" stroke-width="1.5" stroke-linejoin="round"/>
<path d="M196.116 87.7141C195.874 87.3187 195.299 87.3187 195.056 87.7141L194.559 88.5241C194.503 88.6159 194.423 88.6915 194.329 88.7435L193.548 89.1741C193.118 89.4105 193.118 90.0272 193.548 90.2636L194.329 90.6942C194.423 90.7461 194.503 90.8217 194.559 90.9136L195.056 91.7236C195.299 92.119 195.874 92.119 196.116 91.7236L196.614 90.9136C196.67 90.8217 196.749 90.7461 196.843 90.6942L197.625 90.2636C198.054 90.0272 198.054 89.4105 197.625 89.1741L196.843 88.7435C196.749 88.6915 196.67 88.6159 196.614 88.5241L196.116 87.7141Z" fill="#3DFED6" stroke="#0C0C0D" stroke-width="1.5" stroke-linejoin="round"/>
</svg>
