<svg width="100" height="100" viewBox="0 0 100 100" fill="none" xmlns="http://www.w3.org/2000/svg">
<circle cx="48" cy="48" r="40" fill="white"/>
<path d="M20.355 13.625L21.1779 14.1896L20.355 13.625L21.5483 11.8857C22.1616 10.9916 23.3679 10.7372 24.2917 11.2939L77.2974 43.2375C80.9009 45.4091 80.9009 50.5909 77.2974 52.7625L24.2917 84.7061C23.3679 85.2628 22.1616 85.0084 21.5483 84.1144L20.355 82.375L21.1796 81.8093L20.355 82.375C19.7347 81.4709 19.9539 80.2639 20.7979 79.6111C24.6499 76.6314 27.8087 73.2787 30.2891 69.6957C39.5123 56.372 39.5123 39.628 30.2891 26.3043C27.8087 22.7213 24.6499 19.3686 20.7979 16.3889C19.9539 15.7361 19.7347 14.5291 20.355 13.625Z" fill="#457EFF" stroke="#0E0E0E" stroke-width="2"/>
</svg>
