<svg width="341" height="158" viewBox="0 0 341 158" fill="none" xmlns="http://www.w3.org/2000/svg">
<g opacity="0.2">
<mask id="path-1-inside-1_13378_16535" fill="white">
<path fill-rule="evenodd" clip-rule="evenodd" d="M-6.41233e-07 197.538C-2.8709e-07 205.64 6.56785 212.208 14.6697 212.208L65.8161 212.208C73.918 212.208 80.4858 205.64 80.4858 197.538L80.4858 148.766C80.4858 147.657 81.4708 146.813 82.5796 146.813L133.726 146.813C141.828 146.813 148.396 140.245 148.396 132.144L148.396 80.9971C148.396 72.8953 141.828 66.3274 133.726 66.3274L82.5796 66.3274C74.4777 66.3274 67.9099 72.8953 67.9099 80.9971L67.9099 129.77C67.9099 130.878 66.9249 131.722 65.8161 131.722L14.6697 131.722C6.56785 131.722 -3.23106e-06 138.29 -2.87691e-06 146.392L-6.41233e-07 197.538Z"/>
</mask>
<path d="M14.6697 212.208L14.6697 210.596L14.6697 212.208ZM65.8161 212.208L65.8161 213.82L65.8161 212.208ZM133.726 146.813L133.726 145.201L133.726 146.813ZM14.6697 131.722L14.6697 130.11L14.6697 131.722ZM14.6697 210.596C7.45819 210.596 1.6121 204.75 1.6121 197.538L-1.6121 197.538C-1.6121 206.53 5.67751 213.82 14.6697 213.82L14.6697 210.596ZM65.8161 210.596L14.6697 210.596L14.6697 213.82L65.8161 213.82L65.8161 210.596ZM78.8737 197.538C78.8737 204.75 73.0276 210.596 65.8161 210.596L65.8161 213.82C74.8083 213.82 82.0979 206.53 82.0979 197.538L78.8737 197.538ZM78.8737 148.766L78.8737 197.538L82.0979 197.538L82.0979 148.766L78.8737 148.766ZM133.726 145.201L82.5796 145.201L82.5796 148.425L133.726 148.425L133.726 145.201ZM146.784 132.144C146.784 139.355 140.938 145.201 133.726 145.201L133.726 148.425C142.718 148.425 150.008 141.136 150.008 132.144L146.784 132.144ZM146.784 80.9971L146.784 132.144L150.008 132.144L150.008 80.9971L146.784 80.9971ZM133.726 67.9395C140.938 67.9395 146.784 73.7856 146.784 80.9971L150.008 80.9971C150.008 72.0049 142.718 64.7153 133.726 64.7153L133.726 67.9395ZM82.5796 67.9395L133.726 67.9395L133.726 64.7153L82.5796 64.7153L82.5796 67.9395ZM69.522 80.9971C69.522 73.7856 75.3681 67.9395 82.5796 67.9395L82.5796 64.7153C73.5874 64.7153 66.2978 72.0049 66.2978 80.9971L69.522 80.9971ZM69.522 129.77L69.522 80.9971L66.2978 80.9971L66.2978 129.77L69.522 129.77ZM14.6697 133.334L65.8161 133.334L65.8161 130.11L14.6697 130.11L14.6697 133.334ZM1.6121 146.392C1.6121 139.18 7.45819 133.334 14.6697 133.334L14.6697 130.11C5.67751 130.11 -1.61211 137.4 -1.61211 146.392L1.6121 146.392ZM1.6121 197.538L1.6121 146.392L-1.61211 146.392L-1.6121 197.538L1.6121 197.538ZM66.2978 129.77C66.2978 129.824 66.2787 129.892 66.1949 129.968C66.1037 130.051 65.9656 130.11 65.8161 130.11L65.8161 133.334C67.6657 133.334 69.522 131.911 69.522 129.77L66.2978 129.77ZM82.0979 148.766C82.0979 148.711 82.117 148.643 82.2008 148.567C82.292 148.484 82.4301 148.425 82.5796 148.425L82.5796 145.201C80.73 145.201 78.8737 146.624 78.8737 148.766L82.0979 148.766Z" fill="url(#paint0_linear_13378_16535)" mask="url(#path-1-inside-1_13378_16535)"/>
<mask id="path-3-inside-2_13378_16535" fill="white">
<path fill-rule="evenodd" clip-rule="evenodd" d="M163.4 131.85C163.4 139.952 169.968 146.52 178.07 146.52L229.217 146.52C237.318 146.52 243.886 139.952 243.886 131.85L243.886 83.0773C243.886 81.9685 244.871 81.1248 245.98 81.1248L297.126 81.1248C305.228 81.1248 311.796 74.5569 311.796 66.4551L311.796 15.3086C311.796 7.2068 305.228 0.63894 297.126 0.638941L245.98 0.638943C237.878 0.638943 231.31 7.2068 231.31 15.3087L231.31 64.0812C231.31 65.19 230.325 66.0337 229.217 66.0337L178.07 66.0337C169.968 66.0337 163.4 72.6015 163.4 80.7034L163.4 131.85Z"/>
</mask>
<path d="M178.07 66.0337L178.07 64.4216L178.07 66.0337ZM178.07 144.907C170.859 144.907 165.012 139.061 165.012 131.85L161.788 131.85C161.788 140.842 169.078 148.132 178.07 148.132L178.07 144.907ZM229.217 144.907L178.07 144.907L178.07 148.132L229.217 148.132L229.217 144.907ZM242.274 131.85C242.274 139.061 236.428 144.907 229.217 144.907L229.217 148.132C238.209 148.132 245.498 140.842 245.498 131.85L242.274 131.85ZM242.274 83.0773L242.274 131.85L245.498 131.85L245.498 83.0773L242.274 83.0773ZM297.126 79.5127L245.98 79.5127L245.98 82.7369L297.126 82.7369L297.126 79.5127ZM310.184 66.4551C310.184 73.6666 304.338 79.5127 297.126 79.5127L297.126 82.7369C306.119 82.7369 313.408 75.4473 313.408 66.4551L310.184 66.4551ZM310.184 15.3086L310.184 66.4551L313.408 66.4551L313.408 15.3086L310.184 15.3086ZM297.126 2.25105C304.338 2.25105 310.184 8.09713 310.184 15.3086L313.408 15.3086C313.408 6.31646 306.119 -0.973166 297.126 -0.973166L297.126 2.25105ZM245.98 2.25105L297.126 2.25105L297.126 -0.973166L245.98 -0.973163L245.98 2.25105ZM232.922 15.3087C232.922 8.09713 238.768 2.25105 245.98 2.25105L245.98 -0.973163C236.988 -0.973163 229.698 6.31646 229.698 15.3087L232.922 15.3087ZM232.922 64.0812L232.922 15.3087L229.698 15.3087L229.698 64.0812L232.922 64.0812ZM178.07 67.6458L229.217 67.6458L229.217 64.4216L178.07 64.4216L178.07 67.6458ZM165.012 80.7034C165.012 73.4919 170.859 67.6458 178.07 67.6458L178.07 64.4216C169.078 64.4216 161.788 71.7112 161.788 80.7034L165.012 80.7034ZM165.012 131.85L165.012 80.7034L161.788 80.7034L161.788 131.85L165.012 131.85ZM229.698 64.0812C229.698 64.1354 229.679 64.2038 229.595 64.2799C229.504 64.3627 229.366 64.4216 229.217 64.4216L229.217 67.6458C231.066 67.6458 232.922 66.2228 232.922 64.0812L229.698 64.0812ZM245.498 83.0773C245.498 83.023 245.517 82.9547 245.601 82.8786C245.692 82.7958 245.83 82.7369 245.98 82.7369L245.98 79.5127C244.13 79.5127 242.274 80.9357 242.274 83.0773L245.498 83.0773Z" fill="url(#paint1_linear_13378_16535)" mask="url(#path-3-inside-2_13378_16535)"/>
<mask id="path-5-inside-3_13378_16535" fill="white">
<path fill-rule="evenodd" clip-rule="evenodd" d="M192.321 233.282C192.321 241.384 198.889 247.952 206.991 247.952L258.137 247.952C266.239 247.952 272.807 241.384 272.807 233.282L272.807 184.51C272.807 183.401 273.792 182.557 274.901 182.557L326.047 182.557C334.149 182.557 340.717 175.99 340.717 167.888L340.717 116.741C340.717 108.639 334.149 102.072 326.047 102.072L274.901 102.072C266.799 102.072 260.231 108.639 260.231 116.741L260.231 165.514C260.231 166.623 259.246 167.466 258.137 167.466L206.991 167.466C198.889 167.466 192.321 174.034 192.321 182.136L192.321 233.282Z"/>
</mask>
<path d="M340.717 167.888L342.329 167.888L340.717 167.888ZM340.717 116.741L339.105 116.741L340.717 116.741ZM206.991 246.34C199.779 246.34 193.933 240.494 193.933 233.282L190.709 233.282C190.709 242.275 197.999 249.564 206.991 249.564L206.991 246.34ZM258.137 246.34L206.991 246.34L206.991 249.564L258.137 249.564L258.137 246.34ZM271.195 233.282C271.195 240.494 265.349 246.34 258.137 246.34L258.137 249.564C267.13 249.564 274.419 242.275 274.419 233.282L271.195 233.282ZM271.195 184.51L271.195 233.282L274.419 233.282L274.419 184.51L271.195 184.51ZM326.047 180.945L274.901 180.945L274.901 184.17L326.047 184.17L326.047 180.945ZM339.105 167.888C339.105 175.099 333.259 180.945 326.047 180.945L326.047 184.17C335.039 184.169 342.329 176.88 342.329 167.888L339.105 167.888ZM339.105 116.741L339.105 167.888L342.329 167.888L342.329 116.741L339.105 116.741ZM326.047 103.684C333.259 103.684 339.105 109.53 339.105 116.741L342.329 116.741C342.329 107.749 335.039 100.459 326.047 100.459L326.047 103.684ZM274.901 103.684L326.047 103.684L326.047 100.459L274.901 100.459L274.901 103.684ZM261.843 116.741C261.843 109.53 267.689 103.684 274.901 103.684L274.901 100.459C265.909 100.459 258.619 107.749 258.619 116.741L261.843 116.741ZM261.843 165.514L261.843 116.741L258.619 116.741L258.619 165.514L261.843 165.514ZM206.991 169.078L258.137 169.078L258.137 165.854L206.991 165.854L206.991 169.078ZM193.933 182.136C193.933 174.924 199.779 169.078 206.991 169.078L206.991 165.854C197.999 165.854 190.709 173.144 190.709 182.136L193.933 182.136ZM193.933 233.282L193.933 182.136L190.709 182.136L190.709 233.282L193.933 233.282ZM258.619 165.514C258.619 165.568 258.6 165.636 258.516 165.712C258.425 165.795 258.287 165.854 258.137 165.854L258.137 169.078C259.987 169.078 261.843 167.655 261.843 165.514L258.619 165.514ZM274.419 184.51C274.419 184.456 274.438 184.387 274.522 184.311C274.613 184.228 274.751 184.17 274.901 184.17L274.901 180.945C273.051 180.945 271.195 182.368 271.195 184.51L274.419 184.51Z" fill="url(#paint2_linear_13378_16535)" mask="url(#path-5-inside-3_13378_16535)"/>
</g>
<defs>
<linearGradient id="paint0_linear_13378_16535" x1="-3.18832e-06" y1="139.268" x2="148.396" y2="139.268" gradientUnits="userSpaceOnUse">
<stop stop-color="white"/>
<stop offset="1" stop-color="white" stop-opacity="0.1"/>
</linearGradient>
<linearGradient id="paint1_linear_13378_16535" x1="163.4" y1="73.5792" x2="311.796" y2="73.5792" gradientUnits="userSpaceOnUse">
<stop stop-color="white"/>
<stop offset="1" stop-color="white" stop-opacity="0.1"/>
</linearGradient>
<linearGradient id="paint2_linear_13378_16535" x1="192.321" y1="175.012" x2="340.717" y2="175.012" gradientUnits="userSpaceOnUse">
<stop stop-color="white"/>
<stop offset="1" stop-color="white" stop-opacity="0.1"/>
</linearGradient>
</defs>
</svg>
