<svg width="1440" height="688" viewBox="0 0 1440 688" fill="none" xmlns="http://www.w3.org/2000/svg">
<g clip-path="url(#clip0_13784_2889)">
<rect width="1440" height="688" fill="white"/>
<g opacity="0.2">
<mask id="mask0_13784_2889" style="mask-type:alpha" maskUnits="userSpaceOnUse" x="-855" y="-353" width="3214" height="2378">
<rect x="2358.15" y="661.605" width="1455.71" height="2884.61" transform="rotate(110.593 2358.15 661.605)" fill="url(#paint0_linear_13784_2889)"/>
</mask>
<g mask="url(#mask0_13784_2889)">
<g filter="url(#filter0_f_13784_2889)">
<path d="M1853.39 946.735C1792.37 495.453 1295.3 248.059 898.476 471.464L863.851 490.957C732.068 565.149 576.406 584.576 430.431 545.048L408.428 539.09C301.879 510.239 207.618 447.485 139.895 360.314C-139.916 0.151861 -716.058 166.722 -760.509 620.632L-805.285 1077.85C-849.363 1527.95 -372.195 1844.15 25.1321 1628.14C193.309 1536.71 396.241 1536.21 564.875 1626.79L940.446 1828.54C1404.13 2077.62 1954.71 1695.96 1884.18 1174.36L1853.39 946.735Z" stroke="#3568DD" stroke-width="3.83082"/>
</g>
<g filter="url(#filter1_f_13784_2889)">
<path d="M1763.9 1006.53C1702.98 554.958 1205.49 307.461 808.575 531.272L775.012 550.197C643.348 624.439 487.76 643.892 341.871 604.351L320.019 598.428C213.496 569.557 119.28 506.767 51.6327 419.564C-227.757 59.4066 -803.701 225.694 -848.127 679.344L-893.135 1138.93C-937.177 1588.66 -460.236 1904.48 -63.3784 1688.38C104.747 1596.83 307.719 1596.31 476.315 1686.99L850.604 1888.3C1314.21 2137.64 1865.03 1756.16 1794.65 1234.48L1763.9 1006.53Z" stroke="#3568DD" stroke-width="3.83082"/>
</g>
<g filter="url(#filter2_f_13784_2889)">
<path d="M1675.67 1064.02C1614.65 612.731 1117.57 365.335 720.743 588.753L685.527 608.58C553.653 682.827 397.881 702.269 251.803 662.712L229.789 656.751C123.164 627.878 28.837 565.078 -38.9327 477.843C-318.933 117.42 -895.487 284.102 -939.97 738.334L-984.786 1195.96C-1028.89 1646.37 -551.387 1962.79 -153.787 1746.62C14.5101 1655.12 217.59 1654.61 386.343 1745.27L762.954 1947.58C1226.63 2196.67 1777.23 1815.02 1706.69 1293.42L1675.67 1064.02Z" stroke="#3568DD" stroke-width="3.83082"/>
</g>
<g filter="url(#filter3_f_13784_2889)">
<path d="M1584.21 1126.25C1523.35 674.521 1025.63 426.971 628.675 650.991L595.346 669.799C463.698 744.094 308.09 763.567 162.194 724.004L140.411 718.097C33.8641 689.206 -60.363 626.375 -127.996 539.124C-407.27 178.839 -983.321 345.041 -1027.75 798.721L-1072.89 1259.69C-1116.93 1709.4 -639.936 2025.14 -243.177 1808.91C-75.0168 1717.27 128.048 1716.74 296.686 1807.5L670.852 2008.87C1134.41 2258.35 1685.36 1876.96 1615.07 1355.24L1584.21 1126.25Z" stroke="#3568DD" stroke-width="3.83082"/>
</g>
<g filter="url(#filter4_f_13784_2889)">
<path d="M1494.53 1184.64C1433.67 732.913 935.948 485.362 538.989 709.382L505.661 728.191C374.012 802.486 218.405 821.958 72.508 782.396L50.725 776.489C-55.8215 747.597 -150.049 684.766 -217.681 597.515C-496.956 237.23 -1073.01 403.433 -1117.44 857.113L-1162.58 1318.09C-1206.62 1767.79 -729.622 2083.53 -332.862 1867.31C-164.702 1775.66 38.3622 1775.13 207.001 1865.89L581.166 2067.26C1044.73 2316.74 1595.67 1935.35 1525.38 1413.63L1494.53 1184.64Z" stroke="#3568DD" stroke-width="3.83082"/>
</g>
<g filter="url(#filter5_f_13784_2889)">
<path d="M1406.01 1245.43C1344.98 794.139 847.905 546.743 451.077 770.161L415.861 789.988C283.987 864.235 128.215 883.676 -17.863 844.12L-39.8766 838.159C-146.502 809.286 -240.829 746.486 -308.599 659.251C-588.599 298.828 -1165.15 465.51 -1209.64 919.741L-1254.45 1377.37C-1298.56 1827.78 -821.053 2144.2 -423.453 1928.03C-255.156 1836.53 -52.0762 1836.02 116.677 1926.68L493.288 2128.99C956.967 2378.08 1507.56 1996.43 1437.03 1474.83L1406.01 1245.43Z" stroke="#3568DD" stroke-width="3.83082"/>
</g>
<g filter="url(#filter6_f_13784_2889)">
<path d="M1314.87 1304.72C1253.95 853.149 756.453 605.652 359.54 829.463L325.976 848.388C194.313 922.63 38.7245 942.083 -107.164 902.542L-129.017 896.619C-235.539 867.748 -329.755 804.958 -397.402 717.755C-676.792 357.597 -1252.74 523.885 -1297.16 977.535L-1342.17 1437.12C-1386.21 1886.85 -909.271 2202.67 -512.414 1986.57C-344.288 1895.03 -141.317 1894.5 27.2802 1985.18L401.569 2186.49C865.172 2435.83 1415.99 2054.35 1345.62 1532.68L1314.87 1304.72Z" stroke="#3568DD" stroke-width="3.83082"/>
</g>
<g filter="url(#filter7_f_13784_2889)">
<path d="M1226.86 1363.99C1165.83 912.709 668.769 665.315 271.944 888.721L237.32 908.214C105.537 982.405 -50.1257 1001.83 -196.101 962.305L-218.103 956.347C-324.653 927.495 -418.913 864.741 -486.637 777.57C-766.448 417.408 -1342.59 583.978 -1387.04 1037.89L-1431.82 1495.11C-1475.89 1945.2 -998.726 2261.41 -601.399 2045.4C-433.222 1953.97 -230.29 1953.46 -61.6564 2044.05L313.915 2245.8C777.596 2494.88 1328.18 2113.22 1257.65 1591.62L1226.86 1363.99Z" stroke="#3568DD" stroke-width="3.83082"/>
</g>
</g>
</g>
<g opacity="0.5" clip-path="url(#clip1_13784_2889)">
<path fill-rule="evenodd" clip-rule="evenodd" d="M48.87 348.436C50.9403 360.408 62.3244 368.436 74.297 366.365L129.478 356.823C141.451 354.753 149.478 343.369 147.407 331.396L137.743 275.506C135.672 263.533 124.288 255.507 112.316 257.577L57.1345 267.119C45.1619 269.19 33.7778 261.162 31.7075 249.19L22.2876 194.717C20.2173 182.745 8.83292 174.718 -3.13939 176.788L-58.3204 186.33C-70.2927 188.401 -78.3202 199.785 -76.2499 211.757L-66.5848 267.648C-64.5145 279.62 -53.1302 287.647 -41.1579 285.577L14.0231 276.034C25.9955 273.964 37.3798 281.991 39.4502 293.964L48.87 348.436Z" fill="url(#paint1_linear_13784_2889)"/>
</g>
<g opacity="0.5" clip-path="url(#clip2_13784_2889)">
<path fill-rule="evenodd" clip-rule="evenodd" d="M1409.69 345.908C1408.14 354.923 1399.56 360.968 1390.55 359.409L1349 352.223C1339.98 350.664 1333.94 342.092 1335.49 333.076L1342.77 290.99C1344.33 281.975 1352.9 275.931 1361.92 277.49L1403.47 284.675C1412.49 286.234 1421.06 280.189 1422.62 271.174L1429.71 230.155C1431.27 221.14 1439.84 215.095 1448.86 216.654L1490.41 223.84C1499.43 225.399 1505.47 233.971 1503.91 242.987L1496.63 285.073C1495.08 294.088 1486.5 300.133 1477.49 298.574L1435.94 291.388C1426.92 289.829 1418.35 295.874 1416.79 304.889L1409.69 345.908Z" fill="url(#paint2_linear_13784_2889)"/>
</g>
</g>
<defs>
<filter id="filter0_f_13784_2889" x="-819.621" y="153.225" width="2721.44" height="1764.88" filterUnits="userSpaceOnUse" color-interpolation-filters="sRGB">
<feFlood flood-opacity="0" result="BackgroundImageFix"/>
<feBlend mode="normal" in="SourceGraphic" in2="BackgroundImageFix" result="shape"/>
<feGaussianBlur stdDeviation="4.78853" result="effect1_foregroundBlur_13784_2889"/>
</filter>
<filter id="filter1_f_13784_2889" x="-907.468" y="212.376" width="2719.73" height="1765.64" filterUnits="userSpaceOnUse" color-interpolation-filters="sRGB">
<feFlood flood-opacity="0" result="BackgroundImageFix"/>
<feBlend mode="normal" in="SourceGraphic" in2="BackgroundImageFix" result="shape"/>
<feGaussianBlur stdDeviation="4.78853" result="effect1_foregroundBlur_13784_2889"/>
</filter>
<filter id="filter2_f_13784_2889" x="-999.123" y="270.609" width="2723.45" height="1766.54" filterUnits="userSpaceOnUse" color-interpolation-filters="sRGB">
<feFlood flood-opacity="0" result="BackgroundImageFix"/>
<feBlend mode="normal" in="SourceGraphic" in2="BackgroundImageFix" result="shape"/>
<feGaussianBlur stdDeviation="4.78853" result="effect1_foregroundBlur_13784_2889"/>
</filter>
<filter id="filter3_f_13784_2889" x="-1087.23" y="331.815" width="2719.89" height="1766.85" filterUnits="userSpaceOnUse" color-interpolation-filters="sRGB">
<feFlood flood-opacity="0" result="BackgroundImageFix"/>
<feBlend mode="normal" in="SourceGraphic" in2="BackgroundImageFix" result="shape"/>
<feGaussianBlur stdDeviation="4.78853" result="effect1_foregroundBlur_13784_2889"/>
</filter>
<filter id="filter4_f_13784_2889" x="-1176.91" y="390.206" width="2719.89" height="1766.85" filterUnits="userSpaceOnUse" color-interpolation-filters="sRGB">
<feFlood flood-opacity="0" result="BackgroundImageFix"/>
<feBlend mode="normal" in="SourceGraphic" in2="BackgroundImageFix" result="shape"/>
<feGaussianBlur stdDeviation="4.78853" result="effect1_foregroundBlur_13784_2889"/>
</filter>
<filter id="filter5_f_13784_2889" x="-1268.79" y="452.017" width="2723.45" height="1766.54" filterUnits="userSpaceOnUse" color-interpolation-filters="sRGB">
<feFlood flood-opacity="0" result="BackgroundImageFix"/>
<feBlend mode="normal" in="SourceGraphic" in2="BackgroundImageFix" result="shape"/>
<feGaussianBlur stdDeviation="4.78853" result="effect1_foregroundBlur_13784_2889"/>
</filter>
<filter id="filter6_f_13784_2889" x="-1356.5" y="510.567" width="2719.73" height="1765.64" filterUnits="userSpaceOnUse" color-interpolation-filters="sRGB">
<feFlood flood-opacity="0" result="BackgroundImageFix"/>
<feBlend mode="normal" in="SourceGraphic" in2="BackgroundImageFix" result="shape"/>
<feGaussianBlur stdDeviation="4.78853" result="effect1_foregroundBlur_13784_2889"/>
</filter>
<filter id="filter7_f_13784_2889" x="-1446.15" y="570.482" width="2721.44" height="1764.88" filterUnits="userSpaceOnUse" color-interpolation-filters="sRGB">
<feFlood flood-opacity="0" result="BackgroundImageFix"/>
<feBlend mode="normal" in="SourceGraphic" in2="BackgroundImageFix" result="shape"/>
<feGaussianBlur stdDeviation="4.78853" result="effect1_foregroundBlur_13784_2889"/>
</filter>
<linearGradient id="paint0_linear_13784_2889" x1="3246.37" y1="573.273" x2="2010.23" y2="3693.7" gradientUnits="userSpaceOnUse">
<stop offset="0.17931" stop-color="#C8C0C0" stop-opacity="0"/>
<stop offset="0.387331" stop-color="#C8C0C0" stop-opacity="0.882841"/>
<stop offset="0.597553" stop-color="#D9D9D9"/>
<stop offset="0.754663" stop-color="#440606" stop-opacity="0"/>
</linearGradient>
<linearGradient id="paint1_linear_13784_2889" x1="151.156" y1="353.074" x2="-21.9005" y2="303.753" gradientUnits="userSpaceOnUse">
<stop stop-color="#EDF3FF"/>
<stop offset="1" stop-color="#A4BBF0"/>
</linearGradient>
<linearGradient id="paint2_linear_13784_2889" x1="1332.67" y1="349.4" x2="1462.99" y2="312.261" gradientUnits="userSpaceOnUse">
<stop stop-color="#EDF3FF"/>
<stop offset="1" stop-color="#A4BBF0"/>
</linearGradient>
<clipPath id="clip0_13784_2889">
<rect width="1440" height="688" fill="white"/>
</clipPath>
<clipPath id="clip1_13784_2889">
<rect width="200" height="200" fill="white" transform="translate(151.156 353.074) rotate(170.189)"/>
</clipPath>
<clipPath id="clip2_13784_2889">
<rect width="150.603" height="150.603" fill="white" transform="matrix(0.985375 0.170399 0.170399 -0.985375 1332.67 349.4)"/>
</clipPath>
</defs>
</svg>
