<svg width="364" height="363" viewBox="0 0 364 363" fill="none" xmlns="http://www.w3.org/2000/svg">
<g clip-path="url(#clip0_7415_5749)">
<circle cx="250.041" cy="251.041" r="20.9493" transform="rotate(-45 250.041 251.041)" fill="#C2C5CC" stroke="#191919" stroke-width="2"/>
<circle cx="183.5" cy="32.5" r="26.5" fill="#FF5E0D" stroke="#191919" stroke-width="2"/>
<mask id="path-4-inside-1_7415_5749" fill="white">
<path d="M228.257 352.267C190.665 362.339 150.8 359.726 114.845 344.833C78.8901 329.94 48.8539 303.599 29.3952 269.895C9.93633 236.192 2.14242 197.009 7.22218 158.425C12.3019 119.84 29.9715 84.0096 57.4904 56.4907L126.477 125.477C114.144 137.81 106.225 153.867 103.949 171.159C101.672 188.451 105.165 206.01 113.886 221.115C122.606 236.219 136.067 248.024 152.18 254.698C168.294 261.373 186.159 262.544 203.006 258.03L228.257 352.267Z"/>
</mask>
<path d="M228.257 352.267C190.665 362.339 150.8 359.726 114.845 344.833C78.8901 329.94 48.8539 303.599 29.3952 269.895C9.93633 236.192 2.14242 197.009 7.22218 158.425C12.3019 119.84 29.9715 84.0096 57.4904 56.4907L126.477 125.477C114.144 137.81 106.225 153.867 103.949 171.159C101.672 188.451 105.165 206.01 113.886 221.115C122.606 236.219 136.067 248.024 152.18 254.698C168.294 261.373 186.159 262.544 203.006 258.03L228.257 352.267Z" fill="#B49BF9" stroke="#191919" stroke-width="4" mask="url(#path-4-inside-1_7415_5749)"/>
<mask id="path-5-inside-2_7415_5749" fill="white">
<path d="M29.3966 93.105C49.7484 57.8547 81.6404 30.7068 119.688 16.245C157.736 1.78305 199.609 0.893074 238.236 13.7253L231.594 33.7208C197.57 22.418 160.688 23.2019 127.174 35.9402C93.6611 48.6785 65.57 72.5909 47.6438 103.64L29.3966 93.105Z"/>
</mask>
<path d="M29.3966 93.105C49.7484 57.8547 81.6404 30.7068 119.688 16.245C157.736 1.78305 199.609 0.893074 238.236 13.7253L231.594 33.7208C197.57 22.418 160.688 23.2019 127.174 35.9402C93.6611 48.6785 65.57 72.5909 47.6438 103.64L29.3966 93.105Z" fill="#393B40" stroke="#191919" stroke-width="4" mask="url(#path-5-inside-2_7415_5749)"/>
<mask id="path-6-inside-3_7415_5749" fill="white">
<path d="M270.895 28.3953C306.145 48.7471 333.293 80.6391 347.755 118.687C362.217 156.735 363.107 198.607 350.275 237.235L226.058 195.97C229.39 185.942 229.159 175.07 225.404 165.192C221.65 155.314 214.601 147.034 205.449 141.751L270.895 28.3953Z"/>
</mask>
<path d="M270.895 28.3953C306.145 48.7471 333.293 80.6391 347.755 118.687C362.217 156.735 363.107 198.607 350.275 237.235L226.058 195.97C229.39 185.942 229.159 175.07 225.404 165.192C221.65 155.314 214.601 147.034 205.449 141.751L270.895 28.3953Z" fill="#BBE061" stroke="#191919" stroke-width="4" mask="url(#path-6-inside-3_7415_5749)"/>
<circle cx="182.241" cy="181.242" r="88.2413" fill="#457EFF" stroke="#0E0E0E" stroke-width="2"/>
<path d="M150.409 241.053L149.892 240.198L150.409 241.053L237.675 188.251C243.189 184.915 243.189 176.963 237.675 173.627L150.409 120.825C149.177 120.08 147.571 120.423 146.757 121.614L144.792 124.489C143.973 125.688 144.258 127.295 145.383 128.169C151.776 133.134 157.023 138.724 161.146 144.704C176.485 166.952 176.485 194.927 161.146 217.175C157.023 223.155 151.776 228.745 145.383 233.709H145.383C144.258 234.583 143.973 236.19 144.792 237.389L146.757 240.264C147.571 241.456 149.177 241.799 150.409 241.053Z" fill="white" stroke="#0E0E0E" stroke-width="2"/>
<mask id="path-9-inside-4_7415_5749" fill="white">
<path d="M100.105 324.213C96.7911 329.952 89.4251 331.952 83.9235 328.257C53.6269 307.908 30.2815 278.612 17.2448 244.314C4.20809 210.015 2.20012 172.609 11.3309 137.273C12.989 130.857 19.8237 127.459 26.1132 129.548L95.9233 152.739C102.213 154.829 105.52 161.621 104.403 168.153C102.032 182.027 103.389 196.359 108.441 209.65C113.492 222.941 121.999 234.556 132.986 243.352C138.16 247.494 140.199 254.767 136.886 260.507L100.105 324.213Z"/>
</mask>
<path d="M100.105 324.213C96.7911 329.952 89.4251 331.952 83.9235 328.257C53.6269 307.908 30.2815 278.612 17.2448 244.314C4.20809 210.015 2.20012 172.609 11.3309 137.273C12.989 130.857 19.8237 127.459 26.1132 129.548L95.9233 152.739C102.213 154.829 105.52 161.621 104.403 168.153C102.032 182.027 103.389 196.359 108.441 209.65C113.492 222.941 121.999 234.556 132.986 243.352C138.16 247.494 140.199 254.767 136.886 260.507L100.105 324.213Z" fill="#BBE061" stroke="#191919" stroke-width="4" mask="url(#path-9-inside-4_7415_5749)"/>
<mask id="path-10-inside-5_7415_5749" fill="white">
<path d="M347.291 181.5C353.919 181.5 359.334 186.879 358.884 193.491C357.19 218.409 350.232 242.733 338.416 264.839C324.711 290.479 304.894 312.344 280.721 328.496C256.547 344.648 228.763 354.59 199.83 357.439C170.896 360.289 141.707 355.959 114.847 344.833C87.9862 333.707 64.2844 316.129 45.8405 293.655C27.3966 271.181 14.7798 244.505 9.10791 215.99C3.43599 187.476 4.88392 158.002 13.3235 130.181C20.5996 106.195 32.879 84.0745 49.3004 65.2575C53.6581 60.2642 61.2906 60.2896 65.9769 64.9759L99.5087 98.5078C104.195 103.194 104.133 110.754 100.01 115.943C91.7693 126.312 85.5347 138.171 81.6693 150.913C76.6392 167.495 75.7762 185.062 79.1568 202.057C82.5373 219.052 90.057 234.951 101.05 248.346C112.043 261.74 126.169 272.217 142.178 278.849C158.187 285.48 175.585 288.06 192.829 286.362C210.074 284.663 226.633 278.738 241.041 269.111C255.449 259.484 267.26 246.453 275.428 231.171C281.706 219.427 285.683 206.633 287.188 193.475C287.941 186.89 293.243 181.5 299.87 181.5H347.291Z"/>
</mask>
<path d="M347.291 181.5C353.919 181.5 359.334 186.879 358.884 193.491C357.19 218.409 350.232 242.733 338.416 264.839C324.711 290.479 304.894 312.344 280.721 328.496C256.547 344.648 228.763 354.59 199.83 357.439C170.896 360.289 141.707 355.959 114.847 344.833C87.9862 333.707 64.2844 316.129 45.8405 293.655C27.3966 271.181 14.7798 244.505 9.10791 215.99C3.43599 187.476 4.88392 158.002 13.3235 130.181C20.5996 106.195 32.879 84.0745 49.3004 65.2575C53.6581 60.2642 61.2906 60.2896 65.9769 64.9759L99.5087 98.5078C104.195 103.194 104.133 110.754 100.01 115.943C91.7693 126.312 85.5347 138.171 81.6693 150.913C76.6392 167.495 75.7762 185.062 79.1568 202.057C82.5373 219.052 90.057 234.951 101.05 248.346C112.043 261.74 126.169 272.217 142.178 278.849C158.187 285.48 175.585 288.06 192.829 286.362C210.074 284.663 226.633 278.738 241.041 269.111C255.449 259.484 267.26 246.453 275.428 231.171C281.706 219.427 285.683 206.633 287.188 193.475C287.941 186.89 293.243 181.5 299.87 181.5H347.291Z" fill="#FF7A00" stroke="#191919" stroke-width="4" mask="url(#path-10-inside-5_7415_5749)"/>
<mask id="path-11-inside-6_7415_5749" fill="white">
<path d="M182.501 16.71C182.501 10.0826 187.88 4.66756 194.493 5.11694C230.905 7.59173 265.771 21.29 294.21 44.4747C322.649 67.6594 343.091 99.0502 352.851 134.217C354.624 140.603 350.404 146.963 343.912 148.298L297.463 157.853C290.972 159.188 284.693 154.977 282.628 148.679C276.375 129.602 264.77 112.622 249.081 99.8314C233.392 87.0412 214.421 79.0949 194.476 76.8137C187.891 76.0605 182.501 70.7586 182.501 64.1312L182.501 16.71Z"/>
</mask>
<path d="M182.501 16.71C182.501 10.0826 187.88 4.66756 194.493 5.11694C230.905 7.59173 265.771 21.29 294.21 44.4747C322.649 67.6594 343.091 99.0502 352.851 134.217C354.624 140.603 350.404 146.963 343.912 148.298L297.463 157.853C290.972 159.188 284.693 154.977 282.628 148.679C276.375 129.602 264.77 112.622 249.081 99.8314C233.392 87.0412 214.421 79.0949 194.476 76.8137C187.891 76.0605 182.501 70.7586 182.501 64.1312L182.501 16.71Z" fill="#3568DD" stroke="#191919" stroke-width="4" mask="url(#path-11-inside-6_7415_5749)"/>
<mask id="path-12-inside-7_7415_5749" fill="white">
<path d="M326.483 98.3715C331.522 95.4624 337.996 97.1766 340.6 102.38C357.162 135.473 362.961 173.023 357.024 209.729C351.086 246.435 333.745 280.242 307.595 306.426C303.483 310.543 296.799 310.129 292.934 305.779C289.069 301.43 289.491 294.795 293.569 290.645C316.11 267.708 331.062 238.28 336.224 206.364C341.387 174.448 336.475 141.808 322.315 112.934C319.753 107.71 321.444 101.281 326.483 98.3715Z"/>
</mask>
<path d="M326.483 98.3715C331.522 95.4624 337.996 97.1766 340.6 102.38C357.162 135.473 362.961 173.023 357.024 209.729C351.086 246.435 333.745 280.242 307.595 306.426C303.483 310.543 296.799 310.129 292.934 305.779C289.069 301.43 289.491 294.795 293.569 290.645C316.11 267.708 331.062 238.28 336.224 206.364C341.387 174.448 336.475 141.808 322.315 112.934C319.753 107.71 321.444 101.281 326.483 98.3715Z" fill="#C2C5CC" stroke="#191919" stroke-width="4" mask="url(#path-12-inside-7_7415_5749)"/>
<path d="M41.3093 29.7746C42.2276 28.1268 44.5981 28.1268 45.5164 29.7746L47.667 33.6338C47.8702 33.9983 48.1646 34.3038 48.5213 34.5203L52.4329 36.8938C53.9781 37.8314 53.9781 40.0737 52.4329 41.0113L48.5213 43.3848C48.1646 43.6013 47.8702 43.9068 47.667 44.2713L45.5164 48.1305C44.5981 49.7783 42.2276 49.7783 41.3093 48.1305L39.1587 44.2713C38.9555 43.9068 38.6611 43.6013 38.3044 43.3848L34.3928 41.0113C32.8476 40.0737 32.8476 37.8314 34.3928 36.8938L38.3044 34.5203C38.6611 34.3038 38.9555 33.9983 39.1587 33.6338L41.3093 29.7746Z" fill="#3568DD" stroke="#0E0E0E" stroke-width="2"/>
<path d="M191.309 320.775C192.228 319.127 194.598 319.127 195.516 320.775L197.667 324.634C197.87 324.998 198.165 325.304 198.521 325.52L202.433 327.894C203.978 328.831 203.978 331.074 202.433 332.011L198.521 334.385C198.165 334.601 197.87 334.907 197.667 335.271L195.516 339.13C194.598 340.778 192.228 340.778 191.309 339.13L189.159 335.271C188.956 334.907 188.661 334.601 188.304 334.385L184.393 332.011C182.848 331.074 182.848 328.831 184.393 327.894L188.304 325.52C188.661 325.304 188.956 324.998 189.159 324.634L191.309 320.775Z" fill="#FF5E0D" stroke="#0E0E0E" stroke-width="2"/>
</g>
<defs>
<clipPath id="clip0_7415_5749">
<rect width="364" height="363" rx="40" fill="white"/>
</clipPath>
</defs>
</svg>
