<svg width="578" height="274" viewBox="0 0 578 274" fill="none" xmlns="http://www.w3.org/2000/svg">
<path d="M500.113 136.138C500.113 133.935 501.899 132.149 504.102 132.149H561.211C565.082 132.149 566.684 137.109 563.544 139.373L551.541 148.032C547.863 150.685 547.863 156.162 551.541 158.815L563.544 167.474C566.684 169.738 565.082 174.698 561.211 174.698H504.102C501.899 174.698 500.113 172.912 500.113 170.709V136.138Z" fill="#FF5E0D" stroke="#29292D" stroke-width="2.65927"/>
<rect x="493.908" y="121.512" width="10.6371" height="93.9608" rx="5.31853" fill="#B8B9BF" stroke="#29292D" stroke-width="2.65927"/>
<path d="M334.795 61.6788H43.162C37.0425 61.6788 32.0817 56.718 32.0817 50.5985V24.8922C32.0817 18.7728 37.0425 13.812 43.162 13.812H334.795C373.96 13.812 405.709 45.5611 405.709 84.7257C405.709 123.89 373.96 155.64 334.795 155.64H82.1646C66.0092 155.64 52.9127 168.736 52.9127 184.891C52.9127 201.047 66.0092 214.143 82.1646 214.143H504.545C510.664 214.143 515.625 219.104 515.625 225.224V250.93C515.625 257.049 510.664 262.01 504.545 262.01H82.1646C39.5731 262.01 5.04584 227.483 5.04584 184.891C5.04584 142.3 39.5731 107.773 82.1646 107.773H334.795C347.523 107.773 357.842 97.4542 357.842 84.7257C357.842 71.9972 347.523 61.6788 334.795 61.6788Z" fill="#B8B9BF" stroke="#EDF3FF" stroke-width="6.20496"/>
<path fill-rule="evenodd" clip-rule="evenodd" d="M334.795 64.7812H43.162C35.3291 64.7812 28.9792 58.4314 28.9792 50.5985V24.8922C28.9792 17.0593 35.3291 10.7095 43.162 10.7095H334.795C375.673 10.7095 408.811 43.8477 408.811 84.7257C408.811 125.604 375.673 158.742 334.795 158.742H82.1646C67.7226 158.742 56.0151 170.45 56.0151 184.891C56.0151 199.333 67.7226 211.041 82.1646 211.041H504.545C512.378 211.041 518.728 217.391 518.728 225.224V250.93C518.728 258.763 512.378 265.113 504.545 265.113H82.1646C37.8596 265.113 1.94336 229.196 1.94336 184.891C1.94336 140.587 37.8596 104.67 82.1646 104.67H334.795C345.81 104.67 354.739 95.7408 354.739 84.7257C354.739 73.7107 345.81 64.7812 334.795 64.7812Z" stroke="#0C0C0D" stroke-width="2.65927"/>
<circle cx="498.783" cy="236.304" r="35.9001" fill="#EDF3FF" stroke="#0C0C0D" stroke-width="2.65927"/>
<circle cx="366.706" cy="236.304" r="35.9001" fill="#EDF3FF" stroke="#0C0C0D" stroke-width="2.65927"/>
<circle cx="142.441" cy="236.304" r="35.9001" fill="#EDF3FF" stroke="#0C0C0D" stroke-width="2.65927"/>
<circle cx="201.831" cy="131.706" r="35.9001" fill="#EDF3FF" stroke="#0C0C0D" stroke-width="2.65927"/>
<circle cx="267.427" cy="37.7454" r="35.9001" fill="#EDF3FF" stroke="#0C0C0D" stroke-width="2.65927"/>
<circle cx="38.7297" cy="37.7454" r="35.9001" fill="#EDF3FF" stroke="#0C0C0D" stroke-width="2.65927"/>
<circle cx="498.783" cy="236.304" r="27.0359" fill="#79D4B7" stroke="#0C0C0D" stroke-width="2.65927"/>
<circle cx="366.706" cy="236.304" r="27.0359" fill="#F2F2F3" stroke="#0C0C0D" stroke-width="2.65927"/>
<circle cx="142.441" cy="236.304" r="27.0359" fill="#F2F2F3" stroke="#0C0C0D" stroke-width="2.65927"/>
<circle cx="201.831" cy="131.706" r="27.0359" fill="#F2F2F3" stroke="#0C0C0D" stroke-width="2.65927"/>
<circle cx="267.427" cy="37.7454" r="27.0359" fill="#F2F2F3" stroke="#0C0C0D" stroke-width="2.65927"/>
<circle cx="38.7298" cy="37.7454" r="27.0359" fill="#3668DD" stroke="#0C0C0D" stroke-width="2.65927"/>
</svg>
