<svg width="421" height="301" viewBox="0 0 421 301" fill="none" xmlns="http://www.w3.org/2000/svg">
<mask id="path-2-inside-1_6051_2520" fill="white">
<path fill-rule="evenodd" clip-rule="evenodd" d="M90.9785 55.248C90.9785 37.5749 105.305 23.248 122.979 23.248H312.979C330.652 23.248 344.979 37.5749 344.979 55.248V245.248C344.979 262.921 330.652 277.248 312.979 277.248H122.979C105.305 277.248 90.9785 262.921 90.9785 245.248V55.248ZM190.979 53.748C190.979 60.6516 185.382 66.248 178.479 66.248C171.575 66.248 165.979 60.6516 165.979 53.748C165.979 46.8445 171.575 41.248 178.479 41.248C185.382 41.248 190.979 46.8445 190.979 53.748ZM257.479 66.248C264.382 66.248 269.979 60.6516 269.979 53.748C269.979 46.8445 264.382 41.248 257.479 41.248C250.575 41.248 244.979 46.8445 244.979 53.748C244.979 60.6516 250.575 66.248 257.479 66.248Z"/>
</mask>
<path fill-rule="evenodd" clip-rule="evenodd" d="M90.9785 55.248C90.9785 37.5749 105.305 23.248 122.979 23.248H312.979C330.652 23.248 344.979 37.5749 344.979 55.248V245.248C344.979 262.921 330.652 277.248 312.979 277.248H122.979C105.305 277.248 90.9785 262.921 90.9785 245.248V55.248ZM190.979 53.748C190.979 60.6516 185.382 66.248 178.479 66.248C171.575 66.248 165.979 60.6516 165.979 53.748C165.979 46.8445 171.575 41.248 178.479 41.248C185.382 41.248 190.979 46.8445 190.979 53.748ZM257.479 66.248C264.382 66.248 269.979 60.6516 269.979 53.748C269.979 46.8445 264.382 41.248 257.479 41.248C250.575 41.248 244.979 46.8445 244.979 53.748C244.979 60.6516 250.575 66.248 257.479 66.248Z" fill="#E6E6E6"/>
<path d="M122.979 21.248C104.201 21.248 88.9785 36.4704 88.9785 55.248H92.9785C92.9785 38.6795 106.41 25.248 122.979 25.248V21.248ZM312.979 21.248H122.979V25.248H312.979V21.248ZM346.979 55.248C346.979 36.4704 331.756 21.248 312.979 21.248V25.248C329.547 25.248 342.979 38.6795 342.979 55.248H346.979ZM346.979 245.248V55.248H342.979V245.248H346.979ZM312.979 279.248C331.756 279.248 346.979 264.026 346.979 245.248H342.979C342.979 261.817 329.547 275.248 312.979 275.248V279.248ZM122.979 279.248H312.979V275.248H122.979V279.248ZM88.9785 245.248C88.9785 264.026 104.201 279.248 122.979 279.248V275.248C106.41 275.248 92.9785 261.817 92.9785 245.248H88.9785ZM88.9785 55.248V245.248H92.9785V55.248H88.9785ZM178.479 68.248C186.487 68.248 192.979 61.7562 192.979 53.748H188.979C188.979 59.547 184.278 64.248 178.479 64.248V68.248ZM163.979 53.748C163.979 61.7562 170.47 68.248 178.479 68.248V64.248C172.68 64.248 167.979 59.547 167.979 53.748H163.979ZM178.479 39.248C170.47 39.248 163.979 45.7399 163.979 53.748H167.979C167.979 47.9491 172.68 43.248 178.479 43.248V39.248ZM192.979 53.748C192.979 45.7399 186.487 39.248 178.479 39.248V43.248C184.278 43.248 188.979 47.9491 188.979 53.748H192.979ZM267.979 53.748C267.979 59.547 263.278 64.248 257.479 64.248V68.248C265.487 68.248 271.979 61.7562 271.979 53.748H267.979ZM257.479 43.248C263.278 43.248 267.979 47.9491 267.979 53.748H271.979C271.979 45.7399 265.487 39.248 257.479 39.248V43.248ZM246.979 53.748C246.979 47.9491 251.68 43.248 257.479 43.248V39.248C249.47 39.248 242.979 45.7399 242.979 53.748H246.979ZM257.479 64.248C251.68 64.248 246.979 59.547 246.979 53.748H242.979C242.979 61.7562 249.47 68.248 257.479 68.248V64.248Z" fill="#0E0E0E" mask="url(#path-2-inside-1_6051_2520)"/>
<line x1="90.9785" y1="85.248" x2="344.979" y2="85.248" stroke="#0E0E0E" stroke-width="2"/>
<circle cx="108.479" cy="137.748" r="30.5" fill="#676B73" stroke="#0E0E0E" stroke-width="2"/>
<circle cx="108.479" cy="220.748" r="30.5" fill="#FF7A00" stroke="#0E0E0E" stroke-width="2"/>
<circle cx="186.479" cy="137.748" r="30.5" fill="#3568DD" stroke="#0E0E0E" stroke-width="2"/>
<circle cx="186.479" cy="220.748" r="30.5" fill="#676B73" stroke="#0E0E0E" stroke-width="2"/>
<circle cx="265.479" cy="137.748" r="30.5" fill="#676B73" stroke="#0E0E0E" stroke-width="2"/>
<path d="M340.312 187.718C342.509 183.94 347.967 183.94 350.164 187.718L357.813 200.872C358.309 201.726 359.02 202.436 359.874 202.933L373.027 210.582C376.805 212.779 376.805 218.236 373.027 220.433L359.874 228.082C359.02 228.579 358.309 229.289 357.813 230.143L350.164 243.297C347.967 247.075 342.509 247.075 340.312 243.297L332.663 230.143C332.167 229.289 331.456 228.579 330.602 228.082L317.449 220.433C313.671 218.236 313.671 212.779 317.449 210.582L330.602 202.933C331.456 202.436 332.167 201.726 332.663 200.872L340.312 187.718Z" fill="white" stroke="#0E0E0E" stroke-width="2"/>
<path d="M42.4664 74.0083C43.7011 71.885 46.768 71.885 48.0027 74.0083L51.1536 79.4267C51.4328 79.9067 51.832 80.3059 52.312 80.5851L57.7304 83.736C59.8537 84.9707 59.8537 88.0375 57.7304 89.2723L52.312 92.4231C51.832 92.7023 51.4328 93.1015 51.1536 93.5816L48.0027 99C46.768 101.123 43.7011 101.123 42.4664 99L39.3155 93.5816C39.0364 93.1015 38.6372 92.7023 38.1571 92.4231L32.7387 89.2723C30.6155 88.0375 30.6155 84.9707 32.7387 83.736L38.1571 80.5851C38.6372 80.3059 39.0364 79.9067 39.3155 79.4267L42.4664 74.0083Z" fill="#FF5E0D" stroke="#0E0E0E" stroke-width="2"/>
<rect x="171.979" y="8.24805" width="13" height="40" rx="6.5" fill="#C2C5CC" stroke="#0E0E0E" stroke-width="2"/>
<rect x="250.979" y="8.24805" width="13" height="40" rx="6.5" fill="#C2C5CC" stroke="#0E0E0E" stroke-width="2"/>
</svg>
