<svg width="169" height="55" viewBox="0 0 169 55" fill="none" xmlns="http://www.w3.org/2000/svg">
<g filter="url(#filter0_di_9875_23545)">
<g clip-path="url(#clip0_9875_23545)">
<g clip-path="url(#clip1_9875_23545)">
<path d="M158.524 50.3961H9.60143C6.32513 50.3961 3.64453 47.7096 3.64453 44.426V8.60507C3.64453 5.32149 6.32513 2.63492 9.60143 2.63492H158.524C161.8 2.63492 164.481 5.32149 164.481 8.60507V44.426C164.481 47.7096 161.8 50.3961 158.524 50.3961Z" fill="white"/>
<path d="M28.2062 25.7079L15.5225 39.2001C15.5229 39.2029 15.5239 39.2053 15.5244 39.2081C15.9133 40.673 17.2485 41.7518 18.8331 41.7518C19.4665 41.7518 20.0613 41.5802 20.5713 41.2789L20.6118 41.2551L34.8889 32.9983L28.2062 25.7079Z" fill="black"/>
<path d="M28.2062 25.7079L15.5225 39.2001C15.5229 39.2029 15.5239 39.2053 15.5244 39.2081C15.9133 40.673 17.2485 41.7518 18.8331 41.7518C19.4665 41.7518 20.0613 41.5802 20.5713 41.2789L20.6118 41.2551L34.8889 32.9983L28.2062 25.7079" stroke="white" stroke-width="0.73825"/>
<path d="M41.0392 23.4104L41.027 23.4021L34.8632 19.8209L27.9189 26.014L34.8874 32.9969L41.0187 29.4514C42.0936 28.8698 42.8233 27.734 42.8233 26.4243C42.8233 25.1241 42.1034 23.9939 41.0392 23.4104Z" fill="black"/>
<path d="M41.0392 23.4104L41.027 23.4021L34.8632 19.8209L27.9189 26.014L34.8874 32.9969L41.0187 29.4514C42.0936 28.8698 42.8233 27.734 42.8233 26.4243C42.8233 25.1241 42.1034 23.9939 41.0392 23.4104" stroke="white" stroke-width="0.73825"/>
<path d="M15.5226 13.5925C15.4463 13.8742 15.4062 14.1694 15.4062 14.4759V38.3172C15.4062 38.6231 15.4459 38.9193 15.523 39.2001L28.6433 26.053L15.5226 13.5925Z" fill="black" stroke="white" stroke-width="0.73825"/>
<path d="M28.3002 26.3964L34.8652 19.8186L20.6043 11.532C20.0859 11.2209 19.481 11.0413 18.8336 11.0413C17.249 11.0413 15.912 12.122 15.5229 13.5888C15.5225 13.5902 15.5225 13.5912 15.5225 13.5925L28.3002 26.3964Z" fill="black" stroke="white" stroke-width="0.73825"/>
</g>
<path d="M60.4793 14.8657C60.4793 15.866 60.1838 16.6627 59.5918 17.257C58.9193 17.9636 58.043 18.3171 56.9656 18.3171C55.9339 18.3171 55.0566 17.9589 54.3353 17.2416C53.6126 16.5247 53.252 15.6357 53.252 14.575C53.252 13.5139 53.6126 12.6254 54.3353 11.9081C55.0566 11.1912 55.9339 10.8325 56.9656 10.8325C57.4775 10.8325 57.9677 10.9328 58.433 11.1329C58.8984 11.3335 59.2716 11.5998 59.5509 11.9333L58.9226 12.5633C58.4493 11.9967 57.7978 11.7136 56.9656 11.7136C56.2131 11.7136 55.5625 11.9785 55.0134 12.5088C54.4642 13.0396 54.1897 13.728 54.1897 14.575C54.1897 15.4221 54.4642 16.1105 55.0134 16.6413C55.5625 17.1716 56.2131 17.4365 56.9656 17.4365C57.7638 17.4365 58.4293 17.1702 58.9621 16.6367C59.308 16.2891 59.508 15.806 59.5615 15.1856H56.9656V14.325H60.4295C60.463 14.5121 60.4793 14.6917 60.4793 14.8657Z" fill="black"/>
<path d="M60.4793 14.8659H60.3602C60.3592 15.8435 60.0744 16.6027 59.5075 17.1728L59.5062 17.1737L59.5057 17.1747C58.8547 17.8569 58.0178 18.1965 56.9656 18.198C55.9614 18.1965 55.1209 17.8532 54.419 17.1574C53.7187 16.46 53.3724 15.6088 53.3711 14.5753C53.3724 13.5412 53.7187 12.6905 54.419 11.9937C55.1209 11.2973 55.9614 10.9535 56.9656 10.9521C57.4622 10.9521 57.935 11.0492 58.386 11.2427C58.8374 11.4377 59.194 11.6932 59.4596 12.0105L59.5509 11.9335L59.4667 11.8491L58.8383 12.4796L58.9226 12.5636L59.0143 12.4872C58.519 11.8924 57.8239 11.5926 56.9656 11.5944C56.1852 11.5934 55.4988 11.8728 54.931 12.4233C54.3577 12.9755 54.0696 13.7026 54.0705 14.5753C54.0696 15.448 54.3577 16.175 54.931 16.7273C55.4988 17.2777 56.1852 17.5571 56.9656 17.5562C57.7903 17.5576 58.4931 17.2772 59.0463 16.7213C59.4159 16.35 59.6254 15.8356 59.6803 15.1961L59.6914 15.0664H57.0847V14.4446H60.4295V14.3252L60.3122 14.3463C60.3448 14.5273 60.3602 14.6993 60.3602 14.8659H60.4793H60.5985C60.5985 14.6844 60.5817 14.4979 60.5468 14.3039L60.5291 14.2058H56.8465V15.1858V15.3052H59.5615V15.1858L59.4428 15.1755C59.3903 15.7763 59.1994 16.2288 58.8779 16.5525C58.3659 17.0636 57.7377 17.3159 56.9656 17.3174C56.241 17.3164 55.6263 17.0664 55.0962 16.5557C54.5713 16.0468 54.3101 15.3971 54.3088 14.5753C54.3101 13.7534 54.5713 13.1038 55.0962 12.5949C55.6263 12.0842 56.241 11.8341 56.9656 11.8332C57.7712 11.8351 58.3795 12.1018 58.8314 12.6406L58.9152 12.7404L59.6351 12.0179L59.7123 11.9405L59.642 11.8569C59.3493 11.5072 58.9594 11.2296 58.48 11.0235C57.9997 10.8168 57.4929 10.7133 56.9656 10.7133C55.9065 10.7123 54.9924 11.0855 54.251 11.8239C53.5069 12.5608 53.1319 13.4872 53.1328 14.5753C53.1319 15.6629 53.5069 16.5897 54.2515 17.3272C54.9924 18.0651 55.9065 18.4377 56.9656 18.4368C58.0686 18.4377 58.9836 18.0706 59.6779 17.3397L59.5918 17.2572L59.676 17.3416C60.2931 16.7236 60.5993 15.8887 60.5985 14.8659H60.4793Z" fill="black"/>
<path d="M65.9709 11.8733H62.7156V14.1448H65.6512V15.0057H62.7156V17.2772H65.9709V18.1573H61.7979V10.9932H65.9709V11.8733Z" fill="black"/>
<path d="M65.9709 11.8733V11.7539H62.5964V14.2642H65.5321V14.8859L62.5964 14.8863V17.3966H65.8518V18.0379H61.917V11.1126H65.8518V11.8733H65.9709V11.7539V11.8733H66.09V10.9931V10.8737H61.6787V18.2767H66.09V17.2772V17.1578H62.8347V15.1251H65.7704V14.1448V14.0254H62.8347V11.9927H66.09V11.8733H65.9709Z" fill="black"/>
<path d="M69.8444 18.1573H68.9252V11.8733H66.9287V10.9932H71.8409V11.8733H69.8444V18.1573Z" fill="black"/>
<path d="M69.8444 18.1573V18.0379H69.0444V11.7539H67.0478V11.1126H71.7217V11.7539H69.7252V18.1573H69.8444V18.0379V18.1573H69.9635V11.9927H71.96V10.9931V10.8737H66.8096V11.8733V11.9927H68.8061V18.2767H69.8444H69.9635V18.1573H69.8444Z" fill="black"/>
<path d="M75.3945 18.1573V10.9932H76.3127V18.1573H75.3945Z" fill="black"/>
<path d="M75.3945 18.1573H75.5137V11.1126H76.1936V18.0379H75.3945V18.1573H75.5137H75.3945V18.2767H76.3127H76.4318V10.8737H75.3945H75.2754V18.2767H75.3945V18.1573Z" fill="black"/>
<path d="M80.3882 18.1573H79.4691V11.8733H77.4727V10.9932H82.3847V11.8733H80.3882V18.1573Z" fill="black"/>
<path d="M80.3872 18.1573V18.0379H79.5872V11.7539H77.5908V11.1126H82.2646V11.7539H80.2681V18.1573H80.3872V18.0379V18.1573H80.5063V11.9927H82.5029V10.9931V10.8737H77.3525V11.8733V11.9927H79.3489V18.2767H80.3872H80.5063V18.1573H80.3872Z" fill="black"/>
<path d="M87.1199 16.6315C87.649 17.1684 88.2963 17.4365 89.0619 17.4365C89.8275 17.4365 90.4753 17.1684 91.0035 16.6315C91.5331 16.0947 91.7984 15.4085 91.7984 14.575C91.7984 13.7416 91.5331 13.0554 91.0035 12.5186C90.4753 11.9817 89.8275 11.7136 89.0619 11.7136C88.2963 11.7136 87.649 11.9817 87.1199 12.5186C86.5916 13.0554 86.3264 13.7416 86.3264 14.575C86.3264 15.4085 86.5916 16.0947 87.1199 16.6315ZM91.683 17.2313C90.9802 17.9556 90.1062 18.3171 89.0619 18.3171C88.0166 18.3171 87.1431 17.9556 86.4418 17.2313C85.7386 16.5078 85.3887 15.6222 85.3887 14.575C85.3887 13.5279 85.7386 12.6422 86.4418 11.9188C87.1431 11.1944 88.0166 10.8325 89.0619 10.8325C90.1007 10.8325 90.9723 11.1963 91.6783 11.9235C92.3834 12.6506 92.7361 13.5345 92.7361 14.575C92.7361 15.6222 92.3842 16.5078 91.683 17.2313Z" fill="black"/>
<path d="M87.1199 16.6318L87.0352 16.7157C87.5839 17.274 88.2685 17.5576 89.0619 17.5562C89.8549 17.5576 90.5404 17.274 91.0882 16.7157C91.6406 16.1569 91.9184 15.4339 91.9176 14.5753C91.9184 13.7166 91.6406 12.9937 91.0882 12.4349C90.5404 11.8765 89.8549 11.5929 89.0619 11.5944C88.2685 11.5929 87.5839 11.8765 87.0352 12.4349C86.4841 12.9937 86.2058 13.7166 86.2073 14.5753C86.2058 15.4339 86.4841 16.1569 87.0352 16.7157L87.1199 16.6318L87.2046 16.5478C86.6992 16.0323 86.4465 15.384 86.4455 14.5753C86.4465 13.7666 86.6992 13.1182 87.2046 12.6027C87.7146 12.0874 88.3238 11.8346 89.0619 11.8332C89.7995 11.8346 90.4101 12.0874 90.9188 12.6027C91.4252 13.1182 91.6778 13.7666 91.6788 14.5753C91.6778 15.384 91.4252 16.0323 90.9188 16.5478C90.4101 17.0632 89.7995 17.3159 89.0619 17.3174C88.3238 17.3159 87.7146 17.0632 87.2046 16.5478L87.1199 16.6318ZM91.683 17.2315L91.5978 17.1485C90.9147 17.85 90.0793 18.1965 89.0619 18.198C88.0441 18.1965 87.2087 17.85 86.5269 17.1485L86.5237 17.1448L86.5269 17.1485C85.8452 16.4446 85.5088 15.5958 85.5078 14.5753C85.5088 13.5547 85.8452 12.7059 86.5269 12.002C87.2087 11.3005 88.0441 10.9535 89.0619 10.9521C90.0727 10.9535 90.9062 11.302 91.5931 12.0072C92.2772 12.7143 92.6156 13.5618 92.617 14.5753C92.6156 15.5958 92.2782 16.4446 91.5978 17.1485L91.683 17.2315L91.7686 17.3145C92.4908 16.5711 92.8561 15.6489 92.8553 14.5753C92.8561 13.5077 92.4894 12.5875 91.7639 11.8407C91.038 11.0911 90.1286 10.712 89.0619 10.7133C87.9897 10.712 87.0776 11.0893 86.3562 11.836V11.8356C85.6325 12.5795 85.2686 13.5016 85.2695 14.5753C85.2686 15.6489 85.6325 16.5711 86.3562 17.315L86.3594 17.3183L86.3562 17.3145C87.0776 18.0612 87.9897 18.4377 89.0619 18.4368C90.1337 18.4377 91.0458 18.0612 91.7686 17.3145L91.683 17.2315Z" fill="black"/>
<path d="M94.0254 18.1573V10.9932H95.1433L98.6173 16.5664H98.6569L98.6173 15.1858V10.9932H99.5365V18.1573H98.5778L94.9431 12.314H94.9036L94.9431 13.6951V18.1573H94.0254Z" fill="black"/>
<path d="M94.0254 18.1573H94.1445V11.1126H95.0771L98.5512 16.6858H98.6569H98.7792L98.7365 15.184V11.1126H99.4173V18.0379H98.6439L95.0092 12.1946H94.9036H94.7812L94.824 13.697V18.0379H94.0254V18.1573H94.1445H94.0254V18.2767H94.9431H95.0622V13.6932L95.0227 12.3108L94.9036 12.314V12.4334H94.9431V12.314L94.8421 12.3775L98.5116 18.2767H99.5365H99.6556V10.8737H98.6173H98.4982V15.1872L98.5377 16.5696L98.6569 16.5664V16.447H98.6173V16.5664L98.7183 16.503L95.2093 10.8737H94.0254H93.9062V18.2767H94.0254V18.1573Z" fill="black"/>
<path d="M131.387 38.4559H133.61V23.5291H131.387V38.4559ZM151.41 28.906L148.862 35.3776H148.786L146.141 28.906H143.746L147.712 37.9512L145.451 42.9825H147.771L153.882 28.906H151.41ZM138.803 36.7605C138.074 36.7605 137.059 36.3957 137.059 35.4928C137.059 34.3407 138.324 33.899 139.416 33.899C140.394 33.899 140.852 34.1102 141.447 34.3986C141.274 35.781 140.086 36.7605 138.803 36.7605ZM139.071 28.5795C137.462 28.5795 135.795 29.2903 135.105 30.865L137.078 31.6905C137.5 30.865 138.285 30.5958 139.109 30.5958C140.259 30.5958 141.428 31.2875 141.447 32.5165V32.67C141.044 32.4395 140.183 32.094 139.128 32.094C137.002 32.094 134.836 33.2651 134.836 35.4545C134.836 37.4517 136.58 38.7385 138.534 38.7385C140.029 38.7385 140.852 38.0664 141.371 37.2792H141.447V38.4312H143.593V32.7082C143.593 30.0585 141.62 28.5795 139.071 28.5795ZM125.332 30.7231H122.17V25.6066H125.332C126.994 25.6066 127.938 26.9857 127.938 28.1648C127.938 29.3216 126.994 30.7231 125.332 30.7231ZM125.275 23.5291H119.948V38.4559H122.17V32.8006H125.275C127.739 32.8006 130.161 31.0128 130.161 28.1648C130.161 25.3169 127.739 23.5291 125.275 23.5291ZM96.228 36.7632C94.6922 36.7632 93.4064 35.4745 93.4064 33.7045C93.4064 31.9158 94.6922 30.6075 96.228 30.6075C97.7443 30.6075 98.9343 31.9158 98.9343 33.7045C98.9343 35.4745 97.7443 36.7632 96.228 36.7632ZM98.7807 29.7419H98.7038C98.205 29.1457 97.2449 28.6071 96.0359 28.6071C93.5023 28.6071 91.18 30.8383 91.18 33.7045C91.18 36.5515 93.5023 38.7637 96.0359 38.7637C97.2449 38.7637 98.205 38.225 98.7038 37.6098H98.7807V38.3407C98.7807 40.2838 97.7443 41.3225 96.0745 41.3225C94.7118 41.3225 93.8672 40.3411 93.5213 39.5142L91.5831 40.322C92.1397 41.6686 93.6177 43.323 96.0745 43.323C98.6848 43.323 100.892 41.7838 100.892 38.0328V28.9149H98.7807V29.7419ZM102.427 38.4559H104.654V23.5286H102.427V38.4559ZM107.936 33.5315C107.878 31.5692 109.452 30.5692 110.585 30.5692C111.468 30.5692 112.216 31.0114 112.465 31.6467L107.936 33.5315ZM114.846 31.8388C114.424 30.7035 113.137 28.6071 110.508 28.6071C107.897 28.6071 105.729 30.6653 105.729 33.6854C105.729 36.5324 107.878 38.7637 110.757 38.7637C113.08 38.7637 114.424 37.3402 114.98 36.5132L113.253 35.3588C112.677 36.2054 111.89 36.7632 110.757 36.7632C109.625 36.7632 108.819 36.2437 108.301 35.2245L115.076 32.4158L114.846 31.8388ZM60.8665 30.1653V32.3197H66.0102C65.8567 33.5315 65.4536 34.4163 64.8394 35.0319C64.091 35.7823 62.9202 36.6093 60.8665 36.6093C57.6994 36.6093 55.2236 34.051 55.2236 30.877C55.2236 27.7031 57.6994 25.1444 60.8665 25.1444C62.5748 25.1444 63.822 25.8178 64.7434 26.6835L66.2597 25.1639C64.9739 23.9325 63.2654 22.99 60.8665 22.99C56.5285 22.99 52.8818 26.5296 52.8818 30.877C52.8818 35.2245 56.5285 38.7637 60.8665 38.7637C63.2082 38.7637 64.9739 37.9946 66.3556 36.5515C67.776 35.128 68.2176 33.1275 68.2176 31.5119C68.2176 31.0114 68.1794 30.5501 68.1022 30.1653H60.8665ZM74.0656 36.7632C72.5298 36.7632 71.2054 35.4936 71.2054 33.6854C71.2054 31.8579 72.5298 30.6075 74.0656 30.6075C75.6008 30.6075 76.9253 31.8579 76.9253 33.6854C76.9253 35.4936 75.6008 36.7632 74.0656 36.7632ZM74.0656 28.6071C71.263 28.6071 68.9789 30.7422 68.9789 33.6854C68.9789 36.6093 71.263 38.7637 74.0656 38.7637C76.8676 38.7637 79.1518 36.6093 79.1518 33.6854C79.1518 30.7422 76.8676 28.6071 74.0656 28.6071ZM85.1612 36.7632C83.626 36.7632 82.3014 35.4936 82.3014 33.6854C82.3014 31.8579 83.626 30.6075 85.1612 30.6075C86.6965 30.6075 88.021 31.8579 88.021 33.6854C88.021 35.4936 86.6965 36.7632 85.1612 36.7632ZM85.1612 28.6071C82.3587 28.6071 80.0751 30.7422 80.0751 33.6854C80.0751 36.6093 82.3587 38.7637 85.1612 38.7637C87.9633 38.7637 90.2474 36.6093 90.2474 33.6854C90.2474 30.7422 87.9633 28.6071 85.1612 28.6071Z" fill="black"/>
</g>
</g>
<defs>
<filter id="filter0_di_9875_23545" x="0.866211" y="0.515625" width="167.193" height="54" filterUnits="userSpaceOnUse" color-interpolation-filters="sRGB">
<feFlood flood-opacity="0" result="BackgroundImageFix"/>
<feColorMatrix in="SourceAlpha" type="matrix" values="0 0 0 0 0 0 0 0 0 0 0 0 0 0 0 0 0 0 127 0" result="hardAlpha"/>
<feOffset dy="1"/>
<feGaussianBlur stdDeviation="1.5"/>
<feComposite in2="hardAlpha" operator="out"/>
<feColorMatrix type="matrix" values="0 0 0 0 0.184314 0 0 0 0 0.168627 0 0 0 0 0.262745 0 0 0 0.1 0"/>
<feBlend mode="normal" in2="BackgroundImageFix" result="effect1_dropShadow_9875_23545"/>
<feBlend mode="normal" in="SourceGraphic" in2="effect1_dropShadow_9875_23545" result="shape"/>
<feColorMatrix in="SourceAlpha" type="matrix" values="0 0 0 0 0 0 0 0 0 0 0 0 0 0 0 0 0 0 127 0" result="hardAlpha"/>
<feOffset dy="-1"/>
<feComposite in2="hardAlpha" operator="arithmetic" k2="-1" k3="1"/>
<feColorMatrix type="matrix" values="0 0 0 0 0.184314 0 0 0 0 0.168627 0 0 0 0 0.262745 0 0 0 0.1 0"/>
<feBlend mode="normal" in2="shape" result="effect2_innerShadow_9875_23545"/>
</filter>
<clipPath id="clip0_9875_23545">
<rect width="161.194" height="48" fill="white" transform="translate(3.86621 2.51562)"/>
</clipPath>
<clipPath id="clip1_9875_23545">
<rect width="161.194" height="48" fill="white" transform="translate(3.52539 2.5155)"/>
</clipPath>
</defs>
</svg>
