<svg width="162" height="49" viewBox="0 0 162 49" fill="none" xmlns="http://www.w3.org/2000/svg">
<g clip-path="url(#clip0_9377_8696)">
<g clip-path="url(#clip1_9377_8696)">
<path d="M154.658 48.3945H5.73522C2.45892 48.3945 -0.22168 45.708 -0.22168 42.4244V6.60349C-0.22168 3.3199 2.45892 0.633335 5.73522 0.633335H154.658C157.934 0.633335 160.615 3.3199 160.615 6.60349V42.4244C160.615 45.708 157.934 48.3945 154.658 48.3945Z" fill="white" fill-opacity="0.1"/>
<path d="M24.3409 23.7061L11.6572 37.1983C11.6577 37.2011 11.6587 37.2034 11.6591 37.2062C12.0481 38.6712 13.3833 39.75 14.9679 39.75C15.6013 39.75 16.196 39.5784 16.706 39.2771L16.7466 39.2533L31.0237 30.9965L24.3409 23.7061Z" fill="white"/>
<path d="M24.3409 23.7061L11.6572 37.1983C11.6577 37.2011 11.6587 37.2034 11.6591 37.2062C12.0481 38.6712 13.3833 39.75 14.9679 39.75C15.6013 39.75 16.196 39.5784 16.706 39.2771L16.7466 39.2533L31.0237 30.9965L24.3409 23.7061" stroke="white" stroke-opacity="0.1" stroke-width="0.73825"/>
<path d="M37.1729 21.4086L37.1608 21.4003L30.997 17.8191L24.0527 24.0121L31.0212 30.9951L37.1525 27.4495C38.2274 26.8679 38.9571 25.7322 38.9571 24.4225C38.9571 23.1222 38.2372 21.9921 37.1729 21.4086Z" fill="white"/>
<path d="M37.1729 21.4086L37.1608 21.4003L30.997 17.8191L24.0527 24.0121L31.0212 30.9951L37.1525 27.4495C38.2274 26.8679 38.9571 25.7322 38.9571 24.4225C38.9571 23.1222 38.2372 21.9921 37.1729 21.4086" stroke="white" stroke-opacity="0.1" stroke-width="0.73825"/>
<path d="M11.6564 11.5906C11.5801 11.8724 11.54 12.1676 11.54 12.4741V36.3154C11.54 36.6213 11.5796 36.9175 11.6568 37.1982L24.7771 24.0512L11.6564 11.5906Z" fill="white" stroke="white" stroke-opacity="0.1" stroke-width="0.73825"/>
<path d="M24.4339 24.3945L30.999 17.8168L16.7381 9.53019C16.2197 9.21903 15.6147 9.03945 14.9674 9.03945C13.3828 9.03945 12.0458 10.1201 11.6567 11.587C11.6562 11.5884 11.6563 11.5894 11.6563 11.5907L24.4339 24.3945Z" fill="white" stroke="white" stroke-opacity="0.1" stroke-width="0.73825"/>
</g>
<path d="M56.6131 12.864C56.6131 13.8643 56.3175 14.661 55.7255 15.2553C55.0531 15.9619 54.1768 16.3154 53.0994 16.3154C52.0677 16.3154 51.1904 15.9572 50.4691 15.2398C49.7464 14.523 49.3857 13.634 49.3857 12.5733C49.3857 11.5122 49.7464 10.6237 50.4691 9.90635C51.1904 9.18946 52.0677 8.83077 53.0994 8.83077C53.6113 8.83077 54.1015 8.93107 54.5668 9.13119C55.0322 9.33179 55.4054 9.59805 55.6847 9.93155L55.0564 10.5616C54.5831 9.99495 53.9316 9.71185 53.0994 9.71185C52.3469 9.71185 51.6963 9.9768 51.1472 10.5071C50.598 11.0379 50.3235 11.7263 50.3235 12.5733C50.3235 13.4204 50.598 14.1087 51.1472 14.6396C51.6963 15.1699 52.3469 15.4348 53.0994 15.4348C53.8976 15.4348 54.5631 15.1684 55.0959 14.635C55.4418 14.2874 55.6418 13.8043 55.6953 13.1838H53.0994V12.3233H56.5633C56.5968 12.5104 56.6131 12.69 56.6131 12.864Z" fill="white"/>
<path d="M56.6131 12.8647H56.494C56.493 13.8422 56.2082 14.6015 55.6413 15.1715L55.64 15.1725L55.6395 15.1735C54.9884 15.8557 54.1516 16.1953 53.0994 16.1967C52.0952 16.1953 51.2547 15.852 50.5528 15.1561C49.8525 14.4588 49.5062 13.6076 49.5049 12.5741C49.5062 11.54 49.8525 10.6893 50.5528 9.99244C51.2547 9.29608 52.0952 8.95232 53.0994 8.95089C53.596 8.95089 54.0688 9.04796 54.5197 9.24151C54.9712 9.4365 55.3277 9.69202 55.5934 10.0093L55.6847 9.93226L55.6005 9.84784L54.9721 10.4784L55.0563 10.5624L55.1481 10.4859C54.6528 9.89119 53.9577 9.59137 53.0994 9.59316C52.319 9.5922 51.6326 9.8716 51.0647 10.4221C50.4915 10.9743 50.2034 11.7013 50.2043 12.5741C50.2034 13.4468 50.4915 14.1738 51.0647 14.7261C51.6326 15.2765 52.319 15.5559 53.0994 15.5549C53.9241 15.5564 54.6269 15.276 55.1801 14.7201C55.5497 14.3487 55.7591 13.8344 55.8141 13.1948L55.8251 13.0652H53.2185V12.4434H56.5633V12.324L56.446 12.345C56.4786 12.5261 56.494 12.6981 56.494 12.8647H56.6131H56.7323C56.7323 12.6832 56.7155 12.4967 56.6806 12.3026L56.6629 12.2046H52.9802V13.1846V13.304H55.6953V13.1846L55.5766 13.1743C55.5241 13.7751 55.3332 14.2275 55.0117 14.5512C54.4997 15.0624 53.8715 15.3147 53.0994 15.3161C52.3748 15.3152 51.76 15.0652 51.23 14.5545C50.7051 14.0456 50.4439 13.3959 50.4426 12.5741C50.4439 11.7522 50.7051 11.1025 51.23 10.5936C51.76 10.0829 52.3748 9.83292 53.0994 9.83196C53.905 9.83387 54.5133 10.1006 54.9652 10.6394L55.049 10.7392L55.7689 10.0167L55.8461 9.93931L55.7758 9.85573C55.4831 9.50599 55.0932 9.22838 54.6137 9.02229C54.1335 8.8156 53.6267 8.71208 53.0994 8.71208C52.0402 8.71113 51.1262 9.08426 50.3848 9.82265C49.6407 10.5596 49.2657 11.4859 49.2666 12.5741C49.2657 13.6617 49.6407 14.5885 50.3853 15.3259C51.1262 16.0638 52.0402 16.4365 53.0994 16.4355C54.2024 16.4365 55.1173 16.0693 55.8117 15.3385L55.7255 15.256L55.8098 15.3404C56.4269 14.7224 56.7331 13.8875 56.7323 12.8647H56.6131Z" fill="white"/>
<path d="M62.1047 9.87121H58.8494V12.1427H61.785V13.0036H58.8494V15.2752H62.1047V16.1553H57.9316V8.99109H62.1047V9.87121Z" fill="white"/>
<path d="M62.1047 9.87193V9.75252H58.7302V12.2629H61.6659V12.8846L58.7302 12.8849V15.3953H61.9855V16.0366H58.0508V9.11121H61.9855V9.87193H62.1047V9.75252V9.87193H62.2238V8.99181V8.8724H57.8125V16.2754H62.2238V15.2759V15.1565H58.9685V13.1237H61.9042V12.1434V12.024H58.9685V9.99133H62.2238V9.87193H62.1047Z" fill="white"/>
<path d="M65.9782 16.1553H65.059V9.87121H63.0625V8.99109H67.9747V9.87121H65.9782V16.1553Z" fill="white"/>
<path d="M65.9782 16.156V16.0366H65.1781V9.75252H63.1816V9.11121H67.8555V9.75252H65.859V16.156H65.9782V16.0366V16.156H66.0973V9.99133H68.0938V8.99181V8.8724H62.9434V9.87193V9.99133H64.9399V16.2754H65.9782H66.0973V16.156H65.9782Z" fill="white"/>
<path d="M71.5283 16.1553V8.99109H72.4465V16.1553H71.5283Z" fill="white"/>
<path d="M71.5283 16.156H71.6475V9.11121H72.3274V16.0366H71.5283V16.156H71.6475H71.5283V16.2754H72.4465H72.5656V8.8724H71.5283H71.4092V16.2754H71.5283V16.156Z" fill="white"/>
<path d="M76.522 16.1553H75.6028V9.87121H73.6064V8.99109H78.5185V9.87121H76.522V16.1553Z" fill="white"/>
<path d="M76.521 16.156V16.0366H75.721V9.75252H73.7246V9.11121H78.3984V9.75252H76.4019V16.156H76.521V16.0366V16.156H76.6401V9.99133H78.6367V8.99181V8.8724H73.4863V9.87193V9.99133H75.4827V16.2754H76.521H76.6401V16.156H76.521Z" fill="white"/>
<path d="M83.2537 14.6298C83.7827 15.1667 84.4301 15.4348 85.1957 15.4348C85.9613 15.4348 86.609 15.1667 87.1373 14.6298C87.6669 14.093 87.9322 13.4068 87.9322 12.5733C87.9322 11.7399 87.6669 11.0537 87.1373 10.5169C86.609 9.98003 85.9613 9.71185 85.1957 9.71185C84.4301 9.71185 83.7827 9.98003 83.2537 10.5169C82.7254 11.0537 82.4602 11.7399 82.4602 12.5733C82.4602 13.4068 82.7254 14.093 83.2537 14.6298ZM87.8167 15.2296C87.1139 15.9539 86.24 16.3154 85.1957 16.3154C84.1504 16.3154 83.2769 15.9539 82.5756 15.2296C81.8724 14.5061 81.5225 13.6205 81.5225 12.5733C81.5225 11.5262 81.8724 10.6404 82.5756 9.9171C83.2769 9.19268 84.1504 8.83077 85.1957 8.83077C86.2345 8.83077 87.1061 9.19459 87.8121 9.92176C88.5172 10.6489 88.8699 11.5327 88.8699 12.5733C88.8699 13.6205 88.518 14.5061 87.8167 15.2296Z" fill="white"/>
<path d="M83.2537 14.6305L83.1689 14.7145C83.7177 15.2728 84.4023 15.5564 85.1957 15.5549C85.9887 15.5564 86.6742 15.2728 87.222 14.7145C87.7743 14.1557 88.0522 13.4327 88.0513 12.5741C88.0522 11.7154 87.7743 10.9924 87.222 10.4336C86.6742 9.87531 85.9887 9.59172 85.1957 9.59316C84.4023 9.59172 83.7177 9.87531 83.1689 10.4336C82.6179 10.9924 82.3396 11.7154 82.3411 12.5741C82.3396 13.4327 82.6179 14.1557 83.1689 14.7145L83.2537 14.6305L83.3384 14.5466C82.833 14.0311 82.5803 13.3828 82.5793 12.5741C82.5803 11.7653 82.833 11.117 83.3384 10.6015C83.8484 10.0862 84.4575 9.8334 85.1957 9.83196C85.9333 9.8334 86.5439 10.0862 87.0526 10.6015C87.5589 11.117 87.8116 11.7653 87.8126 12.5741C87.8116 13.3828 87.5589 14.0311 87.0526 14.5466C86.5439 15.0619 85.9333 15.3147 85.1957 15.3161C84.4575 15.3147 83.8484 15.0619 83.3384 14.5466L83.2537 14.6305ZM87.8168 15.2303L87.7316 15.1473C87.0484 15.8488 86.213 16.1953 85.1957 16.1967C84.1779 16.1953 83.3425 15.8488 82.6607 15.1473L82.6575 15.1436L82.6607 15.1473C81.979 14.4434 81.6426 13.5946 81.6416 12.5741C81.6426 11.5535 81.979 10.7047 82.6607 10.0008C83.3425 9.29931 84.1779 8.95232 85.1957 8.95089C86.2065 8.95232 87.04 9.30074 87.7269 10.0059C88.411 10.713 88.7494 11.5606 88.7508 12.5741C88.7494 13.5946 88.412 14.4434 87.7316 15.1473L87.8168 15.2303L87.9024 15.3133C88.6246 14.5699 88.9899 13.6477 88.9891 12.5741C88.9899 11.5065 88.6232 10.5862 87.8977 9.83948C87.1717 9.08987 86.2624 8.71077 85.1957 8.71208C84.1235 8.71077 83.2114 9.08808 82.49 9.83483V9.83435C81.7663 10.5782 81.4024 11.5004 81.4033 12.5741C81.4024 13.6477 81.7663 14.5699 82.49 15.3138L82.4932 15.3171L82.49 15.3133C83.2114 16.06 84.1235 16.4365 85.1957 16.4355C86.2675 16.4365 87.1796 16.06 87.9024 15.3133L87.8168 15.2303Z" fill="white"/>
<path d="M90.1592 16.1553V8.99109H91.2771L94.7511 14.5643H94.7907L94.7511 13.1837V8.99109H95.6703V16.1553H94.7116L91.0769 10.3119H91.0373L91.0769 11.6931V16.1553H90.1592Z" fill="white"/>
<path d="M90.1592 16.156H90.2783V9.11121H91.2109L94.685 14.6845H94.7907H94.913L94.8702 13.1826V9.11121H95.5511V16.0366H94.7777L91.143 10.1932H91.0373H90.915L90.9578 11.6957V16.0366H90.1592V16.156H90.2783H90.1592V16.2754H91.0769H91.196V11.6919L91.1565 10.3094L91.0373 10.3126V10.432H91.0769V10.3126L90.9759 10.3762L94.6454 16.2754H95.6703H95.7894V8.8724H94.7511H94.632V13.1858L94.6715 14.5683L94.7907 14.5651V14.4457H94.7511V14.5651L94.8521 14.5017L91.343 8.8724H90.1592H90.04V16.2754H90.1592V16.156Z" fill="white"/>
<path d="M127.521 36.4542H129.744V21.5274H127.521V36.4542ZM147.544 26.9043L144.996 33.3759H144.92L142.275 26.9043H139.88L143.846 35.9495L141.585 40.9808H143.904L150.016 26.9043H147.544ZM134.937 34.7588C134.208 34.7588 133.193 34.394 133.193 33.4911C133.193 32.339 134.458 31.8973 135.549 31.8973C136.527 31.8973 136.986 32.1085 137.581 32.3969C137.408 33.7793 136.22 34.7588 134.937 34.7588ZM135.205 26.5778C133.595 26.5778 131.929 27.2886 131.239 28.8633L133.212 29.6888C133.634 28.8633 134.419 28.5941 135.243 28.5941C136.393 28.5941 137.562 29.2858 137.581 30.5148V30.6683C137.178 30.4378 136.317 30.0923 135.262 30.0923C133.136 30.0923 130.97 31.2634 130.97 33.4528C130.97 35.45 132.714 36.7368 134.668 36.7368C136.163 36.7368 136.986 36.0647 137.504 35.2775H137.581V36.4295H139.726V30.7065C139.726 28.0568 137.753 26.5778 135.205 26.5778ZM121.466 28.7214H118.304V23.6049H121.466C123.128 23.6049 124.072 24.984 124.072 26.1631C124.072 27.3199 123.128 28.7214 121.466 28.7214ZM121.409 21.5274H116.082V36.4542H118.304V30.7989H121.409C123.873 30.7989 126.295 29.0111 126.295 26.1631C126.295 23.3152 123.873 21.5274 121.409 21.5274ZM92.3618 34.7615C90.826 34.7615 89.5402 33.4728 89.5402 31.7028C89.5402 29.9141 90.826 28.6058 92.3618 28.6058C93.8781 28.6058 95.068 29.9141 95.068 31.7028C95.068 33.4728 93.8781 34.7615 92.3618 34.7615ZM94.9145 27.7402H94.8376C94.3388 27.144 93.3787 26.6053 92.1697 26.6053C89.6361 26.6053 87.3138 28.8366 87.3138 31.7028C87.3138 34.5498 89.6361 36.762 92.1697 36.762C93.3787 36.762 94.3388 36.2233 94.8376 35.6081H94.9145V36.339C94.9145 38.2821 93.8781 39.3208 92.2083 39.3208C90.8456 39.3208 90.001 38.3394 89.6551 37.5125L87.7169 38.3203C88.2735 39.6668 89.7515 41.3213 92.2083 41.3213C94.8186 41.3213 97.0258 39.7821 97.0258 36.0311V26.9132H94.9145V27.7402ZM98.5612 36.4542H100.788V21.5269H98.5612V36.4542ZM104.07 31.5298C104.012 29.5675 105.586 28.5675 106.718 28.5675C107.602 28.5675 108.35 29.0096 108.599 29.645L104.07 31.5298ZM110.98 29.8371C110.558 28.7018 109.271 26.6053 106.642 26.6053C104.031 26.6053 101.863 28.6636 101.863 31.6837C101.863 34.5307 104.012 36.762 106.891 36.762C109.214 36.762 110.558 35.3385 111.114 34.5115L109.387 33.3571C108.811 34.2037 108.024 34.7615 106.891 34.7615C105.759 34.7615 104.953 34.242 104.434 33.2228L111.209 30.4141L110.98 29.8371ZM57.0002 28.1636V30.3179H62.144C61.9905 31.5298 61.5874 32.4145 60.9731 33.0302C60.2248 33.7806 59.054 34.6076 57.0002 34.6076C53.8332 34.6076 51.3574 32.0493 51.3574 28.8753C51.3574 25.7013 53.8332 23.1427 57.0002 23.1427C58.7086 23.1427 59.9558 23.8161 60.8772 24.6818L62.3935 23.1622C61.1076 21.9308 59.3992 20.9883 57.0002 20.9883C52.6623 20.9883 49.0156 24.5279 49.0156 28.8753C49.0156 33.2228 52.6623 36.762 57.0002 36.762C59.342 36.762 61.1077 35.9929 62.4894 34.5498C63.9098 33.1263 64.3514 31.1258 64.3514 29.5102C64.3514 29.0096 64.3132 28.5484 64.236 28.1636H57.0002ZM70.1994 34.7615C68.6636 34.7615 67.3392 33.4919 67.3392 31.6837C67.3392 29.8562 68.6636 28.6058 70.1994 28.6058C71.7346 28.6058 73.0591 29.8562 73.0591 31.6837C73.0591 33.4919 71.7346 34.7615 70.1994 34.7615ZM70.1994 26.6053C67.3968 26.6053 65.1127 28.7405 65.1127 31.6837C65.1127 34.6076 67.3968 36.762 70.1994 36.762C73.0014 36.762 75.2855 34.6076 75.2855 31.6837C75.2855 28.7405 73.0014 26.6053 70.1994 26.6053ZM81.295 34.7615C79.7598 34.7615 78.4352 33.4919 78.4352 31.6837C78.4352 29.8562 79.7598 28.6058 81.295 28.6058C82.8303 28.6058 84.1548 29.8562 84.1548 31.6837C84.1548 33.4919 82.8303 34.7615 81.295 34.7615ZM81.295 26.6053C78.4925 26.6053 76.2089 28.7405 76.2089 31.6837C76.2089 34.6076 78.4925 36.762 81.295 36.762C84.0971 36.762 86.3812 34.6076 86.3812 31.6837C86.3812 28.7405 84.0971 26.6053 81.295 26.6053Z" fill="white"/>
</g>
<defs>
<clipPath id="clip0_9377_8696">
<rect width="161.194" height="48" fill="white" transform="translate(0 0.513672)"/>
</clipPath>
<clipPath id="clip1_9377_8696">
<rect width="161.194" height="48" fill="white" transform="translate(-0.34082 0.513672)"/>
</clipPath>
</defs>
</svg>
