<svg width="21" height="20" viewBox="0 0 21 20" fill="none" xmlns="http://www.w3.org/2000/svg">
<path d="M14.0234 6C16.2326 6 18.0234 7.79086 18.0234 10C18.0234 12.1422 16.3395 13.8911 14.2231 13.9951L14.0234 14H12.0234C11.6092 14 11.2734 13.6642 11.2734 13.25C11.2734 12.8703 11.5556 12.5565 11.9217 12.5068L12.0234 12.5H14.0234C15.4041 12.5 16.5234 11.3807 16.5234 10C16.5234 8.67452 15.4919 7.58996 14.1878 7.50532L14.0234 7.5H12.0234C11.6092 7.5 11.2734 7.16421 11.2734 6.75C11.2734 6.3703 11.5556 6.05651 11.9217 6.00685L12.0234 6H14.0234ZM8.02344 6C8.43765 6 8.77344 6.33579 8.77344 6.75C8.77344 7.1297 8.49128 7.44349 8.12521 7.49315L8.02344 7.5H6.02344C4.64273 7.5 3.52344 8.61929 3.52344 10C3.52344 11.3255 4.55497 12.41 5.85906 12.4947L6.02344 12.5H8.02344C8.43765 12.5 8.77344 12.8358 8.77344 13.25C8.77344 13.6297 8.49128 13.9435 8.12521 13.9932L8.02344 14H6.02344C3.8143 14 2.02344 12.2091 2.02344 10C2.02344 7.8578 3.70741 6.10892 5.8238 6.0049L6.02344 6H8.02344ZM6.27344 9.25H13.7734C14.1877 9.25 14.5234 9.58579 14.5234 10C14.5234 10.3797 14.2413 10.6935 13.8752 10.7432L13.7734 10.75H6.27344C5.85922 10.75 5.52344 10.4142 5.52344 10C5.52344 9.6203 5.80559 9.30651 6.17167 9.25685L6.27344 9.25H13.7734H6.27344Z" fill="#0E0E0E"/>
</svg>
