<svg width="43" height="43" viewBox="0 0 43 43" fill="none" xmlns="http://www.w3.org/2000/svg">
<rect width="42" height="42" transform="translate(0.800781 0.728516)" fill="white"/>
<mask id="path-1-inside-1_13378_16787" fill="white">
<path d="M5.80078 10.26C5.80078 8.03348 7.60574 6.22852 9.83228 6.22852H33.7693C35.9958 6.22852 37.8008 8.03348 37.8008 10.26V34.197C37.8008 36.4236 35.9958 38.2285 33.7693 38.2285H9.83228C7.60574 38.2285 5.80078 36.4236 5.80078 34.197V10.26Z"/>
</mask>
<path d="M5.80078 10.26C5.80078 8.03348 7.60574 6.22852 9.83228 6.22852H33.7693C35.9958 6.22852 37.8008 8.03348 37.8008 10.26V34.197C37.8008 36.4236 35.9958 38.2285 33.7693 38.2285H9.83228C7.60574 38.2285 5.80078 36.4236 5.80078 34.197V10.26Z" fill="url(#paint0_linear_13378_16787)"/>
<path d="M9.83228 9.22852H33.7693V3.22852H9.83228V9.22852ZM34.8008 10.26V34.197H40.8008V10.26H34.8008ZM33.7693 35.2285H9.83228V41.2285H33.7693V35.2285ZM8.80078 34.197V10.26H2.80078V34.197H8.80078ZM9.83228 35.2285C9.2626 35.2285 8.80078 34.7667 8.80078 34.197H2.80078C2.80078 38.0804 5.94889 41.2285 9.83228 41.2285V35.2285ZM34.8008 34.197C34.8008 34.7667 34.339 35.2285 33.7693 35.2285V41.2285C37.6527 41.2285 40.8008 38.0804 40.8008 34.197H34.8008ZM33.7693 9.22852C34.339 9.22852 34.8008 9.69033 34.8008 10.26H40.8008C40.8008 6.37662 37.6527 3.22852 33.7693 3.22852V9.22852ZM9.83228 3.22852C5.94889 3.22852 2.80078 6.37662 2.80078 10.26H8.80078C8.80078 9.69033 9.2626 9.22852 9.83228 9.22852V3.22852Z" fill="#29292D" mask="url(#path-1-inside-1_13378_16787)"/>
<line x1="5.80078" y1="16.7285" x2="37.8008" y2="16.7285" stroke="#29292D" stroke-width="3"/>
<defs>
<linearGradient id="paint0_linear_13378_16787" x1="5.80078" y1="6.22852" x2="13.869" y2="44.6289" gradientUnits="userSpaceOnUse">
<stop offset="0.0127869" stop-color="white"/>
<stop offset="1" stop-color="#31CEFF"/>
</linearGradient>
</defs>
</svg>
