<svg width="155" height="55" viewBox="0 0 155 55" fill="none" xmlns="http://www.w3.org/2000/svg">
<g filter="url(#filter0_di_9875_23544)">
<path d="M13.3998 50.5132C13.0175 50.5132 12.6444 50.5083 12.2651 50.4998C11.4793 50.4895 10.6953 50.4211 9.91964 50.2951C9.19634 50.1705 8.49565 49.9388 7.8407 49.6076C7.19175 49.2791 6.59986 48.8484 6.08769 48.3319C5.56811 47.8215 5.13554 47.2296 4.80712 46.5795C4.47507 45.9252 4.24528 45.2239 4.12574 44.5C3.99665 43.7221 3.9268 42.9356 3.91681 42.1472C3.90885 41.8825 3.89844 41.0014 3.89844 41.0014V12.0139C3.89844 12.0139 3.90953 11.1463 3.91687 10.8914C3.92644 10.1042 3.99588 9.31892 4.12458 8.54227C4.24434 7.81637 4.47432 7.11304 4.80654 6.45661C5.13376 5.80699 5.56393 5.21461 6.08037 4.70241C6.59624 4.18534 7.19003 3.7524 7.84008 3.41937C8.49354 3.0892 9.19289 2.85912 9.91473 2.73682C10.693 2.60953 11.4797 2.54072 12.2682 2.53095L13.4005 2.51562H142.358L143.504 2.53156C144.285 2.54085 145.065 2.60905 145.836 2.73559C146.565 2.85942 147.272 3.09111 147.933 3.42305C149.235 4.09419 150.295 5.15601 150.963 6.45967C151.29 7.11157 151.517 7.80917 151.635 8.5288C151.765 9.31182 151.838 10.1033 151.853 10.8969C151.857 11.2523 151.857 11.634 151.857 12.0139C151.867 12.4845 151.867 12.9324 151.867 13.3839V39.646C151.867 40.1019 151.867 40.5468 151.857 40.9952C151.857 41.4033 151.857 41.7771 151.852 42.1619C151.837 42.9413 151.765 43.7187 151.637 44.4877C151.52 45.2168 151.292 45.9236 150.96 46.5833C150.629 47.2263 150.199 47.8131 149.685 48.3221C149.173 48.8413 148.58 49.2746 147.929 49.6052C147.27 49.939 146.564 50.1715 145.836 50.2951C145.06 50.4218 144.276 50.4902 143.491 50.4998C143.123 50.5083 142.738 50.5132 142.365 50.5132L141.004 50.5157L13.3998 50.5132Z" fill="white"/>
<path d="M34.1694 26.3771C34.1834 25.288 34.4727 24.22 35.0104 23.2727C35.548 22.3255 36.3165 21.5295 37.2444 20.9591C36.655 20.1172 35.8773 19.4244 34.9733 18.9356C34.0692 18.4469 33.0636 18.1757 32.0364 18.1435C29.8451 17.9135 27.7208 19.4547 26.6042 19.4547C25.466 19.4547 23.7468 18.1664 21.8954 18.2044C20.698 18.2431 19.5309 18.5913 18.5081 19.2152C17.4852 19.839 16.6413 20.7171 16.0587 21.764C13.5351 26.1334 15.4175 32.5549 17.835 36.0868C19.0445 37.8162 20.458 39.7481 22.3077 39.6796C24.1177 39.6045 24.7937 38.5254 26.9784 38.5254C29.143 38.5254 29.7772 39.6796 31.6643 39.636C33.6065 39.6045 34.8302 37.8989 35.9973 36.153C36.8663 34.9207 37.5351 33.5588 37.9787 32.1176C36.8503 31.6404 35.8874 30.8415 35.21 29.8207C34.5326 28.7999 34.1707 27.6022 34.1694 26.3771Z" fill="black"/>
<path d="M30.6046 15.8201C31.6636 14.5488 32.1853 12.9148 32.0589 11.2651C30.4411 11.4351 28.9466 12.2083 27.8734 13.4308C27.3486 14.028 26.9467 14.7227 26.6906 15.4754C26.4345 16.228 26.3293 17.0237 26.3809 17.817C27.1902 17.8254 27.9907 17.65 28.7223 17.3041C29.4539 16.9582 30.0975 16.4508 30.6046 15.8201Z" fill="black"/>
<path d="M55.8848 35.4737H49.9451L48.5187 39.6855H46.0029L51.6289 24.1029H54.2427L59.8686 39.6855H57.3099L55.8848 35.4737ZM50.5603 33.5302H55.2684L52.9475 26.6947H52.8825L50.5603 33.5302Z" fill="black"/>
<path d="M72.0191 34.0053C72.0191 37.5358 70.1295 39.804 67.2779 39.804C66.5555 39.8418 65.8372 39.6754 65.205 39.3239C64.5728 38.9724 64.0524 38.4499 63.7033 37.8164H63.6494V43.4435H61.3174V28.3242H63.5746V30.2138H63.6175C63.9826 29.5833 64.5118 29.0636 65.1488 28.7099C65.7858 28.3562 66.5068 28.1819 67.235 28.2053C70.1184 28.2054 72.0191 30.4846 72.0191 34.0053ZM69.6221 34.0053C69.6221 31.7052 68.4335 30.193 66.6198 30.193C64.8381 30.193 63.6396 31.737 63.6396 34.0053C63.6396 36.2944 64.8381 37.8274 66.6198 37.8274C68.4335 37.8274 69.6221 36.3263 69.6221 34.0053H69.6221Z" fill="black"/>
<path d="M84.5236 34.0053C84.5236 37.5358 82.6334 39.804 79.7818 39.804C79.0594 39.8418 78.3411 39.6754 77.7089 39.3239C77.0767 38.9724 76.5563 38.4499 76.2072 37.8164H76.1533V43.4435H73.8213V28.3242H76.0785V30.2138H76.1214C76.4865 29.5833 77.0157 29.0636 77.6527 28.7099C78.2897 28.3562 79.0107 28.1819 79.7389 28.2053C82.6223 28.2054 84.5236 30.4846 84.5236 34.0053ZM82.126 34.0053C82.126 31.7052 80.9374 30.193 79.1237 30.193C77.342 30.193 76.1435 31.737 76.1435 34.0053C76.1435 36.2944 77.342 37.8274 79.1237 37.8274C80.9374 37.8274 82.126 36.3263 82.126 34.0053Z" fill="black"/>
<path d="M92.7866 35.3438C92.9594 36.8891 94.4606 37.9037 96.5119 37.9037C98.4775 37.9037 99.8916 36.8891 99.8916 35.4957C99.8916 34.2862 99.0387 33.562 97.0192 33.0657L94.9997 32.5792C92.1384 31.8881 90.81 30.5499 90.81 28.3784C90.81 25.6899 93.153 23.8431 96.4788 23.8431C99.7728 23.8431 102.03 25.6899 102.106 28.3784H99.7519C99.611 26.8234 98.3255 25.8847 96.4469 25.8847C94.5684 25.8847 93.2829 26.8344 93.2829 28.2167C93.2829 29.3184 94.1039 29.9666 96.1124 30.4629L97.8292 30.8844C101.026 31.6405 102.354 32.9248 102.354 35.204C102.354 38.1193 100.033 39.9452 96.3391 39.9452C92.8834 39.9452 90.5501 38.1622 90.3994 35.3437L92.7866 35.3438Z" fill="black"/>
<path d="M107.389 25.6368V28.3254H109.55V30.1722H107.389V36.4353C107.389 37.4083 107.822 37.8617 108.772 37.8617C109.028 37.8572 109.284 37.8392 109.539 37.8078V39.6434C109.112 39.7232 108.678 39.7594 108.244 39.7513C105.943 39.7513 105.046 38.8874 105.046 36.684V30.1722H103.395V28.3254H105.046V25.6368H107.389Z" fill="black"/>
<path d="M110.799 34.0064C110.799 30.4319 112.904 28.1857 116.187 28.1857C119.481 28.1857 121.576 30.4318 121.576 34.0064C121.576 37.5908 119.492 39.8272 116.187 39.8272C112.883 39.8272 110.799 37.5908 110.799 34.0064ZM119.2 34.0064C119.2 31.5544 118.077 30.1071 116.187 30.1071C114.297 30.1071 113.174 31.5654 113.174 34.0064C113.174 36.4683 114.297 37.9045 116.187 37.9045C118.077 37.9045 119.2 36.4683 119.2 34.0064H119.2Z" fill="black"/>
<path d="M123.5 28.3242H125.724V30.2579H125.778C125.929 29.654 126.282 29.1203 126.78 28.7465C127.278 28.3727 127.889 28.1816 128.511 28.2053C128.78 28.2044 129.048 28.2336 129.31 28.2924V30.4736C128.971 30.3699 128.617 30.3223 128.262 30.3327C127.923 30.319 127.585 30.3787 127.272 30.5078C126.958 30.6369 126.677 30.8323 126.446 31.0806C126.215 31.329 126.041 31.6243 125.935 31.9464C125.829 32.2685 125.794 32.6096 125.832 32.9465V39.6852H123.5L123.5 28.3242Z" fill="black"/>
<path d="M140.061 36.3495C139.747 38.4119 137.739 39.8272 135.169 39.8272C131.864 39.8272 129.812 37.6129 129.812 34.0604C129.812 30.4968 131.875 28.1857 135.071 28.1857C138.214 28.1857 140.191 30.3449 140.191 33.7895V34.5885H132.167V34.7295C132.13 35.1476 132.182 35.5688 132.32 35.9651C132.458 36.3614 132.679 36.7238 132.968 37.0282C133.257 37.3325 133.608 37.5719 133.997 37.7304C134.385 37.8889 134.803 37.9629 135.223 37.9474C135.774 37.9991 136.327 37.8714 136.8 37.5835C137.272 37.2956 137.639 36.8628 137.846 36.3495L140.061 36.3495ZM132.178 32.9587H137.857C137.878 32.5828 137.821 32.2066 137.69 31.8537C137.559 31.5008 137.356 31.1789 137.094 30.9081C136.832 30.6374 136.518 30.4236 136.169 30.2803C135.821 30.137 135.447 30.0672 135.071 30.0753C134.691 30.073 134.315 30.146 133.963 30.29C133.612 30.4339 133.292 30.6461 133.023 30.9142C132.754 31.1822 132.541 31.5009 132.396 31.8519C132.251 32.2028 132.177 32.579 132.178 32.9587V32.9587Z" fill="black"/>
<path d="M50.269 12.374C50.7579 12.3389 51.2485 12.4128 51.7054 12.5902C52.1623 12.7677 52.5741 13.0444 52.9111 13.4003C53.2482 13.7562 53.502 14.1824 53.6543 14.6483C53.8067 15.1142 53.8537 15.6081 53.7921 16.0944C53.7921 18.4864 52.4993 19.8614 50.269 19.8614H47.5645V12.374H50.269ZM48.7274 18.8025H50.1391C50.4884 18.8234 50.838 18.7661 51.1625 18.6348C51.4869 18.5036 51.778 18.3016 52.0145 18.0436C52.251 17.7857 52.427 17.4782 52.5298 17.1437C52.6325 16.8091 52.6593 16.4559 52.6083 16.1096C52.6556 15.7648 52.6261 15.4137 52.5218 15.0816C52.4175 14.7495 52.241 14.4445 52.005 14.1886C51.769 13.9327 51.4794 13.7322 51.1568 13.6014C50.8342 13.4706 50.4866 13.4128 50.1391 13.4321H48.7274V18.8025Z" fill="black"/>
<path d="M55.1054 17.0347C55.0699 16.6634 55.1123 16.2887 55.2301 15.9347C55.3478 15.5808 55.5383 15.2554 55.7892 14.9793C56.0401 14.7033 56.3459 14.4827 56.687 14.3318C57.0281 14.1809 57.397 14.1029 57.7701 14.1029C58.1431 14.1029 58.512 14.1809 58.8531 14.3318C59.1943 14.4827 59.5001 14.7033 59.751 14.9793C60.0019 15.2554 60.1923 15.5808 60.3101 15.9347C60.4278 16.2887 60.4703 16.6634 60.4348 17.0347C60.471 17.4064 60.429 17.7816 60.3115 18.1361C60.1941 18.4906 60.0038 18.8166 59.7528 19.0932C59.5019 19.3698 59.1958 19.5908 58.8543 19.7421C58.5129 19.8933 58.1435 19.9715 57.7701 19.9715C57.3966 19.9715 57.0273 19.8933 56.6858 19.7421C56.3443 19.5908 56.0383 19.3698 55.7873 19.0932C55.5364 18.8166 55.346 18.4906 55.2286 18.1361C55.1112 17.7816 55.0692 17.4064 55.1054 17.0347ZM59.2878 17.0347C59.2878 15.8099 58.7375 15.0936 57.7719 15.0936C56.8026 15.0936 56.2573 15.8099 56.2573 17.0347C56.2573 18.2693 56.8026 18.9801 57.7719 18.9801C58.7376 18.98 59.2878 18.2644 59.2878 17.0347H59.2878Z" fill="black"/>
<path d="M67.5193 19.8614H66.3625L65.1947 15.6998H65.1065L63.9435 19.8614H62.7978L61.2402 14.2109H62.3713L63.3835 18.5226H63.4668L64.6286 14.2109H65.6984L66.8601 18.5226H66.9483L67.9556 14.2109H69.0707L67.5193 19.8614Z" fill="black"/>
<path d="M70.3809 14.2106H71.4543V15.1082H71.5377C71.679 14.7858 71.9175 14.5156 72.2197 14.3351C72.522 14.1546 72.873 14.073 73.2239 14.1015C73.4988 14.0808 73.7749 14.1223 74.0316 14.2228C74.2883 14.3233 74.5192 14.4803 74.707 14.6821C74.8948 14.884 75.0348 15.1255 75.1167 15.3888C75.1985 15.652 75.22 15.9304 75.1796 16.2031V19.861H74.0645V16.4831C74.0645 15.5751 73.6699 15.1235 72.8452 15.1235C72.6585 15.1148 72.4722 15.1466 72.299 15.2167C72.1257 15.2867 71.9697 15.3934 71.8415 15.5294C71.7134 15.6654 71.6161 15.8275 71.5565 16.0046C71.4969 16.1817 71.4762 16.3696 71.496 16.5554V19.861H70.3809L70.3809 14.2106Z" fill="black"/>
<path d="M76.9561 12.0052H78.0712V19.8615H76.9561V12.0052Z" fill="black"/>
<path d="M79.6219 17.0328C79.5865 16.6615 79.629 16.2868 79.7467 15.9328C79.8645 15.5789 80.055 15.2534 80.3059 14.9774C80.5568 14.7013 80.8627 14.4808 81.2038 14.3298C81.545 14.1789 81.9139 14.101 82.2869 14.101C82.66 14.101 83.0289 14.1789 83.3701 14.3298C83.7112 14.4808 84.0171 14.7013 84.268 14.9774C84.5189 15.2534 84.7094 15.5789 84.8271 15.9328C84.9449 16.2868 84.9874 16.6615 84.9519 17.0328C84.9881 17.4046 84.9461 17.7797 84.8286 18.1343C84.7111 18.4888 84.5208 18.8148 84.2698 19.0914C84.0188 19.368 83.7127 19.589 83.3713 19.7402C83.0298 19.8915 82.6604 19.9696 82.2869 19.9696C81.9135 19.9696 81.5441 19.8915 81.2026 19.7402C80.8611 19.589 80.5551 19.368 80.3041 19.0914C80.0531 18.8148 79.8628 18.4888 79.7453 18.1343C79.6278 17.7797 79.5858 17.4046 79.6219 17.0328ZM83.8043 17.0328C83.8043 15.808 83.2541 15.0918 82.2885 15.0918C81.3192 15.0918 80.7739 15.808 80.7739 17.0328C80.7739 18.2675 81.3192 18.9782 82.2885 18.9782C83.2541 18.9782 83.8043 18.2625 83.8043 17.0328H83.8043Z" fill="black"/>
<path d="M86.126 18.2645C86.126 17.2473 86.8833 16.661 88.2276 16.5776L89.7581 16.4894V16.0017C89.7581 15.4049 89.3636 15.0679 88.6013 15.0679C87.9788 15.0679 87.5475 15.2965 87.4237 15.696H86.3441C86.4581 14.7254 87.371 14.1029 88.6528 14.1029C90.0694 14.1029 90.8684 14.8081 90.8684 16.0017V19.8624H89.7949V19.0683H89.7067C89.5276 19.3532 89.2761 19.5854 88.9779 19.7412C88.6798 19.8971 88.3456 19.971 88.0095 19.9555C87.7723 19.9802 87.5325 19.9549 87.3057 19.8812C87.0789 19.8076 86.87 19.6872 86.6925 19.5279C86.5151 19.3685 86.373 19.1738 86.2754 18.9562C86.1778 18.7386 86.1269 18.5029 86.126 18.2645ZM89.7581 17.7816V17.3092L88.3783 17.3975C87.6002 17.4495 87.2472 17.7142 87.2472 18.2124C87.2472 18.7209 87.6884 19.0169 88.295 19.0169C88.4728 19.0348 88.6523 19.0169 88.823 18.9641C88.9936 18.9113 89.1519 18.8247 89.2884 18.7094C89.4249 18.5942 89.5369 18.4526 89.6176 18.2932C89.6983 18.1339 89.7461 17.9599 89.7581 17.7816Z" fill="black"/>
<path d="M92.334 17.0338C92.334 15.2484 93.2518 14.1173 94.6795 14.1173C95.0326 14.101 95.3831 14.1856 95.6899 14.3611C95.9967 14.5367 96.2473 14.7959 96.4122 15.1086H96.4955V12.0052H97.6107V19.8615H96.5421V18.9687H96.4539C96.2762 19.2793 96.0169 19.5353 95.7041 19.7091C95.3914 19.8829 95.037 19.9678 94.6795 19.9546C93.242 19.9546 92.334 18.8235 92.334 17.0338ZM93.4859 17.0338C93.4859 18.2323 94.0509 18.9534 94.9957 18.9534C95.9355 18.9534 96.5164 18.2219 96.5164 17.0387C96.5164 15.8611 95.9294 15.1191 94.9957 15.1191C94.0569 15.1191 93.4859 15.8451 93.4859 17.0338H93.4859Z" fill="black"/>
<path d="M102.225 17.0347C102.189 16.6634 102.231 16.2887 102.349 15.9347C102.467 15.5808 102.657 15.2554 102.908 14.9793C103.159 14.7033 103.465 14.4827 103.806 14.3318C104.147 14.1809 104.516 14.1029 104.889 14.1029C105.262 14.1029 105.631 14.1809 105.972 14.3318C106.313 14.4827 106.619 14.7033 106.87 14.9793C107.121 15.2554 107.311 15.5808 107.429 15.9347C107.547 16.2887 107.589 16.6634 107.554 17.0347C107.59 17.4064 107.548 17.7816 107.431 18.1361C107.313 18.4906 107.123 18.8166 106.872 19.0932C106.621 19.3698 106.315 19.5908 105.973 19.7421C105.632 19.8933 105.263 19.9715 104.889 19.9715C104.516 19.9715 104.146 19.8933 103.805 19.7421C103.463 19.5908 103.157 19.3698 102.906 19.0932C102.655 18.8166 102.465 18.4906 102.348 18.1361C102.23 17.7816 102.188 17.4064 102.225 17.0347ZM106.407 17.0347C106.407 15.8099 105.857 15.0936 104.891 15.0936C103.922 15.0936 103.376 15.8099 103.376 17.0347C103.376 18.2693 103.922 18.9801 104.891 18.9801C105.857 18.98 106.407 18.2644 106.407 17.0347Z" fill="black"/>
<path d="M109.05 14.2106H110.123V15.1082H110.207C110.348 14.7858 110.586 14.5156 110.889 14.3351C111.191 14.1546 111.542 14.073 111.893 14.1015C112.168 14.0808 112.444 14.1223 112.701 14.2228C112.957 14.3233 113.188 14.4803 113.376 14.6821C113.564 14.884 113.704 15.1255 113.786 15.3888C113.867 15.652 113.889 15.9304 113.849 16.2031V19.861H112.733V16.4831C112.733 15.5751 112.339 15.1235 111.514 15.1235C111.327 15.1148 111.141 15.1466 110.968 15.2167C110.795 15.2867 110.639 15.3934 110.51 15.5294C110.382 15.6654 110.285 15.8275 110.225 16.0046C110.166 16.1817 110.145 16.3696 110.165 16.5554V19.861H109.05V14.2106Z" fill="black"/>
<path d="M120.15 12.8042V14.2367H121.374V15.176H120.15V18.0815C120.15 18.6734 120.394 18.9326 120.949 18.9326C121.091 18.9321 121.233 18.9235 121.374 18.9068V19.8357C121.174 19.8715 120.971 19.8906 120.768 19.8927C119.528 19.8927 119.034 19.4564 119.034 18.367V15.176H118.137V14.2367H119.034V12.8042H120.15Z" fill="black"/>
<path d="M122.897 12.0052H124.003V15.1191H124.091C124.239 14.7937 124.484 14.5219 124.793 14.3407C125.101 14.1596 125.458 14.0779 125.814 14.1069C126.087 14.092 126.361 14.1376 126.615 14.2406C126.868 14.3435 127.096 14.5012 127.282 14.7024C127.468 14.9036 127.607 15.1434 127.69 15.4046C127.772 15.6657 127.796 15.9419 127.76 16.2134V19.8615H126.644V16.4885C126.644 15.5859 126.223 15.1289 125.435 15.1289C125.244 15.1131 125.051 15.1395 124.871 15.2061C124.69 15.2726 124.526 15.3778 124.391 15.5143C124.255 15.6507 124.151 15.8151 124.086 15.996C124.021 16.1769 123.996 16.3698 124.013 16.5614V19.8614H122.898L122.897 12.0052Z" fill="black"/>
<path d="M134.261 18.3349C134.11 18.8513 133.782 19.298 133.334 19.5969C132.886 19.8957 132.348 20.0276 131.813 19.9696C131.441 19.9794 131.071 19.9081 130.729 19.7607C130.387 19.6132 130.081 19.3931 129.833 19.1156C129.584 18.8381 129.399 18.5099 129.291 18.1537C129.182 17.7976 129.152 17.422 129.203 17.0531C129.153 16.6831 129.184 16.3067 129.292 15.9495C129.401 15.5923 129.585 15.2625 129.832 14.9826C130.079 14.7027 130.383 14.4791 130.724 14.327C131.065 14.1749 131.435 14.0979 131.808 14.101C133.38 14.101 134.329 15.1752 134.329 16.9495V17.3386H130.339V17.4011C130.321 17.6085 130.347 17.8172 130.415 18.0139C130.483 18.2106 130.591 18.3909 130.733 18.5433C130.875 18.6957 131.047 18.8169 131.238 18.8989C131.429 18.981 131.636 19.0222 131.844 19.0199C132.11 19.0519 132.381 19.0039 132.62 18.8819C132.859 18.7599 133.057 18.5695 133.188 18.3349L134.261 18.3349ZM130.339 16.5139H133.193C133.207 16.3243 133.181 16.1338 133.117 15.9547C133.053 15.7756 132.952 15.6119 132.821 15.474C132.69 15.3362 132.532 15.2272 132.357 15.1542C132.181 15.0812 131.992 15.0458 131.802 15.0501C131.609 15.0477 131.418 15.0839 131.239 15.1566C131.06 15.2294 130.898 15.3371 130.762 15.4735C130.625 15.6099 130.518 15.7723 130.445 15.9509C130.372 16.1296 130.336 16.321 130.339 16.5139H130.339Z" fill="black"/>
</g>
<defs>
<filter id="filter0_di_9875_23544" x="0.898438" y="0.515625" width="153.968" height="54" filterUnits="userSpaceOnUse" color-interpolation-filters="sRGB">
<feFlood flood-opacity="0" result="BackgroundImageFix"/>
<feColorMatrix in="SourceAlpha" type="matrix" values="0 0 0 0 0 0 0 0 0 0 0 0 0 0 0 0 0 0 127 0" result="hardAlpha"/>
<feOffset dy="1"/>
<feGaussianBlur stdDeviation="1.5"/>
<feComposite in2="hardAlpha" operator="out"/>
<feColorMatrix type="matrix" values="0 0 0 0 0.184314 0 0 0 0 0.168627 0 0 0 0 0.262745 0 0 0 0.1 0"/>
<feBlend mode="normal" in2="BackgroundImageFix" result="effect1_dropShadow_9875_23544"/>
<feBlend mode="normal" in="SourceGraphic" in2="effect1_dropShadow_9875_23544" result="shape"/>
<feColorMatrix in="SourceAlpha" type="matrix" values="0 0 0 0 0 0 0 0 0 0 0 0 0 0 0 0 0 0 127 0" result="hardAlpha"/>
<feOffset dy="-1"/>
<feComposite in2="hardAlpha" operator="arithmetic" k2="-1" k3="1"/>
<feColorMatrix type="matrix" values="0 0 0 0 0.184314 0 0 0 0 0.168627 0 0 0 0 0.262745 0 0 0 0.1 0"/>
<feBlend mode="normal" in2="shape" result="effect2_innerShadow_9875_23544"/>
</filter>
</defs>
</svg>
