<svg width="155" height="55" viewBox="0 0 155 55" fill="none" xmlns="http://www.w3.org/2000/svg">
<path d="M13.4457 50.5132C13.0634 50.5132 12.6903 50.5083 12.311 50.4998C11.5252 50.4895 10.7412 50.4211 9.96554 50.2951C9.24224 50.1705 8.54155 49.9388 7.8866 49.6076C7.23765 49.2791 6.64575 48.8484 6.13359 48.3319C5.61401 47.8215 5.18144 47.2296 4.85301 46.5795C4.52097 45.9252 4.29118 45.2239 4.17164 44.5C4.04255 43.7221 3.9727 42.9356 3.96271 42.1472C3.95475 41.8825 3.94434 41.0014 3.94434 41.0014V12.0139C3.94434 12.0139 3.95543 11.1463 3.96277 10.8914C3.97234 10.1042 4.04178 9.31892 4.17048 8.54227C4.29024 7.81637 4.52021 7.11304 4.85244 6.45661C5.17965 5.80699 5.60983 5.21461 6.12627 4.70241C6.64214 4.18534 7.23593 3.7524 7.88598 3.41937C8.53943 3.0892 9.23879 2.85912 9.96063 2.73682C10.7389 2.60953 11.5256 2.54072 12.3141 2.53095L13.4464 2.51562H142.404L143.55 2.53156C144.331 2.54085 145.111 2.60905 145.882 2.73559C146.611 2.85942 147.318 3.09111 147.979 3.42305C149.281 4.09419 150.341 5.15601 151.009 6.45967C151.336 7.11157 151.563 7.80917 151.681 8.5288C151.811 9.31182 151.884 10.1033 151.899 10.8969C151.902 11.2523 151.902 11.634 151.902 12.0139C151.912 12.4845 151.912 12.9324 151.912 13.3839V39.646C151.912 40.1019 151.912 40.5468 151.902 40.9952C151.902 41.4033 151.902 41.7771 151.898 42.1619C151.883 42.9413 151.811 43.7187 151.683 44.4877C151.566 45.2168 151.338 45.9236 151.006 46.5833C150.675 47.2263 150.245 47.8131 149.731 48.3221C149.218 48.8413 148.626 49.2746 147.975 49.6052C147.316 49.939 146.61 50.1715 145.882 50.2951C145.106 50.4218 144.322 50.4902 143.536 50.4998C143.169 50.5083 142.784 50.5132 142.41 50.5132L141.05 50.5157L13.4457 50.5132Z" fill="white"/>
<path d="M34.2153 26.3771C34.2293 25.288 34.5186 24.22 35.0563 23.2727C35.5939 22.3255 36.3624 21.5295 37.2903 20.9591C36.7009 20.1172 35.9232 19.4244 35.0192 18.9356C34.1151 18.4469 33.1095 18.1757 32.0823 18.1435C29.891 17.9135 27.7667 19.4547 26.6501 19.4547C25.5119 19.4547 23.7927 18.1664 21.9413 18.2044C20.7439 18.2431 19.5768 18.5913 18.554 19.2152C17.5311 19.839 16.6872 20.7171 16.1046 21.764C13.581 26.1334 15.4634 32.5549 17.8809 36.0868C19.0904 37.8162 20.5039 39.7481 22.3536 39.6796C24.1636 39.6045 24.8396 38.5254 27.0243 38.5254C29.1889 38.5254 29.8231 39.6796 31.7102 39.636C33.6524 39.6045 34.8761 37.8989 36.0432 36.153C36.9122 34.9207 37.581 33.5588 38.0246 32.1176C36.8962 31.6404 35.9333 30.8415 35.2559 29.8207C34.5785 28.7999 34.2166 27.6022 34.2153 26.3771Z" fill="black"/>
<path d="M30.6505 15.8201C31.7095 14.5488 32.2312 12.9148 32.1048 11.2651C30.487 11.4351 28.9925 12.2083 27.9193 13.4308C27.3945 14.028 26.9926 14.7227 26.7365 15.4754C26.4804 16.228 26.3752 17.0237 26.4268 17.817C27.2361 17.8254 28.0366 17.65 28.7682 17.3041C29.4998 16.9582 30.1434 16.4508 30.6505 15.8201Z" fill="black"/>
<path d="M55.9307 35.4737H49.991L48.5646 39.6855H46.0488L51.6748 24.1029H54.2886L59.9145 39.6855H57.3558L55.9307 35.4737ZM50.6062 33.5302H55.3143L52.9934 26.6947H52.9284L50.6062 33.5302Z" fill="black"/>
<path d="M72.0645 34.0053C72.0645 37.5358 70.1749 39.804 67.3233 39.804C66.601 39.8418 65.8826 39.6754 65.2504 39.3239C64.6182 38.9724 64.0978 38.4499 63.7487 37.8164H63.6948V43.4435H61.3628V28.3242H63.62V30.2138H63.6629C64.028 29.5833 64.5572 29.0636 65.1942 28.7099C65.8312 28.3562 66.5522 28.1819 67.2804 28.2053C70.1638 28.2054 72.0645 30.4846 72.0645 34.0053ZM69.6675 34.0053C69.6675 31.7052 68.4789 30.193 66.6652 30.193C64.8835 30.193 63.685 31.737 63.685 34.0053C63.685 36.2944 64.8835 37.8274 66.6652 37.8274C68.4789 37.8274 69.6675 36.3263 69.6675 34.0053H69.6675Z" fill="black"/>
<path d="M84.5695 34.0053C84.5695 37.5358 82.6793 39.804 79.8277 39.804C79.1053 39.8418 78.387 39.6754 77.7548 39.3239C77.1226 38.9724 76.6022 38.4499 76.2531 37.8164H76.1992V43.4435H73.8672V28.3242H76.1244V30.2138H76.1673C76.5324 29.5833 77.0616 29.0636 77.6986 28.7099C78.3356 28.3562 79.0566 28.1819 79.7848 28.2053C82.6682 28.2054 84.5695 30.4846 84.5695 34.0053ZM82.1719 34.0053C82.1719 31.7052 80.9833 30.193 79.1696 30.193C77.3879 30.193 76.1894 31.737 76.1894 34.0053C76.1894 36.2944 77.3879 37.8274 79.1696 37.8274C80.9833 37.8274 82.1719 36.3263 82.1719 34.0053Z" fill="black"/>
<path d="M92.8325 35.3438C93.0053 36.8891 94.5065 37.9037 96.5578 37.9037C98.5234 37.9037 99.9375 36.8891 99.9375 35.4957C99.9375 34.2862 99.0846 33.562 97.0651 33.0657L95.0456 32.5792C92.1843 31.8881 90.8559 30.5499 90.8559 28.3784C90.8559 25.6899 93.1989 23.8431 96.5247 23.8431C99.8187 23.8431 102.076 25.6899 102.152 28.3784H99.7978C99.6569 26.8234 98.3714 25.8847 96.4928 25.8847C94.6143 25.8847 93.3288 26.8344 93.3288 28.2167C93.3288 29.3184 94.1498 29.9666 96.1583 30.4629L97.8751 30.8844C101.072 31.6405 102.399 32.9248 102.399 35.204C102.399 38.1193 100.078 39.9452 96.385 39.9452C92.9292 39.9452 90.596 38.1622 90.4453 35.3437L92.8325 35.3438Z" fill="black"/>
<path d="M107.435 25.6368V28.3254H109.595V30.1722H107.435V36.4353C107.435 37.4083 107.867 37.8617 108.817 37.8617C109.074 37.8572 109.33 37.8392 109.584 37.8078V39.6434C109.157 39.7232 108.723 39.7594 108.289 39.7513C105.989 39.7513 105.092 38.8874 105.092 36.684V30.1722H103.44V28.3254H105.092V25.6368H107.435Z" fill="black"/>
<path d="M110.845 34.0064C110.845 30.4319 112.95 28.1857 116.233 28.1857C119.527 28.1857 121.623 30.4318 121.623 34.0064C121.623 37.5908 119.538 39.8272 116.233 39.8272C112.93 39.8272 110.845 37.5908 110.845 34.0064ZM119.247 34.0064C119.247 31.5544 118.123 30.1071 116.233 30.1071C114.344 30.1071 113.22 31.5654 113.22 34.0064C113.22 36.4683 114.344 37.9045 116.233 37.9045C118.123 37.9045 119.247 36.4683 119.247 34.0064H119.247Z" fill="black"/>
<path d="M123.546 28.3242H125.77V30.2579H125.824C125.975 29.654 126.328 29.1203 126.826 28.7465C127.324 28.3727 127.935 28.1816 128.557 28.2053C128.825 28.2044 129.093 28.2336 129.356 28.2924V30.4736C129.016 30.3699 128.663 30.3223 128.308 30.3327C127.969 30.319 127.631 30.3787 127.318 30.5078C127.004 30.6369 126.723 30.8323 126.492 31.0806C126.261 31.329 126.086 31.6243 125.98 31.9464C125.875 32.2685 125.84 32.6096 125.878 32.9465V39.6852H123.546L123.546 28.3242Z" fill="black"/>
<path d="M140.107 36.3495C139.793 38.4119 137.785 39.8272 135.215 39.8272C131.91 39.8272 129.859 37.6129 129.859 34.0604C129.859 30.4968 131.921 28.1857 135.117 28.1857C138.26 28.1857 140.237 30.3449 140.237 33.7895V34.5885H132.213V34.7295C132.176 35.1476 132.228 35.5688 132.367 35.9651C132.505 36.3614 132.726 36.7238 133.015 37.0282C133.304 37.3325 133.654 37.5719 134.043 37.7304C134.432 37.8889 134.85 37.9629 135.269 37.9474C135.82 37.9991 136.373 37.8714 136.846 37.5835C137.319 37.2956 137.686 36.8628 137.893 36.3495L140.107 36.3495ZM132.224 32.9587H137.904C137.925 32.5828 137.868 32.2066 137.736 31.8537C137.605 31.5008 137.402 31.1789 137.141 30.9081C136.879 30.6374 136.564 30.4236 136.216 30.2803C135.868 30.137 135.494 30.0672 135.117 30.0753C134.737 30.073 134.361 30.146 134.01 30.29C133.658 30.4339 133.339 30.6461 133.07 30.9142C132.801 31.1822 132.588 31.5009 132.442 31.8519C132.297 32.2028 132.223 32.579 132.224 32.9587V32.9587Z" fill="black"/>
<path d="M50.3144 12.374C50.8033 12.3389 51.2939 12.4128 51.7508 12.5902C52.2077 12.7677 52.6195 13.0444 52.9565 13.4003C53.2936 13.7562 53.5474 14.1824 53.6997 14.6483C53.8521 15.1142 53.8991 15.6081 53.8375 16.0944C53.8375 18.4864 52.5447 19.8614 50.3144 19.8614H47.6099V12.374H50.3144ZM48.7728 18.8025H50.1845C50.5338 18.8234 50.8834 18.7661 51.2079 18.6348C51.5323 18.5036 51.8234 18.3016 52.0599 18.0436C52.2964 17.7857 52.4725 17.4782 52.5752 17.1437C52.6779 16.8091 52.7047 16.4559 52.6537 16.1096C52.701 15.7648 52.6715 15.4137 52.5672 15.0816C52.4629 14.7495 52.2864 14.4445 52.0504 14.1886C51.8144 13.9327 51.5248 13.7322 51.2022 13.6014C50.8796 13.4706 50.532 13.4128 50.1845 13.4321H48.7728V18.8025Z" fill="black"/>
<path d="M55.1508 17.0347C55.1153 16.6634 55.1577 16.2887 55.2755 15.9347C55.3933 15.5808 55.5837 15.2554 55.8346 14.9793C56.0855 14.7033 56.3913 14.4827 56.7324 14.3318C57.0736 14.1809 57.4425 14.1029 57.8155 14.1029C58.1885 14.1029 58.5574 14.1809 58.8985 14.3318C59.2397 14.4827 59.5455 14.7033 59.7964 14.9793C60.0473 15.2554 60.2377 15.5808 60.3555 15.9347C60.4732 16.2887 60.5157 16.6634 60.4802 17.0347C60.5164 17.4064 60.4744 17.7816 60.357 18.1361C60.2395 18.4906 60.0492 18.8166 59.7982 19.0932C59.5473 19.3698 59.2412 19.5908 58.8998 19.7421C58.5583 19.8933 58.1889 19.9715 57.8155 19.9715C57.442 19.9715 57.0727 19.8933 56.7312 19.7421C56.3897 19.5908 56.0837 19.3698 55.8327 19.0932C55.5818 18.8166 55.3914 18.4906 55.274 18.1361C55.1566 17.7816 55.1146 17.4064 55.1508 17.0347ZM59.3332 17.0347C59.3332 15.8099 58.7829 15.0936 57.8173 15.0936C56.848 15.0936 56.3027 15.8099 56.3027 17.0347C56.3027 18.2693 56.848 18.9801 57.8173 18.9801C58.783 18.98 59.3332 18.2644 59.3332 17.0347H59.3332Z" fill="black"/>
<path d="M67.5647 19.8614H66.4079L65.2401 15.6998H65.1519L63.9889 19.8614H62.8432L61.2856 14.2109H62.4167L63.4289 18.5226H63.5123L64.674 14.2109H65.7438L66.9055 18.5226H66.9937L68.001 14.2109H69.1161L67.5647 19.8614Z" fill="black"/>
<path d="M70.4258 14.2106H71.4993V15.1082H71.5826C71.724 14.7858 71.9624 14.5156 72.2646 14.3351C72.5669 14.1546 72.9179 14.073 73.2688 14.1015C73.5437 14.0808 73.8198 14.1223 74.0765 14.2228C74.3333 14.3233 74.5641 14.4803 74.7519 14.6821C74.9397 14.884 75.0798 15.1255 75.1616 15.3888C75.2434 15.652 75.2649 15.9304 75.2246 16.2031V19.861H74.1094V16.4831C74.1094 15.5751 73.7148 15.1235 72.8901 15.1235C72.7035 15.1148 72.5171 15.1466 72.3439 15.2167C72.1706 15.2867 72.0146 15.3934 71.8864 15.5294C71.7583 15.6654 71.6611 15.8275 71.6014 16.0046C71.5418 16.1817 71.5211 16.3696 71.5409 16.5554V19.861H70.4258L70.4258 14.2106Z" fill="black"/>
<path d="M77.002 12.0052H78.1171V19.8615H77.002V12.0052Z" fill="black"/>
<path d="M79.6669 17.0328C79.6314 16.6615 79.6739 16.2868 79.7917 15.9328C79.9094 15.5789 80.0999 15.2534 80.3508 14.9774C80.6017 14.7013 80.9076 14.4808 81.2487 14.3298C81.5899 14.1789 81.9588 14.101 82.3319 14.101C82.7049 14.101 83.0738 14.1789 83.415 14.3298C83.7561 14.4808 84.062 14.7013 84.3129 14.9774C84.5638 15.2534 84.7543 15.5789 84.8721 15.9328C84.9898 16.2868 85.0324 16.6615 84.9969 17.0328C85.033 17.4046 84.991 17.7797 84.8735 18.1343C84.756 18.4888 84.5657 18.8148 84.3147 19.0914C84.0637 19.368 83.7577 19.589 83.4162 19.7402C83.0747 19.8915 82.7053 19.9696 82.3319 19.9696C81.9584 19.9696 81.589 19.8915 81.2476 19.7402C80.9061 19.589 80.6 19.368 80.349 19.0914C80.098 18.8148 79.9077 18.4888 79.7902 18.1343C79.6727 17.7797 79.6307 17.4046 79.6669 17.0328ZM83.8492 17.0328C83.8492 15.808 83.299 15.0918 82.3334 15.0918C81.3641 15.0918 80.8188 15.808 80.8188 17.0328C80.8188 18.2675 81.3641 18.9782 82.3334 18.9782C83.299 18.9782 83.8492 18.2625 83.8492 17.0328H83.8492Z" fill="black"/>
<path d="M86.1714 18.2645C86.1714 17.2473 86.9287 16.661 88.273 16.5776L89.8036 16.4894V16.0017C89.8036 15.4049 89.409 15.0679 88.6468 15.0679C88.0242 15.0679 87.5929 15.2965 87.4691 15.696H86.3895C86.5035 14.7254 87.4164 14.1029 88.6982 14.1029C90.1148 14.1029 90.9138 14.8081 90.9138 16.0017V19.8624H89.8403V19.0683H89.7521C89.573 19.3532 89.3215 19.5854 89.0233 19.7412C88.7252 19.8971 88.391 19.971 88.0549 19.9555C87.8177 19.9802 87.5779 19.9549 87.3511 19.8812C87.1243 19.8076 86.9154 19.6872 86.7379 19.5279C86.5605 19.3685 86.4184 19.1738 86.3208 18.9562C86.2232 18.7386 86.1723 18.5029 86.1714 18.2645ZM89.8036 17.7816V17.3092L88.4237 17.3975C87.6456 17.4495 87.2926 17.7142 87.2926 18.2124C87.2926 18.7209 87.7338 19.0169 88.3404 19.0169C88.5182 19.0348 88.6977 19.0169 88.8684 18.9641C89.039 18.9113 89.1973 18.8247 89.3339 18.7094C89.4704 18.5942 89.5823 18.4526 89.663 18.2932C89.7437 18.1339 89.7915 17.9599 89.8036 17.7816Z" fill="black"/>
<path d="M92.3789 17.0338C92.3789 15.2484 93.2968 14.1173 94.7244 14.1173C95.0775 14.101 95.428 14.1856 95.7348 14.3611C96.0417 14.5367 96.2922 14.7959 96.4571 15.1086H96.5405V12.0052H97.6556V19.8615H96.587V18.9687H96.4988C96.3211 19.2793 96.0618 19.5353 95.7491 19.7091C95.4363 19.8829 95.0819 19.9678 94.7244 19.9546C93.287 19.9546 92.3789 18.8235 92.3789 17.0338ZM93.5308 17.0338C93.5308 18.2323 94.0958 18.9534 95.0406 18.9534C95.9805 18.9534 96.5613 18.2219 96.5613 17.0387C96.5613 15.8611 95.9744 15.1191 95.0406 15.1191C94.1019 15.1191 93.5308 15.8451 93.5308 17.0338H93.5308Z" fill="black"/>
<path d="M102.269 17.0347C102.234 16.6634 102.276 16.2887 102.394 15.9347C102.512 15.5808 102.702 15.2554 102.953 14.9793C103.204 14.7033 103.51 14.4827 103.851 14.3318C104.192 14.1809 104.561 14.1029 104.934 14.1029C105.307 14.1029 105.676 14.1809 106.017 14.3318C106.358 14.4827 106.664 14.7033 106.915 14.9793C107.166 15.2554 107.356 15.5808 107.474 15.9347C107.592 16.2887 107.634 16.6634 107.599 17.0347C107.635 17.4064 107.593 17.7816 107.476 18.1361C107.358 18.4906 107.168 18.8166 106.917 19.0932C106.666 19.3698 106.36 19.5908 106.018 19.7421C105.677 19.8933 105.308 19.9715 104.934 19.9715C104.561 19.9715 104.191 19.8933 103.85 19.7421C103.508 19.5908 103.202 19.3698 102.951 19.0932C102.7 18.8166 102.51 18.4906 102.393 18.1361C102.275 17.7816 102.233 17.4064 102.269 17.0347ZM106.452 17.0347C106.452 15.8099 105.902 15.0936 104.936 15.0936C103.967 15.0936 103.421 15.8099 103.421 17.0347C103.421 18.2693 103.967 18.9801 104.936 18.9801C105.902 18.98 106.452 18.2644 106.452 17.0347Z" fill="black"/>
<path d="M109.095 14.2106H110.168V15.1082H110.252C110.393 14.7858 110.631 14.5156 110.934 14.3351C111.236 14.1546 111.587 14.073 111.938 14.1015C112.213 14.0808 112.489 14.1223 112.745 14.2228C113.002 14.3233 113.233 14.4803 113.421 14.6821C113.609 14.884 113.749 15.1255 113.831 15.3888C113.912 15.652 113.934 15.9304 113.894 16.2031V19.861H112.778V16.4831C112.778 15.5751 112.384 15.1235 111.559 15.1235C111.372 15.1148 111.186 15.1466 111.013 15.2167C110.84 15.2867 110.684 15.3934 110.555 15.5294C110.427 15.6654 110.33 15.8275 110.27 16.0046C110.211 16.1817 110.19 16.3696 110.21 16.5554V19.861H109.095V14.2106Z" fill="black"/>
<path d="M120.196 12.8042V14.2367H121.42V15.176H120.196V18.0815C120.196 18.6734 120.439 18.9326 120.994 18.9326C121.137 18.9321 121.279 18.9235 121.42 18.9068V19.8357C121.219 19.8715 121.017 19.8906 120.813 19.8927C119.573 19.8927 119.079 19.4564 119.079 18.367V15.176H118.182V14.2367H119.079V12.8042H120.196Z" fill="black"/>
<path d="M122.943 12.0052H124.048V15.1191H124.136C124.285 14.7937 124.53 14.5219 124.838 14.3407C125.146 14.1596 125.503 14.0779 125.859 14.1069C126.133 14.092 126.406 14.1376 126.66 14.2406C126.914 14.3435 127.142 14.5012 127.328 14.7024C127.514 14.9036 127.653 15.1434 127.735 15.4046C127.818 15.6657 127.842 15.9419 127.805 16.2134V19.8615H126.689V16.4885C126.689 15.5859 126.269 15.1289 125.481 15.1289C125.289 15.1131 125.096 15.1395 124.916 15.2061C124.736 15.2726 124.572 15.3778 124.436 15.5143C124.301 15.6507 124.197 15.8151 124.131 15.996C124.066 16.1769 124.041 16.3698 124.058 16.5614V19.8614H122.943L122.943 12.0052Z" fill="black"/>
<path d="M134.307 18.3349C134.156 18.8513 133.828 19.298 133.38 19.5969C132.932 19.8957 132.394 20.0276 131.859 19.9696C131.487 19.9794 131.117 19.9081 130.775 19.7607C130.433 19.6132 130.127 19.3931 129.879 19.1156C129.63 18.8381 129.445 18.5099 129.337 18.1537C129.228 17.7976 129.198 17.422 129.249 17.0531C129.199 16.6831 129.23 16.3067 129.338 15.9495C129.447 15.5923 129.631 15.2625 129.878 14.9826C130.125 14.7027 130.429 14.4791 130.77 14.327C131.111 14.1749 131.481 14.0979 131.854 14.101C133.426 14.101 134.375 15.1752 134.375 16.9495V17.3386H130.385V17.4011C130.367 17.6085 130.393 17.8172 130.461 18.0139C130.529 18.2106 130.637 18.3909 130.779 18.5433C130.921 18.6957 131.093 18.8169 131.284 18.8989C131.475 18.981 131.681 19.0222 131.889 19.0199C132.156 19.0519 132.426 19.0039 132.666 18.8819C132.905 18.7599 133.103 18.5695 133.234 18.3349L134.307 18.3349ZM130.385 16.5139H133.239C133.253 16.3243 133.227 16.1338 133.163 15.9547C133.099 15.7756 132.998 15.6119 132.867 15.474C132.736 15.3362 132.578 15.2272 132.402 15.1542C132.227 15.0812 132.038 15.0458 131.848 15.0501C131.655 15.0477 131.464 15.0839 131.285 15.1566C131.106 15.2294 130.944 15.3371 130.808 15.4735C130.671 15.6099 130.564 15.7723 130.491 15.9509C130.418 16.1296 130.382 16.321 130.385 16.5139H130.385Z" fill="black"/>
</svg>
