<svg width="149" height="49" viewBox="0 0 149 49" fill="none" xmlns="http://www.w3.org/2000/svg">
<path d="M10.1811 48.5112C9.79877 48.5112 9.42568 48.5063 9.04636 48.4978C8.26056 48.4876 7.47659 48.4192 6.70089 48.2931C5.97759 48.1686 5.2769 47.9368 4.62195 47.6056C3.973 47.2771 3.38111 46.8464 2.86894 46.3299C2.34936 45.8196 1.91679 45.2276 1.58837 44.5776C1.25632 43.9233 1.02653 43.222 0.906989 42.498C0.777897 41.7202 0.708052 40.9337 0.698058 40.1452C0.690103 39.8806 0.679688 38.9994 0.679688 38.9994V10.012C0.679688 10.012 0.69078 9.14436 0.698121 8.88946C0.70769 8.10228 0.777128 7.31697 0.905834 6.54032C1.02559 5.81442 1.25557 5.11108 1.58779 4.45465C1.91501 3.80504 2.34518 3.21265 2.86162 2.70045C3.37749 2.18339 3.97128 1.75045 4.62133 1.41742C5.27479 1.08725 5.97414 0.857162 6.69598 0.734862C7.47423 0.607579 8.26092 0.538764 9.04944 0.528993L10.1817 0.513672H139.14L140.285 0.529608C141.067 0.538893 141.846 0.607095 142.617 0.733632C143.347 0.857466 144.053 1.08916 144.714 1.4211C146.016 2.09224 147.076 3.15406 147.745 4.45772C148.071 5.10961 148.298 5.80721 148.416 6.52684C148.546 7.30986 148.619 8.10135 148.634 8.89499C148.638 9.25036 148.638 9.63208 148.638 10.012C148.648 10.4825 148.648 10.9304 148.648 11.382V37.6441C148.648 38.1 148.648 38.5448 148.638 38.9933C148.638 39.4014 148.638 39.7752 148.633 40.1599C148.618 40.9394 148.547 41.7167 148.418 42.4857C148.301 43.2149 148.073 43.9217 147.741 44.5813C147.41 45.2243 146.98 45.8111 146.466 46.3202C145.954 46.8394 145.361 47.2726 144.71 47.6032C144.051 47.937 143.346 48.1696 142.617 48.2931C141.842 48.4198 141.058 48.4882 140.272 48.4978C139.904 48.5063 139.519 48.5112 139.146 48.5112L137.786 48.5137L10.1811 48.5112Z" fill="white" fill-opacity="0.1"/>
<path d="M30.9506 24.3742C30.9647 23.285 31.254 22.2171 31.7916 21.2698C32.3293 20.3225 33.0978 19.5266 34.0257 18.9561C33.4362 18.1143 32.6586 17.4215 31.7545 16.9327C30.8504 16.4439 29.8449 16.1727 28.8176 16.1406C26.6264 15.9106 24.5021 17.4518 23.3854 17.4518C22.2472 17.4518 20.528 16.1634 18.6767 16.2015C17.4792 16.2402 16.3122 16.5884 15.2893 17.2122C14.2664 17.8361 13.4226 18.7142 12.84 19.7611C10.3164 24.1305 12.1988 30.552 14.6162 34.0838C15.8257 35.8133 17.2393 37.7451 19.0889 37.6766C20.8989 37.6015 21.5749 36.5225 23.7597 36.5225C25.9242 36.5225 26.5584 37.6766 28.4456 37.6331C30.3878 37.6015 31.6115 35.8959 32.7786 34.1501C33.6476 32.9178 34.3163 31.5558 34.7599 30.1147C33.6316 29.6374 32.6687 28.8386 31.9913 27.8178C31.3139 26.797 30.9519 25.5993 30.9506 24.3742Z" fill="white"/>
<path d="M27.3858 13.8176C28.4448 12.5464 28.9665 10.9124 28.8402 9.2627C27.2223 9.43262 25.7279 10.2058 24.6546 11.4283C24.1299 12.0255 23.728 12.7203 23.4719 13.4729C23.2158 14.2256 23.1106 15.0213 23.1622 15.8146C23.9714 15.8229 24.772 15.6475 25.5036 15.3016C26.2352 14.9557 26.8788 14.4483 27.3858 13.8176Z" fill="white"/>
<path d="M52.666 33.4714H46.7264L45.3 37.6832H42.7842L48.4101 22.1006H51.0239L56.6499 37.6832H54.0912L52.666 33.4714ZM47.3415 31.5278H52.0497L49.7287 24.6924H49.6637L47.3415 31.5278Z" fill="white"/>
<path d="M68.8003 32.0032C68.8003 35.5337 66.9107 37.8019 64.0591 37.8019C63.3368 37.8397 62.6184 37.6733 61.9862 37.3218C61.354 36.9703 60.8336 36.4478 60.4846 35.8143H60.4306V41.4415H58.0986V26.3221H60.3559V28.2117H60.3988C60.7639 27.5812 61.2931 27.0615 61.9301 26.7078C62.5671 26.3542 63.288 26.1798 64.0162 26.2033C66.8997 26.2033 68.8003 28.4826 68.8003 32.0032ZM66.4034 32.0032C66.4034 29.7031 65.2147 28.1909 63.4011 28.1909C61.6193 28.1909 60.4208 29.735 60.4208 32.0032C60.4208 34.2923 61.6193 35.8253 63.4011 35.8253C65.2147 35.8253 66.4033 34.3242 66.4033 32.0032H66.4034Z" fill="white"/>
<path d="M81.3048 32.0032C81.3048 35.5337 79.4146 37.8019 76.563 37.8019C75.8407 37.8397 75.1223 37.6733 74.4901 37.3218C73.8579 36.9703 73.3375 36.4478 72.9885 35.8143H72.9345V41.4415H70.6025V26.3221H72.8598V28.2117H72.9027C73.2678 27.5812 73.797 27.0615 74.434 26.7078C75.071 26.3542 75.7919 26.1798 76.5201 26.2033C79.4036 26.2033 81.3048 28.4826 81.3048 32.0032ZM78.9073 32.0032C78.9073 29.7031 77.7186 28.1909 75.905 28.1909C74.1232 28.1909 72.9248 29.735 72.9248 32.0032C72.9248 34.2923 74.1232 35.8253 75.905 35.8253C77.7186 35.8253 78.9073 34.3242 78.9073 32.0032Z" fill="white"/>
<path d="M89.5679 33.3415C89.7406 34.8868 91.2418 35.9014 93.2932 35.9014C95.2587 35.9014 96.6729 34.8867 96.6729 33.4934C96.6729 32.2839 95.82 31.5597 93.8005 31.0634L91.781 30.5769C88.9196 29.8858 87.5912 28.5476 87.5912 26.3761C87.5912 23.6875 89.9343 21.8408 93.2601 21.8408C96.554 21.8408 98.8113 23.6875 98.8872 26.3761H96.5332C96.3923 24.8211 95.1068 23.8824 93.2282 23.8824C91.3496 23.8824 90.0641 24.8321 90.0641 26.2144C90.0641 27.316 90.8852 27.9643 92.8937 28.4605L94.6105 28.8821C97.8076 29.6382 99.1348 30.9225 99.1348 33.2017C99.1348 36.117 96.8138 37.9429 93.1203 37.9429C89.6646 37.9429 87.3314 36.1599 87.1807 33.3414L89.5679 33.3415Z" fill="white"/>
<path d="M104.171 23.6348V26.3234H106.331V28.1701H104.171V34.4332C104.171 35.4062 104.603 35.8596 105.553 35.8596C105.809 35.8552 106.065 35.8372 106.32 35.8057V37.6414C105.893 37.7211 105.459 37.7573 105.025 37.7492C102.725 37.7492 101.828 36.8853 101.828 34.682V28.1701H100.176V26.3234H101.828V23.6348H104.171Z" fill="white"/>
<path d="M107.58 32.0044C107.58 28.4298 109.685 26.1836 112.968 26.1836C116.262 26.1836 118.358 28.4298 118.358 32.0044C118.358 35.5888 116.273 37.8252 112.968 37.8252C109.665 37.8252 107.58 35.5887 107.58 32.0044ZM115.982 32.0044C115.982 29.5523 114.858 28.1051 112.968 28.1051C111.079 28.1051 109.955 29.5633 109.955 32.0044C109.955 34.4663 111.079 35.9025 112.968 35.9025C114.858 35.9025 115.982 34.4663 115.982 32.0044H115.982Z" fill="white"/>
<path d="M120.281 26.322H122.505V28.2557H122.559C122.71 27.6518 123.064 27.1181 123.561 26.7443C124.059 26.3705 124.67 26.1794 125.292 26.2031C125.561 26.2022 125.829 26.2314 126.091 26.2902V28.4714C125.752 28.3677 125.398 28.3201 125.043 28.3305C124.704 28.3168 124.367 28.3765 124.053 28.5056C123.74 28.6347 123.458 28.8301 123.227 29.0784C122.996 29.3268 122.822 29.6221 122.716 29.9442C122.61 30.2663 122.575 30.6074 122.613 30.9443V37.683H120.281L120.281 26.322Z" fill="white"/>
<path d="M136.842 34.3474C136.528 36.4098 134.52 37.8252 131.95 37.8252C128.645 37.8252 126.594 35.6108 126.594 32.0583C126.594 28.4948 128.656 26.1836 131.852 26.1836C134.995 26.1836 136.972 28.3428 136.972 31.7875V32.5865H128.948V32.7274C128.911 33.1455 128.963 33.5667 129.101 33.963C129.24 34.3594 129.461 34.7217 129.75 35.0261C130.039 35.3304 130.389 35.5698 130.778 35.7283C131.167 35.8868 131.585 35.9608 132.004 35.9453C132.555 35.997 133.108 35.8693 133.581 35.5814C134.054 35.2935 134.421 34.8607 134.628 34.3474L136.842 34.3474ZM128.959 30.9566H134.639C134.66 30.5807 134.603 30.2045 134.471 29.8516C134.34 29.4987 134.137 29.1768 133.875 28.9061C133.614 28.6353 133.299 28.4216 132.951 28.2782C132.603 28.1349 132.228 28.0651 131.852 28.0732C131.472 28.0709 131.096 28.1439 130.744 28.2879C130.393 28.4319 130.074 28.644 129.805 28.9121C129.536 29.1802 129.322 29.4989 129.177 29.8498C129.032 30.2007 128.958 30.5769 128.959 30.9566V30.9566Z" fill="white"/>
<path d="M47.0502 10.3718C47.5391 10.3367 48.0297 10.4106 48.4866 10.588C48.9435 10.7655 49.3553 11.0422 49.6924 11.3981C50.0294 11.754 50.2832 12.1802 50.4356 12.6461C50.5879 13.112 50.635 13.6059 50.5733 14.0922C50.5733 16.4842 49.2805 17.8592 47.0502 17.8592H44.3457V10.3718H47.0502ZM45.5086 16.8003H46.9203C47.2697 16.8212 47.6193 16.7639 47.9437 16.6326C48.2681 16.5014 48.5592 16.2994 48.7957 16.0414C49.0323 15.7835 49.2083 15.4761 49.311 15.1415C49.4137 14.8069 49.4406 14.4537 49.3896 14.1074C49.4369 13.7626 49.4073 13.4115 49.303 13.0794C49.1987 12.7473 49.0223 12.4423 48.7863 12.1864C48.5503 11.9305 48.2606 11.73 47.938 11.5992C47.6154 11.4684 47.2679 11.4106 46.9203 11.4299H45.5086V16.8003Z" fill="white"/>
<path d="M51.8866 15.0324C51.8511 14.661 51.8936 14.2864 52.0113 13.9324C52.1291 13.5785 52.3195 13.253 52.5704 12.977C52.8213 12.701 53.1271 12.4804 53.4683 12.3295C53.8094 12.1785 54.1783 12.1006 54.5513 12.1006C54.9243 12.1006 55.2933 12.1785 55.6344 12.3295C55.9755 12.4804 56.2813 12.701 56.5322 12.977C56.7831 13.253 56.9736 13.5785 57.0913 13.9324C57.2091 14.2864 57.2515 14.661 57.216 15.0324C57.2522 15.4041 57.2102 15.7792 57.0928 16.1338C56.9754 16.4883 56.785 16.8143 56.5341 17.0909C56.2831 17.3675 55.9771 17.5885 55.6356 17.7398C55.2941 17.891 54.9248 17.9692 54.5513 17.9692C54.1779 17.9692 53.8085 17.891 53.467 17.7398C53.1256 17.5885 52.8195 17.3675 52.5686 17.0909C52.3176 16.8143 52.1273 16.4883 52.0098 16.1338C51.8924 15.7792 51.8504 15.4041 51.8866 15.0324ZM56.069 15.0324C56.069 13.8076 55.5188 13.0913 54.5532 13.0913C53.5838 13.0913 53.0386 13.8076 53.0386 15.0324C53.0386 16.267 53.5839 16.9777 54.5532 16.9777C55.5188 16.9777 56.069 16.2621 56.069 15.0324H56.069Z" fill="white"/>
<path d="M64.3006 17.8594H63.1438L61.9759 13.6979H61.8877L60.7248 17.8594H59.579L58.0215 12.209H59.1526L60.1648 16.5206H60.2481L61.4098 12.209H62.4796L63.6413 16.5206H63.7295L64.7368 12.209H65.852L64.3006 17.8594Z" fill="white"/>
<path d="M67.1621 12.2084H68.2356V13.106H68.3189C68.4603 12.7836 68.6987 12.5134 69.001 12.3329C69.3032 12.1524 69.6542 12.0708 70.0051 12.0993C70.28 12.0786 70.5561 12.1201 70.8128 12.2206C71.0696 12.3211 71.3004 12.4781 71.4882 12.6799C71.6761 12.8818 71.8161 13.1233 71.8979 13.3866C71.9797 13.6498 72.0012 13.9282 71.9609 14.2009V17.8588H70.8458V14.4809C70.8458 13.5729 70.4512 13.1213 69.6265 13.1213C69.4398 13.1126 69.2534 13.1444 69.0802 13.2145C68.907 13.2845 68.7509 13.3912 68.6228 13.5272C68.4946 13.6632 68.3974 13.8253 68.3378 14.0024C68.2781 14.1795 68.2575 14.3674 68.2772 14.5532V17.8588H67.1621L67.1621 12.2084Z" fill="white"/>
<path d="M73.7373 10.0029H74.8525V17.8591H73.7373V10.0029Z" fill="white"/>
<path d="M76.4032 15.0305C76.3677 14.6592 76.4102 14.2845 76.528 13.9305C76.6458 13.5766 76.8362 13.2511 77.0872 12.9751C77.3381 12.699 77.6439 12.4785 77.9851 12.3275C78.3262 12.1766 78.6952 12.0986 79.0682 12.0986C79.4412 12.0986 79.8102 12.1766 80.1513 12.3275C80.4925 12.4785 80.7983 12.699 81.0492 12.9751C81.3002 13.2511 81.4906 13.5766 81.6084 13.9305C81.7262 14.2845 81.7687 14.6592 81.7332 15.0305C81.7693 15.4022 81.7273 15.7774 81.6098 16.1319C81.4924 16.4865 81.302 16.8125 81.051 17.0891C80.8001 17.3656 80.494 17.5866 80.1525 17.7379C79.811 17.8891 79.4417 17.9673 79.0682 17.9673C78.6947 17.9673 78.3254 17.8891 77.9839 17.7379C77.6424 17.5866 77.3363 17.3656 77.0853 17.0891C76.8344 16.8125 76.644 16.4865 76.5265 16.1319C76.4091 15.7774 76.367 15.4022 76.4032 15.0305ZM80.5856 15.0305C80.5856 13.8057 80.0353 13.0894 79.0697 13.0894C78.1004 13.0894 77.5551 13.8057 77.5551 15.0305C77.5551 16.2651 78.1005 16.9759 79.0697 16.9759C80.0354 16.9759 80.5856 16.2602 80.5856 15.0305H80.5856Z" fill="white"/>
<path d="M82.9072 16.2621C82.9072 15.245 83.6645 14.6587 85.0088 14.5753L86.5394 14.4871V13.9994C86.5394 13.4026 86.1448 13.0656 85.3826 13.0656C84.7601 13.0656 84.3287 13.2942 84.205 13.6936H83.1254C83.2393 12.7231 84.1523 12.1006 85.4341 12.1006C86.8507 12.1006 87.6496 12.8058 87.6496 13.9994V17.8601H86.5762V17.066H86.4879C86.3088 17.3509 86.0574 17.5831 85.7592 17.7389C85.461 17.8948 85.1268 17.9687 84.7907 17.9532C84.5535 17.9779 84.3138 17.9526 84.0869 17.8789C83.8601 17.8052 83.6512 17.6849 83.4738 17.5255C83.2963 17.3662 83.1542 17.1715 83.0566 16.9539C82.9591 16.7363 82.9082 16.5006 82.9072 16.2621ZM86.5394 15.7793V15.3069L85.1596 15.3951C84.3814 15.4472 84.0285 15.7119 84.0285 16.21C84.0285 16.7186 84.4696 17.0145 85.0763 17.0145C85.254 17.0325 85.4336 17.0146 85.6042 16.9618C85.7749 16.9089 85.9332 16.8223 86.0697 16.7071C86.2062 16.5918 86.3181 16.4503 86.3988 16.2909C86.4795 16.1315 86.5273 15.9575 86.5394 15.7793Z" fill="white"/>
<path d="M89.1152 15.0315C89.1152 13.246 90.0331 12.115 91.4607 12.115C91.8138 12.0987 92.1643 12.1833 92.4711 12.3588C92.778 12.5344 93.0285 12.7936 93.1935 13.1063H93.2768V10.0029H94.3919V17.8591H93.3234V16.9664H93.2351C93.0574 17.277 92.7982 17.533 92.4854 17.7068C92.1726 17.8806 91.8183 17.9654 91.4607 17.9523C90.0233 17.9523 89.1152 16.8212 89.1152 15.0315ZM90.2672 15.0315C90.2672 16.23 90.8321 16.9511 91.7769 16.9511C92.7168 16.9511 93.2977 16.2196 93.2977 15.0364C93.2977 13.8588 92.7107 13.1168 91.7769 13.1168C90.8382 13.1168 90.2671 13.8428 90.2671 15.0315H90.2672Z" fill="white"/>
<path d="M99.0058 15.0324C98.9702 14.661 99.0127 14.2864 99.1305 13.9324C99.2482 13.5785 99.4387 13.253 99.6896 12.977C99.9405 12.701 100.246 12.4804 100.587 12.3295C100.929 12.1785 101.297 12.1006 101.67 12.1006C102.043 12.1006 102.412 12.1785 102.754 12.3295C103.095 12.4804 103.4 12.701 103.651 12.977C103.902 13.253 104.093 13.5785 104.21 13.9324C104.328 14.2864 104.371 14.661 104.335 15.0324C104.371 15.4041 104.329 15.7792 104.212 16.1338C104.094 16.4883 103.904 16.8143 103.653 17.0909C103.402 17.3675 103.096 17.5885 102.755 17.7398C102.413 17.891 102.044 17.9692 101.67 17.9692C101.297 17.9692 100.928 17.891 100.586 17.7398C100.245 17.5885 99.9387 17.3675 99.6877 17.0909C99.4367 16.8143 99.2464 16.4883 99.129 16.1338C99.0115 15.7792 98.9696 15.4041 99.0058 15.0324ZM103.188 15.0324C103.188 13.8076 102.638 13.0913 101.672 13.0913C100.703 13.0913 100.158 13.8076 100.158 15.0324C100.158 16.267 100.703 16.9777 101.672 16.9777C102.638 16.9777 103.188 16.2621 103.188 15.0324Z" fill="white"/>
<path d="M105.831 12.2084H106.905V13.106H106.988C107.129 12.7836 107.368 12.5134 107.67 12.3329C107.972 12.1524 108.323 12.0708 108.674 12.0993C108.949 12.0786 109.225 12.1201 109.482 12.2206C109.739 12.3211 109.969 12.4781 110.157 12.6799C110.345 12.8818 110.485 13.1233 110.567 13.3866C110.649 13.6498 110.67 13.9282 110.63 14.2009V17.8588H109.515V14.4809C109.515 13.5729 109.12 13.1213 108.295 13.1213C108.109 13.1126 107.922 13.1444 107.749 13.2145C107.576 13.2845 107.42 13.3912 107.292 13.5272C107.164 13.6632 107.066 13.8253 107.007 14.0024C106.947 14.1795 106.926 14.3674 106.946 14.5532V17.8588H105.831V12.2084Z" fill="white"/>
<path d="M116.931 10.8018V12.2343H118.156V13.1736H116.931V16.0791C116.931 16.6709 117.175 16.9301 117.73 16.9301C117.872 16.9297 118.014 16.9211 118.156 16.9044V17.8333C117.955 17.8691 117.752 17.8881 117.549 17.8902C116.309 17.8902 115.815 17.454 115.815 16.3646V13.1735H114.918V12.2342H115.815V10.8018H116.931Z" fill="white"/>
<path d="M119.679 10.0029H120.784V13.1167H120.872C121.021 12.7913 121.265 12.5196 121.574 12.3384C121.882 12.1573 122.239 12.0756 122.595 12.1045C122.869 12.0897 123.142 12.1353 123.396 12.2383C123.65 12.3412 123.878 12.4989 124.064 12.7001C124.249 12.9013 124.389 13.1411 124.471 13.4022C124.554 13.6634 124.578 13.9396 124.541 14.2111V17.8592H123.425V14.4862C123.425 13.5836 123.005 13.1265 122.217 13.1265C122.025 13.1108 121.832 13.1372 121.652 13.2037C121.471 13.2703 121.308 13.3755 121.172 13.5119C121.037 13.6484 120.933 13.8128 120.867 13.9937C120.802 14.1745 120.777 14.3675 120.794 14.5591V17.8591H119.679L119.679 10.0029Z" fill="white"/>
<path d="M131.043 16.3326C130.891 16.849 130.563 17.2957 130.115 17.5945C129.668 17.8934 129.129 18.0253 128.594 17.9673C128.222 17.9771 127.852 17.9058 127.51 17.7583C127.168 17.6109 126.862 17.3907 126.614 17.1132C126.366 16.8358 126.181 16.5075 126.072 16.1514C125.963 15.7952 125.933 15.4197 125.984 15.0508C125.934 14.6808 125.965 14.3044 126.074 13.9472C126.182 13.5899 126.366 13.2602 126.613 12.9803C126.86 12.7004 127.164 12.4768 127.505 12.3247C127.846 12.1726 128.216 12.0955 128.589 12.0987C130.162 12.0987 131.11 13.1729 131.11 14.9472V15.3363H127.12V15.3988C127.103 15.6062 127.129 15.8149 127.197 16.0116C127.264 16.2083 127.373 16.3886 127.514 16.541C127.656 16.6934 127.828 16.8145 128.019 16.8966C128.211 16.9787 128.417 17.0199 128.625 17.0176C128.892 17.0496 129.162 17.0015 129.401 16.8796C129.641 16.7576 129.838 16.5672 129.969 16.3325L131.043 16.3326ZM127.12 14.5116H129.974C129.988 14.322 129.962 14.1315 129.898 13.9524C129.834 13.7733 129.734 13.6096 129.603 13.4717C129.472 13.3339 129.313 13.2249 129.138 13.1519C128.962 13.0789 128.773 13.0435 128.583 13.0478C128.39 13.0454 128.199 13.0816 128.02 13.1543C127.842 13.227 127.679 13.3348 127.543 13.4712C127.407 13.6076 127.299 13.7699 127.226 13.9486C127.154 14.1273 127.118 14.3187 127.12 14.5116H127.12Z" fill="white"/>
</svg>
