<svg width="24" height="25" viewBox="0 0 24 25" fill="none" xmlns="http://www.w3.org/2000/svg">
<path d="M5 7.29199C5.53043 7.29199 6.03914 7.08128 6.41421 6.70621C6.78929 6.33113 7 5.82243 7 5.29199C7 4.76156 6.78929 4.25285 6.41421 3.87778C6.03914 3.50271 5.53043 3.29199 5 3.29199C4.46957 3.29199 3.96086 3.50271 3.58579 3.87778C3.21071 4.25285 3 4.76156 3 5.29199C3 5.82243 3.21071 6.33113 3.58579 6.70621C3.96086 7.08128 4.46957 7.29199 5 7.29199ZM19 7.29199C19.5304 7.29199 20.0391 7.08128 20.4142 6.70621C20.7893 6.33113 21 5.82243 21 5.29199C21 4.76156 20.7893 4.25285 20.4142 3.87778C20.0391 3.50271 19.5304 3.29199 19 3.29199C18.4696 3.29199 17.9609 3.50271 17.5858 3.87778C17.2107 4.25285 17 4.76156 17 5.29199C17 5.82243 17.2107 6.33113 17.5858 6.70621C17.9609 7.08128 18.4696 7.29199 19 7.29199ZM21 19.292C21 19.8224 20.7893 20.3311 20.4142 20.7062C20.0391 21.0813 19.5304 21.292 19 21.292C18.4696 21.292 17.9609 21.0813 17.5858 20.7062C17.2107 20.3311 17 19.8224 17 19.292C17 18.7616 17.2107 18.2529 17.5858 17.8778C17.9609 17.5027 18.4696 17.292 19 17.292C19.5304 17.292 20.0391 17.5027 20.4142 17.8778C20.7893 18.2529 21 18.7616 21 19.292ZM5 21.292C5.53043 21.292 6.03914 21.0813 6.41421 20.7062C6.78929 20.3311 7 19.8224 7 19.292C7 18.7616 6.78929 18.2529 6.41421 17.8778C6.03914 17.5027 5.53043 17.292 5 17.292C4.46957 17.292 3.96086 17.5027 3.58579 17.8778C3.21071 18.2529 3 18.7616 3 19.292C3 19.8224 3.21071 20.3311 3.58579 20.7062C3.96086 21.0813 4.46957 21.292 5 21.292Z" fill="#3668DD"/>
<path d="M7.959 5.79199C8.043 5.28904 7.99827 4.773 7.829 4.29199H12.5C13.163 4.29199 13.7989 4.55538 14.2678 5.02423C14.7366 5.49307 15 6.12895 15 6.79199V9.29199H17.5C18.163 9.29199 18.7989 9.55538 19.2678 10.0242C19.7366 10.4931 20 11.129 20 11.792V16.462C19.5191 16.2921 19.0028 16.2477 18.5 16.333V11.792C18.5 11.5268 18.3946 11.2724 18.2071 11.0849C18.0196 10.8973 17.7652 10.792 17.5 10.792H15V12.792C15 13.455 14.7366 14.0909 14.2678 14.5598C13.7989 15.0286 13.163 15.292 12.5 15.292H10.5V17.792C10.5 18.0572 10.6054 18.3116 10.7929 18.4991C10.9804 18.6866 11.2348 18.792 11.5 18.792H16.041C15.9569 19.2949 16.0016 19.811 16.171 20.292H11.5C10.837 20.292 10.2011 20.0286 9.73223 19.5598C9.26339 19.0909 9 18.455 9 17.792V15.292H6.5C5.83696 15.292 5.20107 15.0286 4.73223 14.5598C4.26339 14.0909 4 13.455 4 12.792V8.12199C4.48086 8.29201 4.99717 8.33641 5.5 8.25099V12.792C5.5 13.0572 5.60536 13.3116 5.79289 13.4991C5.98043 13.6866 6.23478 13.792 6.5 13.792H9V11.792C9 11.129 9.26339 10.4931 9.73223 10.0242C10.2011 9.55538 10.837 9.29199 11.5 9.29199H13.5V6.79199C13.5 6.52678 13.3946 6.27242 13.2071 6.08489C13.0196 5.89735 12.7652 5.79199 12.5 5.79199H7.959ZM12.5 13.792C12.7652 13.792 13.0196 13.6866 13.2071 13.4991C13.3946 13.3116 13.5 13.0572 13.5 12.792V10.792H11.5C11.2348 10.792 10.9804 10.8973 10.7929 11.0849C10.6054 11.2724 10.5 11.5268 10.5 11.792V13.792H12.5Z" fill="#3668DD"/>
</svg>
