<svg width="43" height="43" viewBox="0 0 43 43" fill="none" xmlns="http://www.w3.org/2000/svg">
<path d="M34.6602 33.9731C34.621 33.9493 34.5829 33.9235 34.5462 33.896L30.4426 30.8099C28.1661 29.0979 25.3949 28.1722 22.5466 28.1722H13.3455C7.42332 28.1722 2.62248 23.3713 2.62248 17.4492C2.62248 11.527 7.42332 6.7262 13.3455 6.7262H29.0272C33.4275 6.7262 37.372 9.43989 38.9452 13.5494L39.3639 14.6433C40.4837 17.5684 39.9303 20.8706 37.9181 23.2709L35.138 26.5873C35.0173 26.7312 35.0117 26.9393 35.1245 27.0895L37.7407 30.5721C39.2856 32.6286 36.859 35.3076 34.6602 33.9731Z" fill="url(#paint0_linear_13378_16776)" stroke="#0C0C0D" stroke-width="2.7727" stroke-linecap="round" stroke-linejoin="round"/>
<defs>
<linearGradient id="paint0_linear_13378_16776" x1="39.5918" y1="8.11255" x2="34.2435" y2="41.3737" gradientUnits="userSpaceOnUse">
<stop offset="0.0127869" stop-color="white"/>
<stop offset="1" stop-color="#31CEFF"/>
</linearGradient>
</defs>
</svg>
