<svg width="21" height="20" viewBox="0 0 21 20" fill="none" xmlns="http://www.w3.org/2000/svg">
<g clip-path="url(#clip0_8287_3070)">
<path d="M19.2156 6.0673L16.8797 8.40323C16.4078 13.8735 11.7945 18.1251 6.27342 18.1251C5.13904 18.1251 4.20388 17.9454 3.49373 17.5907C2.92107 17.304 2.6867 16.997 2.6281 16.9095C2.57586 16.8311 2.54199 16.742 2.52904 16.6487C2.51609 16.5554 2.52438 16.4604 2.55331 16.3708C2.58223 16.2812 2.63103 16.1992 2.69607 16.1311C2.7611 16.063 2.84069 16.0105 2.92888 15.9775C2.9492 15.9696 4.82263 15.2501 6.01248 13.8806C5.35262 13.3381 4.7766 12.701 4.3031 11.99C3.33435 10.5517 2.24998 8.05323 2.58435 4.31964C2.59495 4.201 2.63923 4.08787 2.71197 3.99355C2.78471 3.89924 2.88289 3.82767 2.99494 3.78728C3.107 3.74689 3.22826 3.73937 3.34444 3.76558C3.46063 3.7918 3.56691 3.85067 3.65076 3.93527C3.6781 3.96261 6.25076 6.5212 9.39607 7.35089V6.87511C9.39487 6.3762 9.49352 5.88209 9.68619 5.42188C9.87886 4.96167 10.1617 4.54467 10.5179 4.19542C10.864 3.8499 11.2757 3.57717 11.7288 3.39335C12.1819 3.20952 12.6673 3.11831 13.1562 3.12511C13.8121 3.13158 14.4552 3.30765 15.0229 3.63621C15.5906 3.96476 16.0637 4.43462 16.3961 5.00011H18.7734C18.8971 5.00001 19.018 5.03661 19.1209 5.10528C19.2238 5.17395 19.304 5.2716 19.3513 5.38587C19.3986 5.50013 19.411 5.62587 19.3869 5.74718C19.3627 5.86848 19.3031 5.97989 19.2156 6.0673Z" fill="#51545A"/>
</g>
<defs>
<clipPath id="clip0_8287_3070">
<rect width="20" height="20" fill="white" transform="translate(0.0234375)"/>
</clipPath>
</defs>
</svg>
