<svg width="24" height="25" viewBox="0 0 24 25" fill="none" xmlns="http://www.w3.org/2000/svg">
<path d="M18.9958 11.5C19.5087 11.5 19.9313 11.886 19.9891 12.3834L19.9958 12.5V18.5C19.9958 20.6422 18.3119 22.3911 16.1955 22.4951L15.9958 22.5H8C5.8578 22.5 4.10892 20.816 4.0049 18.6996L4 18.5V12.5C4 11.9477 4.44772 11.5 5 11.5C5.51284 11.5 5.93551 11.886 5.99327 12.3834L6 12.5V18.5C6 19.5544 6.81588 20.4182 7.85074 20.4945L8 20.5H15.9958C17.0502 20.5 17.914 19.6841 17.9903 18.6493L17.9958 18.5V12.5C17.9958 11.9477 18.4435 11.5 18.9958 11.5ZM6.28871 7.78943L11.2864 2.79282C11.6467 2.43257 12.2135 2.40471 12.6058 2.70933L12.7 2.79241L17.7035 7.78902C18.0943 8.17928 18.0947 8.81245 17.7044 9.20324C17.3442 9.56397 16.777 9.59208 16.3845 9.28733L16.2902 9.2042L12.996 5.915L12.9963 15.7549C12.9963 16.2678 12.6103 16.6905 12.1129 16.7482L11.9963 16.7549C11.4835 16.7549 11.0608 16.3689 11.003 15.8716L10.9963 15.7549L10.996 5.91L7.70278 9.20379C7.34226 9.56424 6.77503 9.59191 6.38277 9.28685L6.28857 9.20365C5.92812 8.84313 5.90045 8.27589 6.20551 7.88363L6.28871 7.78943L11.2864 2.79282L6.28871 7.78943Z" fill="#676B73"/>
</svg>
