<svg width="21" height="20" viewBox="0 0 21 20" fill="none" xmlns="http://www.w3.org/2000/svg">
<g clip-path="url(#clip0_8287_3539)">
<path d="M16.8984 1.875H3.14844C2.81692 1.875 2.49897 2.0067 2.26455 2.24112C2.03013 2.47554 1.89844 2.79348 1.89844 3.125V16.875C1.89844 17.2065 2.03013 17.5245 2.26455 17.7589C2.49897 17.9933 2.81692 18.125 3.14844 18.125H16.8984C17.23 18.125 17.5479 17.9933 17.7823 17.7589C18.0167 17.5245 18.1484 17.2065 18.1484 16.875V3.125C18.1484 2.79348 18.0167 2.47554 17.7823 2.24112C17.5479 2.0067 17.23 1.875 16.8984 1.875ZM7.52344 13.75C7.52344 13.9158 7.45759 14.0747 7.34038 14.1919C7.22317 14.3092 7.0642 14.375 6.89844 14.375C6.73268 14.375 6.57371 14.3092 6.4565 14.1919C6.33929 14.0747 6.27344 13.9158 6.27344 13.75V8.75C6.27344 8.58424 6.33929 8.42527 6.4565 8.30806C6.57371 8.19085 6.73268 8.125 6.89844 8.125C7.0642 8.125 7.22317 8.19085 7.34038 8.30806C7.45759 8.42527 7.52344 8.58424 7.52344 8.75V13.75ZM6.89844 7.5C6.71302 7.5 6.53176 7.44502 6.37759 7.342C6.22342 7.23899 6.10326 7.09257 6.0323 6.92127C5.96134 6.74996 5.94278 6.56146 5.97895 6.3796C6.01512 6.19775 6.10441 6.0307 6.23552 5.89959C6.36664 5.76848 6.53368 5.67919 6.71554 5.64301C6.8974 5.60684 7.0859 5.62541 7.2572 5.69636C7.42851 5.76732 7.57493 5.88748 7.67794 6.04165C7.78095 6.19582 7.83594 6.37708 7.83594 6.5625C7.83594 6.81114 7.73717 7.0496 7.56135 7.22541C7.38553 7.40123 7.14708 7.5 6.89844 7.5ZM14.3984 13.75C14.3984 13.9158 14.3326 14.0747 14.2154 14.1919C14.0982 14.3092 13.9392 14.375 13.7734 14.375C13.6077 14.375 13.4487 14.3092 13.3315 14.1919C13.2143 14.0747 13.1484 13.9158 13.1484 13.75V10.9375C13.1484 10.5231 12.9838 10.1257 12.6908 9.83265C12.3978 9.53962 12.0003 9.375 11.5859 9.375C11.1715 9.375 10.7741 9.53962 10.4811 9.83265C10.1881 10.1257 10.0234 10.5231 10.0234 10.9375V13.75C10.0234 13.9158 9.95759 14.0747 9.84038 14.1919C9.72317 14.3092 9.5642 14.375 9.39844 14.375C9.23268 14.375 9.07371 14.3092 8.9565 14.1919C8.83929 14.0747 8.77344 13.9158 8.77344 13.75V8.75C8.77421 8.59691 8.83115 8.44943 8.93345 8.33553C9.03575 8.22164 9.17629 8.14925 9.32842 8.1321C9.48055 8.11495 9.63368 8.15423 9.75876 8.2425C9.88385 8.33076 9.97219 8.46186 10.007 8.61094C10.4298 8.32412 10.9228 8.15789 11.4329 8.13009C11.9431 8.1023 12.4512 8.21399 12.9026 8.45317C13.3541 8.69236 13.7319 9.05 13.9954 9.48769C14.2589 9.92538 14.3983 10.4266 14.3984 10.9375V13.75Z" fill="#51545A"/>
</g>
<defs>
<clipPath id="clip0_8287_3539">
<rect width="20" height="20" fill="white" transform="translate(0.0234375)"/>
</clipPath>
</defs>
</svg>
