<svg width="615" height="190" viewBox="0 0 615 190" fill="none" xmlns="http://www.w3.org/2000/svg">
<rect x="211.87" y="2.99146" width="186.26" height="186.26" rx="93.1299" fill="#C5EEE1"/>
<path d="M297.076 108.047L297.148 108.263L297.356 108.354C299.697 109.376 301.907 109.927 303.981 109.927C306.105 109.927 308.269 109.376 310.413 108.346L310.702 108.208V107.887C310.702 107.63 310.674 107.175 310.648 106.755L310.647 106.74C310.621 106.306 310.597 105.912 310.597 105.723C310.597 103.223 310.96 101.433 311.674 100.23L311.678 100.223L311.682 100.217C312.356 98.9987 313.742 97.6275 315.913 96.112L315.917 96.1091L321.395 92.2049C321.395 92.2047 321.396 92.2044 321.396 92.2042C328.04 87.5277 331.425 81.4154 331.425 73.9479C331.425 67.0067 329.022 61.4721 324.142 57.4051L324.14 57.403C319.27 53.3987 312.564 51.4282 304.085 51.4282C295.894 51.4282 288.862 54.1514 284.777 58.2276L284.777 58.2276L284.775 58.23C280.732 62.3173 278.468 67.2964 278.468 72.1532C278.468 73.7559 278.573 75.1113 278.791 76.2108L278.843 76.4729L279.088 76.5792C280.969 77.3945 282.865 77.8352 284.823 77.8352C287.45 77.8352 289.782 77.2932 291.698 76.2416L291.962 76.0966V75.7953C291.962 75.6525 291.938 75.3559 291.916 75.0695C291.913 75.0383 291.911 75.0073 291.908 74.9766C291.881 74.637 291.858 74.3186 291.858 74.159C291.858 71.3065 292.987 68.9703 295.218 67.1653C297.453 65.3577 300.46 64.4283 304.294 64.4283C307.136 64.4283 309.765 65.0421 312.4 66.4766C314.871 67.8489 316.521 70.6669 316.521 74.5285C316.521 76.8364 316.065 78.8035 315.126 80.4521C314.19 82.0971 312.435 83.8385 309.702 85.6639C309.701 85.6641 309.701 85.6643 309.701 85.6645L304.534 89.0946L304.534 89.0945L304.526 89.0999C299.145 92.8173 296.424 97.5011 296.424 103.031C296.424 105.015 296.636 106.71 297.076 108.047ZM295.015 136.971V137.291L295.304 137.43C297.48 138.475 300.223 139.011 303.563 139.011C306.804 139.011 309.689 138.473 312.212 137.442L312.528 137.313V136.971V123.036V122.691L312.208 122.563C309.888 121.636 307.001 121.154 303.667 121.154C300.334 121.154 297.548 121.636 295.327 122.566L295.015 122.697V123.036V136.971Z" fill="#C5EEE1" stroke="#9FE1CC" stroke-width="1.0184"/>
<g filter="url(#filter0_i_2570_10367)">
<path d="M390.147 96.122C390.147 143.148 352.025 181.269 304.999 181.269C257.974 181.269 219.852 143.148 219.852 96.122C219.852 49.0964 257.974 10.9746 304.999 10.9746C352.025 10.9746 390.147 49.0964 390.147 96.122ZM240.529 96.122C240.529 131.728 269.394 160.592 304.999 160.592C340.605 160.592 369.469 131.728 369.469 96.122C369.469 60.5162 340.605 31.652 304.999 31.652C269.394 31.652 240.529 60.5162 240.529 96.122Z" fill="#C5EEE1"/>
</g>
<g filter="url(#filter1_i_2570_10367)">
<path d="M398.13 96.1214C398.13 147.556 356.434 189.251 305 189.251C253.566 189.251 211.87 147.556 211.87 96.1214C211.87 44.6871 253.566 2.99146 305 2.99146C356.434 2.99146 398.13 44.6871 398.13 96.1214ZM232.31 96.1214C232.31 136.267 264.855 168.811 305 168.811C345.145 168.811 377.69 136.267 377.69 96.1214C377.69 55.9759 345.145 23.4316 305 23.4316C264.855 23.4316 232.31 55.9759 232.31 96.1214Z" fill="#C5EEE1"/>
</g>
<path fill-rule="evenodd" clip-rule="evenodd" d="M382.603 102.354C382.508 102.412 382.385 102.385 382.323 102.294L382.084 101.944C382.022 101.852 382.043 101.728 382.13 101.66C382.916 101.048 383.562 100.359 384.07 99.6198C385.961 96.8689 385.961 93.4072 384.07 90.6563C383.562 89.9175 382.916 89.2277 382.13 88.6157C382.043 88.5477 382.022 88.4239 382.084 88.3325L382.323 87.9823C382.385 87.8909 382.508 87.8643 382.603 87.9218L393.199 94.3518C393.791 94.7107 393.791 95.5654 393.199 95.9243L382.603 102.354Z" fill="#E5FFF7"/>
<path fill-rule="evenodd" clip-rule="evenodd" d="M216.538 102.354C216.444 102.412 216.32 102.385 216.258 102.294L216.019 101.944C215.957 101.852 215.978 101.728 216.065 101.66C216.851 101.048 217.497 100.359 218.005 99.6198C219.896 96.8689 219.896 93.4072 218.005 90.6563C217.497 89.9175 216.851 89.2277 216.065 88.6157C215.978 88.5477 215.957 88.4239 216.019 88.3325L216.258 87.9823C216.32 87.8909 216.444 87.8643 216.538 87.9218L227.134 94.3518C227.726 94.7107 227.726 95.5654 227.134 95.9243L216.538 102.354Z" fill="#E5FFF7"/>
<path d="M371.168 28.8325C371.724 28.276 371.725 27.3729 371.16 26.8248C362.554 18.4734 352.442 11.8238 341.355 7.23144C329.829 2.45724 317.476 -2.82564e-06 305 0C292.524 2.82564e-06 280.171 2.45725 268.645 7.23145C257.558 11.8238 247.446 18.4735 238.84 26.8248C238.275 27.3729 238.276 28.276 238.832 28.8325V28.8325C239.389 29.389 240.29 29.3881 240.856 28.8403C249.196 20.7534 258.995 14.3136 269.736 9.86451C280.916 5.23353 292.899 2.85 305 2.85C317.101 2.85 329.084 5.23352 340.264 9.86449C351.005 14.3136 360.804 20.7534 369.144 28.8403C369.709 29.3881 370.611 29.389 371.168 28.8325V28.8325Z" fill="#9FE1CC"/>
<path d="M260.136 166.728C259.951 167.022 259.562 167.11 259.269 166.922C250.524 161.312 242.892 154.134 236.755 145.75C236.55 145.469 236.614 145.076 236.896 144.872V144.872C237.178 144.669 237.572 144.733 237.777 145.014C243.819 153.266 251.333 160.333 259.941 165.857C260.234 166.045 260.322 166.433 260.136 166.728V166.728Z" fill="#79D4B7"/>
<path d="M349.489 166.728C349.675 167.022 350.064 167.11 350.357 166.922C359.101 161.312 366.734 154.134 372.87 145.75C373.076 145.469 373.012 145.076 372.729 144.872V144.872C372.447 144.669 372.054 144.733 371.848 145.014C365.806 153.266 358.292 160.333 349.684 165.857C349.392 166.045 349.304 166.433 349.489 166.728V166.728Z" fill="#79D4B7"/>
<path d="M269.544 175.119C268.833 174.832 268.347 174.475 268.089 174.049C267.814 173.607 267.788 173.133 268.01 172.62C268.133 172.618 268.275 172.647 268.427 172.709C268.556 172.76 268.672 172.835 268.773 172.926C268.651 173.228 268.658 173.494 268.797 173.727C268.963 173.999 269.29 174.233 269.782 174.431C270.3 174.639 270.7 174.694 270.988 174.593C271.245 174.511 271.427 174.344 271.528 174.094C271.627 173.846 271.621 173.627 271.505 173.435C271.388 173.246 271.161 173.037 270.827 172.812L270.138 172.342C269.703 172.053 269.433 171.794 269.243 171.454C269.053 171.114 269.052 170.716 269.239 170.252C269.425 169.787 269.743 169.478 270.191 169.323C270.657 169.172 271.217 169.229 271.871 169.492C272.522 169.753 272.97 170.087 273.218 170.498C273.451 170.887 273.493 171.274 273.34 171.653C273.325 171.691 273.296 171.754 273.249 171.841C273.139 171.848 273.023 171.825 272.897 171.775C272.762 171.72 272.635 171.645 272.52 171.548C272.539 171.512 272.557 171.476 272.572 171.439C272.648 171.249 272.613 170.975 272.48 170.768C272.33 170.523 272.07 170.328 271.701 170.179C271.196 169.976 270.872 169.928 270.579 170.003C270.308 170.079 270.121 170.24 270.019 170.495C269.843 170.932 270.04 171.314 270.592 171.693L271.467 172.286C271.899 172.574 272.172 172.853 272.349 173.196C272.526 173.539 272.528 173.937 272.348 174.384C272.154 174.865 271.814 175.181 271.33 175.329C270.843 175.472 270.249 175.402 269.544 175.119Z" fill="#79D4B7"/>
<path d="M276.649 176.994C276.174 177.263 275.629 177.294 275.012 177.089C274.395 176.884 273.977 176.533 273.758 176.033C273.534 175.535 273.539 174.944 273.765 174.261C273.992 173.578 274.342 173.106 274.819 172.841C275.292 172.575 275.837 172.544 276.454 172.749C277.071 172.954 277.49 173.305 277.709 173.801C277.929 174.298 277.926 174.886 277.7 175.568C277.473 176.251 277.122 176.727 276.649 176.994ZM275.244 176.461C275.621 176.587 275.964 176.551 276.267 176.347C276.568 176.147 276.801 175.805 276.961 175.323C277.121 174.841 277.139 174.428 277.019 174.084C276.899 173.74 276.645 173.505 276.268 173.38C275.876 173.25 275.523 173.282 275.21 173.482C274.893 173.681 274.657 174.022 274.497 174.504C274.337 174.986 274.322 175.401 274.458 175.746C274.588 176.093 274.852 176.331 275.244 176.461Z" fill="#79D4B7"/>
<path d="M283.021 174.731C283.148 174.765 283.28 174.823 283.416 174.905L282.317 179.027C282.196 179.04 282.074 179.03 281.943 178.995C281.781 178.952 281.663 178.898 281.593 178.834L281.769 178.174C281.593 178.38 281.368 178.528 281.092 178.617C280.815 178.705 280.515 178.709 280.187 178.621C279.562 178.454 279.184 178.142 279.05 177.682C279 177.514 278.981 177.346 278.986 177.17C278.992 176.994 279.04 176.742 279.129 176.411L279.789 173.937C279.938 173.931 280.077 173.946 280.208 173.981C280.338 174.015 280.474 174.074 280.611 174.156L279.93 176.708C279.834 177.068 279.835 177.348 279.93 177.543C280.029 177.766 280.255 177.925 280.608 178.019C280.866 178.088 281.12 178.072 281.362 177.956C281.605 177.839 281.815 177.562 281.923 177.156L282.584 174.683C282.743 174.68 282.89 174.696 283.021 174.731Z" fill="#79D4B7"/>
<path d="M284.633 179.595C284.48 179.562 284.345 179.51 284.237 179.442L285.468 173.759C285.574 173.733 285.715 173.738 285.883 173.774C286.047 173.81 286.181 173.865 286.285 173.936L285.054 179.619C284.927 179.636 284.787 179.628 284.633 179.595Z" fill="#79D4B7"/>
<path d="M294.874 178.133L294.867 178.188C295.134 178.285 295.357 178.442 295.537 178.672C295.714 178.904 295.801 179.254 295.75 179.649C295.684 180.164 295.468 180.552 295.1 180.814C294.731 181.076 294.255 181.169 293.671 181.094L290.777 180.722L291.526 174.904L294.257 175.255C294.808 175.326 295.225 175.52 295.508 175.836C295.788 176.152 295.9 176.542 295.84 177.006C295.797 177.343 295.658 177.619 295.466 177.794C295.274 177.968 295.088 178.069 294.874 178.133ZM294.029 175.915L292.315 175.694L292.078 177.542L293.671 177.747C293.845 177.769 294.003 177.778 294.255 177.733C294.379 177.713 294.491 177.675 294.589 177.625C294.779 177.525 294.959 177.301 295 176.982C295.035 176.711 294.977 176.475 294.822 176.278C294.666 176.085 294.402 175.963 294.029 175.915ZM291.75 180.085L293.627 180.326C294.395 180.425 294.788 180.089 294.863 179.506C294.935 179.058 294.728 178.781 294.5 178.63C294.352 178.527 294.113 178.466 293.973 178.434C293.901 178.421 293.822 178.407 293.732 178.395L291.996 178.172L291.75 180.085Z" fill="#79D4B7"/>
<path d="M300.424 181.131C300.033 181.511 299.513 181.679 298.865 181.637C298.216 181.595 297.722 181.361 297.384 180.933C297.042 180.508 296.896 179.935 296.943 179.217C296.989 178.499 297.208 177.953 297.602 177.576C297.992 177.199 298.512 177.032 299.161 177.074C299.809 177.116 300.303 177.349 300.642 177.774C300.98 178.198 301.126 178.768 301.079 179.486C301.033 180.204 300.814 180.753 300.424 181.131ZM298.93 180.971C299.327 180.997 299.65 180.875 299.891 180.602C300.131 180.332 300.27 179.942 300.303 179.435C300.336 178.929 300.249 178.524 300.045 178.222C299.841 177.919 299.537 177.757 299.14 177.731C298.728 177.704 298.394 177.825 298.143 178.098C297.887 178.371 297.745 178.761 297.712 179.267C297.679 179.774 297.77 180.179 297.988 180.478C298.203 180.781 298.518 180.945 298.93 180.971Z" fill="#79D4B7"/>
<path d="M306.219 177.715C306.365 177.888 306.466 178.063 306.527 178.25C306.585 178.437 306.613 178.667 306.612 178.937L306.599 181.662C306.471 181.705 306.328 181.726 306.171 181.726C306.021 181.725 305.879 181.702 305.744 181.658L305.757 179.01C305.759 178.604 305.69 178.385 305.53 178.198C305.363 178.014 305.108 177.922 304.768 177.92C304.275 177.918 303.606 178.218 303.601 179.102L303.589 181.648C303.469 181.691 303.33 181.712 303.165 181.711C303.008 181.711 302.866 181.688 302.738 181.644L302.758 177.377C302.879 177.334 303.003 177.313 303.131 177.313C303.274 177.314 303.398 177.337 303.507 177.381L303.503 178.174L303.511 178.174C303.636 177.9 303.838 177.675 304.12 177.497C304.402 177.323 304.691 177.237 304.994 177.238C305.539 177.241 305.947 177.4 306.219 177.715Z" fill="#79D4B7"/>
<path d="M311.615 175.512C311.771 175.504 311.908 175.518 312.03 175.555L312.352 181.368C312.249 181.418 312.13 181.446 311.991 181.454C311.813 181.464 311.676 181.45 311.575 181.411L311.54 180.766C311.308 181.272 310.806 181.593 310.15 181.629C309.614 181.659 309.132 181.488 308.755 181.147C308.378 180.805 308.123 180.231 308.083 179.519C308.042 178.775 308.196 178.193 308.542 177.767C308.888 177.346 309.373 177.118 309.99 177.084C310.548 177.053 310.986 177.241 311.309 177.647L311.195 175.601C311.313 175.551 311.454 175.521 311.615 175.512ZM310.233 180.951C310.638 180.929 310.951 180.762 311.175 180.449C311.399 180.141 311.497 179.729 311.469 179.222C311.463 179.124 311.456 179.055 311.45 179.011L311.418 178.826C311.256 178.085 310.754 177.733 310.093 177.769C309.302 177.813 308.847 178.376 308.906 179.452C308.936 179.981 309.07 180.365 309.311 180.611C309.548 180.858 309.857 180.972 310.233 180.951Z" fill="#79D4B7"/>
<path d="M316.1 175.127L320.658 174.438C320.763 174.521 320.825 174.638 320.848 174.789C320.872 174.952 320.848 175.081 320.769 175.171L318.927 175.449L319.684 180.451C319.433 180.578 319.086 180.63 318.817 180.582L318.06 175.581L316.211 175.86C316.117 175.801 316.056 175.688 316.03 175.518C316.008 175.37 316.032 175.237 316.1 175.127Z" fill="#79D4B7"/>
<path d="M326.217 178.719C325.944 179.192 325.49 179.494 324.854 179.63C324.218 179.765 323.68 179.675 323.238 179.355C322.793 179.039 322.497 178.527 322.347 177.823C322.197 177.119 322.259 176.535 322.536 176.065C322.809 175.595 323.264 175.293 323.9 175.157C324.536 175.022 325.074 175.112 325.515 175.429C325.956 175.746 326.251 176.254 326.402 176.958C326.552 177.662 326.49 178.25 326.217 178.719ZM324.736 178.971C325.125 178.888 325.403 178.683 325.561 178.355C325.719 178.03 325.747 177.617 325.641 177.12C325.535 176.624 325.341 176.258 325.063 176.022C324.785 175.787 324.448 175.713 324.058 175.796C323.655 175.882 323.367 176.089 323.198 176.42C323.026 176.752 322.995 177.166 323.101 177.662C323.207 178.159 323.404 178.524 323.696 178.753C323.985 178.986 324.332 179.058 324.736 178.971Z" fill="#79D4B7"/>
<path d="M330.979 176.192L332.502 177.497C332.405 177.572 332.271 177.636 332.102 177.682C331.908 177.736 331.736 177.757 331.586 177.749L330.236 176.56C330.055 176.412 329.9 176.33 329.769 176.309C329.635 176.289 329.472 176.304 329.278 176.357C329.19 176.382 329.054 176.423 328.863 176.487L329.375 178.346C329.138 178.529 328.838 178.611 328.555 178.572L327.016 172.983C327.098 172.911 327.225 172.85 327.391 172.804C327.564 172.757 327.711 172.743 327.836 172.758L328.696 175.881C328.771 175.864 328.889 175.836 329.047 175.792C329.241 175.739 329.385 175.672 329.482 175.597C329.627 175.477 329.734 175.3 329.802 175.065L330.192 173.73C330.336 173.634 330.487 173.566 330.646 173.522C330.815 173.476 330.97 173.459 331.114 173.476L330.568 175.04C330.454 175.371 330.316 175.587 330.16 175.694L330.173 175.74C330.301 175.75 330.42 175.785 330.533 175.849C330.641 175.914 330.79 176.028 330.979 176.192Z" fill="#79D4B7"/>
<path d="M336.578 173.714C336.617 173.828 336.646 173.949 336.661 174.072L333.667 175.082C333.839 175.522 334.093 175.806 334.428 175.932C334.739 176.054 335.064 176.057 335.403 175.942C335.614 175.871 335.783 175.767 335.913 175.627C336.035 175.497 336.113 175.34 336.145 175.148C336.23 175.069 336.337 175.01 336.472 174.964C336.6 174.921 336.732 174.9 336.868 174.904C336.887 175.314 336.757 175.693 336.475 176.047C336.265 176.303 335.961 176.498 335.559 176.633C335.075 176.797 334.602 176.791 334.138 176.616C333.542 176.389 333.116 175.905 332.863 175.157C332.631 174.468 332.664 173.767 332.955 173.226C333.207 172.782 333.574 172.477 334.055 172.315C334.595 172.132 335.148 172.173 335.588 172.414C336.038 172.663 336.369 173.095 336.578 173.714ZM334.306 172.989C333.97 173.103 333.727 173.297 333.585 173.572C333.445 173.854 333.411 174.163 333.484 174.504L335.785 173.728C335.675 173.425 335.5 173.203 335.259 173.061C334.982 172.892 334.666 172.868 334.306 172.989Z" fill="#79D4B7"/>
<path d="M340.595 170.314C340.795 170.418 340.955 170.542 341.083 170.692C341.207 170.843 341.32 171.045 341.421 171.296L342.442 173.822C342.34 173.91 342.216 173.984 342.071 174.043C341.932 174.099 341.791 174.132 341.65 174.142L340.657 171.687C340.506 171.311 340.359 171.134 340.14 171.021C339.916 170.915 339.645 170.926 339.33 171.053C338.873 171.238 338.367 171.77 338.698 172.589L339.652 174.95C339.556 175.035 339.436 175.108 339.283 175.169C339.138 175.228 338.998 175.261 338.863 175.268L337.264 171.313C337.36 171.227 337.466 171.16 337.585 171.113C337.717 171.059 337.84 171.033 337.958 171.033L338.255 171.767L338.262 171.765C338.275 171.464 338.376 171.179 338.57 170.908C338.765 170.64 339 170.45 339.281 170.337C339.785 170.133 340.223 170.125 340.595 170.314Z" fill="#79D4B7"/>
<rect x="426.312" y="2.99146" width="186.26" height="186.26" rx="93.1299" fill="#FFD2B9"/>
<path d="M511.351 108.047L511.423 108.263L511.631 108.354C513.972 109.376 516.182 109.927 518.255 109.927C520.38 109.927 522.543 109.376 524.688 108.346L524.976 108.208V107.887C524.976 107.63 524.949 107.175 524.923 106.755L524.922 106.74C524.896 106.306 524.872 105.912 524.872 105.723C524.872 103.223 525.235 101.433 525.949 100.23L525.953 100.223L525.957 100.217C526.631 98.9987 528.017 97.6275 530.187 96.112L530.191 96.1091L535.67 92.2049C535.67 92.2047 535.671 92.2044 535.671 92.2042C542.315 87.5277 545.7 81.4154 545.7 73.9479C545.7 67.0067 543.297 61.4721 538.417 57.4051L538.415 57.403C533.545 53.3987 526.839 51.4282 518.36 51.4282C510.169 51.4282 503.137 54.1514 499.052 58.2276L499.052 58.2276L499.049 58.23C495.007 62.3173 492.743 67.2964 492.743 72.1532C492.743 73.7559 492.848 75.1113 493.066 76.2108L493.117 76.4729L493.363 76.5792C495.244 77.3945 497.14 77.8352 499.098 77.8352C501.725 77.8352 504.057 77.2932 505.973 76.2416L506.237 76.0966V75.7953C506.237 75.6525 506.213 75.3559 506.19 75.0695C506.188 75.0383 506.185 75.0073 506.183 74.9766C506.156 74.637 506.132 74.3186 506.132 74.159C506.132 71.3065 507.262 68.9703 509.493 67.1653C511.728 65.3577 514.735 64.4283 518.569 64.4283C521.41 64.4283 524.04 65.0421 526.675 66.4766C529.145 67.8489 530.796 70.6669 530.796 74.5285C530.796 76.8364 530.34 78.8035 529.401 80.4521C528.465 82.0971 526.71 83.8385 523.976 85.6639C523.976 85.6641 523.976 85.6643 523.976 85.6645L518.809 89.0946L518.809 89.0945L518.801 89.0999C513.42 92.8173 510.699 97.5011 510.699 103.031C510.699 105.015 510.911 106.71 511.351 108.047ZM509.29 136.971V137.291L509.579 137.43C511.755 138.475 514.498 139.011 517.838 139.011C521.079 139.011 523.964 138.473 526.487 137.442L526.803 137.313V136.971V123.036V122.691L526.483 122.563C524.163 121.636 521.276 121.154 517.942 121.154C514.608 121.154 511.823 121.636 509.602 122.566L509.29 122.697V123.036V136.971Z" fill="#FFD2B9" stroke="#FFB58E" stroke-width="1.0184"/>
<g filter="url(#filter2_i_2570_10367)">
<path d="M604.589 96.122C604.589 143.148 566.467 181.269 519.441 181.269C472.416 181.269 434.294 143.148 434.294 96.122C434.294 49.0964 472.416 10.9746 519.441 10.9746C566.467 10.9746 604.589 49.0964 604.589 96.122ZM454.971 96.122C454.971 131.728 483.836 160.592 519.441 160.592C555.047 160.592 583.911 131.728 583.911 96.122C583.911 60.5162 555.047 31.652 519.441 31.652C483.836 31.652 454.971 60.5162 454.971 96.122Z" fill="#FFD2B9"/>
</g>
<g filter="url(#filter3_i_2570_10367)">
<path d="M612.572 96.1214C612.572 147.556 570.876 189.251 519.442 189.251C468.008 189.251 426.312 147.556 426.312 96.1214C426.312 44.6871 468.008 2.99146 519.442 2.99146C570.876 2.99146 612.572 44.6871 612.572 96.1214ZM446.752 96.1214C446.752 136.267 479.297 168.811 519.442 168.811C559.587 168.811 592.132 136.267 592.132 96.1214C592.132 55.9759 559.587 23.4316 519.442 23.4316C479.297 23.4316 446.752 55.9759 446.752 96.1214Z" fill="#FFD2B9"/>
</g>
<path fill-rule="evenodd" clip-rule="evenodd" d="M597.047 102.354C596.952 102.412 596.829 102.385 596.767 102.294L596.528 101.944C596.466 101.852 596.487 101.728 596.574 101.66C597.36 101.048 598.006 100.359 598.513 99.6198C600.405 96.8689 600.405 93.4072 598.513 90.6563C598.006 89.9175 597.36 89.2277 596.574 88.6157C596.487 88.5477 596.466 88.4239 596.528 88.3325L596.767 87.9823C596.829 87.8909 596.952 87.8643 597.047 87.9218L607.643 94.3518C608.235 94.7107 608.235 95.5654 607.643 95.9243L597.047 102.354Z" fill="#FFEEE5"/>
<path fill-rule="evenodd" clip-rule="evenodd" d="M430.982 102.354C430.887 102.412 430.764 102.385 430.702 102.294L430.463 101.944C430.401 101.852 430.422 101.729 430.509 101.66C431.295 101.048 431.941 100.359 432.449 99.6199C434.34 96.869 434.34 93.4073 432.449 90.6564C431.941 89.9176 431.295 89.2278 430.509 88.6158C430.422 88.5478 430.401 88.424 430.463 88.3326L430.702 87.9825C430.764 87.891 430.887 87.8644 430.982 87.9219L441.578 94.3519C442.17 94.7108 442.17 95.5655 441.578 95.9244L430.982 102.354Z" fill="#FFEEE5"/>
<path d="M585.609 28.8325C586.166 28.276 586.167 27.3729 585.602 26.8248C576.996 18.4734 566.884 11.8238 555.797 7.23144C544.271 2.45724 531.917 -2.82564e-06 519.442 0C506.966 2.82564e-06 494.613 2.45725 483.087 7.23145C472 11.8238 461.888 18.4735 453.282 26.8248C452.717 27.3729 452.718 28.276 453.274 28.8325V28.8325C453.831 29.389 454.732 29.3881 455.297 28.8403C463.638 20.7534 473.436 14.3136 484.178 9.86451C495.358 5.23353 507.341 2.85 519.442 2.85C531.543 2.85 543.526 5.23352 554.706 9.86449C565.447 14.3136 575.245 20.7534 583.586 28.8403C584.151 29.3881 585.053 29.389 585.609 28.8325V28.8325Z" fill="#FFD2B9"/>
<path d="M474.578 166.728C474.393 167.022 474.003 167.11 473.711 166.922C464.966 161.312 457.334 154.134 451.197 145.75C450.992 145.469 451.056 145.076 451.338 144.872V144.872C451.62 144.669 452.014 144.733 452.219 145.014C458.261 153.266 465.775 160.333 474.383 165.857C474.676 166.045 474.764 166.433 474.578 166.728V166.728Z" fill="#FFB58E"/>
<path d="M563.931 166.728C564.117 167.022 564.506 167.11 564.799 166.922C573.543 161.312 581.176 154.134 587.312 145.75C587.518 145.469 587.453 145.076 587.171 144.872V144.872C586.889 144.669 586.496 144.733 586.29 145.014C580.248 153.266 572.734 160.333 564.126 165.857C563.834 166.045 563.745 166.433 563.931 166.728V166.728Z" fill="#FFD2B9"/>
<path d="M483.986 175.119C483.275 174.832 482.788 174.475 482.531 174.049C482.256 173.607 482.23 173.133 482.452 172.62C482.575 172.618 482.717 172.647 482.869 172.709C482.998 172.76 483.114 172.835 483.215 172.926C483.093 173.228 483.1 173.494 483.239 173.727C483.405 173.999 483.732 174.233 484.224 174.431C484.742 174.639 485.142 174.694 485.43 174.593C485.687 174.511 485.869 174.344 485.969 174.094C486.069 173.846 486.063 173.627 485.947 173.435C485.83 173.246 485.603 173.037 485.269 172.812L484.58 172.342C484.145 172.053 483.875 171.794 483.685 171.454C483.495 171.114 483.494 170.716 483.68 170.252C483.867 169.787 484.185 169.478 484.633 169.323C485.099 169.172 485.659 169.229 486.313 169.492C486.964 169.753 487.412 170.087 487.66 170.498C487.893 170.887 487.934 171.274 487.782 171.653C487.767 171.691 487.738 171.754 487.691 171.841C487.581 171.848 487.465 171.825 487.339 171.775C487.204 171.72 487.076 171.645 486.962 171.548C486.98 171.512 486.999 171.476 487.014 171.439C487.09 171.249 487.055 170.975 486.921 170.768C486.772 170.523 486.512 170.328 486.143 170.179C485.638 169.976 485.314 169.928 485.02 170.003C484.75 170.079 484.563 170.24 484.461 170.495C484.285 170.932 484.481 171.314 485.033 171.693L485.909 172.286C486.341 172.574 486.614 172.853 486.791 173.196C486.968 173.539 486.97 173.937 486.79 174.384C486.596 174.865 486.256 175.181 485.772 175.329C485.285 175.472 484.691 175.402 483.986 175.119Z" fill="#FFB58E"/>
<path d="M491.09 176.994C490.616 177.263 490.071 177.294 489.454 177.089C488.837 176.884 488.419 176.533 488.2 176.033C487.976 175.535 487.98 174.944 488.207 174.261C488.434 173.578 488.784 173.106 489.261 172.841C489.734 172.575 490.279 172.544 490.896 172.749C491.513 172.954 491.931 173.305 492.151 173.801C492.371 174.298 492.368 174.886 492.141 175.568C491.915 176.251 491.564 176.727 491.09 176.994ZM489.686 176.461C490.063 176.587 490.406 176.551 490.709 176.347C491.01 176.147 491.243 175.805 491.403 175.323C491.563 174.841 491.581 174.428 491.461 174.084C491.34 173.74 491.087 173.505 490.709 173.38C490.318 173.25 489.964 173.282 489.652 173.482C489.335 173.681 489.099 174.022 488.939 174.504C488.779 174.986 488.764 175.401 488.899 175.746C489.03 176.093 489.294 176.331 489.686 176.461Z" fill="#FFB58E"/>
<path d="M497.462 174.731C497.589 174.765 497.721 174.823 497.858 174.905L496.758 179.027C496.638 179.04 496.516 179.03 496.385 178.995C496.223 178.952 496.105 178.898 496.035 178.834L496.211 178.174C496.035 178.38 495.81 178.528 495.533 178.617C495.256 178.705 494.957 178.709 494.629 178.621C494.004 178.454 493.626 178.142 493.492 177.682C493.442 177.514 493.423 177.346 493.428 177.17C493.434 176.994 493.482 176.742 493.57 176.411L494.231 173.937C494.379 173.931 494.519 173.946 494.65 173.981C494.78 174.015 494.916 174.074 495.053 174.156L494.372 176.708C494.276 177.068 494.277 177.348 494.372 177.543C494.471 177.766 494.697 177.925 495.05 178.019C495.308 178.088 495.562 178.072 495.804 177.956C496.047 177.839 496.257 177.562 496.365 177.156L497.026 174.683C497.185 174.68 497.332 174.696 497.462 174.731Z" fill="#FFB58E"/>
<path d="M499.075 179.595C498.922 179.562 498.787 179.51 498.678 179.442L499.91 173.759C500.016 173.733 500.157 173.738 500.325 173.774C500.489 173.81 500.623 173.865 500.727 173.936L499.496 179.619C499.369 179.636 499.229 179.628 499.075 179.595Z" fill="#FFB58E"/>
<path d="M509.316 178.133L509.309 178.188C509.576 178.285 509.799 178.442 509.979 178.672C510.155 178.904 510.243 179.254 510.192 179.649C510.126 180.164 509.91 180.552 509.541 180.814C509.173 181.076 508.697 181.169 508.113 181.094L505.219 180.722L505.968 174.904L508.699 175.255C509.25 175.326 509.667 175.52 509.95 175.836C510.23 176.152 510.342 176.542 510.282 177.006C510.239 177.343 510.1 177.619 509.908 177.794C509.716 177.968 509.53 178.069 509.316 178.133ZM508.471 175.915L506.757 175.694L506.519 177.542L508.113 177.747C508.287 177.769 508.444 177.778 508.697 177.733C508.821 177.713 508.933 177.675 509.031 177.625C509.221 177.525 509.401 177.301 509.442 176.982C509.477 176.711 509.419 176.475 509.264 176.278C509.108 176.085 508.844 175.963 508.471 175.915ZM506.192 180.085L508.069 180.326C508.837 180.425 509.23 180.089 509.305 179.506C509.377 179.058 509.17 178.781 508.942 178.63C508.794 178.527 508.555 178.466 508.415 178.434C508.343 178.421 508.264 178.407 508.174 178.395L506.438 178.172L506.192 180.085Z" fill="#FFB58E"/>
<path d="M514.866 181.131C514.475 181.511 513.955 181.679 513.306 181.637C512.658 181.595 512.164 181.361 511.826 180.933C511.484 180.508 511.338 179.935 511.384 179.217C511.431 178.499 511.649 177.953 512.044 177.576C512.434 177.199 512.954 177.032 513.603 177.074C514.251 177.116 514.745 177.349 515.083 177.774C515.422 178.198 515.568 178.768 515.521 179.486C515.475 180.204 515.256 180.753 514.866 181.131ZM513.372 180.971C513.769 180.997 514.092 180.875 514.333 180.602C514.573 180.332 514.712 179.942 514.745 179.435C514.778 178.929 514.691 178.524 514.487 178.222C514.283 177.919 513.979 177.757 513.582 177.731C513.17 177.704 512.836 177.825 512.584 178.098C512.329 178.371 512.186 178.761 512.154 179.267C512.121 179.774 512.212 180.179 512.43 180.478C512.645 180.781 512.96 180.945 513.372 180.971Z" fill="#FFB58E"/>
<path d="M520.661 177.715C520.807 177.888 520.908 178.063 520.969 178.25C521.027 178.437 521.055 178.667 521.054 178.937L521.041 181.662C520.913 181.705 520.77 181.726 520.613 181.726C520.463 181.725 520.321 181.702 520.186 181.658L520.199 179.01C520.201 178.604 520.132 178.385 519.972 178.198C519.805 178.014 519.55 177.922 519.21 177.92C518.717 177.918 518.047 178.218 518.043 179.102L518.031 181.648C517.91 181.691 517.772 181.712 517.607 181.711C517.45 181.711 517.308 181.688 517.18 181.644L517.2 177.377C517.321 177.334 517.445 177.313 517.573 177.313C517.716 177.314 517.84 177.337 517.949 177.381L517.945 178.174L517.953 178.174C518.078 177.9 518.28 177.675 518.562 177.497C518.844 177.323 519.133 177.237 519.436 177.238C519.981 177.241 520.389 177.4 520.661 177.715Z" fill="#FFB58E"/>
<path d="M526.057 175.512C526.213 175.504 526.349 175.518 526.472 175.555L526.794 181.368C526.691 181.418 526.572 181.446 526.433 181.454C526.254 181.464 526.118 181.45 526.017 181.411L525.982 180.766C525.75 181.272 525.248 181.593 524.592 181.629C524.056 181.659 523.574 181.488 523.197 181.147C522.82 180.805 522.565 180.231 522.525 179.519C522.484 178.775 522.638 178.193 522.984 177.767C523.33 177.346 523.815 177.118 524.432 177.084C524.99 177.053 525.428 177.241 525.75 177.647L525.637 175.601C525.755 175.551 525.896 175.521 526.057 175.512ZM524.675 180.951C525.08 180.929 525.392 180.762 525.617 180.449C525.841 180.141 525.939 179.729 525.911 179.222C525.905 179.124 525.898 179.055 525.892 179.011L525.86 178.826C525.698 178.085 525.195 177.733 524.535 177.769C523.744 177.813 523.289 178.376 523.348 179.452C523.377 179.981 523.512 180.365 523.753 180.611C523.989 180.858 524.299 180.972 524.675 180.951Z" fill="#FFB58E"/>
<path d="M530.542 175.127L535.1 174.438C535.205 174.521 535.267 174.638 535.29 174.789C535.314 174.952 535.29 175.081 535.211 175.171L533.369 175.449L534.126 180.451C533.875 180.578 533.528 180.63 533.259 180.582L532.502 175.581L530.653 175.86C530.559 175.801 530.498 175.688 530.472 175.518C530.45 175.37 530.474 175.237 530.542 175.127Z" fill="#FFB58E"/>
<path d="M540.659 178.719C540.386 179.192 539.932 179.494 539.296 179.63C538.66 179.765 538.122 179.675 537.68 179.355C537.235 179.039 536.939 178.527 536.789 177.823C536.639 177.119 536.701 176.535 536.978 176.065C537.251 175.595 537.706 175.293 538.342 175.157C538.978 175.022 539.516 175.112 539.957 175.429C540.398 175.746 540.693 176.254 540.843 176.958C540.994 177.662 540.932 178.25 540.659 178.719ZM539.178 178.971C539.567 178.888 539.845 178.683 540.002 178.355C540.161 178.03 540.189 177.617 540.083 177.12C539.977 176.624 539.783 176.258 539.505 176.022C539.227 175.787 538.89 175.713 538.5 175.796C538.097 175.882 537.809 176.089 537.64 176.42C537.468 176.752 537.437 177.166 537.543 177.662C537.649 178.159 537.846 178.524 538.138 178.753C538.427 178.986 538.774 179.058 539.178 178.971Z" fill="#FFB58E"/>
<path d="M545.421 176.192L546.944 177.497C546.847 177.572 546.713 177.636 546.544 177.682C546.35 177.736 546.178 177.757 546.028 177.749L544.678 176.56C544.497 176.412 544.342 176.33 544.211 176.309C544.077 176.289 543.914 176.304 543.72 176.357C543.632 176.382 543.496 176.423 543.305 176.487L543.817 178.346C543.58 178.529 543.28 178.611 542.997 178.572L541.458 172.983C541.54 172.911 541.667 172.85 541.833 172.804C542.005 172.757 542.153 172.743 542.278 172.758L543.138 175.881C543.213 175.864 543.33 175.836 543.489 175.792C543.683 175.739 543.827 175.672 543.924 175.597C544.069 175.477 544.176 175.3 544.244 175.065L544.634 173.73C544.778 173.634 544.929 173.566 545.088 173.522C545.257 173.476 545.411 173.459 545.556 173.476L545.009 175.04C544.896 175.371 544.758 175.587 544.602 175.694L544.615 175.74C544.743 175.75 544.862 175.785 544.975 175.849C545.083 175.914 545.232 176.028 545.421 176.192Z" fill="#FFB58E"/>
<path d="M551.02 173.714C551.059 173.828 551.088 173.949 551.102 174.072L548.109 175.082C548.28 175.522 548.535 175.806 548.87 175.932C549.181 176.054 549.506 176.057 549.845 175.942C550.056 175.871 550.225 175.767 550.355 175.627C550.477 175.497 550.555 175.34 550.587 175.148C550.672 175.069 550.779 175.01 550.914 174.964C551.042 174.921 551.174 174.9 551.31 174.904C551.329 175.314 551.199 175.693 550.917 176.047C550.707 176.303 550.403 176.498 550.001 176.633C549.517 176.797 549.044 176.791 548.58 176.616C547.983 176.389 547.558 175.905 547.305 175.157C547.073 174.468 547.106 173.767 547.397 173.226C547.649 172.782 548.016 172.477 548.497 172.315C549.037 172.132 549.59 172.173 550.03 172.414C550.48 172.663 550.811 173.095 551.02 173.714ZM548.748 172.989C548.412 173.103 548.169 173.297 548.027 173.572C547.887 173.854 547.853 174.163 547.925 174.504L550.227 173.728C550.117 173.425 549.942 173.203 549.701 173.061C549.424 172.892 549.108 172.868 548.748 172.989Z" fill="#FFB58E"/>
<path d="M555.037 170.314C555.237 170.418 555.397 170.542 555.525 170.692C555.648 170.843 555.762 171.045 555.863 171.296L556.884 173.822C556.782 173.91 556.658 173.984 556.512 174.043C556.374 174.099 556.233 174.132 556.092 174.142L555.099 171.687C554.947 171.311 554.801 171.134 554.582 171.021C554.358 170.915 554.087 170.926 553.772 171.053C553.315 171.238 552.809 171.77 553.14 172.589L554.094 174.95C553.998 175.035 553.878 175.108 553.725 175.169C553.58 175.228 553.439 175.261 553.305 175.268L551.706 171.313C551.801 171.227 551.908 171.16 552.027 171.113C552.159 171.059 552.282 171.033 552.4 171.033L552.697 171.767L552.704 171.765C552.717 171.464 552.818 171.179 553.012 170.908C553.207 170.64 553.441 170.45 553.722 170.337C554.227 170.133 554.665 170.125 555.037 170.314Z" fill="#FFB58E"/>
<mask id="mask0_2570_10367" style="mask-type:luminance" maskUnits="userSpaceOnUse" x="0" y="3" width="187" height="187">
<path d="M186.012 96.9941C186.012 45.6283 144.372 3.98816 93.0059 3.98816C41.6402 3.98816 0 45.6283 0 96.9941C0 148.36 41.6402 190 93.0059 190C144.372 190 186.012 148.36 186.012 96.9941Z" fill="white"/>
</mask>
<g mask="url(#mask0_2570_10367)">
<path d="M186.012 96.9941C186.012 45.6283 144.372 3.98816 93.0059 3.98816C41.6402 3.98816 0 45.6283 0 96.9941C0 148.36 41.6402 190 93.0059 190C144.372 190 186.012 148.36 186.012 96.9941Z" fill="#EDF3FF"/>
<g filter="url(#filter4_di_2570_10367)">
<path d="M44.1831 184.024C36.4909 184.024 30.2539 177.787 30.2539 170.095V162.547C30.2539 127.58 58.5999 99.2354 93.566 99.2354C128.531 99.2354 156.877 127.58 156.877 162.547V170.095C156.877 177.787 150.641 184.024 142.948 184.024H44.1831Z" fill="url(#paint0_radial_2570_10367)"/>
</g>
<g filter="url(#filter5_di_2570_10367)">
<path d="M43.0927 183.589C35.3997 183.589 29.1636 177.352 29.1636 169.66V162.485C29.1636 127.313 57.6763 98.8 92.849 98.8C128.021 98.8 156.534 127.313 156.534 162.485V169.66C156.534 177.352 150.297 183.589 142.604 183.589H43.0927Z" fill="url(#paint1_radial_2570_10367)"/>
</g>
<path d="M43.0866 181.263C36.8659 181.263 31.8237 176.243 31.8237 170.049V162.818C31.8237 128.932 59.414 101.46 93.4493 101.46C127.484 101.46 155.075 128.932 155.075 162.818V170.049C155.075 176.243 150.032 181.263 143.811 181.263H43.0866Z" stroke="url(#paint2_linear_2570_10367)" stroke-width="5.60277"/>
<path d="M71.9517 129.949C71.4605 129.464 70.6305 129.669 70.4204 130.327L69.8219 132.201C69.7731 132.355 69.6862 132.492 69.5683 132.6L68.1744 133.887C67.6388 134.382 67.8578 135.272 68.5628 135.461L70.3947 135.952C70.549 135.994 70.6908 136.074 70.8052 136.187L72.2062 137.569C72.6974 138.054 73.5283 137.849 73.7375 137.192L74.3361 135.316C74.3848 135.164 74.4717 135.026 74.5897 134.917L75.9835 133.631C76.52 133.137 76.3001 132.246 75.596 132.057L73.7632 131.566C73.609 131.525 73.4671 131.443 73.3536 131.33L71.9517 129.949Z" fill="#FFC93E" stroke="#0C0C0D" stroke-width="1.12056" stroke-linejoin="round"/>
<path d="M134.245 99.5769C133.861 99.0032 133.007 99.0369 132.669 99.6389L131.706 101.356C131.628 101.496 131.514 101.613 131.377 101.696L129.753 102.676C129.129 103.053 129.166 103.97 129.817 104.296L131.514 105.144C131.657 105.216 131.78 105.324 131.868 105.457L132.963 107.093C133.348 107.666 134.202 107.633 134.54 107.03L135.503 105.314C135.581 105.174 135.694 105.057 135.832 104.974L137.455 103.994C138.08 103.617 138.043 102.7 137.391 102.374L135.695 101.525C135.552 101.453 135.429 101.346 135.341 101.212L134.245 99.5769Z" fill="#FFC93E" stroke="#0C0C0D" stroke-width="1.12056" stroke-linejoin="round"/>
<path d="M29.6943 170.095C29.6943 178.097 36.1814 184.584 44.183 184.584H142.948C150.95 184.584 157.438 178.097 157.438 170.095V162.547C157.438 127.271 128.841 98.675 93.566 98.675C58.2904 98.675 29.6943 127.271 29.6943 162.547V170.095Z" stroke="#0C0C0D" stroke-width="1.12056"/>
<g filter="url(#filter6_di_2570_10367)">
<path d="M93.0059 49.557C109.922 49.557 123.634 63.2699 123.634 80.1855C123.634 97.1011 109.922 110.814 93.0059 110.814C76.0903 110.814 62.3774 97.1011 62.3774 80.1855C62.3774 63.2699 76.0903 49.557 93.0059 49.557Z" fill="url(#paint3_radial_2570_10367)"/>
</g>
<path d="M51.8922 97.8469C51.5712 97.1012 50.5134 97.1012 50.1924 97.8469L49.3979 99.6912C49.3367 99.8331 49.2409 99.9572 49.1195 100.053L47.2441 101.525C46.7715 101.896 46.7715 102.61 47.2441 102.981L49.1195 104.453C49.2409 104.549 49.3367 104.673 49.3979 104.815L50.1924 106.659C50.5134 107.405 51.5712 107.405 51.8922 106.659L52.6867 104.815C52.7479 104.673 52.8436 104.549 52.9651 104.453L54.8404 102.981C55.3122 102.61 55.3122 101.896 54.8404 101.525L52.9651 100.053C52.8436 99.9572 52.7479 99.8331 52.6867 99.6912L51.8922 97.8469Z" fill="#FFC93E" stroke="#0C0C0D" stroke-width="1.12056" stroke-linejoin="round"/>
<path d="M115.778 44.4845C115.524 44.0713 114.923 44.0713 114.669 44.4845L114.148 45.3321C114.09 45.4288 114.006 45.5077 113.908 45.5618L113.089 46.0122C112.641 46.2605 112.641 46.9052 113.089 47.1525L113.908 47.6039C114.006 47.658 114.09 47.7369 114.148 47.8326L114.669 48.6803C114.923 49.0944 115.524 49.0944 115.778 48.6803L116.298 47.8326C116.358 47.7369 116.44 47.658 116.539 47.6039L117.357 47.1525C117.806 46.9052 117.806 46.2605 117.357 46.0122L116.539 45.5618C116.44 45.5077 116.358 45.4288 116.298 45.3321L115.778 44.4845Z" fill="#FFC93E" stroke="#0C0C0D" stroke-width="1.12056" stroke-linejoin="round"/>
<path d="M93.0056 51.9834C108.578 51.9834 121.202 64.6072 121.202 80.1794C121.202 95.7516 108.578 108.375 93.0056 108.375C77.4333 108.375 64.8096 95.7516 64.8096 80.1794C64.8096 64.6072 77.4333 51.9834 93.0056 51.9834Z" stroke="url(#paint4_radial_2570_10367)" stroke-width="5.60277"/>
<path d="M107.495 69.3519C108.479 69.4699 109.415 69.8441 110.208 70.4381C111.001 71.0313 111.624 71.8232 112.014 72.7338" stroke="#0C0C0D" stroke-width="1.41107" stroke-linecap="round" stroke-linejoin="round"/>
<path d="M79.2628 69.3519C78.2794 69.4699 77.3439 69.8441 76.5503 70.4381C75.7576 71.0313 75.1343 71.8232 74.7441 72.7338" stroke="#0C0C0D" stroke-width="1.41107" stroke-linecap="round" stroke-linejoin="round"/>
<path d="M82.9202 84.3358C86.0374 84.3358 88.5644 81.8088 88.5644 78.6915C88.5644 75.5743 86.0374 73.0472 82.9202 73.0472C79.8029 73.0472 77.2759 75.5743 77.2759 78.6915C77.2759 81.8088 79.8029 84.3358 82.9202 84.3358Z" fill="white" stroke="#0C0C0D" stroke-width="1.41107"/>
<path d="M103.464 84.3358C106.581 84.3358 109.108 81.8088 109.108 78.6915C109.108 75.5743 106.581 73.0472 103.464 73.0472C100.347 73.0472 97.8198 75.5743 97.8198 78.6915C97.8198 81.8088 100.347 84.3358 103.464 84.3358Z" fill="white" stroke="#0C0C0D" stroke-width="1.41107"/>
<mask id="mask1_2570_10367" style="mask-type:alpha" maskUnits="userSpaceOnUse" x="76" y="72" width="14" height="14">
<path d="M82.9763 84.3359C79.8591 84.3359 77.3321 81.8089 77.3321 78.6916C77.3321 75.5744 79.8591 73.0474 82.9763 73.0474C86.0936 73.0474 88.6206 75.5744 88.6206 78.6916C88.6206 81.8089 86.0936 84.3359 82.9763 84.3359Z" fill="white" stroke="#0C0C0D" stroke-width="1.41107"/>
</mask>
<g mask="url(#mask1_2570_10367)">
<path d="M78.8117 82.0944C76.9322 82.0944 75.4085 80.5708 75.4085 78.6912C75.4085 76.8117 76.9322 75.2881 78.8117 75.2881C80.6912 75.2881 82.2148 76.8117 82.2148 78.6912C82.2148 80.5708 80.6912 82.0944 78.8117 82.0944Z" fill="#0C0C0D" stroke="#0C0C0D" stroke-width="1.41107"/>
</g>
<mask id="mask2_2570_10367" style="mask-type:alpha" maskUnits="userSpaceOnUse" x="97" y="72" width="13" height="14">
<path d="M103.52 84.3359C100.403 84.3359 97.8755 81.8089 97.8755 78.6916C97.8755 75.5744 100.403 73.0474 103.52 73.0474C106.637 73.0474 109.164 75.5744 109.164 78.6916C109.164 81.8089 106.637 84.3359 103.52 84.3359Z" fill="white" stroke="#0C0C0D" stroke-width="1.41107"/>
</mask>
<g mask="url(#mask2_2570_10367)">
<path d="M99.3551 82.0943C97.4756 82.0943 95.952 80.5706 95.952 78.6911C95.952 76.8116 97.4756 75.288 99.3551 75.288C101.235 75.288 102.758 76.8116 102.758 78.6911C102.758 80.5706 101.235 82.0943 99.3551 82.0943Z" fill="#0C0C0D" stroke="#0C0C0D" stroke-width="1.41107"/>
</g>
<path d="M86.2212 93.2219C86.943 94.4713 87.9804 95.5087 89.2298 96.2305C90.48 96.9523 91.8969 97.3318 93.3405 97.3318C94.7832 97.3318 96.201 96.9523 97.4504 96.2305C98.6997 95.5087 99.7372 94.4713 100.459 93.2219" stroke="#0C0C0D" stroke-width="1.41107" stroke-linecap="round" stroke-linejoin="round"/>
<path d="M93.0057 49.1449C110.146 49.1449 124.04 63.0395 124.04 80.1794C124.04 97.3193 110.146 111.214 93.0057 111.214C75.8658 111.214 61.9712 97.3193 61.9712 80.1794C61.9712 63.0395 75.8658 49.1449 93.0057 49.1449Z" stroke="#0C0C0D" stroke-width="1.12056"/>
</g>
<g filter="url(#filter7_d_2570_10367)">
<path d="M178.04 96.9938C178.04 143.957 139.969 182.028 93.0058 182.028C46.0426 182.028 7.97217 143.957 7.97217 96.9938C7.97217 50.0315 46.0426 11.9602 93.0058 11.9602C139.969 11.9602 178.04 50.0315 178.04 96.9938ZM28.6216 96.9938C28.6216 132.552 57.4473 161.378 93.0058 161.378C128.564 161.378 157.39 132.552 157.39 96.9938C157.39 61.4354 128.564 32.6097 93.0058 32.6097C57.4473 32.6097 28.6216 61.4354 28.6216 96.9938Z" fill="white"/>
</g>
<g filter="url(#filter8_i_2570_10367)">
<path d="M186.012 96.9939C186.012 148.36 144.372 190 93.0059 190C41.6403 190 0 148.36 0 96.9939C0 45.6283 41.6403 3.98816 93.0059 3.98816C144.372 3.98816 186.012 45.6283 186.012 96.9939ZM20.4127 96.9939C20.4127 137.086 52.9138 169.587 93.0059 169.587C133.098 169.587 165.599 137.086 165.599 96.9939C165.599 56.9018 133.098 24.4016 93.0059 24.4016C52.9138 24.4016 20.4127 56.9018 20.4127 96.9939Z" fill="white"/>
</g>
<path fill-rule="evenodd" clip-rule="evenodd" d="M170.504 103.22C170.41 103.278 170.287 103.251 170.224 103.16L169.986 102.811C169.924 102.719 169.944 102.595 170.032 102.527C170.817 101.916 171.462 101.227 171.969 100.489C173.857 97.7422 173.857 94.2849 171.969 91.5379C171.462 90.8002 170.817 90.1112 170.032 89.5003C169.944 89.432 169.924 89.3088 169.986 89.2174L170.224 88.8672C170.287 88.7759 170.41 88.7493 170.504 88.8069L181.086 95.2284C181.676 95.5866 181.676 96.4405 181.086 96.7987L170.504 103.22Z" fill="url(#paint5_linear_2570_10367)"/>
<path fill-rule="evenodd" clip-rule="evenodd" d="M4.66301 103.22C4.56813 103.278 4.44487 103.251 4.3828 103.16L4.14428 102.811C4.08222 102.719 4.10261 102.595 4.19039 102.527C4.97512 101.916 5.61976 101.227 6.12695 100.489C8.01562 97.7422 8.01562 94.2849 6.12695 91.5379C5.61976 90.8002 4.97512 90.1112 4.19039 89.5003C4.10261 89.432 4.08222 89.3088 4.14428 89.2174L4.3828 88.8672C4.44487 88.7759 4.56813 88.7493 4.66301 88.8069L15.2449 95.2284C15.8354 95.5866 15.8354 96.4405 15.2449 96.7987L4.66301 103.22Z" fill="url(#paint6_linear_2570_10367)"/>
<mask id="mask3_2570_10367" style="mask-type:luminance" maskUnits="userSpaceOnUse" x="57" y="169" width="72" height="14">
<path d="M128.782 169.457H57.1484V182.302H128.782V169.457Z" fill="white"/>
</mask>
<g mask="url(#mask3_2570_10367)">
<path d="M61.5742 171.69C61.6566 171.425 61.6229 171.175 61.4775 170.947C61.3312 170.719 61.0998 170.532 60.7859 170.397C60.5624 170.301 60.3532 170.252 60.1554 170.248C59.9612 170.248 59.7928 170.289 59.6474 170.372C59.509 170.454 59.4044 170.573 59.337 170.73C59.2812 170.861 59.2625 170.988 59.2812 171.108C59.3033 171.227 59.3485 171.343 59.423 171.451C59.4975 171.56 59.5835 171.657 59.6811 171.75C59.7777 171.844 59.8752 171.925 59.9683 171.996L60.4427 172.37C60.5997 172.489 60.7531 172.624 60.9056 172.777C61.059 172.931 61.1858 173.102 61.2904 173.289C61.395 173.476 61.4589 173.681 61.4775 173.898C61.4997 174.118 61.4553 174.349 61.3463 174.596C61.2124 174.906 61.0102 175.149 60.7486 175.321C60.4835 175.492 60.1696 175.582 59.8079 175.59C59.4452 175.597 59.0533 175.508 58.6232 175.321C58.2127 175.141 57.8882 174.925 57.6452 174.663C57.4022 174.402 57.2488 174.115 57.1815 173.801C57.115 173.487 57.1486 173.162 57.2719 172.826L58.101 173.184C58.03 173.39 58.022 173.581 58.0823 173.763C58.1417 173.946 58.2428 174.103 58.3918 174.245C58.5416 174.387 58.7243 174.503 58.9371 174.592C59.173 174.693 59.3964 174.749 59.6101 174.753C59.8265 174.756 60.0127 174.716 60.1776 174.63C60.3417 174.544 60.4613 174.41 60.5394 174.23C60.6103 174.069 60.6218 173.917 60.5731 173.77C60.5252 173.629 60.4392 173.487 60.3115 173.353C60.1847 173.218 60.0357 173.08 59.8602 172.941L59.2882 172.486C58.8999 172.176 58.6312 171.851 58.4743 171.508C58.3209 171.164 58.3244 170.801 58.4929 170.421C58.6277 170.103 58.8325 169.867 59.1056 169.703C59.3822 169.543 59.6917 169.46 60.0428 169.457C60.394 169.453 60.7531 169.531 61.1184 169.692C61.4881 169.852 61.7914 170.061 62.0193 170.316C62.2472 170.569 62.3926 170.846 62.46 171.145C62.5229 171.444 62.4972 171.743 62.3775 172.038L61.5742 171.69Z" fill="#0C0C0D"/>
<path d="M63.7179 177.331C63.3224 177.189 63.0085 176.971 62.7806 176.688C62.5527 176.4 62.4144 176.064 62.3692 175.68C62.3249 175.295 62.3807 174.884 62.5377 174.451C62.6946 174.013 62.9145 173.659 63.1947 173.39C63.4749 173.121 63.7968 172.949 64.155 172.874C64.5132 172.8 64.891 172.833 65.2864 172.975C65.6828 173.117 65.9967 173.333 66.2246 173.618C66.4524 173.905 66.5908 174.241 66.6351 174.63C66.6803 175.018 66.6236 175.429 66.4675 175.866C66.3106 176.303 66.0933 176.654 65.8131 176.919C65.5329 177.184 65.212 177.356 64.8537 177.435C64.4911 177.506 64.1142 177.472 63.7179 177.331ZM63.9723 176.643C64.2295 176.736 64.4654 176.744 64.6817 176.669C64.8981 176.595 65.0887 176.46 65.2492 176.262C65.4097 176.064 65.5409 175.833 65.6376 175.563C65.7351 175.295 65.7839 175.033 65.7839 174.775C65.7839 174.522 65.7236 174.294 65.6039 174.096C65.4851 173.898 65.298 173.752 65.0399 173.659C64.7828 173.566 64.5434 173.558 64.3235 173.632C64.1027 173.708 63.912 173.846 63.7516 174.044C63.5875 174.241 63.4607 174.473 63.3632 174.742C63.2657 175.015 63.2178 175.276 63.2178 175.53C63.2178 175.784 63.2772 176.009 63.4004 176.206C63.5237 176.404 63.7108 176.549 63.9723 176.643Z" fill="#0C0C0D"/>
<path d="M70.2252 177.364L70.9567 174.847L71.7973 175.093L70.5462 179.396L69.7207 179.157L69.937 178.41L69.8927 178.395C69.7278 178.597 69.5114 178.742 69.2498 178.828C68.9883 178.918 68.6974 178.914 68.372 178.821C68.0954 178.739 67.8675 178.608 67.6928 178.425C67.5172 178.242 67.4011 178.011 67.3523 177.734C67.3035 177.457 67.3301 177.143 67.4312 176.789L68.2266 174.051L69.0628 174.294L68.294 176.931C68.208 177.226 68.223 177.48 68.3348 177.704C68.4465 177.925 68.6336 178.074 68.8916 178.148C69.0486 178.193 69.2162 178.2 69.3953 178.167C69.5753 178.134 69.7393 178.055 69.8883 177.925C70.0381 177.793 70.1578 177.611 70.2252 177.364Z" fill="#0C0C0D"/>
<path d="M74.2325 174.145L72.8173 179.949L71.9688 179.743L73.3848 173.939L74.2325 174.145Z" fill="#0C0C0D"/>
<path d="M76.6753 180.797L77.6507 174.899L79.8098 175.257C80.2283 175.328 80.5644 175.452 80.8144 175.634C81.0645 175.818 81.24 176.038 81.3376 176.292C81.4342 176.546 81.4608 176.822 81.412 177.113C81.3712 177.361 81.2923 177.558 81.1726 177.711C81.0529 177.864 80.9111 177.98 80.7435 178.055C80.575 178.129 80.3994 178.178 80.2088 178.193L80.1982 178.249C80.3923 178.29 80.5715 178.387 80.7399 178.533C80.9075 178.679 81.0343 178.869 81.1248 179.105C81.2099 179.336 81.2285 179.608 81.1806 179.912C81.1319 180.214 81.0157 180.471 80.833 180.688C80.6504 180.905 80.4039 181.058 80.0855 181.148C79.7681 181.237 79.3842 181.244 78.924 181.17L76.6753 180.797ZM77.6915 180.18L78.9763 180.393C79.4028 180.464 79.7202 180.43 79.933 180.297C80.1458 180.162 80.2691 179.971 80.3099 179.725C80.34 179.538 80.3214 179.358 80.254 179.191C80.1866 179.022 80.0714 178.873 79.9144 178.754C79.7575 178.634 79.5553 178.551 79.3203 178.514L78.0054 178.298L77.6915 180.18ZM78.118 177.599L79.3088 177.797C79.5074 177.831 79.6936 177.824 79.8692 177.771C80.0412 177.722 80.1866 177.633 80.3063 177.51C80.426 177.386 80.5005 177.229 80.5307 177.039C80.5715 176.796 80.5191 176.576 80.3773 176.382C80.2354 176.188 79.9854 176.064 79.6342 176.004L78.4123 175.806L78.118 177.599Z" fill="#0C0C0D"/>
<path d="M84.1495 181.943C83.731 181.902 83.3763 181.768 83.0855 181.548C82.7937 181.323 82.5774 181.032 82.4391 180.67C82.3007 180.307 82.2564 179.897 82.3007 179.437C82.3459 178.974 82.4727 178.578 82.682 178.249C82.8868 177.92 83.1564 177.674 83.4889 177.513C83.8214 177.353 84.1947 177.293 84.6132 177.334C85.0309 177.375 85.3864 177.51 85.6773 177.73C85.969 177.95 86.1853 178.246 86.3237 178.607C86.462 178.97 86.5063 179.385 86.462 179.848C86.4168 180.307 86.29 180.704 86.0843 181.032C85.8794 181.361 85.6099 181.604 85.2774 181.764C84.9413 181.928 84.568 181.988 84.1495 181.943ZM84.2248 181.215C84.4971 181.241 84.7285 181.192 84.9191 181.065C85.1098 180.939 85.2632 180.763 85.3714 180.532C85.4796 180.304 85.5505 180.042 85.5806 179.758C85.6099 179.475 85.5912 179.209 85.5283 178.959C85.4645 178.712 85.3528 178.507 85.1878 178.342C85.0238 178.178 84.8074 178.085 84.5343 178.059C84.2621 178.033 84.0262 178.081 83.8356 178.208C83.6414 178.335 83.4925 178.514 83.3798 178.746C83.2717 178.977 83.2007 179.235 83.1715 179.519C83.1413 179.807 83.1599 180.072 83.2238 180.319C83.2867 180.565 83.3994 180.77 83.5634 180.931C83.7274 181.092 83.9517 181.189 84.2248 181.215Z" fill="#0C0C0D"/>
<path d="M90.4582 180.397L90.5593 177.775L91.4335 177.809L91.2615 182.287L90.4059 182.254L90.436 181.477H90.3872C90.2755 181.712 90.1035 181.902 89.8721 182.056C89.6406 182.205 89.3569 182.272 89.0208 182.261C88.7327 182.25 88.4826 182.175 88.2663 182.041C88.049 181.906 87.885 181.708 87.7688 181.454C87.6535 181.2 87.6012 180.886 87.6163 180.516L87.7245 177.667L88.5943 177.7L88.4897 180.446C88.4791 180.751 88.5536 180.998 88.714 181.185C88.8745 181.372 89.0918 181.472 89.364 181.48C89.5289 181.487 89.693 181.45 89.857 181.376C90.0219 181.301 90.1638 181.181 90.2755 181.021C90.3917 180.861 90.4511 180.651 90.4582 180.397Z" fill="#0C0C0D"/>
<path d="M93.5849 179.624L93.6416 182.284L92.7709 182.302L92.6733 177.82L93.5104 177.801L93.5255 178.529H93.5813C93.6788 178.29 93.8393 178.096 94.0557 177.947C94.2721 177.797 94.5522 177.719 94.8883 177.711C95.1951 177.704 95.4638 177.763 95.6952 177.886C95.9275 178.01 96.1102 178.193 96.2405 178.443C96.3718 178.69 96.4427 179 96.4498 179.37L96.5101 182.22L95.6394 182.238L95.58 179.493C95.572 179.168 95.4824 178.914 95.3104 178.735C95.1393 178.555 94.9034 178.47 94.609 178.473C94.4068 178.477 94.2277 178.526 94.0743 178.615C93.9209 178.705 93.7977 178.835 93.7125 179.007C93.6221 179.183 93.5813 179.385 93.5849 179.624Z" fill="#0C0C0D"/>
<path d="M99.7146 182.093C99.3555 182.122 99.023 182.059 98.7286 181.894C98.4334 181.73 98.1868 181.487 97.9997 181.155C97.8127 180.823 97.6974 180.42 97.6566 179.934C97.6149 179.448 97.6637 179.03 97.794 178.675C97.9288 178.32 98.1266 178.036 98.3961 177.831C98.6648 177.626 98.9751 177.506 99.3369 177.476C99.6136 177.454 99.8414 177.479 100.021 177.558C100.2 177.636 100.338 177.734 100.443 177.846C100.547 177.962 100.63 178.062 100.689 178.152L100.741 178.148L100.554 175.938L101.425 175.867L101.922 181.82L101.074 181.891L101.015 181.197L100.944 181.204C100.898 181.305 100.831 181.416 100.745 181.548C100.655 181.678 100.532 181.794 100.368 181.902C100.203 182.007 99.9833 182.07 99.7146 182.093ZM99.845 181.335C100.095 181.312 100.301 181.23 100.465 181.08C100.63 180.931 100.745 180.737 100.812 180.494C100.883 180.251 100.905 179.971 100.88 179.657C100.853 179.348 100.787 179.078 100.678 178.855C100.569 178.63 100.424 178.458 100.241 178.342C100.058 178.227 99.8379 178.178 99.5834 178.2C99.3218 178.223 99.109 178.309 98.945 178.458C98.7801 178.608 98.6648 178.806 98.5974 179.049C98.53 179.291 98.5078 179.561 98.53 179.851C98.5566 180.15 98.624 180.415 98.7322 180.648C98.8404 180.879 98.9893 181.055 99.1764 181.181C99.3635 181.305 99.5834 181.357 99.845 181.335Z" fill="#0C0C0D"/>
<path d="M104.768 176.228L104.629 175.463L109.183 174.648L109.321 175.414L107.487 175.743L108.402 180.861L107.517 181.017L106.602 175.899L104.768 176.228Z" fill="#0C0C0D"/>
<path d="M112.709 180.046C112.302 180.143 111.921 180.135 111.574 180.02C111.222 179.904 110.924 179.699 110.677 179.404C110.427 179.108 110.251 178.735 110.143 178.283C110.035 177.831 110.027 177.416 110.113 177.035C110.199 176.658 110.375 176.336 110.636 176.079C110.898 175.818 111.23 175.642 111.641 175.545C112.048 175.448 112.429 175.455 112.777 175.571C113.123 175.687 113.427 175.892 113.673 176.191C113.923 176.49 114.099 176.868 114.207 177.319C114.315 177.771 114.323 178.182 114.237 178.559C114.151 178.936 113.976 179.254 113.714 179.515C113.452 179.77 113.116 179.949 112.709 180.046ZM112.541 179.333C112.806 179.269 113.008 179.146 113.15 178.966C113.292 178.787 113.374 178.567 113.404 178.316C113.434 178.066 113.415 177.797 113.348 177.517C113.28 177.241 113.18 176.994 113.037 176.777C112.9 176.564 112.724 176.407 112.515 176.307C112.306 176.206 112.07 176.188 111.805 176.25C111.54 176.314 111.335 176.438 111.193 176.621C111.05 176.804 110.965 177.024 110.939 177.278C110.909 177.532 110.927 177.797 110.995 178.077C111.062 178.357 111.163 178.604 111.305 178.817C111.443 179.03 111.619 179.186 111.828 179.284C112.037 179.377 112.276 179.396 112.541 179.333Z" fill="#0C0C0D"/>
<path d="M115.989 179.12L114.259 173.401L115.096 173.147L116.825 178.869L115.989 179.12ZM116.317 177.432L116.003 176.412L116.149 176.367L117.311 174.036L118.312 173.733L116.985 176.389L116.855 176.431L116.317 177.432ZM118.697 178.298L116.545 176.721L116.945 175.963L119.724 177.984L118.697 178.298Z" fill="#0C0C0D"/>
<path d="M122.342 177.14C121.927 177.293 121.539 177.334 121.172 177.263C120.81 177.196 120.485 177.028 120.205 176.763C119.925 176.497 119.705 176.146 119.543 175.71C119.387 175.28 119.327 174.869 119.368 174.481C119.41 174.092 119.543 173.752 119.768 173.461C119.992 173.169 120.298 172.953 120.691 172.811C120.929 172.725 121.172 172.68 121.422 172.676C121.673 172.673 121.92 172.725 122.158 172.826C122.398 172.931 122.618 173.095 122.816 173.326C123.018 173.558 123.186 173.864 123.323 174.245L123.428 174.537L120.082 175.762L119.857 175.149L122.401 174.219C122.323 174.003 122.207 173.827 122.062 173.692C121.915 173.558 121.74 173.472 121.55 173.431C121.356 173.394 121.154 173.412 120.941 173.487C120.709 173.573 120.53 173.7 120.399 173.875C120.269 174.051 120.19 174.245 120.164 174.458C120.138 174.671 120.164 174.884 120.239 175.093L120.414 175.571C120.519 175.852 120.654 176.075 120.825 176.236C120.997 176.397 121.191 176.497 121.407 176.535C121.625 176.572 121.852 176.546 122.091 176.46C122.248 176.404 122.379 176.33 122.491 176.236C122.603 176.146 122.689 176.038 122.749 175.915C122.808 175.791 122.842 175.653 122.842 175.504L123.667 175.359C123.69 175.609 123.652 175.852 123.556 176.079C123.458 176.307 123.305 176.512 123.1 176.696C122.906 176.882 122.648 177.028 122.342 177.14Z" fill="#0C0C0D"/>
<path d="M125.087 173.106L126.151 175.545L125.352 175.896L123.56 171.788L124.326 171.451L124.617 172.119L124.669 172.097C124.669 171.839 124.74 171.601 124.885 171.38C125.031 171.16 125.255 170.981 125.565 170.846C125.845 170.723 126.114 170.674 126.376 170.701C126.637 170.726 126.877 170.827 127.093 171.007C127.309 171.186 127.493 171.444 127.638 171.783L128.781 174.395L127.982 174.746L126.884 172.228C126.753 171.93 126.573 171.731 126.346 171.631C126.119 171.53 125.868 171.537 125.595 171.656C125.408 171.739 125.263 171.851 125.155 171.993C125.047 172.134 124.983 172.303 124.968 172.494C124.953 172.684 124.994 172.889 125.087 173.106Z" fill="#0C0C0D"/>
</g>
<path d="M159.085 29.7945C159.64 29.2385 159.641 28.3368 159.077 27.7888C150.483 19.4485 140.384 12.808 129.312 8.2219C117.801 3.45403 105.465 1 93.0057 1C80.5467 1.00009 68.2091 3.45403 56.6989 8.2219C45.6267 12.808 35.5281 19.4485 26.9333 27.7888C26.3693 28.3368 26.3702 29.2385 26.9262 29.7945C27.4821 30.3496 28.3821 30.3487 28.9461 29.8016C37.2757 21.7255 47.0614 15.2943 57.7878 10.8511C68.9531 6.22665 80.92 3.84622 93.0057 3.84622C105.091 3.84622 117.057 6.22656 128.223 10.8511C138.95 15.2943 148.735 21.7255 157.064 29.8016C157.629 30.3487 158.529 30.3496 159.085 29.7945Z" fill="#3568DD"/>
<path d="M48.2019 167.505C48.0165 167.799 47.6273 167.886 47.3356 167.699C38.6025 162.096 30.9795 154.928 24.8515 146.555C24.6467 146.275 24.7105 145.882 24.9925 145.679C25.2745 145.476 25.6673 145.54 25.8721 145.82C31.9061 154.062 39.4103 161.118 48.0068 166.635C48.2985 166.823 48.3872 167.211 48.2019 167.505Z" fill="#0C0C0D"/>
<path d="M137.436 167.505C137.622 167.799 138.01 167.886 138.303 167.699C147.035 162.096 154.658 154.928 160.786 146.555C160.991 146.275 160.927 145.882 160.645 145.679C160.363 145.476 159.97 145.54 159.766 145.82C153.732 154.062 146.227 161.118 137.631 166.635C137.339 166.823 137.25 167.211 137.436 167.505Z" fill="#0C0C0D"/>
<path d="M42.6785 31.5005L46.8398 28.3075L50.5613 33.1577C50.4256 33.3998 50.266 33.5869 50.0745 33.7332C49.8032 33.9424 49.5398 34.079 49.2712 34.1482L48.3162 32.9032L48.2736 32.9085C48.3215 33.1019 48.3206 33.4246 48.2834 33.8671C48.1903 34.885 47.6068 35.8018 46.5366 36.6238C45.234 37.6231 43.7568 37.9388 42.4019 37.5992C41.047 37.2596 39.7418 36.3383 38.6582 34.9258C37.4373 33.3342 36.9159 31.7204 37.0941 30.3238C37.2777 28.9326 38.05 27.6868 39.3703 26.6742C40.4467 25.8478 41.5205 25.4381 42.5899 25.4541C43.6592 25.47 44.5867 25.8983 45.3706 26.7407C45.1622 27.0563 44.9494 27.294 44.7233 27.4669C44.5096 27.6318 44.2134 27.7852 43.8428 27.9129C42.8887 27.0173 41.7315 27.0315 40.476 27.9953C39.5848 28.6799 38.9863 29.5896 39.0714 30.8026C39.1193 31.5838 39.5343 32.5805 40.3341 33.6223C42.1102 35.9375 43.8995 36.4589 45.8902 34.9311C46.5206 34.447 46.9134 33.7961 47.0517 32.9821C47.1723 32.2639 46.9994 31.5235 46.5259 30.7743L46.4408 30.6643L43.669 32.7915C43.4234 32.7223 43.2008 32.553 42.9924 32.2808C42.7876 32.0148 42.6812 31.7558 42.6785 31.5005Z" fill="#3568DD"/>
<path d="M59.1551 28.7234C57.6451 29.4718 56.206 29.5746 54.8502 29.0249C53.4882 28.4786 52.3896 27.3623 51.557 25.6829C50.7182 23.9902 50.4947 22.4393 50.8813 21.0348C51.2679 19.6294 52.2238 18.5529 53.7409 17.801C55.2377 17.0597 56.66 16.9569 57.9962 17.4995C59.3351 18.0493 60.4204 19.1718 61.2637 20.8708C62.099 22.5573 62.3286 24.1046 61.9553 25.5029C61.5856 26.9083 60.6519 27.9812 59.1551 28.7234ZM58.3704 27.1415C59.2855 26.6884 59.8335 25.9852 60.0126 25.0329C60.1917 24.0806 59.9833 23.0033 59.3874 21.8009C58.788 20.5915 58.0539 19.7668 57.1964 19.3368C56.3337 18.9094 55.4434 18.92 54.5212 19.3767C53.5867 19.8395 53.0263 20.5489 52.8374 21.4977C52.6414 22.45 52.8463 23.5371 53.4457 24.7465C54.0424 25.9489 54.7802 26.7638 55.6598 27.1912C56.5385 27.6185 57.4429 27.6017 58.3704 27.1415Z" fill="#3568DD"/>
<path d="M73.0987 10.9521C73.4782 10.8457 73.824 10.8093 74.1415 10.8341L73.2148 22.8684C72.9222 23.0945 72.5418 23.2772 72.0781 23.4075C71.5931 23.5432 71.1808 23.584 70.8412 23.5352L63.7812 13.7407C64.0818 13.543 64.4312 13.3843 64.832 13.2726C65.1335 13.1874 65.5218 13.1387 65.9936 13.1201L71.5541 21.2431L72.126 11.3999C72.447 11.1959 72.7688 11.0452 73.0987 10.9521Z" fill="#3568DD"/>
<path d="M83.0056 19.2782L88.9491 18.6682C89.1663 18.8588 89.2994 19.1532 89.3393 19.5451C89.3792 19.9291 89.3082 20.2376 89.1318 20.4531L81.0912 21.2786L79.895 9.62375L87.7618 8.81641C87.995 9.01973 88.128 9.31411 88.1679 9.70603C88.2096 10.1051 88.1369 10.3988 87.9445 10.6019L82.1756 11.1942L82.4939 14.2994L87.9374 13.7417C88.1546 13.9314 88.2859 14.2116 88.3231 14.5743C88.3612 14.944 88.2885 15.2375 88.1112 15.4397L82.6686 15.9983L83.0056 19.2782Z" fill="#3568DD"/>
<path d="M103.728 20.0904C103.759 20.2616 103.769 20.4088 103.761 20.5249C103.75 20.6633 103.711 20.7918 103.651 20.9115C103.24 21.0188 102.755 21.0472 102.18 21.0037C101.343 20.939 100.982 20.6038 100.973 19.9521L100.945 17.7478C100.935 17.3151 100.897 16.9391 100.645 16.6119C100.388 16.322 99.9531 16.0834 99.1604 16.0223L95.8805 15.7704L95.5355 20.2509C95.1853 20.3343 94.8315 20.3653 94.483 20.3387C94.1266 20.3112 93.7816 20.2261 93.4482 20.0904L94.3332 8.57629L99.8467 9.00005C100.662 9.06265 101.311 9.18572 101.786 9.37592C102.261 9.56612 102.65 9.83745 102.961 10.1833C103.465 10.7562 103.683 11.5338 103.609 12.5012C103.563 13.105 103.368 13.6459 103.031 14.1247C102.686 14.6106 102.266 14.944 101.775 15.1338L101.766 15.25C102.106 15.4007 102.327 15.5709 102.548 15.9247C102.77 16.2785 102.893 16.8584 102.926 17.6733L102.992 19.39C103.01 19.8306 103.182 20.063 103.509 20.0887C103.597 20.0949 103.669 20.0931 103.728 20.0904ZM100.95 13.9722C101.28 13.6761 101.468 13.2292 101.515 12.6253C101.553 12.1235 101.438 11.7049 101.178 11.3848C100.858 10.9876 100.253 10.7579 99.3581 10.6897L96.2883 10.4538L96.0037 14.1629L99.0282 14.4103C99.9087 14.4776 100.549 14.3296 100.95 13.9722Z" fill="#3568DD"/>
<path d="M108.976 22.0234C108.667 21.9383 108.387 21.8009 108.131 21.6013L111.138 10.671C111.284 10.6355 111.432 10.6231 111.573 10.6311C111.714 10.64 111.929 10.6843 112.203 10.7597C112.646 10.8812 113.023 11.0532 113.333 11.2748L116.293 21.1686L116.308 21.1722L118.633 12.7175C118.99 12.6874 119.314 12.7157 119.603 12.7955C119.955 12.8922 120.235 13.0296 120.448 13.2167L117.441 24.148C117.16 24.2065 116.812 24.179 116.383 24.0611C115.968 23.9467 115.591 23.7746 115.253 23.5459L112.297 13.6379L112.283 13.6335L109.953 22.1023C109.646 22.1467 109.32 22.1183 108.976 22.0234Z" fill="#3568DD"/>
<path d="M126.19 28.3624C124.68 27.614 123.726 26.5314 123.343 25.1197C122.953 23.7055 123.177 22.1546 124.009 20.4743C124.848 18.7816 125.948 17.6653 127.3 17.1226C128.652 16.5799 130.088 16.689 131.604 17.4409C133.101 18.1831 134.044 19.2525 134.421 20.6446C134.794 22.0429 134.558 23.5866 133.716 25.2865C132.88 26.973 131.787 28.092 130.449 28.6417C129.106 29.1977 127.686 29.1046 126.19 28.3624ZM126.974 26.7805C127.889 27.2345 128.78 27.2443 129.646 26.8107C130.512 26.3771 131.244 25.5596 131.84 24.3563C132.439 23.1477 132.651 22.0633 132.475 21.1207C132.292 20.1755 131.745 19.4724 130.823 19.0157C129.888 18.5529 128.985 18.536 128.115 18.9598C127.239 19.3801 126.497 20.2021 125.898 21.4116C125.302 22.6139 125.1 23.6948 125.292 24.6533C125.486 25.6119 126.045 26.3212 126.974 26.7805Z" fill="#3568DD"/>
<path d="M143.539 38.2802C143.472 38.4407 143.4 38.5693 143.329 38.6624C143.245 38.7723 143.142 38.8584 143.026 38.9258C142.623 38.791 142.201 38.5507 141.744 38.1995C141.079 37.6888 140.958 37.21 141.308 36.6594L142.488 34.7973C142.715 34.4293 142.89 34.0941 142.857 33.6827C142.801 33.2996 142.566 32.8625 141.935 32.3784L139.325 30.3753L136.59 33.9398C136.251 33.8184 135.938 33.6517 135.659 33.438C135.376 33.2207 135.134 32.9609 134.929 32.6657L141.959 23.5043L146.346 26.8702C146.994 27.3676 147.47 27.8252 147.765 28.2446C148.06 28.664 148.237 29.1038 148.308 29.5622C148.418 30.3177 148.176 31.0882 147.585 31.8579C147.217 32.3385 146.757 32.6852 146.214 32.9024C145.66 33.1214 145.125 33.1711 144.611 33.0611L144.541 33.1542C144.743 33.4655 144.834 33.7288 144.827 34.1464C144.819 34.5641 144.606 35.1174 144.189 35.817L143.305 37.2916C143.079 37.6702 143.096 37.9592 143.357 38.1588C143.427 38.212 143.489 38.251 143.539 38.2802ZM144.554 31.638C144.993 31.5697 145.394 31.2984 145.762 30.8187C146.069 30.4188 146.202 30.0056 146.158 29.5959C146.107 29.0869 145.726 28.5647 145.014 28.0185L142.572 26.144L140.307 29.0958L142.705 30.9552C143.406 31.4925 144.024 31.7187 144.554 31.638Z" fill="#3568DD"/>
<defs>
<filter id="filter0_i_2570_10367" x="219.852" y="10.9746" width="170.295" height="170.295" filterUnits="userSpaceOnUse" color-interpolation-filters="sRGB">
<feFlood flood-opacity="0" result="BackgroundImageFix"/>
<feBlend mode="normal" in="SourceGraphic" in2="BackgroundImageFix" result="shape"/>
<feColorMatrix in="SourceAlpha" type="matrix" values="0 0 0 0 0 0 0 0 0 0 0 0 0 0 0 0 0 0 127 0" result="hardAlpha"/>
<feMorphology radius="1.7739" operator="erode" in="SourceAlpha" result="effect1_innerShadow_2570_10367"/>
<feOffset/>
<feGaussianBlur stdDeviation="1.92912"/>
<feComposite in2="hardAlpha" operator="arithmetic" k2="-1" k3="1"/>
<feColorMatrix type="matrix" values="0 0 0 0 0.282085 0 0 0 0 0.852344 0 0 0 0 0.67153 0 0 0 1 0"/>
<feBlend mode="normal" in2="shape" result="effect1_innerShadow_2570_10367"/>
</filter>
<filter id="filter1_i_2570_10367" x="211.87" y="2.99146" width="186.26" height="186.26" filterUnits="userSpaceOnUse" color-interpolation-filters="sRGB">
<feFlood flood-opacity="0" result="BackgroundImageFix"/>
<feBlend mode="normal" in="SourceGraphic" in2="BackgroundImageFix" result="shape"/>
<feColorMatrix in="SourceAlpha" type="matrix" values="0 0 0 0 0 0 0 0 0 0 0 0 0 0 0 0 0 0 127 0" result="hardAlpha"/>
<feOffset/>
<feGaussianBlur stdDeviation="11.9498"/>
<feComposite in2="hardAlpha" operator="arithmetic" k2="-1" k3="1"/>
<feColorMatrix type="matrix" values="0 0 0 0 0.651468 0 0 0 0 0.871391 0 0 0 0 0.80166 0 0 0 1 0"/>
<feBlend mode="normal" in2="shape" result="effect1_innerShadow_2570_10367"/>
</filter>
<filter id="filter2_i_2570_10367" x="434.294" y="10.9746" width="170.295" height="170.295" filterUnits="userSpaceOnUse" color-interpolation-filters="sRGB">
<feFlood flood-opacity="0" result="BackgroundImageFix"/>
<feBlend mode="normal" in="SourceGraphic" in2="BackgroundImageFix" result="shape"/>
<feColorMatrix in="SourceAlpha" type="matrix" values="0 0 0 0 0 0 0 0 0 0 0 0 0 0 0 0 0 0 127 0" result="hardAlpha"/>
<feMorphology radius="1.7739" operator="erode" in="SourceAlpha" result="effect1_innerShadow_2570_10367"/>
<feOffset/>
<feGaussianBlur stdDeviation="1.92912"/>
<feComposite in2="hardAlpha" operator="arithmetic" k2="-1" k3="1"/>
<feColorMatrix type="matrix" values="0 0 0 0 0.904725 0 0 0 0 0.635062 0 0 0 0 0.484674 0 0 0 1 0"/>
<feBlend mode="normal" in2="shape" result="effect1_innerShadow_2570_10367"/>
</filter>
<filter id="filter3_i_2570_10367" x="426.312" y="2.99146" width="186.26" height="186.26" filterUnits="userSpaceOnUse" color-interpolation-filters="sRGB">
<feFlood flood-opacity="0" result="BackgroundImageFix"/>
<feBlend mode="normal" in="SourceGraphic" in2="BackgroundImageFix" result="shape"/>
<feColorMatrix in="SourceAlpha" type="matrix" values="0 0 0 0 0 0 0 0 0 0 0 0 0 0 0 0 0 0 127 0" result="hardAlpha"/>
<feOffset/>
<feGaussianBlur stdDeviation="11.9498"/>
<feComposite in2="hardAlpha" operator="arithmetic" k2="-1" k3="1"/>
<feColorMatrix type="matrix" values="0 0 0 0 0.966629 0 0 0 0 0.711916 0 0 0 0 0.577676 0 0 0 1 0"/>
<feBlend mode="normal" in2="shape" result="effect1_innerShadow_2570_10367"/>
</filter>
<filter id="filter4_di_2570_10367" x="21.8599" y="90.8414" width="143.411" height="101.577" filterUnits="userSpaceOnUse" color-interpolation-filters="sRGB">
<feFlood flood-opacity="0" result="BackgroundImageFix"/>
<feColorMatrix in="SourceAlpha" type="matrix" values="0 0 0 0 0 0 0 0 0 0 0 0 0 0 0 0 0 0 127 0" result="hardAlpha"/>
<feOffset/>
<feGaussianBlur stdDeviation="4.19699"/>
<feComposite in2="hardAlpha" operator="out"/>
<feColorMatrix type="matrix" values="0 0 0 0 0.643137 0 0 0 0 0.733333 0 0 0 0 0.941176 0 0 0 0.12 0"/>
<feBlend mode="normal" in2="BackgroundImageFix" result="effect1_dropShadow_2570_10367"/>
<feBlend mode="normal" in="SourceGraphic" in2="effect1_dropShadow_2570_10367" result="shape"/>
<feColorMatrix in="SourceAlpha" type="matrix" values="0 0 0 0 0 0 0 0 0 0 0 0 0 0 0 0 0 0 127 0" result="hardAlpha"/>
<feOffset/>
<feGaussianBlur stdDeviation="10.5226"/>
<feComposite in2="hardAlpha" operator="arithmetic" k2="-1" k3="1"/>
<feColorMatrix type="matrix" values="0 0 0 0 0.864249 0 0 0 0 0.259275 0 0 0 0 0 0 0 0 1 0"/>
<feBlend mode="normal" in2="shape" result="effect2_innerShadow_2570_10367"/>
</filter>
<filter id="filter5_di_2570_10367" x="20.7696" y="90.4061" width="144.158" height="101.577" filterUnits="userSpaceOnUse" color-interpolation-filters="sRGB">
<feFlood flood-opacity="0" result="BackgroundImageFix"/>
<feColorMatrix in="SourceAlpha" type="matrix" values="0 0 0 0 0 0 0 0 0 0 0 0 0 0 0 0 0 0 127 0" result="hardAlpha"/>
<feOffset/>
<feGaussianBlur stdDeviation="4.19699"/>
<feComposite in2="hardAlpha" operator="out"/>
<feColorMatrix type="matrix" values="0 0 0 0 0.643137 0 0 0 0 0.733333 0 0 0 0 0.941176 0 0 0 0.12 0"/>
<feBlend mode="normal" in2="BackgroundImageFix" result="effect1_dropShadow_2570_10367"/>
<feBlend mode="normal" in="SourceGraphic" in2="effect1_dropShadow_2570_10367" result="shape"/>
<feColorMatrix in="SourceAlpha" type="matrix" values="0 0 0 0 0 0 0 0 0 0 0 0 0 0 0 0 0 0 127 0" result="hardAlpha"/>
<feOffset/>
<feGaussianBlur stdDeviation="10.5226"/>
<feComposite in2="hardAlpha" operator="arithmetic" k2="-1" k3="1"/>
<feColorMatrix type="matrix" values="0 0 0 0 0.864249 0 0 0 0 0.259275 0 0 0 0 0 0 0 0 1 0"/>
<feBlend mode="normal" in2="shape" result="effect2_innerShadow_2570_10367"/>
</filter>
<filter id="filter6_di_2570_10367" x="53.9835" y="41.163" width="78.0448" height="78.0449" filterUnits="userSpaceOnUse" color-interpolation-filters="sRGB">
<feFlood flood-opacity="0" result="BackgroundImageFix"/>
<feColorMatrix in="SourceAlpha" type="matrix" values="0 0 0 0 0 0 0 0 0 0 0 0 0 0 0 0 0 0 127 0" result="hardAlpha"/>
<feOffset/>
<feGaussianBlur stdDeviation="4.19699"/>
<feComposite in2="hardAlpha" operator="out"/>
<feColorMatrix type="matrix" values="0 0 0 0 0.643137 0 0 0 0 0.733333 0 0 0 0 0.941176 0 0 0 0.12 0"/>
<feBlend mode="normal" in2="BackgroundImageFix" result="effect1_dropShadow_2570_10367"/>
<feBlend mode="normal" in="SourceGraphic" in2="effect1_dropShadow_2570_10367" result="shape"/>
<feColorMatrix in="SourceAlpha" type="matrix" values="0 0 0 0 0 0 0 0 0 0 0 0 0 0 0 0 0 0 127 0" result="hardAlpha"/>
<feOffset/>
<feGaussianBlur stdDeviation="10.5226"/>
<feComposite in2="hardAlpha" operator="arithmetic" k2="-1" k3="1"/>
<feColorMatrix type="matrix" values="0 0 0 0 0.864249 0 0 0 0 0.259275 0 0 0 0 0 0 0 0 1 0"/>
<feBlend mode="normal" in2="shape" result="effect2_innerShadow_2570_10367"/>
</filter>
<filter id="filter7_d_2570_10367" x="4.11907" y="8.10711" width="177.774" height="177.774" filterUnits="userSpaceOnUse" color-interpolation-filters="sRGB">
<feFlood flood-opacity="0" result="BackgroundImageFix"/>
<feColorMatrix in="SourceAlpha" type="matrix" values="0 0 0 0 0 0 0 0 0 0 0 0 0 0 0 0 0 0 127 0" result="hardAlpha"/>
<feOffset/>
<feGaussianBlur stdDeviation="1.92655"/>
<feComposite in2="hardAlpha" operator="out"/>
<feColorMatrix type="matrix" values="0 0 0 0 0 0 0 0 0 0 0 0 0 0 0 0 0 0 0.04 0"/>
<feBlend mode="normal" in2="BackgroundImageFix" result="effect1_dropShadow_2570_10367"/>
<feBlend mode="normal" in="SourceGraphic" in2="effect1_dropShadow_2570_10367" result="shape"/>
</filter>
<filter id="filter8_i_2570_10367" x="0" y="3.98816" width="186.012" height="186.012" filterUnits="userSpaceOnUse" color-interpolation-filters="sRGB">
<feFlood flood-opacity="0" result="BackgroundImageFix"/>
<feBlend mode="normal" in="SourceGraphic" in2="BackgroundImageFix" result="shape"/>
<feColorMatrix in="SourceAlpha" type="matrix" values="0 0 0 0 0 0 0 0 0 0 0 0 0 0 0 0 0 0 127 0" result="hardAlpha"/>
<feOffset/>
<feGaussianBlur stdDeviation="11.9339"/>
<feComposite in2="hardAlpha" operator="arithmetic" k2="-1" k3="1"/>
<feColorMatrix type="matrix" values="0 0 0 0 0.84282 0 0 0 0 0.84282 0 0 0 0 0.84282 0 0 0 1 0"/>
<feBlend mode="normal" in2="shape" result="effect1_innerShadow_2570_10367"/>
</filter>
<radialGradient id="paint0_radial_2570_10367" cx="0" cy="0" r="1" gradientUnits="userSpaceOnUse" gradientTransform="translate(135.333 114.915) rotate(154.675) scale(123.547 1866.61)">
<stop stop-color="#FFC01E"/>
<stop offset="0.609473" stop-color="#FFE600"/>
<stop offset="1" stop-color="#FFCA0D"/>
</radialGradient>
<radialGradient id="paint1_radial_2570_10367" cx="0" cy="0" r="1" gradientUnits="userSpaceOnUse" gradientTransform="translate(134.863 114.479) rotate(154.805) scale(124.143 1868.61)">
<stop stop-color="#FFC01E"/>
<stop offset="0.609473" stop-color="#FFE600"/>
<stop offset="1" stop-color="#FFCA0D"/>
</radialGradient>
<linearGradient id="paint2_linear_2570_10367" x1="93.006" y1="96.5286" x2="92.2175" y2="162.893" gradientUnits="userSpaceOnUse">
<stop stop-color="#FFCD1C"/>
<stop offset="0.719922" stop-color="#FFD600"/>
</linearGradient>
<radialGradient id="paint3_radial_2570_10367" cx="0" cy="0" r="1" gradientUnits="userSpaceOnUse" gradientTransform="translate(112.306 59.9792) rotate(125.25) scale(66.155 1218.39)">
<stop stop-color="#FFC01E"/>
<stop offset="0.609473" stop-color="#FFE600"/>
<stop offset="1" stop-color="#FFCA0D"/>
</radialGradient>
<radialGradient id="paint4_radial_2570_10367" cx="0" cy="0" r="1" gradientUnits="userSpaceOnUse" gradientTransform="translate(93.0056 81.0661) rotate(-45.4063) scale(44.204 44.204)">
<stop offset="0.0001" stop-color="#FFFEFC"/>
<stop offset="0.288512" stop-color="#FFDD07"/>
<stop offset="0.692956" stop-color="#FFCD1C"/>
</radialGradient>
<linearGradient id="paint5_linear_2570_10367" x1="175.74" y1="88.7767" x2="175.74" y2="103.25" gradientUnits="userSpaceOnUse">
<stop stop-color="#5080EC"/>
<stop offset="1" stop-color="#3568DD"/>
</linearGradient>
<linearGradient id="paint6_linear_2570_10367" x1="9.89808" y1="88.7767" x2="9.89808" y2="103.25" gradientUnits="userSpaceOnUse">
<stop stop-color="#5080EC"/>
<stop offset="1" stop-color="#3568DD"/>
</linearGradient>
</defs>
</svg>
