<svg width="60" height="60" viewBox="0 0 60 60" fill="none" xmlns="http://www.w3.org/2000/svg">
<rect width="60" height="60" rx="30" fill="#3668DD"/>
<path fill-rule="evenodd" clip-rule="evenodd" d="M22.1485 45.0738C21.9524 45.1933 21.697 45.1379 21.5681 44.9478L21.0743 44.2198C20.9454 44.0297 20.9887 43.7723 21.1696 43.6307C22.7959 42.3582 24.1327 40.9239 25.184 39.3877C29.0986 33.6675 29.0986 26.4692 25.184 20.7491C24.1327 19.2128 22.7959 17.7785 21.1696 16.506C20.9887 16.3645 20.9454 16.107 21.0743 15.917L21.5681 15.1889C21.697 14.9988 21.9524 14.9434 22.1485 15.063L44.0819 28.4335C45.306 29.1797 45.306 30.957 44.0819 31.7033L22.1485 45.0738Z" fill="white"/>
</svg>
