<svg width="222" height="340" viewBox="0 0 222 340" fill="none" xmlns="http://www.w3.org/2000/svg">
<rect x="13.5537" y="81.3523" width="35.7945" height="35.7945" rx="17.8972" transform="rotate(-5.374 13.5537 81.3523)" fill="#5080EC"/>
<path fill-rule="evenodd" clip-rule="evenodd" d="M29.2267 106.886C29.1169 106.968 28.9621 106.95 28.8749 106.844L28.541 106.439C28.4538 106.333 28.4651 106.178 28.5647 106.084C29.4595 105.237 30.1734 104.311 30.712 103.339C32.7175 99.7233 32.3153 95.4478 29.6706 92.269C28.9603 91.4153 28.0862 90.6381 27.0491 89.9731C26.9338 89.8992 26.8937 89.7487 26.9596 89.6286L27.2122 89.1686C27.2782 89.0485 27.4268 89.0013 27.5499 89.0614L41.3244 95.7773C42.0932 96.1521 42.1925 97.2078 41.5071 97.7194L29.2267 106.886Z" fill="white"/>
<path d="M0.00476644 255.191C-0.495745 288.192 38.5041 312.5 68.4961 312.5L144.5 312.5C224.5 312.5 217.7 244.328 217.7 244.328C217.7 233.967 219.665 214.627 213.654 197.128C207.643 179.63 209.223 164.511 210.764 159.138C203.251 162.016 188.223 191.922 187.067 209.19C185.911 226.459 149.498 220.127 170.883 196.527C192.268 172.928 181.524 158.29 165.341 134.69C152.394 115.811 157.249 86.5316 161.295 74.2521C134.708 88.0665 129.506 109.879 129.506 134.69C129.506 159.441 102.659 134.69 114.479 113.969C158.867 36.1473 128.35 5.56417 107.543 2.58167e-05C117.369 6.90725 128.697 28.6649 95.4056 60.4381C53.7913 100.155 48.4594 145.97 52.5053 166.691C55.7419 183.268 51.1567 207.751 48.4594 217.92C49.3842 162.202 28.4229 146.737 17.8267 145.969C21.1019 152.301 25.6872 169.569 17.8267 187.988C9.9662 206.408 0.505278 222.191 0.00476644 255.191Z" fill="white"/>
<path d="M3.24223 137.003C10.8422 145.403 14.7422 164.503 5.74223 172.503L5.74223 172.503C5.74223 166.503 5.74223 163.003 1.74221 154.503C-1.87884 146.809 0.908902 140.003 3.24223 137.003Z" fill="white"/>
<path d="M216.71 107.029C224.3 121.836 207.117 147.037 191.307 154.966C193.588 146.453 189.002 133.82 200.051 122.334C208.71 113.331 212.259 110.399 216.71 107.029Z" fill="white"/>
<path d="M83.0184 68.5188C90.6077 83.3258 72.6488 86.2197 78.1489 113.72C70.6488 104.72 65.8098 98.2196 67.1489 90.7195C69.6487 76.7196 76.0183 79.5188 83.0184 68.5188Z" fill="#FFEE52" stroke="#5080EC" stroke-width="3" stroke-linecap="round" stroke-linejoin="round" stroke-dasharray="612 612"/>
<rect x="122.349" y="180.496" width="48" height="48" rx="24" transform="rotate(-5.374 122.349 180.496)" fill="#5080EC"/>
<path fill-rule="evenodd" clip-rule="evenodd" d="M143.367 214.737C143.22 214.846 143.012 214.821 142.896 214.68L142.448 214.137C142.331 213.995 142.346 213.787 142.479 213.661C143.679 212.525 144.637 211.283 145.359 209.98C148.048 205.131 147.509 199.398 143.962 195.135C143.01 193.99 141.838 192.948 140.447 192.056C140.292 191.957 140.239 191.755 140.327 191.594L140.666 190.977C140.754 190.816 140.954 190.753 141.119 190.833L159.59 199.839C160.621 200.342 160.754 201.758 159.835 202.444L143.367 214.737Z" fill="white"/>
<rect x="135.555" y="109.496" width="48" height="48" rx="24" transform="rotate(-5.374 135.555 109.496)" fill="#5080EC"/>
<path fill-rule="evenodd" clip-rule="evenodd" d="M156.572 143.737C156.425 143.846 156.218 143.821 156.101 143.68L155.653 143.137C155.536 142.995 155.551 142.787 155.685 142.661C156.884 141.525 157.842 140.283 158.564 138.98C161.253 134.131 160.714 128.398 157.168 124.135C156.215 122.99 155.043 121.948 153.652 121.056C153.498 120.957 153.444 120.755 153.532 120.594L153.871 119.977C153.959 119.816 154.159 119.753 154.324 119.833L172.795 128.839C173.826 129.342 173.959 130.758 173.04 131.444L156.572 143.737Z" fill="white"/>
<path d="M57.5694 261.822C59.0095 225.822 66.7419 218.322 59.1125 190.822C69.7792 194.322 103.242 198.322 104.431 227.822C118.071 210.822 91.0713 191.322 127.571 159.322C123.497 181.325 148.616 219.322 148.616 253.822C148.616 277.822 147.218 308.921 104.431 308.921C85.6165 308.921 56.4301 290.3 57.5694 261.822Z" fill="#FFEE52" stroke="#5080EC" stroke-width="3" stroke-linecap="round" stroke-linejoin="round" stroke-dasharray="612 612"/>
<g filter="url(#filter0_d_3630_3221)">
<rect x="71.4512" y="263" width="68.634" height="68.634" rx="34.317" fill="#2E313A"/>
<path fill-rule="evenodd" clip-rule="evenodd" d="M83.8057 297.271C83.8057 286.521 91.2974 277.553 101.251 275.494V282.564C95.6472 284.287 91.4202 289.246 90.6613 295.308H97.3901C98.353 291.633 101.669 288.923 105.613 288.923C109.556 288.923 112.872 291.633 113.835 295.308H120.563C119.804 289.246 115.577 284.287 109.974 282.564V275.494C119.927 277.553 127.419 286.521 127.419 297.271C127.419 309.544 117.656 319.493 105.612 319.493C93.5688 319.493 83.8057 309.544 83.8057 297.271ZM120.496 299.711H113.835C113.056 302.684 110.738 305.025 107.793 305.811V312.472C114.301 311.511 119.462 306.312 120.496 299.711ZM103.432 312.472V305.811C100.487 305.024 98.1689 302.684 97.3901 299.711H90.7284C91.7623 306.312 96.9237 311.511 103.432 312.472Z" fill="#FFEE52"/>
</g>
<defs>
<filter id="filter0_d_3630_3221" x="67.4512" y="263" width="76.6348" height="76.634" filterUnits="userSpaceOnUse" color-interpolation-filters="sRGB">
<feFlood flood-opacity="0" result="BackgroundImageFix"/>
<feColorMatrix in="SourceAlpha" type="matrix" values="0 0 0 0 0 0 0 0 0 0 0 0 0 0 0 0 0 0 127 0" result="hardAlpha"/>
<feOffset dy="4"/>
<feGaussianBlur stdDeviation="2"/>
<feComposite in2="hardAlpha" operator="out"/>
<feColorMatrix type="matrix" values="0 0 0 0 0 0 0 0 0 0 0 0 0 0 0 0 0 0 0.25 0"/>
<feBlend mode="normal" in2="BackgroundImageFix" result="effect1_dropShadow_3630_3221"/>
<feBlend mode="normal" in="SourceGraphic" in2="effect1_dropShadow_3630_3221" result="shape"/>
</filter>
</defs>
</svg>
