<svg width="56" height="57" viewBox="0 0 56 57" fill="none" xmlns="http://www.w3.org/2000/svg">
<rect y="0.5" width="56" height="56" rx="28" fill="#F2F4F6"/>
<path d="M40.3327 25.4517C40.306 26.5917 39.938 27.6783 39.2967 28.4997C37.41 31.181 33.0567 33.0717 27.9993 33.0717C22.942 33.0717 18.5887 31.1797 16.702 28.4997C16.062 27.6783 15.6913 26.593 15.666 25.4517C15.666 21.2463 21.1913 17.833 27.9993 17.833C34.8073 17.833 40.3327 21.2463 40.3327 25.4517Z" stroke="#9B9CA5" stroke-width="2" stroke-linecap="round" stroke-linejoin="round"/>
<path d="M35.6288 25.4519C35.6136 26.0205 35.3851 26.5626 34.9888 26.9706C33.8208 28.3066 31.1275 29.2479 27.9995 29.2479C24.8715 29.2479 22.1781 28.3066 21.0101 26.9706C20.6138 26.5626 20.3853 26.0205 20.3701 25.4519C20.3701 23.3572 23.7875 21.6572 27.9995 21.6572C32.2115 21.6572 35.6288 23.3572 35.6288 25.4519Z" stroke="#9B9CA5" stroke-width="2" stroke-linecap="round" stroke-linejoin="round"/>
<path d="M40.3327 25.4514V31.5474C40.3327 35.7528 34.8073 39.1661 27.9993 39.1661C21.1913 39.1661 15.666 35.7528 15.666 31.5474V25.4514" stroke="#9B9CA5" stroke-width="2" stroke-linecap="round" stroke-linejoin="round"/>
</svg>
