<svg width="56" height="56" viewBox="0 0 56 56" fill="none" xmlns="http://www.w3.org/2000/svg">
<rect width="56" height="56" rx="28" fill="#F2F4F6"/>
<path d="M40.3327 24.9517C40.306 26.0917 39.938 27.1783 39.2967 27.9997C37.41 30.681 33.0567 32.5717 27.9993 32.5717C22.942 32.5717 18.5887 30.6797 16.702 27.9997C16.062 27.1783 15.6913 26.093 15.666 24.9517C15.666 20.7463 21.1913 17.333 27.9993 17.333C34.8073 17.333 40.3327 20.7463 40.3327 24.9517Z" stroke="black" stroke-width="2" stroke-linecap="round" stroke-linejoin="round"/>
<path d="M35.6288 24.9519C35.6136 25.5205 35.3851 26.0626 34.9888 26.4706C33.8208 27.8066 31.1275 28.7479 27.9995 28.7479C24.8715 28.7479 22.1781 27.8066 21.0101 26.4706C20.6138 26.0626 20.3853 25.5205 20.3701 24.9519C20.3701 22.8572 23.7875 21.1572 27.9995 21.1572C32.2115 21.1572 35.6288 22.8572 35.6288 24.9519Z" stroke="black" stroke-width="2" stroke-linecap="round" stroke-linejoin="round"/>
<path d="M40.3327 24.9517V31.0477C40.3327 35.253 34.8073 38.6663 27.9993 38.6663C21.1913 38.6663 15.666 35.253 15.666 31.0477V24.9517" stroke="black" stroke-width="2" stroke-linecap="round" stroke-linejoin="round"/>
</svg>
