<svg width="56" height="56" viewBox="0 0 56 56" fill="none" xmlns="http://www.w3.org/2000/svg">
<rect width="56" height="56" rx="28" fill="#F2F4F6"/>
<path d="M27.9997 28.0003C27.2085 28.0003 26.4352 28.2349 25.7774 28.6744C25.1196 29.114 24.6069 29.7387 24.3042 30.4696C24.0014 31.2005 23.9222 32.0048 24.0765 32.7807C24.2309 33.5566 24.6118 34.2693 25.1712 34.8288C25.7307 35.3882 26.4434 35.7691 27.2193 35.9235C27.9952 36.0778 28.7995 35.9986 29.5304 35.6958C30.2613 35.3931 30.886 34.8804 31.3256 34.2226C31.7651 33.5648 31.9997 32.7915 31.9997 32.0003C31.9997 30.9395 31.5782 29.922 30.8281 29.1719C30.078 28.4218 29.0605 28.0003 27.9997 28.0003ZM27.9997 33.3337C27.736 33.3337 27.4782 33.2555 27.2589 33.1089C27.0396 32.9624 26.8688 32.7542 26.7678 32.5106C26.6669 32.2669 26.6405 31.9988 26.692 31.7402C26.7434 31.4816 26.8704 31.244 27.0569 31.0575C27.2433 30.871 27.4809 30.7441 27.7396 30.6926C27.9982 30.6412 28.2663 30.6676 28.5099 30.7685C28.7536 30.8694 28.9618 31.0403 29.1083 31.2596C29.2548 31.4788 29.333 31.7366 29.333 32.0003C29.333 32.3539 29.1925 32.6931 28.9425 32.9431C28.6924 33.1932 28.3533 33.3337 27.9997 33.3337ZM27.053 24.947C27.1798 25.0684 27.3293 25.1635 27.493 25.227C27.6526 25.2975 27.8252 25.334 27.9997 25.334C28.1742 25.334 28.3467 25.2975 28.5063 25.227C28.67 25.1635 28.8195 25.0684 28.9463 24.947L31.9997 21.947C32.2578 21.6888 32.4028 21.3387 32.4028 20.9737C32.4028 20.6086 32.2578 20.2585 31.9997 20.0003C31.7415 19.7422 31.3914 19.5972 31.0263 19.5972C30.6613 19.5972 30.3112 19.7422 30.053 20.0003L29.333 20.787V16.0003C29.333 15.6467 29.1925 15.3076 28.9425 15.0575C28.6924 14.8075 28.3533 14.667 27.9997 14.667C27.6461 14.667 27.3069 14.8075 27.0569 15.0575C26.8068 15.3076 26.6663 15.6467 26.6663 16.0003V20.787L25.9463 20.0003C25.6882 19.7422 25.3381 19.5972 24.973 19.5972C24.6079 19.5972 24.2578 19.7422 23.9997 20.0003C23.7415 20.2585 23.5965 20.6086 23.5965 20.9737C23.5965 21.3387 23.7415 21.6888 23.9997 21.947L27.053 24.947ZM37.333 32.0003C37.333 31.7366 37.2548 31.4788 37.1083 31.2596C36.9618 31.0403 36.7536 30.8694 36.5099 30.7685C36.2663 30.6676 35.9982 30.6412 35.7396 30.6926C35.4809 30.7441 35.2433 30.871 35.0569 31.0575C34.8704 31.244 34.7434 31.4816 34.692 31.7402C34.6405 31.9988 34.6669 32.2669 34.7678 32.5106C34.8688 32.7542 35.0396 32.9624 35.2589 33.1089C35.4782 33.2555 35.736 33.3337 35.9997 33.3337C36.3533 33.3337 36.6924 33.1932 36.9425 32.9431C37.1925 32.6931 37.333 32.3539 37.333 32.0003ZM38.6663 22.667H34.6663C34.3127 22.667 33.9736 22.8075 33.7235 23.0575C33.4735 23.3076 33.333 23.6467 33.333 24.0003C33.333 24.3539 33.4735 24.6931 33.7235 24.9431C33.9736 25.1932 34.3127 25.3337 34.6663 25.3337H38.6663C39.02 25.3337 39.3591 25.4741 39.6092 25.7242C39.8592 25.9742 39.9997 26.3134 39.9997 26.667V37.3337C39.9997 37.6873 39.8592 38.0264 39.6092 38.2765C39.3591 38.5265 39.02 38.667 38.6663 38.667H17.333C16.9794 38.667 16.6402 38.5265 16.3902 38.2765C16.1402 38.0264 15.9997 37.6873 15.9997 37.3337V26.667C15.9997 26.3134 16.1402 25.9742 16.3902 25.7242C16.6402 25.4741 16.9794 25.3337 17.333 25.3337H21.333C21.6866 25.3337 22.0258 25.1932 22.2758 24.9431C22.5259 24.6931 22.6663 24.3539 22.6663 24.0003C22.6663 23.6467 22.5259 23.3076 22.2758 23.0575C22.0258 22.8075 21.6866 22.667 21.333 22.667H17.333C16.2721 22.667 15.2547 23.0884 14.5046 23.8386C13.7544 24.5887 13.333 25.6061 13.333 26.667V37.3337C13.333 38.3945 13.7544 39.4119 14.5046 40.1621C15.2547 40.9122 16.2721 41.3337 17.333 41.3337H38.6663C39.7272 41.3337 40.7446 40.9122 41.4948 40.1621C42.2449 39.4119 42.6663 38.3945 42.6663 37.3337V26.667C42.6663 25.6061 42.2449 24.5887 41.4948 23.8386C40.7446 23.0884 39.7272 22.667 38.6663 22.667ZM18.6663 32.0003C18.6663 32.264 18.7445 32.5218 18.891 32.7411C19.0376 32.9604 19.2458 33.1312 19.4894 33.2322C19.7331 33.3331 20.0012 33.3595 20.2598 33.308C20.5184 33.2566 20.756 33.1296 20.9425 32.9431C21.129 32.7567 21.2559 32.5191 21.3074 32.2604C21.3588 32.0018 21.3324 31.7337 21.2315 31.4901C21.1306 31.2464 20.9597 31.0382 20.7404 30.8917C20.5212 30.7452 20.2634 30.667 19.9997 30.667C19.6461 30.667 19.3069 30.8075 19.0569 31.0575C18.8068 31.3076 18.6663 31.6467 18.6663 32.0003Z" fill="#29292D"/>
</svg>
