<svg width="21" height="20" viewBox="0 0 21 20" fill="none" xmlns="http://www.w3.org/2000/svg">
<path d="M11.1138 7.59104C10.8318 7.54269 10.5417 7.59563 10.295 7.74051C10.0482 7.88539 9.86067 8.11287 9.76548 8.38271C9.7391 8.45778 9.6982 8.52692 9.6451 8.58619C9.59201 8.64545 9.52776 8.69368 9.45603 8.72812C9.31116 8.79766 9.14459 8.80681 8.99298 8.75354C8.9179 8.72717 8.84876 8.68627 8.7895 8.63317C8.73023 8.58008 8.682 8.51583 8.64757 8.4441C8.57802 8.29922 8.56888 8.13266 8.62214 7.98104C8.81306 7.44205 9.18831 6.98786 9.6816 6.69869C10.1749 6.40951 10.7545 6.30395 11.3181 6.40066C11.8817 6.49736 12.3929 6.7901 12.7616 7.22718C13.1303 7.66427 13.3327 8.21757 13.333 8.78938C13.333 9.71604 12.6446 10.3285 12.1538 10.656C11.8266 10.8744 11.4733 11.0507 11.1021 11.181C10.9494 11.2306 10.7833 11.2183 10.6396 11.1466C10.4958 11.0749 10.386 10.9496 10.3338 10.7977C10.3086 10.7222 10.2985 10.6425 10.3041 10.5631C10.3098 10.4837 10.331 10.4061 10.3666 10.3349C10.4022 10.2637 10.4515 10.2002 10.5116 10.1481C10.5718 10.096 10.6416 10.0562 10.7171 10.031C10.9855 9.93688 11.2446 9.80521 11.4813 9.64771C11.8996 9.36854 12.1205 9.07271 12.1205 8.78771C12.1211 8.50148 12.0203 8.22428 11.836 8.00524C11.6518 7.7862 11.3959 7.63947 11.1138 7.59104ZM10.9571 13.0302C11.1178 13.0302 11.2719 12.9664 11.3855 12.8528C11.4991 12.7392 11.563 12.5851 11.563 12.4244C11.563 12.2637 11.4991 12.1096 11.3855 11.996C11.2719 11.8824 11.1178 11.8185 10.9571 11.8185C10.7965 11.8185 10.6424 11.8824 10.5288 11.996C10.4151 12.1096 10.3513 12.2637 10.3513 12.4244C10.3513 12.5851 10.4151 12.7392 10.5288 12.8528C10.6424 12.9664 10.7965 13.0302 10.9571 13.0302Z" fill="#7A8AA0"/>
<path fill-rule="evenodd" clip-rule="evenodd" d="M4.29004 10.0002C4.29004 8.23205 4.99242 6.53636 6.24266 5.28612C7.4929 4.03588 9.1886 3.3335 10.9567 3.3335C12.7248 3.3335 14.4205 4.03588 15.6708 5.28612C16.921 6.53636 17.6234 8.23205 17.6234 10.0002C17.6234 11.7683 16.921 13.464 15.6708 14.7142C14.4205 15.9645 12.7248 16.6668 10.9567 16.6668C9.1886 16.6668 7.4929 15.9645 6.24266 14.7142C4.99242 13.464 4.29004 11.7683 4.29004 10.0002ZM10.9567 4.546C10.2405 4.546 9.53122 4.68707 8.86949 4.96117C8.20776 5.23527 7.60649 5.63702 7.10003 6.14348C6.59356 6.64995 6.19181 7.25121 5.91771 7.91294C5.64362 8.57467 5.50254 9.28391 5.50254 10.0002C5.50254 10.7164 5.64362 11.4257 5.91771 12.0874C6.19181 12.7491 6.59356 13.3504 7.10003 13.8568C7.60649 14.3633 8.20776 14.7651 8.86949 15.0392C9.53122 15.3133 10.2405 15.4543 10.9567 15.4543C12.4032 15.4543 13.7905 14.8797 14.8134 13.8568C15.8362 12.834 16.4109 11.4467 16.4109 10.0002C16.4109 8.55363 15.8362 7.16634 14.8134 6.14348C13.7905 5.12063 12.4032 4.546 10.9567 4.546Z" fill="#7A8AA0"/>
</svg>
