<svg width="360" height="280" viewBox="0 0 360 280" fill="none" xmlns="http://www.w3.org/2000/svg">
<path d="M46.9097 81.3433C45.2535 79.1592 47.1525 76.0809 49.8475 76.581L66.2562 79.626C94.7931 84.9217 119.621 102.355 134.293 127.397L135.625 129.67C136.841 131.746 135.242 134.336 132.842 134.181L130.213 134.01C101.25 132.135 74.5303 117.768 56.9934 94.6413L46.9097 81.3433Z" fill="#159F80" stroke="#191919" stroke-width="2"/>
<path d="M253.002 49.9968C255.01 49.5072 256.864 51.23 256.523 53.2683L254.481 65.4722C248.389 101.888 218.431 129.569 181.648 132.769C180.324 132.884 179.19 131.83 179.207 130.501C179.701 93.5828 205.11 61.6749 240.981 52.9281L253.002 49.9968Z" fill="#159F80" stroke="#191919" stroke-width="2"/>
<path d="M100.78 109.813L129.527 128.688C142.917 137.48 152.714 150.778 157.143 166.172L160.78 178.813" stroke="#191919" stroke-width="2" stroke-linecap="round"/>
<path d="M205.253 99.1587L190.159 116.36C181.532 126.191 175.972 138.332 174.163 151.286L170.263 179.216" stroke="#191919" stroke-width="2" stroke-linecap="round"/>
<path d="M121.28 52.3138L140.395 67.1959C156.7 79.8903 166.235 99.3984 166.235 120.063L166.235 184.372" stroke="#191919" stroke-width="2" stroke-linecap="round"/>
<path d="M235.753 128.678L220.83 131.726C194.936 137.015 176.338 159.795 176.338 186.224V186.224" stroke="#191919" stroke-width="2" stroke-linecap="round"/>
<path d="M129 86C129 91.9472 127.738 97.2818 125.746 101.093C123.728 104.952 121.116 107 118.5 107C115.884 107 113.272 104.952 111.254 101.093C109.262 97.2818 108 91.9472 108 86C108 80.0528 109.262 74.7182 111.254 70.9069C113.272 67.0477 115.884 65 118.5 65C121.116 65 123.728 67.0477 125.746 70.9069C127.738 74.7182 129 80.0528 129 86Z" fill="#FFC93E" stroke="#191919" stroke-width="2"/>
<path d="M129 31.5C129 37.5885 127.737 43.0511 125.741 46.9548C123.719 50.9122 121.104 53 118.5 53C115.896 53 113.281 50.9122 111.259 46.9548C109.263 43.0511 108 37.5885 108 31.5C108 25.4115 109.263 19.9489 111.259 16.0452C113.281 12.0878 115.896 10 118.5 10C121.104 10 123.719 12.0878 125.741 16.0452C127.737 19.9489 129 25.4115 129 31.5Z" fill="#FFC93E" stroke="#191919" stroke-width="2"/>
<path d="M91.5 69C85.4115 69 79.9489 67.7365 76.0452 65.7413C72.0878 63.7186 70 61.1043 70 58.5C70 55.8956 72.0878 53.2814 76.0452 51.2587C79.9489 49.2635 85.4115 48 91.5 48C97.5885 48 103.051 49.2635 106.955 51.2587C110.912 53.2814 113 55.8957 113 58.5C113 61.1044 110.912 63.7186 106.955 65.7413C103.051 67.7365 97.5885 69 91.5 69Z" fill="#FFC93E" stroke="#191919" stroke-width="2"/>
<path d="M146 69C140.053 69 134.718 67.7378 130.907 65.7455C127.048 63.7282 125 61.1161 125 58.5C125 55.8839 127.048 53.2718 130.907 51.2545C134.718 49.2622 140.053 48 146 48C151.947 48 157.282 49.2622 161.093 51.2545C164.952 53.2718 167 55.8839 167 58.5C167 61.1161 164.952 63.7282 161.093 65.7455C157.282 67.7378 151.947 69 146 69Z" fill="#FFC93E" stroke="#191919" stroke-width="2"/>
<path d="M107.024 85.2811C102.778 89.5271 98.0748 92.4422 93.942 93.7526C89.7555 95.0801 86.4454 94.6902 84.5959 92.8408C82.7465 90.9913 82.3566 87.6812 83.6841 83.4947C84.9945 79.3619 87.9096 74.6589 92.1556 70.4129C96.4017 66.1668 101.105 63.2517 105.237 61.9413C109.424 60.6139 112.734 61.0037 114.584 62.8532C116.433 64.7027 116.823 68.0127 115.495 72.1992C114.185 76.3321 111.27 81.035 107.024 85.2811Z" fill="#FFC93E" stroke="#191919" stroke-width="2"/>
<path d="M145.404 46.9012C141.158 51.1472 136.455 54.0624 132.322 55.3728C128.135 56.7002 124.825 56.3104 122.976 54.4609C121.126 52.6114 120.737 49.3013 122.064 45.1148C123.374 40.982 126.289 36.2791 130.536 32.033C134.782 27.7869 139.485 24.8718 143.617 23.5614C147.804 22.234 151.114 22.6238 152.963 24.4733C154.813 26.3228 155.203 29.6329 153.875 33.8193C152.565 37.9522 149.65 42.6551 145.404 46.9012Z" fill="#FFC93E" stroke="#191919" stroke-width="2"/>
<path d="M92.1557 46.9008C87.9096 42.6547 84.9945 37.9518 83.6841 33.8189C82.3567 29.6324 82.7465 26.3224 84.596 24.4729C86.4455 22.6234 89.7556 22.2336 93.942 23.561C98.0749 24.8714 102.778 27.7865 107.024 32.0326C111.27 36.2786 114.185 40.9816 115.495 45.1144C116.823 49.3009 116.433 52.611 114.584 54.4605C112.734 56.31 109.424 56.6998 105.238 55.3724C101.105 54.0619 96.4018 51.1468 92.1557 46.9008Z" fill="#FFC93E" stroke="#191919" stroke-width="2"/>
<path d="M130.536 85.2816C126.29 81.0356 123.374 76.3326 122.064 72.1998C120.737 68.0133 121.126 64.7032 122.976 62.8538C124.825 61.0043 128.135 60.6144 132.322 61.9419C136.455 63.2523 141.158 66.1674 145.404 70.4134C149.65 74.6595 152.565 79.3624 153.875 83.4953C155.203 87.6818 154.813 90.9918 152.963 92.8413C151.114 94.6908 147.804 95.0806 143.617 93.7532C139.485 92.4428 134.782 89.5277 130.536 85.2816Z" fill="#FFC93E" stroke="#191919" stroke-width="2"/>
<path d="M258.832 148.79C258.832 154.978 257.462 160.531 255.296 164.501C253.11 168.509 250.254 170.686 247.343 170.686C244.432 170.686 241.576 168.509 239.39 164.501C237.225 160.531 235.854 154.978 235.854 148.79C235.854 142.602 237.225 137.049 239.39 133.079C241.576 129.071 244.432 126.894 247.343 126.894C250.254 126.894 253.11 129.071 255.296 133.079C257.462 137.049 258.832 142.602 258.832 148.79Z" fill="#FFC93E" stroke="#191919" stroke-width="2"/>
<path d="M258.832 91.8963C258.832 98.0845 257.462 103.637 255.296 107.608C253.11 111.615 250.254 113.793 247.343 113.793C244.432 113.793 241.576 111.615 239.39 107.608C237.225 103.637 235.854 98.0845 235.854 91.8963C235.854 85.708 237.225 80.1551 239.39 76.185C241.576 72.1771 244.432 70 247.343 70C250.254 70 253.11 72.1771 255.296 76.185C257.462 80.1551 258.832 85.708 258.832 91.8963Z" fill="#FFC93E" stroke="#191919" stroke-width="2"/>
<path d="M218.896 131.832C212.708 131.832 207.155 130.462 203.185 128.296C199.177 126.11 197 123.255 197 120.343C197 117.432 199.177 114.576 203.185 112.39C207.155 110.225 212.708 108.854 218.896 108.854C225.084 108.854 230.637 110.225 234.607 112.39C238.615 114.576 240.792 117.432 240.792 120.343C240.792 123.255 238.615 126.11 234.607 128.296C230.637 130.462 225.084 131.832 218.896 131.832Z" fill="#FFC93E" stroke="#191919" stroke-width="2"/>
<path d="M275.79 131.832C269.602 131.832 264.049 130.462 260.079 128.296C256.071 126.11 253.894 123.255 253.894 120.343C253.894 117.432 256.071 114.576 260.079 112.39C264.049 110.225 269.602 108.854 275.79 108.854C281.978 108.854 287.531 110.225 291.501 112.39C295.509 114.576 297.686 117.432 297.686 120.343C297.686 123.255 295.509 126.11 291.501 128.296C287.531 130.462 281.978 131.832 275.79 131.832Z" fill="#FFC93E" stroke="#191919" stroke-width="2"/>
<path d="M235.139 148.075C230.718 152.497 225.819 155.534 221.511 156.9C217.15 158.283 213.686 157.882 211.745 155.941C209.805 154 209.403 150.537 210.786 146.175C212.152 141.868 215.189 136.969 219.611 132.547C224.033 128.125 228.932 125.088 233.24 123.722C237.601 122.339 241.065 122.74 243.006 124.681C244.946 126.621 245.347 130.085 243.964 134.446C242.598 138.754 239.561 143.653 235.139 148.075Z" fill="#FFC93E" stroke="#191919" stroke-width="2"/>
<path d="M275.075 108.139C270.653 112.561 265.754 115.599 261.446 116.964C257.085 118.347 253.621 117.946 251.681 116.006C249.74 114.065 249.339 110.601 250.722 106.24C252.088 101.932 255.125 97.0331 259.547 92.6113C263.969 88.1895 268.868 85.1522 273.175 83.7864C277.537 82.4035 281 82.8046 282.941 84.7452C284.882 86.6858 285.283 90.1496 283.9 94.5109C282.534 98.8187 279.497 103.718 275.075 108.139Z" fill="#FFC93E" stroke="#191919" stroke-width="2"/>
<path d="M219.611 108.14C215.189 103.718 212.152 98.8189 210.786 94.5112C209.403 90.1498 209.805 86.686 211.745 84.7454C213.686 82.8048 217.15 82.4037 221.511 83.7866C225.819 85.1525 230.718 88.1897 235.139 92.6115C239.561 97.0333 242.599 101.932 243.964 106.24C245.347 110.601 244.946 114.065 243.006 116.006C241.065 117.946 237.601 118.347 233.24 116.965C228.932 115.599 224.033 112.561 219.611 108.14Z" fill="#FFC93E" stroke="#191919" stroke-width="2"/>
<path d="M259.547 148.076C255.125 143.654 252.088 138.755 250.722 134.447C249.339 130.086 249.74 126.622 251.681 124.681C253.621 122.741 257.085 122.34 261.446 123.723C265.754 125.088 270.653 128.126 275.075 132.548C279.497 136.969 282.534 141.868 283.9 146.176C285.283 150.537 284.882 154.001 282.941 155.942C281 157.882 277.537 158.284 273.175 156.901C268.868 155.535 263.969 152.498 259.547 148.076Z" fill="#FFC93E" stroke="#191919" stroke-width="2"/>
<circle cx="118.5" cy="58.5" r="23.5" fill="#3568DD" stroke="#191919" stroke-width="2"/>
<circle cx="247.063" cy="120.187" r="32.5" fill="#3568DD" stroke="#191919" stroke-width="2"/>
<mask id="path-25-inside-1_5069_8299" fill="white">
<path fill-rule="evenodd" clip-rule="evenodd" d="M166.296 172.313H132.001C128.979 172.313 126.648 174.973 127.044 177.969L136.297 247.969C136.626 250.455 138.746 252.313 141.254 252.313H166.296H173.296H198.339C200.847 252.313 202.967 250.455 203.296 247.969L212.549 177.969C212.945 174.973 210.614 172.313 207.592 172.313H173.296H166.296Z"/>
</mask>
<path fill-rule="evenodd" clip-rule="evenodd" d="M166.296 172.313H132.001C128.979 172.313 126.648 174.973 127.044 177.969L136.297 247.969C136.626 250.455 138.746 252.313 141.254 252.313H166.296H173.296H198.339C200.847 252.313 202.967 250.455 203.296 247.969L212.549 177.969C212.945 174.973 210.614 172.313 207.592 172.313H173.296H166.296Z" fill="#A1A6B2"/>
<path d="M212.549 177.969L214.532 178.231L212.549 177.969ZM132.001 174.313H166.296V170.313H132.001V174.313ZM138.28 247.707L129.027 177.707L125.061 178.231L134.314 248.231L138.28 247.707ZM166.296 250.313H141.254V254.313H166.296V250.313ZM166.296 254.313H173.296V250.313H166.296V254.313ZM173.296 254.313H198.339V250.313H173.296V254.313ZM205.278 248.231L214.532 178.231L210.566 177.707L201.313 247.707L205.278 248.231ZM207.592 170.313H173.296V174.313H207.592V170.313ZM173.296 170.313H166.296V174.313H173.296V170.313ZM214.532 178.231C215.086 174.037 211.822 170.313 207.592 170.313V174.313C209.405 174.313 210.804 175.909 210.566 177.707L214.532 178.231ZM134.314 248.231C134.774 251.712 137.743 254.313 141.254 254.313V250.313C139.749 250.313 138.477 249.199 138.28 247.707L134.314 248.231ZM198.339 254.313C201.85 254.313 204.818 251.712 205.278 248.231L201.313 247.707C201.116 249.199 199.844 250.313 198.339 250.313V254.313ZM132.001 170.313C127.77 170.313 124.507 174.037 125.061 178.231L129.027 177.707C128.789 175.909 130.188 174.313 132.001 174.313V170.313Z" fill="#191919" mask="url(#path-25-inside-1_5069_8299)"/>
<mask id="path-27-inside-2_5069_8299" fill="white">
<path fill-rule="evenodd" clip-rule="evenodd" d="M165.713 241.313H130.007C126.193 241.313 123.783 245.412 125.638 248.745L131.761 259.745C132.643 261.331 134.315 262.313 136.13 262.313H165.713H173.449H203.032C204.847 262.313 206.519 261.331 207.401 259.745L213.524 248.745C215.379 245.412 212.969 241.313 209.155 241.313H173.449H165.713Z"/>
</mask>
<path fill-rule="evenodd" clip-rule="evenodd" d="M165.713 241.313H130.007C126.193 241.313 123.783 245.412 125.638 248.745L131.761 259.745C132.643 261.331 134.315 262.313 136.13 262.313H165.713H173.449H203.032C204.847 262.313 206.519 261.331 207.401 259.745L213.524 248.745C215.379 245.412 212.969 241.313 209.155 241.313H173.449H165.713Z" fill="#A1A6B2"/>
<path d="M213.524 248.745L211.776 247.772L213.524 248.745ZM131.761 259.745L130.013 260.718L131.761 259.745ZM207.401 259.745L209.149 260.718L207.401 259.745ZM125.638 248.745L123.891 249.718L125.638 248.745ZM130.007 243.313H165.713V239.313H130.007V243.313ZM133.508 258.772L127.386 247.772L123.891 249.718L130.013 260.718L133.508 258.772ZM165.713 260.313H136.13V264.313H165.713V260.313ZM165.713 264.313H173.449V260.313H165.713V264.313ZM173.449 264.313H203.032V260.313H173.449V264.313ZM209.149 260.718L215.271 249.718L211.776 247.772L205.654 258.772L209.149 260.718ZM209.155 239.313H173.449V243.313H209.155V239.313ZM173.449 239.313H165.713V243.313H173.449V239.313ZM215.271 249.718C217.868 245.052 214.495 239.313 209.155 239.313V243.313C211.443 243.313 212.889 245.773 211.776 247.772L215.271 249.718ZM130.013 260.718C131.249 262.937 133.589 264.313 136.13 264.313V260.313C135.041 260.313 134.038 259.724 133.508 258.772L130.013 260.718ZM203.032 264.313C205.573 264.313 207.913 262.937 209.149 260.718L205.654 258.772C205.124 259.724 204.121 260.313 203.032 260.313V264.313ZM130.007 239.313C124.667 239.313 121.294 245.052 123.891 249.718L127.386 247.772C126.273 245.773 127.719 243.313 130.007 243.313V239.313Z" fill="#191919" mask="url(#path-27-inside-2_5069_8299)"/>
<path d="M101.589 78.9307L102.096 79.7706C101.376 80.2049 100.435 80.007 99.9563 79.3084L99.2773 78.3179C98.7919 77.6097 98.9656 76.6679 99.621 76.1604C101.779 74.4898 103.545 72.6126 104.931 70.6097C110.076 63.1699 110.076 53.8301 104.931 46.3903C103.545 44.3874 101.779 42.5102 99.621 40.8396C98.9656 40.3321 98.7919 39.3903 99.2774 38.6821L100.102 39.2475L99.2774 38.6821L99.9563 37.6916C100.435 36.993 101.376 36.7951 102.096 37.2294M101.589 78.9307L102.096 37.2294M101.589 78.9307L102.096 79.7706L132.254 61.5805C134.582 60.1765 134.582 56.8235 132.254 55.4195L102.096 37.2294M101.589 78.9307L101.584 78.9226L101.589 78.9307ZM101.589 78.9307L102.096 37.2294" fill="white" stroke="#191919" stroke-width="2"/>
<path d="M223.149 91.8256L222.322 91.2625L223.31 89.8131C223.868 88.9938 224.97 88.7574 225.816 89.2705M223.149 91.8256L225.816 89.2705M223.149 91.8256L222.322 91.2625C221.76 92.0882 221.957 93.1897 222.725 93.7872C225.899 96.2598 228.501 99.0411 230.544 102.012C238.139 113.06 238.139 126.94 230.544 137.988C228.501 140.959 225.899 143.74 222.725 146.213C221.957 146.81 221.76 147.912 222.322 148.737L223.31 150.187C223.868 151.006 224.97 151.243 225.816 150.73M223.149 91.8256L225.816 150.73M225.816 89.2705L269.683 115.89C272.772 117.765 272.772 122.235 269.683 124.11L225.816 150.73M225.816 89.2705L225.816 150.73" fill="white" stroke="#191919" stroke-width="2"/>
</svg>
