<svg width="203" height="203" viewBox="0 0 203 203" fill="none" xmlns="http://www.w3.org/2000/svg">
<g filter="url(#filter0_di_277_4986)">
<rect x="8.36121" y="8.32538" width="187.139" height="187.139" rx="93.5697" fill="#EDF3FF"/>
<path d="M142.156 112.742C136.218 134.907 113.435 148.06 91.2709 142.121C69.1065 136.182 55.9532 113.4 61.8921 91.2355C67.8311 69.0711 90.6133 55.9178 112.778 61.8567C134.942 67.7956 148.095 90.5779 142.156 112.742Z" fill="url(#paint0_linear_277_4986)" stroke="#0C0C0D" stroke-width="1.12735"/>
<path d="M119.969 106.797C116.975 117.97 112.212 127.507 106.956 133.897C101.664 140.329 96.0316 143.397 91.2707 142.121C86.5098 140.845 83.1659 135.372 81.7992 127.156C80.4416 118.994 81.0853 108.354 84.0792 97.1805C87.073 86.0074 91.836 76.4703 97.0923 70.0811C102.384 63.6487 108.017 60.581 112.777 61.8567C117.538 63.1323 120.882 68.6052 122.249 76.8217C123.606 84.9832 122.963 95.624 119.969 106.797Z" stroke="#0C0C0D" stroke-width="1.12735"/>
<path d="M146.206 97.6292C146.136 97.8909 145.901 98.1909 145.329 98.4781C144.76 98.7637 143.932 98.997 142.832 99.1563C140.636 99.4742 137.493 99.4792 133.514 99.1371C125.565 98.4536 115.049 96.4515 104.281 93.5664C93.5137 90.6812 83.4052 87.1568 76.1794 83.7743C72.5628 82.0813 69.8431 80.5053 68.1007 79.1322C67.2276 78.4442 66.6269 77.8279 66.2771 77.2962C65.9255 76.7616 65.8717 76.3841 65.9418 76.1225" stroke="#0C0C0D" stroke-width="1.12735" stroke-linecap="round"/>
<path d="M138.021 128.177C138.091 127.915 138.037 127.538 137.685 127.003C137.336 126.471 136.735 125.855 135.862 125.167C134.119 123.794 131.4 122.218 127.783 120.525C120.557 117.142 110.449 113.618 99.6811 110.733C88.9136 107.848 78.3972 105.846 70.4482 105.162C66.4696 104.82 63.3263 104.825 61.1308 105.143C60.0307 105.302 59.2023 105.536 58.6335 105.821C58.0617 106.108 57.8264 106.408 57.7563 106.67" stroke="#0C0C0D" stroke-width="1.12735" stroke-linecap="round"/>
<path d="M128.334 73.026C131.814 78.126 134.032 84.5161 134.744 91.5491C135.455 98.5816 134.633 105.992 132.358 113.017" stroke="#0C0C0D" stroke-width="1.12735" stroke-linecap="round" stroke-linejoin="round"/>
<path d="M130.437 118.074C128.209 123.153 125.251 127.743 121.741 131.574C118.231 135.405 114.246 138.393 110.027 140.369C105.809 142.345 101.444 143.268 97.1926 143.095C92.9417 142.922 88.88 141.656 85.2457 139.372C81.6105 137.087 78.4699 133.823 76.0174 129.766C73.5645 125.708 71.8513 120.941 70.9873 115.745C70.1233 110.549 70.1271 105.036 71.0015 99.5352C71.8759 94.0341 73.6023 88.662 76.0771 83.7399" stroke="#0C0C0D" stroke-width="1.12735" stroke-linecap="round" stroke-linejoin="round"/>
<path d="M79.9606 77.2601C84.1765 71.305 89.4461 66.7283 95.1859 64.0106C100.923 61.294 106.909 60.5388 112.499 61.8014" stroke="#0C0C0D" stroke-width="1.12735" stroke-linecap="round" stroke-linejoin="round"/>
<path d="M112.174 64.1075C113.928 64.5774 115.563 64.8791 116.795 64.9831C117.406 65.0347 117.946 65.0401 118.361 64.9819C118.565 64.9532 118.774 64.9044 118.953 64.8159C119.129 64.7291 119.357 64.5623 119.437 64.2636C119.517 63.9649 119.403 63.7068 119.294 63.5436C119.183 63.3772 119.027 63.2307 118.864 63.1034C118.534 62.8458 118.064 62.5806 117.509 62.3197C116.39 61.7939 114.823 61.2375 113.069 60.7677C111.316 60.2978 109.68 59.996 108.449 59.8921C107.838 59.8405 107.298 59.835 106.883 59.8932C106.679 59.922 106.47 59.9707 106.29 60.0593C106.114 60.1461 105.887 60.3129 105.807 60.6116C105.727 60.9102 105.841 61.1683 105.95 61.3315C106.061 61.4979 106.217 61.6445 106.38 61.7718C106.71 62.0294 107.18 62.2946 107.735 62.5555C108.854 63.0813 110.421 63.6376 112.174 64.1075Z" fill="#3568DD" stroke="#0C0C0D" stroke-width="1.12735"/>
<path d="M91.7879 140.192C90.0343 139.722 88.3989 139.42 87.1673 139.316C86.5562 139.265 86.0163 139.259 85.6019 139.317C85.3971 139.346 85.1884 139.395 85.009 139.483C84.8329 139.57 84.6057 139.737 84.5257 140.036C84.4456 140.334 84.559 140.592 84.6681 140.756C84.7792 140.922 84.9356 141.069 85.0985 141.196C85.4283 141.453 85.8986 141.719 86.4537 141.98C87.5723 142.505 89.1394 143.062 90.893 143.532C92.6466 144.001 94.282 144.303 95.5136 144.407C96.1247 144.459 96.6646 144.464 97.079 144.406C97.2838 144.377 97.4925 144.329 97.672 144.24C97.848 144.153 98.0752 143.986 98.1552 143.688C98.2353 143.389 98.1219 143.131 98.0129 142.968C97.9017 142.801 97.7453 142.655 97.5824 142.527C97.2526 142.27 96.7823 142.005 96.2273 141.744C95.1087 141.218 93.5415 140.662 91.7879 140.192Z" fill="#3568DD" stroke="#0C0C0D" stroke-width="1.12735"/>
<path d="M139.032 64.1662C139.364 63.4721 140.352 63.4721 140.684 64.1662L141.68 66.2511C141.747 66.392 141.849 66.5133 141.977 66.6036L144.037 68.0613C144.552 68.426 144.552 69.1906 144.037 69.5554L141.977 71.0131C141.849 71.1033 141.747 71.2246 141.68 71.3656L140.684 73.4504C140.352 74.1446 139.364 74.1446 139.032 73.4504L138.036 71.3656C137.968 71.2246 137.866 71.1033 137.739 71.0131L135.679 69.5554C135.164 69.1906 135.164 68.426 135.679 68.0613L137.739 66.6036C137.866 66.5133 137.968 66.392 138.036 66.2511L139.032 64.1662Z" fill="#FFC93E" stroke="#0C0C0D" stroke-width="1.12735" stroke-linejoin="round"/>
<path fill-rule="evenodd" clip-rule="evenodd" d="M64.0891 60.1815C65.1516 58.5698 67.338 58.095 68.9726 59.1211L69.446 59.4182C69.7649 59.6184 70.1854 59.5248 70.3893 59.2084L70.692 58.7386C71.7375 57.1163 73.919 56.6194 75.5646 57.6287C77.2101 58.6381 77.6966 60.7714 76.6511 62.3937L72.5229 68.7996C72.319 69.116 71.8985 69.2095 71.5796 69.0094L65.1251 64.9577C63.4905 63.9316 63.0267 61.7932 64.0891 60.1815Z" fill="#FF6767" stroke="#29292D" stroke-width="1.12735"/>
<path fill-rule="evenodd" clip-rule="evenodd" d="M148.348 82.9018C149.608 82.2019 151.218 82.6422 151.946 83.8854L152.07 84.0968C152.26 84.4217 152.676 84.5332 153.003 84.3469L153.216 84.2257C154.468 83.5129 156.083 83.9369 156.824 85.1728C157.564 86.4087 157.15 87.9884 155.898 88.7012L151.105 91.4306C150.778 91.6168 150.362 91.5053 150.172 91.1805L147.385 86.4202C146.658 85.177 147.089 83.6018 148.348 82.9018Z" fill="#FF6767" stroke="#29292D" stroke-width="1.12735"/>
<path fill-rule="evenodd" clip-rule="evenodd" d="M87.8029 122.763C88.6408 121.591 90.285 121.299 91.4751 122.11L91.6775 122.248C91.9885 122.46 92.4122 122.383 92.628 122.074L92.7683 121.874C93.5939 120.693 95.235 120.384 96.4338 121.183C97.6326 121.983 97.9351 123.588 97.1096 124.768L93.9484 129.288C93.7327 129.596 93.3089 129.674 92.9979 129.462L88.4406 126.355C87.2505 125.543 86.9649 123.935 87.8029 122.763Z" fill="#FF6767" stroke="#29292D" stroke-width="1.12735"/>
<path fill-rule="evenodd" clip-rule="evenodd" d="M46.8427 99.089C47.6806 97.9169 49.3248 97.6246 50.5149 98.436L50.7173 98.574C51.0283 98.786 51.452 98.7085 51.6678 98.4L51.8081 98.1993C52.6337 97.0189 54.2748 96.7099 55.4736 97.5092C56.6724 98.3084 56.9749 99.9133 56.1494 101.094L52.9882 105.614C52.7725 105.922 52.3487 106 52.0377 105.788L47.4804 102.681C46.2903 101.869 46.0047 100.261 46.8427 99.089Z" fill="#FF6767" stroke="#29292D" stroke-width="1.12735"/>
<path d="M66.532 94.2375C66.8632 93.5415 67.8538 93.5415 68.1849 94.2375L68.4998 94.8993C68.5668 95.0403 68.6688 95.1617 68.796 95.2521L69.6909 95.8882C70.2043 96.253 70.2043 97.0153 69.6909 97.3801L68.796 98.0162C68.6688 98.1066 68.5668 98.228 68.4998 98.369L68.1849 99.0308C67.8538 99.7268 66.8632 99.7268 66.532 99.0308L66.2172 98.369C66.1501 98.228 66.0481 98.1066 65.9209 98.0162L65.026 97.3801C64.5127 97.0153 64.5127 96.253 65.026 95.8882L65.9209 95.2521C66.0481 95.1617 66.1501 95.0403 66.2172 94.8993L66.532 94.2375Z" fill="#FFC93E" stroke="#0C0C0D" stroke-width="1.12735" stroke-linejoin="round"/>
<path d="M141.313 138.204C141.644 137.508 142.635 137.508 142.966 138.204L143.281 138.866C143.348 139.007 143.45 139.128 143.577 139.219L144.472 139.855C144.985 140.22 144.985 140.982 144.472 141.347L143.577 141.983C143.45 142.073 143.348 142.195 143.281 142.335L142.966 142.997C142.635 143.693 141.644 143.693 141.313 142.997L140.998 142.335C140.931 142.195 140.829 142.073 140.702 141.983L139.807 141.347C139.293 140.982 139.293 140.22 139.807 139.855L140.702 139.219C140.829 139.128 140.931 139.007 140.998 138.866L141.313 138.204Z" fill="#FFC93E" stroke="#0C0C0D" stroke-width="1.12735" stroke-linejoin="round"/>
<path d="M187.48 101.895C187.48 149.143 149.179 187.445 101.931 187.445C54.6833 187.445 16.3815 149.143 16.3815 101.895C16.3815 54.6474 54.6833 16.3456 101.931 16.3456C149.179 16.3456 187.48 54.6474 187.48 101.895ZM37.1565 101.895C37.1565 137.669 66.157 166.669 101.931 166.669C137.705 166.669 166.705 137.669 166.705 101.895C166.705 66.1211 137.705 37.1207 101.931 37.1207C66.157 37.1207 37.1565 66.1211 37.1565 101.895Z" fill="#EDF3FF"/>
<g style="mix-blend-mode:multiply" filter="url(#filter1_f_277_4986)">
<mask id="path-19-outside-1_277_4986" maskUnits="userSpaceOnUse" x="14.2527" y="14.2167" width="175" height="175" fill="black">
<rect fill="white" x="14.2527" y="14.2167" width="175" height="175"/>
<path d="M187.352 101.766C187.352 149.014 149.05 187.316 101.802 187.316C54.5545 187.316 16.2527 149.014 16.2527 101.766C16.2527 54.5185 54.5545 16.2167 101.802 16.2167C149.05 16.2167 187.352 54.5185 187.352 101.766ZM29.3845 101.766C29.3845 141.761 61.807 174.184 101.802 174.184C141.797 174.184 174.22 141.761 174.22 101.766C174.22 61.7711 141.797 29.3486 101.802 29.3486C61.807 29.3486 29.3845 61.7711 29.3845 101.766Z"/>
</mask>
<path d="M187.352 101.766C187.352 149.014 149.05 187.316 101.802 187.316C54.5545 187.316 16.2527 149.014 16.2527 101.766C16.2527 54.5185 54.5545 16.2167 101.802 16.2167C149.05 16.2167 187.352 54.5185 187.352 101.766ZM29.3845 101.766C29.3845 141.761 61.807 174.184 101.802 174.184C141.797 174.184 174.22 141.761 174.22 101.766C174.22 61.7711 141.797 29.3486 101.802 29.3486C61.807 29.3486 29.3845 61.7711 29.3845 101.766Z" fill="white"/>
<path d="M187.352 101.766C187.352 149.014 149.05 187.316 101.802 187.316C54.5545 187.316 16.2527 149.014 16.2527 101.766C16.2527 54.5185 54.5545 16.2167 101.802 16.2167C149.05 16.2167 187.352 54.5185 187.352 101.766ZM29.3845 101.766C29.3845 141.761 61.807 174.184 101.802 174.184C141.797 174.184 174.22 141.761 174.22 101.766C174.22 61.7711 141.797 29.3486 101.802 29.3486C61.807 29.3486 29.3845 61.7711 29.3845 101.766Z" stroke="#5A86EC" stroke-width="2.25469" mask="url(#path-19-outside-1_277_4986)"/>
</g>
<path d="M195.501 101.895C195.501 153.572 153.608 195.465 101.931 195.465C50.2538 195.465 8.36121 153.572 8.36121 101.895C8.36121 50.218 50.2538 8.32538 101.931 8.32538C153.608 8.32538 195.501 50.218 195.501 101.895ZM28.8979 101.895C28.8979 142.23 61.5959 174.928 101.931 174.928C142.266 174.928 174.964 142.23 174.964 101.895C174.964 61.5601 142.266 28.8621 101.931 28.8621C61.5959 28.8621 28.8979 61.5601 28.8979 101.895Z" fill="white"/>
<path fill-rule="evenodd" clip-rule="evenodd" d="M179.9 108.159C179.805 108.217 179.681 108.19 179.618 108.098L179.378 107.746C179.316 107.654 179.337 107.53 179.425 107.462C180.214 106.847 180.863 106.154 181.373 105.412C183.273 102.648 183.273 99.1695 181.373 96.4057C180.863 95.6634 180.214 94.9703 179.425 94.3555C179.337 94.2871 179.316 94.1627 179.378 94.0709L179.618 93.7191C179.681 93.6273 179.805 93.6005 179.9 93.6582L190.546 100.119C191.14 100.479 191.14 101.338 190.546 101.699L179.9 108.159Z" fill="url(#paint1_linear_277_4986)"/>
<path fill-rule="evenodd" clip-rule="evenodd" d="M13.0523 108.159C12.9572 108.217 12.8332 108.19 12.7706 108.098L12.5309 107.746C12.4684 107.655 12.4894 107.53 12.5772 107.462C13.3666 106.847 14.0154 106.154 14.5257 105.412C16.4258 102.648 16.4258 99.1696 14.5257 96.4057C14.0154 95.6634 13.3666 94.9704 12.5772 94.3555C12.4894 94.2871 12.4684 94.1628 12.5309 94.0709L12.7706 93.7192C12.8332 93.6273 12.9572 93.6005 13.0523 93.6583L23.6985 100.119C24.2927 100.479 24.2927 101.338 23.6985 101.699L13.0523 108.159Z" fill="url(#paint2_linear_277_4986)"/>
<path d="M168.411 34.2877C168.97 33.7286 168.97 32.8212 168.403 32.2705C159.757 23.8798 149.596 17.1987 138.457 12.5847C126.877 7.78794 114.465 5.31909 101.931 5.31909C89.396 5.31909 76.9843 7.78795 65.4039 12.5847C54.2647 17.1987 44.1045 23.8798 35.4581 32.2706C34.8907 32.8212 34.8914 33.7286 35.4506 34.2878C36.0097 34.8469 36.9155 34.846 37.4832 34.2956C45.8634 26.1705 55.7079 19.7003 66.4997 15.2302C77.7327 10.5773 89.7721 8.18255 101.931 8.18255C114.089 8.18255 126.128 10.5773 137.361 15.2302C148.153 19.7003 157.998 26.1705 166.378 34.2955C166.946 34.846 167.851 34.8469 168.411 34.2877Z" fill="#3568DD"/>
<path d="M56.8548 172.833C56.6682 173.129 56.2773 173.217 55.9831 173.029C47.1974 167.392 39.5287 160.18 33.3633 151.757C33.1569 151.475 33.2213 151.079 33.5049 150.875C33.7884 150.67 34.1837 150.735 34.3902 151.017C40.4606 159.308 48.01 166.408 56.6586 171.958C56.9527 172.147 57.0413 172.538 56.8548 172.833Z" fill="#0C0C0D"/>
<path d="M146.631 172.833C146.817 173.129 147.208 173.217 147.502 173.029C156.288 167.392 163.957 160.18 170.122 151.757C170.328 151.475 170.264 151.079 169.98 150.875C169.697 150.67 169.302 150.735 169.095 151.017C163.025 159.308 155.475 166.408 146.827 171.958C146.533 172.147 146.444 172.538 146.631 172.833Z" fill="#0C0C0D"/>
<g clip-path="url(#clip0_277_4986)">
<path d="M69.5873 176.691C69.6738 176.424 69.6437 176.176 69.5009 175.939C69.3581 175.702 69.1289 175.518 68.817 175.376C68.5915 175.278 68.3811 175.225 68.1857 175.221C67.9903 175.218 67.8174 175.255 67.6746 175.334C67.5281 175.417 67.4191 175.537 67.3477 175.691C67.2913 175.819 67.2688 175.947 67.2876 176.071C67.3063 176.195 67.3514 176.307 67.4228 176.416C67.498 176.525 67.5807 176.627 67.6784 176.721C67.7761 176.815 67.87 176.901 67.9677 176.976L68.4412 177.36C68.5953 177.48 68.7494 177.619 68.8997 177.777C69.05 177.935 69.1777 178.107 69.2792 178.295C69.3807 178.483 69.4408 178.69 69.4596 178.912C69.4746 179.133 69.4295 179.366 69.3168 179.611C69.1777 179.922 68.9711 180.159 68.7043 180.328C68.4375 180.497 68.118 180.58 67.7535 180.584C67.389 180.588 66.9907 180.49 66.5623 180.294C66.1527 180.11 65.8258 179.881 65.5853 179.618C65.3448 179.351 65.1945 179.062 65.1343 178.743C65.0742 178.427 65.108 178.1 65.2395 177.762L66.07 178.138C65.9949 178.344 65.9874 178.536 66.04 178.72C66.0926 178.904 66.194 179.066 66.3443 179.208C66.4947 179.351 66.675 179.472 66.8855 179.569C67.1185 179.674 67.3439 179.731 67.5581 179.742C67.7723 179.753 67.964 179.712 68.1293 179.629C68.2947 179.543 68.4187 179.411 68.4976 179.235C68.5727 179.073 68.584 178.919 68.5389 178.773C68.4938 178.626 68.4074 178.487 68.2834 178.348C68.1594 178.209 68.0091 178.07 67.8362 177.931L67.2725 177.457C66.8892 177.138 66.6224 176.807 66.4721 176.458C66.3218 176.108 66.3331 175.744 66.5059 175.364C66.6487 175.049 66.8592 174.812 67.1372 174.654C67.4116 174.496 67.7272 174.421 68.0805 174.421C68.4337 174.421 68.7907 174.507 69.159 174.673C69.531 174.842 69.8278 175.056 70.0533 175.315C70.2788 175.575 70.4216 175.857 70.4817 176.157C70.5418 176.458 70.5118 176.758 70.384 177.055L69.5873 176.691Z" fill="#0C0C0D"/>
<path d="M71.9285 182.5C71.5339 182.354 71.222 182.132 70.9928 181.843C70.7636 181.55 70.6321 181.211 70.587 180.824C70.5456 180.437 70.6058 180.024 70.7673 179.588C70.9289 179.148 71.1544 178.795 71.44 178.528C71.7256 178.262 72.0488 178.092 72.4133 178.021C72.7778 177.95 73.1573 177.987 73.5519 178.134C73.9465 178.28 74.2584 178.502 74.4876 178.791C74.7168 179.085 74.8483 179.423 74.8897 179.814C74.931 180.204 74.8709 180.618 74.7055 181.054C74.544 181.49 74.3185 181.843 74.0329 182.106C73.7473 182.373 73.4241 182.542 73.0596 182.613C72.6951 182.685 72.3268 182.647 71.9285 182.5ZM72.1878 181.813C72.4433 181.907 72.6838 181.918 72.9018 181.847C73.1197 181.775 73.3151 181.64 73.4805 181.444C73.6458 181.249 73.7811 181.016 73.8826 180.745C73.984 180.475 74.0329 180.212 74.0366 179.956C74.0404 179.701 73.9803 179.472 73.8638 179.269C73.7473 179.069 73.5594 178.919 73.3039 178.825C73.0446 178.728 72.8041 178.716 72.5861 178.791C72.3644 178.867 72.1728 179.002 72.0074 179.197C71.8421 179.393 71.7068 179.626 71.6091 179.896C71.5076 180.167 71.455 180.43 71.455 180.689C71.4513 180.945 71.5114 181.174 71.6316 181.373C71.7406 181.568 71.9285 181.715 72.1878 181.813Z" fill="#0C0C0D"/>
<path d="M78.749 182.684L79.5043 180.155L80.3498 180.407L79.0609 184.729L78.2342 184.481L78.4559 183.733L78.4108 183.718C78.2417 183.921 78.0275 184.064 77.7607 184.15C77.4976 184.236 77.2008 184.233 76.8776 184.135C76.5995 184.052 76.374 183.917 76.1974 183.733C76.0208 183.549 75.9081 183.316 75.8592 183.038C75.8104 182.76 75.8404 182.444 75.9456 182.087L76.7649 179.34L77.6066 179.592L76.8175 182.237C76.731 182.53 76.7423 182.79 76.8513 183.015C76.9603 183.241 77.1482 183.387 77.4074 183.466C77.5653 183.515 77.7344 183.522 77.9147 183.489C78.0951 183.459 78.2605 183.376 78.4108 183.248C78.5611 183.12 78.6776 182.929 78.749 182.684Z" fill="#0C0C0D"/>
<path d="M83.0669 179.532L81.6277 185.371L80.7747 185.161L82.2139 179.321L83.0669 179.532Z" fill="#0C0C0D"/>
<path d="M83.42 185.8L84.5662 179.896L85.4267 180.065L85.0021 182.26L85.0547 182.271C85.1223 182.188 85.2163 182.095 85.3328 181.993C85.4493 181.892 85.6033 181.809 85.7875 181.753C85.9716 181.692 86.2008 181.692 86.4752 181.745C86.8321 181.813 87.1328 181.967 87.3808 182.2C87.6288 182.433 87.7979 182.737 87.8918 183.109C87.9858 183.481 87.9858 183.906 87.8956 184.383C87.8017 184.86 87.6438 185.255 87.4184 185.567C87.1929 185.879 86.9223 186.097 86.6104 186.224C86.2948 186.352 85.9603 186.382 85.6033 186.315C85.3328 186.262 85.1223 186.175 84.972 186.051C84.8217 185.927 84.7052 185.796 84.6338 185.657C84.5624 185.518 84.5098 185.394 84.476 185.292L84.4046 185.277L84.2693 185.965L83.42 185.8ZM84.6939 183.752C84.6338 184.064 84.6263 184.345 84.6714 184.597C84.7165 184.849 84.8104 185.059 84.957 185.221C85.1035 185.386 85.299 185.492 85.547 185.54C85.8063 185.589 86.0317 185.563 86.2309 185.458C86.4301 185.353 86.5992 185.191 86.7344 184.973C86.8697 184.755 86.9674 184.496 87.0238 184.199C87.0802 183.906 87.0877 183.635 87.0463 183.387C87.005 183.139 86.9073 182.929 86.7607 182.76C86.6142 182.591 86.4075 182.482 86.1482 182.433C85.8964 182.384 85.6747 182.406 85.4793 182.504C85.2839 182.598 85.1186 182.756 84.9833 182.966C84.848 183.184 84.7541 183.444 84.6939 183.752Z" fill="#0C0C0D"/>
<path d="M90.9583 187.156C90.5374 187.104 90.1842 186.961 89.8948 186.732C89.6055 186.502 89.395 186.202 89.2673 185.834C89.1357 185.465 89.1019 185.052 89.1583 184.59C89.2146 184.124 89.3537 183.729 89.5679 183.402C89.7858 183.075 90.0602 182.835 90.3984 182.685C90.7366 182.534 91.1123 182.482 91.5332 182.534C91.9541 182.587 92.3073 182.73 92.5967 182.959C92.886 183.188 93.0965 183.489 93.2242 183.861C93.352 184.233 93.3896 184.646 93.3332 185.112C93.2768 185.574 93.1378 185.969 92.9236 186.292C92.7094 186.615 92.4313 186.856 92.0931 187.01C91.7549 187.164 91.3754 187.209 90.9583 187.156ZM91.0522 186.427C91.3228 186.461 91.5595 186.416 91.7549 186.296C91.9503 186.176 92.1082 185.999 92.2247 185.77C92.3411 185.54 92.4163 185.285 92.4539 184.996C92.4877 184.71 92.4802 184.443 92.4238 184.191C92.3675 183.94 92.2585 183.733 92.0969 183.564C91.9353 183.395 91.7211 183.297 91.4468 183.259C91.1725 183.226 90.9357 183.271 90.7403 183.395C90.5449 183.519 90.3871 183.695 90.2706 183.925C90.1541 184.154 90.0789 184.409 90.0414 184.695C90.0075 184.984 90.0151 185.251 90.0714 185.499C90.1278 185.747 90.2368 185.958 90.3984 186.123C90.5599 186.292 90.7779 186.393 91.0522 186.427Z" fill="#0C0C0D"/>
<path d="M97.6397 185.766L97.7938 183.132L98.6731 183.184L98.4101 187.686L97.5495 187.637L97.5946 186.856L97.5458 186.852C97.4293 187.085 97.2526 187.277 97.0121 187.423C96.7754 187.57 96.4861 187.634 96.1516 187.611C95.8623 187.596 95.6105 187.517 95.3963 187.374C95.1821 187.235 95.0205 187.032 94.9078 186.773C94.795 186.514 94.7499 186.198 94.7725 185.826L94.9378 182.963L95.8134 183.015L95.6518 185.773C95.633 186.082 95.7044 186.33 95.866 186.521C96.0238 186.713 96.2418 186.818 96.5124 186.833C96.6777 186.844 96.843 186.811 97.0121 186.739C97.1812 186.668 97.324 186.551 97.4405 186.39C97.5608 186.228 97.6247 186.021 97.6397 185.766Z" fill="#0C0C0D"/>
<path d="M101.101 185.056L101.146 187.731L100.27 187.746L100.199 183.237L101.04 183.222L101.052 183.955H101.108C101.21 183.714 101.367 183.519 101.589 183.372C101.807 183.226 102.089 183.147 102.427 183.143C102.735 183.139 103.006 183.199 103.239 183.323C103.472 183.447 103.656 183.635 103.784 183.887C103.915 184.139 103.983 184.451 103.99 184.819L104.035 187.686L103.16 187.701L103.115 184.939C103.111 184.612 103.021 184.357 102.848 184.176C102.675 183.996 102.438 183.906 102.142 183.91C101.939 183.913 101.758 183.958 101.6 184.052C101.443 184.143 101.322 184.274 101.232 184.443C101.138 184.612 101.097 184.819 101.101 185.056Z" fill="#0C0C0D"/>
<path d="M107.504 187.603C107.139 187.63 106.809 187.562 106.512 187.393C106.215 187.228 105.971 186.976 105.786 186.641C105.602 186.307 105.49 185.897 105.452 185.409C105.418 184.924 105.467 184.5 105.606 184.143C105.745 183.786 105.948 183.504 106.219 183.301C106.489 183.098 106.805 182.981 107.169 182.955C107.447 182.936 107.677 182.966 107.853 183.045C108.03 183.124 108.173 183.222 108.274 183.338C108.379 183.455 108.458 183.556 108.518 183.646L108.571 183.643L108.409 181.414L109.285 181.35L109.725 187.348L108.868 187.412L108.815 186.713L108.744 186.717C108.699 186.818 108.631 186.931 108.541 187.062C108.451 187.194 108.323 187.31 108.158 187.416C107.996 187.521 107.778 187.581 107.504 187.603ZM107.643 186.841C107.895 186.822 108.101 186.739 108.267 186.593C108.432 186.446 108.552 186.251 108.624 186.006C108.695 185.762 108.721 185.48 108.699 185.165C108.676 184.853 108.612 184.582 108.503 184.353C108.394 184.124 108.252 183.951 108.067 183.834C107.883 183.718 107.665 183.665 107.41 183.684C107.147 183.703 106.933 183.789 106.767 183.936C106.602 184.086 106.482 184.282 106.41 184.526C106.339 184.77 106.313 185.037 106.335 185.334C106.358 185.634 106.421 185.901 106.53 186.134C106.639 186.367 106.786 186.548 106.97 186.675C107.158 186.807 107.383 186.859 107.643 186.841Z" fill="#0C0C0D"/>
<path d="M113.19 181.674L113.054 180.903L117.635 180.092L117.77 180.862L115.922 181.189L116.831 186.341L115.94 186.499L115.031 181.347L113.19 181.674Z" fill="#0C0C0D"/>
<path d="M121.464 185.458C121.055 185.555 120.671 185.548 120.322 185.435C119.969 185.322 119.668 185.116 119.416 184.815C119.164 184.515 118.984 184.143 118.875 183.688C118.766 183.233 118.755 182.816 118.841 182.433C118.928 182.053 119.104 181.73 119.364 181.467C119.627 181.204 119.961 181.024 120.371 180.926C120.78 180.828 121.164 180.836 121.513 180.948C121.866 181.061 122.167 181.272 122.419 181.568C122.67 181.865 122.851 182.245 122.96 182.7C123.069 183.154 123.08 183.568 122.99 183.947C122.903 184.327 122.727 184.646 122.468 184.909C122.212 185.18 121.874 185.36 121.464 185.458ZM121.295 184.74C121.562 184.676 121.765 184.552 121.908 184.368C122.05 184.184 122.133 183.966 122.163 183.71C122.193 183.455 122.171 183.188 122.103 182.906C122.035 182.628 121.93 182.38 121.791 182.166C121.652 181.952 121.476 181.794 121.265 181.692C121.055 181.591 120.818 181.572 120.551 181.636C120.284 181.7 120.078 181.824 119.935 182.012C119.792 182.2 119.709 182.418 119.679 182.673C119.653 182.929 119.672 183.196 119.739 183.477C119.807 183.759 119.912 184.007 120.051 184.221C120.194 184.436 120.367 184.59 120.577 184.691C120.788 184.793 121.025 184.804 121.295 184.74Z" fill="#0C0C0D"/>
<path d="M125.049 184.432L123.268 178.69L124.106 178.431L125.887 184.173L125.049 184.432ZM125.365 182.733L125.042 181.711L125.188 181.666L126.338 179.31L127.341 178.998L126.026 181.681L125.895 181.723L125.365 182.733ZM127.766 183.59L125.59 182.023L125.985 181.257L128.796 183.271L127.766 183.59Z" fill="#0C0C0D"/>
<path d="M131.708 182.29C131.291 182.448 130.9 182.493 130.536 182.429C130.171 182.365 129.844 182.2 129.559 181.937C129.273 181.674 129.048 181.324 128.882 180.884C128.717 180.452 128.657 180.043 128.691 179.652C128.724 179.261 128.856 178.919 129.078 178.622C129.299 178.325 129.607 178.104 129.998 177.957C130.235 177.867 130.483 177.818 130.735 177.814C130.987 177.807 131.235 177.856 131.475 177.957C131.716 178.059 131.941 178.224 132.144 178.453C132.347 178.682 132.524 178.987 132.666 179.37L132.775 179.659L129.423 180.93L129.19 180.313L131.738 179.348C131.656 179.13 131.539 178.957 131.389 178.821C131.238 178.686 131.066 178.603 130.87 178.566C130.675 178.528 130.472 178.551 130.258 178.63C130.028 178.716 129.848 178.852 129.72 179.028C129.592 179.205 129.517 179.404 129.491 179.618C129.468 179.832 129.495 180.046 129.574 180.257L129.758 180.738C129.863 181.02 130.006 181.241 130.179 181.399C130.352 181.557 130.551 181.655 130.769 181.692C130.987 181.726 131.216 181.7 131.456 181.61C131.61 181.55 131.746 181.474 131.855 181.381C131.967 181.287 132.05 181.178 132.11 181.054C132.17 180.93 132.2 180.791 132.197 180.64L133.027 180.486C133.05 180.738 133.016 180.982 132.922 181.211C132.828 181.444 132.678 181.651 132.471 181.839C132.272 182.023 132.012 182.173 131.708 182.29Z" fill="#0C0C0D"/>
<path d="M134.665 178.089L135.778 180.524L134.977 180.888L133.106 176.785L133.872 176.435L134.177 177.104L134.226 177.082C134.222 176.822 134.289 176.578 134.432 176.356C134.575 176.131 134.801 175.95 135.109 175.808C135.387 175.68 135.661 175.627 135.924 175.646C136.187 175.665 136.428 175.766 136.649 175.943C136.871 176.12 137.059 176.379 137.213 176.717L138.404 179.325L137.604 179.69L136.458 177.176C136.322 176.879 136.138 176.679 135.905 176.582C135.672 176.484 135.421 176.499 135.15 176.619C134.966 176.702 134.819 176.819 134.71 176.965C134.601 177.112 134.545 177.281 134.53 177.472C134.515 177.664 134.568 177.871 134.665 178.089Z" fill="#0C0C0D"/>
</g>
<g clip-path="url(#clip1_277_4986)">
<path d="M53.2898 41.1876C53.1282 41.477 52.9028 41.7588 52.6059 42.0294C52.3842 42.2285 52.0798 42.4239 51.6965 42.6193L49.4493 41.3943L45.669 44.7876L46.6385 47.1588C46.4017 47.5158 46.18 47.7939 45.9696 47.9855C45.684 48.2448 45.3871 48.4289 45.094 48.5454L40.6786 37.2494C40.874 36.9075 41.1408 36.588 41.4903 36.2761C41.8435 35.9605 42.1967 35.72 42.5575 35.5659L53.2898 41.1876ZM44.9738 43.1191L47.8635 40.5225L42.7604 37.7116L44.9738 43.1191Z" fill="#3568DD"/>
<path d="M59.0205 23.9429L65.0331 33.5592C64.8564 33.8147 64.6235 34.0289 64.3341 34.2131C64.0109 34.4122 63.7103 34.5362 63.4172 34.5738L58.532 26.7688L58.5208 26.7763L60.9258 36.1934C60.7266 36.4227 60.4711 36.6331 60.1554 36.8285C59.8022 37.0502 59.4828 37.1968 59.1896 37.2794L51.7867 30.9851L51.768 30.9964L56.6494 38.8014C56.4615 39.0644 56.2285 39.2786 55.9504 39.4552C55.6798 39.6243 55.3867 39.7371 55.0673 39.7934L49.0548 30.1772C49.2427 29.9141 49.6185 29.6097 50.1897 29.2527C50.6895 28.9408 51.1479 28.7229 51.565 28.6064L59.0995 35.0886L56.5667 25.4799C56.8748 25.1605 57.2995 24.8223 57.8556 24.4765C58.3441 24.1684 58.7312 23.9955 59.0205 23.9429Z" fill="#3568DD"/>
<path d="M73.1722 23.7437C74.3258 23.5897 75.2953 24.1496 75.8477 25.5249C76.2385 26.4982 76.2423 27.3926 75.8552 28.2155C75.4682 29.0385 74.7317 29.6698 73.6456 30.1057L68.1104 32.3153L63.7626 21.4477L68.9935 19.3546C70.0231 18.945 70.94 18.8811 71.7442 19.1705C72.5446 19.4636 73.1233 20.046 73.4728 20.9216C73.9162 22.0302 73.687 22.9696 73.1308 23.6348L73.1722 23.7437ZM66.3066 22.173L67.5467 25.2732L70.2937 24.1759C70.5154 24.0857 70.6131 24.0481 70.8987 23.8865C71.188 23.725 71.3496 23.6047 71.5676 23.3379C71.8569 22.9809 71.9659 22.4886 71.7066 21.846C71.5262 21.3913 71.2331 21.0719 70.8273 20.8878C70.4214 20.7037 69.9029 20.7375 69.2678 20.993L66.3066 22.173ZM72.6761 28.5575C73.8749 28.0803 74.2657 27.3099 73.841 26.2464C73.5179 25.4423 73.0106 25.1717 72.5033 25.1417C72.2214 25.1454 72.0523 25.1492 71.7705 25.2318C71.4849 25.322 71.4097 25.3521 71.173 25.446L68.1066 26.6711L69.388 29.8727L72.6761 28.5575Z" fill="#3568DD"/>
<path d="M89.8608 25.4837C89.579 25.6566 89.2408 25.7918 88.85 25.8783C88.5569 25.9422 88.1961 25.9647 87.7677 25.9459L86.4112 23.7777L81.4508 24.8825L81.1352 27.4227C80.7519 27.6181 80.425 27.7534 80.1469 27.8136C79.7711 27.8962 79.4216 27.915 79.106 27.8737L80.797 15.8637C81.1314 15.6608 81.526 15.5142 81.9807 15.4127C82.4429 15.3113 82.8675 15.2737 83.2583 15.315L89.8608 25.4837ZM81.6688 23.0862L85.4604 22.2445L82.3865 17.2917L81.6688 23.0862Z" fill="#3568DD"/>
<path d="M96.0574 25.3634C94.5092 25.4724 93.3179 25.262 92.4987 24.7246C91.6044 24.1572 91.1309 23.3229 91.082 22.2144C91.3714 22.0791 91.6946 21.9964 92.0666 21.9701C92.3935 21.9476 92.7092 21.9852 93.0323 22.0791C93.0699 22.639 93.2879 23.0486 93.6862 23.3117C94.1371 23.6085 94.8624 23.7213 95.8507 23.6499C96.9067 23.5785 97.6281 23.3455 98.0302 22.9434C98.3647 22.6052 98.5112 22.2144 98.4812 21.7634C98.4474 21.2637 98.2557 20.9104 97.9025 20.7C97.553 20.4895 97.0081 20.3392 96.2716 20.2378L94.776 20.0424C93.9417 19.9334 93.333 19.7906 92.728 19.4824C92.4236 19.3284 92.1718 19.1405 91.9651 18.93C91.5555 18.4979 91.2699 17.8403 91.2098 16.9873C91.1384 15.9614 91.4503 15.1083 92.1417 14.4244C92.852 13.7255 93.9305 13.3271 95.3622 13.2294C96.7526 13.1317 97.8536 13.3497 98.6728 13.8758C99.4319 14.3718 99.8415 15.0294 99.8979 15.8449C99.9054 15.9238 99.9054 16.0628 99.8979 16.262C99.6724 16.386 99.4018 16.4649 99.0824 16.4875C98.7179 16.5138 98.3722 16.4799 98.0378 16.3935C98.0415 16.3259 98.0415 16.2545 98.0378 16.1906C98.0152 15.8637 97.7446 15.4278 97.3839 15.2136C96.948 14.943 96.3918 14.8378 95.7041 14.8829C94.7309 14.9505 94.0507 15.1422 93.6637 15.4691C93.2766 15.796 93.1 16.2019 93.1338 16.6904C93.1939 17.5697 93.8553 18.0131 95.0653 18.186L97.0945 18.4678C98.0979 18.6031 98.8382 18.8511 99.4695 19.3096C100.101 19.768 100.465 20.5196 100.537 21.5305C100.612 22.5902 100.27 23.4695 99.5221 24.1647C98.763 24.8524 97.6056 25.2545 96.0574 25.3634Z" fill="#3568DD"/>
<path d="M107.85 25.4123C106.302 25.2883 105.155 24.905 104.426 24.2549C103.626 23.5634 103.28 22.6653 103.397 21.5643C103.705 21.4703 104.036 21.4403 104.408 21.4703C104.735 21.4966 105.043 21.5793 105.347 21.7221C105.302 22.282 105.456 22.7179 105.813 23.0373C106.215 23.3981 106.914 23.616 107.902 23.6949C108.955 23.7776 109.702 23.6574 110.161 23.3192C110.54 23.0336 110.747 22.6728 110.781 22.2219C110.822 21.7221 110.683 21.3426 110.368 21.0833C110.052 20.824 109.537 20.5947 108.823 20.3843L107.373 19.9672C106.565 19.7342 105.982 19.505 105.43 19.1104C105.152 18.9112 104.93 18.6895 104.757 18.449C104.415 17.9605 104.231 17.2653 104.299 16.4161C104.381 15.3902 104.817 14.5935 105.603 14.0186C106.411 13.4323 107.53 13.1994 108.962 13.3158C110.349 13.4248 111.408 13.8044 112.141 14.447C112.818 15.0482 113.126 15.7622 113.062 16.5739C113.054 16.6528 113.036 16.7918 112.998 16.9872C112.758 17.0774 112.476 17.115 112.156 17.0887C111.792 17.0586 111.457 16.976 111.138 16.8407C111.149 16.7768 111.164 16.7054 111.168 16.6378C111.194 16.3108 110.991 15.8411 110.668 15.5743C110.277 15.2436 109.744 15.0557 109.056 14.9994C108.083 14.9204 107.38 15.0106 106.952 15.2774C106.52 15.5442 106.287 15.92 106.249 16.4048C106.178 17.2841 106.764 17.8215 107.936 18.171L109.902 18.7497C110.875 19.0315 111.57 19.3885 112.126 19.9371C112.682 20.4858 112.934 21.2824 112.851 22.2895C112.765 23.3492 112.299 24.1684 111.457 24.7434C110.601 25.3108 109.398 25.5363 107.85 25.4123Z" fill="#3568DD"/>
<path d="M124.921 28.1141C124.591 28.1479 124.23 28.1254 123.839 28.0352C123.55 27.9675 123.212 27.8285 122.832 27.6293L122.55 25.0853L117.601 23.9316L116.215 26.0849C115.786 26.0961 115.433 26.0736 115.155 26.0097C114.779 25.9233 114.46 25.788 114.193 25.6114L120.919 15.5179C121.31 15.4803 121.727 15.5179 122.182 15.6269C122.644 15.7358 123.043 15.8861 123.377 16.0928L124.921 28.1141ZM118.574 22.4022L122.359 23.2853L121.735 17.487L118.574 22.4022Z" fill="#3568DD"/>
<path d="M138.419 27.3926C137.446 29.7563 135.969 31.034 133.981 31.2143C133.485 31.2557 132.978 31.2181 132.463 31.1091C131.948 31.0002 131.294 30.786 130.513 30.4665L127.003 29.0235L131.452 18.2048L134.962 19.6478C135.823 20.001 136.503 20.343 136.987 20.6774C137.472 21.0119 137.867 21.4102 138.194 21.8649C139.246 23.353 139.321 25.1943 138.419 27.3926ZM136.39 26.5584C136.969 25.1492 137.063 24.0068 136.661 23.1238C136.322 22.3797 135.605 21.7822 134.519 21.3388L132.726 20.6023L129.596 28.2156L131.388 28.9521C132.478 29.3993 133.406 29.482 134.162 29.1964C135.071 28.8507 135.811 27.9751 136.39 26.5584Z" fill="#3568DD"/>
<path d="M140.351 33.484C140.099 32.041 140.471 30.5191 141.463 28.9296C142.463 27.3287 143.661 26.3216 145.059 25.912C146.457 25.5024 147.874 25.7504 149.309 26.6448C150.726 27.5279 151.56 28.6815 151.801 30.102C152.038 31.53 151.654 33.0406 150.651 34.649C149.655 36.246 148.464 37.2531 147.077 37.6702C145.687 38.0949 144.285 37.8656 142.869 36.9826C141.441 36.0957 140.599 34.927 140.351 33.484ZM146.457 35.7763C147.359 35.4268 148.167 34.6865 148.877 33.5479C149.591 32.4018 149.907 31.3458 149.821 30.3913C149.73 29.4331 149.253 28.6815 148.381 28.1367C147.498 27.5843 146.6 27.4828 145.694 27.821C144.781 28.1554 143.966 28.8995 143.252 30.0456C142.542 31.1842 142.237 32.2402 142.335 33.2097C142.433 34.183 142.921 34.9421 143.801 35.4869C144.669 36.0281 145.552 36.122 146.457 35.7763Z" fill="#3568DD"/>
<path d="M157.892 47.7939C157.802 47.8991 157.693 47.978 157.573 48.0344C157.182 47.8728 156.776 47.6022 156.348 47.2227C155.72 46.6665 155.634 46.1817 156.021 45.6594L157.329 43.8857C157.58 43.5362 157.779 43.2131 157.772 42.7997C157.742 42.4127 157.539 41.9617 156.945 41.4356L154.484 39.2598L151.508 42.6231C151.177 42.4765 150.88 42.2886 150.617 42.0594C150.35 41.8227 150.125 41.5484 149.941 41.2402L157.584 32.5972L161.721 36.2573C162.334 36.7985 162.777 37.287 163.04 37.7267C163.303 38.1663 163.45 38.6135 163.491 39.0757C163.548 39.8348 163.255 40.5864 162.612 41.3154C162.21 41.7701 161.729 42.082 161.173 42.2623C160.605 42.4427 160.068 42.454 159.564 42.3112L159.486 42.3976C159.666 42.7208 159.737 42.9914 159.703 43.4085C159.666 43.8218 159.418 44.3592 158.952 45.0281L157.971 46.4373C157.719 46.798 157.716 47.0874 157.964 47.3053C158.027 47.3617 158.088 47.4068 158.136 47.4406C158.05 47.5834 157.971 47.7074 157.892 47.7939ZM160.861 40.1467C161.195 39.7709 161.357 39.3688 161.342 38.9555C161.327 38.4444 160.981 37.8995 160.312 37.3058L158.009 35.269L155.547 38.0536L157.81 40.0715C158.471 40.654 159.068 40.9246 159.606 40.8795C160.042 40.8419 160.463 40.5976 160.861 40.1467Z" fill="#3568DD"/>
</g>
</g>
<defs>
<filter id="filter0_di_277_4986" x="6.06734" y="3.78985" width="191.727" height="194.733" filterUnits="userSpaceOnUse" color-interpolation-filters="sRGB">
<feFlood flood-opacity="0" result="BackgroundImageFix"/>
<feColorMatrix in="SourceAlpha" type="matrix" values="0 0 0 0 0 0 0 0 0 0 0 0 0 0 0 0 0 0 127 0" result="hardAlpha"/>
<feOffset dy="0.764623"/>
<feGaussianBlur stdDeviation="1.14693"/>
<feComposite in2="hardAlpha" operator="out"/>
<feColorMatrix type="matrix" values="0 0 0 0 0.184314 0 0 0 0 0.168627 0 0 0 0 0.262745 0 0 0 0.1 0"/>
<feBlend mode="normal" in2="BackgroundImageFix" result="effect1_dropShadow_277_4986"/>
<feBlend mode="normal" in="SourceGraphic" in2="effect1_dropShadow_277_4986" result="shape"/>
<feColorMatrix in="SourceAlpha" type="matrix" values="0 0 0 0 0 0 0 0 0 0 0 0 0 0 0 0 0 0 127 0" result="hardAlpha"/>
<feOffset dy="-0.764623"/>
<feComposite in2="hardAlpha" operator="arithmetic" k2="-1" k3="1"/>
<feColorMatrix type="matrix" values="0 0 0 0 0.184314 0 0 0 0 0.168627 0 0 0 0 0.262745 0 0 0 0.1 0"/>
<feBlend mode="normal" in2="shape" result="effect2_innerShadow_277_4986"/>
</filter>
<filter id="filter1_f_277_4986" x="0.920807" y="0.884857" width="201.763" height="201.763" filterUnits="userSpaceOnUse" color-interpolation-filters="sRGB">
<feFlood flood-opacity="0" result="BackgroundImageFix"/>
<feBlend mode="normal" in="SourceGraphic" in2="BackgroundImageFix" result="shape"/>
<feGaussianBlur stdDeviation="7.10228" result="effect1_foregroundBlur_277_4986"/>
</filter>
<linearGradient id="paint0_linear_277_4986" x1="112.924" y1="61.3122" x2="91.125" y2="142.666" gradientUnits="userSpaceOnUse">
<stop stop-color="#5080EC"/>
<stop offset="1" stop-color="#3568DD"/>
</linearGradient>
<linearGradient id="paint1_linear_277_4986" x1="185.167" y1="93.6278" x2="185.167" y2="108.189" gradientUnits="userSpaceOnUse">
<stop stop-color="#5080EC"/>
<stop offset="1" stop-color="#3568DD"/>
</linearGradient>
<linearGradient id="paint2_linear_277_4986" x1="18.3195" y1="93.6279" x2="18.3195" y2="108.189" gradientUnits="userSpaceOnUse">
<stop stop-color="#5080EC"/>
<stop offset="1" stop-color="#3568DD"/>
</linearGradient>
<clipPath id="clip0_277_4986">
<rect width="73.3" height="13.3252" fill="white" transform="translate(65.1038 174.421)"/>
</clipPath>
<clipPath id="clip1_277_4986">
<rect width="122.813" height="35.3348" fill="white" transform="translate(40.6782 13.2106)"/>
</clipPath>
</defs>
</svg>
