<svg width="203" height="203" viewBox="0 0 203 203" fill="none" xmlns="http://www.w3.org/2000/svg">
<g filter="url(#filter0_di_272_3269)">
<rect x="7.70728" y="8.00629" width="187.139" height="187.139" rx="93.5697" fill="#EDF3FF"/>
<path d="M141.503 112.423C135.564 134.588 112.782 147.741 90.6172 141.802C68.4529 135.863 55.2995 113.081 61.2385 90.9164C67.1774 68.752 89.9596 55.5987 112.124 61.5376C134.288 67.4765 147.442 90.2588 141.503 112.423Z" fill="url(#paint0_linear_272_3269)" stroke="#0C0C0D" stroke-width="1.12735"/>
<path d="M119.315 106.478C116.321 117.651 111.558 127.188 106.302 133.578C101.01 140.01 95.3779 143.078 90.617 141.802C85.8561 140.526 82.5122 135.053 81.1455 126.837C79.788 118.675 80.4316 108.035 83.4255 96.8614C86.4193 85.6883 91.1823 76.1512 96.4387 69.762C101.731 63.3296 107.363 60.2619 112.124 61.5376C116.885 62.8132 120.229 68.2861 121.595 76.5027C122.953 84.6641 122.309 95.3049 119.315 106.478Z" stroke="#0C0C0D" stroke-width="1.12735"/>
<path d="M145.552 97.3101C145.482 97.5718 145.247 97.8719 144.675 98.159C144.106 98.4446 143.278 98.6779 142.178 98.8372C139.982 99.1551 136.839 99.1601 132.86 98.818C124.911 98.1345 114.395 96.1324 103.627 93.2473C92.8599 90.3621 82.7514 86.8377 75.5256 83.4552C71.909 81.7622 69.1893 80.1862 67.4469 78.8131C66.5738 78.1251 65.9731 77.5089 65.6233 76.9771C65.2716 76.4425 65.2179 76.065 65.288 75.8034" stroke="#0C0C0D" stroke-width="1.12735" stroke-linecap="round"/>
<path d="M137.367 127.858C137.437 127.596 137.383 127.218 137.031 126.684C136.682 126.152 136.081 125.536 135.208 124.848C133.465 123.475 130.746 121.899 127.129 120.206C119.903 116.823 109.795 113.299 99.0273 110.414C88.2598 107.529 77.7433 105.527 69.7944 104.843C65.8158 104.501 62.6725 104.506 60.4769 104.824C59.3769 104.983 58.5485 105.216 57.9797 105.502C57.4079 105.789 57.1726 106.089 57.1024 106.351" stroke="#0C0C0D" stroke-width="1.12735" stroke-linecap="round"/>
<path d="M127.68 72.7069C131.161 77.8069 133.378 84.197 134.09 91.23C134.801 98.2625 133.979 105.673 131.705 112.698" stroke="#0C0C0D" stroke-width="1.12735" stroke-linecap="round" stroke-linejoin="round"/>
<path d="M129.783 117.755C127.555 122.834 124.597 127.424 121.087 131.255C117.578 135.086 113.592 138.074 109.373 140.05C105.155 142.026 100.791 142.949 96.5388 142.776C92.2879 142.603 88.2262 141.337 84.5919 139.053C80.9566 136.767 77.8161 133.504 75.3636 129.447C72.9107 125.389 71.1975 120.622 70.3335 115.426C69.4695 110.23 69.4733 104.717 70.3477 99.2161C71.2221 93.715 72.9485 88.3429 75.4232 83.4208" stroke="#0C0C0D" stroke-width="1.12735" stroke-linecap="round" stroke-linejoin="round"/>
<path d="M79.3068 76.9411C83.5227 70.9859 88.7923 66.4092 94.5321 63.6915C100.269 60.9749 106.255 60.2197 111.845 61.4823" stroke="#0C0C0D" stroke-width="1.12735" stroke-linecap="round" stroke-linejoin="round"/>
<path d="M111.521 63.7884C113.274 64.2583 114.91 64.5601 116.141 64.664C116.753 64.7156 117.292 64.721 117.707 64.6629C117.912 64.6341 118.12 64.5853 118.3 64.4968C118.476 64.41 118.703 64.2432 118.783 63.9445C118.863 63.6458 118.75 63.3878 118.641 63.2245C118.529 63.0581 118.373 62.9116 118.21 62.7843C117.88 62.5267 117.41 62.2615 116.855 62.0006C115.736 61.4748 114.169 60.9185 112.416 60.4486C110.662 59.9787 109.027 59.6769 107.795 59.573C107.184 59.5214 106.644 59.5159 106.23 59.5741C106.025 59.6029 105.816 59.6516 105.637 59.7402C105.461 59.827 105.234 59.9938 105.153 60.2925C105.073 60.5912 105.187 60.8492 105.296 61.0124C105.407 61.1788 105.563 61.3254 105.726 61.4527C106.056 61.7103 106.526 61.9755 107.081 62.2364C108.2 62.7622 109.767 63.3185 111.521 63.7884Z" fill="#3568DD" stroke="#0C0C0D" stroke-width="1.12735"/>
<path d="M91.1342 139.873C89.3807 139.403 87.7453 139.101 86.5136 138.997C85.9025 138.945 85.3626 138.94 84.9482 138.998C84.7434 139.027 84.5347 139.076 84.3553 139.164C84.1792 139.251 83.952 139.418 83.872 139.717C83.792 140.015 83.9053 140.273 84.0144 140.437C84.1255 140.603 84.2819 140.749 84.4448 140.877C84.7746 141.134 85.2449 141.4 85.8 141.66C86.9186 142.186 88.4858 142.743 90.2393 143.212C91.9929 143.682 93.6283 143.984 94.8599 144.088C95.4711 144.14 96.0109 144.145 96.4253 144.087C96.6301 144.058 96.8388 144.009 97.0183 143.921C97.1943 143.834 97.4215 143.667 97.5015 143.369C97.5816 143.07 97.4682 142.812 97.3592 142.649C97.248 142.482 97.0916 142.336 96.9287 142.208C96.5989 141.951 96.1286 141.686 95.5736 141.425C94.455 140.899 92.8878 140.343 91.1342 139.873Z" fill="#3568DD" stroke="#0C0C0D" stroke-width="1.12735"/>
<path d="M138.378 63.8471C138.71 63.153 139.698 63.153 140.03 63.8471L141.026 65.932C141.093 66.0729 141.196 66.1943 141.323 66.2845L143.383 67.7422C143.898 68.1069 143.898 68.8716 143.383 69.2363L141.323 70.694C141.196 70.7842 141.093 70.9056 141.026 71.0465L140.03 73.1313C139.698 73.8255 138.71 73.8255 138.378 73.1313L137.382 71.0465C137.315 70.9056 137.212 70.7842 137.085 70.694L135.025 69.2363C134.51 68.8716 134.51 68.1069 135.025 67.7422L137.085 66.2845C137.212 66.1943 137.315 66.0729 137.382 65.932L138.378 63.8471Z" fill="#FFC93E" stroke="#0C0C0D" stroke-width="1.12735" stroke-linejoin="round"/>
<path fill-rule="evenodd" clip-rule="evenodd" d="M63.4353 59.8624C64.4978 58.2507 66.6842 57.7759 68.3188 58.802L68.7922 59.0992C69.1111 59.2993 69.5315 59.2057 69.7355 58.8893L70.0382 58.4195C71.0837 56.7972 73.2652 56.3003 74.9107 57.3096C76.5563 58.319 77.0427 60.4523 75.9973 62.0746L71.8691 68.4805C71.6652 68.7969 71.2447 68.8905 70.9258 68.6903L64.4713 64.6386C62.8367 63.6125 62.3729 61.4742 63.4353 59.8624Z" fill="#FF6767" stroke="#29292D" stroke-width="1.12735"/>
<path fill-rule="evenodd" clip-rule="evenodd" d="M147.694 82.5827C148.954 81.8828 150.564 82.3231 151.292 83.5663L151.416 83.7777C151.606 84.1026 152.022 84.2141 152.349 84.0278L152.562 83.9066C153.814 83.1938 155.429 83.6178 156.17 84.8537C156.91 86.0896 156.496 87.6693 155.244 88.3821L150.451 91.1115C150.124 91.2977 149.708 91.1863 149.518 90.8614L146.732 86.1011C146.004 84.8579 146.435 83.2827 147.694 82.5827Z" fill="#FF6767" stroke="#29292D" stroke-width="1.12735"/>
<path fill-rule="evenodd" clip-rule="evenodd" d="M87.1491 122.444C87.987 121.272 89.6311 120.98 90.8213 121.791L91.0237 121.929C91.3347 122.141 91.7584 122.064 91.9742 121.755L92.1145 121.554C92.9401 120.374 94.5812 120.065 95.78 120.864C96.9788 121.664 97.2813 123.268 96.4558 124.449L93.2946 128.969C93.0789 129.277 92.6551 129.355 92.3441 129.143L87.7868 126.036C86.5967 125.224 86.3111 123.616 87.1491 122.444Z" fill="#FF6767" stroke="#29292D" stroke-width="1.12735"/>
<path fill-rule="evenodd" clip-rule="evenodd" d="M46.1889 98.7699C47.0268 97.5978 48.6709 97.3055 49.8611 98.1169L50.0635 98.2549C50.3745 98.4669 50.7982 98.3894 51.014 98.0809L51.1543 97.8802C51.9799 96.6998 53.621 96.3908 54.8198 97.1901C56.0186 97.9893 56.3211 99.5942 55.4956 100.775L52.3344 105.295C52.1187 105.603 51.6949 105.681 51.3839 105.469L46.8266 102.361C45.6365 101.55 45.3509 99.942 46.1889 98.7699Z" fill="#FF6767" stroke="#29292D" stroke-width="1.12735"/>
<path d="M65.8784 93.9184C66.2095 93.2224 67.2001 93.2224 67.5312 93.9184L67.8461 94.5802C67.9132 94.7212 68.0151 94.8426 68.1423 94.933L69.0373 95.5691C69.5506 95.9339 69.5506 96.6962 69.0373 97.061L68.1423 97.6971C68.0151 97.7875 67.9132 97.9089 67.8461 98.0499L67.5312 98.7117C67.2001 99.4077 66.2095 99.4077 65.8784 98.7117L65.5635 98.0499C65.4964 97.9089 65.3945 97.7875 65.2672 97.6971L64.3723 97.061C63.859 96.6962 63.859 95.9339 64.3723 95.5691L65.2672 94.933C65.3945 94.8426 65.4964 94.7212 65.5635 94.5802L65.8784 93.9184Z" fill="#FFC93E" stroke="#0C0C0D" stroke-width="1.12735" stroke-linejoin="round"/>
<path d="M140.659 137.885C140.99 137.189 141.981 137.189 142.312 137.885L142.627 138.547C142.694 138.688 142.796 138.809 142.923 138.9L143.818 139.536C144.331 139.9 144.331 140.663 143.818 141.028L142.923 141.664C142.796 141.754 142.694 141.875 142.627 142.016L142.312 142.678C141.981 143.374 140.99 143.374 140.659 142.678L140.344 142.016C140.277 141.875 140.175 141.754 140.048 141.664L139.153 141.028C138.64 140.663 138.64 139.9 139.153 139.536L140.048 138.9C140.175 138.809 140.277 138.688 140.344 138.547L140.659 137.885Z" fill="#FFC93E" stroke="#0C0C0D" stroke-width="1.12735" stroke-linejoin="round"/>
<path d="M186.826 101.576C186.826 148.824 148.525 187.125 101.277 187.125C54.0293 187.125 15.7275 148.824 15.7275 101.576C15.7275 54.3283 54.0293 16.0265 101.277 16.0265C148.525 16.0265 186.826 54.3283 186.826 101.576ZM36.5026 101.576C36.5026 137.35 65.5031 166.35 101.277 166.35C137.051 166.35 166.051 137.35 166.051 101.576C166.051 65.802 137.051 36.8016 101.277 36.8016C65.5031 36.8016 36.5026 65.802 36.5026 101.576Z" fill="#EDF3FF"/>
<g style="mix-blend-mode:multiply" filter="url(#filter1_f_272_3269)">
<mask id="path-19-outside-1_272_3269" maskUnits="userSpaceOnUse" x="13.5986" y="13.8976" width="175" height="175" fill="black">
<rect fill="white" x="13.5986" y="13.8976" width="175" height="175"/>
<path d="M186.698 101.447C186.698 148.695 148.396 186.997 101.148 186.997C53.9004 186.997 15.5986 148.695 15.5986 101.447C15.5986 54.1994 53.9004 15.8976 101.148 15.8976C148.396 15.8976 186.698 54.1994 186.698 101.447ZM28.7305 101.447C28.7305 141.442 61.153 173.865 101.148 173.865C141.143 173.865 173.566 141.442 173.566 101.447C173.566 61.452 141.143 29.0295 101.148 29.0295C61.153 29.0295 28.7305 61.452 28.7305 101.447Z"/>
</mask>
<path d="M186.698 101.447C186.698 148.695 148.396 186.997 101.148 186.997C53.9004 186.997 15.5986 148.695 15.5986 101.447C15.5986 54.1994 53.9004 15.8976 101.148 15.8976C148.396 15.8976 186.698 54.1994 186.698 101.447ZM28.7305 101.447C28.7305 141.442 61.153 173.865 101.148 173.865C141.143 173.865 173.566 141.442 173.566 101.447C173.566 61.452 141.143 29.0295 101.148 29.0295C61.153 29.0295 28.7305 61.452 28.7305 101.447Z" fill="white"/>
<path d="M186.698 101.447C186.698 148.695 148.396 186.997 101.148 186.997C53.9004 186.997 15.5986 148.695 15.5986 101.447C15.5986 54.1994 53.9004 15.8976 101.148 15.8976C148.396 15.8976 186.698 54.1994 186.698 101.447ZM28.7305 101.447C28.7305 141.442 61.153 173.865 101.148 173.865C141.143 173.865 173.566 141.442 173.566 101.447C173.566 61.452 141.143 29.0295 101.148 29.0295C61.153 29.0295 28.7305 61.452 28.7305 101.447Z" stroke="#5A86EC" stroke-width="2.25469" mask="url(#path-19-outside-1_272_3269)"/>
</g>
<path d="M194.847 101.576C194.847 153.253 152.954 195.146 101.277 195.146C49.5999 195.146 7.70728 153.253 7.70728 101.576C7.70728 49.8989 49.5999 8.00629 101.277 8.00629C152.954 8.00629 194.847 49.8989 194.847 101.576ZM28.244 101.576C28.244 141.911 60.942 174.609 101.277 174.609C141.612 174.609 174.31 141.911 174.31 101.576C174.31 61.241 141.612 28.543 101.277 28.543C60.942 28.543 28.244 61.241 28.244 101.576Z" fill="white"/>
<path fill-rule="evenodd" clip-rule="evenodd" d="M179.246 107.84C179.151 107.898 179.027 107.871 178.964 107.779L178.725 107.427C178.662 107.335 178.683 107.211 178.771 107.143C179.56 106.528 180.209 105.835 180.719 105.092C182.619 102.329 182.619 98.8505 180.719 96.0866C180.209 95.3443 179.56 94.6512 178.771 94.0364C178.683 93.968 178.662 93.8436 178.725 93.7518L178.964 93.4C179.027 93.3082 179.151 93.2814 179.246 93.3391L189.892 99.7995C190.486 100.16 190.486 101.019 189.892 101.379L179.246 107.84Z" fill="url(#paint1_linear_272_3269)"/>
<path fill-rule="evenodd" clip-rule="evenodd" d="M12.3983 107.84C12.3031 107.898 12.1791 107.871 12.1166 107.779L11.8769 107.427C11.8143 107.335 11.8353 107.211 11.9231 107.143C12.7125 106.528 13.3614 105.835 13.8717 105.092C15.7718 102.329 15.7718 98.8505 13.8717 96.0866C13.3614 95.3443 12.7125 94.6513 11.9231 94.0364C11.8353 93.9681 11.8143 93.8437 11.8769 93.7518L12.1166 93.4001C12.1791 93.3082 12.3031 93.2814 12.3983 93.3392L23.0444 99.7996C23.6386 100.16 23.6386 101.019 23.0444 101.38L12.3983 107.84Z" fill="url(#paint2_linear_272_3269)"/>
<path d="M167.756 33.9686C168.316 33.4095 168.316 32.5021 167.749 31.9515C159.103 23.5607 148.942 16.8796 137.803 12.2656C126.223 7.46885 113.811 5 101.276 5C88.742 5 76.3302 7.46886 64.7499 12.2656C53.6106 16.8796 43.4504 23.5607 34.8041 31.9515C34.2366 32.5022 34.2374 33.4095 34.7965 33.9687C35.3556 34.5278 36.2614 34.5269 36.8291 33.9765C45.2094 25.8515 55.0538 19.3812 65.8457 14.9111C77.0786 10.2582 89.118 7.86346 101.276 7.86346C113.435 7.86345 125.474 10.2582 136.707 14.9111C147.499 19.3812 157.344 25.8514 165.724 33.9765C166.292 34.5269 167.197 34.5278 167.756 33.9686Z" fill="#3568DD"/>
<path d="M56.2008 172.514C56.0143 172.81 55.6233 172.898 55.3292 172.709C46.5434 167.073 38.8748 159.861 32.7094 151.438C32.503 151.156 32.5674 150.76 32.8509 150.556C33.1345 150.351 33.5298 150.416 33.7362 150.698C39.8067 158.989 47.3561 166.089 56.0047 171.639C56.2988 171.828 56.3874 172.219 56.2008 172.514Z" fill="#0C0C0D"/>
<path d="M145.976 172.514C146.163 172.81 146.554 172.898 146.848 172.709C155.634 167.073 163.302 159.861 169.468 151.438C169.674 151.156 169.61 150.76 169.326 150.556C169.043 150.351 168.647 150.416 168.441 150.698C162.371 158.989 154.821 166.089 146.173 171.639C145.878 171.828 145.79 172.219 145.976 172.514Z" fill="#0C0C0D"/>
<g clip-path="url(#clip0_272_3269)">
<path d="M68.9332 176.372C69.0196 176.105 68.9895 175.857 68.8467 175.62C68.7039 175.383 68.4747 175.199 68.1628 175.056C67.9373 174.959 67.7269 174.906 67.5315 174.902C67.3361 174.899 67.1632 174.936 67.0204 175.015C66.8739 175.098 66.7649 175.218 66.6935 175.372C66.6371 175.5 66.6146 175.628 66.6334 175.752C66.6522 175.876 66.6973 175.988 66.7687 176.097C66.8438 176.206 66.9265 176.308 67.0242 176.402C67.1219 176.496 67.2158 176.582 67.3135 176.657L67.787 177.041C67.9411 177.161 68.0952 177.3 68.2455 177.458C68.3958 177.615 68.5236 177.788 68.625 177.976C68.7265 178.164 68.7866 178.371 68.8054 178.593C68.8204 178.814 68.7753 179.047 68.6626 179.291C68.5236 179.603 68.3169 179.84 68.0501 180.009C67.7833 180.178 67.4639 180.261 67.0994 180.265C66.7348 180.269 66.3365 180.171 65.9081 179.975C65.4985 179.791 65.1716 179.562 64.9311 179.299C64.6906 179.032 64.5403 178.743 64.4802 178.423C64.42 178.108 64.4538 177.781 64.5854 177.443L65.4159 177.818C65.3407 178.025 65.3332 178.217 65.3858 178.401C65.4384 178.585 65.5399 178.747 65.6902 178.889C65.8405 179.032 66.0209 179.152 66.2313 179.25C66.4643 179.355 66.6898 179.412 66.9039 179.423C67.1181 179.434 67.3098 179.393 67.4751 179.31C67.6405 179.224 67.7645 179.092 67.8434 178.916C67.9186 178.754 67.9298 178.6 67.8847 178.453C67.8396 178.307 67.7532 178.168 67.6292 178.029C67.5052 177.89 67.3549 177.751 67.182 177.612L66.6184 177.138C66.2351 176.819 65.9683 176.488 65.8179 176.139C65.6676 175.789 65.6789 175.425 65.8518 175.045C65.9946 174.729 66.205 174.493 66.4831 174.335C66.7574 174.177 67.073 174.102 67.4263 174.102C67.7795 174.102 68.1365 174.188 68.5048 174.354C68.8768 174.523 69.1737 174.737 69.3991 174.996C69.6246 175.256 69.7674 175.537 69.8275 175.838C69.8877 176.139 69.8576 176.439 69.7298 176.736L68.9332 176.372Z" fill="#0C0C0D"/>
<path d="M71.2743 182.181C70.8798 182.035 70.5679 181.813 70.3386 181.524C70.1094 181.231 69.9779 180.892 69.9328 180.505C69.8915 180.118 69.9516 179.705 70.1132 179.269C70.2748 178.829 70.5002 178.476 70.7858 178.209C71.0714 177.942 71.3946 177.773 71.7591 177.702C72.1236 177.631 72.5031 177.668 72.8977 177.815C73.2923 177.961 73.6042 178.183 73.8334 178.472C74.0626 178.765 74.1942 179.104 74.2355 179.494C74.2768 179.885 74.2167 180.299 74.0514 180.735C73.8898 181.17 73.6643 181.524 73.3787 181.787C73.0931 182.054 72.77 182.223 72.4054 182.294C72.0409 182.365 71.6727 182.328 71.2743 182.181ZM71.5336 181.494C71.7892 181.588 72.0297 181.599 72.2476 181.527C72.4656 181.456 72.661 181.321 72.8263 181.125C72.9917 180.93 73.1269 180.697 73.2284 180.426C73.3299 180.156 73.3787 179.893 73.3825 179.637C73.3862 179.382 73.3261 179.152 73.2096 178.95C73.0931 178.75 72.9052 178.6 72.6497 178.506C72.3904 178.408 72.1499 178.397 71.932 178.472C71.7102 178.547 71.5186 178.683 71.3533 178.878C71.1879 179.074 71.0526 179.307 70.9549 179.577C70.8535 179.848 70.8009 180.111 70.8009 180.37C70.7971 180.626 70.8572 180.855 70.9775 181.054C71.0864 181.249 71.2743 181.396 71.5336 181.494Z" fill="#0C0C0D"/>
<path d="M78.0949 182.365L78.8503 179.836L79.6958 180.088L78.4068 184.41L77.5801 184.162L77.8018 183.414L77.7567 183.399C77.5876 183.602 77.3734 183.745 77.1066 183.831C76.8436 183.917 76.5467 183.914 76.2235 183.816C75.9455 183.733 75.72 183.598 75.5434 183.414C75.3668 183.23 75.254 182.997 75.2052 182.719C75.1563 182.441 75.1864 182.125 75.2916 181.768L76.1108 179.021L76.9526 179.273L76.1634 181.918C76.077 182.211 76.0883 182.471 76.1972 182.696C76.3062 182.922 76.4941 183.068 76.7534 183.147C76.9112 183.196 77.0803 183.203 77.2607 183.17C77.4411 183.14 77.6064 183.057 77.7567 182.929C77.907 182.801 78.0235 182.61 78.0949 182.365Z" fill="#0C0C0D"/>
<path d="M82.4126 179.213L80.9734 185.052L80.1204 184.842L81.5596 179.002L82.4126 179.213Z" fill="#0C0C0D"/>
<path d="M82.7659 185.481L83.912 179.577L84.7725 179.746L84.3479 181.941L84.4005 181.952C84.4682 181.869 84.5621 181.775 84.6786 181.674C84.7951 181.572 84.9492 181.49 85.1333 181.433C85.3174 181.373 85.5467 181.373 85.821 181.426C86.178 181.494 86.4786 181.648 86.7266 181.881C86.9746 182.114 87.1437 182.418 87.2377 182.79C87.3316 183.162 87.3316 183.587 87.2414 184.064C87.1475 184.541 86.9897 184.936 86.7642 185.248C86.5387 185.56 86.2682 185.777 85.9563 185.905C85.6406 186.033 85.3062 186.063 84.9492 185.995C84.6786 185.943 84.4682 185.856 84.3178 185.732C84.1675 185.608 84.051 185.477 83.9796 185.338C83.9082 185.199 83.8556 185.075 83.8218 184.973L83.7504 184.958L83.6151 185.646L82.7659 185.481ZM84.0398 183.433C83.9796 183.745 83.9721 184.026 84.0172 184.278C84.0623 184.53 84.1563 184.74 84.3028 184.902C84.4494 185.067 84.6448 185.172 84.8928 185.221C85.1521 185.27 85.3776 185.244 85.5767 185.139C85.7759 185.033 85.945 184.872 86.0803 184.654C86.2155 184.436 86.3133 184.177 86.3696 183.88C86.426 183.587 86.4335 183.316 86.3922 183.068C86.3508 182.82 86.2531 182.61 86.1066 182.441C85.96 182.271 85.7533 182.162 85.494 182.114C85.2423 182.065 85.0206 182.087 84.8252 182.185C84.6297 182.279 84.4644 182.437 84.3291 182.647C84.1938 182.865 84.0999 183.124 84.0398 183.433Z" fill="#0C0C0D"/>
<path d="M90.304 186.837C89.8831 186.785 89.5299 186.642 89.2405 186.413C88.9512 186.183 88.7407 185.883 88.613 185.514C88.4814 185.146 88.4476 184.733 88.504 184.271C88.5603 183.805 88.6994 183.41 88.9136 183.083C89.1315 182.756 89.4059 182.516 89.7441 182.365C90.0823 182.215 90.458 182.162 90.8789 182.215C91.2998 182.268 91.653 182.411 91.9424 182.64C92.2317 182.869 92.4422 183.17 92.5699 183.542C92.6977 183.914 92.7353 184.327 92.6789 184.793C92.6226 185.255 92.4835 185.65 92.2693 185.973C92.0551 186.296 91.777 186.537 91.4388 186.691C91.1006 186.845 90.7211 186.89 90.304 186.837ZM90.3979 186.108C90.6685 186.142 90.9052 186.097 91.1006 185.977C91.296 185.856 91.4539 185.68 91.5704 185.451C91.6869 185.221 91.762 184.966 91.7996 184.676C91.8334 184.391 91.8259 184.124 91.7695 183.872C91.7132 183.621 91.6042 183.414 91.4426 183.245C91.281 183.076 91.0668 182.978 90.7925 182.94C90.5182 182.907 90.2814 182.952 90.086 183.076C89.8906 183.2 89.7328 183.376 89.6163 183.605C89.4998 183.835 89.4246 184.09 89.3871 184.376C89.3532 184.665 89.3608 184.932 89.4171 185.18C89.4735 185.428 89.5825 185.638 89.7441 185.804C89.9056 185.973 90.1236 186.074 90.3979 186.108Z" fill="#0C0C0D"/>
<path d="M96.9856 185.447L97.1397 182.813L98.019 182.865L97.756 187.367L96.8955 187.318L96.9406 186.537L96.8917 186.533C96.7752 186.766 96.5986 186.957 96.3581 187.104C96.1214 187.251 95.832 187.314 95.4976 187.292C95.2082 187.277 94.9564 187.198 94.7422 187.055C94.528 186.916 94.3664 186.713 94.2537 186.454C94.141 186.195 94.0959 185.879 94.1184 185.507L94.2838 182.643L95.1593 182.696L94.9978 185.454C94.979 185.762 95.0504 186.011 95.212 186.202C95.3698 186.394 95.5877 186.499 95.8583 186.514C96.0236 186.525 96.189 186.492 96.3581 186.42C96.5272 186.349 96.67 186.232 96.7865 186.071C96.9067 185.909 96.9706 185.702 96.9856 185.447Z" fill="#0C0C0D"/>
<path d="M100.446 184.737L100.491 187.412L99.6158 187.427L99.5444 182.918L100.386 182.903L100.397 183.636H100.454C100.555 183.395 100.713 183.2 100.935 183.053C101.153 182.907 101.435 182.828 101.773 182.824C102.081 182.82 102.352 182.88 102.585 183.004C102.817 183.128 103.002 183.316 103.129 183.568C103.261 183.82 103.329 184.132 103.336 184.5L103.381 187.367L102.506 187.382L102.461 184.62C102.457 184.293 102.367 184.038 102.194 183.857C102.021 183.677 101.784 183.587 101.487 183.59C101.284 183.594 101.104 183.639 100.946 183.733C100.788 183.823 100.668 183.955 100.578 184.124C100.484 184.293 100.443 184.5 100.446 184.737Z" fill="#0C0C0D"/>
<path d="M106.85 187.284C106.485 187.311 106.154 187.243 105.858 187.074C105.561 186.909 105.316 186.657 105.132 186.322C104.948 185.988 104.835 185.578 104.798 185.09C104.764 184.605 104.813 184.18 104.952 183.823C105.091 183.466 105.294 183.185 105.565 182.982C105.835 182.779 106.151 182.662 106.515 182.636C106.793 182.617 107.023 182.647 107.199 182.726C107.376 182.805 107.519 182.903 107.62 183.019C107.725 183.136 107.804 183.237 107.864 183.327L107.917 183.324L107.755 181.095L108.631 181.031L109.071 187.029L108.214 187.093L108.161 186.394L108.09 186.398C108.045 186.499 107.977 186.612 107.887 186.743C107.797 186.875 107.669 186.991 107.504 187.096C107.342 187.202 107.124 187.262 106.85 187.284ZM106.989 186.522C107.24 186.503 107.447 186.42 107.613 186.274C107.778 186.127 107.898 185.932 107.97 185.687C108.041 185.443 108.067 185.161 108.045 184.846C108.022 184.534 107.958 184.263 107.849 184.034C107.74 183.805 107.597 183.632 107.413 183.515C107.229 183.399 107.011 183.346 106.756 183.365C106.493 183.384 106.278 183.47 106.113 183.617C105.948 183.767 105.828 183.962 105.756 184.207C105.685 184.451 105.658 184.718 105.681 185.015C105.704 185.315 105.767 185.582 105.876 185.815C105.985 186.048 106.132 186.228 106.316 186.356C106.504 186.488 106.729 186.54 106.989 186.522Z" fill="#0C0C0D"/>
<path d="M112.535 181.355L112.4 180.584L116.981 179.772L117.116 180.543L115.267 180.87L116.177 186.022L115.286 186.18L114.377 181.028L112.535 181.355Z" fill="#0C0C0D"/>
<path d="M120.81 185.139C120.401 185.236 120.017 185.229 119.668 185.116C119.315 185.003 119.014 184.797 118.762 184.496C118.51 184.195 118.33 183.823 118.221 183.369C118.112 182.914 118.101 182.497 118.187 182.114C118.274 181.734 118.45 181.411 118.71 181.148C118.973 180.885 119.307 180.704 119.717 180.607C120.126 180.509 120.51 180.517 120.859 180.629C121.212 180.742 121.513 180.952 121.765 181.249C122.016 181.546 122.197 181.926 122.306 182.38C122.415 182.835 122.426 183.248 122.336 183.628C122.249 184.008 122.073 184.327 121.814 184.59C121.558 184.861 121.22 185.041 120.81 185.139ZM120.641 184.421C120.908 184.357 121.111 184.233 121.254 184.049C121.396 183.865 121.479 183.647 121.509 183.391C121.539 183.136 121.517 182.869 121.449 182.587C121.381 182.309 121.276 182.061 121.137 181.847C120.998 181.633 120.821 181.475 120.611 181.373C120.401 181.272 120.164 181.253 119.897 181.317C119.63 181.381 119.424 181.505 119.281 181.693C119.138 181.881 119.055 182.099 119.025 182.354C118.999 182.61 119.018 182.876 119.085 183.158C119.153 183.44 119.258 183.688 119.397 183.902C119.54 184.117 119.713 184.271 119.923 184.372C120.134 184.474 120.371 184.485 120.641 184.421Z" fill="#0C0C0D"/>
<path d="M124.395 184.113L122.614 178.371L123.452 178.112L125.233 183.854L124.395 184.113ZM124.711 182.414L124.387 181.392L124.534 181.347L125.684 178.991L126.687 178.679L125.372 181.362L125.24 181.403L124.711 182.414ZM127.112 183.271L124.936 181.704L125.331 180.937L128.142 182.952L127.112 183.271Z" fill="#0C0C0D"/>
<path d="M131.054 181.971C130.637 182.129 130.246 182.174 129.881 182.11C129.517 182.046 129.19 181.881 128.904 181.618C128.619 181.355 128.393 181.005 128.228 180.565C128.063 180.133 128.003 179.724 128.036 179.333C128.07 178.942 128.202 178.6 128.423 178.303C128.645 178.006 128.953 177.785 129.344 177.638C129.581 177.548 129.829 177.499 130.081 177.495C130.332 177.488 130.58 177.537 130.821 177.638C131.061 177.74 131.287 177.905 131.49 178.134C131.693 178.363 131.869 178.668 132.012 179.051L132.121 179.34L128.769 180.61L128.536 179.994L131.084 179.028C131.001 178.81 130.885 178.638 130.735 178.502C130.584 178.367 130.411 178.284 130.216 178.247C130.021 178.209 129.818 178.232 129.603 178.311C129.374 178.397 129.194 178.532 129.066 178.709C128.938 178.886 128.863 179.085 128.837 179.299C128.814 179.513 128.841 179.727 128.919 179.938L129.104 180.419C129.209 180.701 129.352 180.922 129.525 181.08C129.697 181.238 129.897 181.336 130.114 181.373C130.332 181.407 130.562 181.381 130.802 181.291C130.956 181.231 131.092 181.155 131.2 181.061C131.313 180.967 131.396 180.859 131.456 180.735C131.516 180.61 131.546 180.471 131.542 180.321L132.373 180.167C132.395 180.419 132.362 180.663 132.268 180.892C132.174 181.125 132.023 181.332 131.817 181.52C131.618 181.704 131.358 181.854 131.054 181.971Z" fill="#0C0C0D"/>
<path d="M134.011 177.77L135.123 180.205L134.323 180.569L132.452 176.466L133.218 176.116L133.523 176.785L133.571 176.762C133.568 176.503 133.635 176.259 133.778 176.037C133.921 175.812 134.146 175.631 134.455 175.489C134.733 175.361 135.007 175.308 135.27 175.327C135.533 175.346 135.774 175.447 135.995 175.624C136.217 175.8 136.405 176.06 136.559 176.398L137.75 179.006L136.95 179.37L135.804 176.856C135.668 176.56 135.484 176.36 135.251 176.263C135.018 176.165 134.766 176.18 134.496 176.3C134.312 176.383 134.165 176.499 134.056 176.646C133.947 176.793 133.891 176.962 133.876 177.153C133.861 177.345 133.913 177.552 134.011 177.77Z" fill="#0C0C0D"/>
</g>
<g clip-path="url(#clip1_272_3269)">
<path d="M52.6359 40.8685C52.4743 41.1579 52.2488 41.4397 51.952 41.7103C51.7303 41.9094 51.4259 42.1048 51.0426 42.3003L48.7954 41.0752L45.015 44.4685L45.9846 46.8397C45.7478 47.1967 45.5261 47.4748 45.3157 47.6664C45.0301 47.9257 44.7332 48.1098 44.4401 48.2263L40.0247 36.9303C40.2201 36.5884 40.4869 36.269 40.8363 35.9571C41.1896 35.6414 41.5428 35.4009 41.9036 35.2468L52.6359 40.8685ZM44.3198 42.8L47.2096 40.2034L42.1065 37.3925L44.3198 42.8Z" fill="#3568DD"/>
<path d="M58.3664 23.6238L64.3789 33.2401C64.2023 33.4956 63.9693 33.7098 63.6799 33.894C63.3568 34.0931 63.0561 34.2171 62.763 34.2547L57.8779 26.4497L57.8666 26.4572L60.2716 35.8743C60.0724 36.1036 59.8169 36.314 59.5012 36.5094C59.148 36.7311 58.8286 36.8777 58.5355 36.9603L51.1326 30.666L51.1138 30.6773L55.9952 38.4823C55.8073 38.7453 55.5743 38.9595 55.2962 39.1361C55.0257 39.3052 54.7326 39.418 54.4131 39.4743L48.4006 29.8581C48.5885 29.595 48.9643 29.2906 49.5355 28.9336C50.0353 28.6217 50.4937 28.4038 50.9109 28.2873L58.4453 34.7695L55.9125 25.1608C56.2207 24.8414 56.6453 24.5032 57.2014 24.1575C57.69 23.8493 58.077 23.6764 58.3664 23.6238Z" fill="#3568DD"/>
<path d="M72.5182 23.4247C73.6719 23.2706 74.6414 23.8305 75.1938 25.2059C75.5846 26.1791 75.5884 27.0735 75.2013 27.8965C74.8143 28.7194 74.0777 29.3507 72.9917 29.7866L67.4564 31.9962L63.1086 21.1286L68.3395 19.0355C69.3692 18.6259 70.2861 18.562 71.0903 18.8514C71.8907 19.1445 72.4694 19.727 72.8188 20.6025C73.2623 21.7111 73.033 22.6505 72.4769 23.3157L72.5182 23.4247ZM65.6527 21.8539L66.8928 24.9541L69.6397 23.8568C69.8614 23.7666 69.9591 23.729 70.2447 23.5674C70.5341 23.4059 70.6957 23.2856 70.9136 23.0188C71.203 22.6618 71.312 22.1695 71.0527 21.527C70.8723 21.0723 70.5792 20.7528 70.1733 20.5687C69.7675 20.3846 69.2489 20.4184 68.6138 20.6739L65.6527 21.8539ZM72.0222 28.2384C73.2209 27.7612 73.6117 26.9908 73.1871 25.9274C72.8639 25.1232 72.3566 24.8526 71.8493 24.8226C71.5675 24.8263 71.3984 24.8301 71.1166 24.9127C70.831 25.0029 70.7558 25.033 70.5191 25.1269L67.4527 26.352L68.7341 29.5537L72.0222 28.2384Z" fill="#3568DD"/>
<path d="M89.2068 25.1646C88.9249 25.3375 88.5867 25.4728 88.1959 25.5592C87.9028 25.6231 87.5421 25.6456 87.1137 25.6268L85.7571 23.4586L80.7968 24.5634L80.4811 27.1036C80.0978 27.2991 79.7709 27.4343 79.4928 27.4945C79.117 27.5771 78.7676 27.5959 78.4519 27.5546L80.1429 15.5446C80.4774 15.3417 80.8719 15.1951 81.3266 15.0937C81.7888 14.9922 82.2135 14.9546 82.6043 14.996L89.2068 25.1646ZM81.0147 22.7671L84.8064 21.9254L81.7325 16.9726L81.0147 22.7671Z" fill="#3568DD"/>
<path d="M95.4033 25.0443C93.8551 25.1533 92.6639 24.9429 91.8447 24.4055C90.9503 23.8381 90.4768 23.0038 90.428 21.8953C90.7173 21.76 91.0405 21.6773 91.4125 21.651C91.7395 21.6285 92.0551 21.6661 92.3783 21.76C92.4159 22.3199 92.6338 22.7295 93.0321 22.9926C93.4831 23.2894 94.2083 23.4022 95.1967 23.3308C96.2526 23.2594 96.9741 23.0264 97.3762 22.6243C97.7106 22.2861 97.8572 21.8953 97.8271 21.4444C97.7933 20.9446 97.6017 20.5913 97.2484 20.3809C96.8989 20.1705 96.3541 20.0201 95.6175 19.9187L94.1219 19.7233C93.2877 19.6143 92.6789 19.4715 92.0739 19.1634C91.7695 19.0093 91.5177 18.8214 91.3111 18.611C90.9015 18.1788 90.6159 17.5212 90.5557 16.6682C90.4843 15.6423 90.7962 14.7893 91.4877 14.1053C92.1979 13.4064 93.2764 13.008 94.7081 12.9103C96.0985 12.8126 97.1996 13.0306 98.0188 13.5567C98.7779 14.0527 99.1875 14.7103 99.2438 15.5258C99.2513 15.6047 99.2513 15.7437 99.2438 15.9429C99.0184 16.0669 98.7478 16.1458 98.4284 16.1684C98.0639 16.1947 97.7181 16.1609 97.3837 16.0744C97.3875 16.0068 97.3875 15.9354 97.3837 15.8715C97.3612 15.5446 97.0906 15.1087 96.7298 14.8945C96.2939 14.6239 95.7378 14.5187 95.0501 14.5638C94.0768 14.6314 93.3967 14.8231 93.0096 15.15C92.6225 15.4769 92.4459 15.8828 92.4797 16.3713C92.5399 17.2506 93.2012 17.694 94.4113 17.8669L96.4405 18.1487C97.4438 18.284 98.1841 18.532 98.8154 18.9905C99.4467 19.449 99.8113 20.2005 99.8826 21.2114C99.9578 22.2711 99.6158 23.1504 98.868 23.8456C98.109 24.5333 96.9516 24.9354 95.4033 25.0443Z" fill="#3568DD"/>
<path d="M107.196 25.0932C105.648 24.9692 104.501 24.5859 103.772 23.9358C102.972 23.2443 102.626 22.3462 102.743 21.2452C103.051 21.1512 103.382 21.1212 103.754 21.1512C104.081 21.1775 104.389 21.2602 104.693 21.403C104.648 21.9629 104.802 22.3988 105.159 22.7182C105.561 23.079 106.26 23.2969 107.248 23.3759C108.301 23.4585 109.048 23.3383 109.507 23.0001C109.886 22.7145 110.093 22.3537 110.127 21.9028C110.168 21.403 110.029 21.0235 109.713 20.7642C109.398 20.5049 108.883 20.2757 108.169 20.0652L106.719 19.6481C105.911 19.4151 105.328 19.1859 104.776 18.7913C104.498 18.5922 104.276 18.3704 104.103 18.1299C103.761 17.6414 103.577 16.9462 103.645 16.097C103.727 15.0711 104.163 14.2744 104.949 13.6995C105.757 13.1132 106.876 12.8803 108.308 12.9968C109.695 13.1057 110.754 13.4853 111.487 14.1279C112.164 14.7291 112.472 15.4431 112.408 16.2548C112.4 16.3337 112.382 16.4727 112.344 16.6681C112.103 16.7583 111.822 16.7959 111.502 16.7696C111.138 16.7395 110.803 16.6569 110.484 16.5216C110.495 16.4577 110.51 16.3863 110.514 16.3187C110.54 15.9917 110.337 15.522 110.014 15.2552C109.623 14.9245 109.09 14.7366 108.402 14.6803C107.429 14.6013 106.726 14.6915 106.298 14.9583C105.865 15.2251 105.633 15.6009 105.595 16.0857C105.524 16.965 106.11 17.5024 107.282 17.8519L109.248 18.4306C110.221 18.7124 110.916 19.0694 111.472 19.618C112.028 20.1667 112.28 20.9633 112.197 21.9704C112.111 23.0301 111.645 23.8493 110.803 24.4243C109.946 24.9917 108.744 25.2172 107.196 25.0932Z" fill="#3568DD"/>
<path d="M124.267 27.795C123.937 27.8288 123.576 27.8063 123.185 27.7161C122.896 27.6484 122.558 27.5094 122.178 27.3102L121.896 24.7662L116.947 23.6125L115.561 25.7658C115.132 25.777 114.779 25.7545 114.501 25.6906C114.125 25.6042 113.806 25.4689 113.539 25.2923L120.265 15.1988C120.656 15.1612 121.073 15.1988 121.528 15.3078C121.99 15.4167 122.388 15.567 122.723 15.7737L124.267 27.795ZM117.92 22.0831L121.705 22.9662L121.081 17.1679L117.92 22.0831Z" fill="#3568DD"/>
<path d="M137.765 27.0736C136.792 29.4372 135.315 30.7149 133.327 30.8953C132.831 30.9366 132.324 30.899 131.809 30.79C131.294 30.6811 130.64 30.4669 129.859 30.1474L126.349 28.7044L130.798 17.8857L134.308 19.3287C135.168 19.6819 135.849 20.0239 136.333 20.3583C136.818 20.6928 137.213 21.0911 137.54 21.5458C138.592 23.0339 138.667 24.8752 137.765 27.0736ZM135.736 26.2393C136.315 24.8301 136.409 23.6878 136.006 22.8047C135.668 22.0606 134.951 21.4631 133.865 21.0197L132.072 20.2832L128.942 27.8965L130.734 28.633C131.824 29.0802 132.752 29.1629 133.508 28.8773C134.417 28.5316 135.157 27.656 135.736 26.2393Z" fill="#3568DD"/>
<path d="M139.697 33.1649C139.445 31.7219 139.817 30.2 140.809 28.6105C141.809 27.0096 143.007 26.0025 144.405 25.5929C145.803 25.1833 147.22 25.4313 148.655 26.3257C150.072 27.2088 150.906 28.3624 151.147 29.7829C151.384 31.2109 151 32.7215 149.997 34.3299C149.001 35.9269 147.81 36.934 146.423 37.3511C145.033 37.7758 143.631 37.5466 142.215 36.6635C140.787 35.7766 139.945 34.6079 139.697 33.1649ZM145.803 35.4572C146.705 35.1077 147.513 34.3674 148.223 33.2288C148.937 32.0827 149.253 31.0267 149.167 30.0723C149.076 29.114 148.599 28.3624 147.727 27.8176C146.844 27.2652 145.946 27.1637 145.04 27.5019C144.127 27.8363 143.312 28.5804 142.598 29.7265C141.888 30.8652 141.583 31.9211 141.681 32.8906C141.779 33.8639 142.267 34.623 143.147 35.1679C144.015 35.709 144.898 35.8029 145.803 35.4572Z" fill="#3568DD"/>
<path d="M157.238 47.4748C157.148 47.58 157.039 47.6589 156.919 47.7153C156.528 47.5537 156.122 47.2831 155.694 46.9036C155.066 46.3474 154.98 45.8627 155.367 45.3403L156.674 43.5666C156.926 43.2172 157.125 42.894 157.118 42.4806C157.088 42.0936 156.885 41.6426 156.291 41.1165L153.83 38.9408L150.854 42.304C150.523 42.1574 150.226 41.9696 149.963 41.7403C149.696 41.5036 149.471 41.2293 149.287 40.9211L156.93 32.2781L161.067 35.9383C161.68 36.4794 162.123 36.9679 162.386 37.4076C162.649 37.8472 162.796 38.2944 162.837 38.7566C162.894 39.5157 162.601 40.2673 161.958 40.9963C161.556 41.451 161.075 41.7629 160.519 41.9433C159.951 42.1236 159.414 42.1349 158.91 41.9921L158.831 42.0785C159.012 42.4017 159.083 42.6723 159.049 43.0894C159.012 43.5027 158.764 44.0401 158.298 44.709L157.317 46.1182C157.065 46.4789 157.062 46.7683 157.31 46.9862C157.373 47.0426 157.434 47.0877 157.482 47.1215C157.396 47.2643 157.317 47.3883 157.238 47.4748ZM160.207 39.8276C160.541 39.4518 160.703 39.0497 160.688 38.6364C160.673 38.1253 160.327 37.5804 159.658 36.9867L157.355 34.9499L154.893 37.7345L157.155 39.7524C157.817 40.3349 158.414 40.6055 158.952 40.5604C159.388 40.5228 159.809 40.2785 160.207 39.8276Z" fill="#3568DD"/>
</g>
</g>
<defs>
<filter id="filter1_f_272_3269" x="0.266632" y="0.565765" width="201.763" height="201.763" filterUnits="userSpaceOnUse" color-interpolation-filters="sRGB">
<feFlood flood-opacity="0" result="BackgroundImageFix"/>
<feBlend mode="normal" in="SourceGraphic" in2="BackgroundImageFix" result="shape"/>
<feGaussianBlur stdDeviation="7.10228" result="effect1_foregroundBlur_272_3269"/>
</filter>
<linearGradient id="paint0_linear_272_3269" x1="112.27" y1="60.9931" x2="90.4713" y2="142.346" gradientUnits="userSpaceOnUse">
<stop stop-color="#5080EC"/>
<stop offset="1" stop-color="#3568DD"/>
</linearGradient>
<linearGradient id="paint1_linear_272_3269" x1="184.513" y1="93.3087" x2="184.513" y2="107.87" gradientUnits="userSpaceOnUse">
<stop stop-color="#5080EC"/>
<stop offset="1" stop-color="#3568DD"/>
</linearGradient>
<linearGradient id="paint2_linear_272_3269" x1="17.6654" y1="93.3088" x2="17.6654" y2="107.87" gradientUnits="userSpaceOnUse">
<stop stop-color="#5080EC"/>
<stop offset="1" stop-color="#3568DD"/>
</linearGradient>
<clipPath id="clip0_272_3269">
<rect width="73.3" height="13.3252" fill="white" transform="translate(64.4497 174.102)"/>
</clipPath>
<clipPath id="clip1_272_3269">
<rect width="122.813" height="35.3348" fill="white" transform="translate(40.0242 12.8915)"/>
</clipPath>
</defs>
</svg>
