<svg width="193" height="196" viewBox="0 0 193 196" fill="none" xmlns="http://www.w3.org/2000/svg">
<g filter="url(#filter0_di_277_4907)">
<g clip-path="url(#clip0_277_4907)">
<rect x="2.87903" y="5.32538" width="187.139" height="187.139" rx="93.5697" fill="#EDF3FF"/>
<g filter="url(#filter1_di_277_4907)">
<path d="M46.9245 191.868C39.1857 191.868 32.9109 185.593 32.9109 177.855V170.26C32.9109 135.082 61.4287 106.565 96.6068 106.565C131.784 106.565 160.302 135.082 160.302 170.26V177.855C160.302 185.593 154.028 191.868 146.288 191.868H46.9245Z" fill="url(#paint0_radial_277_4907)"/>
</g>
<g filter="url(#filter2_di_277_4907)">
<path d="M45.8279 191.43C38.0883 191.43 31.8143 185.155 31.8143 177.417V170.198C31.8143 134.813 60.4999 106.127 95.8858 106.127C131.271 106.127 159.956 134.813 159.956 170.198V177.417C159.956 185.155 153.683 191.43 145.943 191.43H45.8279Z" fill="url(#paint1_radial_277_4907)"/>
</g>
<path d="M45.8216 189.09C39.5632 189.09 34.4905 184.04 34.4905 177.809V170.534C34.4905 136.442 62.248 108.804 96.4897 108.804C130.73 108.804 158.489 136.442 158.489 170.534V177.809C158.489 184.04 153.415 189.09 147.157 189.09H45.8216Z" stroke="url(#paint2_linear_277_4907)" stroke-width="5.63674"/>
<path d="M74.8622 137.465C74.368 136.977 73.533 137.183 73.3216 137.845L72.7194 139.731C72.6703 139.885 72.5829 140.024 72.4643 140.132L71.0619 141.427C70.5231 141.925 70.7435 142.82 71.4527 143.01L73.2957 143.504C73.4509 143.546 73.5936 143.628 73.7087 143.741L75.1182 145.132C75.6124 145.62 76.4483 145.413 76.6588 144.752L77.261 142.865C77.31 142.711 77.3974 142.573 77.5161 142.463L78.9184 141.17C79.4581 140.672 79.2369 139.776 78.5286 139.586L76.6847 139.092C76.5295 139.05 76.3867 138.968 76.2725 138.855L74.8622 137.465Z" fill="#FFC93E" stroke="#0C0C0D" stroke-width="1.12735" stroke-linejoin="round"/>
<path d="M137.532 106.909C137.146 106.332 136.287 106.366 135.947 106.971L134.978 108.699C134.9 108.839 134.786 108.957 134.647 109.041L133.014 110.027C132.386 110.406 132.422 111.328 133.078 111.657L134.785 112.51C134.929 112.583 135.052 112.691 135.141 112.825L136.243 114.47C136.63 115.047 137.489 115.013 137.829 114.408L138.798 112.681C138.877 112.54 138.991 112.422 139.129 112.339L140.762 111.352C141.39 110.973 141.354 110.051 140.698 109.723L138.992 108.869C138.847 108.797 138.724 108.689 138.635 108.554L137.532 106.909Z" fill="#FFC93E" stroke="#0C0C0D" stroke-width="1.12735" stroke-linejoin="round"/>
<path d="M32.3483 177.855C32.3483 185.905 38.8747 192.431 46.9248 192.431H146.289C154.34 192.431 160.866 185.905 160.866 177.855V170.26C160.866 134.771 132.096 106.002 96.6071 106.002C61.1177 106.002 32.3483 134.771 32.3483 170.26V177.855Z" stroke="#0C0C0D" stroke-width="1.12735"/>
<g filter="url(#filter3_di_277_4907)">
<path d="M96.0439 56.5858C113.062 56.5858 126.858 70.3818 126.858 87.4C126.858 104.418 113.062 118.214 96.0439 118.214C79.0257 118.214 65.2297 104.418 65.2297 87.4C65.2297 70.3818 79.0257 56.5858 96.0439 56.5858Z" fill="url(#paint3_radial_277_4907)"/>
</g>
<path d="M54.6809 105.169C54.358 104.418 53.2938 104.418 52.9708 105.169L52.1715 107.024C52.11 107.167 52.0136 107.292 51.8914 107.388L50.0047 108.869C49.5292 109.242 49.5292 109.961 50.0047 110.334L51.8914 111.814C52.0136 111.911 52.11 112.036 52.1715 112.178L52.9708 114.034C53.2938 114.784 54.358 114.784 54.6809 114.034L55.4802 112.178C55.5418 112.036 55.6381 111.911 55.7603 111.814L57.6471 110.334C58.1217 109.961 58.1217 109.242 57.6471 108.869L55.7603 107.388C55.6381 107.292 55.5418 107.167 55.4802 107.024L54.6809 105.169Z" fill="#FFC93E" stroke="#0C0C0D" stroke-width="1.12735" stroke-linejoin="round"/>
<path d="M118.954 51.4824C118.699 51.0667 118.094 51.0667 117.838 51.4824L117.314 52.3353C117.255 52.4325 117.172 52.5119 117.073 52.5663L116.249 53.0195C115.798 53.2693 115.798 53.9178 116.249 54.1667L117.073 54.6207C117.172 54.6752 117.255 54.7546 117.314 54.8509L117.838 55.7037C118.094 56.1203 118.699 56.1203 118.954 55.7037L119.478 54.8509C119.537 54.7546 119.62 54.6752 119.719 54.6207L120.543 54.1667C120.994 53.9178 120.994 53.2693 120.543 53.0195L119.719 52.5663C119.62 52.5119 119.537 52.4325 119.478 52.3353L118.954 51.4824Z" fill="#FFC93E" stroke="#0C0C0D" stroke-width="1.12735" stroke-linejoin="round"/>
<path d="M96.0438 59.0269C111.71 59.0269 124.411 71.7272 124.411 87.3938C124.411 103.06 111.71 115.761 96.0438 115.761C80.3772 115.761 67.6769 103.06 67.6769 87.3938C67.6769 71.7272 80.3772 59.0269 96.0438 59.0269Z" stroke="url(#paint4_radial_277_4907)" stroke-width="5.63674"/>
<path d="M110.621 76.5007C111.611 76.6194 112.552 76.9958 113.35 77.5935C114.148 78.1903 114.774 78.9869 115.167 79.9031" stroke="#0C0C0D" stroke-width="1.41962" stroke-linecap="round" stroke-linejoin="round"/>
<path d="M82.2174 76.5007C81.2281 76.6194 80.287 76.9958 79.4885 77.5935C78.691 78.1903 78.0639 78.9869 77.6714 79.9031" stroke="#0C0C0D" stroke-width="1.41962" stroke-linecap="round" stroke-linejoin="round"/>
<path d="M85.8971 91.5754C89.0333 91.5754 91.5756 89.033 91.5756 85.8969C91.5756 82.7607 89.0333 80.2184 85.8971 80.2184C82.761 80.2184 80.2186 82.7607 80.2186 85.8969C80.2186 89.033 82.761 91.5754 85.8971 91.5754Z" fill="white" stroke="#0C0C0D" stroke-width="1.41962"/>
<path d="M106.566 91.5754C109.702 91.5754 112.244 89.033 112.244 85.8969C112.244 82.7607 109.702 80.2184 106.566 80.2184C103.43 80.2184 100.887 82.7607 100.887 85.8969C100.887 89.033 103.43 91.5754 106.566 91.5754Z" fill="white" stroke="#0C0C0D" stroke-width="1.41962"/>
<mask id="mask0_277_4907" style="mask-type:alpha" maskUnits="userSpaceOnUse" x="79" y="79" width="14" height="14">
<path d="M85.9536 91.5756C82.8174 91.5756 80.2751 89.0333 80.2751 85.8971C80.2751 82.761 82.8174 80.2186 85.9536 80.2186C89.0897 80.2186 91.6321 82.761 91.6321 85.8971C91.6321 89.0333 89.0897 91.5756 85.9536 91.5756Z" fill="white" stroke="#0C0C0D" stroke-width="1.41962"/>
</mask>
<g mask="url(#mask0_277_4907)">
<path d="M81.7636 89.3205C79.8727 89.3205 78.3398 87.7877 78.3398 85.8968C78.3398 84.0058 79.8727 82.473 81.7636 82.473C83.6545 82.473 85.1874 84.0058 85.1874 85.8968C85.1874 87.7877 83.6545 89.3205 81.7636 89.3205Z" fill="#0C0C0D" stroke="#0C0C0D" stroke-width="1.41962"/>
</g>
<mask id="mask1_277_4907" style="mask-type:alpha" maskUnits="userSpaceOnUse" x="100" y="79" width="14" height="14">
<path d="M106.622 91.5756C103.486 91.5756 100.943 89.0333 100.943 85.8971C100.943 82.761 103.486 80.2186 106.622 80.2186C109.758 80.2186 112.3 82.761 112.3 85.8971C112.3 89.0333 109.758 91.5756 106.622 91.5756Z" fill="white" stroke="#0C0C0D" stroke-width="1.41962"/>
</mask>
<g mask="url(#mask1_277_4907)">
<path d="M102.432 89.3205C100.541 89.3205 99.0084 87.7877 99.0084 85.8968C99.0084 84.0058 100.541 82.473 102.432 82.473C104.323 82.473 105.856 84.0058 105.856 85.8968C105.856 87.7877 104.323 89.3205 102.432 89.3205Z" fill="#0C0C0D" stroke="#0C0C0D" stroke-width="1.41962"/>
</g>
<path d="M89.2183 100.515C89.9444 101.772 90.9881 102.816 92.2451 103.542C93.5029 104.268 94.9284 104.65 96.3807 104.65C97.8321 104.65 99.2586 104.268 100.516 103.542C101.772 102.816 102.816 101.772 103.542 100.515" stroke="#0C0C0D" stroke-width="1.41962" stroke-linecap="round" stroke-linejoin="round"/>
<path d="M96.044 56.1711C113.288 56.1711 127.267 70.15 127.267 87.3938C127.267 104.638 113.288 118.616 96.044 118.616C78.8003 118.616 64.8214 104.638 64.8214 87.3938C64.8214 70.15 78.8003 56.1711 96.044 56.1711Z" stroke="#0C0C0D" stroke-width="1.12735"/>
<g style="mix-blend-mode:multiply" filter="url(#filter4_f_277_4907)">
<mask id="path-22-outside-1_277_4907" maskUnits="userSpaceOnUse" x="8.77051" y="11.2167" width="175" height="175" fill="black">
<rect fill="white" x="8.77051" y="11.2167" width="175" height="175"/>
<path d="M181.869 98.7662C181.869 146.014 143.568 184.316 96.32 184.316C49.0723 184.316 10.7705 146.014 10.7705 98.7662C10.7705 51.5185 49.0723 13.2167 96.32 13.2167C143.568 13.2167 181.869 51.5185 181.869 98.7662ZM23.9024 98.7662C23.9024 138.761 56.3248 171.184 96.32 171.184C136.315 171.184 168.738 138.761 168.738 98.7662C168.738 58.7711 136.315 26.3486 96.32 26.3486C56.3248 26.3486 23.9024 58.7711 23.9024 98.7662Z"/>
</mask>
<path d="M181.869 98.7662C181.869 146.014 143.568 184.316 96.32 184.316C49.0723 184.316 10.7705 146.014 10.7705 98.7662C10.7705 51.5185 49.0723 13.2167 96.32 13.2167C143.568 13.2167 181.869 51.5185 181.869 98.7662ZM23.9024 98.7662C23.9024 138.761 56.3248 171.184 96.32 171.184C136.315 171.184 168.738 138.761 168.738 98.7662C168.738 58.7711 136.315 26.3486 96.32 26.3486C56.3248 26.3486 23.9024 58.7711 23.9024 98.7662Z" fill="white"/>
<path d="M181.869 98.7662C181.869 146.014 143.568 184.316 96.32 184.316C49.0723 184.316 10.7705 146.014 10.7705 98.7662C10.7705 51.5185 49.0723 13.2167 96.32 13.2167C143.568 13.2167 181.869 51.5185 181.869 98.7662ZM23.9024 98.7662C23.9024 138.761 56.3248 171.184 96.32 171.184C136.315 171.184 168.738 138.761 168.738 98.7662C168.738 58.7711 136.315 26.3486 96.32 26.3486C56.3248 26.3486 23.9024 58.7711 23.9024 98.7662Z" stroke="#5A86EC" stroke-width="2.25469" mask="url(#path-22-outside-1_277_4907)"/>
</g>
</g>
<path d="M190.018 98.8951C190.018 150.572 148.126 192.465 96.4487 192.465C44.7716 192.465 2.87903 150.572 2.87903 98.8951C2.87903 47.218 44.7716 5.32538 96.4487 5.32538C148.126 5.32538 190.018 47.218 190.018 98.8951ZM23.4157 98.8951C23.4157 139.23 56.1137 171.928 96.4487 171.928C136.784 171.928 169.482 139.23 169.482 98.8951C169.482 58.5601 136.784 25.8621 96.4487 25.8621C56.1137 25.8621 23.4157 58.5601 23.4157 98.8951Z" fill="white"/>
<path fill-rule="evenodd" clip-rule="evenodd" d="M174.417 105.159C174.322 105.217 174.198 105.19 174.135 105.098L173.896 104.746C173.833 104.654 173.854 104.53 173.942 104.462C174.731 103.847 175.38 103.154 175.89 102.412C177.79 99.6476 177.79 96.1695 175.89 93.4057C175.38 92.6634 174.731 91.9703 173.942 91.3555C173.854 91.2871 173.833 91.1627 173.896 91.0709L174.135 90.7191C174.198 90.6273 174.322 90.6005 174.417 90.6582L185.063 97.1186C185.657 97.4792 185.657 98.338 185.063 98.6985L174.417 105.159Z" fill="url(#paint5_linear_277_4907)"/>
<path fill-rule="evenodd" clip-rule="evenodd" d="M7.57016 105.159C7.47498 105.217 7.35101 105.19 7.28843 105.098L7.04876 104.746C6.98619 104.654 7.0072 104.53 7.095 104.462C7.88438 103.847 8.53325 103.154 9.04354 102.412C10.9436 99.6476 10.9436 96.1695 9.04354 93.4057C8.53325 92.6634 7.88438 91.9703 7.095 91.3555C7.0072 91.2871 6.98619 91.1627 7.04876 91.0709L7.28843 90.7191C7.35101 90.6273 7.47498 90.6005 7.57016 90.6582L18.2163 97.1186C18.8105 97.4792 18.8105 98.338 18.2163 98.6985L7.57016 105.159Z" fill="url(#paint6_linear_277_4907)"/>
<path d="M162.929 31.2877C163.488 30.7286 163.488 29.8212 162.921 29.2705C154.275 20.8798 144.114 14.1987 132.975 9.58468C121.395 4.78794 108.983 2.31909 96.4486 2.31909C83.9141 2.31909 71.5023 4.78795 59.922 9.5847C48.7827 14.1987 38.6226 20.8798 29.9762 29.2706C29.4088 29.8212 29.4095 30.7286 29.9686 31.2878C30.5277 31.8469 31.4335 31.846 32.0012 31.2956C40.3815 23.1705 50.2259 16.7003 61.0178 12.2302C72.2507 7.57734 84.2901 5.18255 96.4486 5.18255C108.607 5.18255 120.646 7.57733 131.879 12.2302C142.671 16.7003 152.516 23.1705 160.896 31.2955C161.464 31.846 162.369 31.8469 162.929 31.2877Z" fill="#3568DD"/>
<path d="M51.373 169.833C51.1864 170.129 50.7954 170.217 50.5013 170.029C41.7156 164.392 34.0469 157.18 27.8815 148.757C27.6751 148.475 27.7395 148.079 28.0231 147.875C28.3066 147.67 28.7019 147.735 28.9084 148.017C34.9788 156.308 42.5282 163.408 51.1768 168.958C51.4709 169.147 51.5595 169.538 51.373 169.833Z" fill="#0C0C0D"/>
<path d="M141.148 169.833C141.335 170.129 141.726 170.217 142.02 170.029C150.806 164.392 158.474 157.18 164.64 148.757C164.846 148.475 164.782 148.079 164.498 147.875C164.215 147.67 163.819 147.735 163.613 148.017C157.543 156.308 149.993 163.408 141.345 168.958C141.05 169.147 140.962 169.538 141.148 169.833Z" fill="#0C0C0D"/>
<path d="M45.3046 32.3374L49.491 29.1247L53.2354 34.0041C53.0987 34.2478 52.9378 34.436 52.7456 34.5835C52.472 34.7935 52.2078 34.9315 51.937 35.0005L50.9763 33.7486L50.9338 33.7535C50.9814 33.9482 50.9806 34.2727 50.943 34.7179C50.85 35.7421 50.2628 36.6646 49.1856 37.4912C47.8755 38.4966 46.389 38.814 45.0259 38.4723C43.6627 38.1306 42.3504 37.2041 41.2601 35.7834C40.0314 34.1822 39.507 32.5585 39.6867 31.1532C39.8709 29.7536 40.6483 28.5002 41.9758 27.4814C43.0588 26.6503 44.1391 26.2376 45.2153 26.2536C46.2916 26.2696 47.2241 26.7012 48.0129 27.5483C47.8036 27.8662 47.589 28.1049 47.3619 28.2792C47.1465 28.4445 46.8487 28.599 46.4758 28.7279C45.516 27.8269 44.3521 27.8412 43.0886 28.8108C42.1919 29.499 41.5899 30.4143 41.6753 31.6347C41.7236 32.421 42.1413 33.4234 42.9456 34.4715C44.7329 36.8006 46.5326 37.3253 48.5355 35.7882C49.1702 35.3012 49.5652 34.6465 49.7044 33.8273C49.8256 33.1052 49.6515 32.3599 49.1749 31.6062L49.09 31.4956L46.301 33.6359C46.0536 33.5667 45.83 33.3959 45.62 33.1223C45.4145 32.8544 45.3074 32.5943 45.3046 32.3374Z" fill="#3568DD"/>
<path d="M62.0192 29.4566C60.5002 30.2097 59.0523 30.313 57.6888 29.7602C56.3186 29.2107 55.2131 28.0876 54.3753 26.3976C53.531 24.6945 53.3065 23.1346 53.6954 21.7212C54.0843 20.3079 55.0464 19.2247 56.572 18.4684C58.0779 17.7219 59.5093 17.6185 60.8532 18.1647C62.2004 18.7174 63.2928 19.847 64.1404 21.5567C64.9814 23.2533 65.2124 24.8099 64.8367 26.2168C64.4643 27.6302 63.5251 28.7101 62.0192 29.4566ZM61.2303 27.8653C62.151 27.4089 62.7015 26.7018 62.8821 25.744C63.0626 24.7862 62.8529 23.7023 62.2531 22.4923C61.65 21.2758 60.9111 20.4461 60.0493 20.0132C59.1809 19.5835 58.2848 19.5936 57.3576 20.0532C56.4173 20.5194 55.8536 21.233 55.6632 22.1875C55.4663 23.1453 55.6726 24.239 56.2757 25.4555C56.8755 26.6655 57.6178 27.4853 58.5025 27.915C59.3873 28.3448 60.2966 28.3282 61.2303 27.8653Z" fill="#3568DD"/>
<path d="M76.194 11.5216C76.5756 11.4145 76.9236 11.3778 77.2431 11.4025L76.3109 23.5103C76.0164 23.7377 75.6334 23.9214 75.1671 24.0523C74.6795 24.1891 74.2639 24.2295 73.9224 24.1805L66.82 14.3274C67.1223 14.1282 67.4739 13.9686 67.8767 13.8556C68.1806 13.7703 68.571 13.7217 69.0459 13.7028L74.64 21.8752L75.215 11.9717C75.5386 11.7665 75.8619 11.6148 76.194 11.5216Z" fill="#3568DD"/>
<path d="M86.3018 19.8712L92.2815 19.2575C92.5003 19.449 92.634 19.7452 92.6745 20.1394C92.7142 20.5264 92.6427 20.8362 92.4658 21.0536L84.3761 21.8838L83.1727 10.1582L91.0872 9.34595C91.3221 9.55055 91.4558 9.84671 91.4963 10.241C91.5375 10.6425 91.4645 10.9378 91.2715 11.142L85.4671 11.7377L85.7878 14.8626L91.2637 14.3006C91.4825 14.4921 91.6147 14.7737 91.6522 15.1387C91.6904 15.5111 91.6174 15.8063 91.439 16.0091L85.9631 16.5711L86.3018 19.8712Z" fill="#3568DD"/>
<path d="M107.301 20.6866C107.332 20.8583 107.343 21.0063 107.334 21.1234C107.323 21.2624 107.284 21.3919 107.223 21.5124C106.81 21.6205 106.322 21.6492 105.744 21.6048C104.902 21.5401 104.538 21.2029 104.529 20.5472L104.501 18.3293C104.49 17.8941 104.453 17.5159 104.199 17.1871C103.941 16.895 103.503 16.6552 102.706 16.5939L99.4054 16.3403L99.0589 20.8481C98.7066 20.9315 98.3508 20.963 97.9995 20.936C97.641 20.9084 97.2942 20.8229 96.9587 20.6867L97.849 9.10245L103.396 9.52877C104.216 9.59176 104.869 9.71555 105.347 9.90691C105.826 10.0983 106.217 10.3713 106.529 10.7191C107.036 11.2955 107.256 12.0779 107.181 13.0512C107.135 13.6586 106.938 14.203 106.599 14.6848C106.253 15.1735 105.829 15.509 105.336 15.6993L105.327 15.8164C105.669 15.9678 105.891 16.1395 106.114 16.4952C106.337 16.8509 106.462 17.4347 106.494 18.2543L106.56 19.9819C106.578 20.4249 106.751 20.659 107.08 20.6843C107.168 20.6911 107.242 20.6894 107.301 20.6866ZM104.506 14.5313C104.838 14.2329 105.027 13.7837 105.074 13.1763C105.113 12.6714 104.998 12.2503 104.735 11.9284C104.413 11.5282 103.805 11.2974 102.905 11.2282L99.8165 10.9909L99.5297 14.723L102.573 14.9716C103.458 15.0397 104.103 14.8905 104.506 14.5313Z" fill="#3568DD"/>
<path d="M112.739 22.6585C112.428 22.5728 112.146 22.4344 111.889 22.2343L114.914 11.2373C115.061 11.2016 115.209 11.189 115.352 11.1977C115.494 11.2064 115.71 11.2507 115.986 11.3266C116.432 11.4492 116.811 11.6219 117.122 11.8447L120.101 21.7987L120.115 21.8026L122.455 13.2965C122.814 13.2658 123.14 13.2948 123.431 13.3746C123.784 13.472 124.066 13.6104 124.281 13.7988L121.255 24.7958C120.973 24.855 120.622 24.8272 120.191 24.7085C119.773 24.5936 119.394 24.4209 119.054 24.1903L116.08 14.2222L116.066 14.2183L113.722 22.7385C113.413 22.7829 113.086 22.7539 112.739 22.6585Z" fill="#3568DD"/>
<path d="M130.208 29.0938C128.689 28.3408 127.73 27.2511 127.344 25.8311C126.952 24.4079 127.177 22.8481 128.014 21.1581C128.859 19.4549 129.964 18.3319 131.325 17.7856C132.685 17.2394 134.13 17.3493 135.655 18.1056C137.161 18.8521 138.11 19.9288 138.489 21.329C138.865 22.7359 138.627 24.2892 137.78 25.999C136.939 27.6955 135.839 28.8218 134.492 29.3746C133.142 29.9339 131.714 29.8403 130.208 29.0938ZM130.997 27.5025C131.917 27.9589 132.814 27.9689 133.685 27.5327C134.557 27.0964 135.292 26.2733 135.892 25.0634C136.495 23.8468 136.708 22.7564 136.531 21.8084C136.347 20.8571 135.797 20.15 134.87 19.6904C133.929 19.2242 133.02 19.2077 132.145 19.6341C131.263 20.0572 130.518 20.8836 129.915 22.1002C129.315 23.3101 129.112 24.3973 129.306 25.3616C129.499 26.326 130.063 27.0396 130.997 27.5025Z" fill="#3568DD"/>
<path d="M147.801 39.1581C147.734 39.3188 147.662 39.4487 147.59 39.5418C147.505 39.6525 147.402 39.7394 147.285 39.8071C146.88 39.672 146.455 39.4295 145.995 39.0765C145.326 38.5626 145.205 38.0813 145.556 37.5273L146.744 35.6541C146.972 35.2837 147.148 34.9466 147.114 34.5322C147.058 34.147 146.822 33.7069 146.188 33.2199L143.562 31.2047L140.809 34.7914C140.469 34.6687 140.153 34.5008 139.874 34.2864C139.589 34.0674 139.345 33.8064 139.138 33.509L146.211 24.2918L150.625 27.6788C151.277 28.1792 151.756 28.6396 152.053 29.0613C152.349 29.4829 152.528 29.9253 152.599 30.387C152.709 31.1472 152.466 31.9225 151.872 32.6969C151.501 33.1802 151.039 33.5289 150.492 33.7474C149.935 33.9674 149.397 34.0172 148.88 33.9073L148.808 34.0004C149.012 34.3139 149.104 34.5791 149.097 34.9989C149.089 35.4187 148.875 35.9756 148.454 36.68L147.566 38.1631C147.339 38.5438 147.356 38.8346 147.618 39.0357C147.688 39.0893 147.75 39.1282 147.801 39.1581ZM148.822 32.4753C149.263 32.4068 149.667 32.1338 150.038 31.6505C150.346 31.2488 150.48 30.8334 150.436 30.4204C150.385 29.9089 150.001 29.3836 149.285 28.834L146.828 26.9484L144.549 29.9179L146.962 31.7883C147.667 32.329 148.288 32.5561 148.822 32.4753Z" fill="#3568DD"/>
<g clip-path="url(#clip1_277_4907)">
<path d="M64.1055 173.691C64.192 173.424 64.1619 173.176 64.0191 172.939C63.8763 172.702 63.6471 172.518 63.3352 172.376C63.1097 172.278 62.8993 172.225 62.7039 172.221C62.5085 172.218 62.3356 172.255 62.1928 172.334C62.0462 172.417 61.9373 172.537 61.8659 172.691C61.8095 172.819 61.787 172.947 61.8057 173.071C61.8245 173.195 61.8696 173.308 61.941 173.416C62.0162 173.525 62.0989 173.627 62.1966 173.721C62.2943 173.815 62.3882 173.901 62.4859 173.976L62.9594 174.36C63.1135 174.48 63.2675 174.619 63.4179 174.777C63.5682 174.935 63.6959 175.108 63.7974 175.295C63.8989 175.483 63.959 175.69 63.9778 175.912C63.9928 176.133 63.9477 176.366 63.835 176.611C63.6959 176.923 63.4893 177.159 63.2224 177.328C62.9556 177.497 62.6362 177.58 62.2717 177.584C61.9072 177.588 61.5089 177.49 61.0805 177.295C60.6709 177.11 60.344 176.881 60.1035 176.618C59.863 176.351 59.7126 176.062 59.6525 175.743C59.5924 175.427 59.6262 175.1 59.7577 174.762L60.5882 175.138C60.5131 175.344 60.5055 175.536 60.5582 175.72C60.6108 175.904 60.7122 176.066 60.8625 176.209C61.0128 176.351 61.1932 176.472 61.4037 176.569C61.6366 176.675 61.8621 176.731 62.0763 176.742C62.2905 176.753 62.4822 176.712 62.6475 176.629C62.8128 176.543 62.9369 176.411 63.0158 176.235C63.0909 176.073 63.1022 175.919 63.0571 175.773C63.012 175.626 62.9256 175.487 62.8016 175.348C62.6776 175.209 62.5272 175.07 62.3544 174.931L61.7907 174.457C61.4074 174.138 61.1406 173.807 60.9903 173.458C60.84 173.108 60.8513 172.744 61.0241 172.364C61.1669 172.049 61.3774 171.812 61.6554 171.654C61.9298 171.496 62.2454 171.421 62.5986 171.421C62.9519 171.421 63.3089 171.508 63.6771 171.673C64.0492 171.842 64.346 172.056 64.5715 172.315C64.797 172.575 64.9398 172.857 64.9999 173.157C65.06 173.458 65.03 173.758 64.9022 174.055L64.1055 173.691Z" fill="#0C0C0D"/>
<path d="M66.4466 179.5C66.052 179.354 65.7401 179.132 65.5109 178.843C65.2817 178.55 65.1501 178.211 65.105 177.824C65.0637 177.437 65.1238 177.024 65.2854 176.588C65.447 176.148 65.6725 175.795 65.9581 175.528C66.2437 175.262 66.5668 175.093 66.9313 175.021C67.2958 174.95 67.6754 174.987 68.07 175.134C68.4645 175.28 68.7764 175.502 69.0057 175.791C69.2349 176.085 69.3664 176.423 69.4077 176.814C69.4491 177.204 69.389 177.618 69.2236 178.054C69.062 178.49 68.8366 178.843 68.551 179.106C68.2654 179.373 67.9422 179.542 67.5777 179.613C67.2132 179.685 66.8449 179.647 66.4466 179.5ZM66.7059 178.813C66.9614 178.907 67.2019 178.918 67.4199 178.847C67.6378 178.775 67.8332 178.64 67.9986 178.444C68.1639 178.249 68.2992 178.016 68.4006 177.746C68.5021 177.475 68.551 177.212 68.5547 176.956C68.5585 176.701 68.4983 176.472 68.3819 176.269C68.2654 176.07 68.0775 175.919 67.8219 175.825C67.5627 175.728 67.3222 175.716 67.1042 175.791C66.8825 175.867 66.6908 176.002 66.5255 176.197C66.3601 176.393 66.2249 176.626 66.1272 176.896C66.0257 177.167 65.9731 177.43 65.9731 177.689C65.9693 177.945 66.0295 178.174 66.1497 178.373C66.2587 178.568 66.4466 178.715 66.7059 178.813Z" fill="#0C0C0D"/>
<path d="M73.2669 179.685L74.0222 177.156L74.8678 177.407L73.5788 181.729L72.7521 181.481L72.9738 180.733L72.9287 180.718C72.7596 180.921 72.5454 181.064 72.2786 181.15C72.0156 181.237 71.7187 181.233 71.3955 181.135C71.1175 181.052 70.892 180.917 70.7154 180.733C70.5388 180.549 70.426 180.316 70.3772 180.038C70.3283 179.76 70.3584 179.444 70.4636 179.087L71.2828 176.34L72.1245 176.592L71.3354 179.237C71.249 179.53 71.2603 179.79 71.3692 180.015C71.4782 180.241 71.6661 180.387 71.9254 180.466C72.0832 180.515 72.2523 180.523 72.4327 180.489C72.6131 180.459 72.7784 180.376 72.9287 180.248C73.079 180.12 73.1955 179.929 73.2669 179.685Z" fill="#0C0C0D"/>
<path d="M77.5846 176.532L76.1454 182.371L75.2924 182.161L76.7316 176.321L77.5846 176.532Z" fill="#0C0C0D"/>
<path d="M77.9379 182.8L79.084 176.896L79.9445 177.065L79.5199 179.26L79.5725 179.271C79.6402 179.189 79.7341 179.095 79.8506 178.993C79.9671 178.892 80.1212 178.809 80.3053 178.753C80.4894 178.692 80.7187 178.692 80.993 178.745C81.35 178.813 81.6506 178.967 81.8986 179.2C82.1466 179.433 82.3157 179.737 82.4097 180.109C82.5036 180.481 82.5036 180.906 82.4134 181.383C82.3195 181.86 82.1617 182.255 81.9362 182.567C81.7107 182.879 81.4402 183.097 81.1283 183.224C80.8126 183.352 80.4782 183.382 80.1212 183.315C79.8506 183.262 79.6402 183.176 79.4898 183.052C79.3395 182.928 79.223 182.796 79.1516 182.657C79.0802 182.518 79.0276 182.394 78.9938 182.292L78.9224 182.277L78.7871 182.965L77.9379 182.8ZM79.2118 180.752C79.1516 181.064 79.1441 181.345 79.1892 181.597C79.2343 181.849 79.3283 182.059 79.4748 182.221C79.6214 182.386 79.8168 182.492 80.0648 182.54C80.3241 182.589 80.5496 182.563 80.7487 182.458C80.9479 182.353 81.117 182.191 81.2523 181.973C81.3875 181.755 81.4852 181.496 81.5416 181.199C81.598 180.906 81.6055 180.635 81.5642 180.387C81.5228 180.139 81.4251 179.929 81.2786 179.76C81.132 179.591 80.9253 179.482 80.666 179.433C80.4143 179.384 80.1926 179.406 79.9972 179.504C79.8017 179.598 79.6364 179.756 79.5011 179.966C79.3658 180.184 79.2719 180.444 79.2118 180.752Z" fill="#0C0C0D"/>
<path d="M85.4761 184.156C85.0552 184.104 84.702 183.961 84.4126 183.732C84.1233 183.503 83.9128 183.202 83.7851 182.834C83.6536 182.465 83.6197 182.052 83.6761 181.59C83.7325 181.124 83.8715 180.729 84.0857 180.402C84.3037 180.075 84.578 179.835 84.9162 179.685C85.2544 179.534 85.6302 179.482 86.051 179.534C86.4719 179.587 86.8252 179.73 87.1145 179.959C87.4039 180.188 87.6143 180.489 87.7421 180.861C87.8698 181.233 87.9074 181.646 87.851 182.112C87.7947 182.574 87.6556 182.969 87.4414 183.292C87.2272 183.615 86.9492 183.856 86.611 184.01C86.2728 184.164 85.8932 184.209 85.4761 184.156ZM85.57 183.427C85.8406 183.461 86.0773 183.416 86.2728 183.296C86.4682 183.176 86.626 182.999 86.7425 182.77C86.859 182.541 86.9341 182.285 86.9717 181.996C87.0055 181.71 86.998 181.443 86.9416 181.191C86.8853 180.94 86.7763 180.733 86.6147 180.564C86.4531 180.395 86.2389 180.297 85.9646 180.26C85.6903 180.226 85.4535 180.271 85.2581 180.395C85.0627 180.519 84.9049 180.695 84.7884 180.925C84.6719 181.154 84.5968 181.409 84.5592 181.695C84.5254 181.984 84.5329 182.251 84.5892 182.499C84.6456 182.747 84.7546 182.958 84.9162 183.123C85.0778 183.292 85.2957 183.394 85.57 183.427Z" fill="#0C0C0D"/>
<path d="M92.1576 182.766L92.3117 180.132L93.191 180.184L92.928 184.686L92.0675 184.637L92.1126 183.856L92.0637 183.852C91.9472 184.085 91.7706 184.277 91.5301 184.423C91.2933 184.57 91.004 184.634 90.6695 184.611C90.3802 184.596 90.1284 184.517 89.9142 184.374C89.7 184.235 89.5384 184.032 89.4257 183.773C89.313 183.514 89.2679 183.198 89.2904 182.826L89.4558 179.963L90.3313 180.015L90.1698 182.773C90.151 183.082 90.2224 183.33 90.384 183.521C90.5418 183.713 90.7597 183.818 91.0303 183.833C91.1956 183.844 91.361 183.811 91.5301 183.739C91.6992 183.668 91.842 183.551 91.9585 183.39C92.0787 183.228 92.1426 183.022 92.1576 182.766Z" fill="#0C0C0D"/>
<path d="M95.6184 182.056L95.6635 184.731L94.788 184.746L94.7166 180.237L95.5583 180.222L95.5696 180.955H95.6259C95.7274 180.714 95.8852 180.519 96.1069 180.372C96.3249 180.226 96.6067 180.147 96.9449 180.143C97.2531 180.139 97.5236 180.199 97.7566 180.323C97.9896 180.447 98.1737 180.635 98.3015 180.887C98.433 181.139 98.5007 181.451 98.5082 181.819L98.5533 184.686L97.6777 184.701L97.6326 181.939C97.6289 181.612 97.5387 181.357 97.3658 181.176C97.193 180.996 96.9562 180.906 96.6593 180.91C96.4564 180.913 96.276 180.958 96.1182 181.052C95.9604 181.143 95.8401 181.274 95.75 181.443C95.656 181.612 95.6147 181.819 95.6184 182.056Z" fill="#0C0C0D"/>
<path d="M102.022 184.603C101.657 184.63 101.327 184.562 101.03 184.393C100.733 184.228 100.489 183.976 100.304 183.641C100.12 183.307 100.008 182.897 99.97 182.409C99.9362 181.924 99.9851 181.5 100.124 181.143C100.263 180.786 100.466 180.504 100.737 180.301C101.007 180.098 101.323 179.981 101.687 179.955C101.965 179.936 102.195 179.966 102.371 180.045C102.548 180.124 102.691 180.222 102.792 180.338C102.897 180.455 102.976 180.556 103.036 180.646L103.089 180.643L102.927 178.414L103.803 178.35L104.243 184.348L103.386 184.412L103.333 183.713L103.262 183.717C103.217 183.818 103.149 183.931 103.059 184.062C102.969 184.194 102.841 184.31 102.676 184.416C102.514 184.521 102.296 184.581 102.022 184.603ZM102.161 183.841C102.413 183.822 102.619 183.739 102.785 183.593C102.95 183.446 103.07 183.251 103.142 183.006C103.213 182.762 103.239 182.48 103.217 182.165C103.194 181.853 103.13 181.582 103.021 181.353C102.912 181.124 102.77 180.951 102.585 180.834C102.401 180.718 102.183 180.665 101.928 180.684C101.665 180.703 101.451 180.789 101.285 180.936C101.12 181.086 101 181.282 100.928 181.526C100.857 181.77 100.831 182.037 100.853 182.334C100.876 182.634 100.94 182.901 101.049 183.134C101.157 183.367 101.304 183.548 101.488 183.675C101.676 183.807 101.902 183.859 102.161 183.841Z" fill="#0C0C0D"/>
<path d="M107.708 178.674L107.572 177.903L112.153 177.092L112.288 177.862L110.439 178.189L111.349 183.341L110.458 183.499L109.549 178.347L107.708 178.674Z" fill="#0C0C0D"/>
<path d="M115.982 182.458C115.572 182.556 115.189 182.548 114.84 182.435C114.486 182.323 114.186 182.116 113.934 181.815C113.682 181.515 113.502 181.143 113.393 180.688C113.284 180.233 113.273 179.816 113.359 179.433C113.446 179.053 113.622 178.73 113.881 178.467C114.144 178.204 114.479 178.024 114.889 177.926C115.298 177.828 115.681 177.836 116.031 177.948C116.384 178.061 116.685 178.272 116.937 178.568C117.188 178.865 117.369 179.245 117.478 179.7C117.587 180.154 117.598 180.568 117.508 180.947C117.421 181.327 117.245 181.646 116.985 181.909C116.73 182.18 116.392 182.36 115.982 182.458ZM115.813 181.74C116.08 181.676 116.283 181.552 116.425 181.368C116.568 181.184 116.651 180.966 116.681 180.71C116.711 180.455 116.689 180.188 116.621 179.906C116.553 179.628 116.448 179.38 116.309 179.166C116.17 178.952 115.993 178.794 115.783 178.692C115.572 178.591 115.336 178.572 115.069 178.636C114.802 178.7 114.595 178.824 114.453 179.012C114.31 179.2 114.227 179.418 114.197 179.673C114.171 179.929 114.19 180.196 114.257 180.477C114.325 180.759 114.43 181.007 114.569 181.222C114.712 181.436 114.885 181.59 115.095 181.691C115.306 181.793 115.542 181.804 115.813 181.74Z" fill="#0C0C0D"/>
<path d="M119.567 181.432L117.786 175.69L118.624 175.431L120.405 181.173L119.567 181.432ZM119.883 179.733L119.56 178.711L119.706 178.666L120.856 176.31L121.86 175.998L120.544 178.681L120.413 178.723L119.883 179.733ZM122.284 180.59L120.108 179.023L120.503 178.257L123.314 180.271L122.284 180.59Z" fill="#0C0C0D"/>
<path d="M126.226 179.29C125.809 179.448 125.418 179.493 125.053 179.429C124.689 179.365 124.362 179.2 124.076 178.937C123.791 178.674 123.565 178.324 123.4 177.885C123.235 177.452 123.175 177.043 123.208 176.652C123.242 176.261 123.374 175.919 123.595 175.622C123.817 175.325 124.125 175.104 124.516 174.957C124.753 174.867 125.001 174.818 125.253 174.814C125.504 174.807 125.752 174.856 125.993 174.957C126.233 175.059 126.459 175.224 126.662 175.453C126.865 175.682 127.041 175.987 127.184 176.37L127.293 176.66L123.941 177.93L123.708 177.313L126.256 176.348C126.173 176.13 126.057 175.957 125.907 175.822C125.756 175.686 125.583 175.604 125.388 175.566C125.193 175.528 124.99 175.551 124.775 175.63C124.546 175.716 124.366 175.852 124.238 176.028C124.11 176.205 124.035 176.404 124.009 176.618C123.986 176.832 124.013 177.047 124.091 177.257L124.276 177.738C124.381 178.02 124.524 178.242 124.697 178.399C124.869 178.557 125.069 178.655 125.286 178.692C125.504 178.726 125.734 178.7 125.974 178.61C126.128 178.55 126.264 178.475 126.372 178.381C126.485 178.287 126.568 178.178 126.628 178.054C126.688 177.93 126.718 177.791 126.714 177.64L127.545 177.486C127.567 177.738 127.534 177.982 127.44 178.211C127.346 178.444 127.195 178.651 126.989 178.839C126.79 179.023 126.53 179.173 126.226 179.29Z" fill="#0C0C0D"/>
<path d="M129.183 175.089L130.296 177.524L129.495 177.888L127.624 173.785L128.39 173.435L128.695 174.104L128.744 174.082C128.74 173.822 128.808 173.578 128.95 173.356C129.093 173.131 129.319 172.951 129.627 172.808C129.905 172.68 130.179 172.627 130.442 172.646C130.705 172.665 130.946 172.766 131.168 172.943C131.389 173.12 131.577 173.379 131.731 173.717L132.922 176.325L132.122 176.69L130.976 174.176C130.841 173.879 130.656 173.68 130.423 173.582C130.19 173.484 129.939 173.499 129.668 173.619C129.484 173.702 129.337 173.819 129.228 173.965C129.12 174.112 129.063 174.281 129.048 174.472C129.033 174.664 129.086 174.871 129.183 175.089Z" fill="#0C0C0D"/>
</g>
</g>
<defs>
<filter id="filter0_di_277_4907" x="0.585158" y="0.789845" width="191.727" height="194.733" filterUnits="userSpaceOnUse" color-interpolation-filters="sRGB">
<feFlood flood-opacity="0" result="BackgroundImageFix"/>
<feColorMatrix in="SourceAlpha" type="matrix" values="0 0 0 0 0 0 0 0 0 0 0 0 0 0 0 0 0 0 127 0" result="hardAlpha"/>
<feOffset dy="0.764623"/>
<feGaussianBlur stdDeviation="1.14693"/>
<feComposite in2="hardAlpha" operator="out"/>
<feColorMatrix type="matrix" values="0 0 0 0 0.184314 0 0 0 0 0.168627 0 0 0 0 0.262745 0 0 0 0.1 0"/>
<feBlend mode="normal" in2="BackgroundImageFix" result="effect1_dropShadow_277_4907"/>
<feBlend mode="normal" in="SourceGraphic" in2="effect1_dropShadow_277_4907" result="shape"/>
<feColorMatrix in="SourceAlpha" type="matrix" values="0 0 0 0 0 0 0 0 0 0 0 0 0 0 0 0 0 0 127 0" result="hardAlpha"/>
<feOffset dy="-0.764623"/>
<feComposite in2="hardAlpha" operator="arithmetic" k2="-1" k3="1"/>
<feColorMatrix type="matrix" values="0 0 0 0 0.184314 0 0 0 0 0.168627 0 0 0 0 0.262745 0 0 0 0.1 0"/>
<feBlend mode="normal" in2="shape" result="effect2_innerShadow_277_4907"/>
</filter>
<filter id="filter1_di_277_4907" x="24.466" y="98.1204" width="144.281" height="102.193" filterUnits="userSpaceOnUse" color-interpolation-filters="sRGB">
<feFlood flood-opacity="0" result="BackgroundImageFix"/>
<feColorMatrix in="SourceAlpha" type="matrix" values="0 0 0 0 0 0 0 0 0 0 0 0 0 0 0 0 0 0 127 0" result="hardAlpha"/>
<feOffset/>
<feGaussianBlur stdDeviation="4.22243"/>
<feComposite in2="hardAlpha" operator="out"/>
<feColorMatrix type="matrix" values="0 0 0 0 0.643137 0 0 0 0 0.733333 0 0 0 0 0.941176 0 0 0 0.12 0"/>
<feBlend mode="normal" in2="BackgroundImageFix" result="effect1_dropShadow_277_4907"/>
<feBlend mode="normal" in="SourceGraphic" in2="effect1_dropShadow_277_4907" result="shape"/>
<feColorMatrix in="SourceAlpha" type="matrix" values="0 0 0 0 0 0 0 0 0 0 0 0 0 0 0 0 0 0 127 0" result="hardAlpha"/>
<feOffset/>
<feGaussianBlur stdDeviation="10.5864"/>
<feComposite in2="hardAlpha" operator="arithmetic" k2="-1" k3="1"/>
<feColorMatrix type="matrix" values="0 0 0 0 0.864249 0 0 0 0 0.259275 0 0 0 0 0 0 0 0 1 0"/>
<feBlend mode="normal" in2="shape" result="effect2_innerShadow_277_4907"/>
</filter>
<filter id="filter2_di_277_4907" x="23.3695" y="97.6825" width="145.032" height="102.193" filterUnits="userSpaceOnUse" color-interpolation-filters="sRGB">
<feFlood flood-opacity="0" result="BackgroundImageFix"/>
<feColorMatrix in="SourceAlpha" type="matrix" values="0 0 0 0 0 0 0 0 0 0 0 0 0 0 0 0 0 0 127 0" result="hardAlpha"/>
<feOffset/>
<feGaussianBlur stdDeviation="4.22243"/>
<feComposite in2="hardAlpha" operator="out"/>
<feColorMatrix type="matrix" values="0 0 0 0 0.643137 0 0 0 0 0.733333 0 0 0 0 0.941176 0 0 0 0.12 0"/>
<feBlend mode="normal" in2="BackgroundImageFix" result="effect1_dropShadow_277_4907"/>
<feBlend mode="normal" in="SourceGraphic" in2="effect1_dropShadow_277_4907" result="shape"/>
<feColorMatrix in="SourceAlpha" type="matrix" values="0 0 0 0 0 0 0 0 0 0 0 0 0 0 0 0 0 0 127 0" result="hardAlpha"/>
<feOffset/>
<feGaussianBlur stdDeviation="10.5864"/>
<feComposite in2="hardAlpha" operator="arithmetic" k2="-1" k3="1"/>
<feColorMatrix type="matrix" values="0 0 0 0 0.864249 0 0 0 0 0.259275 0 0 0 0 0 0 0 0 1 0"/>
<feBlend mode="normal" in2="shape" result="effect2_innerShadow_277_4907"/>
</filter>
<filter id="filter3_di_277_4907" x="56.7849" y="48.1409" width="78.518" height="78.518" filterUnits="userSpaceOnUse" color-interpolation-filters="sRGB">
<feFlood flood-opacity="0" result="BackgroundImageFix"/>
<feColorMatrix in="SourceAlpha" type="matrix" values="0 0 0 0 0 0 0 0 0 0 0 0 0 0 0 0 0 0 127 0" result="hardAlpha"/>
<feOffset/>
<feGaussianBlur stdDeviation="4.22243"/>
<feComposite in2="hardAlpha" operator="out"/>
<feColorMatrix type="matrix" values="0 0 0 0 0.643137 0 0 0 0 0.733333 0 0 0 0 0.941176 0 0 0 0.12 0"/>
<feBlend mode="normal" in2="BackgroundImageFix" result="effect1_dropShadow_277_4907"/>
<feBlend mode="normal" in="SourceGraphic" in2="effect1_dropShadow_277_4907" result="shape"/>
<feColorMatrix in="SourceAlpha" type="matrix" values="0 0 0 0 0 0 0 0 0 0 0 0 0 0 0 0 0 0 127 0" result="hardAlpha"/>
<feOffset/>
<feGaussianBlur stdDeviation="10.5864"/>
<feComposite in2="hardAlpha" operator="arithmetic" k2="-1" k3="1"/>
<feColorMatrix type="matrix" values="0 0 0 0 0.864249 0 0 0 0 0.259275 0 0 0 0 0 0 0 0 1 0"/>
<feBlend mode="normal" in2="shape" result="effect2_innerShadow_277_4907"/>
</filter>
<filter id="filter4_f_277_4907" x="-4.56137" y="-2.11514" width="201.763" height="201.763" filterUnits="userSpaceOnUse" color-interpolation-filters="sRGB">
<feFlood flood-opacity="0" result="BackgroundImageFix"/>
<feBlend mode="normal" in="SourceGraphic" in2="BackgroundImageFix" result="shape"/>
<feGaussianBlur stdDeviation="7.10228" result="effect1_foregroundBlur_277_4907"/>
</filter>
<radialGradient id="paint0_radial_277_4907" cx="0" cy="0" r="1" gradientUnits="userSpaceOnUse" gradientTransform="translate(138.627 122.34) rotate(154.675) scale(124.296 1877.93)">
<stop stop-color="#FFC01E"/>
<stop offset="0.609473" stop-color="#FFE600"/>
<stop offset="1" stop-color="#FFCA0D"/>
</radialGradient>
<radialGradient id="paint1_radial_277_4907" cx="0" cy="0" r="1" gradientUnits="userSpaceOnUse" gradientTransform="translate(138.154 121.902) rotate(154.805) scale(124.896 1879.94)">
<stop stop-color="#FFC01E"/>
<stop offset="0.609473" stop-color="#FFE600"/>
<stop offset="1" stop-color="#FFCA0D"/>
</radialGradient>
<linearGradient id="paint2_linear_277_4907" x1="96.0437" y1="103.842" x2="95.2504" y2="170.609" gradientUnits="userSpaceOnUse">
<stop stop-color="#FFCD1C"/>
<stop offset="0.719922" stop-color="#FFD600"/>
</linearGradient>
<radialGradient id="paint3_radial_277_4907" cx="0" cy="0" r="1" gradientUnits="userSpaceOnUse" gradientTransform="translate(115.461 67.0712) rotate(125.25) scale(66.5561 1225.77)">
<stop stop-color="#FFC01E"/>
<stop offset="0.609473" stop-color="#FFE600"/>
<stop offset="1" stop-color="#FFCA0D"/>
</radialGradient>
<radialGradient id="paint4_radial_277_4907" cx="0" cy="0" r="1" gradientUnits="userSpaceOnUse" gradientTransform="translate(96.0438 88.2859) rotate(-45.4064) scale(44.472 44.472)">
<stop offset="0.0001" stop-color="#FFFEFC"/>
<stop offset="0.288512" stop-color="#FFDD07"/>
<stop offset="0.692956" stop-color="#FFCD1C"/>
</radialGradient>
<linearGradient id="paint5_linear_277_4907" x1="179.684" y1="90.6278" x2="179.684" y2="105.189" gradientUnits="userSpaceOnUse">
<stop stop-color="#5080EC"/>
<stop offset="1" stop-color="#3568DD"/>
</linearGradient>
<linearGradient id="paint6_linear_277_4907" x1="12.8373" y1="90.6278" x2="12.8373" y2="105.189" gradientUnits="userSpaceOnUse">
<stop stop-color="#5080EC"/>
<stop offset="1" stop-color="#3568DD"/>
</linearGradient>
<clipPath id="clip0_277_4907">
<rect x="2.87903" y="5.32538" width="187.139" height="187.139" rx="93.5697" fill="white"/>
</clipPath>
<clipPath id="clip1_277_4907">
<rect width="73.3" height="13.3252" fill="white" transform="translate(59.6223 171.421)"/>
</clipPath>
</defs>
</svg>
