<svg width="203" height="203" viewBox="0 0 203 203" fill="none" xmlns="http://www.w3.org/2000/svg">
<g filter="url(#filter0_di_277_5053)">
<g clip-path="url(#clip0_277_5053)">
<rect x="7.84406" y="8.32532" width="187.139" height="187.139" rx="93.5697" fill="#EDF3FF"/>
<path d="M99.7035 158.677C104.637 158.677 108.454 163 107.843 167.895L99.4443 235.208C98.9282 239.344 95.4127 242.448 91.2448 242.448C86.2694 242.448 82.4223 238.083 83.0471 233.147L91.5657 165.85C92.0845 161.75 95.5715 158.677 99.7035 158.677Z" fill="#5080EC" stroke="#0C0C0D" stroke-width="1.12735"/>
<path d="M125.691 158.677C120.758 158.677 116.94 163 117.551 167.895L125.95 235.208C126.466 239.344 129.982 242.448 134.15 242.448C139.125 242.448 142.972 238.083 142.347 233.147L133.829 165.85C133.31 161.75 129.823 158.677 125.691 158.677Z" fill="#5080EC" stroke="#0C0C0D" stroke-width="1.12735"/>
<path d="M138.382 119.423C136.495 121.98 136.221 125.386 137.674 128.212L152.323 156.714C154.731 161.399 161.103 162.183 164.576 158.223C166.27 156.291 166.851 153.624 166.115 151.163L156.163 117.874C154.188 111.266 145.513 109.755 141.419 115.305L138.382 119.423Z" fill="#5080EC" stroke="#0C0C0D" stroke-width="1.12735"/>
<path d="M74.9162 113.769C70.4547 112.471 65.7905 115.059 64.5298 119.531L44.7271 189.783C43.4357 194.364 48.672 197.987 52.5039 195.164C53.2258 194.632 53.7914 193.915 54.1413 193.09L82.6745 125.76C84.6288 121.148 82.1193 115.865 77.3102 114.466L74.9162 113.769Z" fill="#5080EC" stroke="#0C0C0D" stroke-width="1.12735"/>
<path d="M147.64 109.571C152.884 109.877 156.55 114.884 155.26 119.975L140.125 179.681C139.184 183.391 135.845 185.99 132.017 185.99L86.8597 185.99C82.6248 185.99 79.0583 182.824 78.5553 178.62L70.9383 114.947C70.3195 109.774 74.5295 105.3 79.7305 105.604L147.64 109.571Z" fill="url(#paint0_linear_277_5053)" stroke="#0C0C0D" stroke-width="1.12735"/>
<path d="M143.058 106.445C142.802 105.938 142.102 105.881 141.766 106.338L140.404 108.195C140.326 108.302 140.222 108.386 140.102 108.44L138.037 109.365C137.49 109.61 137.428 110.362 137.927 110.693L139.813 111.944C139.923 112.017 140.012 112.117 140.071 112.235L141.11 114.289C141.366 114.796 142.067 114.854 142.403 114.396L143.765 112.539C143.842 112.433 143.947 112.349 144.067 112.295L146.132 111.37C146.679 111.125 146.741 110.373 146.241 110.041L144.356 108.79C144.246 108.718 144.157 108.617 144.098 108.5L143.058 106.445Z" fill="#FFC93E" stroke="#0C0C0D" stroke-width="1.12735" stroke-linejoin="round"/>
<path d="M151.588 93.7434C151.272 93.2717 150.57 93.2995 150.292 93.7946L149.166 95.8033C149.102 95.9182 149.009 96.0144 148.896 96.0825L146.959 97.2518C146.446 97.5615 146.476 98.3153 147.012 98.5835L149.035 99.5961C149.153 99.6551 149.253 99.7436 149.327 99.8531L150.608 101.766C150.924 102.238 151.626 102.21 151.904 101.715L153.03 99.7066C153.094 99.5916 153.187 99.4954 153.3 99.4273L155.237 98.258C155.75 97.9483 155.72 97.1945 155.185 96.9263L153.161 95.9137C153.043 95.8548 152.943 95.7662 152.869 95.6567L151.588 93.7434Z" fill="#FFC93E" stroke="#0C0C0D" stroke-width="1.12735" stroke-linejoin="round"/>
<path d="M66.659 55.4168C66.3949 54.8038 65.5256 54.8038 65.2615 55.4168L64.2886 57.6752C64.2383 57.7919 64.1596 57.8942 64.0596 57.9727L61.968 59.6146C61.5799 59.9192 61.5799 60.5069 61.968 60.8115L64.0596 62.4534C64.1596 62.5318 64.2383 62.6341 64.2886 62.7508L65.2615 65.0092C65.5256 65.6223 66.3949 65.6223 66.659 65.0092L67.6319 62.7508C67.6822 62.6341 67.7609 62.5318 67.8609 62.4534L69.9525 60.8115C70.3406 60.5069 70.3406 59.9192 69.9525 59.6146L67.8609 57.9727C67.7609 57.8942 67.6822 57.7919 67.6319 57.6752L66.659 55.4168Z" fill="#FFC93E" stroke="#0C0C0D" stroke-width="1.12735" stroke-linejoin="round"/>
<path d="M133.061 38.3792C132.852 38.039 132.358 38.039 132.149 38.3792L131.507 39.4253C131.458 39.5043 131.39 39.5694 131.309 39.6141L130.268 40.1876C129.899 40.391 129.899 40.9215 130.268 41.1249L131.309 41.6985C131.39 41.7432 131.458 41.8082 131.507 41.8872L132.149 42.9334C132.358 43.2736 132.852 43.2736 133.061 42.9334L133.703 41.8872C133.752 41.8082 133.82 41.7432 133.901 41.6985L134.942 41.1249C135.311 40.9215 135.311 40.391 134.942 40.1876L133.901 39.6141C133.82 39.5694 133.752 39.5043 133.703 39.4253L133.061 38.3792Z" fill="#FFC93E" stroke="#0C0C0D" stroke-width="1.12735" stroke-linejoin="round"/>
<path d="M83.1135 81.7256C87.2028 66.4642 102.89 57.4075 118.151 61.4967C133.412 65.586 142.469 81.2728 138.38 96.5341C134.29 111.795 118.604 120.852 103.342 116.763C88.081 112.674 79.0243 96.9869 83.1135 81.7256Z" fill="url(#paint1_linear_277_5053)" stroke="#0C0C0D" stroke-width="1.12735"/>
<mask id="path-12-inside-1_277_5053" fill="white">
<path fill-rule="evenodd" clip-rule="evenodd" d="M120.999 53.6533C123.526 54.476 125.949 55.607 128.211 57.0251C131.831 59.2948 134.969 62.2553 137.445 65.7377C139.921 69.22 141.687 73.1559 142.642 77.3207C143.406 80.6554 143.639 84.0845 143.336 87.4817C143.211 88.8849 141.884 89.8207 140.495 89.5861L110.927 84.5926L81.3589 79.5991C79.9699 79.3645 79.024 78.0448 79.3667 76.6784C80.1963 73.3702 81.5422 70.2077 83.3595 67.309C85.6292 63.6888 88.5898 60.5511 92.0721 58.075C95.5544 55.599 99.4904 53.8331 103.655 52.8781C106.337 52.2633 109.079 51.9923 111.817 52.0673C112.389 50.6106 113.919 49.7028 115.523 49.9737L118.185 50.4232C119.801 50.6962 120.954 52.0749 120.999 53.6533Z"/>
</mask>
<path fill-rule="evenodd" clip-rule="evenodd" d="M120.999 53.6533C123.526 54.476 125.949 55.607 128.211 57.0251C131.831 59.2948 134.969 62.2553 137.445 65.7377C139.921 69.22 141.687 73.1559 142.642 77.3207C143.406 80.6554 143.639 84.0845 143.336 87.4817C143.211 88.8849 141.884 89.8207 140.495 89.5861L110.927 84.5926L81.3589 79.5991C79.9699 79.3645 79.024 78.0448 79.3667 76.6784C80.1963 73.3702 81.5422 70.2077 83.3595 67.309C85.6292 63.6888 88.5898 60.5511 92.0721 58.075C95.5544 55.599 99.4904 53.8331 103.655 52.8781C106.337 52.2633 109.079 51.9923 111.817 52.0673C112.389 50.6106 113.919 49.7028 115.523 49.9737L118.185 50.4232C119.801 50.6962 120.954 52.0749 120.999 53.6533Z" fill="#FF5E0D"/>
<path d="M128.211 57.0251L127.612 57.9802L128.211 57.0251ZM120.999 53.6533L119.872 53.6855L119.895 54.4794L120.65 54.7253L120.999 53.6533ZM137.445 65.7377L138.363 65.0844L137.445 65.7377ZM142.642 77.3207L143.74 77.0688L142.642 77.3207ZM143.336 87.4817L142.213 87.3816L142.213 87.3816L143.336 87.4817ZM110.927 84.5926L110.739 85.7042L110.927 84.5926ZM81.3589 79.5991L81.5466 78.4874L81.3589 79.5991ZM79.3667 76.6784L80.4602 76.9527L79.3667 76.6784ZM83.3595 67.309L84.3147 67.9079L83.3595 67.309ZM92.0721 58.075L92.7254 58.9938L92.7254 58.9938L92.0721 58.075ZM103.655 52.8781L103.907 53.9769L103.655 52.8781ZM111.817 52.0673L111.786 53.1942L112.578 53.2158L112.867 52.4789L111.817 52.0673ZM115.523 49.9737L115.711 48.8621L115.523 49.9737ZM118.185 50.4232L117.997 51.5348L118.185 50.4232ZM128.809 56.0699C126.469 54.6027 123.963 53.4325 121.348 52.5813L120.65 54.7253C123.09 55.5194 125.428 56.6113 127.612 57.9802L128.809 56.0699ZM138.363 65.0844C135.801 61.4814 132.555 58.4183 128.809 56.0699L127.612 57.9802C131.107 60.1713 134.136 63.0293 136.526 66.3909L138.363 65.0844ZM143.74 77.0688C142.752 72.7597 140.925 68.6874 138.363 65.0844L136.526 66.3909C138.916 69.7526 140.621 73.5522 141.543 77.5727L143.74 77.0688ZM144.459 87.5818C144.772 84.0669 144.531 80.519 143.74 77.0688L141.543 77.5727C142.281 80.7918 142.505 84.1021 142.213 87.3816L144.459 87.5818ZM140.307 90.6977C142.285 91.0317 144.27 89.6987 144.459 87.5818L142.213 87.3816C142.152 88.0711 141.483 88.6097 140.683 88.4745L140.307 90.6977ZM110.739 85.7042L140.307 90.6977L140.683 88.4745L111.115 83.481L110.739 85.7042ZM81.1712 80.7107L110.739 85.7042L111.115 83.481L81.5466 78.4874L81.1712 80.7107ZM78.2732 76.4042C77.7563 78.4656 79.1937 80.3767 81.1712 80.7107L81.5466 78.4874C80.7461 78.3523 80.2918 77.624 80.4602 76.9527L78.2732 76.4042ZM82.4044 66.7102C80.5241 69.7093 79.1315 72.9814 78.2732 76.4042L80.4602 76.9527C81.261 73.759 82.5603 70.7061 84.3147 67.9079L82.4044 66.7102ZM91.4188 57.1563C87.8158 59.7181 84.7527 62.9646 82.4044 66.7102L84.3147 67.9079C86.5057 64.4131 89.3637 61.3841 92.7254 58.9938L91.4188 57.1563ZM103.403 51.7793C99.0941 52.7673 95.0218 54.5944 91.4188 57.1563L92.7254 58.9938C96.0871 56.6035 99.8866 54.8988 103.907 53.9769L103.403 51.7793ZM111.848 50.9403C109.015 50.8628 106.178 51.1431 103.403 51.7793L103.907 53.9769C106.496 53.3834 109.143 53.1219 111.786 53.1942L111.848 50.9403ZM112.867 52.4789C113.247 51.5089 114.268 50.905 115.336 51.0853L115.711 48.8621C113.57 48.5005 111.53 49.7124 110.768 51.6556L112.867 52.4789ZM115.336 51.0853L117.997 51.5348L118.373 49.3116L115.711 48.8621L115.336 51.0853ZM117.997 51.5348C119.073 51.7164 119.842 52.6345 119.872 53.6855L122.126 53.621C122.066 51.5153 120.53 49.6759 118.373 49.3116L117.997 51.5348Z" fill="#0C0C0D" mask="url(#path-12-inside-1_277_5053)"/>
<path d="M138.828 75.4259C136.465 82.7414 128.619 86.7563 121.303 84.3933C113.988 82.0303 109.973 74.1842 112.336 66.8686C114.699 59.5531 122.545 55.5382 129.861 57.9012C137.176 60.2642 141.191 68.1103 138.828 75.4259Z" fill="white" stroke="#0C0C0D" stroke-width="1.12735"/>
<path d="M118.925 76.1575L118.386 76.316C118.27 75.9202 118.488 75.5154 118.861 75.3794C119.717 75.0674 120.469 74.65 121.112 74.155C123.497 72.3188 124.453 69.3599 123.593 66.4755C123.361 65.6979 122.995 64.9196 122.483 64.1654C122.26 63.8367 122.32 63.3808 122.646 63.1278L122.971 62.8754L123.317 63.3206L122.971 62.8754C123.293 62.625 123.754 62.6721 124.02 62.9796L131.897 72.0889C132.613 72.9173 132.196 74.207 131.131 74.4599L119.414 77.2403L119.284 76.6943M118.925 76.1575L118.386 76.316L118.502 76.711C118.617 77.1026 119.018 77.3342 119.414 77.2403L119.284 76.6943M118.925 76.1575L118.926 76.1574L118.925 76.1575ZM119.284 76.6943L119.284 76.6927L119.284 76.6943Z" fill="#3668DD" stroke="#0C0C0D" stroke-width="1.12735"/>
<path d="M68.6597 97.4683C68.8822 97.5492 69.0857 97.675 69.2577 97.8377L162.85 186.395C163.545 187.053 163.575 188.149 162.917 188.844L153.626 198.663C152.969 199.358 151.873 199.388 151.178 198.731L57.5857 110.173C57.4137 110.01 57.277 109.814 57.1838 109.597L50.4919 93.9591C49.8952 92.5649 51.2515 91.1315 52.6765 91.6502L68.6597 97.4683Z" fill="#FFC93E" stroke="#0C0C0D" stroke-width="1.12735"/>
<path d="M68.6597 97.4683C68.8822 97.5492 69.0857 97.675 69.2577 97.8377L71.217 99.6916L69.7169 102.962C69.5577 103.309 69.2883 103.593 68.9507 103.771L66.1015 105.274C65.544 105.568 65.0993 106.038 64.8365 106.611L63.4935 109.539C63.3343 109.886 63.0649 110.171 62.7273 110.349L59.545 112.027L57.5857 110.173C57.4137 110.01 57.277 109.814 57.1838 109.597L50.4919 93.9591C49.8952 92.5649 51.2515 91.1315 52.6765 91.6502L68.6597 97.4683Z" fill="#FFEDC2" stroke="#0C0C0D" stroke-width="1.12735"/>
<path d="M52.6769 91.6503L57.5948 93.4404L52.5513 98.7707L50.4923 93.9591C49.8957 92.565 51.252 91.1316 52.6769 91.6503Z" fill="#0C0C0D" stroke="#0C0C0D" stroke-width="1.12735"/>
<path d="M63.3476 110.08L155.613 197.383" stroke="#0C0C0D" stroke-width="1.12735"/>
<path d="M69.4835 103.596L161.749 190.899" stroke="#0C0C0D" stroke-width="1.12735"/>
<path d="M113.151 161.032C113.577 164.563 116.922 166.982 120.409 166.283L164.007 157.539C167.154 156.907 169.286 153.961 168.9 150.774C168.47 147.212 165.093 144.775 161.577 145.487L117.997 154.318C114.878 154.95 112.769 157.873 113.151 161.032Z" fill="#5080EC" stroke="#0C0C0D" stroke-width="1.12735"/>
<path d="M54.6871 168.361C56.083 171.745 60.1182 173.153 63.3163 171.373L107.438 146.813C110.169 145.293 111.33 141.968 110.137 139.079C108.729 135.666 104.657 134.248 101.434 136.05L57.3569 160.689C54.6523 162.201 53.5055 165.497 54.6871 168.361Z" fill="#5080EC" stroke="#0C0C0D" stroke-width="1.12735"/>
<path d="M114.223 92.6645C113.948 95.5101 116.032 98.04 118.877 98.3153C121.723 98.5905 124.253 96.5067 124.528 93.6611C124.803 90.8155 122.72 88.2855 119.874 88.0103C117.028 87.7351 114.498 89.8188 114.223 92.6645Z" fill="white" stroke="#0C0C0D" stroke-width="1.12735"/>
<path d="M96.7464 90.9743C96.4712 93.8199 98.555 96.3499 101.401 96.6251C104.246 96.9003 106.776 94.8165 107.051 91.9709C107.327 89.1253 105.243 86.5953 102.397 86.3201C99.5516 86.0449 97.0216 88.1287 96.7464 90.9743Z" fill="white" stroke="#0C0C0D" stroke-width="1.12735"/>
<mask id="mask0_277_5053" style="mask-type:alpha" maskUnits="userSpaceOnUse" x="96" y="85" width="12" height="13">
<path d="M96.797 90.9792C96.5218 93.8248 98.6055 96.3547 101.451 96.63C104.297 96.9052 106.827 94.8214 107.102 91.9758C107.377 89.1302 105.293 86.6002 102.448 86.325C99.6021 86.0498 97.0722 88.1335 96.797 90.9792Z" fill="white" stroke="#0C0C0D" stroke-width="1.12735"/>
</mask>
<g mask="url(#mask0_277_5053)">
<path d="M96.6968 88.741C96.529 90.4756 97.7992 92.0179 99.5339 92.1856C101.269 92.3534 102.811 91.0832 102.979 89.3485C103.146 87.6138 101.876 86.0716 100.141 85.9038C98.4068 85.7361 96.8645 87.0063 96.6968 88.741Z" fill="#0C0C0D" stroke="#0C0C0D" stroke-width="1.12735"/>
</g>
<mask id="mask1_277_5053" style="mask-type:alpha" maskUnits="userSpaceOnUse" x="113" y="87" width="13" height="12">
<path d="M114.473 92.2735C114.198 95.1191 116.282 97.6491 119.127 97.9243C121.973 98.1995 124.503 96.1157 124.778 93.2701C125.053 90.4245 122.97 87.8945 120.124 87.6193C117.278 87.3441 114.748 89.4279 114.473 92.2735Z" fill="white" stroke="#0C0C0D" stroke-width="1.12735"/>
</mask>
<g mask="url(#mask1_277_5053)">
<path d="M113.972 90.4117C113.804 92.1464 115.074 93.6886 116.809 93.8564C118.544 94.0242 120.086 92.7539 120.254 91.0193C120.421 89.2846 119.151 87.7424 117.416 87.5746C115.682 87.4068 114.14 88.6771 113.972 90.4117Z" fill="#0C0C0D" stroke="#0C0C0D" stroke-width="1.12735"/>
</g>
<path d="M102.66 103.165C103.206 104.364 104.058 105.398 105.13 106.164C106.202 106.929 107.457 107.399 108.768 107.526C110.079 107.653 111.401 107.432 112.6 106.886C113.799 106.341 114.833 105.489 115.599 104.416" stroke="#0C0C0D" stroke-width="1.12735" stroke-linecap="round" stroke-linejoin="round"/>
<path d="M77.1027 74.0254C77.305 72.8275 78.4402 72.0203 79.6381 72.2227L144.606 83.1946C145.804 83.3969 146.611 84.532 146.409 85.7299L145.807 89.292C145.605 90.4899 144.47 91.297 143.272 91.0947L78.304 80.1228C77.1061 79.9204 76.299 78.7854 76.5012 77.5875L77.1027 74.0254Z" fill="#FF5E0D" stroke="#0C0C0D" stroke-width="1.12735"/>
</g>
<g style="mix-blend-mode:multiply" filter="url(#filter1_f_277_5053)">
<mask id="path-31-outside-2_277_5053" maskUnits="userSpaceOnUse" x="13.735" y="14.2167" width="175" height="175" fill="black">
<rect fill="white" x="13.735" y="14.2167" width="175" height="175"/>
<path d="M186.834 101.766C186.834 149.014 148.532 187.316 101.285 187.316C54.0368 187.316 15.735 149.014 15.735 101.766C15.735 54.5185 54.0368 16.2167 101.285 16.2167C148.532 16.2167 186.834 54.5185 186.834 101.766ZM28.8669 101.766C28.8669 141.761 61.2894 174.184 101.285 174.184C141.28 174.184 173.702 141.761 173.702 101.766C173.702 61.7711 141.28 29.3486 101.285 29.3486C61.2894 29.3486 28.8669 61.7711 28.8669 101.766Z"/>
</mask>
<path d="M186.834 101.766C186.834 149.014 148.532 187.316 101.285 187.316C54.0368 187.316 15.735 149.014 15.735 101.766C15.735 54.5185 54.0368 16.2167 101.285 16.2167C148.532 16.2167 186.834 54.5185 186.834 101.766ZM28.8669 101.766C28.8669 141.761 61.2894 174.184 101.285 174.184C141.28 174.184 173.702 141.761 173.702 101.766C173.702 61.7711 141.28 29.3486 101.285 29.3486C61.2894 29.3486 28.8669 61.7711 28.8669 101.766Z" fill="white"/>
<path d="M186.834 101.766C186.834 149.014 148.532 187.316 101.285 187.316C54.0368 187.316 15.735 149.014 15.735 101.766C15.735 54.5185 54.0368 16.2167 101.285 16.2167C148.532 16.2167 186.834 54.5185 186.834 101.766ZM28.8669 101.766C28.8669 141.761 61.2894 174.184 101.285 174.184C141.28 174.184 173.702 141.761 173.702 101.766C173.702 61.7711 141.28 29.3486 101.285 29.3486C61.2894 29.3486 28.8669 61.7711 28.8669 101.766Z" stroke="#5A86EC" stroke-width="2.25469" mask="url(#path-31-outside-2_277_5053)"/>
</g>
<path d="M194.983 101.895C194.983 153.572 153.091 195.465 101.414 195.465C49.7366 195.465 7.84406 153.572 7.84406 101.895C7.84406 50.2179 49.7366 8.32532 101.414 8.32532C153.091 8.32532 194.983 50.2179 194.983 101.895ZM28.3808 101.895C28.3808 142.23 61.0788 174.928 101.414 174.928C141.749 174.928 174.447 142.23 174.447 101.895C174.447 61.56 141.749 28.862 101.414 28.862C61.0788 28.862 28.3808 61.56 28.3808 101.895Z" fill="white"/>
<g clip-path="url(#clip1_277_5053)">
<path d="M49.3642 36.5241L53.4001 41.1049C53.2798 41.3566 53.1333 41.5521 52.9529 41.7099C52.6974 41.9353 52.4456 42.0894 52.1788 42.1759L51.1416 40.9997L51.1003 41.0072C51.1604 41.1951 51.183 41.5182 51.1754 41.9617C51.1529 42.9838 50.6343 43.9345 49.6235 44.8251C48.3947 45.9074 46.9441 46.3245 45.5688 46.0765C44.2009 45.8322 42.8368 45.0017 41.6644 43.6715C40.3417 42.1683 39.7103 40.5976 39.793 39.1921C39.8794 37.7942 40.5671 36.5015 41.811 35.4005C42.8293 34.5061 43.8702 34.0214 44.9375 33.965C46.0047 33.9086 46.9554 34.2732 47.7934 35.0585C47.6093 35.3892 47.4101 35.6372 47.1997 35.8251C46.9968 36.0018 46.7149 36.1746 46.3542 36.3287C45.3433 35.502 44.1934 35.5921 43.0059 36.6406C42.1642 37.3809 41.6306 38.3278 41.7959 39.5303C41.8974 40.3045 42.3784 41.2702 43.2464 42.2548C45.1742 44.4418 46.9892 44.8401 48.8719 43.1829C49.4694 42.6569 49.8151 41.9842 49.8978 41.1612C49.9692 40.4397 49.7475 39.7107 49.2251 38.9967L49.135 38.8915L46.5158 41.1988C46.2677 41.1462 46.0347 40.9921 45.8055 40.7366C45.5838 40.4848 45.4598 40.2368 45.441 39.9813L49.3642 36.5241Z" fill="#3568DD"/>
<path d="M62.2648 22.0903L65.6694 33.2172C65.489 33.484 65.2072 33.7358 64.8126 33.9725C64.4556 34.1829 64.0798 34.322 63.689 34.3934L56.8536 27.8322L59.3788 36.9487C59.1421 37.2493 58.8302 37.5199 58.4206 37.7604C58.0373 37.9859 57.6878 38.1099 57.3684 38.1399L49.2365 29.8163C49.4319 29.5571 49.6874 29.3353 50.0143 29.1437C50.3826 28.9257 50.7133 28.798 51.0214 28.7566L57.4022 35.5696L54.8055 26.532C55.0385 26.2427 55.3204 25.9984 55.651 25.803C56.0268 25.5813 56.3989 25.4347 56.7671 25.3708L63.55 31.8118L60.5212 23.1312C60.7166 22.8719 60.9721 22.6502 61.2991 22.4585C61.6147 22.2631 61.9341 22.1429 62.2648 22.0903Z" fill="#3568DD"/>
<path d="M77.2923 22.094L79.3817 27.8322C79.1787 28.0239 78.9721 28.1516 78.7466 28.2343C78.4234 28.3508 78.1341 28.4034 77.856 28.3884L77.3186 26.9153L77.2773 26.9078C77.266 27.1069 77.1683 27.4151 76.9992 27.8247C76.6046 28.7679 75.7742 29.4669 74.5078 29.9253C72.9671 30.4852 71.4639 30.3424 70.2765 29.6134C69.089 28.8844 68.1195 27.6143 67.5145 25.9458C66.8268 24.0631 66.8155 22.3683 67.4055 21.0907C67.9992 19.8205 69.1078 18.866 70.6673 18.2949C71.9412 17.8326 73.0873 17.7612 74.1019 18.0995C75.1165 18.4377 75.8719 19.1216 76.3641 20.1587C76.071 20.3955 75.7967 20.5608 75.5299 20.6548C75.2781 20.7487 74.9474 20.8051 74.5566 20.8164C73.9178 19.6777 72.8092 19.3433 71.3249 19.8844C70.269 20.2677 69.4272 20.9554 69.1454 22.1354C68.9575 22.8944 69.0514 23.9692 69.5024 25.2017C70.5019 27.9412 72.0464 28.9746 74.4026 28.114C75.1504 27.8435 75.7178 27.3399 76.0936 26.6072C76.4243 25.9608 76.4806 25.2017 76.2552 24.3449L76.2063 24.2134L72.9257 25.4084C72.7115 25.2694 72.5499 25.0401 72.4335 24.7207C72.317 24.4051 72.2944 24.127 72.3696 23.8827L77.2923 22.094Z" fill="#3568DD"/>
<path d="M98.2462 13.3308L99.381 24.608C99.1105 24.7583 98.8061 24.8485 98.4641 24.8823C98.0883 24.9199 97.7614 24.8936 97.4833 24.7997L96.5627 15.6456H96.5476L94.5372 25.1454C94.2554 25.2619 93.936 25.337 93.5639 25.3746C93.1506 25.416 92.7973 25.4084 92.5005 25.3483L88.6562 16.4385L88.6337 16.4423L89.5543 25.5963C89.2687 25.7504 88.9644 25.8406 88.6374 25.8707C88.318 25.9007 88.0099 25.8744 87.698 25.7805L86.5631 14.5032C86.8487 14.3492 87.3222 14.244 87.9873 14.1763C88.5735 14.1162 89.0808 14.1237 89.5055 14.2064L93.3873 23.3492L95.3677 13.6202C95.7848 13.4698 96.3147 13.3571 96.9685 13.2895C97.5435 13.2331 97.9681 13.2481 98.2462 13.3308Z" fill="#3568DD"/>
<path d="M110.899 23.6272C111.083 23.8527 111.162 24.1646 111.136 24.5554C111.109 24.9425 110.989 25.2318 110.779 25.416L102.722 24.8899L103.492 13.2106L111.372 13.7254C111.568 13.9659 111.65 14.2778 111.624 14.6686C111.598 15.0669 111.478 15.345 111.256 15.5141L105.476 15.1346L105.273 18.2461L110.726 18.603C110.91 18.8285 110.993 19.1254 110.966 19.4861C110.944 19.8582 110.824 20.1325 110.613 20.3016L105.161 19.9446L104.946 23.2327L110.899 23.6272Z" fill="#3568DD"/>
<path d="M128.053 17.254L125.43 28.2832C125.125 28.3395 124.806 28.3208 124.472 28.2418C124.103 28.1554 123.807 28.0239 123.57 27.8398L125.7 18.8886L125.685 18.8849L120.672 27.2047C120.368 27.2235 120.041 27.1896 119.677 27.1032C119.271 27.0055 118.944 26.8853 118.681 26.7312L117.967 17.051L117.948 17.0435L115.817 25.9947C115.498 26.0473 115.179 26.0285 114.863 25.9533C114.551 25.8782 114.265 25.7504 114.006 25.5625L116.629 14.5333C116.948 14.4807 117.429 14.5371 118.083 14.6911C118.658 14.8264 119.132 14.9993 119.508 15.2172L120.184 25.1266L125.238 16.5851C125.682 16.5776 126.219 16.6452 126.858 16.7993C127.418 16.9308 127.816 17.0849 128.053 17.254Z" fill="#3568DD"/>
<path d="M138.15 27.1933C139.071 27.9073 139.353 28.9933 138.759 30.3462C138.338 31.3082 137.703 31.9357 136.85 32.2363C135.993 32.537 135.028 32.4543 133.953 31.9846L128.493 29.5908L133.19 18.8735L138.35 21.1357C139.364 21.5792 140.052 22.1917 140.409 22.9696C140.762 23.7437 140.751 24.5666 140.375 25.4272C139.894 26.5207 139.067 27.0167 138.199 27.0844L138.15 27.1933ZM134.37 30.2146C135.55 30.7332 136.373 30.4702 136.831 29.4255C137.181 28.6326 137.016 28.0802 136.681 27.6969C136.482 27.4977 136.358 27.3812 136.102 27.2384C135.836 27.0994 135.764 27.0656 135.531 26.9641L132.506 25.6376L131.123 28.7942L134.37 30.2146ZM134.453 21.1996L133.115 24.2547L135.824 25.4422C136.046 25.5399 136.136 25.5812 136.456 25.6714C136.775 25.7616 136.974 25.7954 137.316 25.7616C137.775 25.7165 138.199 25.4497 138.477 24.8146C138.673 24.3675 138.695 23.9316 138.545 23.5144C138.395 23.0973 138.004 22.7516 137.376 22.4773L134.453 21.1996Z" fill="#3568DD"/>
<path d="M147.954 37.8919C148.007 38.1775 147.928 38.4894 147.718 38.8201C147.511 39.147 147.263 39.3424 146.992 39.4026L140.183 35.0623L146.474 25.1905L153.136 29.4368C153.193 29.7412 153.114 30.0531 152.903 30.3876C152.689 30.7258 152.449 30.9099 152.174 30.9512L147.289 27.836L145.613 30.4665L150.224 33.4051C150.277 33.6907 150.205 33.9913 150.01 34.2957C149.811 34.6076 149.57 34.7955 149.307 34.8406L144.696 31.902L142.926 34.679L147.954 37.8919Z" fill="#3568DD"/>
<path d="M157.672 47.7073C157.582 47.8125 157.473 47.8914 157.352 47.9478C156.962 47.7862 156.556 47.5156 156.124 47.1361C155.496 46.5799 155.41 46.0952 155.793 45.5728L157.097 43.7991C157.349 43.4459 157.544 43.1265 157.54 42.7131C157.51 42.3261 157.307 41.8751 156.71 41.349L154.245 39.1733L151.276 42.5403C150.945 42.3975 150.645 42.2096 150.382 41.9766C150.115 41.7399 149.889 41.4655 149.705 41.1574L157.337 32.5069L161.479 36.1633C162.091 36.7044 162.534 37.1929 162.798 37.6288C163.064 38.0685 163.211 38.5157 163.248 38.9779C163.305 39.7369 163.012 40.4885 162.373 41.2175C161.971 41.6722 161.49 41.9841 160.934 42.1645C160.366 42.3449 159.829 42.3561 159.325 42.2133L159.246 42.2998C159.427 42.623 159.502 42.8935 159.464 43.3069C159.427 43.724 159.179 44.2576 158.713 44.9303L157.732 46.3394C157.48 46.7002 157.48 46.9895 157.724 47.2075C157.788 47.2639 157.848 47.309 157.897 47.3428C157.83 47.4968 157.751 47.6209 157.672 47.7073ZM160.637 40.0564C160.967 39.6806 161.129 39.2785 161.114 38.8651C161.099 38.3541 160.753 37.8092 160.081 37.2154L157.773 35.1787L155.316 37.967L157.578 39.985C158.239 40.5674 158.841 40.8342 159.374 40.7929C159.818 40.7553 160.235 40.5111 160.637 40.0564Z" fill="#3568DD"/>
</g>
<path fill-rule="evenodd" clip-rule="evenodd" d="M179.382 108.159C179.287 108.217 179.163 108.19 179.101 108.098L178.861 107.746C178.798 107.655 178.819 107.53 178.907 107.462C179.697 106.847 180.345 106.154 180.856 105.412C182.756 102.648 182.756 99.1696 180.856 96.4057C180.345 95.6634 179.697 94.9704 178.907 94.3555C178.819 94.2871 178.798 94.1628 178.861 94.0709L179.101 93.7192C179.163 93.6273 179.287 93.6005 179.382 93.6583L190.028 100.119C190.623 100.479 190.623 101.338 190.028 101.699L179.382 108.159Z" fill="url(#paint2_linear_277_5053)"/>
<path fill-rule="evenodd" clip-rule="evenodd" d="M12.5349 108.159C12.4398 108.217 12.3158 108.19 12.2532 108.098L12.0135 107.746C11.951 107.654 11.972 107.53 12.0598 107.462C12.8492 106.847 13.498 106.154 14.0083 105.412C15.9084 102.648 15.9084 99.1695 14.0083 96.4057C13.498 95.6634 12.8492 94.9703 12.0598 94.3555C11.972 94.2871 11.951 94.1627 12.0135 94.0709L12.2532 93.7191C12.3158 93.6273 12.4398 93.6005 12.5349 93.6582L23.1811 100.119C23.7753 100.479 23.7753 101.338 23.1811 101.699L12.5349 108.159Z" fill="url(#paint3_linear_277_5053)"/>
<path d="M56.3374 172.833C56.1508 173.129 55.7599 173.217 55.4657 173.029C46.68 167.392 39.0113 160.18 32.8459 151.757C32.6395 151.475 32.7039 151.079 32.9875 150.875C33.271 150.67 33.6663 150.735 33.8728 151.017C39.9432 159.308 47.4926 166.408 56.1412 171.958C56.4353 172.147 56.5239 172.538 56.3374 172.833Z" fill="#0C0C0D"/>
<path d="M146.113 172.833C146.299 173.129 146.69 173.217 146.985 173.029C155.77 167.392 163.439 160.18 169.604 151.757C169.811 151.475 169.746 151.079 169.463 150.875C169.179 150.67 168.784 150.735 168.577 151.017C162.507 159.308 154.958 166.408 146.309 171.958C146.015 172.147 145.926 172.538 146.113 172.833Z" fill="#0C0C0D"/>
<path d="M178.278 46.6297C178.925 46.1743 179.081 45.2805 178.616 44.6409C169.996 32.7851 158.758 23.0682 145.768 16.2509C132.355 9.21161 117.459 5.46589 102.311 5.32332C87.1641 5.18075 72.2003 8.64543 58.6571 15.431C45.5407 22.0026 34.1216 31.5063 25.2808 43.1977C24.8039 43.8284 24.9428 44.725 25.5806 45.1924C26.2184 45.6599 27.1134 45.521 27.5907 44.8905C36.1627 33.5655 47.2297 24.3591 59.9398 17.9911C73.0767 11.4091 87.5916 8.04836 102.284 8.18665C116.977 8.32494 131.426 11.9583 144.437 18.7864C157.025 25.3926 167.917 34.8056 176.274 46.29C176.739 46.9293 177.632 47.085 178.278 46.6297Z" fill="#3568DD"/>
<g clip-path="url(#clip2_277_5053)">
<path d="M69.07 176.691C69.1564 176.424 69.1263 176.176 68.9835 175.939C68.8407 175.702 68.6115 175.518 68.2996 175.376C68.0741 175.278 67.8637 175.225 67.6683 175.221C67.4729 175.218 67.3 175.255 67.1572 175.334C67.0107 175.417 66.9017 175.537 66.8303 175.691C66.7739 175.819 66.7514 175.947 66.7702 176.071C66.789 176.195 66.834 176.308 66.9054 176.416C66.9806 176.525 67.0633 176.627 67.161 176.721C67.2587 176.815 67.3526 176.901 67.4503 176.976L67.9238 177.36C68.0779 177.48 68.232 177.619 68.3823 177.777C68.5326 177.935 68.6603 178.108 68.7618 178.295C68.8633 178.483 68.9234 178.69 68.9422 178.912C68.9572 179.133 68.9121 179.366 68.7994 179.611C68.6603 179.923 68.4537 180.159 68.1869 180.328C67.9201 180.497 67.6006 180.58 67.2361 180.584C66.8716 180.588 66.4733 180.49 66.0449 180.295C65.6353 180.11 65.3084 179.881 65.0679 179.618C64.8274 179.351 64.6771 179.062 64.6169 178.743C64.5568 178.427 64.5906 178.1 64.7222 177.762L65.5526 178.138C65.4775 178.344 65.47 178.536 65.5226 178.72C65.5752 178.904 65.6766 179.066 65.827 179.209C65.9773 179.351 66.1576 179.472 66.3681 179.569C66.6011 179.675 66.8265 179.731 67.0407 179.742C67.2549 179.753 67.4466 179.712 67.6119 179.629C67.7773 179.543 67.9013 179.411 67.9802 179.235C68.0553 179.073 68.0666 178.919 68.0215 178.773C67.9764 178.626 67.89 178.487 67.766 178.348C67.642 178.209 67.4917 178.07 67.3188 177.931L66.7551 177.457C66.3718 177.138 66.105 176.807 65.9547 176.458C65.8044 176.108 65.8157 175.744 65.9885 175.364C66.1313 175.049 66.3418 174.812 66.6199 174.654C66.8942 174.496 67.2098 174.421 67.5631 174.421C67.9163 174.421 68.2733 174.508 68.6416 174.673C69.0136 174.842 69.3105 175.056 69.5359 175.315C69.7614 175.575 69.9042 175.857 69.9643 176.157C70.0244 176.458 69.9944 176.758 69.8666 177.055L69.07 176.691Z" fill="#0C0C0D"/>
<path d="M71.4109 182.5C71.0163 182.354 70.7044 182.132 70.4752 181.843C70.2459 181.55 70.1144 181.211 70.0693 180.824C70.028 180.437 70.0881 180.024 70.2497 179.588C70.4113 179.148 70.6368 178.795 70.9224 178.528C71.208 178.262 71.5311 178.093 71.8956 178.021C72.2601 177.95 72.6397 177.987 73.0343 178.134C73.4288 178.28 73.7407 178.502 73.9699 178.791C74.1992 179.085 74.3307 179.423 74.372 179.814C74.4134 180.204 74.3532 180.618 74.1879 181.054C74.0263 181.49 73.8008 181.843 73.5153 182.106C73.2297 182.373 72.9065 182.542 72.542 182.613C72.1775 182.685 71.8092 182.647 71.4109 182.5ZM71.6702 181.813C71.9257 181.907 72.1662 181.918 72.3841 181.847C72.6021 181.775 72.7975 181.64 72.9629 181.444C73.1282 181.249 73.2635 181.016 73.3649 180.746C73.4664 180.475 73.5153 180.212 73.519 179.956C73.5228 179.701 73.4626 179.472 73.3462 179.269C73.2297 179.07 73.0418 178.919 72.7862 178.825C72.5269 178.728 72.2864 178.716 72.0685 178.791C71.8468 178.867 71.6551 179.002 71.4898 179.197C71.3244 179.393 71.1892 179.626 71.0915 179.896C70.99 180.167 70.9374 180.43 70.9374 180.689C70.9336 180.945 70.9938 181.174 71.114 181.373C71.223 181.568 71.4109 181.715 71.6702 181.813Z" fill="#0C0C0D"/>
<path d="M78.2314 182.685L78.9867 180.156L79.8322 180.407L78.5433 184.729L77.7166 184.481L77.9383 183.733L77.8932 183.718C77.7241 183.921 77.5099 184.064 77.2431 184.15C76.9801 184.237 76.6832 184.233 76.36 184.135C76.0819 184.052 75.8565 183.917 75.6798 183.733C75.5032 183.549 75.3905 183.316 75.3416 183.038C75.2928 182.76 75.3229 182.444 75.4281 182.087L76.2473 179.34L77.089 179.592L76.2999 182.237C76.2135 182.53 76.2247 182.79 76.3337 183.015C76.4427 183.241 76.6306 183.387 76.8899 183.466C77.0477 183.515 77.2168 183.523 77.3972 183.489C77.5775 183.459 77.7429 183.376 77.8932 183.248C78.0435 183.12 78.16 182.929 78.2314 182.685Z" fill="#0C0C0D"/>
<path d="M82.549 179.532L81.1098 185.371L80.2568 185.161L81.696 179.321L82.549 179.532Z" fill="#0C0C0D"/>
<path d="M82.9022 185.8L84.0484 179.896L84.9089 180.065L84.4843 182.26L84.5369 182.271C84.6045 182.189 84.6985 182.095 84.815 181.993C84.9314 181.892 85.0855 181.809 85.2696 181.753C85.4538 181.692 85.683 181.692 85.9573 181.745C86.3143 181.813 86.6149 181.967 86.863 182.2C87.111 182.433 87.2801 182.737 87.374 183.109C87.468 183.481 87.468 183.906 87.3778 184.383C87.2838 184.86 87.126 185.255 86.9005 185.567C86.6751 185.879 86.4045 186.097 86.0926 186.224C85.777 186.352 85.4425 186.382 85.0855 186.315C84.815 186.262 84.6045 186.176 84.4542 186.052C84.3039 185.928 84.1874 185.796 84.116 185.657C84.0446 185.518 83.992 185.394 83.9582 185.292L83.8868 185.277L83.7515 185.965L82.9022 185.8ZM84.1761 183.752C84.116 184.064 84.1085 184.345 84.1536 184.597C84.1987 184.849 84.2926 185.059 84.4392 185.221C84.5857 185.386 84.7811 185.492 85.0291 185.54C85.2884 185.589 85.5139 185.563 85.7131 185.458C85.9122 185.353 86.0813 185.191 86.2166 184.973C86.3519 184.755 86.4496 184.496 86.506 184.199C86.5623 183.906 86.5699 183.635 86.5285 183.387C86.4872 183.139 86.3895 182.929 86.2429 182.76C86.0964 182.591 85.8897 182.482 85.6304 182.433C85.3786 182.384 85.1569 182.406 84.9615 182.504C84.7661 182.598 84.6008 182.756 84.4655 182.966C84.3302 183.184 84.2362 183.444 84.1761 183.752Z" fill="#0C0C0D"/>
<path d="M90.4404 187.156C90.0195 187.104 89.6663 186.961 89.3769 186.732C89.0876 186.503 88.8771 186.202 88.7494 185.834C88.6178 185.465 88.584 185.052 88.6404 184.59C88.6968 184.124 88.8358 183.729 89.05 183.402C89.2679 183.075 89.5423 182.835 89.8805 182.685C90.2187 182.534 90.5945 182.482 91.0153 182.534C91.4362 182.587 91.7894 182.73 92.0788 182.959C92.3682 183.188 92.5786 183.489 92.7064 183.861C92.8341 184.233 92.8717 184.646 92.8153 185.112C92.759 185.574 92.6199 185.969 92.4057 186.292C92.1915 186.615 91.9135 186.856 91.5753 187.01C91.237 187.164 90.8575 187.209 90.4404 187.156ZM90.5343 186.427C90.8049 186.461 91.0416 186.416 91.237 186.296C91.4325 186.176 91.5903 185.999 91.7068 185.77C91.8233 185.541 91.8984 185.285 91.936 184.996C91.9698 184.71 91.9623 184.443 91.9059 184.191C91.8496 183.94 91.7406 183.733 91.579 183.564C91.4174 183.395 91.2032 183.297 90.9289 183.26C90.6546 183.226 90.4178 183.271 90.2224 183.395C90.027 183.519 89.8692 183.695 89.7527 183.925C89.6362 184.154 89.5611 184.409 89.5235 184.695C89.4897 184.984 89.4972 185.251 89.5535 185.499C89.6099 185.747 89.7189 185.958 89.8805 186.123C90.0421 186.292 90.26 186.394 90.5343 186.427Z" fill="#0C0C0D"/>
<path d="M97.1219 185.766L97.2759 183.132L98.1553 183.184L97.8922 187.686L97.0317 187.637L97.0768 186.856L97.0279 186.852C96.9114 187.085 96.7348 187.277 96.4943 187.423C96.2576 187.57 95.9682 187.634 95.6338 187.611C95.3444 187.596 95.0927 187.517 94.8785 187.374C94.6643 187.235 94.5027 187.032 94.3899 186.773C94.2772 186.514 94.2321 186.198 94.2547 185.826L94.42 182.963L95.2956 183.015L95.134 185.773C95.1152 186.082 95.1866 186.33 95.3482 186.521C95.506 186.713 95.724 186.818 95.9945 186.833C96.1599 186.844 96.3252 186.811 96.4943 186.739C96.6634 186.668 96.8062 186.551 96.9227 186.39C97.043 186.228 97.1068 186.022 97.1219 185.766Z" fill="#0C0C0D"/>
<path d="M100.583 185.056L100.628 187.731L99.7525 187.746L99.6811 183.237L100.523 183.222L100.534 183.955H100.59C100.692 183.714 100.85 183.519 101.071 183.372C101.289 183.226 101.571 183.147 101.909 183.143C102.218 183.139 102.488 183.199 102.721 183.323C102.954 183.447 103.138 183.635 103.266 183.887C103.398 184.139 103.465 184.451 103.473 184.819L103.518 187.686L102.642 187.701L102.597 184.939C102.593 184.612 102.503 184.357 102.33 184.176C102.157 183.996 101.921 183.906 101.624 183.91C101.421 183.913 101.241 183.958 101.083 184.052C100.925 184.143 100.805 184.274 100.714 184.443C100.621 184.612 100.579 184.819 100.583 185.056Z" fill="#0C0C0D"/>
<path d="M106.986 187.604C106.622 187.63 106.291 187.562 105.994 187.393C105.697 187.228 105.453 186.976 105.269 186.642C105.085 186.307 104.972 185.897 104.934 185.409C104.901 184.924 104.949 184.5 105.088 184.143C105.227 183.786 105.43 183.504 105.701 183.301C105.971 183.098 106.287 182.981 106.652 182.955C106.93 182.936 107.159 182.966 107.336 183.045C107.512 183.124 107.655 183.222 107.756 183.338C107.862 183.455 107.941 183.556 108.001 183.647L108.053 183.643L107.892 181.414L108.767 181.351L109.207 187.348L108.35 187.412L108.298 186.713L108.226 186.717C108.181 186.818 108.113 186.931 108.023 187.062C107.933 187.194 107.805 187.31 107.64 187.416C107.478 187.521 107.26 187.581 106.986 187.604ZM107.125 186.841C107.377 186.822 107.584 186.739 107.749 186.593C107.914 186.446 108.035 186.251 108.106 186.006C108.177 185.762 108.204 185.48 108.181 185.165C108.159 184.853 108.095 184.582 107.986 184.353C107.877 184.124 107.734 183.951 107.55 183.834C107.366 183.718 107.148 183.665 106.892 183.684C106.629 183.703 106.415 183.789 106.25 183.936C106.084 184.086 105.964 184.282 105.893 184.526C105.821 184.77 105.795 185.037 105.817 185.334C105.84 185.634 105.904 185.901 106.013 186.134C106.122 186.367 106.268 186.548 106.452 186.675C106.64 186.807 106.866 186.859 107.125 186.841Z" fill="#0C0C0D"/>
<path d="M112.672 181.674L112.537 180.903L117.118 180.092L117.253 180.862L115.404 181.189L116.313 186.341L115.423 186.499L114.513 181.347L112.672 181.674Z" fill="#0C0C0D"/>
<path d="M120.946 185.458C120.537 185.556 120.154 185.548 119.804 185.435C119.451 185.323 119.15 185.116 118.898 184.815C118.647 184.515 118.466 184.143 118.357 183.688C118.248 183.233 118.237 182.816 118.323 182.433C118.41 182.053 118.587 181.73 118.846 181.467C119.109 181.204 119.443 181.024 119.853 180.926C120.262 180.828 120.646 180.836 120.995 180.948C121.349 181.061 121.649 181.272 121.901 181.568C122.153 181.865 122.333 182.245 122.442 182.7C122.551 183.154 122.562 183.568 122.472 183.947C122.386 184.327 122.209 184.646 121.95 184.909C121.694 185.18 121.356 185.36 120.946 185.458ZM120.777 184.74C121.044 184.676 121.247 184.552 121.39 184.368C121.533 184.184 121.615 183.966 121.645 183.71C121.675 183.455 121.653 183.188 121.585 182.906C121.518 182.628 121.412 182.38 121.273 182.166C121.134 181.952 120.958 181.794 120.747 181.692C120.537 181.591 120.3 181.572 120.033 181.636C119.766 181.7 119.56 181.824 119.417 182.012C119.274 182.2 119.192 182.418 119.161 182.673C119.135 182.929 119.154 183.196 119.222 183.477C119.289 183.759 119.394 184.007 119.533 184.222C119.676 184.436 119.849 184.59 120.06 184.691C120.27 184.793 120.507 184.804 120.777 184.74Z" fill="#0C0C0D"/>
<path d="M124.531 184.432L122.75 178.69L123.588 178.431L125.369 184.173L124.531 184.432ZM124.847 182.733L124.524 181.711L124.67 181.666L125.82 179.31L126.824 178.998L125.508 181.681L125.377 181.723L124.847 182.733ZM127.248 183.59L125.072 182.023L125.467 181.257L128.278 183.271L127.248 183.59Z" fill="#0C0C0D"/>
<path d="M131.19 182.29C130.773 182.448 130.383 182.493 130.018 182.429C129.654 182.365 129.327 182.2 129.041 181.937C128.755 181.674 128.53 181.324 128.365 180.885C128.199 180.452 128.139 180.043 128.173 179.652C128.207 179.261 128.338 178.919 128.56 178.622C128.782 178.325 129.09 178.104 129.481 177.957C129.717 177.867 129.965 177.818 130.217 177.814C130.469 177.807 130.717 177.856 130.957 177.957C131.198 178.059 131.423 178.224 131.626 178.453C131.829 178.682 132.006 178.987 132.149 179.37L132.258 179.66L128.906 180.93L128.673 180.313L131.221 179.348C131.138 179.13 131.021 178.957 130.871 178.822C130.721 178.686 130.548 178.604 130.352 178.566C130.157 178.528 129.954 178.551 129.74 178.63C129.511 178.716 129.33 178.852 129.203 179.028C129.075 179.205 129 179.404 128.973 179.618C128.951 179.832 128.977 180.047 129.056 180.257L129.24 180.738C129.345 181.02 129.488 181.242 129.661 181.399C129.834 181.557 130.033 181.655 130.251 181.692C130.469 181.726 130.698 181.7 130.939 181.61C131.093 181.55 131.228 181.475 131.337 181.381C131.45 181.287 131.532 181.178 131.593 181.054C131.653 180.93 131.683 180.791 131.679 180.64L132.509 180.486C132.532 180.738 132.498 180.982 132.404 181.211C132.31 181.444 132.16 181.651 131.953 181.839C131.754 182.023 131.495 182.173 131.19 182.29Z" fill="#0C0C0D"/>
<path d="M134.147 178.089L135.26 180.524L134.459 180.888L132.588 176.785L133.355 176.435L133.659 177.104L133.708 177.082C133.704 176.822 133.772 176.578 133.914 176.356C134.057 176.131 134.283 175.951 134.591 175.808C134.869 175.68 135.143 175.627 135.406 175.646C135.669 175.665 135.91 175.766 136.132 175.943C136.353 176.12 136.541 176.379 136.695 176.717L137.886 179.325L137.086 179.69L135.94 177.176C135.805 176.879 135.621 176.68 135.388 176.582C135.155 176.484 134.903 176.499 134.632 176.619C134.448 176.702 134.302 176.819 134.193 176.965C134.084 177.112 134.027 177.281 134.012 177.472C133.997 177.664 134.05 177.871 134.147 178.089Z" fill="#0C0C0D"/>
</g>
</g>
<defs>
<filter id="filter0_di_277_5053" x="5.55019" y="3.78985" width="191.727" height="194.733" filterUnits="userSpaceOnUse" color-interpolation-filters="sRGB">
<feFlood flood-opacity="0" result="BackgroundImageFix"/>
<feColorMatrix in="SourceAlpha" type="matrix" values="0 0 0 0 0 0 0 0 0 0 0 0 0 0 0 0 0 0 127 0" result="hardAlpha"/>
<feOffset dy="0.764623"/>
<feGaussianBlur stdDeviation="1.14693"/>
<feComposite in2="hardAlpha" operator="out"/>
<feColorMatrix type="matrix" values="0 0 0 0 0.184314 0 0 0 0 0.168627 0 0 0 0 0.262745 0 0 0 0.1 0"/>
<feBlend mode="normal" in2="BackgroundImageFix" result="effect1_dropShadow_277_5053"/>
<feBlend mode="normal" in="SourceGraphic" in2="effect1_dropShadow_277_5053" result="shape"/>
<feColorMatrix in="SourceAlpha" type="matrix" values="0 0 0 0 0 0 0 0 0 0 0 0 0 0 0 0 0 0 127 0" result="hardAlpha"/>
<feOffset dy="-0.764623"/>
<feComposite in2="hardAlpha" operator="arithmetic" k2="-1" k3="1"/>
<feColorMatrix type="matrix" values="0 0 0 0 0.184314 0 0 0 0 0.168627 0 0 0 0 0.262745 0 0 0 0.1 0"/>
<feBlend mode="normal" in2="shape" result="effect2_innerShadow_277_5053"/>
</filter>
<filter id="filter1_f_277_5053" x="0.403168" y="0.884857" width="201.763" height="201.763" filterUnits="userSpaceOnUse" color-interpolation-filters="sRGB">
<feFlood flood-opacity="0" result="BackgroundImageFix"/>
<feBlend mode="normal" in="SourceGraphic" in2="BackgroundImageFix" result="shape"/>
<feGaussianBlur stdDeviation="7.10228" result="effect1_foregroundBlur_277_5053"/>
</filter>
<linearGradient id="paint0_linear_277_5053" x1="116.645" y1="98.4338" x2="92.0893" y2="190.078" gradientUnits="userSpaceOnUse">
<stop stop-color="#5080EC"/>
<stop offset="1" stop-color="#3568DD"/>
</linearGradient>
<linearGradient id="paint1_linear_277_5053" x1="103.196" y1="117.307" x2="118.297" y2="60.9523" gradientUnits="userSpaceOnUse">
<stop stop-color="#5080EC"/>
<stop offset="1" stop-color="#3568DD"/>
</linearGradient>
<linearGradient id="paint2_linear_277_5053" x1="184.649" y1="93.6279" x2="184.649" y2="108.189" gradientUnits="userSpaceOnUse">
<stop stop-color="#5080EC"/>
<stop offset="1" stop-color="#3568DD"/>
</linearGradient>
<linearGradient id="paint3_linear_277_5053" x1="17.8021" y1="93.6278" x2="17.8021" y2="108.189" gradientUnits="userSpaceOnUse">
<stop stop-color="#5080EC"/>
<stop offset="1" stop-color="#3568DD"/>
</linearGradient>
<clipPath id="clip0_277_5053">
<rect x="7.84406" y="8.32532" width="187.139" height="187.139" rx="93.5697" fill="white"/>
</clipPath>
<clipPath id="clip1_277_5053">
<rect width="123.478" height="34.741" fill="white" transform="translate(39.7855 13.2106)"/>
</clipPath>
<clipPath id="clip2_277_5053">
<rect width="73.3" height="13.3252" fill="white" transform="translate(64.5866 174.421)"/>
</clipPath>
</defs>
</svg>
