<svg width="203" height="203" viewBox="0 0 203 203" fill="none" xmlns="http://www.w3.org/2000/svg">
<g filter="url(#filter0_di_277_5260)">
<g clip-path="url(#clip0_277_5260)">
<rect x="7.80807" y="8.32532" width="187.139" height="187.139" rx="93.5697" fill="#63636D"/>
<path d="M98.5594 58.3043L95.1814 59.5604C73.8126 67.5066 57.5372 85.1994 51.3988 107.156V107.156" stroke="#0C0C0D" stroke-width="1.12735" stroke-linecap="round"/>
<ellipse cx="101.19" cy="62.25" rx="5.44884" ry="4.69728" fill="#63636D"/>
<path d="M105.511 131.957V131.957C97.9207 176.376 49.6916 200.952 9.29343 180.986L-23.7577 164.651" stroke="#0C0C0D" stroke-width="1.12735" stroke-linecap="round"/>
<path d="M118.664 135.715V135.715C111.073 180.134 62.8439 204.71 22.4458 184.743L-10.6054 168.408" stroke="#0C0C0D" stroke-width="1.12735" stroke-linecap="round"/>
<path d="M131.816 139.473V139.473C124.225 183.892 75.9963 208.467 35.5981 188.501L2.54692 172.166" stroke="#0C0C0D" stroke-width="1.12735" stroke-linecap="round"/>
<path fill-rule="evenodd" clip-rule="evenodd" d="M144.503 109.279C143.1 109.655 142.267 111.097 142.643 112.501C143.399 115.324 146.693 116.584 149.141 114.987L150.367 114.188L150.882 116.11C151.258 117.514 152.7 118.346 154.104 117.97C155.507 117.594 156.34 116.152 155.964 114.749L155.421 112.724C154.508 109.318 150.534 107.797 147.58 109.724L147.112 110.03C146.47 109.339 145.477 109.018 144.503 109.279Z" fill="#FFEDC2" stroke="#0C0C0D" stroke-width="1.12735" stroke-linecap="round"/>
<rect x="62.5202" y="84.4082" width="7.40712" height="7.40712" rx="1.12735" transform="rotate(76.0551 62.5202 84.4082)" fill="#FF7833" stroke="#0C0C0D" stroke-width="1.12735"/>
<mask id="path-9-inside-1_277_5260" fill="white">
<path fill-rule="evenodd" clip-rule="evenodd" d="M18.7054 107.908C18.7054 118.907 27.5382 127.824 38.434 127.824C38.6212 127.824 38.8077 127.821 38.9936 127.816C38.9958 127.816 38.9977 127.818 38.9977 127.82C38.9977 127.822 38.9994 127.824 39.0016 127.824H57.0133C57.0254 127.824 57.0352 127.814 57.0352 127.802C57.0352 127.791 57.0441 127.781 57.0555 127.78C64.8209 127.187 70.9392 120.619 70.9392 112.605C70.9392 104.199 64.2095 97.3856 55.908 97.3856C55.4698 97.3856 55.0578 97.169 54.8148 96.8044C51.2723 91.4884 45.2577 87.9911 38.434 87.9911C27.5382 87.9911 18.7054 96.908 18.7054 107.908Z"/>
</mask>
<path fill-rule="evenodd" clip-rule="evenodd" d="M18.7054 107.908C18.7054 118.907 27.5382 127.824 38.434 127.824C38.6212 127.824 38.8077 127.821 38.9936 127.816C38.9958 127.816 38.9977 127.818 38.9977 127.82C38.9977 127.822 38.9994 127.824 39.0016 127.824H57.0133C57.0254 127.824 57.0352 127.814 57.0352 127.802C57.0352 127.791 57.0441 127.781 57.0555 127.78C64.8209 127.187 70.9392 120.619 70.9392 112.605C70.9392 104.199 64.2095 97.3856 55.908 97.3856C55.4698 97.3856 55.0578 97.169 54.8148 96.8044C51.2723 91.4884 45.2577 87.9911 38.434 87.9911C27.5382 87.9911 18.7054 96.908 18.7054 107.908Z" fill="white"/>
<path d="M57.0555 127.78L56.9696 126.656L57.0555 127.78ZM54.8148 96.8044L55.7529 96.1792L54.8148 96.8044ZM38.9936 127.816L38.9619 126.689L38.9936 127.816ZM38.434 128.951C26.9055 128.951 17.5781 119.52 17.5781 107.908H19.8328C19.8328 118.295 28.1709 126.697 38.434 126.697V128.951ZM39.0253 128.943C38.8288 128.949 38.6317 128.951 38.434 128.951V126.697C38.6106 126.697 38.7866 126.694 38.9619 126.689L39.0253 128.943ZM39.0016 126.697H57.0133V128.951H39.0016V126.697ZM72.0666 112.605C72.0666 121.201 65.5016 128.265 57.1415 128.904L56.9696 126.656C64.1402 126.108 69.8119 120.037 69.8119 112.605H72.0666ZM55.908 96.2583C64.8453 96.2583 72.0666 103.59 72.0666 112.605H69.8119C69.8119 104.809 63.5737 98.513 55.908 98.513V96.2583ZM38.434 86.8637C45.6535 86.8637 52.0119 90.5655 55.7529 96.1792L53.8767 97.4296C50.5326 92.4114 44.8619 89.1184 38.434 89.1184V86.8637ZM17.5781 107.908C17.5781 96.2955 26.9055 86.8637 38.434 86.8637V89.1184C28.1709 89.1184 19.8328 97.5205 19.8328 107.908H17.5781ZM55.9079 127.802C55.9079 127.194 56.3776 126.701 56.9696 126.656L57.1415 128.904C57.7106 128.861 58.1626 128.387 58.1626 127.802H55.9079ZM57.0133 126.697C56.4028 126.697 55.9079 127.192 55.9079 127.802H58.1626C58.1626 128.437 57.6481 128.951 57.0133 128.951V126.697ZM55.908 98.513C55.0998 98.513 54.3326 98.1137 53.8767 97.4296L55.7529 96.1792C55.783 96.2244 55.8398 96.2583 55.908 96.2583V98.513ZM40.125 127.82C40.125 127.2 39.6221 126.697 39.0016 126.697V128.951C38.3768 128.951 37.8703 128.445 37.8703 127.82H40.125ZM38.9619 126.689C39.5989 126.671 40.125 127.183 40.125 127.82H37.8703C37.8703 128.453 38.3928 128.961 39.0253 128.943L38.9619 126.689Z" fill="#0C0C0D" mask="url(#path-9-inside-1_277_5260)"/>
<path d="M113.993 77.4007C121.196 70.1975 121.196 58.8459 113.993 51.6426C106.79 44.4394 95.4381 44.4394 88.2349 51.6426C81.0317 58.8459 81.0317 70.1975 88.2349 77.4007C89.3896 78.5554 90.7004 79.6489 92.169 80.4915L91.7473 80.9131C90.4541 82.2064 90.4541 84.3032 91.7473 85.5964L94.089 87.9381L91.7473 90.2797C90.4541 91.573 90.4541 93.6697 91.7473 94.963L94.089 97.3046L92.9182 98.4754C90.9783 100.415 90.9783 103.56 92.9182 105.5L97.6014 110.184C99.5413 112.124 102.686 112.124 104.626 110.184L108.34 106.47C109.271 105.539 109.795 104.275 109.795 102.958L109.795 81.6918C109.795 81.0661 110.19 80.3625 110.958 79.8665C112.035 79.1709 113.064 78.3296 113.993 77.4007ZM98.7723 55.1551C100.066 53.8618 102.162 53.8618 103.456 55.1551C104.749 56.4484 104.749 58.5451 103.456 59.8384C102.162 61.1316 100.066 61.1316 98.7723 59.8384C97.479 58.5451 97.479 56.4484 98.7723 55.1551Z" fill="#FFC93E" stroke="#0C0C0D" stroke-width="1.12735" stroke-miterlimit="10" stroke-linejoin="round"/>
<path d="M98.7473 58.68L102.754 56.8861C116.023 50.9447 131.356 51.8491 143.834 59.3091V59.3091C162.332 70.3673 170.266 93.0769 162.68 113.248L159.248 122.375" stroke="#0C0C0D" stroke-width="1.12735" stroke-linecap="round"/>
<path d="M142.634 99.0604C142.881 99.4628 143.465 99.4628 143.712 99.0604L144.714 97.4279C144.772 97.3345 144.852 97.2575 144.948 97.2046L146.597 96.2964C147.034 96.0559 147.034 95.4283 146.597 95.1878L144.948 94.2796C144.852 94.2267 144.772 94.1498 144.714 94.0563L143.712 92.4238C143.465 92.0214 142.881 92.0214 142.634 92.4238L141.632 94.0563C141.574 94.1498 141.494 94.2267 141.398 94.2796L139.749 95.1878C139.312 95.4283 139.312 96.0559 139.749 96.2964L141.398 97.2046C141.494 97.2575 141.574 97.3345 141.632 97.4279L142.634 99.0604Z" fill="#FFC93E" stroke="#0C0C0D" stroke-width="1.12735" stroke-linejoin="round"/>
<path d="M64.2001 60.0496C64.0264 59.7666 63.6152 59.7666 63.4415 60.0496L62.9073 60.9199C62.867 60.9856 62.8103 61.0397 62.7427 61.0769L61.8767 61.554C61.5696 61.7232 61.5696 62.1645 61.8767 62.3337L62.7427 62.8108C62.8103 62.848 62.867 62.9021 62.9073 62.9678L63.4415 63.8381C63.6152 64.1211 64.0264 64.1211 64.2001 63.8381L64.7343 62.9678C64.7746 62.9021 64.8313 62.848 64.8989 62.8108L65.7649 62.3337C66.072 62.1645 66.072 61.7232 65.7649 61.554L64.8989 61.0769C64.8313 61.0397 64.7746 60.9856 64.7343 60.9199L64.2001 60.0496Z" fill="#FFC93E" stroke="#0C0C0D" stroke-width="1.12735" stroke-linejoin="round"/>
<path d="M75.0976 133.327C74.9238 133.044 74.5126 133.044 74.3389 133.327L73.8047 134.197C73.7644 134.263 73.7077 134.317 73.6402 134.354L72.7741 134.831C72.467 135.001 72.467 135.442 72.7741 135.611L73.6402 136.088C73.7077 136.125 73.7644 136.18 73.8047 136.245L74.3389 137.116C74.5126 137.399 74.9238 137.399 75.0976 137.116L75.6317 136.245C75.6721 136.18 75.7288 136.125 75.7963 136.088L76.6624 135.611C76.9695 135.442 76.9695 135.001 76.6624 134.831L75.7963 134.354C75.7288 134.317 75.6721 134.263 75.6317 134.197L75.0976 133.327Z" fill="#FFC93E" stroke="#0C0C0D" stroke-width="1.12735" stroke-linejoin="round"/>
<path d="M69.8367 143.473C69.663 143.19 69.2518 143.19 69.0781 143.473L68.5439 144.343C68.5036 144.409 68.4469 144.463 68.3794 144.5L67.5133 144.978C67.2062 145.147 67.2062 145.588 67.5133 145.757L68.3794 146.234C68.4469 146.272 68.5036 146.326 68.5439 146.391L69.0781 147.262C69.2518 147.545 69.663 147.545 69.8367 147.262L70.3709 146.391C70.4113 146.326 70.468 146.272 70.5355 146.234L71.4016 145.757C71.7087 145.588 71.7087 145.147 71.4016 144.978L70.5355 144.5C70.468 144.463 70.4113 144.409 70.3709 144.343L69.8367 143.473Z" fill="white" stroke="#0C0C0D" stroke-width="1.12735" stroke-linejoin="round"/>
<path fill-rule="evenodd" clip-rule="evenodd" d="M130.755 54.1583C130.651 55.6073 129.392 56.6978 127.943 56.5939L122.4 56.1966C120.951 56.0927 119.861 54.8338 119.965 53.3848C120.069 51.9357 121.327 50.8453 122.776 50.9491L128.319 51.3465C129.768 51.4503 130.859 52.7092 130.755 54.1583Z" fill="#7A9DEC" stroke="#0C0C0D" stroke-width="1.12735" stroke-linecap="round"/>
<path fill-rule="evenodd" clip-rule="evenodd" d="M73.1048 72.5837C74.1543 73.5883 74.1908 75.2534 73.1863 76.3029L69.3438 80.3174C68.3393 81.367 66.6742 81.4034 65.6247 80.3989C64.5752 79.3944 64.5387 77.7292 65.5432 76.6797L69.3857 72.6652C70.3902 71.6157 72.0553 71.5792 73.1048 72.5837Z" fill="#7A9DEC" stroke="#0C0C0D" stroke-width="1.12735" stroke-linecap="round"/>
<path fill-rule="evenodd" clip-rule="evenodd" d="M52.1233 135.86C52.7921 134.57 54.3797 134.067 55.6694 134.736C58.2642 136.081 58.7873 139.569 56.7013 141.617L55.6571 142.642L57.4242 143.558C58.7138 144.227 59.2172 145.815 58.5484 147.104C57.8796 148.394 56.2919 148.897 55.0022 148.228L53.1417 147.264C50.0108 145.64 49.3797 141.432 51.8966 138.961L52.2957 138.569C51.7595 137.794 51.6591 136.755 52.1233 135.86Z" fill="#FFEDC2" stroke="#0C0C0D" stroke-width="1.12735" stroke-linecap="round"/>
<mask id="path-20-inside-2_277_5260" fill="white">
<path fill-rule="evenodd" clip-rule="evenodd" d="M104.857 148.492C104.857 148.492 104.857 148.491 104.857 148.491C98.5668 148.432 93.4863 143.314 93.4863 137.01C93.4863 130.669 98.6269 125.528 104.968 125.528C105.652 125.528 106.322 125.588 106.972 125.702C107.705 125.831 108.424 125.268 108.424 124.525C108.424 112.027 118.556 101.895 131.054 101.895C140.148 101.895 147.99 107.26 151.586 114.998C151.871 115.611 152.506 115.986 153.181 115.957C153.421 115.946 153.663 115.941 153.906 115.941C162.895 115.941 170.182 123.228 170.182 132.217C170.182 141.205 162.895 148.492 153.906 148.492C153.832 148.492 153.758 148.492 153.684 148.491C153.684 148.491 153.684 148.491 153.684 148.491C153.684 148.492 153.683 148.492 153.683 148.492H104.982C104.977 148.492 104.973 148.492 104.968 148.492C104.964 148.492 104.959 148.492 104.955 148.492H104.857C104.857 148.492 104.857 148.492 104.857 148.492Z"/>
</mask>
<path fill-rule="evenodd" clip-rule="evenodd" d="M104.857 148.492C104.857 148.492 104.857 148.491 104.857 148.491C98.5668 148.432 93.4863 143.314 93.4863 137.01C93.4863 130.669 98.6269 125.528 104.968 125.528C105.652 125.528 106.322 125.588 106.972 125.702C107.705 125.831 108.424 125.268 108.424 124.525C108.424 112.027 118.556 101.895 131.054 101.895C140.148 101.895 147.99 107.26 151.586 114.998C151.871 115.611 152.506 115.986 153.181 115.957C153.421 115.946 153.663 115.941 153.906 115.941C162.895 115.941 170.182 123.228 170.182 132.217C170.182 141.205 162.895 148.492 153.906 148.492C153.832 148.492 153.758 148.492 153.684 148.491C153.684 148.491 153.684 148.491 153.684 148.491C153.684 148.492 153.683 148.492 153.683 148.492H104.982C104.977 148.492 104.973 148.492 104.968 148.492C104.964 148.492 104.959 148.492 104.955 148.492H104.857C104.857 148.492 104.857 148.492 104.857 148.492Z" fill="white"/>
<path d="M104.857 148.491L104.867 147.364L104.857 148.491ZM151.586 114.998L150.564 115.473L151.586 114.998ZM106.972 125.702L106.777 126.812L106.972 125.702ZM153.684 148.491L153.699 147.363L153.684 148.491ZM104.867 147.364C99.1953 147.31 94.6136 142.695 94.6136 137.01H92.3589C92.3589 143.933 97.9382 149.553 104.846 149.619L104.867 147.364ZM94.6136 137.01C94.6136 131.291 99.2496 126.655 104.968 126.655V124.401C98.0043 124.401 92.3589 130.046 92.3589 137.01H94.6136ZM104.968 126.655C105.586 126.655 106.19 126.709 106.777 126.812L107.168 124.592C106.453 124.466 105.718 124.401 104.968 124.401V126.655ZM109.551 124.525C109.551 112.649 119.178 103.022 131.054 103.022V100.768C117.933 100.768 107.297 111.404 107.297 124.525H109.551ZM131.054 103.022C139.694 103.022 147.146 108.118 150.564 115.473L152.609 114.523C148.835 106.402 140.603 100.768 131.054 100.768V103.022ZM153.23 117.083C153.454 117.073 153.679 117.068 153.906 117.068V114.814C153.646 114.814 153.388 114.819 153.131 114.831L153.23 117.083ZM153.906 117.068C162.272 117.068 169.054 123.85 169.054 132.217H171.309C171.309 122.605 163.517 114.814 153.906 114.814V117.068ZM169.054 132.217C169.054 140.583 162.272 147.365 153.906 147.365V149.619C163.517 149.619 171.309 141.828 171.309 132.217H169.054ZM153.906 147.365C153.837 147.365 153.768 147.364 153.699 147.363L153.669 149.618C153.748 149.619 153.827 149.619 153.906 149.619V147.365ZM153.683 147.365H104.982V149.619H153.683V147.365ZM104.982 147.365C104.979 147.365 104.976 147.365 104.974 147.365C104.972 147.365 104.97 147.365 104.968 147.365V149.619C104.971 149.619 104.974 149.619 104.976 149.619C104.978 149.619 104.98 149.619 104.982 149.619V147.365ZM104.968 147.365C104.967 147.365 104.965 147.365 104.963 147.365C104.96 147.365 104.958 147.365 104.955 147.365V149.619C104.957 149.619 104.958 149.619 104.961 149.619C104.963 149.619 104.966 149.619 104.968 149.619V147.365ZM104.955 147.365H104.857V149.619H104.955V147.365ZM104.857 147.365C105.48 147.365 105.984 147.869 105.984 148.492H103.73C103.73 149.114 104.235 149.619 104.857 149.619V147.365ZM104.846 149.619C104.236 149.613 103.73 149.118 103.73 148.492H105.984C105.984 147.865 105.478 147.37 104.867 147.364L104.846 149.619ZM152.556 148.491C152.556 147.869 153.061 147.365 153.683 147.365V149.619C154.306 149.619 154.811 149.114 154.811 148.491H152.556ZM150.564 115.473C151.046 116.51 152.111 117.132 153.23 117.083L153.131 114.831C152.901 114.841 152.696 114.711 152.609 114.523L150.564 115.473ZM106.777 126.812C108.147 127.054 109.551 126.021 109.551 124.525H107.297C107.297 124.526 107.297 124.526 107.295 124.53C107.292 124.536 107.284 124.548 107.268 124.561C107.23 124.591 107.192 124.596 107.168 124.592L106.777 126.812ZM153.699 147.363C153.07 147.355 152.556 147.862 152.556 148.491H154.811C154.811 149.119 154.297 149.626 153.669 149.618L153.699 147.363Z" fill="#0C0C0D" mask="url(#path-20-inside-2_277_5260)"/>
<path d="M127.54 104.993C126.856 106.586 125.009 107.323 123.416 106.638C121.823 105.954 121.086 104.107 121.771 102.514C122.455 100.921 124.302 100.184 125.895 100.869C127.488 101.553 128.225 103.4 127.54 104.993Z" fill="#FF6767" stroke="#0C0C0D" stroke-width="1.12735"/>
<path d="M166.997 87.707C166.313 89.3003 164.466 90.037 162.873 89.3524C161.28 88.6679 160.543 86.8214 161.228 85.2281C161.912 83.6348 163.759 82.8981 165.352 83.5826C166.945 84.2672 167.682 86.1137 166.997 87.707Z" fill="#FF7833" stroke="#0C0C0D" stroke-width="1.12735"/>
<path d="M110.421 118.296C110.247 118.013 109.836 118.013 109.662 118.296L109.128 119.166C109.088 119.232 109.031 119.286 108.964 119.323L108.098 119.8C107.791 119.969 107.791 120.411 108.098 120.58L108.964 121.057C109.031 121.094 109.088 121.148 109.128 121.214L109.662 122.084C109.836 122.367 110.247 122.367 110.421 122.084L110.955 121.214C110.996 121.148 111.052 121.094 111.12 121.057L111.986 120.58C112.293 120.411 112.293 119.969 111.986 119.8L111.12 119.323C111.052 119.286 110.996 119.232 110.955 119.166L110.421 118.296Z" fill="white" stroke="#0C0C0D" stroke-width="1.12735" stroke-linejoin="round"/>
<path d="M106.337 147.452L113.498 141.329C114.12 140.797 115.031 141.48 114.694 142.226L113.25 145.425C113.021 145.933 113.392 146.507 113.948 146.507H117.423C118.144 146.507 118.466 147.411 117.907 147.867L109.957 154.355C109.345 154.854 108.47 154.214 108.759 153.48L110.192 149.848C110.39 149.346 110.019 148.801 109.479 148.801H106.835C106.123 148.801 105.796 147.915 106.337 147.452Z" fill="#FFC93E" stroke="#0C0C0D" stroke-width="1.12735"/>
<path d="M164.534 81.4692C164.36 81.1862 163.949 81.1862 163.775 81.4692L163.241 82.3394C163.201 82.4051 163.144 82.4592 163.077 82.4964L162.211 82.9736C161.903 83.1427 161.903 83.584 162.211 83.7532L163.077 84.2304C163.144 84.2676 163.201 84.3217 163.241 84.3874L163.775 85.2576C163.949 85.5406 164.36 85.5406 164.534 85.2576L165.068 84.3874C165.109 84.3217 165.165 84.2676 165.233 84.2304L166.099 83.7532C166.406 83.584 166.406 83.1427 166.099 82.9736L165.233 82.4964C165.165 82.4592 165.109 82.4051 165.068 82.3394L164.534 81.4692Z" fill="#FFC93E" stroke="#0C0C0D" stroke-width="1.12735" stroke-linejoin="round"/>
</g>
<g style="mix-blend-mode:multiply" filter="url(#filter1_f_277_5260)">
<mask id="path-27-outside-3_277_5260" maskUnits="userSpaceOnUse" x="13.6994" y="14.2167" width="175" height="175" fill="black">
<rect fill="white" x="13.6994" y="14.2167" width="175" height="175"/>
<path d="M186.798 101.766C186.798 149.014 148.497 187.316 101.249 187.316C54.0012 187.316 15.6994 149.014 15.6994 101.766C15.6994 54.5185 54.0012 16.2167 101.249 16.2167C148.497 16.2167 186.798 54.5185 186.798 101.766ZM28.8313 101.766C28.8313 141.761 61.2537 174.184 101.249 174.184C141.244 174.184 173.666 141.761 173.666 101.766C173.666 61.771 141.244 29.3485 101.249 29.3485C61.2537 29.3485 28.8313 61.771 28.8313 101.766Z"/>
</mask>
<path d="M186.798 101.766C186.798 149.014 148.497 187.316 101.249 187.316C54.0012 187.316 15.6994 149.014 15.6994 101.766C15.6994 54.5185 54.0012 16.2167 101.249 16.2167C148.497 16.2167 186.798 54.5185 186.798 101.766ZM28.8313 101.766C28.8313 141.761 61.2537 174.184 101.249 174.184C141.244 174.184 173.666 141.761 173.666 101.766C173.666 61.771 141.244 29.3485 101.249 29.3485C61.2537 29.3485 28.8313 61.771 28.8313 101.766Z" fill="white"/>
<path d="M186.798 101.766C186.798 149.014 148.497 187.316 101.249 187.316C54.0012 187.316 15.6994 149.014 15.6994 101.766C15.6994 54.5185 54.0012 16.2167 101.249 16.2167C148.497 16.2167 186.798 54.5185 186.798 101.766ZM28.8313 101.766C28.8313 141.761 61.2537 174.184 101.249 174.184C141.244 174.184 173.666 141.761 173.666 101.766C173.666 61.771 141.244 29.3485 101.249 29.3485C61.2537 29.3485 28.8313 61.771 28.8313 101.766Z" stroke="#5A86EC" stroke-width="2.25469" mask="url(#path-27-outside-3_277_5260)"/>
</g>
<path d="M194.947 101.895C194.947 153.572 153.055 195.465 101.378 195.465C49.7007 195.465 7.80807 153.572 7.80807 101.895C7.80807 50.2179 49.7007 8.32532 101.378 8.32532C153.055 8.32532 194.947 50.2179 194.947 101.895ZM28.3448 101.895C28.3448 142.23 61.0428 174.928 101.378 174.928C141.713 174.928 174.411 142.23 174.411 101.895C174.411 61.56 141.713 28.862 101.378 28.862C61.0428 28.862 28.3448 61.56 28.3448 101.895Z" fill="white"/>
<path fill-rule="evenodd" clip-rule="evenodd" d="M179.346 108.159C179.251 108.217 179.127 108.19 179.065 108.098L178.825 107.746C178.762 107.654 178.783 107.53 178.871 107.462C179.661 106.847 180.309 106.154 180.82 105.412C182.72 102.648 182.72 99.1695 180.82 96.4057C180.309 95.6634 179.661 94.9703 178.871 94.3555C178.783 94.2871 178.762 94.1627 178.825 94.0709L179.065 93.7191C179.127 93.6273 179.251 93.6005 179.346 93.6582L189.992 100.119C190.587 100.479 190.587 101.338 189.992 101.699L179.346 108.159Z" fill="url(#paint0_linear_277_5260)"/>
<path fill-rule="evenodd" clip-rule="evenodd" d="M12.4986 108.159C12.4034 108.217 12.2794 108.19 12.2169 108.098L11.9772 107.746C11.9146 107.654 11.9356 107.53 12.0234 107.462C12.8128 106.847 13.4617 106.154 13.972 105.412C15.8721 102.648 15.8721 99.1695 13.972 96.4057C13.4617 95.6634 12.8128 94.9703 12.0234 94.3555C11.9356 94.2871 11.9146 94.1627 11.9772 94.0709L12.2169 93.7191C12.2794 93.6273 12.4034 93.6005 12.4986 93.6582L23.1447 100.119C23.7389 100.479 23.7389 101.338 23.1447 101.699L12.4986 108.159Z" fill="url(#paint1_linear_277_5260)"/>
<path d="M56.3016 172.833C56.1151 173.129 55.7241 173.217 55.4299 173.029C46.6442 167.392 38.9755 160.18 32.8102 151.757C32.6038 151.475 32.6682 151.079 32.9517 150.875C33.2352 150.67 33.6306 150.735 33.837 151.017C39.9075 159.308 47.4569 166.408 56.1054 171.958C56.3995 172.147 56.4881 172.538 56.3016 172.833Z" fill="#0C0C0D"/>
<path d="M146.077 172.833C146.263 173.129 146.654 173.217 146.949 173.029C155.734 167.392 163.403 160.18 169.568 151.757C169.775 151.475 169.71 151.079 169.427 150.875C169.143 150.67 168.748 150.735 168.542 151.017C162.471 159.308 154.922 166.408 146.273 171.958C145.979 172.147 145.89 172.538 146.077 172.833Z" fill="#0C0C0D"/>
<path d="M195.394 100.768C196.185 100.768 196.827 100.127 196.815 99.336C196.634 87.2889 194.174 75.3804 189.56 64.2411C184.764 52.6608 177.733 42.1386 168.87 33.2753C160.006 24.4121 149.484 17.3814 137.904 12.5847C126.324 7.78794 113.912 5.31909 101.377 5.31909C88.8428 5.31909 76.431 7.78794 64.8507 12.5847C53.2703 17.3814 42.7481 24.4121 33.8849 33.2754C25.0217 42.1386 17.991 52.6608 13.1942 64.2411C8.58021 75.3804 6.1201 87.2889 5.93939 99.336C5.92753 100.127 6.56966 100.768 7.36038 100.768C8.1511 100.768 8.79095 100.127 8.80318 99.336C8.98367 87.665 11.3696 76.1288 15.8397 65.3369C20.4926 54.104 27.3123 43.8975 35.9097 35.3001C44.507 26.7028 54.7135 19.883 65.9465 15.2302C77.1794 10.5773 89.2188 8.18255 101.377 8.18255C113.536 8.18255 125.575 10.5773 136.808 15.2302C148.041 19.883 158.248 26.7028 166.845 35.3001C175.442 43.8974 182.262 54.104 186.915 65.3369C191.385 76.1288 193.771 87.665 193.951 99.336C193.964 100.127 194.603 100.768 195.394 100.768Z" fill="#3568DD"/>
<g clip-path="url(#clip1_277_5260)">
<path d="M69.0343 176.691C69.1207 176.424 69.0907 176.176 68.9479 175.939C68.8051 175.702 68.5759 175.518 68.264 175.375C68.0385 175.278 67.828 175.225 67.6326 175.221C67.4372 175.218 67.2644 175.255 67.1216 175.334C66.975 175.417 66.866 175.537 66.7946 175.691C66.7383 175.819 66.7157 175.947 66.7345 176.071C66.7533 176.195 66.7984 176.307 66.8698 176.416C66.945 176.525 67.0276 176.627 67.1253 176.721C67.223 176.815 67.317 176.901 67.4147 176.976L67.8882 177.36C68.0422 177.48 68.1963 177.619 68.3466 177.777C68.4969 177.935 68.6247 178.107 68.7262 178.295C68.8276 178.483 68.8878 178.69 68.9065 178.912C68.9216 179.133 68.8765 179.366 68.7637 179.611C68.6247 179.922 68.418 180.159 68.1512 180.328C67.8844 180.497 67.565 180.58 67.2005 180.584C66.836 180.588 66.4377 180.49 66.0093 180.294C65.5997 180.11 65.2727 179.881 65.0322 179.618C64.7917 179.351 64.6414 179.062 64.5813 178.742C64.5212 178.427 64.555 178.1 64.6865 177.762L65.517 178.137C65.4418 178.344 65.4343 178.536 65.4869 178.72C65.5395 178.904 65.641 179.066 65.7913 179.208C65.9416 179.351 66.122 179.471 66.3324 179.569C66.5654 179.674 66.7909 179.731 67.0051 179.742C67.2193 179.753 67.4109 179.712 67.5763 179.629C67.7416 179.543 67.8656 179.411 67.9445 179.235C68.0197 179.073 68.031 178.919 67.9859 178.773C67.9408 178.626 67.8544 178.487 67.7303 178.348C67.6063 178.209 67.456 178.07 67.2832 177.931L66.7195 177.457C66.3362 177.138 66.0694 176.807 65.9191 176.458C65.7688 176.108 65.78 175.744 65.9529 175.364C66.0957 175.049 66.3061 174.812 66.5842 174.654C66.8585 174.496 67.1742 174.421 67.5274 174.421C67.8807 174.421 68.2376 174.507 68.6059 174.673C68.9779 174.842 69.2748 175.056 69.5003 175.315C69.7257 175.575 69.8685 175.856 69.9287 176.157C69.9888 176.458 69.9587 176.758 69.831 177.055L69.0343 176.691Z" fill="#0C0C0D"/>
<path d="M71.3753 182.5C70.9807 182.354 70.6688 182.132 70.4396 181.843C70.2104 181.55 70.0788 181.211 70.0337 180.824C69.9924 180.437 70.0525 180.024 70.2141 179.588C70.3757 179.148 70.6012 178.795 70.8868 178.528C71.1724 178.262 71.4955 178.092 71.86 178.021C72.2246 177.95 72.6041 177.987 72.9987 178.134C73.3932 178.28 73.7051 178.502 73.9344 178.791C74.1636 179.085 74.2951 179.423 74.3365 179.814C74.3778 180.204 74.3177 180.618 74.1523 181.054C73.9907 181.49 73.7653 181.843 73.4797 182.106C73.1941 182.373 72.8709 182.542 72.5064 182.613C72.1419 182.685 71.7736 182.647 71.3753 182.5ZM71.6346 181.813C71.8901 181.907 72.1306 181.918 72.3486 181.847C72.5665 181.775 72.7619 181.64 72.9273 181.444C73.0926 181.249 73.2279 181.016 73.3294 180.745C73.4308 180.475 73.4797 180.212 73.4834 179.956C73.4872 179.701 73.4271 179.472 73.3106 179.269C73.1941 179.069 73.0062 178.919 72.7507 178.825C72.4914 178.728 72.2509 178.716 72.0329 178.791C71.8112 178.867 71.6195 179.002 71.4542 179.197C71.2889 179.393 71.1536 179.626 71.0559 179.896C70.9544 180.167 70.9018 180.43 70.9018 180.689C70.898 180.945 70.9582 181.174 71.0784 181.373C71.1874 181.568 71.3753 181.715 71.6346 181.813Z" fill="#0C0C0D"/>
<path d="M78.1956 182.684L78.9509 180.155L79.7964 180.407L78.5075 184.729L77.6808 184.481L77.9025 183.733L77.8574 183.718C77.6883 183.921 77.4741 184.064 77.2073 184.15C76.9442 184.236 76.6474 184.233 76.3242 184.135C76.0461 184.052 75.8206 183.917 75.644 183.733C75.4674 183.549 75.3547 183.316 75.3058 183.038C75.257 182.76 75.287 182.444 75.3922 182.087L76.2114 179.34L77.0532 179.592L76.2641 182.237C76.1776 182.53 76.1889 182.79 76.2979 183.015C76.4069 183.241 76.5947 183.387 76.854 183.466C77.0119 183.515 77.181 183.522 77.3613 183.489C77.5417 183.459 77.7071 183.376 77.8574 183.248C78.0077 183.12 78.1242 182.929 78.1956 182.684Z" fill="#0C0C0D"/>
<path d="M82.5135 179.532L81.0742 185.371L80.2212 185.161L81.6605 179.321L82.5135 179.532Z" fill="#0C0C0D"/>
<path d="M82.8666 185.8L84.0127 179.896L84.8733 180.065L84.4486 182.26L84.5013 182.271C84.5689 182.188 84.6628 182.095 84.7793 181.993C84.8958 181.892 85.0499 181.809 85.234 181.753C85.4182 181.692 85.6474 181.692 85.9217 181.745C86.2787 181.813 86.5793 181.967 86.8273 182.2C87.0754 182.433 87.2445 182.737 87.3384 183.109C87.4324 183.481 87.4324 183.906 87.3422 184.383C87.2482 184.86 87.0904 185.255 86.8649 185.567C86.6395 185.879 86.3689 186.097 86.057 186.224C85.7413 186.352 85.4069 186.382 85.0499 186.315C84.7793 186.262 84.5689 186.175 84.4186 186.051C84.2683 185.927 84.1518 185.796 84.0804 185.657C84.009 185.518 83.9564 185.394 83.9226 185.292L83.8512 185.277L83.7159 185.965L82.8666 185.8ZM84.1405 183.752C84.0804 184.064 84.0729 184.345 84.118 184.597C84.1631 184.849 84.257 185.059 84.4036 185.221C84.5501 185.386 84.7455 185.492 84.9935 185.54C85.2528 185.589 85.4783 185.563 85.6775 185.458C85.8766 185.353 86.0457 185.191 86.181 184.973C86.3163 184.755 86.414 184.496 86.4704 184.199C86.5267 183.906 86.5342 183.635 86.4929 183.387C86.4516 183.139 86.3539 182.929 86.2073 182.76C86.0608 182.591 85.8541 182.482 85.5948 182.433C85.343 182.384 85.1213 182.406 84.9259 182.504C84.7305 182.598 84.5651 182.756 84.4299 182.966C84.2946 183.184 84.2006 183.444 84.1405 183.752Z" fill="#0C0C0D"/>
<path d="M90.4048 187.156C89.9839 187.104 89.6307 186.961 89.3413 186.732C89.052 186.502 88.8416 186.202 88.7138 185.834C88.5823 185.465 88.5484 185.052 88.6048 184.59C88.6612 184.124 88.8002 183.729 89.0144 183.402C89.2324 183.075 89.5067 182.835 89.8449 182.685C90.1831 182.534 90.5589 182.482 90.9798 182.534C91.4006 182.587 91.7539 182.73 92.0432 182.959C92.3326 183.188 92.543 183.489 92.6708 183.861C92.7985 184.233 92.8361 184.646 92.7797 185.112C92.7234 185.574 92.5843 185.969 92.3701 186.292C92.1559 186.615 91.8779 186.856 91.5397 187.01C91.2015 187.164 90.8219 187.209 90.4048 187.156ZM90.4988 186.427C90.7693 186.461 91.0061 186.416 91.2015 186.296C91.3969 186.176 91.5547 185.999 91.6712 185.77C91.7877 185.54 91.8628 185.285 91.9004 184.996C91.9342 184.71 91.9267 184.443 91.8704 184.191C91.814 183.94 91.705 183.733 91.5434 183.564C91.3818 183.395 91.1676 183.297 90.8933 183.259C90.619 183.226 90.3823 183.271 90.1869 183.395C89.9914 183.519 89.8336 183.695 89.7171 183.925C89.6006 184.154 89.5255 184.409 89.4879 184.695C89.4541 184.984 89.4616 185.251 89.518 185.499C89.5743 185.747 89.6833 185.958 89.8449 186.123C90.0065 186.292 90.2244 186.393 90.4988 186.427Z" fill="#0C0C0D"/>
<path d="M97.0863 185.766L97.2404 183.132L98.1197 183.184L97.8567 187.686L96.9961 187.637L97.0412 186.856L96.9924 186.852C96.8759 187.085 96.6993 187.277 96.4588 187.423C96.222 187.57 95.9327 187.634 95.5982 187.611C95.3089 187.596 95.0571 187.517 94.8429 187.374C94.6287 187.235 94.4671 187.032 94.3544 186.773C94.2417 186.514 94.1966 186.198 94.2191 185.826L94.3845 182.963L95.26 183.015L95.0984 185.773C95.0796 186.082 95.151 186.33 95.3126 186.521C95.4705 186.713 95.6884 186.818 95.959 186.833C96.1243 186.844 96.2897 186.811 96.4588 186.739C96.6279 186.668 96.7707 186.551 96.8872 186.39C97.0074 186.228 97.0713 186.021 97.0863 185.766Z" fill="#0C0C0D"/>
<path d="M100.547 185.056L100.592 187.731L99.7169 187.746L99.6455 183.237L100.487 183.222L100.499 183.955H100.555C100.656 183.714 100.814 183.519 101.036 183.372C101.254 183.226 101.536 183.147 101.874 183.143C102.182 183.139 102.453 183.199 102.686 183.323C102.919 183.447 103.103 183.635 103.23 183.887C103.362 184.139 103.43 184.451 103.437 184.819L103.482 187.686L102.607 187.701L102.562 184.939C102.558 184.612 102.468 184.357 102.295 184.176C102.122 183.996 101.885 183.906 101.588 183.91C101.385 183.913 101.205 183.958 101.047 184.052C100.889 184.143 100.769 184.274 100.679 184.443C100.585 184.612 100.544 184.819 100.547 185.056Z" fill="#0C0C0D"/>
<path d="M106.951 187.603C106.586 187.63 106.255 187.562 105.958 187.393C105.662 187.228 105.417 186.976 105.233 186.641C105.049 186.307 104.936 185.897 104.899 185.409C104.865 184.924 104.914 184.5 105.053 184.143C105.192 183.786 105.395 183.504 105.665 183.301C105.936 183.098 106.252 182.981 106.616 182.955C106.894 182.936 107.123 182.966 107.3 183.045C107.477 183.124 107.619 183.222 107.721 183.338C107.826 183.455 107.905 183.556 107.965 183.646L108.018 183.643L107.856 181.414L108.732 181.35L109.171 187.348L108.315 187.412L108.262 186.713L108.191 186.717C108.146 186.818 108.078 186.931 107.988 187.062C107.898 187.194 107.77 187.31 107.604 187.416C107.443 187.521 107.225 187.581 106.951 187.603ZM107.09 186.841C107.341 186.822 107.548 186.739 107.713 186.593C107.879 186.446 107.999 186.251 108.07 186.006C108.142 185.762 108.168 185.48 108.146 185.165C108.123 184.853 108.059 184.582 107.95 184.353C107.841 184.124 107.698 183.951 107.514 183.834C107.33 183.718 107.112 183.665 106.857 183.684C106.594 183.703 106.379 183.789 106.214 183.936C106.049 184.086 105.928 184.282 105.857 184.526C105.786 184.77 105.759 185.037 105.782 185.334C105.804 185.634 105.868 185.901 105.977 186.134C106.086 186.367 106.233 186.548 106.417 186.675C106.605 186.807 106.83 186.859 107.09 186.841Z" fill="#0C0C0D"/>
<path d="M112.636 181.674L112.501 180.903L117.082 180.092L117.217 180.862L115.368 181.189L116.278 186.341L115.387 186.499L114.478 181.347L112.636 181.674Z" fill="#0C0C0D"/>
<path d="M120.911 185.458C120.501 185.555 120.118 185.548 119.768 185.435C119.415 185.322 119.115 185.116 118.863 184.815C118.611 184.515 118.431 184.143 118.322 183.688C118.213 183.233 118.201 182.816 118.288 182.433C118.374 182.053 118.551 181.73 118.81 181.467C119.073 181.204 119.408 181.024 119.817 180.926C120.227 180.828 120.61 180.836 120.96 180.948C121.313 181.061 121.614 181.272 121.865 181.568C122.117 181.865 122.297 182.245 122.406 182.7C122.515 183.154 122.527 183.568 122.437 183.947C122.35 184.327 122.173 184.646 121.914 184.909C121.659 185.18 121.32 185.36 120.911 185.458ZM120.742 184.74C121.009 184.676 121.211 184.552 121.354 184.368C121.497 184.184 121.58 183.966 121.61 183.71C121.64 183.455 121.617 183.188 121.55 182.906C121.482 182.628 121.377 182.38 121.238 182.166C121.099 181.952 120.922 181.794 120.712 181.692C120.501 181.591 120.264 181.572 119.998 181.636C119.731 181.7 119.524 181.824 119.381 182.012C119.239 182.2 119.156 182.418 119.126 182.673C119.1 182.929 119.118 183.196 119.186 183.477C119.254 183.759 119.359 184.007 119.498 184.221C119.641 184.436 119.814 184.59 120.024 184.691C120.234 184.793 120.471 184.804 120.742 184.74Z" fill="#0C0C0D"/>
<path d="M124.496 184.432L122.715 178.69L123.553 178.431L125.334 184.173L124.496 184.432ZM124.811 182.733L124.488 181.711L124.635 181.666L125.785 179.31L126.788 178.998L125.473 181.681L125.341 181.723L124.811 182.733ZM127.213 183.59L125.037 182.023L125.431 181.257L128.242 183.271L127.213 183.59Z" fill="#0C0C0D"/>
<path d="M131.155 182.29C130.738 182.448 130.347 182.493 129.982 182.429C129.618 182.365 129.291 182.2 129.005 181.937C128.72 181.674 128.494 181.324 128.329 180.884C128.163 180.452 128.103 180.043 128.137 179.652C128.171 179.261 128.302 178.919 128.524 178.622C128.746 178.325 129.054 178.104 129.445 177.957C129.682 177.867 129.93 177.818 130.181 177.814C130.433 177.807 130.681 177.856 130.922 177.957C131.162 178.059 131.388 178.224 131.591 178.453C131.794 178.682 131.97 178.987 132.113 179.37L132.222 179.659L128.87 180.93L128.637 180.313L131.185 179.348C131.102 179.13 130.986 178.957 130.835 178.821C130.685 178.686 130.512 178.603 130.317 178.566C130.121 178.528 129.918 178.551 129.704 178.63C129.475 178.716 129.295 178.852 129.167 179.028C129.039 179.205 128.964 179.404 128.938 179.618C128.915 179.832 128.941 180.046 129.02 180.257L129.204 180.738C129.31 181.02 129.452 181.241 129.625 181.399C129.798 181.557 129.997 181.655 130.215 181.692C130.433 181.726 130.662 181.7 130.903 181.61C131.057 181.55 131.192 181.474 131.301 181.381C131.414 181.287 131.497 181.178 131.557 181.054C131.617 180.93 131.647 180.791 131.643 180.64L132.474 180.486C132.496 180.738 132.462 180.982 132.368 181.211C132.275 181.444 132.124 181.651 131.918 181.839C131.718 182.023 131.459 182.173 131.155 182.29Z" fill="#0C0C0D"/>
<path d="M134.112 178.089L135.224 180.524L134.424 180.888L132.552 176.785L133.319 176.435L133.623 177.104L133.672 177.082C133.668 176.822 133.736 176.578 133.879 176.356C134.022 176.131 134.247 175.95 134.555 175.808C134.833 175.68 135.108 175.627 135.371 175.646C135.634 175.665 135.874 175.766 136.096 175.943C136.318 176.12 136.506 176.379 136.66 176.717L137.851 179.325L137.05 179.69L135.904 177.176C135.769 176.879 135.585 176.679 135.352 176.582C135.119 176.484 134.867 176.499 134.597 176.619C134.412 176.702 134.266 176.819 134.157 176.965C134.048 177.112 133.992 177.281 133.977 177.472C133.962 177.664 134.014 177.871 134.112 178.089Z" fill="#0C0C0D"/>
</g>
<g clip-path="url(#clip2_277_5260)">
<path d="M26.1499 82.625C25.7478 84.1244 25.1616 85.1804 24.3875 85.7816C23.5608 86.443 22.6175 86.6196 21.5541 86.3039C21.5203 85.9845 21.5466 85.6538 21.6443 85.2931C21.7307 84.9774 21.866 84.6881 22.0614 84.4175C22.6025 84.5641 23.061 84.4889 23.4405 84.1996C23.8689 83.8689 24.2071 83.2225 24.4664 82.2643C24.7407 81.2459 24.7557 80.4868 24.5077 79.9758C24.2973 79.5511 23.9779 79.2843 23.542 79.1641C23.0572 79.0326 22.6626 79.1002 22.3507 79.3632C22.0388 79.6263 21.7157 80.0923 21.3812 80.7536L20.7086 82.1027C20.3328 82.8543 20.0021 83.3841 19.5136 83.8576C19.2693 84.0943 19.01 84.271 18.7432 84.3987C18.2021 84.6467 17.4844 84.7031 16.6614 84.4814C15.6693 84.2146 14.9629 83.6396 14.542 82.7641C14.1136 81.8622 14.0873 80.7198 14.4631 79.3332C14.8238 77.9879 15.3875 77.0184 16.1541 76.4171C16.8681 75.861 17.6234 75.6881 18.4125 75.8985C18.4915 75.9211 18.623 75.9624 18.8071 76.0338C18.8522 76.2856 18.8372 76.5712 18.7545 76.8793C18.6606 77.2326 18.514 77.5482 18.3224 77.8338C18.2622 77.8113 18.1908 77.785 18.1307 77.7662C17.8151 77.6797 17.3153 77.7962 16.9958 78.063C16.6013 78.3862 16.3157 78.8747 16.1353 79.5436C15.8835 80.4868 15.8422 81.1933 16.0263 81.663C16.2105 82.1328 16.5374 82.4334 17.0071 82.5612C17.8601 82.7904 18.4915 82.3131 19.0476 81.2234L19.9758 79.3971C20.4305 78.4914 20.9077 77.8752 21.5466 77.428C22.1854 76.9808 23.0159 76.8793 23.9929 77.1424C25.0188 77.4205 25.7403 78.0255 26.1537 78.9612C26.5482 79.9044 26.552 81.1257 26.1499 82.625Z" fill="#3568DD"/>
<path d="M29.4606 67.7929C29.7311 67.6952 30.0543 67.7215 30.4151 67.8756C30.7721 68.0259 31.005 68.2363 31.1103 68.4956L27.9537 75.9286L17.1763 71.3515L20.2652 64.0802C20.5545 63.9749 20.8777 64.0012 21.2385 64.1553C21.6067 64.3131 21.8285 64.5161 21.9149 64.7829L19.6489 70.1152L22.5199 71.3365L24.6581 66.3048C24.9287 66.2071 25.2368 66.2259 25.575 66.3687C25.917 66.5152 26.1387 66.7181 26.2289 66.9699L24.0907 72.0016L27.1232 73.2906L29.4606 67.7929Z" fill="#3568DD"/>
<path d="M37.1341 57.1921C37.2506 57.2635 37.3483 57.3574 37.4273 57.4664C37.3371 57.8798 37.1417 58.327 36.841 58.8155C36.4014 59.5295 35.9392 59.6986 35.3567 59.4092L33.3838 58.4322C32.993 58.2443 32.6436 58.1053 32.2377 58.1842C31.8619 58.2781 31.4523 58.56 31.039 59.2364L29.3216 62.0397L33.1509 64.3846C33.0644 64.734 32.9329 65.061 32.7488 65.3616C32.5609 65.666 32.3317 65.9328 32.0573 66.1695L22.2194 60.142L25.1054 55.4297C25.53 54.7345 25.9358 54.2122 26.3229 53.8739C26.71 53.5357 27.1271 53.314 27.5743 53.1975C28.3145 53.0097 29.1037 53.1675 29.9304 53.6748C30.4452 53.9904 30.8398 54.4113 31.1104 54.9299C31.3847 55.456 31.4899 55.9821 31.4373 56.5044L31.535 56.5646C31.8243 56.3316 32.0761 56.2113 32.4895 56.1775C32.9066 56.1399 33.4778 56.294 34.2181 56.6359L35.7738 57.3575C36.1721 57.5416 36.4577 57.4965 36.6306 57.2147C36.6757 57.1395 36.7095 57.0756 36.7321 57.0192C36.8974 57.0719 37.0327 57.1282 37.1341 57.1921ZM29.0849 55.595C28.6565 55.332 28.2319 55.2418 27.8298 55.3282C27.33 55.4334 26.8528 55.8656 26.383 56.6284L24.7747 59.2514L27.9463 61.1942L29.5434 58.6163C30.0056 57.8648 30.1634 57.2259 30.0281 56.7073C29.9116 56.279 29.5997 55.9107 29.0849 55.595Z" fill="#3568DD"/>
<path d="M36.3333 40.9057L42.3271 51.3675C42.2106 51.717 42.0001 52.0815 41.692 52.4497C41.3688 52.833 41.0494 53.0998 40.7413 53.2501L29.4077 49.1278C29.5467 48.7971 29.7459 48.4664 30.0127 48.1508C30.2156 47.9103 30.5087 47.6547 30.8883 47.3729L40.0461 50.9616L34.988 42.5065C35.1384 42.1571 35.3187 41.8527 35.5404 41.5896C35.7922 41.289 36.0553 41.0635 36.3333 40.9057Z" fill="#3568DD"/>
<path d="M51.0981 40.5638C51.3875 40.5901 51.6655 40.7479 51.9286 41.041C52.1879 41.3266 52.3119 41.6197 52.2969 41.8978L46.2956 47.2978L38.4681 38.5947L44.3416 33.3112C44.6497 33.3375 44.9315 33.499 45.1946 33.7884C45.4614 34.0853 45.5779 34.3671 45.5403 34.6414L41.2301 38.5195L43.3157 40.8381L47.3779 37.1817C47.6672 37.208 47.9378 37.3546 48.1783 37.6251C48.4263 37.9032 48.5428 38.1813 48.5165 38.4481L44.458 42.1082L46.6601 44.5583L51.0981 40.5638Z" fill="#3568DD"/>
<path d="M62.5182 34.183C62.5934 34.2995 62.6422 34.4235 62.6685 34.555C62.4092 34.8932 62.0485 35.2126 61.5675 35.532C60.8685 35.9942 60.3762 35.9529 59.9704 35.4456L58.5913 33.7283C58.317 33.3938 58.0577 33.1195 57.6556 33.018C57.276 32.9466 56.7875 33.0256 56.1261 33.4652L53.3867 35.284L55.8706 39.023C55.6451 39.3049 55.3859 39.5454 55.0965 39.7408C54.7996 39.94 54.4765 40.0827 54.1307 40.1805L47.75 30.5679L52.3533 27.5128C53.0335 27.0619 53.6197 26.7575 54.112 26.6185C54.6042 26.4757 55.0777 26.4494 55.5324 26.532C56.284 26.6748 56.9303 27.1521 57.4677 27.96C57.8021 28.4636 57.9825 29.0085 58.0088 29.5947C58.0351 30.1884 57.9111 30.7107 57.6406 31.1617L57.7044 31.2594C58.0652 31.1692 58.3433 31.1692 58.7341 31.3082C59.1249 31.451 59.5796 31.8306 60.1057 32.4544L61.2142 33.7659C61.4998 34.1003 61.7779 34.1792 62.0522 33.9988C62.1236 33.95 62.18 33.9049 62.2251 33.8673C62.3566 33.9763 62.4543 34.0853 62.5182 34.183ZM55.8932 29.3429C55.6151 28.922 55.2694 28.6627 54.8673 28.5725C54.3712 28.4561 53.755 28.6477 53.0072 29.1437L50.4443 30.846L52.4999 33.9425L55.0326 32.2778C55.7692 31.7892 56.1825 31.2782 56.2765 30.7521C56.3554 30.3162 56.2276 29.8464 55.8932 29.3429Z" fill="#3568DD"/>
<path d="M68.7371 31.4022L64.6374 20.8427C64.7351 20.7262 64.844 20.6285 64.9643 20.5534C65.0845 20.4782 65.2799 20.3843 65.5468 20.2791C65.9751 20.1137 66.3772 20.0273 66.7605 20.0198L75.0277 26.1939L75.0428 26.1901L71.8712 18.0244C72.138 17.7876 72.416 17.6185 72.6941 17.5095C73.0323 17.378 73.3405 17.3217 73.6223 17.3442L77.7221 27.9037C77.5304 28.1179 77.2373 28.302 76.8202 28.4636C76.4181 28.6177 76.016 28.7041 75.6064 28.7229L67.3355 22.53L67.3204 22.5337L70.4958 30.7145C70.2741 30.9325 69.996 31.1016 69.6653 31.2331C69.3647 31.3496 69.0603 31.406 68.7371 31.4022Z" fill="#3568DD"/>
<path d="M80.9653 25.7467C79.7816 24.8824 78.9924 23.5296 78.5979 21.6995C78.1995 19.8544 78.3649 18.2987 79.0864 17.0323C79.8079 15.7659 80.9953 14.958 82.6525 14.6047C84.2834 14.2553 85.6889 14.5033 86.85 15.3601C88.0112 16.2206 88.7891 17.5772 89.1874 19.4298C89.582 21.2674 89.4241 22.8231 88.7177 24.0857C88.015 25.3559 86.8463 26.1638 85.2116 26.517C83.5619 26.8665 82.1415 26.611 80.9653 25.7467ZM86.9477 23.15C87.3573 22.2707 87.4175 21.1772 87.1356 19.8657C86.8538 18.5467 86.3427 17.5697 85.6212 16.9421C84.8885 16.3146 84.0241 16.1079 83.0208 16.3221C82.0024 16.54 81.2847 17.0887 80.8676 17.9642C80.4429 18.8398 80.3753 19.9409 80.6571 21.2598C80.939 22.5713 81.4538 23.5408 82.2016 24.1722C82.9494 24.8035 83.8287 25.0102 84.8396 24.7922C85.8354 24.5742 86.5381 24.0256 86.9477 23.15Z" fill="#3568DD"/>
<path d="M102.137 18.5279C102.276 21.0833 101.494 22.8682 99.7768 23.8903C99.3446 24.1421 98.8749 24.3262 98.3638 24.4503C97.8528 24.5743 97.1726 24.6607 96.3271 24.7095L92.5354 24.92L91.8891 13.2332L95.6807 13.0227C96.6127 12.9701 97.3718 12.9889 97.9542 13.0791C98.5367 13.1693 99.0628 13.3609 99.555 13.6315C101.141 14.5259 102.005 16.1567 102.137 18.5279ZM99.9459 18.6482C99.8632 17.1263 99.4536 16.0553 98.7095 15.4315C98.082 14.9054 97.1801 14.6762 96.0077 14.74L94.0724 14.8453L94.5271 23.0674L96.4624 22.9622C97.6423 22.8983 98.5141 22.5713 99.074 21.9851C99.7392 21.2862 100.029 20.1776 99.9459 18.6482Z" fill="#3568DD"/>
<path d="M112.82 23.4131C112.997 23.6423 113.072 23.9542 113.038 24.345C113.004 24.7283 112.877 25.0177 112.662 25.1981L104.621 24.4916L105.643 12.8348L113.512 13.5263C113.703 13.7705 113.778 14.0824 113.745 14.477C113.711 14.8753 113.583 15.1497 113.358 15.315L107.586 14.8077L107.315 17.9154L112.76 18.3927C112.937 18.6219 113.012 18.9188 112.982 19.2833C112.948 19.6553 112.824 19.9258 112.61 20.0912L107.165 19.6139L106.875 22.8945L112.82 23.4131Z" fill="#3568DD"/>
<path d="M120.96 25.3897C120.34 24.0594 120.302 22.4961 120.843 20.7037C121.388 18.8961 122.286 17.6147 123.526 16.8556C124.766 16.0966 126.202 15.965 127.818 16.4536C129.415 16.9346 130.523 17.8327 131.125 19.1404C131.726 20.4556 131.749 22.0151 131.204 23.8302C130.662 25.6302 129.772 26.9153 128.543 27.6782C127.314 28.4485 125.898 28.5951 124.301 28.1103C122.692 27.6256 121.572 26.7162 120.96 25.3897ZM127.45 26.0097C128.231 25.4385 128.814 24.5103 129.204 23.2251C129.595 21.9325 129.622 20.8314 129.291 19.9333C128.953 19.0314 128.299 18.4302 127.314 18.1333C126.315 17.8327 125.424 17.968 124.639 18.5279C123.846 19.0878 123.252 20.0197 122.861 21.3124C122.474 22.5976 122.455 23.6949 122.805 24.608C123.154 25.5212 123.823 26.1262 124.815 26.4231C125.789 26.7162 126.668 26.5809 127.45 26.0097Z" fill="#3568DD"/>
<path d="M143.022 27.0506C142.477 28.1968 141.688 28.8845 140.647 29.1212C139.704 29.3579 138.557 29.1513 137.197 28.5012L135.13 27.5166L133.451 31.0414C133.094 30.9926 132.755 30.8949 132.436 30.7446C132.113 30.5905 131.823 30.3876 131.56 30.1433L136.524 19.7304L140.478 21.6168C141.917 22.3045 142.83 23.1162 143.21 24.0669C143.6 24.9688 143.54 25.9646 143.022 27.0506ZM141.143 26.2164C141.41 25.6565 141.47 25.1454 141.327 24.6795C141.132 24.0707 140.636 23.5747 139.839 23.1951L137.682 22.1655L135.826 26.0586L137.983 27.0882C138.753 27.4565 139.422 27.5392 139.997 27.3362C140.489 27.1671 140.869 26.7914 141.143 26.2164Z" fill="#3568DD"/>
<path d="M149.196 38.2414C149.245 38.527 149.158 38.8389 148.944 39.1658C148.73 39.489 148.482 39.6806 148.208 39.737L141.474 35.284L147.93 25.5212L154.517 29.8803C154.57 30.1846 154.487 30.4965 154.269 30.8235C154.047 31.1579 153.807 31.3383 153.529 31.3721L148.696 28.178L146.975 30.7784L151.533 33.7921C151.582 34.0777 151.507 34.3746 151.304 34.679C151.098 34.9909 150.857 35.1713 150.594 35.2126L146.036 32.1988L144.221 34.9458L149.196 38.2414Z" fill="#3568DD"/>
<path d="M158.249 47.6923C158.155 47.7938 158.046 47.8727 157.925 47.9328C157.535 47.7675 157.133 47.4969 156.704 47.1136C156.08 46.5537 155.998 46.0689 156.385 45.5466L157.7 43.7804C157.955 43.4309 158.155 43.1115 158.151 42.6982C158.125 42.3111 157.925 41.8602 157.332 41.3303L154.882 39.1357L151.887 42.4802C151.56 42.3336 151.259 42.142 151 41.909C150.733 41.6723 150.511 41.3942 150.331 41.0823L158.027 32.4882L162.142 36.1746C162.75 36.7195 163.19 37.2117 163.453 37.6514C163.716 38.0911 163.859 38.542 163.893 39.0042C163.945 39.7633 163.645 40.5149 162.998 41.2364C162.596 41.6873 162.112 41.9992 161.552 42.1721C160.984 42.3487 160.447 42.3562 159.943 42.2096L159.864 42.2961C160.041 42.623 160.112 42.8898 160.075 43.3069C160.037 43.7203 159.782 44.2577 159.312 44.9228L158.32 46.3245C158.068 46.6852 158.061 46.9746 158.305 47.1925C158.369 47.2526 158.429 47.294 158.478 47.3278C158.406 47.4819 158.328 47.6059 158.249 47.6923ZM161.266 40.0602C161.601 39.6844 161.766 39.2861 161.755 38.8727C161.743 38.3616 161.401 37.813 160.733 37.2155L158.44 35.1637L155.96 37.9332L158.211 39.9662C158.869 40.5562 159.466 40.8268 160 40.7854C160.439 40.7516 160.86 40.5111 161.266 40.0602Z" fill="#3568DD"/>
<path d="M165.806 57.271C165.524 57.0982 165.249 56.8614 164.994 56.5495C164.806 56.3203 164.622 56.0046 164.441 55.6176L165.76 53.4268L162.532 49.5074L160.124 50.3754C159.774 50.1236 159.507 49.8907 159.327 49.6727C159.083 49.3758 158.91 49.0715 158.805 48.7746L170.274 44.8401C170.604 45.0468 170.916 45.3324 171.209 45.6932C171.51 46.0577 171.735 46.4222 171.874 46.7867L165.806 57.271ZM164.231 48.8836L166.7 51.8823L169.725 46.8994L164.231 48.8836Z" fill="#3568DD"/>
<path d="M180.055 58.3307C179.98 58.6313 179.781 58.8756 179.469 59.0785C179.142 59.2852 178.849 59.3528 178.571 59.2814L176.666 56.2977L168.432 61.5587C168.154 61.3294 167.918 61.0664 167.73 60.7695C167.534 60.4614 167.399 60.142 167.313 59.8075L175.546 54.5466L173.637 51.5553C173.697 51.2848 173.889 51.0405 174.208 50.8376C174.52 50.6384 174.828 50.5633 175.125 50.6084L180.055 58.3307Z" fill="#3568DD"/>
<path d="M172.464 65.9628C173.047 64.6175 174.193 63.5541 175.895 62.7687C177.609 61.9795 179.164 61.7992 180.555 62.2238C181.945 62.6484 182.994 63.633 183.704 65.1699C184.403 66.6843 184.467 68.1085 183.884 69.4275C183.298 70.7503 182.144 71.8025 180.427 72.5954C178.721 73.3808 177.169 73.5687 175.782 73.1553C174.392 72.7457 173.343 71.7837 172.648 70.2693C171.938 68.7399 171.878 67.3006 172.464 65.9628ZM176.305 71.2313C177.252 71.438 178.33 71.2613 179.548 70.6977C180.773 70.134 181.614 69.4238 182.069 68.582C182.52 67.7328 182.535 66.8422 182.103 65.9102C181.667 64.9632 180.976 64.3845 180.032 64.1703C179.089 63.9486 177.996 64.1215 176.771 64.6852C175.553 65.2451 174.719 65.9591 174.268 66.8271C173.817 67.6952 173.809 68.5971 174.242 69.5365C174.674 70.4572 175.358 71.0246 176.305 71.2313Z" fill="#3568DD"/>
<path d="M179.078 86.8413C178.946 86.8789 178.811 86.8864 178.676 86.8714C178.435 86.5219 178.244 86.0785 178.09 85.5223C177.864 84.7144 178.056 84.2597 178.665 84.0305L180.724 83.2526C181.126 83.0948 181.468 82.9332 181.686 82.5837C181.87 82.2455 181.945 81.7532 181.735 80.9904L180.852 77.8263L176.53 79.0326C176.335 78.7319 176.184 78.4125 176.09 78.0743C175.996 77.7286 175.959 77.3791 175.97 77.0184L187.082 73.9219L188.563 79.243C188.781 80.0284 188.886 80.6785 188.871 81.1933C188.856 81.7044 188.732 82.1628 188.514 82.5724C188.149 83.2413 187.492 83.7111 186.56 83.9704C185.977 84.1319 185.402 84.1357 184.839 83.9816C184.264 83.8238 183.809 83.542 183.463 83.1474L183.351 83.1774C183.324 83.5457 183.242 83.8125 182.982 84.1432C182.727 84.4701 182.223 84.7858 181.472 85.0939L179.882 85.7403C179.476 85.9056 179.315 86.1461 179.405 86.4655C179.427 86.5482 179.454 86.6196 179.476 86.6722C179.326 86.7474 179.191 86.8075 179.078 86.8413ZM185.725 82.0388C186.21 81.9035 186.563 81.6555 186.774 81.2985C187.037 80.8626 187.048 80.2163 186.808 79.352L185.981 76.3908L182.4 77.3866L183.2 80.3102C183.437 81.1595 183.794 81.7119 184.267 81.9637C184.662 82.1779 185.143 82.2004 185.725 82.0388Z" fill="#3568DD"/>
</g>
</g>
<defs>
<filter id="filter0_di_277_5260" x="3.64537" y="3.78985" width="195.464" height="194.733" filterUnits="userSpaceOnUse" color-interpolation-filters="sRGB">
<feFlood flood-opacity="0" result="BackgroundImageFix"/>
<feColorMatrix in="SourceAlpha" type="matrix" values="0 0 0 0 0 0 0 0 0 0 0 0 0 0 0 0 0 0 127 0" result="hardAlpha"/>
<feOffset dy="0.764623"/>
<feGaussianBlur stdDeviation="1.14693"/>
<feComposite in2="hardAlpha" operator="out"/>
<feColorMatrix type="matrix" values="0 0 0 0 0.184314 0 0 0 0 0.168627 0 0 0 0 0.262745 0 0 0 0.1 0"/>
<feBlend mode="normal" in2="BackgroundImageFix" result="effect1_dropShadow_277_5260"/>
<feBlend mode="normal" in="SourceGraphic" in2="effect1_dropShadow_277_5260" result="shape"/>
<feColorMatrix in="SourceAlpha" type="matrix" values="0 0 0 0 0 0 0 0 0 0 0 0 0 0 0 0 0 0 127 0" result="hardAlpha"/>
<feOffset dy="-0.764623"/>
<feComposite in2="hardAlpha" operator="arithmetic" k2="-1" k3="1"/>
<feColorMatrix type="matrix" values="0 0 0 0 0.184314 0 0 0 0 0.168627 0 0 0 0 0.262745 0 0 0 0.1 0"/>
<feBlend mode="normal" in2="shape" result="effect2_innerShadow_277_5260"/>
</filter>
<filter id="filter1_f_277_5260" x="0.367493" y="0.884796" width="201.763" height="201.763" filterUnits="userSpaceOnUse" color-interpolation-filters="sRGB">
<feFlood flood-opacity="0" result="BackgroundImageFix"/>
<feBlend mode="normal" in="SourceGraphic" in2="BackgroundImageFix" result="shape"/>
<feGaussianBlur stdDeviation="7.10228" result="effect1_foregroundBlur_277_5260"/>
</filter>
<linearGradient id="paint0_linear_277_5260" x1="184.613" y1="93.6278" x2="184.613" y2="108.189" gradientUnits="userSpaceOnUse">
<stop stop-color="#5080EC"/>
<stop offset="1" stop-color="#3568DD"/>
</linearGradient>
<linearGradient id="paint1_linear_277_5260" x1="17.7658" y1="93.6278" x2="17.7658" y2="108.189" gradientUnits="userSpaceOnUse">
<stop stop-color="#5080EC"/>
<stop offset="1" stop-color="#3568DD"/>
</linearGradient>
<clipPath id="clip0_277_5260">
<rect x="7.80807" y="8.32532" width="187.139" height="187.139" rx="93.5697" fill="white"/>
</clipPath>
<clipPath id="clip1_277_5260">
<rect width="73.3" height="13.3252" fill="white" transform="translate(64.5504 174.421)"/>
</clipPath>
<clipPath id="clip2_277_5260">
<rect width="174.675" height="74.0403" fill="white" transform="translate(14.196 12.8348)"/>
</clipPath>
</defs>
</svg>
