<svg width="203" height="203" viewBox="0 0 203 203" fill="none" xmlns="http://www.w3.org/2000/svg">
<g filter="url(#filter0_di_277_5342)">
<g clip-path="url(#clip0_277_5342)">
<rect x="8.28946" y="8.32532" width="187.139" height="187.139" rx="93.5697" fill="#EDF3FF"/>
<path opacity="0.2" d="M49.2835 45.0933L32.9029 56.2375L20.69 118.805C24.4478 186.133 92.6522 187.16 92.6522 190.016C92.6522 193.586 182.276 154.504 182.276 151.31C182.276 148.755 194.113 138.158 194.113 68.8262L171.942 38.3878L186.222 68.8262L171.466 60.5875C156.215 52.0722 137.046 60.4387 132.919 77.4116L132.753 78.0951C130.715 86.4778 124.521 93.23 116.345 95.9823L112.564 97.2552C95.3112 103.063 78.4806 87.4516 82.977 69.8118L83.2137 68.8831C86.5859 55.6537 77.3059 42.5519 63.707 41.3431C58.6104 40.89 53.5141 42.2151 49.2835 45.0933Z" fill="url(#paint0_linear_277_5342)"/>
<path opacity="0.7" d="M36.9929 79.91L25.1993 75.5902L27.2661 123.69C31.0239 191.018 92.6522 187.16 92.6522 190.016C92.6522 193.586 182.276 154.504 182.276 151.31C182.276 148.755 194.113 138.158 194.113 68.8262L171.942 38.3878L186.222 68.8262L169.277 88.4073C163.738 94.8077 159.748 102.398 157.617 110.59L150.18 139.182C147.321 150.176 133.878 154.3 125.345 146.801L96.7557 133.723C92.3436 131.704 87.4793 130.878 82.6482 131.327L62.8751 133.162C48.2214 134.522 38.3151 118.555 46.0414 106.03C51.9685 96.4214 47.5937 83.7928 36.9929 79.91Z" fill="url(#paint1_linear_277_5342)"/>
<path d="M149.328 122.688C148.61 123.361 147.579 123.856 146.41 124.05C145.24 124.245 144.104 124.11 143.207 123.706C142.314 123.303 141.597 122.599 141.438 121.639C141.42 121.532 141.384 121.393 141.334 121.203C141.287 121.024 141.231 120.81 141.19 120.594C141.149 120.38 141.119 120.138 141.132 119.898C141.146 119.658 141.208 119.381 141.389 119.138C141.813 118.573 142.564 118.299 143.236 118.13C143.76 117.999 144.347 117.908 144.874 117.826C145.044 117.8 145.208 117.774 145.362 117.749C145.624 117.705 145.899 117.648 146.189 117.588C146.231 117.579 146.272 117.57 146.314 117.562C146.645 117.493 146.994 117.423 147.333 117.376C147.974 117.286 148.739 117.249 149.331 117.608L149.331 117.608M149.328 122.688L149.331 117.608L149.04 118.087L149.331 117.608M149.328 122.688C150.043 122.019 150.494 121.121 150.334 120.16M149.328 122.688L150.334 120.16M149.331 117.608C149.595 117.769 149.769 118.007 149.887 118.235M149.331 117.608L149.887 118.235M150.334 120.16C150.323 120.094 150.311 120.002 150.297 119.894M150.334 120.16L150.297 119.894M150.297 119.894C150.261 119.627 150.212 119.263 150.138 118.95M150.297 119.894L150.138 118.95M150.138 118.95C150.083 118.716 150.005 118.464 149.887 118.235M150.138 118.95L149.887 118.235" fill="#A48124" stroke="#0C0C0D" stroke-width="1.12735"/>
<path d="M146.163 122.567C147.332 122.373 148.364 121.878 149.082 121.205C149.797 120.536 150.248 119.638 150.088 118.677C149.928 117.717 149.211 117.013 148.319 116.61C147.421 116.206 146.285 116.071 145.116 116.265C143.947 116.46 142.915 116.955 142.197 117.627C141.482 118.297 141.032 119.195 141.191 120.156C141.351 121.116 142.068 121.82 142.961 122.223C143.858 122.627 144.994 122.762 146.163 122.567Z" fill="#FFC93E" stroke="#0C0C0D" stroke-width="1.12735"/>
<path d="M93.4081 80.001L93.4081 85.3496C93.4081 88.0725 94.4739 90.6872 96.3776 92.6341L106.099 102.576C108.367 104.896 111.474 106.204 114.719 106.204L123.549 106.204L123.549 95.5066L118.501 86.5227C113.897 78.3315 113.538 68.4199 117.537 59.9173L121.738 50.9862C125.973 41.9824 123.371 31.2449 115.484 25.1784C114.1 24.1138 112.572 23.2516 110.945 22.6178L107.373 21.2259C101.843 19.0713 95.5547 20.8853 92.022 25.6545L90.8036 27.2994C87.8876 31.2359 87.5529 36.5171 89.9484 40.7903C92.085 44.6015 96.1136 46.9615 100.483 46.9615L100.72 46.9615C101.061 46.9615 101.24 46.5577 101.012 46.3043L98.1125 43.0822C96.8696 41.7011 96.0614 39.9843 95.7892 38.1464L95.6782 37.3977C95.5055 36.2319 95.8325 35.0473 96.5788 34.1352C99.0305 31.1387 103.266 30.3078 106.668 32.1558L107.982 32.8698C112.611 35.3841 113.726 41.5355 110.274 45.5142L103.27 53.5859C96.9099 60.9164 93.4081 70.2958 93.4081 80.001Z" fill="#BFA3F4" stroke="#0C0C0D" stroke-width="1.12735"/>
<path d="M102.968 85.2623L102.843 84.9079C100.716 78.9028 100.55 72.3775 102.369 66.2719L104.456 63.4733L113.451 50.0801L115.264 43.3347C116.366 39.2318 115.669 34.8537 113.346 31.2966C111.979 29.2043 110.038 27.5513 107.754 26.5364L104.823 25.2337C102.093 24.0203 98.9392 24.2394 96.4032 25.8184C92.498 28.2499 90.5877 32.9082 91.6613 37.3814L91.8557 38.1917C92.8435 42.3072 96.0279 45.5379 100.129 46.5849L100.406 46.6557C100.765 46.7473 101.025 46.3177 100.777 46.0423L98.1127 43.0823C96.8698 41.7012 96.0616 39.9844 95.7894 38.1465L95.6784 37.3978C95.5057 36.232 95.8327 35.0474 96.579 34.1353C99.0307 31.1388 103.266 30.3079 106.668 32.1559L107.983 32.8699C112.611 35.3842 113.726 41.5356 110.274 45.5142L103.297 53.5556C96.9213 60.9036 93.4244 70.3129 93.4537 80.0412L93.4616 82.6636L94.3726 86.4617L95.4073 100.016L102.369 99.2644L111.364 92.4587L108.366 92.5919L105.567 89.4602L102.968 85.2623Z" fill="#FFEDC2"/>
<path d="M93.765 80.3041L93.9316 87.4743C94.0451 92.3586 97.3355 96.5958 102.04 97.9155L108.143 99.6276L123.362 105.076L123.362 95.6945L118.311 86.4914C113.821 78.3086 113.514 68.4717 117.487 60.0254L121.738 50.9862C125.973 41.9824 123.371 31.2449 115.485 25.1784C114.101 24.1138 112.572 23.2516 110.945 22.6178L107.373 21.2259C101.843 19.0713 95.5549 20.8853 92.0222 25.6545L90.8038 27.2994C87.8878 31.2359 87.5531 36.5171 89.9487 40.7903C92.0853 44.6015 96.1138 46.9615 100.483 46.9615L100.72 46.9615C101.061 46.9615 101.241 46.5577 101.013 46.3043L98.1127 43.0822C96.8698 41.7011 96.0617 39.9843 95.7894 38.1464L95.6785 37.3977C95.5058 36.2319 95.8327 35.0473 96.579 34.1352C99.0307 31.1387 103.266 30.3078 106.668 32.1558L107.983 32.8698C112.611 35.3842 113.726 41.5355 110.274 45.5142L103.472 53.3538C96.9964 60.817 93.5355 70.426 93.765 80.3041Z" stroke="#0C0C0D" stroke-width="1.12735"/>
<path d="M100.923 46.6807C97.0586 45.2148 90.0089 41.4034 91.1283 33.0876V33.0876C93.364 16.4797 120.177 27.3193 115.801 43.4956C115.38 45.0518 114.841 46.4667 114.162 47.6812C104.932 64.1929 93.9726 68.6706 105.167 89.6599L110.585 100.567" stroke="#0C0C0D" stroke-width="1.12735"/>
<path d="M103.172 75.14C103.359 73.5433 100.883 68.3862 96.9925 72.3932C96.0846 73.3284 95.8522 74.3994 96.0169 75.439C96.6747 79.5903 102.685 79.3147 103.172 75.14Z" fill="#BFA3F4" stroke="#0C0C0D" stroke-width="1.12735" stroke-linejoin="round"/>
<path d="M110.381 92.2594C110.537 90.9268 108.471 86.6225 105.223 89.9669C104.466 90.7474 104.272 91.6413 104.409 92.5089C104.958 95.9738 109.974 95.7438 110.381 92.2594Z" fill="#D8C5F9" stroke="#0C0C0D" stroke-width="1.12735" stroke-linejoin="round"/>
<path d="M99.4435 32.3789C99.5167 31.1732 97.7758 27.3568 94.5783 30.1879C93.7952 30.8814 93.578 31.6095 93.6961 32.2859C94.1848 35.0831 99.2712 35.2133 99.4435 32.3789Z" fill="#D8C5F9" stroke="#0C0C0D" stroke-width="1.12735" stroke-linejoin="round"/>
<path d="M98.4102 38.9336C98.472 37.9172 97.0044 34.7 94.309 37.0866C93.6488 37.6712 93.4657 38.2849 93.5653 38.8551C93.9773 41.2132 98.265 41.3229 98.4102 38.9336Z" fill="#D8C5F9" stroke="#0C0C0D" stroke-width="1.12735" stroke-linejoin="round"/>
<path d="M107.969 27.42C108.043 26.2143 105.57 22.1447 102.372 24.9758C101.448 25.7944 101.448 26.831 101.889 27.813C103.21 30.753 107.774 30.6371 107.969 27.42Z" fill="#D8C5F9" stroke="#0C0C0D" stroke-width="1.12735" stroke-linejoin="round"/>
<path d="M114.766 37.4149C114.84 36.2092 112.367 32.1395 109.169 34.9706C108.245 35.7893 108.245 36.8259 108.686 37.8078C110.007 40.7479 114.571 40.6319 114.766 37.4149Z" fill="#D8C5F9" stroke="#0C0C0D" stroke-width="1.12735" stroke-linejoin="round"/>
<path d="M112.436 49.4334C112.689 47.7786 110.666 42.5911 106.867 46.9191C106.128 47.7605 105.818 48.6752 105.792 49.5716C105.668 53.8903 111.78 53.7039 112.436 49.4334Z" fill="#BFA3F4" stroke="#0C0C0D" stroke-width="1.12735" stroke-linejoin="round"/>
<path d="M104.639 85.0495C104.893 83.3947 102.87 78.2072 99.0703 82.5352C98.3316 83.3766 98.0213 84.2913 97.9955 85.1877C97.8714 89.5064 103.984 89.32 104.639 85.0495Z" fill="#D8C5F9" stroke="#0C0C0D" stroke-width="1.12735" stroke-linejoin="round"/>
<path d="M105.616 62.2156C105.812 60.5375 103.21 55.1174 99.1205 59.3288C98.1662 60.3116 97.922 61.4373 98.0951 62.5299C98.7865 66.893 105.103 66.6033 105.616 62.2156Z" fill="#BFA3F4" stroke="#0C0C0D" stroke-width="1.12735" stroke-linejoin="round"/>
<path d="M98.6695 177.329L98.6695 182.677C98.6695 185.4 99.7354 188.015 101.639 189.962L111.36 199.904C113.628 202.224 116.736 203.531 119.98 203.531L128.811 203.531L128.811 192.834L123.762 183.85C119.159 175.659 118.8 165.748 122.799 157.245L126.999 148.314C131.234 139.31 128.632 128.572 120.746 122.506C119.362 121.441 117.834 120.579 116.207 119.945L112.634 118.553C107.104 116.399 100.816 118.213 97.2835 122.982L96.065 124.627C93.1491 128.563 92.8143 133.845 95.2099 138.118C97.3465 141.929 101.375 144.289 105.744 144.289L105.981 144.289C106.322 144.289 106.502 143.885 106.274 143.632L103.374 140.41C102.131 139.029 101.323 137.312 101.051 135.474L100.94 134.725C100.767 133.559 101.094 132.375 101.84 131.463C104.292 128.466 108.527 127.635 111.929 129.483L113.244 130.197C117.872 132.712 118.987 138.863 115.535 142.842L108.532 150.913C102.171 158.244 98.6695 167.623 98.6695 177.329Z" fill="#8D5FEA" stroke="#0C0C0D" stroke-width="1.12735"/>
<path d="M108.23 182.59L108.104 182.236C105.977 176.23 105.811 169.705 107.63 163.6L109.717 160.801L118.713 147.408L120.525 140.662C121.628 136.559 120.93 132.181 118.607 128.624C117.241 126.532 115.299 124.879 113.016 123.864L110.084 122.561C107.355 121.348 104.201 121.567 101.665 123.146C97.7595 125.578 95.8492 130.236 96.9227 134.709L97.1172 135.519C98.1049 139.635 101.289 142.866 105.39 143.912L105.667 143.983C106.026 144.075 106.286 143.645 106.038 143.37L103.374 140.41C102.131 139.029 101.323 137.312 101.051 135.474L100.94 134.725C100.767 133.56 101.094 132.375 101.84 131.463C104.292 128.466 108.528 127.635 111.93 129.483L113.244 130.197C117.873 132.712 118.987 138.863 115.535 142.842L108.558 150.883C102.183 158.231 98.6859 167.641 98.7152 177.369L98.7231 179.991L99.6341 183.789L100.669 197.344L107.63 196.592L116.625 189.786L113.627 189.92L110.828 186.788L108.23 182.59Z" fill="#FFEDC2"/>
<path d="M99.0265 177.632L99.1931 184.802C99.3066 189.686 102.597 193.923 107.301 195.243L113.404 196.955L128.623 202.404L128.623 193.022L123.573 183.819C119.082 175.636 118.776 165.799 122.748 157.353L127 148.314C131.234 139.31 128.633 128.572 120.746 122.506C119.362 121.441 117.834 120.579 116.207 119.945L112.634 118.553C107.104 116.399 100.816 118.213 97.2837 122.982L96.0653 124.627C93.1493 128.563 92.8146 133.845 95.2102 138.118C97.3468 141.929 101.375 144.289 105.745 144.289L105.981 144.289C106.322 144.289 106.502 143.885 106.274 143.632L103.374 140.41C102.131 139.029 101.323 137.312 101.051 135.474L100.94 134.725C100.767 133.559 101.094 132.375 101.841 131.463C104.292 128.466 108.528 127.635 111.93 129.483L113.244 130.197C117.873 132.712 118.987 138.863 115.535 142.842L108.733 150.681C102.258 158.145 98.797 167.754 99.0265 177.632Z" stroke="#0C0C0D" stroke-width="1.12735"/>
<path d="M106.185 144.008C102.32 142.542 95.2703 138.731 96.3898 130.415V130.415C98.6255 113.807 125.439 124.647 121.062 140.823C120.641 142.379 120.103 143.794 119.424 145.009C110.193 161.52 99.2341 165.998 110.428 186.987L115.846 197.895" stroke="#0C0C0D" stroke-width="1.12735"/>
<path d="M108.434 172.468C108.62 170.871 106.145 165.714 102.254 169.721C101.346 170.656 101.114 171.727 101.278 172.767C101.936 176.918 107.946 176.642 108.434 172.468Z" fill="#8D5FEA" stroke="#0C0C0D" stroke-width="1.12735" stroke-linejoin="round"/>
<path d="M115.642 189.587C115.798 188.254 113.732 183.95 110.485 187.294C109.727 188.075 109.533 188.969 109.67 189.837C110.219 193.301 115.236 193.071 115.642 189.587Z" fill="#D8C5F9" stroke="#0C0C0D" stroke-width="1.12735" stroke-linejoin="round"/>
<path d="M104.705 129.706C104.778 128.501 103.037 124.684 99.8398 127.515C99.0566 128.209 98.8394 128.937 98.9576 129.613C99.4463 132.411 104.533 132.541 104.705 129.706Z" fill="#D8C5F9" stroke="#0C0C0D" stroke-width="1.12735" stroke-linejoin="round"/>
<path d="M103.672 136.261C103.733 135.245 102.266 132.028 99.5705 134.414C98.9103 134.999 98.7272 135.612 98.8268 136.183C99.2388 138.541 103.526 138.65 103.672 136.261Z" fill="#D8C5F9" stroke="#0C0C0D" stroke-width="1.12735" stroke-linejoin="round"/>
<path d="M113.231 124.748C113.304 123.542 110.831 119.472 107.634 122.303C106.709 123.122 106.71 124.159 107.151 125.141C108.471 128.081 113.035 127.965 113.231 124.748Z" fill="#D8C5F9" stroke="#0C0C0D" stroke-width="1.12735" stroke-linejoin="round"/>
<path d="M120.028 134.742C120.101 133.537 117.628 129.467 114.43 132.298C113.506 133.117 113.506 134.153 113.947 135.135C115.268 138.075 119.832 137.96 120.028 134.742Z" fill="#D8C5F9" stroke="#0C0C0D" stroke-width="1.12735" stroke-linejoin="round"/>
<path d="M117.697 146.761C117.951 145.106 115.927 139.919 112.128 144.247C111.389 145.088 111.079 146.003 111.053 146.899C110.929 151.218 117.041 151.031 117.697 146.761Z" fill="#BFA3F4" stroke="#0C0C0D" stroke-width="1.12735" stroke-linejoin="round"/>
<path d="M109.9 182.377C110.154 180.722 108.131 175.535 104.332 179.863C103.593 180.704 103.283 181.619 103.257 182.515C103.133 186.834 109.245 186.648 109.9 182.377Z" fill="#D8C5F9" stroke="#0C0C0D" stroke-width="1.12735" stroke-linejoin="round"/>
<path d="M114.397 163.425C114.593 161.747 111.991 156.327 107.902 160.538C106.948 161.521 106.704 162.647 106.877 163.74C107.568 168.103 113.885 167.813 114.397 163.425Z" fill="#8D5FEA" stroke="#0C0C0D" stroke-width="1.12735" stroke-linejoin="round"/>
<path d="M70.7385 127.656L109.388 104.569L123.443 127.157L74.5122 145.493C59.4949 151.121 45.1691 135.785 51.8053 121.185C53.7325 116.945 53.8965 112.114 52.2612 107.753L48.8182 98.5716L47.0372 91.9819C45.6016 86.6699 46.0045 81.0286 48.1805 75.9746L49.031 73.9992C49.6475 72.5675 51.739 72.7737 52.0639 74.2983L52.2464 75.1547C53.1434 79.3633 55.1379 83.2597 58.0275 86.4483L59.4129 87.9769L64.1491 99.2085C65.6408 102.746 66.4093 106.546 66.4093 110.386V118.965C66.4093 119.865 66.0857 120.736 65.4975 121.417C62.4375 124.964 66.7169 130.058 70.7385 127.656Z" fill="#BFA3F4" stroke="#0C0C0D" stroke-width="1.12735"/>
<path d="M127.419 92.8913L122.418 104.883L111.571 99.7651L112.856 93.999C115.029 84.2486 123.35 77.0839 133.315 76.3815C135.9 76.1992 138.491 76.6375 140.873 77.6598L143.215 78.6649C152.232 82.5356 156.238 93.1164 152.045 101.989L151.195 103.787C150.726 104.779 149.266 104.612 149.034 103.539L147.599 96.9034C146.978 94.0362 145.403 91.4646 143.13 89.6099C140.211 87.2275 136.19 86.7126 132.765 88.2823L131.162 89.0168C129.471 89.7915 128.135 91.1749 127.419 92.8913Z" fill="#8D5FEA" stroke="#0C0C0D" stroke-width="1.12735"/>
<path d="M71.3133 129.964C71.0554 129.84 70.8835 129.587 70.8627 129.302L69.0893 104.956C69.0444 104.34 69.6853 103.908 70.2397 104.181L121.815 129.548C122.083 129.68 122.255 129.951 122.261 130.249L122.745 153.444C122.757 154.041 122.136 154.44 121.598 154.181L71.3133 129.964Z" fill="#FF4747" stroke="#0C0C0D" stroke-width="1.12735"/>
<path d="M143.864 128.294C143.864 128.476 143.802 128.653 143.688 128.795L123.184 154.275C122.711 154.863 121.761 154.528 121.761 153.774L121.761 129.852C121.761 129.681 121.816 129.515 121.917 129.378L142.421 101.513C142.878 100.891 143.864 101.215 143.864 101.987L143.864 128.294Z" fill="#FF4747" stroke="#0C0C0D" stroke-width="1.12735"/>
<path d="M74.0692 132.773C73.7938 132.639 73.6191 132.36 73.6191 132.054L73.6191 104.434C73.6191 104.101 73.8245 103.804 74.1351 103.686L78.308 102.103C78.5255 102.021 78.768 102.037 78.9724 102.148L81.2564 103.385C81.8618 103.713 81.7972 104.602 81.1508 104.839L78.1255 105.948C77.8147 106.062 77.6062 106.356 77.6013 106.687L77.2084 133.033C77.1997 133.618 76.5858 133.996 76.0594 133.74L74.0692 132.773Z" fill="#A42A2A" stroke="#0C0C0D" stroke-width="1.12735"/>
<path d="M106.077 148.708C105.795 148.572 105.62 148.283 105.627 147.97L106.278 121.204C106.285 120.918 106.445 120.657 106.697 120.52L110.073 118.692C110.31 118.563 110.597 118.563 110.834 118.692L113.293 120.024C113.857 120.329 113.85 121.14 113.281 121.436L110.691 122.782C110.437 122.915 110.273 123.173 110.261 123.46L109.234 148.998C109.211 149.574 108.605 149.937 108.086 149.685L106.077 148.708Z" fill="#A42A2A" stroke="#0C0C0D" stroke-width="1.12735"/>
<path d="M102.646 83.5244L96.3017 81.6478C92.4608 80.5118 88.3329 80.864 84.74 82.6344C80.5911 84.6788 77.1958 87.9837 75.0402 92.0758L69.3716 102.837C69.1615 103.235 69.3224 103.729 69.7271 103.927L121.303 129.206C121.651 129.377 122.071 129.274 122.3 128.961L143.362 100.256C143.398 100.207 143.412 100.146 143.401 100.087C142.571 95.5288 139.107 91.9021 134.591 90.8645L102.646 83.5244Z" fill="#FF4747" stroke="#0C0C0D" stroke-width="1.12735"/>
<path d="M87.0221 109.775L87.9212 108.547C88.0549 108.364 88.2848 108.28 88.5051 108.331L102.534 111.63L101.059 113.404L87.0221 109.775Z" fill="#FFE4A1" stroke="#0C0C0D" stroke-width="1.12735" stroke-linejoin="bevel"/>
<path d="M144.099 100.973C144.107 101.021 144.095 101.069 144.065 101.107L122.508 128.727C122.299 128.995 121.869 128.86 121.85 128.521L121.04 113.791C120.656 106.811 122.798 99.9262 127.075 94.3967C132.079 87.9273 142.39 90.5379 143.712 98.6089L144.099 100.973Z" fill="#FF4747" stroke="#0C0C0D" stroke-width="1.12735"/>
<path d="M86.6401 64.1288C86.6401 65.9967 85.1259 67.5109 83.2581 67.5109C81.3902 67.5109 79.876 65.9967 79.876 64.1288C79.876 62.261 81.3902 60.7468 83.2581 60.7468C85.1259 60.7468 86.6401 62.261 86.6401 64.1288Z" fill="#C5D4F5" fill-opacity="0.4" stroke="#0C0C0D" stroke-width="1.12735"/>
<path d="M72.7363 47.5944C72.7363 48.4245 72.0633 49.0975 71.2332 49.0975C70.403 49.0975 69.7301 48.4245 69.7301 47.5944C69.7301 46.7642 70.403 46.0913 71.2332 46.0913C72.0633 46.0913 72.7363 46.7642 72.7363 47.5944Z" fill="#C5D4F5" fill-opacity="0.4" stroke="#0C0C0D" stroke-width="1.12735"/>
<path d="M87.3918 40.0788C87.3918 40.9089 86.7188 41.5819 85.8887 41.5819C85.0585 41.5819 84.3855 40.9089 84.3855 40.0788C84.3855 39.2486 85.0585 38.5756 85.8887 38.5756C86.7188 38.5756 87.3918 39.2486 87.3918 40.0788Z" fill="#C5D4F5" fill-opacity="0.4" stroke="#0C0C0D" stroke-width="1.12735"/>
<path d="M145.335 64.8726L145.335 64.8726C144.685 64.6344 143.942 64.8186 143.33 65.031C143.007 65.1432 142.678 65.2795 142.367 65.4107C142.327 65.4273 142.288 65.4439 142.249 65.4603C141.976 65.5757 141.718 65.6848 141.469 65.7782C141.323 65.8331 141.167 65.8899 141.005 65.9488C140.503 66.1309 139.946 66.3336 139.457 66.5643C138.83 66.86 138.146 67.2743 137.84 67.9107C137.709 68.1836 137.702 68.4678 137.735 68.7055C137.768 68.9434 137.845 69.1756 137.926 69.3777C138.008 69.5815 138.104 69.7804 138.185 69.9467C138.271 70.1241 138.333 70.2533 138.371 70.3543C138.714 71.2656 139.553 71.8179 140.507 72.0398C141.466 72.2627 142.606 72.1752 143.716 71.7583C144.826 71.3414 145.742 70.6561 146.316 69.8571C146.888 69.062 147.156 68.0934 146.814 67.1822C146.79 67.1193 146.76 67.0314 146.725 66.9282C146.638 66.6734 146.52 66.3255 146.387 66.0328C146.287 65.8138 146.162 65.5817 146.002 65.3799C145.843 65.179 145.626 64.979 145.335 64.8726Z" fill="#A48124" stroke="#0C0C0D" stroke-width="1.12735"/>
<path d="M143.187 70.351C144.297 69.9341 145.213 69.2488 145.787 68.4499C146.359 67.6548 146.627 66.6862 146.285 65.7749C145.942 64.8636 145.103 64.3114 144.149 64.0895C143.19 63.8665 142.05 63.954 140.94 64.371C139.831 64.7879 138.914 65.4732 138.34 66.2721C137.768 67.0672 137.5 68.0358 137.842 68.9471C138.185 69.8584 139.025 70.4106 139.978 70.6325C140.937 70.8555 142.077 70.768 143.187 70.351Z" fill="#FFC93E" stroke="#0C0C0D" stroke-width="1.12735"/>
<path d="M129.855 59.2436C129.855 61.1115 128.34 62.6257 126.473 62.6257C124.605 62.6257 123.091 61.1115 123.091 59.2436C123.091 57.3758 124.605 55.8616 126.473 55.8616C128.34 55.8616 129.855 57.3758 129.855 59.2436Z" fill="#C5D4F5" fill-opacity="0.4" stroke="#0C0C0D" stroke-width="1.12735"/>
<path d="M86.6016 110.555C86.5763 110.171 86.9336 109.876 87.3055 109.972L100.362 113.356C100.602 113.418 100.773 113.63 100.784 113.878L101.119 121.748C101.136 122.146 100.745 122.436 100.369 122.304L87.4199 117.747C87.2071 117.672 87.0594 117.478 87.0446 117.253L86.6016 110.555Z" fill="#FFE4A1" stroke="#0C0C0D" stroke-width="1.12735"/>
<path d="M102.7 111.947L103.315 120.257C103.33 120.46 103.235 120.655 103.066 120.768L101.048 122.113L100.559 113.962L102.7 111.947Z" fill="#FFE4A1" stroke="#0C0C0D" stroke-width="1.12735"/>
<path d="M81.1125 89.9459L74.2534 126.616C73.516 130.558 74.8633 134.602 77.8177 137.315C82.5562 141.665 88.9178 143.8 95.3212 143.19L97.8553 142.949L105.451 146.347V148.491C105.451 148.647 105.541 148.788 105.682 148.854L108.196 150.027C108.349 150.098 108.529 150.066 108.648 149.947L109.849 148.746L114.847 151.545C110.127 155.216 104.551 157.627 98.6434 158.553L95.9322 158.977C92.6944 159.484 89.4083 159.61 86.1413 159.35L82.8975 159.093C72.4434 158.263 62.8388 151.706 61.2677 141.338C59.9308 132.515 60.3856 124.51 60.4742 116.762C60.6313 103.028 62.9401 91.2732 65.5388 82.3035C69.0825 70.0721 80.923 63.1895 93.6574 63.1895C105.664 64.0471 118.159 71.3981 118.55 83.4289C118.603 85.0622 118.353 86.3382 117.645 86.9774C113.447 86.1778 108.977 84.5381 103.652 83.5791C103.652 80.5152 100.225 78.9241 96.1951 78.1122C88.8291 76.6285 82.4941 82.5601 81.1125 89.9459Z" fill="#8D5FEA"/>
<path d="M74.2534 126.616L74.8074 126.72L74.2534 126.616ZM81.1125 89.9459L80.5585 89.8423L81.1125 89.9459ZM117.645 86.9774L118.023 87.3958L117.815 87.5835L117.54 87.5311L117.645 86.9774ZM118.55 83.4289L117.987 83.4473L118.55 83.4289ZM96.1951 78.1122L96.0838 78.6648L96.1951 78.1122ZM103.652 83.5791L103.552 84.1339L103.089 84.0504V83.5791H103.652ZM97.8553 142.949L97.8018 142.388L97.9498 142.374L98.0855 142.435L97.8553 142.949ZM95.3212 143.19L95.2678 142.629H95.2678L95.3212 143.19ZM82.8975 159.093L82.8529 159.655H82.8529L82.8975 159.093ZM86.1413 159.35L86.1859 158.788L86.1413 159.35ZM65.5388 82.3035L64.9974 82.1467L65.5388 82.3035ZM60.4742 116.762L59.9106 116.756L60.4742 116.762ZM61.2677 141.338L61.825 141.253L61.2677 141.338ZM105.451 146.347L105.682 145.833L106.015 145.982V146.347H105.451ZM108.196 150.027L107.958 150.538L107.958 150.538L108.196 150.027ZM105.682 148.854L105.921 148.343L105.921 148.343L105.682 148.854ZM95.9322 158.977L95.845 158.42H95.845L95.9322 158.977ZM98.6434 158.553L98.7306 159.109H98.7306L98.6434 158.553ZM114.847 151.545L115.122 151.053L115.863 151.468L115.193 151.99L114.847 151.545ZM109.849 148.746L109.451 148.348L109.752 148.046L110.125 148.254L109.849 148.746ZM108.648 149.947L109.047 150.346L109.046 150.346L108.648 149.947ZM77.8177 137.315L78.1989 136.899L77.8177 137.315ZM93.6574 63.1895V62.6258H93.6775L93.6976 62.6272L93.6574 63.1895ZM73.6993 126.512L80.5585 89.8423L81.6666 90.0495L74.8074 126.72L73.6993 126.512ZM117.268 86.559C117.507 86.3427 117.706 85.984 117.835 85.4447C117.964 84.908 118.013 84.2353 117.987 83.4473L119.114 83.4106C119.141 84.2558 119.092 85.0378 118.931 85.7072C118.772 86.374 118.491 86.9729 118.023 87.3958L117.268 86.559ZM96.3064 77.5597C98.3487 77.9711 100.294 78.5893 101.742 79.5282C103.203 80.4758 104.216 81.7947 104.216 83.5791H103.089C103.089 82.2996 102.388 81.291 101.128 80.4741C99.8552 79.6485 98.0717 79.0653 96.0838 78.6648L96.3064 77.5597ZM103.752 83.0244C106.441 83.5087 108.911 84.1642 111.22 84.7943C113.537 85.4265 115.679 86.029 117.751 86.4237L117.54 87.5311C115.414 87.1262 113.222 86.5091 110.923 85.8818C108.616 85.2524 106.188 84.6086 103.552 84.1339L103.752 83.0244ZM97.9087 143.51L95.3747 143.752L95.2678 142.629L97.8018 142.388L97.9087 143.51ZM82.9421 158.531L86.1859 158.788L86.0967 159.912L82.8529 159.655L82.9421 158.531ZM66.0802 82.4604C63.4932 91.3898 61.1943 103.094 61.0379 116.769L59.9106 116.756C60.0684 102.962 62.3871 91.1565 64.9974 82.1467L66.0802 82.4604ZM61.0379 116.769C60.9489 124.547 60.4969 132.488 61.825 141.253L60.7104 141.422C59.3647 132.541 59.8223 124.473 59.9106 116.756L61.0379 116.769ZM105.221 146.862L97.6251 143.464L98.0855 142.435L105.682 145.833L105.221 146.862ZM104.888 148.491V146.347H106.015V148.491H104.888ZM107.958 150.538L105.444 149.365L105.921 148.343L108.435 149.516L107.958 150.538ZM95.845 158.42L98.5561 157.996L98.7306 159.109L96.0194 159.534L95.845 158.42ZM114.571 152.036L109.574 149.238L110.125 148.254L115.122 151.053L114.571 152.036ZM110.248 149.145L109.047 150.346L108.249 149.549L109.451 148.348L110.248 149.145ZM95.3747 143.752C88.8122 144.377 82.2927 142.188 77.4365 137.73L78.1989 136.899C82.8197 141.141 89.0233 143.224 95.2678 142.629L95.3747 143.752ZM108.435 149.516C108.372 149.487 108.298 149.5 108.249 149.549L109.046 150.346C108.76 150.632 108.325 150.709 107.958 150.538L108.435 149.516ZM93.6574 63.7531C81.1075 63.7531 69.5372 70.5282 66.0802 82.4604L64.9974 82.1467C68.6278 69.616 80.7384 62.6258 93.6574 62.6258V63.7531ZM106.015 148.491C106.015 148.428 105.978 148.37 105.921 148.343L105.444 149.365C105.105 149.206 104.888 148.866 104.888 148.491H106.015ZM117.987 83.4473C117.798 77.6436 114.694 72.9451 110.125 69.5728C105.549 66.1957 99.529 64.174 93.6173 63.7517L93.6976 62.6272C99.7925 63.0626 106.024 65.1452 110.794 68.6657C115.571 72.1911 118.911 77.1835 119.114 83.4106L117.987 83.4473ZM80.5585 89.8423C81.9774 82.2564 88.5337 75.994 96.3064 77.5597L96.0838 78.6648C89.1246 77.263 83.0107 82.8638 81.6666 90.0495L80.5585 89.8423ZM98.5561 157.996C104.369 157.085 109.856 154.712 114.501 151.1L115.193 151.99C110.397 155.719 104.733 158.169 98.7306 159.109L98.5561 157.996ZM82.8529 159.655C72.2269 158.811 62.3327 152.129 60.7104 141.422L61.825 141.253C63.3449 151.284 72.6599 157.715 82.9421 158.531L82.8529 159.655ZM86.1859 158.788C89.4089 159.044 92.6508 158.921 95.845 158.42L96.0194 159.534C92.7381 160.048 89.4077 160.175 86.0967 159.912L86.1859 158.788ZM74.8074 126.72C74.1058 130.471 75.3877 134.319 78.1989 136.899L77.4365 137.73C74.3388 134.886 72.9261 130.646 73.6993 126.512L74.8074 126.72Z" fill="#0C0C0D"/>
<path d="M79.8088 158.763C79.0906 159.436 78.0591 159.931 76.8898 160.125C75.7205 160.32 74.5844 160.185 73.6873 159.781C72.7945 159.378 72.0774 158.674 71.9179 157.714C71.9002 157.607 71.8641 157.468 71.8141 157.278C71.7672 157.099 71.7111 156.885 71.6703 156.669C71.6298 156.455 71.5989 156.213 71.6128 155.973C71.6267 155.733 71.6878 155.456 71.8695 155.213C72.2932 154.648 73.0442 154.374 73.7163 154.205C74.2406 154.074 74.8271 153.983 75.3539 153.901C75.5245 153.875 75.6888 153.849 75.8427 153.824C76.1047 153.78 76.3793 153.723 76.6698 153.663C76.7111 153.654 76.7528 153.645 76.7947 153.637C77.1255 153.568 77.4741 153.498 77.8129 153.451C78.4544 153.361 79.2192 153.324 79.811 153.683L79.811 153.683M79.8088 158.763L79.811 153.683L79.5202 154.162L79.811 153.683M79.8088 158.763C80.5235 158.094 80.9742 157.196 80.8146 156.235M79.8088 158.763L80.8146 156.235M79.811 153.683C80.0753 153.844 80.2495 154.082 80.3669 154.31M79.811 153.683L80.3669 154.31M80.8146 156.235C80.8036 156.169 80.7913 156.077 80.7768 155.969M80.8146 156.235L80.7768 155.969M80.7768 155.969C80.7411 155.702 80.6923 155.338 80.6183 155.025M80.7768 155.969L80.6183 155.025M80.6183 155.025C80.5628 154.791 80.4849 154.539 80.3669 154.31M80.6183 155.025L80.3669 154.31" fill="#A48124" stroke="#0C0C0D" stroke-width="1.12735"/>
<path d="M76.6434 158.642C77.8127 158.448 78.8442 157.953 79.5624 157.28C80.2771 156.611 80.7278 155.713 80.5683 154.752C80.4087 153.792 79.6917 153.088 78.7988 152.685C77.9017 152.281 76.7656 152.146 75.5963 152.341C74.427 152.535 73.3956 153.03 72.6774 153.703C71.9626 154.372 71.5119 155.27 71.6715 156.231C71.831 157.191 72.5481 157.895 73.4409 158.298C74.338 158.702 75.4741 158.837 76.6434 158.642Z" fill="#FFC93E" stroke="#0C0C0D" stroke-width="1.12735"/>
<path d="M113.132 180.809L125.072 149.895C128.117 142.012 127.804 133.226 124.208 125.578L119.265 115.07C115.03 106.066 117.632 95.3285 125.519 89.262C126.903 88.1974 128.431 87.3352 130.058 86.7014L133.63 85.3095C139.161 83.1549 145.448 84.969 148.981 89.7381L150.2 91.383C153.116 95.3195 153.45 100.601 151.055 104.874C148.918 108.685 144.89 111.045 140.52 111.045L140.283 111.045C139.943 111.045 139.763 110.641 139.991 110.388L142.891 107.166C144.134 105.785 144.942 104.068 145.214 102.23L145.325 101.481C145.498 100.316 145.171 99.1309 144.424 98.2188C141.973 95.2223 137.737 94.3914 134.335 96.2394L133.021 96.9534C128.392 99.4678 127.277 105.619 130.73 109.598L137.733 117.67C144.093 125 147.595 134.379 147.595 144.085L147.595 156.959C147.595 162.748 144.096 167.963 138.739 170.158L131.545 173.106L127.343 174.252C126.014 174.614 124.723 175.103 123.487 175.711L113.132 180.809Z" fill="#BFA3F4" stroke="#0C0C0D" stroke-width="1.12735"/>
<path d="M138.035 149.346L138.16 148.992C140.287 142.986 140.453 136.461 138.635 130.356L136.547 127.557L127.552 114.164L125.739 107.418C124.637 103.315 125.335 98.9373 127.657 95.3802C129.024 93.2879 130.965 91.6349 133.249 90.62L136.18 89.3173C138.91 88.104 142.064 88.323 144.6 89.902C148.505 92.3336 150.416 96.9918 149.342 101.465L149.147 102.275C148.16 106.391 144.975 109.622 140.874 110.669L140.597 110.739C140.238 110.831 139.979 110.401 140.226 110.126L142.891 107.166C144.133 105.785 144.942 104.068 145.214 102.23L145.325 101.481C145.497 100.316 145.17 99.131 144.424 98.2189C141.973 95.2224 137.737 94.3915 134.335 96.2395L133.021 96.9535C128.392 99.4679 127.277 105.619 130.729 109.598L137.706 117.639C144.082 124.987 147.579 134.397 147.55 144.125L147.542 146.747L147.542 155.068L147.595 167.281L127.552 172.918L132.638 163.148L134.176 157.135L135.436 153.544L138.035 149.346Z" fill="#FFEDC2"/>
<path d="M113.884 179.118L125.107 149.881C128.13 142.005 127.809 133.236 124.219 125.601L119.265 115.07C115.03 106.066 117.632 95.3285 125.519 89.262C126.903 88.1974 128.431 87.3352 130.058 86.7014L133.63 85.3095C139.161 83.1549 145.448 84.969 148.981 89.7381L150.2 91.383C153.116 95.3195 153.45 100.601 151.055 104.874C148.918 108.685 144.89 111.045 140.52 111.045L140.283 111.045C139.943 111.045 139.763 110.641 139.991 110.388L142.891 107.166C144.134 105.785 144.942 104.068 145.214 102.23L145.325 101.481C145.498 100.316 145.171 99.1309 144.424 98.2188C141.973 95.2223 137.737 94.3914 134.335 96.2394L133.021 96.9534C128.392 99.4678 127.277 105.619 130.73 109.598L137.733 117.669C144.093 125 147.595 134.379 147.595 144.085L147.595 156.71C147.595 160.691 145.917 164.487 142.973 167.166L139.905 169.958C133.428 175.852 124.986 179.118 116.229 179.118L113.884 179.118Z" stroke="#0C0C0D" stroke-width="1.12735"/>
<path d="M140.08 110.764C143.944 109.298 150.994 105.487 149.875 97.1712V97.1712C147.639 80.5633 120.826 91.403 125.202 107.579C125.623 109.135 126.162 110.55 126.841 111.765C136.071 128.277 147.03 132.754 135.836 153.744L126.841 176.112" stroke="#0C0C0D" stroke-width="1.12735"/>
<path d="M137.831 139.224C137.645 137.627 140.12 132.47 144.011 136.477C144.919 137.412 145.151 138.483 144.987 139.523C144.329 143.674 138.319 143.398 137.831 139.224Z" fill="#BFA3F4" stroke="#0C0C0D" stroke-width="1.12735" stroke-linejoin="round"/>
<path d="M130.622 156.343C130.467 155.01 132.533 150.706 135.78 154.05C136.538 154.831 136.732 155.725 136.594 156.593C136.045 160.057 131.029 159.827 130.622 156.343Z" fill="#BFA3F4" stroke="#0C0C0D" stroke-width="1.12735" stroke-linejoin="round"/>
<path d="M141.56 96.4625C141.486 95.2568 143.227 91.4404 146.425 94.2715C147.208 94.9651 147.425 95.6931 147.307 96.3695C146.818 99.1668 141.732 99.2969 141.56 96.4625Z" fill="#BFA3F4" stroke="#0C0C0D" stroke-width="1.12735" stroke-linejoin="round"/>
<path d="M142.593 103.017C142.531 102.001 143.999 98.7836 146.694 101.17C147.354 101.755 147.537 102.369 147.438 102.939C147.026 105.297 142.738 105.407 142.593 103.017Z" fill="#BFA3F4" stroke="#0C0C0D" stroke-width="1.12735" stroke-linejoin="round"/>
<path d="M133.034 91.5036C132.961 90.2979 135.433 86.2283 138.631 89.0594C139.555 89.8781 139.555 90.9147 139.114 91.8966C137.793 94.8367 133.229 94.7207 133.034 91.5036Z" fill="#BFA3F4" stroke="#0C0C0D" stroke-width="1.12735" stroke-linejoin="round"/>
<path d="M126.237 101.498C126.164 100.293 128.637 96.2232 131.834 99.0543C132.759 99.8729 132.758 100.91 132.317 101.891C130.997 104.832 126.433 104.716 126.237 101.498Z" fill="#BFA3F4" stroke="#0C0C0D" stroke-width="1.12735" stroke-linejoin="round"/>
<path d="M128.568 113.517C128.314 111.862 130.337 106.675 134.137 111.003C134.875 111.844 135.186 112.759 135.212 113.655C135.336 117.974 129.223 117.788 128.568 113.517Z" fill="#BFA3F4" stroke="#0C0C0D" stroke-width="1.12735" stroke-linejoin="round"/>
<path d="M136.364 149.133C136.11 147.478 138.134 142.291 141.933 146.619C142.672 147.46 142.982 148.375 143.008 149.271C143.132 153.59 137.019 153.404 136.364 149.133Z" fill="#BFA3F4" stroke="#0C0C0D" stroke-width="1.12735" stroke-linejoin="round"/>
<path d="M128.098 168.298C127.844 166.643 129.867 161.456 133.666 165.784C134.405 166.625 134.715 167.54 134.741 168.436C134.865 172.755 128.753 172.568 128.098 168.298Z" fill="#BFA3F4" stroke="#0C0C0D" stroke-width="1.12735" stroke-linejoin="round"/>
<path d="M135.388 126.299C135.192 124.621 137.793 119.201 141.883 123.412C142.837 124.395 143.081 125.521 142.908 126.613C142.217 130.977 135.9 130.687 135.388 126.299Z" fill="#BFA3F4" stroke="#0C0C0D" stroke-width="1.12735" stroke-linejoin="round"/>
<path d="M57.2761 135.953L60.4744 138.351L60.8742 134.553L66.9299 126.45C71.4098 120.495 72.742 112.745 70.5078 105.636L69.6698 102.969L64.8656 94.1358C63.9413 92.4364 62.7928 90.8689 61.451 89.4754L58.2755 86.1778L54.0777 78.7816L51.8061 73.7141C51.6071 73.2702 51.1659 72.9845 50.6794 72.9845L48.6804 84.7785L52.6784 95.3732L57.2761 102.37L57.8539 104.81C58.6653 108.235 59.0751 111.744 59.0751 115.265C59.0751 117.454 58.8025 119.635 58.2636 121.757L55.8768 131.155L57.2761 135.953Z" fill="#FFEDC2"/>
<path d="M66.6714 126.557L63.1759 130.776C61.2889 133.054 60.4529 136.023 60.8743 138.951V138.951" stroke="#0C0C0D" stroke-width="1.12735" stroke-linecap="round" stroke-linejoin="round"/>
<path d="M61.012 138.551C54.0156 136.352 56.4144 127.757 57.6138 123.959C58.8132 120.161 62.4113 107.367 54.0156 96.9723C47.299 88.6565 48.8182 77.782 50.4174 73.3843C50.7254 72.7179 51.6088 72.1049 52.6785 74.9834C54.0156 78.5816 56.4766 85.1783 59.8748 87.5771C63.2731 89.9759 72.6684 103.369 71.2691 114.364C70.1496 123.159 67.6709 125.824 66.0717 126.957" stroke="#0C0C0D" stroke-width="1.12735"/>
<path d="M68.8917 124.948C68.9948 123.251 66.5449 117.88 62.0454 121.864C60.9433 122.84 60.6377 123.865 60.804 124.817C61.4917 128.753 68.6493 128.936 68.8917 124.948Z" fill="#BFA3F4" stroke="#0C0C0D" stroke-width="1.12735" stroke-linejoin="round"/>
<path d="M71.8688 113.01C71.9421 111.804 70.3863 108.877 67.1888 111.708C66.6236 112.209 66.3532 112.727 66.2908 113.231C65.8952 116.43 71.6733 116.227 71.8688 113.01Z" fill="#BFA3F4" stroke="#0C0C0D" stroke-width="1.12735" stroke-linejoin="round"/>
<path d="M68.5854 103.897C68.6587 102.692 66.1858 98.6221 62.9883 101.453C62.0638 102.272 62.0643 103.309 62.5053 104.29C63.8259 107.231 68.3899 107.115 68.5854 103.897Z" fill="#BFA3F4" stroke="#0C0C0D" stroke-width="1.12735" stroke-linejoin="round"/>
<path d="M63.5016 94.4247C63.5585 93.4875 61.6364 90.3243 59.1511 92.5248C58.4325 93.1612 58.4329 93.9669 58.7757 94.7301C59.8021 97.0153 63.3496 96.9252 63.5016 94.4247Z" fill="#BFA3F4" stroke="#0C0C0D" stroke-width="1.12735" stroke-linejoin="round"/>
<path d="M58.8415 85.9776C58.8821 85.3092 57.5112 83.053 55.7385 84.6226C55.226 85.0764 55.2263 85.6511 55.4708 86.1954C56.2029 87.8254 58.7331 87.7611 58.8415 85.9776Z" fill="#BFA3F4" stroke="#0C0C0D" stroke-width="1.12735" stroke-linejoin="round"/>
<path d="M81.1792 106.498C80.3304 106.995 79.2153 107.251 78.0319 107.183C76.8485 107.115 75.7701 106.733 74.984 106.141C74.2018 105.552 73.6575 104.707 73.7135 103.735C73.7197 103.627 73.7151 103.484 73.7083 103.287C73.7019 103.102 73.6943 102.881 73.702 102.662C73.7097 102.444 73.733 102.201 73.7994 101.97C73.8658 101.739 73.9866 101.482 74.2172 101.286C74.755 100.828 75.5479 100.726 76.2407 100.709C76.7812 100.696 77.3732 100.737 77.9051 100.773C78.0773 100.785 78.2432 100.796 78.3989 100.805C78.6641 100.82 78.9445 100.825 79.2412 100.831C79.2834 100.831 79.3259 100.832 79.3688 100.833C79.7065 100.839 80.062 100.847 80.4029 100.876C81.0484 100.929 81.8026 101.062 82.3006 101.543L82.3006 101.543M81.1792 106.498L82.3006 101.543L81.9116 101.946L82.3006 101.543M81.1792 106.498C82.0239 106.002 82.6614 105.225 82.7173 104.253M81.1792 106.498L82.7173 104.253M82.3006 101.543C82.523 101.758 82.6405 102.028 82.7048 102.277M82.3006 101.543L82.7048 102.277M82.7173 104.253C82.7212 104.186 82.7295 104.094 82.7391 103.985M82.7173 104.253L82.7391 103.985M82.7391 103.985C82.7631 103.717 82.7957 103.351 82.7924 103.029M82.7391 103.985L82.7924 103.029M82.7924 103.029C82.79 102.789 82.7695 102.526 82.7048 102.277M82.7924 103.029L82.7048 102.277" fill="#A48124" stroke="#0C0C0D" stroke-width="1.12735"/>
<path d="M78.1182 105.682C79.3016 105.75 80.4168 105.494 81.2655 104.997C82.1102 104.501 82.7478 103.724 82.8037 102.752C82.8596 101.78 82.3154 100.935 81.5332 100.346C80.7471 99.7543 79.6687 99.3724 78.4853 99.3043C77.3019 99.2362 76.1867 99.4918 75.338 99.9897C74.4933 100.485 73.8558 101.262 73.7998 102.234C73.7439 103.206 74.2881 104.051 75.0704 104.64C75.8564 105.232 76.9349 105.614 78.1182 105.682Z" fill="#FFC93E" stroke="#0C0C0D" stroke-width="1.12735"/>
<path d="M80.32 100.505C79.6018 101.178 78.5704 101.673 77.401 101.867C76.2317 102.061 75.0956 101.926 74.1985 101.522C73.3057 101.12 72.5887 100.415 72.4291 99.4552C72.4114 99.3487 72.3753 99.2099 72.3253 99.0192C72.2784 98.8405 72.2223 98.6267 72.1815 98.4109C72.141 98.1969 72.1101 97.9541 72.124 97.7144C72.1379 97.4748 72.199 97.1972 72.3807 96.9549C72.8044 96.3898 73.5555 96.1157 74.2275 95.9469C74.7519 95.8152 75.3383 95.7243 75.8651 95.6426C76.0357 95.6161 76.2 95.5906 76.3539 95.5651C76.6159 95.5215 76.8905 95.4645 77.181 95.4042C77.2223 95.3956 77.264 95.387 77.306 95.3783C77.6367 95.3098 77.9853 95.2397 78.3242 95.1922C78.9656 95.1022 79.7304 95.0653 80.3222 95.4248L80.3222 95.4248M80.32 100.505L80.3222 95.4248L80.0314 95.9034L80.3222 95.4248M80.32 100.505C81.0347 99.8355 81.4854 98.9372 81.3259 97.9768M80.32 100.505L81.3259 97.9768M80.3222 95.4248C80.5865 95.5854 80.7607 95.8236 80.8781 96.0516M80.3222 95.4248L80.8781 96.0516M81.3259 97.9768C81.3149 97.9106 81.3025 97.8186 81.2881 97.7106M81.3259 97.9768L81.2881 97.7106M81.2881 97.7106C81.2523 97.4437 81.2035 97.0795 81.1295 96.7666M81.2881 97.7106L81.1295 96.7666M81.1295 96.7666C81.074 96.5324 80.9961 96.2805 80.8781 96.0516M81.1295 96.7666L80.8781 96.0516" fill="#A48124" stroke="#0C0C0D" stroke-width="1.12735"/>
<path d="M77.1549 100.384C78.3242 100.19 79.3556 99.6946 80.0738 99.0219C80.7885 98.3525 81.2393 97.4541 81.0797 96.4938C80.9201 95.5335 80.2031 94.8292 79.3103 94.4269C78.4131 94.0226 77.277 93.8877 76.1077 94.082C74.9384 94.2763 73.907 94.7714 73.1888 95.444C72.474 96.1135 72.0233 97.0118 72.1829 97.9721C72.3425 98.9325 73.0595 99.6368 73.9523 100.039C74.8495 100.443 75.9856 100.578 77.1549 100.384Z" fill="#FFC93E" stroke="#0C0C0D" stroke-width="1.12735"/>
<path d="M92.5143 113.192C91.873 113.292 92.2471 114.623 92.5143 115.081L91.7126 116.953L94.7189 117.701L93.4037 115.081C93.7043 114.083 93.7794 112.995 92.5143 113.192Z" fill="#0C0C0D" stroke="black" stroke-width="1.12735" stroke-linecap="round" stroke-linejoin="round"/>
</g>
<g style="mix-blend-mode:multiply" filter="url(#filter1_f_277_5342)">
<mask id="path-80-outside-1_277_5342" maskUnits="userSpaceOnUse" x="14.1807" y="14.2167" width="175" height="175" fill="black">
<rect fill="white" x="14.1807" y="14.2167" width="175" height="175"/>
<path d="M187.28 101.766C187.28 149.014 148.978 187.316 101.73 187.316C54.4825 187.316 16.1807 149.014 16.1807 101.766C16.1807 54.5185 54.4825 16.2167 101.73 16.2167C148.978 16.2167 187.28 54.5185 187.28 101.766ZM29.3125 101.766C29.3125 141.761 61.735 174.184 101.73 174.184C141.725 174.184 174.148 141.761 174.148 101.766C174.148 61.7711 141.725 29.3486 101.73 29.3486C61.735 29.3486 29.3125 61.7711 29.3125 101.766Z"/>
</mask>
<path d="M187.28 101.766C187.28 149.014 148.978 187.316 101.73 187.316C54.4825 187.316 16.1807 149.014 16.1807 101.766C16.1807 54.5185 54.4825 16.2167 101.73 16.2167C148.978 16.2167 187.28 54.5185 187.28 101.766ZM29.3125 101.766C29.3125 141.761 61.735 174.184 101.73 174.184C141.725 174.184 174.148 141.761 174.148 101.766C174.148 61.7711 141.725 29.3486 101.73 29.3486C61.735 29.3486 29.3125 61.7711 29.3125 101.766Z" fill="white"/>
<path d="M187.28 101.766C187.28 149.014 148.978 187.316 101.73 187.316C54.4825 187.316 16.1807 149.014 16.1807 101.766C16.1807 54.5185 54.4825 16.2167 101.73 16.2167C148.978 16.2167 187.28 54.5185 187.28 101.766ZM29.3125 101.766C29.3125 141.761 61.735 174.184 101.73 174.184C141.725 174.184 174.148 141.761 174.148 101.766C174.148 61.7711 141.725 29.3486 101.73 29.3486C61.735 29.3486 29.3125 61.7711 29.3125 101.766Z" stroke="#5A86EC" stroke-width="2.25469" mask="url(#path-80-outside-1_277_5342)"/>
</g>
<path d="M195.429 101.895C195.429 153.572 153.536 195.465 101.859 195.465C50.182 195.465 8.28946 153.572 8.28946 101.895C8.28946 50.2179 50.182 8.32532 101.859 8.32532C153.536 8.32532 195.429 50.2179 195.429 101.895ZM28.8262 101.895C28.8262 142.23 61.5242 174.928 101.859 174.928C142.194 174.928 174.892 142.23 174.892 101.895C174.892 61.56 142.194 28.862 101.859 28.862C61.5242 28.862 28.8262 61.56 28.8262 101.895Z" fill="white"/>
<path fill-rule="evenodd" clip-rule="evenodd" d="M179.828 108.159C179.733 108.217 179.609 108.19 179.546 108.098L179.307 107.746C179.244 107.655 179.265 107.53 179.353 107.462C180.142 106.847 180.791 106.154 181.302 105.412C183.202 102.648 183.202 99.1696 181.302 96.4057C180.791 95.6634 180.142 94.9704 179.353 94.3555C179.265 94.2871 179.244 94.1628 179.307 94.0709L179.546 93.7192C179.609 93.6273 179.733 93.6005 179.828 93.6583L190.474 100.119C191.068 100.479 191.068 101.338 190.474 101.699L179.828 108.159Z" fill="url(#paint2_linear_277_5342)"/>
<path fill-rule="evenodd" clip-rule="evenodd" d="M12.9814 108.159C12.8862 108.217 12.7623 108.19 12.6997 108.098L12.46 107.746C12.3974 107.655 12.4185 107.53 12.5063 107.462C13.2956 106.847 13.9445 106.154 14.4548 105.412C16.3549 102.648 16.3549 99.1696 14.4548 96.4057C13.9445 95.6634 13.2956 94.9704 12.5063 94.3555C12.4185 94.2871 12.3974 94.1628 12.46 94.0709L12.6997 93.7192C12.7623 93.6273 12.8862 93.6005 12.9814 93.6583L23.6276 100.119C24.2217 100.479 24.2217 101.338 23.6276 101.699L12.9814 108.159Z" fill="url(#paint3_linear_277_5342)"/>
<path d="M189.784 67.4754C190.524 67.1954 190.897 66.3682 190.606 65.633C183.605 47.9485 171.475 32.7475 155.76 21.9946C139.65 10.9719 120.549 5.15315 101.03 5.32269C81.5118 5.49223 62.5144 11.6419 46.5991 22.9427C31.0732 33.967 19.2087 49.3764 12.5158 67.1799C12.2375 67.9201 12.6253 68.7406 13.3695 69.0077C14.1138 69.2748 14.9326 68.8874 15.2112 68.1474C21.7061 50.895 33.2085 35.9628 48.2569 25.2775C63.6948 14.3157 82.1223 8.35049 101.055 8.18604C119.988 8.02159 138.517 13.6658 154.143 24.3577C169.374 34.78 181.135 49.5102 187.928 66.6472C188.219 67.3822 189.045 67.7554 189.784 67.4754Z" fill="#3668DD"/>
<path d="M56.7839 172.833C56.5974 173.129 56.2064 173.217 55.9122 173.029C47.1265 167.392 39.4578 160.18 33.2925 151.757C33.0861 151.475 33.1505 151.079 33.434 150.875C33.7175 150.67 34.1129 150.735 34.3193 151.017C40.3898 159.308 47.9392 166.408 56.5877 171.958C56.8818 172.147 56.9704 172.538 56.7839 172.833Z" fill="#0C0C0D"/>
<path d="M146.559 172.833C146.746 173.129 147.137 173.217 147.431 173.029C156.217 167.392 163.885 160.18 170.051 151.757C170.257 151.475 170.193 151.079 169.909 150.875C169.626 150.67 169.23 150.735 169.024 151.017C162.953 159.308 155.404 166.408 146.755 171.958C146.461 172.147 146.373 172.538 146.559 172.833Z" fill="#0C0C0D"/>
<g clip-path="url(#clip1_277_5342)">
<path d="M69.5161 176.691C69.6026 176.424 69.5725 176.176 69.4297 175.939C69.2869 175.702 69.0577 175.518 68.7458 175.376C68.5203 175.278 68.3099 175.225 68.1145 175.221C67.9191 175.218 67.7462 175.255 67.6034 175.334C67.4569 175.417 67.3479 175.537 67.2765 175.691C67.2201 175.819 67.1976 175.947 67.2164 176.071C67.2352 176.195 67.2802 176.307 67.3516 176.416C67.4268 176.525 67.5095 176.627 67.6072 176.721C67.7049 176.815 67.7988 176.901 67.8965 176.976L68.37 177.36C68.5241 177.48 68.6782 177.619 68.8285 177.777C68.9788 177.935 69.1065 178.107 69.208 178.295C69.3095 178.483 69.3696 178.69 69.3884 178.912C69.4034 179.133 69.3583 179.366 69.2456 179.611C69.1065 179.922 68.8999 180.159 68.6331 180.328C68.3663 180.497 68.0468 180.58 67.6823 180.584C67.3178 180.588 66.9195 180.49 66.4911 180.294C66.0815 180.11 65.7546 179.881 65.5141 179.618C65.2736 179.351 65.1233 179.062 65.0631 178.743C65.003 178.427 65.0368 178.1 65.1684 177.762L65.9988 178.138C65.9237 178.344 65.9162 178.536 65.9688 178.72C66.0214 178.904 66.1228 179.066 66.2731 179.208C66.4235 179.351 66.6038 179.472 66.8143 179.569C67.0473 179.674 67.2727 179.731 67.4869 179.742C67.7011 179.753 67.8928 179.712 68.0581 179.629C68.2235 179.543 68.3475 179.411 68.4264 179.235C68.5015 179.073 68.5128 178.919 68.4677 178.773C68.4226 178.626 68.3362 178.487 68.2122 178.348C68.0882 178.209 67.9379 178.07 67.765 177.931L67.2013 177.457C66.818 177.138 66.5512 176.807 66.4009 176.458C66.2506 176.108 66.2619 175.744 66.4347 175.364C66.5775 175.049 66.788 174.812 67.066 174.654C67.3404 174.496 67.656 174.421 68.0093 174.421C68.3625 174.421 68.7195 174.507 69.0878 174.673C69.4598 174.842 69.7566 175.056 69.9821 175.315C70.2076 175.575 70.3504 175.857 70.4105 176.157C70.4706 176.458 70.4406 176.758 70.3128 177.055L69.5161 176.691Z" fill="#0C0C0D"/>
<path d="M71.857 182.5C71.4624 182.354 71.1505 182.132 70.9213 181.843C70.6921 181.55 70.5605 181.211 70.5154 180.824C70.4741 180.437 70.5342 180.024 70.6958 179.588C70.8574 179.148 71.0829 178.795 71.3685 178.528C71.6541 178.262 71.9772 178.092 72.3417 178.021C72.7062 177.95 73.0858 177.987 73.4804 178.134C73.8749 178.28 74.1868 178.502 74.4161 178.791C74.6453 179.085 74.7768 179.423 74.8181 179.814C74.8595 180.204 74.7994 180.618 74.634 181.054C74.4724 181.49 74.247 181.843 73.9614 182.106C73.6758 182.373 73.3526 182.542 72.9881 182.613C72.6236 182.685 72.2553 182.647 71.857 182.5ZM72.1163 181.813C72.3718 181.907 72.6123 181.918 72.8303 181.847C73.0482 181.775 73.2436 181.64 73.409 181.444C73.5743 181.249 73.7096 181.016 73.811 180.745C73.9125 180.475 73.9614 180.212 73.9651 179.956C73.9689 179.701 73.9087 179.472 73.7923 179.269C73.6758 179.069 73.4879 178.919 73.2323 178.825C72.9731 178.728 72.7326 178.716 72.5146 178.791C72.2929 178.867 72.1012 179.002 71.9359 179.197C71.7706 179.393 71.6353 179.626 71.5376 179.896C71.4361 180.167 71.3835 180.43 71.3835 180.689C71.3797 180.945 71.4399 181.174 71.5601 181.373C71.6691 181.568 71.857 181.715 72.1163 181.813Z" fill="#0C0C0D"/>
<path d="M78.6777 182.684L79.4331 180.155L80.2786 180.407L78.9896 184.729L78.1629 184.481L78.3846 183.733L78.3395 183.718C78.1704 183.921 77.9562 184.064 77.6894 184.15C77.4264 184.236 77.1295 184.233 76.8063 184.135C76.5283 184.052 76.3028 183.917 76.1262 183.733C75.9496 183.549 75.8368 183.316 75.788 183.038C75.7391 182.76 75.7692 182.444 75.8744 182.087L76.6936 179.34L77.5354 179.592L76.7462 182.237C76.6598 182.53 76.6711 182.79 76.78 183.015C76.889 183.241 77.0769 183.387 77.3362 183.466C77.494 183.515 77.6631 183.522 77.8435 183.489C78.0239 183.459 78.1892 183.376 78.3395 183.248C78.4898 183.12 78.6063 182.929 78.6777 182.684Z" fill="#0C0C0D"/>
<path d="M82.9954 179.532L81.5562 185.371L80.7031 185.161L82.1424 179.321L82.9954 179.532Z" fill="#0C0C0D"/>
<path d="M83.3485 185.8L84.4947 179.896L85.3552 180.065L84.9306 182.26L84.9832 182.271C85.0508 182.189 85.1448 182.095 85.2613 181.993C85.3778 181.892 85.5318 181.809 85.716 181.753C85.9001 181.692 86.1293 181.692 86.4036 181.745C86.7606 181.813 87.0613 181.967 87.3093 182.2C87.5573 182.433 87.7264 182.737 87.8203 183.109C87.9143 183.481 87.9143 183.906 87.8241 184.383C87.7302 184.86 87.5723 185.255 87.3469 185.567C87.1214 185.879 86.8508 186.097 86.5389 186.224C86.2233 186.352 85.8888 186.382 85.5318 186.315C85.2613 186.262 85.0508 186.176 84.9005 186.052C84.7502 185.928 84.6337 185.796 84.5623 185.657C84.4909 185.518 84.4383 185.394 84.4045 185.292L84.3331 185.277L84.1978 185.965L83.3485 185.8ZM84.6224 183.752C84.5623 184.064 84.5548 184.345 84.5999 184.597C84.645 184.849 84.7389 185.059 84.8855 185.221C85.032 185.386 85.2275 185.492 85.4755 185.54C85.7348 185.589 85.9602 185.563 86.1594 185.458C86.3586 185.353 86.5277 185.191 86.6629 184.973C86.7982 184.755 86.8959 184.496 86.9523 184.199C87.0087 183.906 87.0162 183.635 86.9748 183.387C86.9335 183.139 86.8358 182.929 86.6892 182.76C86.5427 182.591 86.336 182.482 86.0767 182.433C85.8249 182.384 85.6032 182.406 85.4078 182.504C85.2124 182.598 85.0471 182.756 84.9118 182.966C84.7765 183.184 84.6826 183.444 84.6224 183.752Z" fill="#0C0C0D"/>
<path d="M90.8867 187.156C90.4658 187.104 90.1126 186.961 89.8233 186.732C89.5339 186.502 89.3235 186.202 89.1957 185.834C89.0642 185.465 89.0304 185.052 89.0867 184.59C89.1431 184.124 89.2821 183.729 89.4963 183.402C89.7143 183.075 89.9886 182.835 90.3268 182.685C90.665 182.534 91.0408 182.482 91.4617 182.534C91.8825 182.587 92.2358 182.73 92.5251 182.959C92.8145 183.188 93.0249 183.489 93.1527 183.861C93.2805 184.233 93.318 184.646 93.2617 185.112C93.2053 185.574 93.0663 185.969 92.8521 186.292C92.6379 186.615 92.3598 186.856 92.0216 187.01C91.6834 187.164 91.3038 187.209 90.8867 187.156ZM90.9807 186.427C91.2512 186.461 91.488 186.416 91.6834 186.296C91.8788 186.176 92.0366 185.999 92.1531 185.77C92.2696 185.54 92.3448 185.285 92.3823 184.996C92.4162 184.71 92.4086 184.443 92.3523 184.191C92.2959 183.94 92.1869 183.733 92.0253 183.564C91.8638 183.395 91.6496 183.297 91.3752 183.259C91.1009 183.226 90.8642 183.271 90.6688 183.395C90.4734 183.519 90.3155 183.695 90.199 183.925C90.0826 184.154 90.0074 184.409 89.9698 184.695C89.936 184.984 89.9435 185.251 89.9999 185.499C90.0562 185.747 90.1652 185.958 90.3268 186.123C90.4884 186.292 90.7063 186.393 90.9807 186.427Z" fill="#0C0C0D"/>
<path d="M97.5682 185.766L97.7223 183.132L98.6016 183.184L98.3386 187.686L97.478 187.637L97.5231 186.856L97.4743 186.852C97.3578 187.085 97.1812 187.277 96.9407 187.423C96.7039 187.57 96.4146 187.634 96.0801 187.611C95.7908 187.596 95.539 187.517 95.3248 187.374C95.1106 187.235 94.949 187.032 94.8363 186.773C94.7236 186.514 94.6785 186.198 94.701 185.826L94.8664 182.963L95.7419 183.015L95.5803 185.773C95.5616 186.082 95.633 186.33 95.7945 186.521C95.9524 186.713 96.1703 186.818 96.4409 186.833C96.6062 186.844 96.7716 186.811 96.9407 186.739C97.1098 186.668 97.2526 186.551 97.3691 186.39C97.4893 186.228 97.5532 186.021 97.5682 185.766Z" fill="#0C0C0D"/>
<path d="M101.029 185.056L101.074 187.731L100.199 187.746L100.127 183.237L100.969 183.222L100.98 183.955H101.037C101.138 183.714 101.296 183.519 101.518 183.372C101.736 183.226 102.018 183.147 102.356 183.143C102.664 183.139 102.935 183.199 103.167 183.323C103.4 183.447 103.585 183.635 103.712 183.887C103.844 184.139 103.912 184.451 103.919 184.819L103.964 187.686L103.089 187.701L103.043 184.939C103.04 184.612 102.95 184.357 102.777 184.176C102.604 183.996 102.367 183.906 102.07 183.91C101.867 183.913 101.687 183.958 101.529 184.052C101.371 184.143 101.251 184.274 101.161 184.443C101.067 184.612 101.026 184.819 101.029 185.056Z" fill="#0C0C0D"/>
<path d="M107.432 187.603C107.068 187.63 106.737 187.562 106.44 187.393C106.144 187.228 105.899 186.976 105.715 186.641C105.531 186.307 105.418 185.897 105.381 185.409C105.347 184.924 105.396 184.5 105.535 184.143C105.674 183.786 105.877 183.504 106.147 183.301C106.418 183.098 106.734 182.981 107.098 182.955C107.376 182.936 107.605 182.966 107.782 183.045C107.959 183.124 108.101 183.222 108.203 183.338C108.308 183.455 108.387 183.556 108.447 183.646L108.5 183.643L108.338 181.414L109.214 181.35L109.653 187.348L108.797 187.412L108.744 186.713L108.673 186.717C108.627 186.818 108.56 186.931 108.47 187.062C108.379 187.194 108.252 187.31 108.086 187.416C107.925 187.521 107.707 187.581 107.432 187.603ZM107.571 186.841C107.823 186.822 108.03 186.739 108.195 186.593C108.361 186.446 108.481 186.251 108.552 186.006C108.624 185.762 108.65 185.48 108.627 185.165C108.605 184.853 108.541 184.582 108.432 184.353C108.323 184.124 108.18 183.951 107.996 183.834C107.812 183.718 107.594 183.665 107.339 183.684C107.075 183.703 106.861 183.789 106.696 183.936C106.531 184.086 106.41 184.282 106.339 184.526C106.268 184.77 106.241 185.037 106.264 185.334C106.286 185.634 106.35 185.901 106.459 186.134C106.568 186.367 106.715 186.548 106.899 186.675C107.087 186.807 107.312 186.859 107.571 186.841Z" fill="#0C0C0D"/>
<path d="M113.118 181.674L112.983 180.903L117.564 180.092L117.699 180.862L115.85 181.189L116.759 186.341L115.869 186.499L114.959 181.347L113.118 181.674Z" fill="#0C0C0D"/>
<path d="M121.393 185.458C120.983 185.556 120.6 185.548 120.25 185.435C119.897 185.323 119.596 185.116 119.345 184.815C119.093 184.515 118.913 184.143 118.804 183.688C118.695 183.233 118.683 182.816 118.77 182.433C118.856 182.053 119.033 181.73 119.292 181.467C119.555 181.204 119.89 181.024 120.299 180.926C120.709 180.828 121.092 180.836 121.442 180.948C121.795 181.061 122.095 181.272 122.347 181.568C122.599 181.865 122.779 182.245 122.888 182.7C122.997 183.154 123.009 183.568 122.918 183.947C122.832 184.327 122.655 184.646 122.396 184.909C122.141 185.18 121.802 185.36 121.393 185.458ZM121.224 184.74C121.49 184.676 121.693 184.552 121.836 184.368C121.979 184.184 122.062 183.966 122.092 183.71C122.122 183.455 122.099 183.188 122.032 182.906C121.964 182.628 121.859 182.38 121.72 182.166C121.581 181.952 121.404 181.794 121.194 181.692C120.983 181.591 120.746 181.572 120.48 181.636C120.213 181.7 120.006 181.824 119.863 182.012C119.721 182.2 119.638 182.418 119.608 182.673C119.581 182.929 119.6 183.196 119.668 183.477C119.736 183.759 119.841 184.007 119.98 184.222C120.123 184.436 120.295 184.59 120.506 184.691C120.716 184.793 120.953 184.804 121.224 184.74Z" fill="#0C0C0D"/>
<path d="M124.977 184.432L123.196 178.69L124.034 178.431L125.815 184.173L124.977 184.432ZM125.293 182.733L124.97 181.711L125.117 181.666L126.266 179.31L127.27 178.998L125.954 181.681L125.823 181.723L125.293 182.733ZM127.694 183.59L125.519 182.023L125.913 181.257L128.724 183.271L127.694 183.59Z" fill="#0C0C0D"/>
<path d="M131.637 182.29C131.22 182.448 130.829 182.493 130.464 182.429C130.1 182.365 129.773 182.2 129.487 181.937C129.202 181.674 128.976 181.324 128.811 180.885C128.646 180.452 128.585 180.043 128.619 179.652C128.653 179.261 128.785 178.919 129.006 178.622C129.228 178.325 129.536 178.104 129.927 177.957C130.164 177.867 130.412 177.818 130.664 177.814C130.915 177.807 131.163 177.856 131.404 177.957C131.644 178.059 131.87 178.224 132.073 178.453C132.276 178.682 132.452 178.987 132.595 179.37L132.704 179.66L129.352 180.93L129.119 180.313L131.667 179.348C131.584 179.13 131.468 178.957 131.317 178.822C131.167 178.686 130.994 178.604 130.799 178.566C130.603 178.528 130.401 178.551 130.186 178.63C129.957 178.716 129.777 178.852 129.649 179.028C129.521 179.205 129.446 179.404 129.42 179.618C129.397 179.832 129.423 180.047 129.502 180.257L129.687 180.738C129.792 181.02 129.935 181.242 130.107 181.399C130.28 181.557 130.479 181.655 130.697 181.692C130.915 181.726 131.145 181.7 131.385 181.61C131.539 181.55 131.674 181.475 131.783 181.381C131.896 181.287 131.979 181.178 132.039 181.054C132.099 180.93 132.129 180.791 132.125 180.64L132.956 180.486C132.978 180.738 132.945 180.982 132.851 181.211C132.757 181.444 132.606 181.651 132.4 181.839C132.201 182.023 131.941 182.173 131.637 182.29Z" fill="#0C0C0D"/>
<path d="M134.594 178.089L135.706 180.524L134.906 180.888L133.034 176.785L133.801 176.435L134.105 177.104L134.154 177.082C134.15 176.822 134.218 176.578 134.361 176.356C134.504 176.131 134.729 175.951 135.037 175.808C135.315 175.68 135.59 175.627 135.853 175.646C136.116 175.665 136.356 175.766 136.578 175.943C136.8 176.12 136.987 176.379 137.142 176.717L138.333 179.325L137.532 179.69L136.386 177.176C136.251 176.879 136.067 176.68 135.834 176.582C135.601 176.484 135.349 176.499 135.079 176.619C134.894 176.702 134.748 176.819 134.639 176.965C134.53 177.112 134.474 177.281 134.458 177.472C134.443 177.664 134.496 177.871 134.594 178.089Z" fill="#0C0C0D"/>
</g>
<g clip-path="url(#clip2_277_5342)">
<path d="M23.6331 59.2701C23.93 59.18 24.2419 59.2213 24.5763 59.3866C24.922 59.5595 25.1325 59.7774 25.2151 60.0518L23.6444 63.2271L32.4038 67.5636C32.3512 67.9206 32.246 68.2588 32.0919 68.5707C31.9304 68.8977 31.7274 69.1795 31.4832 69.4238L22.7199 65.0872L21.1454 68.2664C20.8824 68.3565 20.5742 68.319 20.236 68.1499C19.9016 67.9845 19.6799 67.7591 19.5671 67.4847L23.6331 59.2701Z" fill="#3568DD"/>
<path d="M40.9489 53.4944C41.0616 53.5733 41.1518 53.6748 41.2232 53.7875C41.1067 54.1934 40.8813 54.6255 40.5506 55.0952C40.0658 55.7792 39.5961 55.9182 39.0324 55.5913L37.1272 54.4865C36.7514 54.276 36.4095 54.1144 35.9998 54.1633C35.6203 54.2347 35.1919 54.4865 34.7335 55.1328L32.8395 57.8159L36.5072 60.405C36.3982 60.747 36.2441 61.0664 36.0449 61.352C35.8383 61.6451 35.5902 61.8969 35.3009 62.1111L25.8763 55.4635L29.0629 50.9504C29.5326 50.2852 29.9723 49.7892 30.3781 49.481C30.784 49.1729 31.2161 48.9775 31.6708 48.8873C32.4224 48.7483 33.2003 48.9587 33.9894 49.5186C34.4817 49.8681 34.8462 50.3115 35.0867 50.8451C35.3272 51.39 35.3986 51.9199 35.3084 52.4385L35.4024 52.5061C35.7067 52.2919 35.966 52.1904 36.3831 52.1792C36.8003 52.1679 37.3602 52.3595 38.0742 52.7504L39.581 53.5733C39.9681 53.7838 40.2537 53.7537 40.4453 53.4869C40.4942 53.4155 40.5318 53.3516 40.5581 53.299C40.7234 53.3629 40.855 53.4268 40.9489 53.4944ZM33.0237 51.3787C32.6141 51.0894 32.1969 50.9729 31.7873 51.033C31.2838 51.1044 30.7765 51.5065 30.2579 52.2355L28.4842 54.7458L31.5205 56.8877L33.2792 54.4188C33.7865 53.6973 33.9894 53.0735 33.888 52.5474C33.8053 52.1153 33.5197 51.7282 33.0237 51.3787Z" fill="#3568DD"/>
<path d="M47.6679 44.5695C47.9572 44.577 48.2466 44.7161 48.5284 44.9904C48.8065 45.2609 48.9493 45.539 48.953 45.8171L43.3313 51.6117L34.9326 43.4647L40.434 37.7979C40.7422 37.8017 41.0353 37.9445 41.3171 38.2188C41.6065 38.4969 41.738 38.7674 41.723 39.0493L37.6871 43.2017L39.9267 45.3737L43.7334 41.4505C44.0228 41.458 44.3008 41.5858 44.5639 41.8413C44.8307 42.1006 44.9622 42.3712 44.9585 42.638L41.148 46.5612L43.5117 48.8534L47.6679 44.5695Z" fill="#3568DD"/>
<path d="M59.1557 37.5049C58.9715 37.783 58.7235 38.046 58.4041 38.2865C58.1674 38.4669 57.848 38.636 57.4496 38.8013L55.3114 37.3997L51.2718 40.4773L52.0496 42.9162C51.7866 43.2544 51.5423 43.5137 51.3169 43.6865C51.0087 43.9195 50.7006 44.0811 50.3962 44.175L46.9014 32.5634C47.1231 32.2402 47.4162 31.9433 47.7883 31.6577C48.1641 31.3721 48.5361 31.1617 48.9081 31.0339L59.1557 37.5049ZM50.7119 38.76L53.8008 36.4076L48.9382 33.1947L50.7119 38.76Z" fill="#3568DD"/>
<path d="M64.7283 34.7954C63.368 35.5432 62.1993 35.8514 61.2336 35.7086C60.1851 35.5695 59.4035 35.0096 58.8962 34.0251C59.1029 33.7808 59.3622 33.5704 59.6853 33.39C59.9709 33.2322 60.2753 33.1345 60.606 33.0856C60.8766 33.5779 61.2448 33.856 61.7183 33.9311C62.2519 34.01 62.9546 33.8071 63.8227 33.3336C64.7471 32.8263 65.307 32.3115 65.5062 31.7779C65.6678 31.3307 65.6415 30.9136 65.4235 30.519C65.183 30.0793 64.8599 29.8388 64.454 29.7975C64.0482 29.7524 63.492 29.8426 62.778 30.0606L61.3388 30.5115C60.5346 30.7595 59.9258 30.8873 59.2457 30.861C58.9075 30.8459 58.5956 30.7858 58.3213 30.6768C57.7689 30.4551 57.2315 29.9779 56.8219 29.2301C56.3296 28.3282 56.2545 27.4226 56.5964 26.5132C56.9496 25.5812 57.7576 24.7695 59.0164 24.0819C60.2377 23.413 61.3275 23.1462 62.2933 23.2815C63.1876 23.413 63.8377 23.8376 64.2285 24.5554C64.2661 24.6268 64.3262 24.7508 64.4014 24.9349C64.2511 25.1416 64.0331 25.3257 63.7551 25.4798C63.4356 25.6564 63.1087 25.7691 62.7668 25.8293C62.7404 25.7691 62.7141 25.7015 62.6803 25.6451C62.5225 25.3558 62.0941 25.0777 61.677 25.0326C61.1697 24.9687 60.621 25.104 60.0123 25.4384C59.1555 25.9082 58.6181 26.3704 58.4039 26.8251C58.1897 27.2835 58.201 27.727 58.434 28.1553C58.8586 28.9295 59.6402 29.0535 60.8127 28.704L62.7743 28.1103C63.74 27.8134 64.5179 27.727 65.2807 27.881C66.0473 28.0351 66.6937 28.5612 67.1784 29.448C67.6895 30.38 67.7496 31.3194 67.3588 32.2664C66.968 33.1983 66.0887 34.0476 64.7283 34.7954Z" fill="#3568DD"/>
<path d="M72.3904 29.6472C71.8869 29.4067 71.4397 29.0384 71.0527 28.5499C70.6581 28.0652 70.2973 27.3549 69.9742 26.4418L67.7646 20.1963C68.0051 19.9783 68.3095 19.8092 68.6852 19.6777C69.0084 19.565 69.3729 19.4973 69.7637 19.4898L71.9884 25.7767C72.3904 26.9115 72.7775 27.4752 73.2886 27.7909C73.9725 28.2155 74.7992 28.2531 75.765 27.9111C76.6668 27.5917 77.2493 27.0618 77.5274 26.3215C77.7491 25.7466 77.6815 25.0514 77.2756 23.9053L75.051 17.6184C75.3591 17.3779 75.656 17.2126 75.9303 17.1149C76.2723 16.9946 76.5954 16.942 76.9036 16.9646L79.1132 23.2101C79.4627 24.1984 79.6242 25.0289 79.5979 25.6977C79.5716 26.3629 79.3988 26.9754 79.0869 27.509C78.5495 28.4334 77.6176 29.1249 76.3061 29.5908C74.7654 30.1357 73.4614 30.1583 72.3904 29.6472Z" fill="#3568DD"/>
<path d="M94.1972 24.6756C94.2198 24.8109 94.2123 24.9462 94.186 25.0777C93.8139 25.2806 93.3517 25.4272 92.7843 25.5249C91.9576 25.6677 91.5254 25.431 91.3601 24.7996L90.7964 22.669C90.6799 22.2518 90.5521 21.8986 90.229 21.6431C89.9096 21.4251 89.4285 21.3011 88.6469 21.4326L85.4077 21.9888L86.1668 26.4155C85.8474 26.5808 85.5129 26.6973 85.1672 26.7575C84.8139 26.8176 84.4607 26.8214 84.1037 26.7687L82.1534 15.3938L87.5985 14.4581C88.4027 14.3191 89.064 14.2815 89.5676 14.3491C90.0749 14.4168 90.5183 14.5859 90.9016 14.8452C91.5292 15.2773 91.9313 15.9763 92.0966 16.9345C92.1981 17.532 92.1417 18.1032 91.9313 18.6481C91.7171 19.2042 91.3901 19.6289 90.9617 19.9333L90.9805 20.0498C91.345 20.1136 91.6006 20.2226 91.905 20.512C92.2056 20.8013 92.4686 21.3312 92.6979 22.1128L93.1789 23.7625C93.3029 24.1834 93.5283 24.3675 93.8515 24.3111C93.9379 24.2961 94.0093 24.2773 94.0657 24.2585C94.1296 24.4201 94.1784 24.5629 94.1972 24.6756ZM90.0937 17.5696C90.0073 17.0736 89.7968 16.6978 89.4661 16.4498C89.0603 16.1416 88.4177 16.0665 87.5346 16.2205L84.502 16.7391L85.1296 20.403L88.1208 19.9032C88.9889 19.7529 89.5751 19.4523 89.8757 19.0088C90.1237 18.6443 90.1951 18.1671 90.0937 17.5696Z" fill="#3568DD"/>
<path d="M105.256 23.1199C105.455 23.3266 105.564 23.631 105.568 24.0256C105.576 24.4126 105.478 24.7133 105.283 24.9124L97.207 25.0477L97.0154 13.3421L104.918 13.2106C105.132 13.4323 105.241 13.7367 105.249 14.1312C105.256 14.5333 105.159 14.8189 104.948 15.0031L99.1536 15.1008L99.2062 18.2197L104.67 18.1296C104.869 18.3362 104.978 18.6256 104.982 18.9901C104.989 19.3621 104.892 19.6477 104.696 19.8319L99.2287 19.922L99.2851 23.2176L105.256 23.1199Z" fill="#3568DD"/>
<path d="M123.752 27.5353C123.422 27.5955 123.05 27.5767 122.636 27.494C122.215 27.4076 121.749 27.2535 121.238 27.0205L119.596 22.4923C119.465 22.1166 119.288 21.8498 119.078 21.6844C118.886 21.5341 118.491 21.3913 117.898 21.2711C117.541 21.1959 117.187 21.1395 116.849 21.0907L115.857 25.9232C115.5 25.9608 115.139 25.9458 114.775 25.8706C114.425 25.7992 114.095 25.6715 113.779 25.4948L116.068 14.3717C116.383 14.3116 116.733 14.3228 117.116 14.4018C117.458 14.4732 117.804 14.6009 118.142 14.8001L117.157 19.5838C117.372 19.6589 117.661 19.7341 118.025 19.8055C118.638 19.9333 119.096 19.9596 119.401 19.8882C119.716 19.798 120.021 19.5913 120.318 19.2719L123.245 15.8635C123.82 15.8485 124.271 15.8748 124.598 15.9425C124.962 16.0176 125.297 16.1529 125.601 16.3483L122.046 20.0686C121.61 20.5232 121.212 20.7976 120.844 20.884L120.821 20.9892C120.998 21.1132 121.141 21.2861 121.268 21.4965C121.392 21.7145 121.554 22.0677 121.753 22.5487L123.752 27.5353Z" fill="#3568DD"/>
<path d="M134.053 29.5909C134.162 29.8577 134.154 30.1808 134.015 30.5491C133.88 30.9099 133.681 31.1541 133.429 31.2706L125.861 28.4635L129.931 17.4944L137.334 20.2414C137.454 20.527 137.443 20.8502 137.304 21.2184C137.164 21.5942 136.969 21.8235 136.71 21.9212L131.28 19.907L130.194 22.8306L135.316 24.732C135.428 24.9988 135.421 25.307 135.293 25.6489C135.165 25.9984 134.97 26.2276 134.722 26.3291L129.6 24.4276L128.454 27.5128L134.053 29.5909Z" fill="#3568DD"/>
<path d="M144.312 34.9232C144.383 35.2013 144.327 35.5207 144.135 35.8664C143.951 36.2046 143.718 36.4188 143.451 36.4977L136.368 32.6234L141.986 22.3571L148.915 26.1487C148.99 26.4493 148.934 26.765 148.746 27.1107C148.554 27.4639 148.329 27.6631 148.054 27.7195L142.97 24.9387L141.475 27.6744L146.27 30.2973C146.341 30.5754 146.292 30.8836 146.115 31.203C145.935 31.5299 145.71 31.7291 145.45 31.7929L140.655 29.17L139.073 32.0597L144.312 34.9232Z" fill="#3568DD"/>
<path d="M158.122 37.3884C157.355 38.3992 156.446 38.9141 155.378 38.9366C154.405 38.9779 153.327 38.5458 152.124 37.6326L150.302 36.2535L147.945 39.365C147.607 39.2447 147.292 39.0794 147.013 38.869C146.728 38.6548 146.484 38.3955 146.277 38.1024L153.24 28.907L156.731 31.5487C158.005 32.5107 158.73 33.4915 158.911 34.4986C159.11 35.4681 158.847 36.4301 158.122 37.3884ZM156.449 36.1934C156.821 35.7011 156.983 35.2088 156.938 34.7278C156.87 34.0928 156.483 33.5066 155.78 32.9729L153.875 31.5299L151.271 34.9683L153.176 36.4113C153.856 36.9262 154.495 37.1441 155.097 37.0615C155.619 36.9901 156.066 36.7007 156.449 36.1934Z" fill="#3568DD"/>
<path d="M162.428 50.1386C162.413 50.428 162.266 50.7136 161.988 50.9879C161.714 51.2585 161.428 51.3937 161.15 51.3937L155.495 45.633L163.848 37.4372L169.38 43.0739C169.365 43.3821 169.218 43.6714 168.94 43.9457C168.654 44.2276 168.38 44.3516 168.102 44.329L164.044 40.1954L161.819 42.3787L165.644 46.2793C165.629 46.5687 165.494 46.843 165.235 47.0986C164.968 47.3578 164.694 47.4856 164.427 47.4706L160.598 43.5737L158.245 45.881L162.428 50.1386Z" fill="#3568DD"/>
<path d="M169.673 61.9006C169.56 61.9795 169.436 62.0321 169.305 62.0621C168.959 61.8179 168.628 61.4647 168.294 60.9949C167.809 60.3148 167.832 59.8225 168.324 59.3979L169.993 57.9624C170.316 57.6768 170.582 57.4062 170.669 57.0041C170.729 56.6208 170.631 56.1361 170.169 55.4897L168.26 52.8142L164.608 55.4221C164.318 55.2079 164.07 54.9561 163.867 54.6705C163.661 54.3812 163.503 54.0617 163.394 53.7198L172.781 47.0196L175.99 51.5139C176.463 52.1791 176.787 52.754 176.944 53.2388C177.102 53.7235 177.144 54.197 177.08 54.6555C176.963 55.4108 176.509 56.0759 175.719 56.6359C175.227 56.9853 174.686 57.1845 174.104 57.2333C173.51 57.2822 172.987 57.1732 172.525 56.9177L172.431 56.9853C172.533 57.3423 172.544 57.6204 172.416 58.015C172.289 58.4095 171.924 58.8793 171.319 59.4242L170.045 60.5741C169.718 60.8709 169.651 61.149 169.842 61.4158C169.891 61.4872 169.94 61.5436 169.981 61.5849C169.876 61.7277 169.767 61.8329 169.673 61.9006ZM174.284 55.1177C174.694 54.8246 174.942 54.4714 175.02 54.0655C175.118 53.5657 174.908 52.9569 174.389 52.2242L172.604 49.7215L169.579 51.8785L171.327 54.3549C171.838 55.0726 172.364 55.4672 172.894 55.5461C173.329 55.61 173.792 55.4709 174.284 55.1177Z" fill="#3568DD"/>
<path d="M172.168 68.2062C171.469 66.8196 171.203 65.6396 171.379 64.6814C171.556 63.6367 172.142 62.8776 173.145 62.4079C173.382 62.6221 173.585 62.8889 173.75 63.2196C173.897 63.5127 173.987 63.8171 174.025 64.1515C173.525 64.4033 173.232 64.764 173.142 65.2338C173.044 65.7636 173.221 66.4739 173.664 67.3607C174.137 68.3039 174.633 68.8789 175.156 69.0968C175.595 69.2734 176.013 69.2622 176.418 69.0592C176.866 68.8338 177.117 68.5181 177.174 68.116C177.23 67.7102 177.163 67.1503 176.971 66.4325L176.573 64.9782C176.351 64.1666 176.246 63.5503 176.298 62.8739C176.325 62.5357 176.396 62.2275 176.516 61.957C176.757 61.4121 177.253 60.8935 178.016 60.5102C178.932 60.048 179.842 60.0066 180.74 60.3787C181.661 60.7657 182.442 61.6037 183.085 62.8851C183.712 64.129 183.938 65.23 183.769 66.1883C183.603 67.0789 183.156 67.7102 182.427 68.0784C182.356 68.116 182.228 68.1686 182.044 68.24C181.841 68.0822 181.664 67.8605 181.522 67.5749C181.356 67.248 181.255 66.9173 181.206 66.5753C181.266 66.5528 181.337 66.5265 181.394 66.4964C181.687 66.3498 181.984 65.9327 182.044 65.5156C182.123 65.0121 182.01 64.4559 181.698 63.8396C181.259 62.9678 180.819 62.4154 180.368 62.1862C179.917 61.957 179.474 61.9494 179.038 62.1711C178.249 62.5657 178.094 63.3473 178.406 64.5273L178.929 66.5077C179.192 67.4847 179.248 68.2626 179.068 69.0217C178.887 69.7807 178.339 70.4083 177.433 70.863C176.482 71.3402 175.543 71.3665 174.611 70.9457C173.683 70.5022 172.867 69.5891 172.168 68.2062Z" fill="#3568DD"/>
</g>
</g>
<defs>
<filter id="filter1_f_277_5342" x="0.848755" y="0.884857" width="201.763" height="201.763" filterUnits="userSpaceOnUse" color-interpolation-filters="sRGB">
<feFlood flood-opacity="0" result="BackgroundImageFix"/>
<feBlend mode="normal" in="SourceGraphic" in2="BackgroundImageFix" result="shape"/>
<feGaussianBlur stdDeviation="7.10228" result="effect1_foregroundBlur_277_5342"/>
</filter>
<linearGradient id="paint0_linear_277_5342" x1="132.426" y1="55.1557" x2="89.8257" y2="164.573" gradientUnits="userSpaceOnUse">
<stop offset="0.0127869" stop-color="#69DBFF"/>
<stop offset="1" stop-color="#319CFF"/>
</linearGradient>
<linearGradient id="paint1_linear_277_5342" x1="134.03" y1="55.1557" x2="90.6017" y2="163.799" gradientUnits="userSpaceOnUse">
<stop offset="0.0127869" stop-color="#69DBFF"/>
<stop offset="1" stop-color="#319CFF"/>
</linearGradient>
<linearGradient id="paint2_linear_277_5342" x1="185.095" y1="93.6279" x2="185.095" y2="108.189" gradientUnits="userSpaceOnUse">
<stop stop-color="#5080EC"/>
<stop offset="1" stop-color="#3568DD"/>
</linearGradient>
<linearGradient id="paint3_linear_277_5342" x1="18.2486" y1="93.6279" x2="18.2486" y2="108.189" gradientUnits="userSpaceOnUse">
<stop stop-color="#5080EC"/>
<stop offset="1" stop-color="#3568DD"/>
</linearGradient>
<clipPath id="clip0_277_5342">
<rect x="8.28946" y="8.32532" width="187.139" height="187.139" rx="93.5697" fill="white"/>
</clipPath>
<clipPath id="clip1_277_5342">
<rect width="73.3" height="13.3252" fill="white" transform="translate(65.0327 174.421)"/>
</clipPath>
<clipPath id="clip2_277_5342">
<rect width="164.258" height="58.0207" fill="white" transform="translate(19.5632 13.2106)"/>
</clipPath>
</defs>
</svg>
