<svg width="2902" height="500" viewBox="0 0 2902 500" fill="none" xmlns="http://www.w3.org/2000/svg">
<g clip-path="url(#clip0_2223_33153)">
<rect width="2901.21" height="500" fill="#FCFCFD"/>
<mask id="path-1-outside-1_2223_33153" maskUnits="userSpaceOnUse" x="99.8228" y="-88.3379" width="155" height="859" fill="black">
<rect fill="white" x="99.8228" y="-88.3379" width="155" height="859"/>
<path fill-rule="evenodd" clip-rule="evenodd" d="M186.674 -76.0211C186.674 -81.1667 182.503 -85.338 177.358 -85.338C172.212 -85.338 168.041 -81.1667 168.041 -76.0211V20.7173C168.041 36.7555 155.039 49.7569 139.001 49.7569H131.862C115.824 49.7569 102.823 62.7585 102.823 78.7966V738.117C102.823 754.155 115.824 767.156 131.862 767.156H222.853C238.891 767.156 251.893 754.155 251.893 738.116V78.7965C251.893 62.7584 238.891 49.7569 222.853 49.7569H215.714C199.676 49.7569 186.674 36.7555 186.674 20.7173V-76.0211Z"/>
</mask>
<path fill-rule="evenodd" clip-rule="evenodd" d="M186.674 -76.0211C186.674 -81.1667 182.503 -85.338 177.358 -85.338C172.212 -85.338 168.041 -81.1667 168.041 -76.0211V20.7173C168.041 36.7555 155.039 49.7569 139.001 49.7569H131.862C115.824 49.7569 102.823 62.7585 102.823 78.7966V738.117C102.823 754.155 115.824 767.156 131.862 767.156H222.853C238.891 767.156 251.893 754.155 251.893 738.116V78.7965C251.893 62.7584 238.891 49.7569 222.853 49.7569H215.714C199.676 49.7569 186.674 36.7555 186.674 20.7173V-76.0211Z" fill="#F6F6F6"/>
<path d="M170.821 20.7173V-76.0211H165.261V20.7173H170.821ZM131.862 52.5369H139.001V46.9769H131.862V52.5369ZM105.603 738.117V78.7966H100.043V738.117H105.603ZM222.853 764.376H131.862V769.936H222.853V764.376ZM249.113 78.7965V738.116H254.673V78.7965H249.113ZM215.714 52.5369H222.853V46.9769H215.714V52.5369ZM183.895 -76.0211V20.7173H189.454V-76.0211H183.895ZM215.714 46.9769C201.211 46.9769 189.454 35.2201 189.454 20.7173H183.895C183.895 38.2908 198.141 52.5369 215.714 52.5369V46.9769ZM254.673 78.7965C254.673 61.2231 240.427 46.9769 222.853 46.9769V52.5369C237.356 52.5369 249.113 64.2938 249.113 78.7965H254.673ZM222.853 769.936C240.427 769.936 254.673 755.69 254.673 738.116H249.113C249.113 752.619 237.356 764.376 222.853 764.376V769.936ZM100.043 738.117C100.043 755.69 114.289 769.936 131.862 769.936V764.376C117.36 764.376 105.603 752.619 105.603 738.117H100.043ZM131.862 46.9769C114.289 46.9769 100.043 61.2231 100.043 78.7966H105.603C105.603 64.2938 117.36 52.5369 131.862 52.5369V46.9769ZM165.261 20.7173C165.261 35.2201 153.504 46.9769 139.001 46.9769V52.5369C156.575 52.5369 170.821 38.2908 170.821 20.7173H165.261ZM177.358 -82.558C180.968 -82.558 183.895 -79.6313 183.895 -76.0211H189.454C189.454 -82.702 184.039 -88.118 177.358 -88.118V-82.558ZM177.358 -88.118C170.677 -88.118 165.261 -82.702 165.261 -76.0211H170.821C170.821 -79.6313 173.747 -82.558 177.358 -82.558V-88.118Z" fill="url(#paint0_linear_2223_33153)" mask="url(#path-1-outside-1_2223_33153)"/>
<mask id="path-3-outside-2_2223_33153" maskUnits="userSpaceOnUse" x="2010.14" y="-185.137" width="156" height="780" fill="black">
<rect fill="white" x="2010.14" y="-185.137" width="156" height="780"/>
<path fill-rule="evenodd" clip-rule="evenodd" d="M2097.48 -172.82C2097.48 -177.965 2093.31 -182.137 2088.16 -182.137C2083.02 -182.137 2078.85 -177.965 2078.85 -172.82V323.636C2078.85 339.674 2065.85 352.676 2049.81 352.676H2042.18C2026.15 352.676 2013.14 365.677 2013.14 381.715V425.275C2013.14 441.313 2026.15 454.315 2042.18 454.315H2049.81C2065.85 454.315 2078.85 467.316 2078.85 483.354V581.847C2078.85 586.992 2083.02 591.164 2088.16 591.164C2093.31 591.164 2097.48 586.992 2097.48 581.847V483.354C2097.48 467.316 2110.48 454.315 2126.52 454.315H2134.14C2150.18 454.315 2163.18 441.313 2163.18 425.275V381.716C2163.18 365.677 2150.18 352.676 2134.14 352.676H2126.52C2110.48 352.676 2097.48 339.674 2097.48 323.636V-172.82Z"/>
</mask>
<path fill-rule="evenodd" clip-rule="evenodd" d="M2097.48 -172.82C2097.48 -177.965 2093.31 -182.137 2088.16 -182.137C2083.02 -182.137 2078.85 -177.965 2078.85 -172.82V323.636C2078.85 339.674 2065.85 352.676 2049.81 352.676H2042.18C2026.15 352.676 2013.14 365.677 2013.14 381.715V425.275C2013.14 441.313 2026.15 454.315 2042.18 454.315H2049.81C2065.85 454.315 2078.85 467.316 2078.85 483.354V581.847C2078.85 586.992 2083.02 591.164 2088.16 591.164C2093.31 591.164 2097.48 586.992 2097.48 581.847V483.354C2097.48 467.316 2110.48 454.315 2126.52 454.315H2134.14C2150.18 454.315 2163.18 441.313 2163.18 425.275V381.716C2163.18 365.677 2150.18 352.676 2134.14 352.676H2126.52C2110.48 352.676 2097.48 339.674 2097.48 323.636V-172.82Z" fill="#F6F6F6"/>
<path d="M2081.63 323.636V-172.82H2076.07V323.636H2081.63ZM2042.18 355.456H2049.81V349.896H2042.18V355.456ZM2015.92 425.275V381.715H2010.36V425.275H2015.92ZM2049.81 451.534H2042.18V457.095H2049.81V451.534ZM2081.63 581.847V483.354H2076.07V581.847H2081.63ZM2094.7 483.354V581.847H2100.26V483.354H2094.7ZM2134.14 451.534H2126.52V457.095H2134.14V451.534ZM2160.4 381.716V425.275H2165.96V381.716H2160.4ZM2126.52 355.456H2134.14V349.896H2126.52V355.456ZM2094.7 -172.82V323.636H2100.26V-172.82H2094.7ZM2126.52 349.896C2112.02 349.896 2100.26 338.139 2100.26 323.636H2094.7C2094.7 341.21 2108.95 355.456 2126.52 355.456V349.896ZM2165.96 381.716C2165.96 364.142 2151.72 349.896 2134.14 349.896V355.456C2148.65 355.456 2160.4 367.213 2160.4 381.716H2165.96ZM2134.14 457.095C2151.72 457.095 2165.96 442.848 2165.96 425.275H2160.4C2160.4 439.778 2148.65 451.534 2134.14 451.534V457.095ZM2100.26 483.354C2100.26 468.851 2112.02 457.095 2126.52 457.095V451.534C2108.95 451.534 2094.7 465.781 2094.7 483.354H2100.26ZM2088.16 593.944C2094.85 593.944 2100.26 588.528 2100.26 581.847H2094.7C2094.7 585.457 2091.77 588.384 2088.16 588.384V593.944ZM2076.07 581.847C2076.07 588.528 2081.48 593.944 2088.16 593.944V588.384C2084.55 588.384 2081.63 585.457 2081.63 581.847H2076.07ZM2049.81 457.095C2064.31 457.095 2076.07 468.851 2076.07 483.354H2081.63C2081.63 465.781 2067.38 451.534 2049.81 451.534V457.095ZM2010.36 425.275C2010.36 442.848 2024.61 457.095 2042.18 457.095V451.534C2027.68 451.534 2015.92 439.778 2015.92 425.275H2010.36ZM2042.18 349.896C2024.61 349.896 2010.36 364.142 2010.36 381.715H2015.92C2015.92 367.213 2027.68 355.456 2042.18 355.456V349.896ZM2076.07 323.636C2076.07 338.139 2064.31 349.896 2049.81 349.896V355.456C2067.38 355.456 2081.63 341.21 2081.63 323.636H2076.07ZM2088.16 -179.357C2091.77 -179.357 2094.7 -176.43 2094.7 -172.82H2100.26C2100.26 -179.501 2094.85 -184.917 2088.16 -184.917V-179.357ZM2088.16 -184.917C2081.48 -184.917 2076.07 -179.501 2076.07 -172.82H2081.63C2081.63 -176.43 2084.55 -179.357 2088.16 -179.357V-184.917Z" fill="url(#paint1_linear_2223_33153)" mask="url(#path-3-outside-2_2223_33153)"/>
<mask id="path-5-outside-3_2223_33153" maskUnits="userSpaceOnUse" x="737.241" y="-53.4033" width="156" height="990" fill="black">
<rect fill="white" x="737.241" y="-53.4033" width="156" height="990"/>
<path fill-rule="evenodd" clip-rule="evenodd" d="M822.581 -42.3387C822.581 -46.7926 818.97 -50.4032 814.516 -50.4032C810.062 -50.4032 806.452 -46.7926 806.452 -42.3387V427.694C806.452 443.732 793.45 456.734 777.412 456.734H769.281C753.243 456.734 740.241 469.735 740.241 485.774V904.428C740.241 920.466 753.243 933.467 769.281 933.467H861.24C877.278 933.467 890.279 920.466 890.279 904.428V485.774C890.279 469.735 877.278 456.734 861.24 456.734H851.62C835.582 456.734 822.581 443.732 822.581 427.694V-42.3387Z"/>
</mask>
<path fill-rule="evenodd" clip-rule="evenodd" d="M822.581 -42.3387C822.581 -46.7926 818.97 -50.4032 814.516 -50.4032C810.062 -50.4032 806.452 -46.7926 806.452 -42.3387V427.694C806.452 443.732 793.45 456.734 777.412 456.734H769.281C753.243 456.734 740.241 469.735 740.241 485.774V904.428C740.241 920.466 753.243 933.467 769.281 933.467H861.24C877.278 933.467 890.279 920.466 890.279 904.428V485.774C890.279 469.735 877.278 456.734 861.24 456.734H851.62C835.582 456.734 822.581 443.732 822.581 427.694V-42.3387Z" fill="#F6F6F6"/>
<path d="M809.232 427.694V-42.3387H803.672V427.694H809.232ZM769.281 459.514H777.412V453.954H769.281V459.514ZM743.021 904.428V485.774H737.461V904.428H743.021ZM861.24 930.687H769.281V936.247H861.24V930.687ZM887.499 485.774V904.428H893.059V485.774H887.499ZM851.62 459.514H861.24V453.954H851.62V459.514ZM819.801 -42.3387V427.694H825.361V-42.3387H819.801ZM851.62 453.954C837.118 453.954 825.361 442.197 825.361 427.694H819.801C819.801 445.268 834.047 459.514 851.62 459.514V453.954ZM893.059 485.774C893.059 468.2 878.813 453.954 861.24 453.954V459.514C875.743 459.514 887.499 471.271 887.499 485.774H893.059ZM861.24 936.247C878.813 936.247 893.059 922.001 893.059 904.428H887.499C887.499 918.931 875.743 930.687 861.24 930.687V936.247ZM737.461 904.428C737.461 922.001 751.708 936.247 769.281 936.247V930.687C754.778 930.687 743.021 918.931 743.021 904.428H737.461ZM769.281 453.954C751.708 453.954 737.461 468.2 737.461 485.774H743.021C743.021 471.271 754.778 459.514 769.281 459.514V453.954ZM803.672 427.694C803.672 442.197 791.915 453.954 777.412 453.954V459.514C794.986 459.514 809.232 445.268 809.232 427.694H803.672ZM814.516 -47.6232C817.435 -47.6232 819.801 -45.2573 819.801 -42.3387H825.361C825.361 -48.328 820.506 -53.1832 814.516 -53.1832V-47.6232ZM814.516 -53.1832C808.527 -53.1832 803.672 -48.328 803.672 -42.3387H809.232C809.232 -45.2573 811.598 -47.6232 814.516 -47.6232V-53.1832Z" fill="url(#paint2_linear_2223_33153)" mask="url(#path-5-outside-3_2223_33153)"/>
<mask id="path-7-outside-4_2223_33153" maskUnits="userSpaceOnUse" x="2223.59" y="-185.137" width="156" height="780" fill="black">
<rect fill="white" x="2223.59" y="-185.137" width="156" height="780"/>
<path fill-rule="evenodd" clip-rule="evenodd" d="M2310.44 -172.82C2310.44 -177.965 2306.27 -182.137 2301.12 -182.137C2295.98 -182.137 2291.8 -177.965 2291.8 -172.82V151.818C2291.8 167.857 2278.8 180.858 2262.76 180.858H2255.63C2239.59 180.858 2226.59 193.859 2226.59 209.898V425.275C2226.59 441.313 2239.59 454.314 2255.63 454.314H2262.76C2278.8 454.314 2291.8 467.316 2291.8 483.354V581.847C2291.8 586.992 2295.98 591.164 2301.12 591.164C2306.27 591.164 2310.44 586.992 2310.44 581.847V483.354C2310.44 467.316 2323.44 454.314 2339.48 454.314H2347.58C2363.62 454.314 2376.62 441.313 2376.62 425.275V209.898C2376.62 193.859 2363.62 180.858 2347.58 180.858H2339.48C2323.44 180.858 2310.44 167.857 2310.44 151.818V-172.82Z"/>
</mask>
<path fill-rule="evenodd" clip-rule="evenodd" d="M2310.44 -172.82C2310.44 -177.965 2306.27 -182.137 2301.12 -182.137C2295.98 -182.137 2291.8 -177.965 2291.8 -172.82V151.818C2291.8 167.857 2278.8 180.858 2262.76 180.858H2255.63C2239.59 180.858 2226.59 193.859 2226.59 209.898V425.275C2226.59 441.313 2239.59 454.314 2255.63 454.314H2262.76C2278.8 454.314 2291.8 467.316 2291.8 483.354V581.847C2291.8 586.992 2295.98 591.164 2301.12 591.164C2306.27 591.164 2310.44 586.992 2310.44 581.847V483.354C2310.44 467.316 2323.44 454.314 2339.48 454.314H2347.58C2363.62 454.314 2376.62 441.313 2376.62 425.275V209.898C2376.62 193.859 2363.62 180.858 2347.58 180.858H2339.48C2323.44 180.858 2310.44 167.857 2310.44 151.818V-172.82Z" fill="#F6F6F6"/>
<path d="M2294.58 151.818V-172.82H2289.02V151.818H2294.58ZM2255.63 183.638H2262.76V178.078H2255.63V183.638ZM2229.37 425.275V209.898H2223.81V425.275H2229.37ZM2262.76 451.534H2255.63V457.094H2262.76V451.534ZM2294.58 581.847V483.354H2289.02V581.847H2294.58ZM2307.66 483.354V581.847H2313.22V483.354H2307.66ZM2347.58 451.534H2339.48V457.094H2347.58V451.534ZM2373.84 209.898V425.275H2379.4V209.898H2373.84ZM2339.48 183.638H2347.58V178.078H2339.48V183.638ZM2307.66 -172.82V151.818H2313.22V-172.82H2307.66ZM2339.48 178.078C2324.97 178.078 2313.22 166.321 2313.22 151.818H2307.66C2307.66 169.392 2321.9 183.638 2339.48 183.638V178.078ZM2379.4 209.898C2379.4 192.324 2365.16 178.078 2347.58 178.078V183.638C2362.09 183.638 2373.84 195.395 2373.84 209.898H2379.4ZM2347.58 457.094C2365.16 457.094 2379.4 442.848 2379.4 425.275H2373.84C2373.84 439.777 2362.09 451.534 2347.58 451.534V457.094ZM2313.22 483.354C2313.22 468.851 2324.97 457.094 2339.48 457.094V451.534C2321.9 451.534 2307.66 465.78 2307.66 483.354H2313.22ZM2301.12 593.944C2307.8 593.944 2313.22 588.528 2313.22 581.847H2307.66C2307.66 585.457 2304.73 588.384 2301.12 588.384V593.944ZM2289.02 581.847C2289.02 588.528 2294.44 593.944 2301.12 593.944V588.384C2297.51 588.384 2294.58 585.457 2294.58 581.847H2289.02ZM2262.76 457.094C2277.27 457.094 2289.02 468.851 2289.02 483.354H2294.58C2294.58 465.78 2280.34 451.534 2262.76 451.534V457.094ZM2223.81 425.275C2223.81 442.848 2238.05 457.094 2255.63 457.094V451.534C2241.12 451.534 2229.37 439.777 2229.37 425.275H2223.81ZM2255.63 178.078C2238.05 178.078 2223.81 192.324 2223.81 209.898H2229.37C2229.37 195.395 2241.12 183.638 2255.63 183.638V178.078ZM2289.02 151.818C2289.02 166.321 2277.27 178.078 2262.76 178.078V183.638C2280.34 183.638 2294.58 169.392 2294.58 151.818H2289.02ZM2301.12 -179.357C2304.73 -179.357 2307.66 -176.43 2307.66 -172.82H2313.22C2313.22 -179.501 2307.8 -184.917 2301.12 -184.917V-179.357ZM2301.12 -184.917C2294.44 -184.917 2289.02 -179.501 2289.02 -172.82H2294.58C2294.58 -176.43 2297.51 -179.357 2301.12 -179.357V-184.917Z" fill="url(#paint3_linear_2223_33153)" mask="url(#path-7-outside-4_2223_33153)"/>
<mask id="path-9-outside-5_2223_33153" maskUnits="userSpaceOnUse" x="949.716" y="-185.137" width="156" height="780" fill="black">
<rect fill="white" x="949.716" y="-185.137" width="156" height="780"/>
<path fill-rule="evenodd" clip-rule="evenodd" d="M1036.57 -172.82C1036.57 -177.965 1032.4 -182.137 1027.25 -182.137C1022.1 -182.137 1017.93 -177.965 1017.93 -172.82V151.818C1017.93 167.857 1004.93 180.858 988.894 180.858H981.755C965.717 180.858 952.716 193.859 952.716 209.898V425.275C952.716 441.313 965.717 454.314 981.755 454.314H988.894C1004.93 454.314 1017.93 467.316 1017.93 483.354V581.847C1017.93 586.992 1022.1 591.164 1027.25 591.164C1032.4 591.164 1036.57 586.992 1036.57 581.847V483.354C1036.57 467.316 1049.57 454.314 1065.61 454.314H1073.71C1089.75 454.314 1102.75 441.313 1102.75 425.275V209.898C1102.75 193.859 1089.75 180.858 1073.71 180.858H1065.61C1049.57 180.858 1036.57 167.857 1036.57 151.818V-172.82Z"/>
</mask>
<path fill-rule="evenodd" clip-rule="evenodd" d="M1036.57 -172.82C1036.57 -177.965 1032.4 -182.137 1027.25 -182.137C1022.1 -182.137 1017.93 -177.965 1017.93 -172.82V151.818C1017.93 167.857 1004.93 180.858 988.894 180.858H981.755C965.717 180.858 952.716 193.859 952.716 209.898V425.275C952.716 441.313 965.717 454.314 981.755 454.314H988.894C1004.93 454.314 1017.93 467.316 1017.93 483.354V581.847C1017.93 586.992 1022.1 591.164 1027.25 591.164C1032.4 591.164 1036.57 586.992 1036.57 581.847V483.354C1036.57 467.316 1049.57 454.314 1065.61 454.314H1073.71C1089.75 454.314 1102.75 441.313 1102.75 425.275V209.898C1102.75 193.859 1089.75 180.858 1073.71 180.858H1065.61C1049.57 180.858 1036.57 167.857 1036.57 151.818V-172.82Z" fill="#F6F6F6"/>
<path d="M1020.71 151.818V-172.82H1015.15V151.818H1020.71ZM981.755 183.638H988.894V178.078H981.755V183.638ZM955.496 425.275V209.898H949.936V425.275H955.496ZM988.894 451.534H981.755V457.094H988.894V451.534ZM1020.71 581.847V483.354H1015.15V581.847H1020.71ZM1033.79 483.354V581.847H1039.35V483.354H1033.79ZM1073.71 451.534H1065.61V457.094H1073.71V451.534ZM1099.97 209.898V425.275H1105.53V209.898H1099.97ZM1065.61 183.638H1073.71V178.078H1065.61V183.638ZM1033.79 -172.82V151.818H1039.35V-172.82H1033.79ZM1065.61 178.078C1051.1 178.078 1039.35 166.321 1039.35 151.818H1033.79C1033.79 169.392 1048.03 183.638 1065.61 183.638V178.078ZM1105.53 209.898C1105.53 192.324 1091.29 178.078 1073.71 178.078V183.638C1088.22 183.638 1099.97 195.395 1099.97 209.898H1105.53ZM1073.71 457.094C1091.29 457.094 1105.53 442.848 1105.53 425.275H1099.97C1099.97 439.777 1088.22 451.534 1073.71 451.534V457.094ZM1039.35 483.354C1039.35 468.851 1051.1 457.094 1065.61 457.094V451.534C1048.03 451.534 1033.79 465.78 1033.79 483.354H1039.35ZM1027.25 593.944C1033.93 593.944 1039.35 588.528 1039.35 581.847H1033.79C1033.79 585.457 1030.86 588.384 1027.25 588.384V593.944ZM1015.15 581.847C1015.15 588.528 1020.57 593.944 1027.25 593.944V588.384C1023.64 588.384 1020.71 585.457 1020.71 581.847H1015.15ZM988.894 457.094C1003.4 457.094 1015.15 468.851 1015.15 483.354H1020.71C1020.71 465.78 1006.47 451.534 988.894 451.534V457.094ZM949.936 425.275C949.936 442.848 964.182 457.094 981.755 457.094V451.534C967.252 451.534 955.496 439.777 955.496 425.275H949.936ZM981.755 178.078C964.182 178.078 949.936 192.324 949.936 209.898H955.496C955.496 195.395 967.252 183.638 981.755 183.638V178.078ZM1015.15 151.818C1015.15 166.321 1003.4 178.078 988.894 178.078V183.638C1006.47 183.638 1020.71 169.392 1020.71 151.818H1015.15ZM1027.25 -179.357C1030.86 -179.357 1033.79 -176.43 1033.79 -172.82H1039.35C1039.35 -179.501 1033.93 -184.917 1027.25 -184.917V-179.357ZM1027.25 -184.917C1020.57 -184.917 1015.15 -179.501 1015.15 -172.82H1020.71C1020.71 -176.43 1023.64 -179.357 1027.25 -179.357V-184.917Z" fill="url(#paint4_linear_2223_33153)" mask="url(#path-9-outside-5_2223_33153)"/>
<mask id="path-11-outside-6_2223_33153" maskUnits="userSpaceOnUse" x="311.327" y="-497.312" width="156" height="1269" fill="black">
<rect fill="white" x="311.327" y="-497.312" width="156" height="1269"/>
<path fill-rule="evenodd" clip-rule="evenodd" d="M398.663 -484.996C398.663 -490.141 394.492 -494.312 389.347 -494.312C384.201 -494.312 380.03 -490.141 380.03 -484.996V-211.176C380.03 -195.138 367.028 -182.137 350.99 -182.137H343.367C327.329 -182.137 314.327 -169.135 314.327 -153.097V328.476C314.327 344.514 327.329 357.516 343.367 357.516H350.99C367.028 357.516 380.03 370.517 380.03 386.555V758.807C380.03 763.953 384.201 768.124 389.347 768.124C394.492 768.124 398.663 763.953 398.663 758.807V386.555C398.663 370.517 411.665 357.516 427.703 357.516H435.326C451.364 357.516 464.365 344.514 464.365 328.476V-153.097C464.365 -169.135 451.364 -182.137 435.326 -182.137H427.703C411.665 -182.137 398.663 -195.138 398.663 -211.176V-484.996Z"/>
</mask>
<path fill-rule="evenodd" clip-rule="evenodd" d="M398.663 -484.996C398.663 -490.141 394.492 -494.312 389.347 -494.312C384.201 -494.312 380.03 -490.141 380.03 -484.996V-211.176C380.03 -195.138 367.028 -182.137 350.99 -182.137H343.367C327.329 -182.137 314.327 -169.135 314.327 -153.097V328.476C314.327 344.514 327.329 357.516 343.367 357.516H350.99C367.028 357.516 380.03 370.517 380.03 386.555V758.807C380.03 763.953 384.201 768.124 389.347 768.124C394.492 768.124 398.663 763.953 398.663 758.807V386.555C398.663 370.517 411.665 357.516 427.703 357.516H435.326C451.364 357.516 464.365 344.514 464.365 328.476V-153.097C464.365 -169.135 451.364 -182.137 435.326 -182.137H427.703C411.665 -182.137 398.663 -195.138 398.663 -211.176V-484.996Z" fill="#F6F6F6"/>
<path d="M382.81 -211.176V-484.996H377.25V-211.176H382.81ZM343.367 -179.357H350.99V-184.917H343.367V-179.357ZM317.107 328.476V-153.097H311.547V328.476H317.107ZM350.99 354.736H343.367V360.296H350.99V354.736ZM382.81 758.807V386.555H377.25V758.807H382.81ZM395.883 386.555V758.807H401.443V386.555H395.883ZM435.326 354.736H427.703V360.296H435.326V354.736ZM461.585 -153.097V328.476H467.145V-153.097H461.585ZM427.703 -179.357H435.326V-184.917H427.703V-179.357ZM395.883 -484.996V-211.176H401.443V-484.996H395.883ZM427.703 -184.917C413.2 -184.917 401.443 -196.674 401.443 -211.176H395.883C395.883 -193.603 410.13 -179.357 427.703 -179.357V-184.917ZM467.145 -153.097C467.145 -170.671 452.899 -184.917 435.326 -184.917V-179.357C449.828 -179.357 461.585 -167.6 461.585 -153.097H467.145ZM435.326 360.296C452.899 360.296 467.145 346.05 467.145 328.476H461.585C461.585 342.979 449.828 354.736 435.326 354.736V360.296ZM401.443 386.555C401.443 372.053 413.2 360.296 427.703 360.296V354.736C410.13 354.736 395.883 368.982 395.883 386.555H401.443ZM389.347 770.904C396.027 770.904 401.443 765.488 401.443 758.807H395.883C395.883 762.417 392.957 765.344 389.347 765.344V770.904ZM377.25 758.807C377.25 765.488 382.666 770.904 389.347 770.904V765.344C385.736 765.344 382.81 762.417 382.81 758.807H377.25ZM350.99 360.296C365.493 360.296 377.25 372.053 377.25 386.555H382.81C382.81 368.982 368.564 354.736 350.99 354.736V360.296ZM311.547 328.476C311.547 346.05 325.793 360.296 343.367 360.296V354.736C328.864 354.736 317.107 342.979 317.107 328.476H311.547ZM343.367 -184.917C325.793 -184.917 311.547 -170.671 311.547 -153.097H317.107C317.107 -167.6 328.864 -179.357 343.367 -179.357V-184.917ZM377.25 -211.176C377.25 -196.674 365.493 -184.917 350.99 -184.917V-179.357C368.564 -179.357 382.81 -193.603 382.81 -211.176H377.25ZM389.347 -491.532C392.957 -491.532 395.883 -488.606 395.883 -484.996H401.443C401.443 -491.676 396.027 -497.092 389.347 -497.092V-491.532ZM389.347 -497.092C382.666 -497.092 377.25 -491.676 377.25 -484.996H382.81C382.81 -488.606 385.736 -491.532 389.347 -491.532V-497.092Z" fill="url(#paint5_linear_2223_33153)" mask="url(#path-11-outside-6_2223_33153)"/>
<mask id="path-13-outside-7_2223_33153" maskUnits="userSpaceOnUse" x="1162.67" y="-664.29" width="155" height="1269" fill="black">
<rect fill="white" x="1162.67" y="-664.29" width="155" height="1269"/>
<path fill-rule="evenodd" clip-rule="evenodd" d="M1249.52 -651.973C1249.52 -657.119 1245.35 -661.29 1240.21 -661.29C1235.06 -661.29 1230.89 -657.119 1230.89 -651.973V-555.235C1230.89 -539.197 1217.89 -526.196 1201.85 -526.196H1194.71C1178.67 -526.196 1165.67 -513.194 1165.67 -497.156V162.164C1165.67 178.202 1178.67 191.203 1194.71 191.203H1201.85C1217.89 191.203 1230.89 204.205 1230.89 220.243V591.829C1230.89 596.975 1235.06 601.146 1240.21 601.146C1245.35 601.146 1249.52 596.975 1249.52 591.829V220.243C1249.52 204.205 1262.53 191.203 1278.56 191.203H1285.7C1301.74 191.203 1314.74 178.202 1314.74 162.164V-497.156C1314.74 -513.194 1301.74 -526.196 1285.7 -526.196H1278.56C1262.53 -526.196 1249.52 -539.197 1249.52 -555.235V-651.973Z"/>
</mask>
<path fill-rule="evenodd" clip-rule="evenodd" d="M1249.52 -651.973C1249.52 -657.119 1245.35 -661.29 1240.21 -661.29C1235.06 -661.29 1230.89 -657.119 1230.89 -651.973V-555.235C1230.89 -539.197 1217.89 -526.196 1201.85 -526.196H1194.71C1178.67 -526.196 1165.67 -513.194 1165.67 -497.156V162.164C1165.67 178.202 1178.67 191.203 1194.71 191.203H1201.85C1217.89 191.203 1230.89 204.205 1230.89 220.243V591.829C1230.89 596.975 1235.06 601.146 1240.21 601.146C1245.35 601.146 1249.52 596.975 1249.52 591.829V220.243C1249.52 204.205 1262.53 191.203 1278.56 191.203H1285.7C1301.74 191.203 1314.74 178.202 1314.74 162.164V-497.156C1314.74 -513.194 1301.74 -526.196 1285.7 -526.196H1278.56C1262.53 -526.196 1249.52 -539.197 1249.52 -555.235V-651.973Z" fill="#F6F6F6"/>
<path d="M1233.67 -555.235V-651.973H1228.11V-555.235H1233.67ZM1194.71 -523.416H1201.85V-528.976H1194.71V-523.416ZM1168.45 162.164V-497.156H1162.89V162.164H1168.45ZM1201.85 188.423H1194.71V193.983H1201.85V188.423ZM1233.67 591.829V220.243H1228.11V591.829H1233.67ZM1246.74 220.243V591.829H1252.3V220.243H1246.74ZM1285.7 188.423H1278.56V193.983H1285.7V188.423ZM1311.96 -497.156V162.164H1317.52V-497.156H1311.96ZM1278.56 -523.416H1285.7V-528.976H1278.56V-523.416ZM1246.74 -651.973V-555.235H1252.3V-651.973H1246.74ZM1278.56 -528.976C1264.06 -528.976 1252.3 -540.733 1252.3 -555.235H1246.74C1246.74 -537.662 1260.99 -523.416 1278.56 -523.416V-528.976ZM1317.52 -497.156C1317.52 -514.73 1303.28 -528.976 1285.7 -528.976V-523.416C1300.21 -523.416 1311.96 -511.659 1311.96 -497.156H1317.52ZM1285.7 193.983C1303.28 193.983 1317.52 179.737 1317.52 162.164H1311.96C1311.96 176.666 1300.21 188.423 1285.7 188.423V193.983ZM1252.3 220.243C1252.3 205.74 1264.06 193.983 1278.56 193.983V188.423C1260.99 188.423 1246.74 202.669 1246.74 220.243H1252.3ZM1240.21 603.926C1246.89 603.926 1252.3 598.51 1252.3 591.829H1246.74C1246.74 595.439 1243.82 598.366 1240.21 598.366V603.926ZM1228.11 591.829C1228.11 598.51 1233.53 603.926 1240.21 603.926V598.366C1236.6 598.366 1233.67 595.439 1233.67 591.829H1228.11ZM1201.85 193.983C1216.35 193.983 1228.11 205.74 1228.11 220.243H1233.67C1233.67 202.669 1219.42 188.423 1201.85 188.423V193.983ZM1162.89 162.164C1162.89 179.737 1177.14 193.983 1194.71 193.983V188.423C1180.21 188.423 1168.45 176.666 1168.45 162.164H1162.89ZM1194.71 -528.976C1177.14 -528.976 1162.89 -514.73 1162.89 -497.156H1168.45C1168.45 -511.659 1180.21 -523.416 1194.71 -523.416V-528.976ZM1228.11 -555.235C1228.11 -540.733 1216.35 -528.976 1201.85 -528.976V-523.416C1219.42 -523.416 1233.67 -537.662 1233.67 -555.235H1228.11ZM1240.21 -658.51C1243.82 -658.51 1246.74 -655.584 1246.74 -651.973H1252.3C1252.3 -658.654 1246.89 -664.07 1240.21 -664.07V-658.51ZM1240.21 -664.07C1233.53 -664.07 1228.11 -658.654 1228.11 -651.973H1233.67C1233.67 -655.584 1236.6 -658.51 1240.21 -658.51V-664.07Z" fill="url(#paint6_linear_2223_33153)" mask="url(#path-13-outside-7_2223_33153)"/>
<mask id="path-15-outside-8_2223_33153" maskUnits="userSpaceOnUse" x="2649.02" y="-664.29" width="156" height="1269" fill="black">
<rect fill="white" x="2649.02" y="-664.29" width="156" height="1269"/>
<path fill-rule="evenodd" clip-rule="evenodd" d="M2736.35 -651.973C2736.35 -657.119 2732.18 -661.29 2727.04 -661.29C2721.89 -661.29 2717.72 -657.119 2717.72 -651.973V-554.812C2717.72 -538.774 2704.72 -525.772 2688.68 -525.772H2681.05C2665.02 -525.772 2652.02 -512.771 2652.02 -496.732V81.6396C2652.02 97.6777 2665.02 110.679 2681.05 110.679H2688.68C2704.72 110.679 2717.72 123.681 2717.72 139.719V591.829C2717.72 596.975 2721.89 601.146 2727.04 601.146C2732.18 601.146 2736.35 596.975 2736.35 591.829V139.719C2736.35 123.681 2749.35 110.679 2765.39 110.679H2773.01C2789.05 110.679 2802.05 97.6777 2802.05 81.6396V-496.732C2802.05 -512.771 2789.05 -525.772 2773.01 -525.772H2765.39C2749.35 -525.772 2736.35 -538.774 2736.35 -554.812V-651.973Z"/>
</mask>
<path fill-rule="evenodd" clip-rule="evenodd" d="M2736.35 -651.973C2736.35 -657.119 2732.18 -661.29 2727.04 -661.29C2721.89 -661.29 2717.72 -657.119 2717.72 -651.973V-554.812C2717.72 -538.774 2704.72 -525.772 2688.68 -525.772H2681.05C2665.02 -525.772 2652.02 -512.771 2652.02 -496.732V81.6396C2652.02 97.6777 2665.02 110.679 2681.05 110.679H2688.68C2704.72 110.679 2717.72 123.681 2717.72 139.719V591.829C2717.72 596.975 2721.89 601.146 2727.04 601.146C2732.18 601.146 2736.35 596.975 2736.35 591.829V139.719C2736.35 123.681 2749.35 110.679 2765.39 110.679H2773.01C2789.05 110.679 2802.05 97.6777 2802.05 81.6396V-496.732C2802.05 -512.771 2789.05 -525.772 2773.01 -525.772H2765.39C2749.35 -525.772 2736.35 -538.774 2736.35 -554.812V-651.973Z" fill="#F6F6F6"/>
<path d="M2720.5 -554.812V-651.973H2714.94V-554.812H2720.5ZM2681.05 -522.992H2688.68V-528.552H2681.05V-522.992ZM2654.8 81.6396V-496.732H2649.24V81.6396H2654.8ZM2688.68 107.899H2681.05V113.459H2688.68V107.899ZM2720.5 591.829V139.719H2714.94V591.829H2720.5ZM2733.57 139.719V591.829H2739.13V139.719H2733.57ZM2773.01 107.899H2765.39V113.459H2773.01V107.899ZM2799.27 -496.732V81.6396H2804.83V-496.732H2799.27ZM2765.39 -522.992H2773.01V-528.552H2765.39V-522.992ZM2733.57 -651.973V-554.812H2739.13V-651.973H2733.57ZM2765.39 -528.552C2750.89 -528.552 2739.13 -540.309 2739.13 -554.812H2733.57C2733.57 -537.238 2747.82 -522.992 2765.39 -522.992V-528.552ZM2804.83 -496.732C2804.83 -514.306 2790.59 -528.552 2773.01 -528.552V-522.992C2787.52 -522.992 2799.27 -511.235 2799.27 -496.732H2804.83ZM2773.01 113.459C2790.59 113.459 2804.83 99.2131 2804.83 81.6396H2799.27C2799.27 96.1423 2787.52 107.899 2773.01 107.899V113.459ZM2739.13 139.719C2739.13 125.216 2750.89 113.459 2765.39 113.459V107.899C2747.82 107.899 2733.57 122.145 2733.57 139.719H2739.13ZM2727.04 603.926C2733.72 603.926 2739.13 598.51 2739.13 591.829H2733.57C2733.57 595.439 2730.65 598.366 2727.04 598.366V603.926ZM2714.94 591.829C2714.94 598.51 2720.35 603.926 2727.04 603.926V598.366C2723.43 598.366 2720.5 595.439 2720.5 591.829H2714.94ZM2688.68 113.459C2703.18 113.459 2714.94 125.216 2714.94 139.719H2720.5C2720.5 122.145 2706.25 107.899 2688.68 107.899V113.459ZM2649.24 81.6396C2649.24 99.2131 2663.48 113.459 2681.05 113.459V107.899C2666.55 107.899 2654.8 96.1424 2654.8 81.6396H2649.24ZM2681.05 -528.552C2663.48 -528.552 2649.24 -514.306 2649.24 -496.732H2654.8C2654.8 -511.235 2666.55 -522.992 2681.05 -522.992V-528.552ZM2714.94 -554.812C2714.94 -540.309 2703.18 -528.552 2688.68 -528.552V-522.992C2706.25 -522.992 2720.5 -537.238 2720.5 -554.812H2714.94ZM2727.04 -658.51C2730.65 -658.51 2733.57 -655.584 2733.57 -651.973H2739.13C2739.13 -658.654 2733.72 -664.07 2727.04 -664.07V-658.51ZM2727.04 -664.07C2720.35 -664.07 2714.94 -658.654 2714.94 -651.973H2720.5C2720.5 -655.584 2723.43 -658.51 2727.04 -658.51V-664.07Z" fill="url(#paint7_linear_2223_33153)" mask="url(#path-15-outside-8_2223_33153)"/>
</g>
<defs>
<linearGradient id="paint0_linear_2223_33153" x1="177.358" y1="-85.3379" x2="177.358" y2="767.156" gradientUnits="userSpaceOnUse">
<stop stop-color="#2EBB8E"/>
<stop offset="1" stop-color="#457EFF"/>
</linearGradient>
<linearGradient id="paint1_linear_2223_33153" x1="2088.16" y1="-182.137" x2="2088.16" y2="591.164" gradientUnits="userSpaceOnUse">
<stop stop-color="#457EFF"/>
<stop offset="1" stop-color="#FF5E0D"/>
</linearGradient>
<linearGradient id="paint2_linear_2223_33153" x1="814.777" y1="93.7391" x2="814.777" y2="867.039" gradientUnits="userSpaceOnUse">
<stop stop-color="#2EBB8E"/>
<stop offset="1" stop-color="#457EFF"/>
</linearGradient>
<linearGradient id="paint3_linear_2223_33153" x1="2301.6" y1="-182.137" x2="2301.6" y2="591.164" gradientUnits="userSpaceOnUse">
<stop stop-color="#2EBB8E"/>
<stop offset="1" stop-color="#457EFF"/>
</linearGradient>
<linearGradient id="paint4_linear_2223_33153" x1="1027.73" y1="-182.137" x2="1027.73" y2="591.164" gradientUnits="userSpaceOnUse">
<stop stop-color="#2EBB8E"/>
<stop offset="1" stop-color="#457EFF"/>
</linearGradient>
<linearGradient id="paint5_linear_2223_33153" x1="389.347" y1="-17.1371" x2="389.347" y2="768.124" gradientUnits="userSpaceOnUse">
<stop stop-color="#457EFF"/>
<stop offset="1" stop-color="#FF5E0D"/>
</linearGradient>
<linearGradient id="paint6_linear_2223_33153" x1="1240.21" y1="-661.29" x2="1240.21" y2="601.146" gradientUnits="userSpaceOnUse">
<stop stop-color="#2EBB8E"/>
<stop offset="1" stop-color="#457EFF"/>
</linearGradient>
<linearGradient id="paint7_linear_2223_33153" x1="2727.04" y1="-661.29" x2="2727.04" y2="601.146" gradientUnits="userSpaceOnUse">
<stop stop-color="#FF5E0D"/>
<stop offset="1" stop-color="#457EFF"/>
</linearGradient>
<clipPath id="clip0_2223_33153">
<rect width="2901.21" height="500" fill="white"/>
</clipPath>
</defs>
</svg>
