<svg width="82" height="81" viewBox="0 0 82 81" fill="none" xmlns="http://www.w3.org/2000/svg">
<g filter="url(#filter0_dd_1688_567)">
<rect x="8.68164" y="4.18188" width="64.6362" height="64.6362" rx="32.3181" fill="white"/>
<path fill-rule="evenodd" clip-rule="evenodd" d="M28.1203 59.1374C27.8253 59.3173 27.4411 59.2339 27.2472 58.9479L26.5044 57.8527C26.3104 57.5668 26.3756 57.1796 26.6476 56.9666C29.0942 55.0523 31.1052 52.8946 32.6867 50.5836C38.5756 41.9785 38.5756 31.1499 32.6867 22.5448C31.1052 20.2338 29.0942 18.0761 26.6477 16.1618C26.3756 15.9488 26.3104 15.5616 26.5044 15.2757L27.2472 14.1804C27.4411 13.8945 27.8253 13.8111 28.1203 13.991L61.1156 34.1047C62.9572 35.2273 62.9572 37.9011 61.1156 39.0237L28.1203 59.1374Z" fill="url(#paint0_linear_1688_567)"/>
</g>
<defs>
<filter id="filter0_dd_1688_567" x="0.681641" y="0.181885" width="80.6367" height="80.6362" filterUnits="userSpaceOnUse" color-interpolation-filters="sRGB">
<feFlood flood-opacity="0" result="BackgroundImageFix"/>
<feColorMatrix in="SourceAlpha" type="matrix" values="0 0 0 0 0 0 0 0 0 0 0 0 0 0 0 0 0 0 127 0" result="hardAlpha"/>
<feOffset dy="4"/>
<feGaussianBlur stdDeviation="4"/>
<feColorMatrix type="matrix" values="0 0 0 0 0.184314 0 0 0 0 0.168627 0 0 0 0 0.262745 0 0 0 0.1 0"/>
<feBlend mode="normal" in2="BackgroundImageFix" result="effect1_dropShadow_1688_567"/>
<feColorMatrix in="SourceAlpha" type="matrix" values="0 0 0 0 0 0 0 0 0 0 0 0 0 0 0 0 0 0 127 0" result="hardAlpha"/>
<feOffset/>
<feGaussianBlur stdDeviation="0.5"/>
<feComposite in2="hardAlpha" operator="out"/>
<feColorMatrix type="matrix" values="0 0 0 0 0.760784 0 0 0 0 0.772549 0 0 0 0 0.8 0 0 0 1 0"/>
<feBlend mode="normal" in2="effect1_dropShadow_1688_567" result="effect2_dropShadow_1688_567"/>
<feBlend mode="normal" in="SourceGraphic" in2="effect2_dropShadow_1688_567" result="shape"/>
</filter>
<linearGradient id="paint0_linear_1688_567" x1="62.4968" y1="28.8511" x2="26.3926" y2="28.8511" gradientUnits="userSpaceOnUse">
<stop stop-color="#3568DD"/>
<stop offset="1" stop-color="#7DA3F9"/>
</linearGradient>
</defs>
</svg>
