<svg width="1432" height="845" viewBox="0 0 1432 845" fill="none" xmlns="http://www.w3.org/2000/svg">
<circle cx="81.684" cy="344.684" r="63.7222" transform="rotate(-4.58037 81.684 344.684)" fill="#E9EFFB" stroke="#C5D4F5" stroke-width="2"/>
<path d="M51.8121 308.681L52.3605 307.844L51.8121 308.681C56.6981 311.885 60.794 315.603 64.1024 319.665C76.4082 334.772 78.0185 354.872 68.2748 371.746C65.6552 376.282 62.2036 380.605 57.89 384.546L57.89 384.546C57.0225 385.339 56.8918 386.681 57.6472 387.617L59.234 389.581C59.9835 390.509 61.3293 390.685 62.2946 389.99L122.324 346.764C126.284 343.912 125.803 337.908 121.439 335.723L55.2939 302.605C54.2303 302.072 52.9296 302.461 52.3374 303.496L51.0837 305.688C50.4868 306.732 50.8296 308.036 51.8121 308.681Z" fill="white" stroke="#C5D4F5" stroke-width="2"/>
<circle cx="1290.68" cy="78.684" r="63.7222" transform="rotate(13.1361 1290.68 78.684)" fill="#E9EFFB" stroke="#C5D4F5" stroke-width="2"/>
<path d="M1273.18 35.2978L1273.96 34.6681L1273.18 35.2978C1276.86 39.8367 1279.63 44.6253 1281.55 49.501C1288.67 67.6363 1284.09 87.2735 1269.67 100.382C1265.8 103.906 1261.2 106.974 1255.89 109.415L1255.89 109.415C1254.82 109.906 1254.29 111.145 1254.72 112.266L1255.64 114.62C1256.07 115.732 1257.3 116.31 1258.43 115.941L1328.76 93.0322C1333.4 91.5208 1334.77 85.6549 1331.28 82.2457L1278.35 30.5697C1277.5 29.7387 1276.14 29.7127 1275.26 30.5189L1273.4 32.2257C1272.51 33.0383 1272.44 34.3851 1273.18 35.2978Z" fill="white" stroke="#C5D4F5" stroke-width="2"/>
<circle cx="82.9059" cy="496.906" r="63.7222" transform="rotate(19.9267 82.9059 496.906)" fill="#E9EFFB" stroke="#C5D4F5" stroke-width="2"/>
<path d="M70.6587 451.755L71.5046 451.221L70.6587 451.755C73.7755 456.697 75.9599 461.779 77.2855 466.847C82.2162 485.698 75.3436 504.656 59.4785 515.967C55.2131 519.008 50.2792 521.51 44.7194 523.307L44.7194 523.307C43.6014 523.668 42.9257 524.835 43.2251 526L43.8539 528.446C44.1509 529.601 45.3024 530.32 46.4691 530.087L119.021 515.656C123.807 514.704 125.86 509.041 122.796 505.243L76.3471 447.671C75.6002 446.745 74.2557 446.559 73.2874 447.255L71.2372 448.73C70.2611 449.432 70.032 450.761 70.6587 451.755Z" fill="white" stroke="#C5D4F5" stroke-width="2"/>
<circle cx="82.9058" cy="658.906" r="63.7222" transform="rotate(-2.84331 82.9058 658.906)" fill="#E9EFFB" stroke="#C5D4F5" stroke-width="2"/>
<path d="M54.1389 622.014L54.7124 621.194L54.1389 622.014C58.9256 625.364 62.9068 629.205 66.0906 633.365C77.9328 648.838 78.9331 668.978 68.6824 685.549C65.9264 690.004 62.3454 694.22 57.9143 698.029L57.9143 698.029C57.0232 698.795 56.8518 700.132 57.5786 701.09L59.1051 703.102C59.8261 704.052 61.166 704.269 62.1519 703.604L123.464 662.217C127.509 659.486 127.21 653.47 122.914 651.154L57.8033 616.046C56.7563 615.482 55.4445 615.83 54.8212 616.847L53.5016 619.001C52.8733 620.026 53.1764 621.34 54.1389 622.014Z" fill="white" stroke="#C5D4F5" stroke-width="2"/>
<circle cx="1133.85" cy="649.853" r="63.7222" transform="rotate(-2.84331 1133.85 649.853)" fill="#E9EFFB" stroke="#C5D4F5" stroke-width="2"/>
<path d="M1105.09 612.961L1105.66 612.142L1105.09 612.961C1109.87 616.311 1113.85 620.153 1117.04 624.313C1128.88 639.786 1129.88 659.926 1119.63 676.496C1116.87 680.951 1113.29 685.168 1108.86 688.976L1108.86 688.976C1107.97 689.742 1107.8 691.079 1108.53 692.037L1110.05 694.049C1110.77 695 1112.11 695.216 1113.1 694.551L1174.41 653.164C1178.46 650.434 1178.16 644.418 1173.86 642.101L1108.75 606.993C1107.7 606.429 1106.39 606.777 1105.77 607.795L1104.45 609.948C1103.82 610.973 1104.12 612.287 1105.09 612.961Z" fill="white" stroke="#C5D4F5" stroke-width="2"/>
<circle cx="1309.97" cy="392.776" r="180.058" transform="rotate(18.3546 1309.97 392.776)" fill="#E9EFFB" stroke="#C5D4F5" stroke-width="2"/>
<path d="M1202.97 476.687L1202.97 476.687L1204.92 483.478C1205.57 485.764 1207.91 487.139 1210.23 486.611L1412.01 440.686C1424 437.956 1428.78 423.554 1420.8 414.196L1286.49 256.766C1284.94 254.956 1282.25 254.661 1280.36 256.102L1274.74 260.383C1272.84 261.83 1272.44 264.493 1273.76 266.456C1282.95 280.185 1289.53 294.398 1293.68 308.651C1309.12 361.703 1291.1 416.014 1247.01 449.313C1235.16 458.26 1221.39 465.721 1205.82 471.231C1203.59 472.019 1202.31 474.391 1202.97 476.687Z" fill="white" stroke="#C5D4F5" stroke-width="2"/>
<circle cx="397.861" cy="658.861" r="180.058" transform="rotate(1.37741 397.861 658.861)" fill="#E9EFFB" stroke="#C5D4F5" stroke-width="2"/>
<path d="M320.024 770.359L320.024 770.359L323.868 776.286C325.162 778.281 327.8 778.913 329.864 777.731L509.438 674.89C520.112 668.777 520.477 653.608 510.109 646.989L335.685 535.636C333.68 534.356 331.015 534.861 329.627 536.791L325.502 542.527C324.108 544.465 324.506 547.128 326.337 548.622C339.139 559.068 349.581 570.74 357.711 583.161C387.972 629.391 386.596 686.597 354.148 731.32C345.431 743.335 334.44 754.492 321.15 764.311C319.25 765.715 318.724 768.355 320.024 770.359Z" fill="white" stroke="#C5D4F5" stroke-width="2"/>
</svg>
