<svg width="1097" height="686" viewBox="0 0 1097 686" fill="none" xmlns="http://www.w3.org/2000/svg">
<path d="M863.295 231.022C863.07 233.434 861.353 235.837 857.873 238.066C854.412 240.282 849.433 242.17 843.23 243.595C830.841 246.443 813.91 247.368 795.394 245.647C776.879 243.927 760.408 239.897 748.756 234.816C742.922 232.272 738.376 229.499 735.383 226.683C732.373 223.85 731.128 221.172 731.352 218.761C731.576 216.35 733.293 213.947 736.774 211.718C740.234 209.502 745.213 207.613 751.416 206.188C763.805 203.341 780.737 202.415 799.252 204.136C817.767 205.857 834.238 209.886 845.891 214.967C851.724 217.511 856.27 220.285 859.263 223.101C862.274 225.933 863.519 228.611 863.295 231.022Z" fill="#FBCDE7" stroke="#0C0C0D" stroke-width="3"/>
<path d="M879.505 215.432C879.142 219.338 876.773 223.031 872.458 226.353C868.14 229.677 861.991 232.53 854.39 234.73C839.197 239.129 818.512 240.833 795.958 238.737C773.404 236.641 753.387 231.155 739.265 224.032C732.2 220.468 726.682 216.532 723.051 212.469C719.421 208.408 717.773 204.342 718.136 200.436C718.499 196.53 720.868 192.837 725.184 189.514C729.502 186.19 735.65 183.338 743.252 181.137C758.444 176.739 779.129 175.034 801.683 177.13C824.238 179.226 844.254 184.713 858.376 191.836C865.442 195.399 870.959 199.336 874.591 203.399C878.22 207.459 879.868 211.526 879.505 215.432Z" fill="#FBCDE7" stroke="#0C0C0D" stroke-width="3"/>
<path fill-rule="evenodd" clip-rule="evenodd" d="M906.535 128.694C905.411 126.309 902.738 125.076 900.194 125.768L877.346 131.988C873.561 133.018 869.657 130.785 868.627 127C867.596 123.214 869.83 119.31 873.615 118.28L896.463 112.06C905.658 109.557 915.323 114.017 919.386 122.638L921.12 126.318C925.79 136.23 921.446 148.047 911.467 152.573L870.852 170.996C867.279 172.616 863.07 171.034 861.449 167.461C859.829 163.888 861.411 159.678 864.984 158.058L905.599 139.636C908.359 138.384 909.56 135.115 908.268 132.373L906.535 128.694Z" fill="#FBCDE7" stroke="#0C0C0D" stroke-width="3" stroke-linecap="round"/>
<ellipse cx="818.295" cy="95.0087" rx="66.8538" ry="19.6383" transform="rotate(10.8674 818.295 95.0087)" fill="#F593CD" stroke="#0C0C0D" stroke-width="3"/>
<ellipse cx="818.295" cy="95.0087" rx="66.8538" ry="19.6383" transform="rotate(10.8674 818.295 95.0087)" stroke="#0C0C0D" stroke-width="3"/>
<ellipse cx="814.672" cy="113.885" rx="66.8538" ry="19.6383" transform="rotate(10.8674 814.672 113.885)" fill="#762B06" stroke="#0C0C0D" stroke-width="3"/>
<path fill-rule="evenodd" clip-rule="evenodd" d="M883.626 108.827C879.892 118.67 849.663 121.262 814.549 114.521C779.437 107.78 752.317 94.1785 752.492 83.6526C752.346 84.0985 752.227 84.5585 752.136 85.0312L744.483 124.896C737.522 161.156 761.273 196.194 797.534 203.155C833.794 210.116 868.832 186.365 875.793 150.104L883.446 110.24C883.537 109.767 883.596 109.295 883.626 108.827Z" fill="#FBCDE7"/>
<path d="M883.626 108.827L885.123 108.923L882.224 108.295L883.626 108.827ZM752.492 83.6526L753.991 83.6775L751.066 83.1873L752.492 83.6526ZM752.136 85.0312L753.609 85.314L752.136 85.0312ZM744.483 124.896L743.01 124.613L744.483 124.896ZM875.793 150.104L877.266 150.387L875.793 150.104ZM883.446 110.24L881.973 109.957L883.446 110.24ZM882.224 108.295C881.519 110.152 879.431 111.947 875.651 113.419C871.929 114.869 866.86 115.887 860.73 116.398C848.485 117.42 832.29 116.399 814.832 113.048L814.266 115.994C831.921 119.383 848.398 120.438 860.98 119.388C867.264 118.863 872.647 117.809 876.74 116.215C880.776 114.643 883.867 112.423 885.029 109.359L882.224 108.295ZM814.832 113.048C797.374 109.696 781.953 104.647 770.957 99.1638C765.453 96.419 761.121 93.5968 758.2 90.8716C755.234 88.1049 753.958 85.664 753.991 83.6775L750.992 83.6277C750.937 86.9042 752.986 90.1107 756.154 93.0653C759.365 96.0615 763.976 99.0346 769.618 101.849C780.917 107.483 796.612 112.605 814.266 115.994L814.832 113.048ZM753.609 85.314C753.688 84.9032 753.792 84.5041 753.918 84.1179L751.066 83.1873C750.901 83.6928 750.766 84.2138 750.663 84.7484L753.609 85.314ZM745.956 125.178L753.609 85.314L750.663 84.7484L743.01 124.613L745.956 125.178ZM797.816 201.682C762.37 194.877 739.151 160.625 745.956 125.178L743.01 124.613C735.893 161.687 760.177 197.511 797.251 204.628L797.816 201.682ZM874.32 149.822C867.515 185.268 833.263 208.487 797.816 201.682L797.251 204.628C834.324 211.745 870.149 187.461 877.266 150.387L874.32 149.822ZM881.973 109.957L874.32 149.822L877.266 150.387L884.919 110.523L881.973 109.957ZM882.129 108.731C882.104 109.137 882.052 109.546 881.973 109.957L884.919 110.523C885.022 109.988 885.089 109.454 885.123 108.923L882.129 108.731Z" fill="#0C0C0D"/>
<mask id="path-9-outside-1_1419_5860" maskUnits="userSpaceOnUse" x="614.187" y="25.1246" width="185.914" height="261.649" fill="black">
<rect fill="white" x="614.187" y="25.1246" width="185.914" height="261.649"/>
<path fill-rule="evenodd" clip-rule="evenodd" d="M668.149 98.4854C671.383 102.035 675.597 111.51 676.97 131.902C677.064 133.302 678.431 134.14 679.427 133.151C683.192 129.413 687.783 118.845 686.579 95.7139C686.442 93.0697 686.158 90.2767 685.859 87.3467C684.343 72.4413 682.465 53.9874 697.689 33.517C698.995 31.7613 701.687 33.0469 701.385 35.2139C699.559 48.3283 699.945 66.3958 712.814 77.9162C731.649 94.8412 762.057 131.971 764.915 159.194C765.037 160.363 766.085 161.217 767.01 160.491C768.993 158.935 771.17 154.917 771.411 146.358C771.464 144.464 773.625 143.506 774.815 144.981C781.201 152.895 790.003 169.028 791.637 191.075C791.637 191.076 791.637 191.077 791.637 191.078L791.66 191.077C792.805 213.07 785.165 234.617 770.423 250.978C755.681 267.339 735.043 277.173 713.05 278.318C691.056 279.462 669.509 271.823 653.148 257.081C636.787 242.339 626.953 221.701 625.808 199.707L625.824 199.707C625.261 184.532 626.941 159.523 648.013 136.202C653.734 128.857 664.602 112.069 665.711 99.7406C665.841 98.2938 667.171 97.4118 668.149 98.4854Z"/>
</mask>
<path fill-rule="evenodd" clip-rule="evenodd" d="M668.149 98.4854C671.383 102.035 675.597 111.51 676.97 131.902C677.064 133.302 678.431 134.14 679.427 133.151C683.192 129.413 687.783 118.845 686.579 95.7139C686.442 93.0697 686.158 90.2767 685.859 87.3467C684.343 72.4413 682.465 53.9874 697.689 33.517C698.995 31.7613 701.687 33.0469 701.385 35.2139C699.559 48.3283 699.945 66.3958 712.814 77.9162C731.649 94.8412 762.057 131.971 764.915 159.194C765.037 160.363 766.085 161.217 767.01 160.491C768.993 158.935 771.17 154.917 771.411 146.358C771.464 144.464 773.625 143.506 774.815 144.981C781.201 152.895 790.003 169.028 791.637 191.075C791.637 191.076 791.637 191.077 791.637 191.078L791.66 191.077C792.805 213.07 785.165 234.617 770.423 250.978C755.681 267.339 735.043 277.173 713.05 278.318C691.056 279.462 669.509 271.823 653.148 257.081C636.787 242.339 626.953 221.701 625.808 199.707L625.824 199.707C625.261 184.532 626.941 159.523 648.013 136.202C653.734 128.857 664.602 112.069 665.711 99.7406C665.841 98.2938 667.171 97.4118 668.149 98.4854Z" fill="#FFC93E"/>
<path d="M676.97 131.902L673.976 132.103L676.97 131.902ZM668.149 98.4854L665.931 100.506L668.149 98.4854ZM679.427 133.151L677.314 131.022L677.314 131.022L679.427 133.151ZM685.859 87.3467L688.844 87.043L685.859 87.3467ZM697.689 33.517L695.282 31.7267L695.282 31.7267L697.689 33.517ZM701.385 35.2139L698.414 34.8001L698.414 34.8001L701.385 35.2139ZM712.814 77.9162L714.819 75.6847L714.815 75.681L712.814 77.9162ZM764.915 159.194L761.931 159.507L761.931 159.507L764.915 159.194ZM767.01 160.491L765.157 158.131L767.01 160.491ZM771.411 146.358L774.41 146.443L774.41 146.443L771.411 146.358ZM774.815 144.981L772.481 146.865L774.815 144.981ZM791.637 191.075L788.645 191.296L788.646 191.305L788.646 191.314L791.637 191.075ZM791.637 191.078L788.641 191.234L788.797 194.23L791.793 194.074L791.637 191.078ZM791.66 191.077L794.656 190.921L794.5 187.925L791.504 188.081L791.66 191.077ZM770.423 250.978L768.194 248.97L770.423 250.978ZM653.148 257.081L655.156 254.852L653.148 257.081ZM625.808 199.707L625.652 196.711L622.656 196.867L622.812 199.863L625.808 199.707ZM625.824 199.707L625.98 202.702L628.931 202.549L628.822 199.595L625.824 199.707ZM648.013 136.202L650.239 138.213L650.313 138.132L650.38 138.045L648.013 136.202ZM665.711 99.7406L668.699 100.009L665.711 99.7406ZM679.963 131.7C678.58 111.158 674.318 100.801 670.366 96.4648L665.931 100.506C668.449 103.269 672.614 111.862 673.976 132.103L679.963 131.7ZM677.314 131.022C677.471 130.866 677.774 130.663 678.211 130.6C678.639 130.539 679.021 130.638 679.297 130.789C679.821 131.075 679.949 131.498 679.963 131.7L673.976 132.103C674.084 133.706 674.943 135.248 676.423 136.056C678.071 136.955 680.105 136.706 681.541 135.28L677.314 131.022ZM683.583 95.8698C684.776 118.79 680.131 128.225 677.314 131.022L681.541 135.28C686.253 130.602 690.79 118.899 689.575 95.5579L683.583 95.8698ZM682.875 87.6504C683.175 90.5969 683.45 93.3133 683.583 95.8698L689.575 95.5579C689.433 92.8261 689.14 89.9566 688.844 87.043L682.875 87.6504ZM695.282 31.7267C679.33 53.175 681.349 72.6581 682.875 87.6504L688.844 87.043C687.336 72.2245 685.599 54.7998 700.096 35.3073L695.282 31.7267ZM704.357 35.6277C704.707 33.1087 703.277 31.048 701.409 30.176C699.492 29.2812 696.893 29.5604 695.282 31.7267L700.096 35.3073C700.001 35.4357 699.789 35.6055 699.489 35.67C699.222 35.7273 699.007 35.6762 698.871 35.6128C698.735 35.5494 698.611 35.4443 698.522 35.291C698.422 35.1168 698.396 34.9296 698.414 34.8001L704.357 35.6277ZM714.815 75.681C703.146 65.2342 702.554 48.5701 704.357 35.6277L698.414 34.8001C696.563 48.0864 696.745 67.5573 710.813 80.1513L714.815 75.681ZM767.898 158.881C766.387 144.484 757.698 127.876 747.317 112.978C736.874 97.9912 724.411 84.3038 714.819 75.6847L710.809 80.1476C720.052 88.4536 732.21 101.793 742.394 116.408C752.641 131.113 760.585 146.681 761.931 159.507L767.898 158.881ZM765.157 158.131C765.385 157.953 765.767 157.768 766.26 157.76C766.736 157.752 767.114 157.912 767.356 158.078C767.792 158.377 767.882 158.723 767.898 158.881L761.931 159.507C762.07 160.834 762.745 162.193 763.967 163.029C764.602 163.464 765.423 163.774 766.359 163.759C767.312 163.743 768.172 163.393 768.862 162.851L765.157 158.131ZM768.412 146.274C768.18 154.532 766.079 157.408 765.157 158.131L768.862 162.851C771.906 160.461 774.161 155.302 774.41 146.443L768.412 146.274ZM777.15 143.097C775.672 141.265 773.387 140.858 771.526 141.639C769.747 142.386 768.472 144.146 768.412 146.274L774.41 146.443C774.403 146.676 774.235 147.01 773.847 147.172C773.654 147.253 773.389 147.296 773.096 147.226C772.784 147.152 772.577 146.984 772.481 146.865L777.15 143.097ZM794.628 190.853C792.945 168.14 783.881 151.438 777.15 143.097L772.481 146.865C778.522 154.351 787.06 169.915 788.645 191.296L794.628 190.853ZM794.633 190.922C794.631 190.882 794.628 190.85 794.627 190.837C794.627 190.834 794.627 190.831 794.627 190.829C794.627 190.828 794.626 190.827 794.626 190.827C794.626 190.826 794.626 190.826 794.626 190.826C794.626 190.825 794.627 190.83 794.627 190.836L788.646 191.314C788.647 191.317 788.647 191.32 788.647 191.322C788.647 191.323 788.647 191.323 788.647 191.324C788.647 191.324 788.647 191.325 788.647 191.325C788.647 191.326 788.647 191.321 788.646 191.315C788.645 191.304 788.643 191.273 788.641 191.234L794.633 190.922ZM791.793 194.074L791.816 194.073L791.504 188.081L791.481 188.082L791.793 194.074ZM788.664 191.233C789.767 212.431 782.404 233.2 768.194 248.97L772.652 252.986C787.927 236.034 795.842 213.709 794.656 190.921L788.664 191.233ZM768.194 248.97C753.985 264.74 734.092 274.219 712.894 275.322L713.205 281.314C735.993 280.128 757.377 269.938 772.652 252.986L768.194 248.97ZM712.894 275.322C691.695 276.425 670.926 269.062 655.156 254.852L651.14 259.31C668.092 274.585 690.418 282.5 713.205 281.314L712.894 275.322ZM655.156 254.852C639.386 240.642 629.907 220.75 628.804 199.551L622.812 199.863C623.998 222.651 634.188 244.035 651.14 259.31L655.156 254.852ZM625.964 202.703L625.98 202.702L625.668 196.711L625.652 196.711L625.964 202.703ZM645.787 134.191C623.97 158.336 622.25 184.269 622.826 199.818L628.822 199.595C628.273 184.794 629.912 160.709 650.239 138.213L645.787 134.191ZM662.723 99.472C662.224 105.018 659.468 111.861 655.948 118.422C652.466 124.913 648.414 130.805 645.646 134.359L650.38 138.045C653.333 134.254 657.576 128.08 661.235 121.258C664.857 114.507 668.089 106.792 668.699 100.009L662.723 99.472ZM670.366 96.4648C669.748 95.7866 668.908 95.246 667.884 95.069C666.862 94.8923 665.902 95.1215 665.132 95.5584C663.649 96.3991 662.859 97.9602 662.723 99.472L668.699 100.009C668.693 100.074 668.632 100.471 668.092 100.777C667.793 100.947 667.356 101.067 666.862 100.981C666.367 100.896 666.06 100.647 665.931 100.506L670.366 96.4648Z" fill="#0C0C0D" mask="url(#path-9-outside-1_1419_5860)"/>
<ellipse cx="708.109" cy="203.861" rx="58.5526" ry="58.5526" transform="rotate(177.021 708.109 203.861)" fill="url(#paint0_linear_1419_5860)"/>
<rect x="336.304" y="202.199" width="229.057" height="229.057" rx="4.73438" transform="rotate(-14.1705 336.304 202.199)" fill="#FF5E0D" stroke="#0C0C0D" stroke-width="3"/>
<path fill-rule="evenodd" clip-rule="evenodd" d="M383.747 125.162L418.832 150.43L405.505 112.173L383.747 125.162ZM357.089 114.453L405.827 85.3578L422.479 91.4117L452.333 177.109L434.86 190.144L356.268 133.542L357.089 114.453Z" fill="#C5D4F5" stroke="#0C0C0D" stroke-width="3" stroke-linejoin="bevel"/>
<path fill-rule="evenodd" clip-rule="evenodd" d="M482.481 115.437L460.121 147.523L458.942 109.784L482.481 115.437ZM504.101 97.1201L449.72 84.059L435.626 95.5296L438.351 182.719L459.152 188.897L510.809 114.768L504.101 97.1201Z" fill="#C5D4F5" stroke="#0C0C0D" stroke-width="3" stroke-linejoin="bevel"/>
<path fill-rule="evenodd" clip-rule="evenodd" d="M484.564 402.201L444.74 220.427L466.904 214.831L506.727 396.605L484.564 402.201Z" fill="#C5D4F5" stroke="#0C0C0D" stroke-width="3" stroke-linejoin="bevel"/>
<path fill-rule="evenodd" clip-rule="evenodd" d="M362.802 313.274L589.749 264.189L595.345 286.352L368.398 335.438L362.802 313.274Z" fill="#C5D4F5" stroke="#0C0C0D" stroke-width="3" stroke-linejoin="bevel"/>
<rect x="319.513" y="206.439" width="263" height="48.2604" rx="4.73438" transform="rotate(-14.1705 319.513 206.439)" fill="#FF5E0D" stroke="#0C0C0D" stroke-width="3"/>
<rect x="286.335" y="190" width="29" height="29" rx="5" transform="rotate(60.8828 286.335 190)" fill="#FF7833" stroke="#0C0C0D" stroke-width="3"/>
<rect x="107.113" y="277.337" width="29" height="29" rx="5" transform="rotate(106.707 107.113 277.337)" fill="#2DBA8D" stroke="#0C0C0D" stroke-width="3"/>
<rect x="1003.38" y="239.848" width="29" height="47" rx="5" transform="rotate(87.2289 1003.38 239.848)" fill="#FFE4A1" stroke="#0C0C0D" stroke-width="3"/>
<circle cx="442.142" cy="530.44" r="87.081" transform="rotate(-18.8396 442.142 530.44)" fill="#3668DD" stroke="#0C0C0D" stroke-width="3"/>
<path d="M427.419 597.669C428.782 598.689 430.705 598.46 431.796 597.159L496.851 519.584C501.206 514.391 498.504 506.473 491.883 505.024L392.979 483.392C391.32 483.03 389.658 484.024 389.203 485.664L388.279 488.995C387.82 490.649 388.753 492.333 390.337 492.878C397.886 495.477 404.561 499.022 410.307 503.286C431.68 519.144 440.573 545.208 433.351 570.822C431.409 577.709 428.294 584.595 423.908 591.266C422.987 592.666 423.277 594.569 424.652 595.598L427.419 597.669Z" fill="white" stroke="#0C0C0D" stroke-width="3"/>
<circle cx="853.651" cy="309.912" r="82.5708" transform="rotate(15 853.651 309.912)" fill="#3668DD" stroke="#0C0C0D" stroke-width="3"/>
<path d="M806.441 355.153C806.99 356.716 808.668 357.572 810.254 357.112L902.537 330.342C908.771 328.534 910.844 320.795 906.35 316.112L839.816 246.787C838.673 245.596 836.791 245.498 835.534 246.577L833.045 248.715C831.777 249.803 831.62 251.669 832.605 252.968C837.178 259 840.561 265.316 842.835 271.707C851.291 295.473 844.535 320.686 825.329 337.041C820.164 341.439 814.076 345.216 807.1 348.154C805.598 348.786 804.801 350.481 805.354 352.058L806.441 355.153Z" fill="white" stroke="#0C0C0D" stroke-width="3"/>
<rect x="671.713" y="314.853" width="256.473" height="141.865" rx="4.00119" transform="rotate(22.1984 671.713 314.853)" fill="#D9D9D9" stroke="#0C0C0D" stroke-width="3"/>
<path d="M762.931 428.686L906.747 417.704L858.006 537.15L762.931 428.686Z" fill="white" stroke="#0C0C0D" stroke-width="3"/>
<path d="M764.36 429.269L669.284 320.805L620.543 440.251L764.36 429.269Z" fill="white" stroke="#0C0C0D" stroke-width="3"/>
<path d="M726.337 417.676L678.175 317.49L901.866 408.769L797.36 446.658C769.756 456.666 739.059 444.139 726.337 417.676Z" fill="white" stroke="#0C0C0D" stroke-width="3"/>
<path fill-rule="evenodd" clip-rule="evenodd" d="M646.268 352.021L632.54 396.681C616.475 448.943 623.577 505.585 652.049 552.262L670.731 582.891L663.902 587.057L645.219 556.428C615.555 507.795 608.155 448.782 624.893 394.33L638.622 349.67L646.268 352.021Z" fill="#259974" stroke="#0C0C0D" stroke-width="3"/>
<path d="M636.227 412.334C588.698 414.831 566.633 459.841 560.478 485.928C559.999 487.96 561.812 489.739 563.86 489.338C629.625 476.465 641.568 435.997 639.172 414.764C639.006 413.299 637.7 412.257 636.227 412.334Z" fill="#259974" stroke="#0C0C0D" stroke-width="3"/>
<path d="M703.752 553.801L669.978 589.246L663.044 540.78C660.561 523.424 677.093 509.452 693.792 514.794C710.492 520.135 715.846 541.108 703.752 553.801Z" fill="#BC3B97" stroke="#0C0C0D" stroke-width="3"/>
<path d="M639.737 613.647L673.511 578.202L680.445 626.668C682.928 644.024 666.396 657.996 649.696 652.655C632.997 647.313 627.642 626.34 639.737 613.647Z" fill="#EF59B3" stroke="#0C0C0D" stroke-width="3"/>
<path d="M701.668 615.732L666.223 581.958L714.688 575.024C732.044 572.541 746.017 589.073 740.675 605.772C735.334 622.472 714.361 627.826 701.668 615.732Z" fill="#EF59B3" stroke="#0C0C0D" stroke-width="3"/>
<path d="M641.822 551.717L677.266 585.49L628.801 592.424C611.445 594.908 597.473 578.375 602.814 561.676C608.156 544.977 629.128 539.622 641.822 551.717Z" fill="#BC3B97" stroke="#0C0C0D" stroke-width="3"/>
<path d="M715.536 585.198L666.591 586.379L695.958 547.206C706.475 533.178 728.045 534.988 736.076 550.573C744.107 566.158 733.064 584.775 715.536 585.198Z" fill="#EF59B3" stroke="#0C0C0D" stroke-width="3"/>
<path d="M627.953 582.25L676.898 581.069L647.53 620.242C637.014 634.271 615.444 632.46 607.413 616.875C599.382 601.29 610.425 582.674 627.953 582.25Z" fill="#EF59B3" stroke="#0C0C0D" stroke-width="3"/>
<path d="M670.271 627.516L669.089 578.571L708.262 607.938C722.291 618.455 720.48 640.025 704.895 648.056C689.31 656.087 670.694 645.044 670.271 627.516Z" fill="#F276C0" stroke="#0C0C0D" stroke-width="3"/>
<path d="M673.218 539.932L674.4 588.877L635.226 559.51C621.198 548.993 623.008 527.423 638.593 519.392C654.179 511.361 672.795 522.405 673.218 539.932Z" fill="#F276C0" stroke="#0C0C0D" stroke-width="3"/>
<circle cx="671.939" cy="583.382" r="26.5863" transform="rotate(17.7373 671.939 583.382)" fill="#FFC93E" stroke="#0C0C0D" stroke-width="3"/>
<path fill-rule="evenodd" clip-rule="evenodd" d="M466.848 383.369C471.058 358.99 454.707 335.814 430.327 331.605C413.478 328.695 397.203 335.607 387.367 348.203L368.287 344.909C364.909 344.326 361.696 346.592 361.113 349.971L360.731 352.181L355.263 351.237C354.396 351.087 353.507 351.124 352.656 351.343L334.99 355.901C332.032 356.664 329.272 354.12 329.791 351.11C330.187 348.82 328.651 346.642 326.36 346.247L309.908 343.406C308.14 343.101 306.34 343.726 305.142 345.061C302.575 347.923 297.9 347.115 296.441 343.559C295.76 341.899 294.274 340.707 292.506 340.401L286.111 339.297C284.518 339.022 282.881 339.379 281.547 340.293L270.786 347.661C269.402 348.609 268.461 350.075 268.176 351.728L267.521 355.518C266.938 358.897 269.204 362.109 272.583 362.693L356.417 377.168L356.035 379.379C355.452 382.758 357.718 385.97 361.097 386.553L380.177 389.848C385.22 405.012 398.234 416.981 415.084 419.89C439.463 424.1 462.639 407.749 466.848 383.369ZM450.19 380.493C451.699 371.754 445.838 363.445 437.098 361.936C428.358 360.427 420.05 366.289 418.541 375.029C417.032 383.769 422.893 392.077 431.633 393.586C440.373 395.095 448.681 389.233 450.19 380.493Z" fill="#FFC93E"/>
<path d="M387.367 348.203L387.112 349.682C387.657 349.776 388.209 349.562 388.55 349.127L387.367 348.203ZM361.113 349.971L359.635 349.716L361.113 349.971ZM360.731 352.181L360.476 353.659C360.868 353.727 361.271 353.636 361.596 353.407C361.921 353.178 362.142 352.829 362.209 352.437L360.731 352.181ZM352.656 351.343L352.281 349.891L352.656 351.343ZM334.99 355.901L334.615 354.449L334.99 355.901ZM305.142 345.061L304.026 344.06L304.026 344.06L305.142 345.061ZM296.441 343.559L295.053 344.128L295.053 344.128L296.441 343.559ZM281.547 340.293L280.699 339.055L280.699 339.055L281.547 340.293ZM270.786 347.661L271.633 348.899L271.633 348.899L270.786 347.661ZM268.176 351.728L266.697 351.472L268.176 351.728ZM267.521 355.518L268.999 355.774L267.521 355.518ZM356.417 377.168L357.895 377.423C357.963 377.031 357.872 376.628 357.643 376.303C357.413 375.978 357.064 375.757 356.672 375.69L356.417 377.168ZM356.035 379.379L354.557 379.124L356.035 379.379ZM380.177 389.848L381.601 389.374C381.426 388.85 380.977 388.464 380.432 388.369L380.177 389.848ZM430.072 333.083C453.635 337.151 469.439 359.551 465.37 383.114L468.327 383.625C472.677 358.429 455.778 334.477 430.583 330.127L430.072 333.083ZM388.55 349.127C398.058 336.949 413.789 330.271 430.072 333.083L430.583 330.127C413.167 327.12 396.347 334.266 386.185 347.28L388.55 349.127ZM368.032 346.387L387.112 349.682L387.623 346.725L368.543 343.431L368.032 346.387ZM362.591 350.226C363.034 347.663 365.47 345.945 368.032 346.387L368.543 343.431C364.347 342.706 360.359 345.52 359.635 349.716L362.591 350.226ZM362.209 352.437L362.591 350.226L359.635 349.716L359.253 351.926L362.209 352.437ZM355.008 352.715L360.476 353.659L360.986 350.703L355.518 349.759L355.008 352.715ZM353.03 352.796C353.676 352.629 354.35 352.602 355.008 352.715L355.518 349.759C354.442 349.573 353.338 349.618 352.281 349.891L353.03 352.796ZM335.365 357.354L353.03 352.796L352.281 349.891L334.615 354.449L335.365 357.354ZM328.313 350.855C327.608 354.938 331.352 358.389 335.365 357.354L334.615 354.449C332.711 354.94 330.935 353.303 331.27 351.365L328.313 350.855ZM326.105 347.725C327.579 347.979 328.568 349.381 328.313 350.855L331.27 351.365C331.806 348.258 329.722 345.305 326.616 344.769L326.105 347.725ZM309.653 344.884L326.105 347.725L326.616 344.769L310.163 341.928L309.653 344.884ZM306.259 346.063C307.112 345.112 308.394 344.667 309.653 344.884L310.163 341.928C307.887 341.535 305.568 342.34 304.026 344.06L306.259 346.063ZM295.053 344.128C296.932 348.708 302.953 349.748 306.259 346.063L304.026 344.06C302.198 346.097 298.868 345.523 297.829 342.99L295.053 344.128ZM292.251 341.88C293.51 342.097 294.569 342.946 295.053 344.128L297.829 342.99C296.952 340.853 295.038 339.316 292.761 338.923L292.251 341.88ZM285.856 340.775L292.251 341.88L292.761 338.923L286.366 337.819L285.856 340.775ZM282.394 341.53C283.406 340.838 284.648 340.567 285.856 340.775L286.366 337.819C284.389 337.478 282.355 337.921 280.699 339.055L282.394 341.53ZM271.633 348.899L282.394 341.53L280.699 339.055L269.938 346.424L271.633 348.899ZM269.654 351.983C269.87 350.73 270.584 349.617 271.633 348.899L269.938 346.424C268.221 347.6 267.052 349.421 266.697 351.472L269.654 351.983ZM268.999 355.774L269.654 351.983L266.697 351.472L266.043 355.263L268.999 355.774ZM272.838 361.215C270.275 360.772 268.557 358.336 268.999 355.774L266.043 355.263C265.319 359.458 268.132 363.447 272.328 364.171L272.838 361.215ZM356.672 375.69L272.838 361.215L272.328 364.171L356.162 378.646L356.672 375.69ZM357.513 379.634L357.895 377.423L354.939 376.913L354.557 379.124L357.513 379.634ZM361.352 385.075C358.79 384.633 357.071 382.197 357.513 379.634L354.557 379.124C353.833 383.319 356.647 387.307 360.842 388.031L361.352 385.075ZM380.432 388.369L361.352 385.075L360.842 388.031L379.922 391.326L380.432 388.369ZM415.339 418.412C399.056 415.601 386.476 404.035 381.601 389.374L378.754 390.321C383.964 405.989 397.413 418.361 414.828 421.369L415.339 418.412ZM465.37 383.114C461.302 406.677 438.902 422.481 415.339 418.412L414.828 421.369C440.024 425.719 463.976 408.82 468.327 383.625L465.37 383.114ZM436.843 363.414C444.766 364.783 450.08 372.315 448.712 380.238L451.668 380.749C453.318 371.193 446.909 362.108 437.353 360.458L436.843 363.414ZM420.019 375.284C421.387 367.361 428.919 362.046 436.843 363.414L437.353 360.458C427.797 358.808 418.713 365.217 417.063 374.774L420.019 375.284ZM431.888 392.108C423.965 390.74 418.651 383.207 420.019 375.284L417.063 374.774C415.413 384.33 421.822 393.414 431.378 395.064L431.888 392.108ZM448.712 380.238C447.344 388.162 439.812 393.476 431.888 392.108L431.378 395.064C440.934 396.714 450.018 390.305 451.668 380.749L448.712 380.238Z" fill="#0C0C0D"/>
<path d="M1029.38 152.501C1030.35 154.093 1032.65 154.093 1033.62 152.501L1035.76 148.973C1035.98 148.605 1036.29 148.302 1036.67 148.093L1040.12 146.164C1041.82 145.218 1041.82 142.782 1040.12 141.836L1036.67 139.907C1036.29 139.698 1035.98 139.395 1035.76 139.027L1033.62 135.499C1032.65 133.907 1030.35 133.907 1029.38 135.499L1027.24 139.027C1027.02 139.395 1026.71 139.698 1026.33 139.907L1022.88 141.836C1021.18 142.782 1021.18 145.218 1022.88 146.164L1026.33 148.093C1026.71 148.302 1027.02 148.605 1027.24 148.973L1029.38 152.501Z" fill="#FFC93E" stroke="#0C0C0D" stroke-width="3" stroke-linejoin="round"/>
<path d="M73.5988 239.136L72.9453 240.303L73.5988 239.136L79.0178 242.171C81.2288 243.409 81.2288 246.591 79.0178 247.829L73.5988 250.864C73.5622 250.884 73.5314 250.914 73.5097 250.95L70.2757 256.305C69.0145 258.394 65.9855 258.394 64.7243 256.305L61.4903 250.95C61.4686 250.914 61.4378 250.884 61.4012 250.864L55.9822 247.829C53.7712 246.591 53.7712 243.409 55.9822 242.171L61.4012 239.136L62.1155 240.412L61.4012 239.136C61.4378 239.116 61.4686 239.086 61.4903 239.05L64.7243 233.695C65.9855 231.606 69.0145 231.606 70.2757 233.695L73.5097 239.05C73.5314 239.086 73.5622 239.116 73.5988 239.136Z" fill="#FFC93E" stroke="#0C0C0D" stroke-width="3" stroke-linejoin="round"/>
<path d="M338.455 159.669L339.728 160.462L338.455 159.669L342.248 153.581C343.517 151.543 346.483 151.543 347.752 153.581L351.545 159.669C351.567 159.704 351.598 159.733 351.635 159.753L357.894 163.15C360.155 164.377 360.155 167.623 357.894 168.85L351.635 172.247C351.598 172.267 351.567 172.296 351.545 172.331L347.752 178.419C346.483 180.457 343.517 180.457 342.248 178.419L338.455 172.331C338.433 172.296 338.402 172.267 338.365 172.247L332.106 168.85C329.845 167.623 329.845 164.377 332.106 163.15L338.365 159.753C338.402 159.733 338.433 159.704 338.455 159.669Z" fill="#FFC93E" stroke="#0C0C0D" stroke-width="3" stroke-linejoin="round"/>
<path d="M244.778 467.328C243.921 465.323 241.079 465.323 240.222 467.328L238.151 472.17C237.989 472.55 237.734 472.883 237.41 473.14L232.457 477.056C231.203 478.049 231.203 479.951 232.457 480.944L237.41 484.86C237.734 485.117 237.989 485.45 238.151 485.83L240.222 490.672C241.079 492.677 243.921 492.677 244.778 490.672L246.849 485.83C247.011 485.45 247.266 485.117 247.59 484.86L252.543 480.944C253.797 479.951 253.797 478.049 252.543 477.056L247.59 473.14C247.266 472.883 247.011 472.55 246.849 472.17L244.778 467.328Z" fill="#FFC93E" stroke="#0C0C0D" stroke-width="3" stroke-linejoin="round"/>
<path d="M943.206 506.453L941.992 505.571L943.206 506.453L942.123 507.943C940.828 509.724 938.172 509.724 936.877 507.943L935.794 506.453C935.77 506.42 935.738 506.393 935.7 506.376L934.763 505.94C932.264 504.777 932.264 501.223 934.763 500.06L935.7 499.624C935.738 499.607 935.77 499.58 935.794 499.547L936.877 498.057C938.172 496.276 940.828 496.276 942.123 498.057L943.206 499.547C943.23 499.58 943.262 499.607 943.3 499.624L944.237 500.06C946.736 501.223 946.736 504.777 944.237 505.94L943.3 506.376C943.262 506.393 943.23 506.42 943.206 506.453Z" fill="#FFC93E" stroke="#0C0C0D" stroke-width="3" stroke-linejoin="round"/>
<rect x="19.7544" y="551.04" width="26" height="26" rx="13" transform="rotate(60.8828 19.7544 551.04)" fill="#3668DD" stroke="#0C0C0D" stroke-width="3"/>
<rect x="985.754" y="286.04" width="26" height="26" rx="13" transform="rotate(60.8828 985.754 286.04)" fill="#3668DD" stroke="#0C0C0D" stroke-width="3"/>
<rect x="1086.75" y="432.04" width="26" height="26" rx="13" transform="rotate(60.8828 1086.75 432.04)" fill="#FFC93E" stroke="#0C0C0D" stroke-width="3"/>
<path d="M865.975 384.83C864.946 383.294 862.658 383.385 861.754 384.997L859.909 388.288C859.7 388.663 859.396 388.976 859.029 389.198L855.997 391.028C854.326 392.037 854.423 394.492 856.169 395.365L859.335 396.95C859.719 397.142 860.047 397.43 860.285 397.787L862.385 400.922C863.413 402.458 865.701 402.367 866.605 400.755L868.45 397.464C868.66 397.09 868.963 396.776 869.331 396.554L872.362 394.724C874.033 393.716 873.936 391.261 872.191 390.387L869.024 388.802C868.64 388.61 868.313 388.322 868.074 387.965L865.975 384.83Z" fill="#FFC93E" stroke="#0C0C0D" stroke-width="3" stroke-linejoin="round"/>
<defs>
<linearGradient id="paint0_linear_1419_5860" x1="708.109" y1="145.309" x2="708.109" y2="262.414" gradientUnits="userSpaceOnUse">
<stop stop-color="#FF5E0D"/>
<stop offset="1" stop-color="#FFC93E"/>
</linearGradient>
</defs>
</svg>
