<svg width="1440" height="1097" viewBox="0 0 1440 1097" fill="none" xmlns="http://www.w3.org/2000/svg">
<path opacity="0.5" d="M-49 1046.47C19.5086 712.081 -20.4547 166.161 -49 -65C255.482 -65 236.458 175.661 188.886 295.991C500.981 455.588 331.604 827.979 188.886 827.979C226.946 1025.57 46.1537 1055.97 -49 1046.47Z" fill="#5080EC"/>
<path opacity="0.5" d="M-116.606 851.298C-220.644 842.629 -234.01 916.318 -227.689 954.246C-138.823 1049.61 528.218 1012.04 850.631 981.338C774.769 1046.36 847.921 1059 893.98 1057.19C987.182 1029.02 1117.05 1045.45 1170.33 1057.19C1443.43 1139.55 1535.19 1075.25 1546.93 1032.81C1603.83 1065.32 1874.76 1011.14 1733.88 862.135C1621.17 742.933 1475.59 805.243 1416.88 851.298C1336.69 814.454 1255.23 843.171 1224.52 862.135C1176.84 788.447 1092.67 793.504 1056.54 805.243C1070.09 790.794 1092.85 745.642 1075.51 680.622C1058.17 615.603 981.582 619.215 945.458 629.148C953.586 599.348 954.669 528.368 893.98 482.854C833.291 437.341 758.513 501.818 728.71 539.747C748.217 407.54 632.077 354.621 571.568 344.687C413.343 333.85 370.174 453.957 368.368 515.365C227.482 448.178 212.129 574.064 222.063 645.406C124.527 599.892 101.949 682.43 102.852 729.388C-31.5313 686.041 -99.4461 792.6 -116.606 851.298Z" fill="#C5D4F5"/>
</svg>
