<svg width="1440" height="1146" viewBox="0 0 1440 1146" fill="none" xmlns="http://www.w3.org/2000/svg">
<path d="M-49 1046.47C19.5086 712.081 -20.4547 166.161 -49 -65C255.482 -65 236.458 175.661 188.886 295.991C500.981 455.588 331.604 827.979 188.886 827.979C226.946 1025.57 46.1537 1055.97 -49 1046.47Z" fill="#5080EC"/>
<path d="M-116.606 851.298C-220.644 842.629 -234.01 916.318 -227.689 954.246C-138.823 1049.61 528.218 1012.04 850.631 981.338C774.769 1046.36 847.921 1059 893.98 1057.19C987.182 1029.02 1117.05 1045.45 1170.33 1057.19C1443.43 1139.55 1535.19 1075.25 1546.93 1032.81C1603.83 1065.32 1874.76 1011.14 1733.88 862.135C1621.17 742.933 1475.59 805.243 1416.88 851.298C1336.69 814.454 1255.23 843.171 1224.52 862.135C1176.84 788.447 1092.67 793.504 1056.54 805.243C1070.09 790.794 1092.85 745.642 1075.51 680.622C1058.17 615.603 981.582 619.215 945.458 629.148C953.586 599.348 954.669 528.368 893.98 482.854C833.291 437.341 758.513 501.818 728.71 539.747C748.217 407.54 632.077 354.621 571.568 344.687C413.343 333.85 370.174 453.957 368.368 515.365C227.482 448.178 212.129 574.064 222.063 645.406C124.527 599.892 101.949 682.43 102.852 729.388C-31.5313 686.041 -99.4461 792.6 -116.606 851.298Z" fill="#FFD2B9"/>
<path d="M-243.857 868.847C-353.329 862.42 -369.003 940.087 -362.853 982.313C-362.654 983.675 -362.128 984.824 -361.155 985.797C-258.363 1088.56 456.833 1050.44 823.754 1016.7C830.562 1016.08 834.048 1024.92 829.327 1029.86C772.853 1089.01 845.415 1101.21 893.216 1099.52C893.808 1099.5 894.379 1099.4 894.947 1099.23C999.3 1068.08 1144.17 1086.4 1203.7 1099.49C1492.09 1186.29 1599.98 1127.4 1622.44 1080.61C1624.41 1076.49 1629.44 1074.35 1633.73 1075.9C1711.41 1103.9 1986.98 1041.76 1835.05 881.376C1710.86 750.284 1529.37 780.927 1460.85 830.965C1458.74 832.509 1455.98 832.793 1453.58 831.738C1373.07 796.289 1311.54 814.849 1274.07 866.434C1270.33 871.577 1261.69 870.172 1259.96 864.057C1223.28 735.16 1144.59 761.879 1076.22 817.759C1091.39 801.603 1116.89 751.113 1097.46 678.409C1079.69 611.89 982.276 630.245 934.834 642.357C929.58 643.698 924.823 638.913 926.197 633.667C937.075 592.135 955.368 503.129 894.097 457.266C835.897 413.702 766.132 460.256 726.304 501.168C721.3 506.309 711.086 501.856 711.297 494.684C715.077 365.975 596.526 313.195 532.892 302.768C364.875 291.283 333.556 435.835 329.023 509.418C328.7 514.66 322.996 517.835 318.273 515.538C217.745 466.656 177.166 557.304 182.189 632.708C182.558 638.244 176.804 642.439 171.629 640.437C75.7354 603.332 14.7542 672.675 8.33221 723.162C7.72595 727.928 2.94662 731.385 -1.67819 730.084C-141.982 690.609 -215.163 798.75 -236.398 863.823C-237.43 866.983 -240.538 869.042 -243.857 868.847Z" stroke="#FFD2B9" stroke-width="3" stroke-linejoin="round"/>
<path d="M1078.05 192.626C1078.52 190.548 1081.48 190.548 1081.95 192.626L1084.12 202.213C1084.29 202.951 1084.86 203.532 1085.59 203.713L1095.11 206.058C1097.14 206.558 1097.14 209.442 1095.11 209.942L1085.59 212.287C1084.86 212.468 1084.29 213.049 1084.12 213.787L1081.95 223.374C1081.48 225.452 1078.52 225.452 1078.05 223.374L1075.88 213.787C1075.71 213.049 1075.14 212.468 1074.41 212.287L1064.89 209.942C1062.86 209.442 1062.86 206.558 1064.89 206.058L1074.41 203.713C1075.14 203.532 1075.71 202.951 1075.88 202.213L1078.05 192.626Z" stroke="#FFD2B9" stroke-width="3"/>
<path d="M265.049 136.626C265.519 134.548 268.481 134.548 268.951 136.626L271.119 146.213C271.286 146.951 271.856 147.532 272.591 147.713L282.113 150.058C284.142 150.558 284.142 153.442 282.113 153.942L272.591 156.287C271.856 156.468 271.286 157.049 271.119 157.787L268.951 167.374C268.481 169.452 265.519 169.452 265.049 167.374L262.881 157.787C262.714 157.049 262.144 156.468 261.409 156.287L251.887 153.942C249.858 153.442 249.858 150.558 251.887 150.058L261.409 147.713C262.144 147.532 262.714 146.951 262.881 146.213L265.049 136.626Z" stroke="#FFD2B9" stroke-width="3"/>
<path d="M1356.02 320.304C1356.36 318.03 1359.64 318.03 1359.98 320.304L1362.22 335.366C1362.32 336.085 1362.81 336.69 1363.49 336.945L1376 341.627C1377.73 342.275 1377.73 344.725 1376 345.373L1363.49 350.055C1362.81 350.31 1362.32 350.915 1362.22 351.634L1359.98 366.696C1359.64 368.97 1356.36 368.97 1356.02 366.696L1353.78 351.634C1353.68 350.915 1353.19 350.31 1352.51 350.055L1340 345.373C1338.27 344.725 1338.27 342.275 1340 341.627L1352.51 336.945C1353.19 336.69 1353.68 336.085 1353.78 335.366L1356.02 320.304Z" stroke="#FFD2B9" stroke-width="3"/>
<path d="M107.022 608.304C107.36 606.03 110.64 606.03 110.978 608.304L113.202 623.257C113.317 624.033 113.875 624.67 114.63 624.886L127.796 628.654C129.518 629.147 129.774 631.48 128.2 632.334L115.812 639.059C115.297 639.339 114.93 639.831 114.81 640.405L111.209 657.505C110.753 659.673 107.634 659.601 107.278 657.414L104.795 642.143C104.68 641.436 104.195 640.844 103.525 640.592L90.246 635.597C88.6187 634.985 88.4936 632.731 90.0432 631.943L103.689 624.999C104.266 624.706 104.665 624.151 104.761 623.511L107.022 608.304Z" fill="#5080EC" stroke="#FFD2B9" stroke-width="3"/>
<path d="M375.022 341.304C375.36 339.03 378.64 339.03 378.978 341.304L381.218 356.366C381.325 357.085 381.814 357.69 382.495 357.945L394.998 362.627C396.73 363.275 396.73 365.725 394.998 366.373L382.495 371.055C381.814 371.31 381.325 371.915 381.218 372.634L378.978 387.696C378.64 389.97 375.36 389.97 375.022 387.696L372.782 372.634C372.675 371.915 372.186 371.31 371.505 371.055L359.002 366.373C357.27 365.725 357.27 363.275 359.002 362.627L371.505 357.945C372.186 357.69 372.675 357.085 372.782 356.366L375.022 341.304Z" fill="#7A9DEC" stroke="#FFD2B9" stroke-width="3"/>
</svg>
