<svg width="1073" height="661" viewBox="0 0 1073 661" fill="none" xmlns="http://www.w3.org/2000/svg">
<path d="M837.295 203.023C837.07 205.434 835.353 207.837 831.873 210.066C828.412 212.282 823.433 214.17 817.23 215.596C804.841 218.443 787.91 219.368 769.394 217.648C750.879 215.927 734.408 211.898 722.756 206.816C716.922 204.272 712.376 201.499 709.383 198.683C706.373 195.851 705.128 193.173 705.352 190.761C705.576 188.35 707.293 185.947 710.774 183.718C714.234 181.502 719.213 179.614 725.416 178.188C737.805 175.341 754.737 174.416 773.252 176.137C791.767 177.857 808.238 181.886 819.891 186.968C825.724 189.512 830.27 192.285 833.263 195.101C836.274 197.933 837.519 200.612 837.295 203.023Z" fill="#FBCDE7" stroke="#0C0C0D" stroke-width="3"/>
<path d="M853.505 187.432C853.142 191.338 850.773 195.031 846.458 198.353C842.14 201.677 835.991 204.53 828.39 206.73C813.197 211.129 792.512 212.833 769.958 210.737C747.404 208.641 727.387 203.155 713.265 196.032C706.2 192.468 700.682 188.532 697.051 184.469C693.421 180.408 691.773 176.342 692.136 172.436C692.499 168.53 694.868 164.837 699.184 161.514C703.502 158.19 709.65 155.338 717.252 153.137C732.444 148.739 753.129 147.034 775.683 149.13C798.238 151.226 818.254 156.713 832.376 163.836C839.442 167.399 844.959 171.336 848.591 175.399C852.22 179.459 853.868 183.526 853.505 187.432Z" fill="#FBCDE7" stroke="#0C0C0D" stroke-width="3"/>
<path fill-rule="evenodd" clip-rule="evenodd" d="M882.261 111.248C880.944 108.965 878.178 107.956 875.7 108.856L853.444 116.941C849.757 118.281 845.682 116.378 844.342 112.69C843.003 109.003 844.906 104.928 848.593 103.589L870.849 95.5035C879.807 92.2494 889.807 95.8959 894.568 104.152L896.6 107.676C902.073 117.168 898.719 129.304 889.148 134.639L850.194 156.352C846.767 158.263 842.441 157.033 840.531 153.606C838.621 150.18 839.85 145.854 843.277 143.944L882.231 122.23C884.879 120.754 885.806 117.398 884.292 114.772L882.261 111.248Z" fill="#FBCDE7" stroke="#0C0C0D" stroke-width="3" stroke-linecap="round"/>
<ellipse cx="791.541" cy="84.9659" rx="66.8538" ry="19.6383" transform="rotate(6.1301 791.541 84.9659)" fill="#F593CD" stroke="#0C0C0D" stroke-width="3"/>
<ellipse cx="791.541" cy="84.9659" rx="66.8538" ry="19.6383" transform="rotate(6.1301 791.541 84.9659)" stroke="#0C0C0D" stroke-width="3"/>
<ellipse cx="789.489" cy="104.077" rx="66.8538" ry="19.6383" transform="rotate(6.1301 789.489 104.077)" fill="#762B06" stroke="#0C0C0D" stroke-width="3"/>
<path fill-rule="evenodd" clip-rule="evenodd" d="M857.79 93.3419C854.881 103.46 824.969 108.539 789.419 104.721C753.87 100.903 725.719 89.5877 725.024 79.0831C724.916 79.5396 724.835 80.0079 724.784 80.4865L720.449 120.847C716.506 157.558 743.07 190.515 779.782 194.457C816.493 198.4 849.449 171.836 853.392 135.125L857.727 94.7647C857.778 94.2859 857.799 93.811 857.79 93.3419Z" fill="#FBCDE7"/>
<path d="M857.79 93.3419L859.29 93.3137L856.348 92.9275L857.79 93.3419ZM725.024 79.0831L726.521 78.9842L723.565 78.7372L725.024 79.0831ZM724.784 80.4865L723.292 80.3263L724.784 80.4865ZM720.449 120.847L721.94 121.007L720.449 120.847ZM856.348 92.9275C855.8 94.8369 853.866 96.7983 850.221 98.5773C846.631 100.33 841.664 101.762 835.597 102.778C823.479 104.808 807.255 105.128 789.579 103.23L789.259 106.213C807.134 108.132 823.641 107.822 836.093 105.737C842.312 104.695 847.59 103.2 851.537 101.273C855.43 99.3735 858.326 96.9058 859.232 93.7563L856.348 92.9275ZM789.579 103.23C771.904 101.332 756.119 97.5732 744.707 93.0166C738.995 90.7357 734.445 88.2809 731.309 85.8062C728.125 83.2938 726.652 80.9666 726.521 78.9842L723.527 79.1821C723.744 82.4519 726.05 85.4784 729.451 88.1614C732.899 90.8821 737.739 93.4644 743.595 95.8027C755.32 100.485 771.385 104.293 789.259 106.213L789.579 103.23ZM726.275 80.6467C726.32 80.2308 726.39 79.8245 726.484 79.4291L723.565 78.7372C723.442 79.2547 723.35 79.785 723.292 80.3263L726.275 80.6467ZM721.94 121.007L726.275 80.6467L723.292 80.3263L718.958 120.687L721.94 121.007ZM779.942 192.966C744.054 189.112 718.086 156.895 721.94 121.007L718.958 120.687C714.926 158.222 742.086 191.918 779.621 195.949L779.942 192.966ZM851.901 134.965C848.046 170.852 815.829 196.82 779.942 192.966L779.621 195.949C817.156 199.98 850.852 172.82 854.884 135.285L851.901 134.965ZM856.235 94.6045L851.901 134.965L854.884 135.285L859.218 94.9248L856.235 94.6045ZM856.29 93.37C856.298 93.7764 856.28 94.1884 856.235 94.6045L859.218 94.9248C859.276 94.3834 859.3 93.8456 859.29 93.3137L856.29 93.37Z" fill="#0C0C0D"/>
<rect x="310.648" y="146.239" width="229.057" height="229.057" rx="4.73438" transform="rotate(-9.62469 310.648 146.239)" fill="#FF5E0D" stroke="#0C0C0D" stroke-width="3"/>
<path fill-rule="evenodd" clip-rule="evenodd" d="M364.048 73.2035L397.02 101.173L386.766 61.9801L364.048 73.2035ZM338.322 60.4159L389.213 35.2748L405.333 42.6294L428.301 130.423L409.85 142.032L335.991 79.3794L338.322 60.4159Z" fill="#C5D4F5" stroke="#0C0C0D" stroke-width="3" stroke-linejoin="bevel"/>
<path fill-rule="evenodd" clip-rule="evenodd" d="M463.241 71.3347L438.41 101.547L440.225 63.8335L463.241 71.3347ZM486.245 54.789L433.07 37.4589L418.112 47.7765L413.918 134.907L434.164 142.714L491.533 72.9134L486.245 54.789Z" fill="#C5D4F5" stroke="#0C0C0D" stroke-width="3" stroke-linejoin="bevel"/>
<path fill-rule="evenodd" clip-rule="evenodd" d="M442.59 357.362L417.299 173.003L439.836 169.181L465.128 353.54L442.59 357.362Z" fill="#C5D4F5" stroke="#0C0C0D" stroke-width="3" stroke-linejoin="bevel"/>
<path fill-rule="evenodd" clip-rule="evenodd" d="M328.26 259.065L558.383 228.121L562.205 250.658L332.082 281.603L328.26 259.065Z" fill="#C5D4F5" stroke="#0C0C0D" stroke-width="3" stroke-linejoin="bevel"/>
<rect x="293.574" y="149.134" width="263" height="48.2604" rx="4.73438" transform="rotate(-9.62469 293.574 149.134)" fill="#FF5E0D" stroke="#0C0C0D" stroke-width="3"/>
<mask id="path-15-outside-1_1419_5860" maskUnits="userSpaceOnUse" x="581.357" y="-3.47226" width="214.025" height="279.036" fill="black">
<rect fill="white" x="581.357" y="-3.47226" width="214.025" height="279.036"/>
<path fill-rule="evenodd" clip-rule="evenodd" d="M663.194 71.3244C665.554 75.5067 667.545 85.6835 664.328 105.867C664.108 107.253 665.253 108.375 666.445 107.633C670.949 104.831 677.785 95.5545 681.778 72.7392C682.234 70.1311 682.581 67.3453 682.945 64.4226C684.796 49.555 687.087 31.1478 706.498 14.5948C708.163 13.1751 710.5 15.0296 709.722 17.0744C705.013 29.4496 701.354 47.1471 711.325 61.2505C725.904 81.9549 747.251 124.938 743.956 152.112C743.815 153.279 744.645 154.345 745.708 153.844C747.989 152.77 751.009 149.34 753.155 141.051C753.63 139.216 755.95 138.765 756.781 140.469C761.238 149.609 766.214 167.3 762.883 189.155C762.882 189.157 762.882 189.158 762.882 189.159L762.905 189.163C759.108 210.856 746.85 230.153 728.825 242.808C710.801 255.463 688.488 260.439 666.795 256.643C645.102 252.846 625.805 240.587 613.15 222.563C600.495 204.539 595.518 182.226 599.315 160.533L599.33 160.535C602.172 145.618 609.395 121.616 635.143 103.591C642.36 97.7092 656.703 83.7727 660.537 72.0032C660.987 70.6221 662.48 70.0593 663.194 71.3244Z"/>
</mask>
<path fill-rule="evenodd" clip-rule="evenodd" d="M663.194 71.3244C665.554 75.5067 667.545 85.6835 664.328 105.867C664.108 107.253 665.253 108.375 666.445 107.633C670.949 104.831 677.785 95.5545 681.778 72.7392C682.234 70.1311 682.581 67.3453 682.945 64.4226C684.796 49.555 687.087 31.1478 706.498 14.5948C708.163 13.1751 710.5 15.0296 709.722 17.0744C705.013 29.4496 701.354 47.1471 711.325 61.2505C725.904 81.9549 747.251 124.938 743.956 152.112C743.815 153.279 744.645 154.345 745.708 153.844C747.989 152.77 751.009 149.34 753.155 141.051C753.63 139.216 755.95 138.765 756.781 140.469C761.238 149.609 766.214 167.3 762.883 189.155C762.882 189.157 762.882 189.158 762.882 189.159L762.905 189.163C759.108 210.856 746.85 230.153 728.825 242.808C710.801 255.463 688.488 260.439 666.795 256.643C645.102 252.846 625.805 240.587 613.15 222.563C600.495 204.539 595.518 182.226 599.315 160.533L599.33 160.535C602.172 145.618 609.395 121.616 635.143 103.591C642.36 97.7092 656.703 83.7727 660.537 72.0032C660.987 70.6221 662.48 70.0593 663.194 71.3244Z" fill="#FFC93E"/>
<path d="M664.328 105.867L661.366 105.395L664.328 105.867ZM663.194 71.3244L660.581 72.7987L663.194 71.3244ZM666.445 107.633L664.86 105.086L664.86 105.086L666.445 107.633ZM682.945 64.4226L685.922 64.7932L682.945 64.4226ZM706.498 14.5948L704.552 12.3121L704.552 12.3121L706.498 14.5948ZM709.722 17.0744L706.918 16.0074L706.918 16.0074L709.722 17.0744ZM711.325 61.2505L713.777 59.5233L713.774 59.5188L711.325 61.2505ZM743.956 152.112L740.978 151.751L740.978 151.751L743.956 152.112ZM745.708 153.844L744.43 151.13L745.708 153.844ZM753.155 141.051L756.059 141.803L756.059 141.803L753.155 141.051ZM756.781 140.469L754.085 141.784L756.781 140.469ZM762.883 189.155L759.917 188.703L759.916 188.712L759.914 188.721L762.883 189.155ZM762.882 189.159L759.927 188.642L759.41 191.597L762.365 192.114L762.882 189.159ZM762.905 189.163L765.86 189.68L766.377 186.725L763.422 186.208L762.905 189.163ZM728.825 242.808L727.102 240.352L728.825 242.808ZM613.15 222.563L615.605 220.839L613.15 222.563ZM599.315 160.533L599.832 157.577L596.877 157.06L596.36 160.015L599.315 160.533ZM599.33 160.535L598.813 163.49L601.724 164L602.277 161.097L599.33 160.535ZM635.143 103.591L636.863 106.048L636.953 105.986L637.038 105.916L635.143 103.591ZM660.537 72.0032L663.389 72.9324L660.537 72.0032ZM667.291 106.339C670.531 86.0071 668.69 74.9594 665.807 69.85L660.581 72.7987C662.418 76.0541 664.559 85.3599 661.366 105.395L667.291 106.339ZM664.86 105.086C665.048 104.969 665.389 104.839 665.829 104.875C666.26 104.911 666.61 105.093 666.846 105.302C667.293 105.697 667.323 106.139 667.291 106.339L661.366 105.395C661.113 106.981 661.606 108.676 662.868 109.794C664.273 111.038 666.311 111.25 668.03 110.181L664.86 105.086ZM678.823 72.222C674.866 94.8297 668.231 102.989 664.86 105.086L668.03 110.181C673.667 106.673 680.704 96.2792 684.733 73.2564L678.823 72.222ZM679.968 64.0521C679.602 66.9911 679.264 69.7004 678.823 72.222L684.733 73.2564C685.205 70.5618 685.56 67.6995 685.922 64.7932L679.968 64.0521ZM704.552 12.3121C684.213 29.6559 681.829 49.0978 679.968 64.0521L685.922 64.7932C687.762 50.0123 689.961 32.6398 708.445 16.8775L704.552 12.3121ZM712.526 18.1414C713.431 15.7645 712.496 13.4363 710.871 12.1691C709.202 10.8687 706.606 10.5603 704.552 12.3121L708.445 16.8775C708.323 16.9814 708.079 17.0998 707.772 17.0955C707.499 17.0917 707.301 16.9939 707.182 16.9017C707.064 16.8096 706.967 16.6795 706.915 16.5102C706.855 16.3179 706.872 16.1297 706.918 16.0074L712.526 18.1414ZM713.774 59.5188C704.733 46.7296 707.878 30.3543 712.526 18.1414L706.918 16.0074C702.147 28.5449 697.976 47.5645 708.875 62.9823L713.774 59.5188ZM746.934 152.473C748.677 138.102 743.917 119.973 737.125 103.133C730.293 86.1923 721.202 70.0669 713.777 59.5233L708.872 62.9778C716.026 73.1385 724.898 88.8568 731.561 105.377C738.264 121.998 742.53 138.947 740.978 151.751L746.934 152.473ZM744.43 151.13C744.692 151.007 745.106 150.912 745.588 151.014C746.053 151.113 746.386 151.353 746.585 151.569C746.943 151.958 746.953 152.315 746.934 152.473L740.978 151.751C740.817 153.076 741.171 154.55 742.175 155.638C742.697 156.204 743.428 156.69 744.344 156.884C745.276 157.082 746.193 156.932 746.987 156.558L744.43 151.13ZM750.251 140.299C748.18 148.297 745.49 150.631 744.43 151.13L746.987 156.558C750.488 154.909 753.838 150.383 756.059 141.803L750.251 140.299ZM759.478 139.154C758.446 137.038 756.31 136.132 754.321 136.477C752.421 136.808 750.784 138.238 750.251 140.299L756.059 141.803C756.001 142.029 755.762 142.317 755.348 142.389C755.142 142.425 754.874 142.407 754.604 142.274C754.316 142.132 754.152 141.921 754.085 141.784L759.478 139.154ZM765.848 189.608C769.28 167.093 764.176 148.788 759.478 139.154L754.085 141.784C758.301 150.431 763.148 167.508 759.917 188.703L765.848 189.608ZM765.837 189.676C765.844 189.636 765.849 189.605 765.851 189.592C765.851 189.588 765.852 189.586 765.852 189.584C765.852 189.583 765.852 189.582 765.852 189.582C765.852 189.581 765.852 189.581 765.852 189.581C765.852 189.58 765.852 189.585 765.851 189.59L759.914 188.721C759.914 188.724 759.913 188.727 759.913 188.729C759.913 188.73 759.913 188.73 759.913 188.731C759.913 188.731 759.913 188.732 759.913 188.732C759.913 188.733 759.913 188.728 759.914 188.722C759.916 188.711 759.92 188.68 759.927 188.642L765.837 189.676ZM762.365 192.114L762.388 192.118L763.422 186.208L763.399 186.204L762.365 192.114ZM759.95 188.646C756.29 209.555 744.475 228.155 727.102 240.352L730.549 245.263C749.225 232.151 761.926 212.157 765.86 189.68L759.95 188.646ZM727.102 240.352C709.729 252.55 688.222 257.347 667.312 253.687L666.278 259.598C688.755 263.531 711.874 258.375 730.549 245.263L727.102 240.352ZM667.312 253.687C646.402 250.028 627.803 238.212 615.605 220.839L610.695 224.287C623.807 242.962 643.801 255.664 666.278 259.598L667.312 253.687ZM615.605 220.839C603.407 203.466 598.611 181.959 602.27 161.05L596.36 160.015C592.426 182.492 597.583 205.612 610.695 224.287L615.605 220.839ZM598.798 163.488L598.813 163.49L599.848 157.58L599.832 157.577L598.798 163.488ZM633.422 101.133C606.764 119.796 599.295 144.689 596.383 159.974L602.277 161.097C605.049 146.547 612.026 123.436 636.863 106.048L633.422 101.133ZM657.684 71.0741C655.96 76.3684 651.744 82.4233 646.848 88.0322C642.005 93.5815 636.739 98.4196 633.248 101.265L637.038 105.916C640.763 102.88 646.278 97.8095 651.369 91.9778C656.407 86.2056 661.28 79.4075 663.389 72.9324L657.684 71.0741ZM665.807 69.85C665.356 69.0509 664.658 68.3364 663.699 67.9352C662.742 67.5346 661.755 67.5436 660.907 67.7973C659.274 68.2858 658.155 69.6308 657.684 71.0741L663.389 72.9324C663.369 72.9945 663.221 73.3676 662.626 73.5456C662.297 73.6442 661.845 73.6633 661.383 73.4699C660.919 73.2758 660.675 72.9653 660.581 72.7987L665.807 69.85Z" fill="#0C0C0D" mask="url(#path-15-outside-1_1419_5860)"/>
<ellipse cx="678.609" cy="182.963" rx="58.5526" ry="58.5526" transform="rotate(-170.073 678.609 182.963)" fill="url(#paint0_linear_1419_5860)"/>
<rect x="328.335" y="220" width="29" height="29" rx="5" transform="rotate(60.8828 328.335 220)" fill="#FF7833" stroke="#0C0C0D" stroke-width="3"/>
<rect x="65.1128" y="237.337" width="29" height="29" rx="5" transform="rotate(106.707 65.1128 237.337)" fill="#2DBA8D" stroke="#0C0C0D" stroke-width="3"/>
<rect x="837.411" y="250" width="29" height="47" rx="5" transform="rotate(59.296 837.411 250)" fill="#FFE4A1" stroke="#0C0C0D" stroke-width="3"/>
<circle cx="406.898" cy="426.899" r="67.747" transform="rotate(-18.8396 406.898 426.899)" fill="#3668DD" stroke="#0C0C0D" stroke-width="3"/>
<path d="M364.476 394.412L365.922 394.813L364.476 394.412C364.07 395.877 364.897 397.363 366.295 397.844C372.165 399.865 377.353 402.622 381.818 405.934C398.416 418.25 405.32 438.485 399.711 458.378C398.203 463.728 395.782 469.081 392.371 474.269C391.559 475.504 391.813 477.186 393.03 478.097L395.193 479.716C396.398 480.618 398.098 480.415 399.062 479.266L449.917 418.623C453.48 414.374 451.27 407.895 445.853 406.71L368.536 389.8C367.071 389.479 365.601 390.357 365.199 391.808L364.476 394.412Z" fill="white" stroke="#0C0C0D" stroke-width="3"/>
<circle cx="753.401" cy="298.401" r="67.747" transform="rotate(29.5706 753.401 298.401)" fill="#3668DD" stroke="#0C0C0D" stroke-width="3"/>
<path d="M749.539 245.108L750.198 246.455L749.539 245.108C748.173 245.776 747.61 247.382 748.178 248.746C750.564 254.479 751.946 260.188 752.432 265.726C754.238 286.315 743.687 304.911 725.086 313.921C720.083 316.344 714.473 318.086 708.328 318.979C706.865 319.191 705.776 320.498 705.903 322.013L706.128 324.705C706.253 326.206 707.533 327.342 709.032 327.3L788.146 325.081C793.688 324.926 797.067 318.972 794.357 314.134L755.683 245.083C754.95 243.774 753.318 243.258 751.965 243.92L749.539 245.108Z" fill="white" stroke="#0C0C0D" stroke-width="3"/>
<rect x="647.517" y="273.068" width="256.473" height="141.865" rx="4.00119" transform="rotate(32.1299 647.517 273.068)" fill="#D9D9D9" stroke="#0C0C0D" stroke-width="3"/>
<path d="M717.736 400.928L861.291 414.915L792.68 524.165L717.736 400.928Z" fill="white" stroke="#0C0C0D" stroke-width="3"/>
<path d="M719.043 401.749L644.099 278.512L575.487 387.762L719.043 401.749Z" fill="white" stroke="#0C0C0D" stroke-width="3"/>
<path d="M683.589 383.772L653.428 276.78L858.023 405.272L748.55 424.568C719.633 429.665 691.556 412.032 683.589 383.772Z" fill="white" stroke="#0C0C0D" stroke-width="3"/>
<path fill-rule="evenodd" clip-rule="evenodd" d="M535.977 362.954L547.962 408.113C561.987 460.96 597.987 505.262 646.846 529.802L678.907 545.905L675.316 553.054L643.255 536.951C592.35 511.383 554.842 465.225 540.23 410.165L528.245 365.006L535.977 362.954Z" fill="#259974" stroke="#0C0C0D" stroke-width="3"/>
<path d="M559.374 419.444C520.367 446.714 525.462 496.582 534.045 521.974C534.714 523.951 537.193 524.502 538.719 523.078C587.709 477.353 576.428 436.695 563.159 419.948C562.243 418.792 560.583 418.599 559.374 419.444Z" fill="#259974" stroke="#0C0C0D" stroke-width="3"/>
<path d="M691.531 503.748L681.63 551.695L650.1 514.241C638.808 500.829 645.442 480.224 662.438 475.92C679.435 471.615 695.077 486.577 691.531 503.748Z" fill="#BC3B97" stroke="#0C0C0D" stroke-width="3"/>
<path d="M668.883 588.403L678.784 540.456L710.314 577.91C721.606 591.322 714.972 611.926 697.976 616.231C680.98 620.536 665.337 605.574 668.883 588.403Z" fill="#EF59B3" stroke="#0C0C0D" stroke-width="3"/>
<path d="M722.535 557.399L674.587 547.499L712.042 515.968C725.454 504.677 746.058 511.311 750.363 528.307C754.668 545.303 739.705 560.945 722.535 557.399Z" fill="#EF59B3" stroke="#0C0C0D" stroke-width="3"/>
<path d="M637.88 534.752L685.827 544.652L648.373 576.183C634.96 587.474 614.356 580.84 610.052 563.844C605.747 546.848 620.709 531.206 637.88 534.752Z" fill="#BC3B97" stroke="#0C0C0D" stroke-width="3"/>
<path d="M718.144 524.152L677.24 551.055L681.428 502.276C682.928 484.807 702.188 474.929 717.25 483.903C732.312 492.877 732.793 514.518 718.144 524.152Z" fill="#EF59B3" stroke="#0C0C0D" stroke-width="3"/>
<path d="M642.27 567.998L683.175 541.095L678.986 589.875C677.486 607.343 658.226 617.221 643.164 608.247C628.102 599.273 627.621 577.633 642.27 567.998Z" fill="#EF59B3" stroke="#0C0C0D" stroke-width="3"/>
<path d="M702.131 584.013L675.227 543.108L724.007 547.297C741.475 548.797 751.354 568.057 742.379 583.119C733.405 598.181 711.765 598.661 702.131 584.013Z" fill="#F276C0" stroke="#0C0C0D" stroke-width="3"/>
<path d="M658.284 508.138L685.187 549.043L636.408 544.854C618.939 543.354 609.061 524.094 618.035 509.032C627.009 493.97 648.65 493.489 658.284 508.138Z" fill="#F276C0" stroke="#0C0C0D" stroke-width="3"/>
<circle cx="680.191" cy="545.682" r="26.5863" transform="rotate(-14.2127 680.191 545.682)" fill="#FFC93E" stroke="#0C0C0D" stroke-width="3"/>
<path fill-rule="evenodd" clip-rule="evenodd" d="M398.917 307.676C381.423 290.182 353.06 290.182 335.566 307.676C323.475 319.766 319.74 337.049 324.363 352.347L310.672 366.039C308.247 368.463 308.247 372.394 310.672 374.819L312.258 376.405L308.334 380.329C307.712 380.951 307.229 381.698 306.918 382.521L300.458 399.583C299.376 402.44 295.706 403.229 293.546 401.069C291.902 399.425 289.238 399.425 287.594 401.069L275.789 412.874C274.52 414.143 273.993 415.974 274.394 417.723C275.252 421.47 271.897 424.825 268.15 423.966C266.402 423.566 264.57 424.093 263.302 425.361L258.713 429.95C257.57 431.093 256.917 432.637 256.895 434.254L256.712 447.295C256.689 448.971 257.344 450.586 258.53 451.772L261.25 454.492C263.675 456.916 267.606 456.916 270.03 454.492L330.187 394.335L331.774 395.921C334.198 398.346 338.13 398.346 340.554 395.921L354.245 382.23C369.543 386.852 386.826 383.117 398.917 371.027C416.411 353.533 416.411 325.169 398.917 307.676ZM386.964 319.629C380.692 313.358 370.524 313.358 364.253 319.629C357.981 325.901 357.981 336.068 364.253 342.34C370.524 348.611 380.692 348.611 386.964 342.34C393.235 336.068 393.235 325.901 386.964 319.629Z" fill="#FFC93E"/>
<path d="M324.363 352.347L325.423 353.408C325.814 353.017 325.958 352.443 325.799 351.914L324.363 352.347ZM312.258 376.405L313.318 377.466C313.904 376.88 313.904 375.93 313.318 375.344L312.258 376.405ZM306.918 382.521L305.515 381.99L306.918 382.521ZM300.458 399.583L299.055 399.052L300.458 399.583ZM274.394 417.723L272.932 418.058L272.932 418.058L274.394 417.723ZM268.15 423.966L267.815 425.429L267.815 425.429L268.15 423.966ZM256.895 434.254L255.395 434.233L255.395 434.233L256.895 434.254ZM256.712 447.295L258.212 447.316L258.212 447.316L256.712 447.295ZM270.03 454.492L271.091 455.552L270.03 454.492ZM330.187 394.335L331.248 393.274C330.662 392.688 329.712 392.688 329.127 393.274L330.187 394.335ZM331.774 395.921L332.834 394.861L331.774 395.921ZM354.245 382.23L354.679 380.794C354.15 380.634 353.576 380.778 353.185 381.169L354.245 382.23ZM336.626 308.736C353.534 291.828 380.948 291.828 397.856 308.736L399.977 306.615C381.898 288.535 352.585 288.535 334.505 306.615L336.626 308.736ZM325.799 351.914C321.33 337.124 324.942 320.421 336.626 308.736L334.505 306.615C322.008 319.112 318.151 336.975 322.927 352.781L325.799 351.914ZM311.732 367.099L325.423 353.408L323.302 351.287L309.611 364.978L311.732 367.099ZM311.732 373.758C309.893 371.919 309.893 368.938 311.732 367.099L309.611 364.978C306.6 367.988 306.6 372.869 309.611 375.88L311.732 373.758ZM313.318 375.344L311.732 373.758L309.611 375.88L311.197 377.466L313.318 375.344ZM309.395 381.39L313.318 377.466L311.197 375.344L307.273 379.268L309.395 381.39ZM308.32 383.052C308.557 382.428 308.923 381.861 309.395 381.39L307.273 379.268C306.501 380.041 305.902 380.968 305.515 381.99L308.32 383.052ZM301.861 400.114L308.32 383.052L305.515 381.99L299.055 399.052L301.861 400.114ZM292.485 402.129C295.416 405.06 300.393 403.99 301.861 400.114L299.055 399.052C298.359 400.891 295.997 401.398 294.607 400.008L292.485 402.129ZM288.655 402.129C289.713 401.072 291.428 401.072 292.485 402.129L294.607 400.008C292.377 397.779 288.763 397.779 286.534 400.008L288.655 402.129ZM276.849 413.935L288.655 402.129L286.534 400.008L274.728 411.814L276.849 413.935ZM275.856 417.388C275.571 416.143 275.946 414.838 276.849 413.935L274.728 411.814C273.094 413.447 272.416 415.806 272.932 418.058L275.856 417.388ZM267.815 425.429C272.641 426.534 276.961 422.213 275.856 417.388L272.932 418.058C273.543 420.726 271.153 423.115 268.485 422.504L267.815 425.429ZM264.362 426.422C265.266 425.519 266.57 425.143 267.815 425.429L268.485 422.504C266.233 421.989 263.874 422.667 262.241 424.301L264.362 426.422ZM259.773 431.011L264.362 426.422L262.241 424.301L257.652 428.89L259.773 431.011ZM258.395 434.275C258.412 433.049 258.906 431.878 259.773 431.011L257.652 428.89C256.233 430.309 255.423 432.226 255.395 434.233L258.395 434.275ZM258.212 447.316L258.395 434.275L255.395 434.233L255.212 447.274L258.212 447.316ZM259.591 450.711C258.692 449.812 258.194 448.587 258.212 447.316L255.212 447.274C255.183 449.355 255.997 451.36 257.469 452.832L259.591 450.711ZM262.311 453.431L259.591 450.711L257.469 452.832L260.189 455.552L262.311 453.431ZM268.97 453.431C267.131 455.27 264.15 455.27 262.311 453.431L260.189 455.552C263.2 458.563 268.081 458.563 271.091 455.552L268.97 453.431ZM329.127 393.274L268.97 453.431L271.091 455.552L331.248 395.395L329.127 393.274ZM332.834 394.861L331.248 393.274L329.127 395.395L330.713 396.982L332.834 394.861ZM339.493 394.861C337.655 396.699 334.673 396.699 332.834 394.861L330.713 396.982C333.724 399.992 338.604 399.992 341.615 396.982L339.493 394.861ZM353.185 381.169L339.493 394.861L341.615 396.982L355.306 383.29L353.185 381.169ZM397.856 369.966C386.172 381.65 369.469 385.262 354.679 380.794L353.812 383.666C369.618 388.441 387.48 384.584 399.977 372.087L397.856 369.966ZM397.856 308.736C414.764 325.644 414.764 353.058 397.856 369.966L399.977 372.087C418.057 354.008 418.057 324.695 399.977 306.615L397.856 308.736ZM365.314 320.69C370.999 315.004 380.217 315.004 385.903 320.69L388.024 318.568C381.167 311.711 370.049 311.711 363.192 318.568L365.314 320.69ZM365.314 341.279C359.628 335.594 359.628 326.375 365.314 320.69L363.192 318.568C356.335 325.426 356.335 336.543 363.192 343.401L365.314 341.279ZM385.903 341.279C380.217 346.965 370.999 346.965 365.314 341.279L363.192 343.401C370.049 350.258 381.167 350.258 388.024 343.401L385.903 341.279ZM385.903 320.69C391.589 326.375 391.589 335.594 385.903 341.279L388.024 343.401C394.882 336.543 394.882 325.426 388.024 318.568L385.903 320.69Z" fill="#0C0C0D"/>
<path d="M999.869 140.097C1000.84 141.672 1003.13 141.672 1004.09 140.097L1008.02 133.705C1008.24 133.339 1008.56 133.038 1008.93 132.831L1015.39 129.275C1017.1 128.334 1017.1 125.877 1015.39 124.935L1008.93 121.379C1008.56 121.172 1008.24 120.871 1008.02 120.505L1004.09 114.113C1003.13 112.538 1000.84 112.538 999.869 114.113L995.946 120.505C995.722 120.871 995.406 121.172 995.03 121.379L988.576 124.935C986.866 125.877 986.866 128.334 988.576 129.275L995.03 132.831C995.406 133.038 995.722 133.339 995.946 133.705L999.869 140.097Z" fill="#FFC93E" stroke="#0C0C0D" stroke-width="3" stroke-linejoin="round"/>
<path d="M47.7175 236.676L46.9937 235.362L47.7175 236.676L44.3267 238.544C44.2899 238.564 44.259 238.594 44.237 238.629L43.0224 237.884L44.237 238.629L42.1456 242.037C40.8801 244.098 37.8841 244.098 36.6186 242.037L34.5272 238.629C34.5052 238.594 34.4743 238.564 34.4375 238.544L31.0467 236.676C28.8095 235.443 28.8095 232.228 31.0467 230.996L34.4375 229.128C34.4743 229.107 34.5052 229.078 34.5272 229.042L36.6186 225.635C37.8841 223.573 40.8801 223.573 42.1456 225.635L44.237 229.042C44.259 229.078 44.2899 229.107 44.3267 229.128L47.7175 230.996C49.9547 232.228 49.9547 235.443 47.7175 236.676Z" fill="#FFC93E" stroke="#0C0C0D" stroke-width="3" stroke-linejoin="round"/>
<path d="M325.718 148.676L324.994 147.362L325.718 148.676L322.327 150.544C322.29 150.564 322.259 150.594 322.237 150.629L321.022 149.884L322.237 150.629L320.146 154.037C318.88 156.098 315.884 156.098 314.619 154.037L312.527 150.629C312.505 150.594 312.474 150.564 312.438 150.544L309.047 148.676C306.809 147.443 306.809 144.228 309.047 142.996L312.438 141.128C312.474 141.107 312.505 141.078 312.527 141.042L314.619 137.635C315.884 135.573 318.88 135.573 320.146 137.635L322.237 141.042C322.259 141.078 322.29 141.107 322.327 141.128L325.718 142.996C327.955 144.228 327.955 147.443 325.718 148.676Z" fill="#FFC93E" stroke="#0C0C0D" stroke-width="3" stroke-linejoin="round"/>
<path d="M215.761 439.283C214.901 437.286 212.07 437.286 211.21 439.283L208.041 446.638C207.877 447.018 207.621 447.351 207.296 447.607L200.483 452.954C199.219 453.946 199.219 455.86 200.483 456.852L207.296 462.199C207.621 462.455 207.877 462.788 208.041 463.168L211.21 470.523C212.07 472.52 214.901 472.52 215.761 470.523L218.93 463.168C219.094 462.788 219.35 462.455 219.675 462.199L226.488 456.852C227.752 455.86 227.752 453.946 226.488 452.954L219.675 447.607C219.35 447.351 219.094 447.018 218.93 446.638L215.761 439.283Z" fill="#FFC93E" stroke="#0C0C0D" stroke-width="3" stroke-linejoin="round"/>
<path d="M921.718 486.676L920.994 485.362L921.718 486.676L918.327 488.544C918.29 488.564 918.259 488.594 918.237 488.629L917.023 487.884L918.237 488.629L916.146 492.037C914.881 494.098 911.885 494.098 910.619 492.037L908.528 488.629C908.506 488.594 908.475 488.564 908.438 488.544L905.047 486.676C902.81 485.443 902.81 482.228 905.047 480.996L908.438 479.128C908.475 479.107 908.506 479.078 908.528 479.042L910.619 475.635C911.885 473.573 914.881 473.573 916.146 475.635L918.237 479.042C918.259 479.078 918.29 479.107 918.327 479.128L921.718 480.996C923.955 482.228 923.955 485.443 921.718 486.676Z" fill="#FFC93E" stroke="#0C0C0D" stroke-width="3" stroke-linejoin="round"/>
<rect x="19.7544" y="504.04" width="26" height="26" rx="13" transform="rotate(60.8828 19.7544 504.04)" fill="#3668DD" stroke="#0C0C0D" stroke-width="3"/>
<rect x="988.754" y="264.04" width="26" height="26" rx="13" transform="rotate(60.8828 988.754 264.04)" fill="#3668DD" stroke="#0C0C0D" stroke-width="3"/>
<rect x="1062.75" y="393.04" width="26" height="26" rx="13" transform="rotate(60.8828 1062.75 393.04)" fill="#FFC93E" stroke="#0C0C0D" stroke-width="3"/>
<path d="M836.577 360.04C835.549 358.504 833.261 358.595 832.357 360.207L828.69 366.749C828.48 367.123 828.176 367.437 827.809 367.658L821.5 371.467C819.829 372.475 819.926 374.93 821.672 375.804L828.262 379.102C828.646 379.294 828.973 379.582 829.212 379.939L833.385 386.17C834.413 387.706 836.701 387.616 837.605 386.003L841.272 379.461C841.482 379.087 841.786 378.774 842.153 378.552L848.462 374.744C850.133 373.735 850.036 371.28 848.29 370.406L841.7 367.109C841.317 366.917 840.989 366.628 840.75 366.272L836.577 360.04Z" fill="#FFC93E" stroke="#0C0C0D" stroke-width="3" stroke-linejoin="round"/>
<defs>
<linearGradient id="paint0_linear_1419_5860" x1="678.609" y1="124.411" x2="678.609" y2="241.516" gradientUnits="userSpaceOnUse">
<stop stop-color="#FF5E0D"/>
<stop offset="1" stop-color="#FFC93E"/>
</linearGradient>
</defs>
</svg>
