<svg width="17" height="17" viewBox="0 0 17 17" fill="none" xmlns="http://www.w3.org/2000/svg">
<path fill-rule="evenodd" clip-rule="evenodd" d="M5.12107 2.72632C6.2174 1.99378 7.50633 1.60278 8.82487 1.60278C10.5919 1.60617 12.2857 2.30964 13.5352 3.55915C14.7847 4.80866 15.4881 6.50238 15.4915 8.26945C15.4915 9.58799 15.1005 10.8769 14.368 11.9732C13.6355 13.0696 12.5943 13.9241 11.3761 14.4286C10.1579 14.9332 8.81748 15.0653 7.52427 14.808C6.23106 14.5508 5.04318 13.9158 4.11083 12.9835C3.17848 12.0511 2.54354 10.8633 2.2863 9.57005C2.02907 8.27684 2.16109 6.9364 2.66568 5.71823C3.17026 4.50005 4.02474 3.45886 5.12107 2.72632ZM11.9994 7.10204C12.2043 6.90654 12.2119 6.58193 12.0164 6.377C11.8209 6.17208 11.4963 6.16444 11.2914 6.35994L7.88286 9.61169L6.35866 8.15511C6.1539 7.95943 5.82928 7.9668 5.63361 8.17156C5.43793 8.37632 5.4453 8.70093 5.65006 8.89661L7.52826 10.6915C7.72636 10.8808 8.03829 10.8809 8.23655 10.6918L11.9994 7.10204Z" fill="#53B483"/>
</svg>
