<svg width="21" height="21" viewBox="0 0 21 21" fill="none" xmlns="http://www.w3.org/2000/svg">
<path d="M6.82422 4.26953C6.82422 3.16496 7.71965 2.26953 8.82422 2.26953H14.8242C15.9288 2.26953 16.8242 3.16496 16.8242 4.26953V14.2695C16.8242 15.3741 15.9288 16.2695 14.8242 16.2695H8.82422C7.71965 16.2695 6.82422 15.3741 6.82422 14.2695V4.26953ZM4.82422 6.26955C4.82422 5.52926 5.22642 4.88292 5.82422 4.53711V14.7695C5.82422 16.1503 6.94351 17.2695 8.32422 17.2695H14.5567C14.2108 17.8673 13.5645 18.2695 12.8242 18.2695H8.32422C6.39122 18.2695 4.82422 16.7025 4.82422 14.7695V6.26955Z" fill="#A1A6B2"/>
</svg>
