<svg width="1121" height="562" viewBox="0 0 1121 562" fill="none" xmlns="http://www.w3.org/2000/svg">
<g style="mix-blend-mode:hard-light">
<mask id="path-1-inside-1_9875_23568" fill="white">
<path fill-rule="evenodd" clip-rule="evenodd" d="M556.093 218.331C556.093 229.411 565.075 238.394 576.156 238.394L646.105 238.394C657.186 238.394 666.168 229.411 666.168 218.331L666.168 151.628C666.168 150.112 667.515 148.958 669.032 148.958L738.982 148.958C750.062 148.958 759.044 139.975 759.044 128.895L759.044 58.9452C759.044 47.8648 750.062 38.8824 738.982 38.8824L669.032 38.8824C657.952 38.8824 648.969 47.8648 648.969 58.9452L648.969 125.648C648.969 127.164 647.622 128.319 646.105 128.319L576.156 128.319C565.075 128.319 556.093 137.301 556.093 148.381L556.093 218.331Z"/>
</mask>
<path d="M576.156 238.394L576.156 236.189L576.156 238.394ZM646.105 238.394L646.105 240.599L646.105 238.394ZM576.156 236.189C566.293 236.189 558.298 228.194 558.298 218.331L553.888 218.331C553.888 230.629 563.858 240.599 576.156 240.599L576.156 236.189ZM646.105 236.189L576.156 236.189L576.156 240.599L646.105 240.599L646.105 236.189ZM663.963 218.331C663.963 228.194 655.968 236.189 646.105 236.189L646.105 240.599C658.403 240.599 668.373 230.629 668.373 218.331L663.963 218.331ZM663.963 151.628L663.963 218.331L668.373 218.331L668.373 151.628L663.963 151.628ZM738.982 146.753L669.032 146.753L669.032 151.162L738.982 151.162L738.982 146.753ZM756.84 128.895C756.84 138.758 748.844 146.753 738.982 146.753L738.982 151.162C751.28 151.162 761.249 141.193 761.249 128.895L756.84 128.895ZM756.84 58.9452L756.84 128.895L761.249 128.895L761.249 58.9452L756.84 58.9452ZM738.982 41.0872C748.844 41.0871 756.84 49.0825 756.84 58.9452L761.249 58.9452C761.249 46.6472 751.28 36.6776 738.982 36.6776L738.982 41.0872ZM669.032 41.0872L738.982 41.0872L738.982 36.6776L669.032 36.6776L669.032 41.0872ZM651.174 58.9452C651.174 49.0825 659.169 41.0872 669.032 41.0872L669.032 36.6776C656.734 36.6776 646.764 46.6471 646.764 58.9452L651.174 58.9452ZM651.174 125.648L651.174 58.9452L646.764 58.9452L646.764 125.648L651.174 125.648ZM576.156 130.523L646.105 130.523L646.105 126.114L576.156 126.114L576.156 130.523ZM558.298 148.381C558.298 138.519 566.293 130.523 576.156 130.523L576.156 126.114C563.858 126.114 553.888 136.083 553.888 148.381L558.298 148.381ZM558.298 218.331L558.298 148.381L553.888 148.381L553.888 218.331L558.298 218.331ZM646.764 125.648C646.764 125.722 646.738 125.816 646.624 125.92C646.499 126.033 646.31 126.114 646.105 126.114L646.105 130.523C648.635 130.523 651.174 128.577 651.174 125.648L646.764 125.648ZM668.373 151.628C668.373 151.554 668.399 151.46 668.514 151.356C668.638 151.243 668.827 151.162 669.032 151.162L669.032 146.753C666.502 146.753 663.963 148.699 663.963 151.628L668.373 151.628Z" fill="url(#paint0_linear_9875_23568)" mask="url(#path-1-inside-1_9875_23568)"/>
<mask id="path-3-inside-2_9875_23568" fill="white">
<path fill-rule="evenodd" clip-rule="evenodd" d="M779.561 128.491C779.561 139.571 788.543 148.554 799.623 148.554L869.573 148.554C880.653 148.554 889.636 139.571 889.636 128.491L889.636 61.788C889.636 60.2715 890.983 59.1176 892.499 59.1176L962.449 59.1176C973.529 59.1176 982.512 50.1351 982.512 39.0548L982.512 -30.8949C982.512 -41.9752 973.529 -50.9577 962.449 -50.9577L892.499 -50.9577C881.419 -50.9577 872.437 -41.9752 872.437 -30.8949L872.437 35.8081C872.437 37.3245 871.089 38.4785 869.573 38.4785L799.623 38.4785C788.543 38.4785 779.561 47.4609 779.561 58.5413L779.561 128.491Z"/>
</mask>
<path d="M872.437 -30.8949L874.641 -30.8949L872.437 -30.8949ZM799.623 38.4785L799.623 36.2737L799.623 38.4785ZM872.437 35.8081L870.232 35.8081L872.437 35.8081ZM799.623 146.349C789.761 146.349 781.765 138.354 781.765 128.491L777.356 128.491C777.356 140.789 787.325 150.758 799.623 150.758L799.623 146.349ZM869.573 146.349L799.623 146.349L799.623 150.758L869.573 150.758L869.573 146.349ZM887.431 128.491C887.431 138.354 879.436 146.349 869.573 146.349L869.573 150.758C881.871 150.758 891.841 140.789 891.841 128.491L887.431 128.491ZM887.431 61.788L887.431 128.491L891.841 128.491L891.841 61.788L887.431 61.788ZM962.449 56.9128L892.499 56.9128L892.499 61.3223L962.449 61.3223L962.449 56.9128ZM980.307 39.0548C980.307 48.9175 972.312 56.9128 962.449 56.9128L962.449 61.3223C974.747 61.3223 984.717 51.3528 984.717 39.0548L980.307 39.0548ZM980.307 -30.8949L980.307 39.0548L984.717 39.0548L984.717 -30.8949L980.307 -30.8949ZM962.449 -48.7529C972.312 -48.7529 980.307 -40.7576 980.307 -30.8949L984.717 -30.8949C984.717 -43.1929 974.747 -53.1624 962.449 -53.1624L962.449 -48.7529ZM892.499 -48.7529L962.449 -48.7529L962.449 -53.1624L892.499 -53.1624L892.499 -48.7529ZM874.641 -30.8949C874.641 -40.7576 882.637 -48.7529 892.499 -48.7529L892.499 -53.1624C880.201 -53.1624 870.232 -43.1929 870.232 -30.8949L874.641 -30.8949ZM874.641 35.8081L874.641 -30.8949L870.232 -30.8949L870.232 35.8081L874.641 35.8081ZM799.623 40.6833L869.573 40.6833L869.573 36.2737L799.623 36.2737L799.623 40.6833ZM781.765 58.5413C781.765 48.6786 789.761 40.6833 799.623 40.6833L799.623 36.2737C787.325 36.2737 777.356 46.2433 777.356 58.5413L781.765 58.5413ZM781.765 128.491L781.765 58.5413L777.356 58.5413L777.356 128.491L781.765 128.491ZM870.232 35.8081C870.232 35.8823 870.206 35.9757 870.091 36.0798C869.966 36.1932 869.777 36.2737 869.573 36.2737L869.573 40.6833C872.103 40.6833 874.641 38.7371 874.641 35.8081L870.232 35.8081ZM891.841 61.788C891.841 61.7138 891.867 61.6203 891.981 61.5162C892.106 61.4029 892.295 61.3223 892.499 61.3223L892.499 56.9128C889.97 56.9128 887.431 58.859 887.431 61.788L891.841 61.788Z" fill="url(#paint1_linear_9875_23568)" mask="url(#path-3-inside-2_9875_23568)"/>
<mask id="path-5-inside-3_9875_23568" fill="white">
<path fill-rule="evenodd" clip-rule="evenodd" d="M595.645 357.058C595.645 368.139 604.627 377.121 615.707 377.121L685.657 377.121C696.737 377.121 705.72 368.139 705.72 357.058L705.72 290.355C705.72 288.839 707.067 287.685 708.583 287.685L778.533 287.685C789.613 287.685 798.596 278.703 798.596 267.622L798.596 197.673C798.596 186.592 789.613 177.61 778.533 177.61L708.583 177.61C697.503 177.61 688.521 186.592 688.521 197.673L688.521 264.375C688.521 265.892 687.173 267.046 685.657 267.046L615.707 267.046C604.627 267.046 595.645 276.028 595.645 287.109L595.645 357.058Z"/>
</mask>
<path d="M615.707 377.121L615.707 374.916L615.707 377.121ZM685.657 377.121L685.657 379.326L685.657 377.121ZM615.707 374.916C605.845 374.916 597.849 366.921 597.849 357.058L593.44 357.058C593.44 369.356 603.409 379.326 615.707 379.326L615.707 374.916ZM685.657 374.916L615.707 374.916L615.707 379.326L685.657 379.326L685.657 374.916ZM703.515 357.058C703.515 366.921 695.52 374.916 685.657 374.916L685.657 379.326C697.955 379.326 707.925 369.356 707.925 357.058L703.515 357.058ZM703.515 290.355L703.515 357.058L707.925 357.058L707.925 290.355L703.515 290.355ZM778.533 285.48L708.583 285.48L708.583 289.89L778.533 289.89L778.533 285.48ZM796.391 267.622C796.391 277.485 788.396 285.48 778.533 285.48L778.533 289.89C790.831 289.89 800.801 279.92 800.801 267.622L796.391 267.622ZM796.391 197.673L796.391 267.622L800.801 267.622L800.801 197.673L796.391 197.673ZM778.533 179.815C788.396 179.815 796.391 187.81 796.391 197.673L800.801 197.673C800.801 185.375 790.831 175.405 778.533 175.405L778.533 179.815ZM708.583 179.815L778.533 179.815L778.533 175.405L708.583 175.405L708.583 179.815ZM690.725 197.673C690.725 187.81 698.721 179.815 708.583 179.815L708.583 175.405C696.285 175.405 686.316 185.374 686.316 197.673L690.725 197.673ZM690.725 264.375L690.725 197.673L686.316 197.673L686.316 264.375L690.725 264.375ZM615.707 269.251L685.657 269.251L685.657 264.841L615.707 264.841L615.707 269.251ZM597.849 287.109C597.849 277.246 605.845 269.251 615.707 269.251L615.707 264.841C603.409 264.841 593.44 274.811 593.44 287.109L597.849 287.109ZM597.849 357.058L597.849 287.109L593.44 287.109L593.44 357.058L597.849 357.058ZM686.316 264.375C686.316 264.45 686.29 264.543 686.175 264.647C686.05 264.76 685.861 264.841 685.657 264.841L685.657 269.251C688.187 269.251 690.725 267.304 690.725 264.375L686.316 264.375ZM707.925 290.355C707.925 290.281 707.951 290.188 708.065 290.084C708.19 289.97 708.379 289.89 708.583 289.89L708.583 285.48C706.054 285.48 703.515 287.426 703.515 290.355L707.925 290.355Z" fill="url(#paint2_linear_9875_23568)" mask="url(#path-5-inside-3_9875_23568)"/>
<mask id="path-7-inside-4_9875_23568" fill="white">
<path fill-rule="evenodd" clip-rule="evenodd" d="M819.113 267.218C819.113 278.298 828.096 287.28 839.176 287.28L909.126 287.28C920.206 287.28 929.189 278.298 929.189 267.218L929.189 200.515C929.189 198.998 930.536 197.844 932.052 197.844L1002 197.844C1013.08 197.844 1022.06 188.862 1022.06 177.781L1022.06 107.832C1022.06 96.7513 1013.08 87.7689 1002 87.7689L932.052 87.7689C920.972 87.7689 911.99 96.7513 911.99 107.832L911.99 174.535C911.99 176.051 910.642 177.205 909.126 177.205L839.176 177.205C828.096 177.205 819.113 186.188 819.113 197.268L819.113 267.218Z"/>
</mask>
<path d="M1002 197.844L1002 195.639L1002 197.844ZM839.176 285.076C829.313 285.076 821.318 277.08 821.318 267.218L816.909 267.218C816.909 279.516 826.878 289.485 839.176 289.485L839.176 285.076ZM909.126 285.076L839.176 285.076L839.176 289.485L909.126 289.485L909.126 285.076ZM926.984 267.218C926.984 277.08 918.988 285.076 909.126 285.076L909.126 289.485C921.424 289.485 931.393 279.516 931.393 267.218L926.984 267.218ZM926.984 200.515L926.984 267.218L931.393 267.218L931.393 200.515L926.984 200.515ZM1002 195.639L932.052 195.639L932.052 200.049L1002 200.049L1002 195.639ZM1019.86 177.781C1019.86 187.644 1011.86 195.639 1002 195.639L1002 200.049C1014.3 200.049 1024.27 190.079 1024.27 177.781L1019.86 177.781ZM1019.86 107.832L1019.86 177.781L1024.27 177.781L1024.27 107.832L1019.86 107.832ZM1002 89.9737C1011.86 89.9737 1019.86 97.969 1019.86 107.832L1024.27 107.832C1024.27 95.5337 1014.3 85.5641 1002 85.5641L1002 89.9737ZM932.052 89.9737L1002 89.9737L1002 85.5641L932.052 85.5641L932.052 89.9737ZM914.194 107.832C914.194 97.969 922.19 89.9737 932.052 89.9737L932.052 85.5641C919.754 85.5641 909.785 95.5337 909.785 107.832L914.194 107.832ZM914.194 174.535L914.194 107.832L909.785 107.832L909.785 174.535L914.194 174.535ZM839.176 179.41L909.126 179.41L909.126 175L839.176 175L839.176 179.41ZM821.318 197.268C821.318 187.405 829.313 179.41 839.176 179.41L839.176 175C826.878 175 816.909 184.97 816.909 197.268L821.318 197.268ZM821.318 267.218L821.318 197.268L816.909 197.268L816.909 267.218L821.318 267.218ZM909.785 174.535C909.785 174.609 909.759 174.702 909.644 174.806C909.519 174.92 909.33 175 909.126 175L909.126 179.41C911.655 179.41 914.194 177.464 914.194 174.535L909.785 174.535ZM931.393 200.515C931.393 200.441 931.419 200.347 931.534 200.243C931.659 200.129 931.848 200.049 932.052 200.049L932.052 195.639C929.523 195.639 926.984 197.586 926.984 200.515L931.393 200.515Z" fill="url(#paint3_linear_9875_23568)" mask="url(#path-7-inside-4_9875_23568)"/>
<mask id="path-9-inside-5_9875_23568" fill="white">
<path fill-rule="evenodd" clip-rule="evenodd" d="M143.608 536.199C143.608 547.279 152.591 556.262 163.671 556.262L233.621 556.262C244.701 556.262 253.684 547.279 253.684 536.199L253.684 469.496C253.684 467.98 255.031 466.826 256.547 466.826L326.497 466.826C337.577 466.826 346.56 457.843 346.56 446.763L346.56 376.813C346.56 365.733 337.577 356.751 326.497 356.751L256.547 356.751C245.467 356.751 236.485 365.733 236.485 376.813L236.485 443.516C236.485 445.033 235.137 446.187 233.621 446.187L163.671 446.187C152.591 446.187 143.608 455.169 143.608 466.249L143.608 536.199Z"/>
</mask>
<path d="M143.608 536.199L145.813 536.199L143.608 536.199ZM326.497 466.826L326.497 464.621L326.497 466.826ZM326.497 356.751L326.497 354.546L326.497 356.751ZM256.547 356.751L256.547 358.955L256.547 356.751ZM236.485 376.813L238.689 376.813L236.485 376.813ZM143.608 466.249L141.404 466.249L143.608 466.249ZM236.485 443.516L234.28 443.516L236.485 443.516ZM163.671 554.057C153.808 554.057 145.813 546.062 145.813 536.199L141.404 536.199C141.404 548.497 151.373 558.467 163.671 558.467L163.671 554.057ZM233.621 554.057L163.671 554.057L163.671 558.467L233.621 558.467L233.621 554.057ZM251.479 536.199C251.479 546.062 243.484 554.057 233.621 554.057L233.621 558.467C245.919 558.467 255.888 548.497 255.888 536.199L251.479 536.199ZM251.479 469.496L251.479 536.199L255.888 536.199L255.888 469.496L251.479 469.496ZM326.497 464.621L256.547 464.621L256.547 469.031L326.497 469.031L326.497 464.621ZM344.355 446.763C344.355 456.626 336.36 464.621 326.497 464.621L326.497 469.031C338.795 469.031 348.765 459.061 348.765 446.763L344.355 446.763ZM344.355 376.813L344.355 446.763L348.765 446.763L348.765 376.813L344.355 376.813ZM326.497 358.955C336.36 358.955 344.355 366.951 344.355 376.813L348.765 376.813C348.765 364.515 338.795 354.546 326.497 354.546L326.497 358.955ZM256.547 358.955L326.497 358.955L326.497 354.546L256.547 354.546L256.547 358.955ZM238.689 376.813C238.689 366.951 246.685 358.955 256.547 358.955L256.547 354.546C244.249 354.546 234.28 364.515 234.28 376.813L238.689 376.813ZM238.689 443.516L238.689 376.813L234.28 376.813L234.28 443.516L238.689 443.516ZM163.671 448.391L233.621 448.391L233.621 443.982L163.671 443.982L163.671 448.391ZM145.813 466.249C145.813 456.387 153.808 448.391 163.671 448.391L163.671 443.982C151.373 443.982 141.404 453.951 141.404 466.249L145.813 466.249ZM145.813 536.199L145.813 466.249L141.404 466.249L141.404 536.199L145.813 536.199ZM234.28 443.516C234.28 443.59 234.254 443.684 234.139 443.788C234.014 443.901 233.825 443.982 233.621 443.982L233.621 448.391C236.15 448.391 238.689 446.445 238.689 443.516L234.28 443.516ZM255.888 469.496C255.888 469.422 255.914 469.329 256.029 469.225C256.154 469.111 256.343 469.031 256.547 469.031L256.547 464.621C254.018 464.621 251.479 466.567 251.479 469.496L255.888 469.496Z" fill="url(#paint4_linear_9875_23568)" mask="url(#path-9-inside-5_9875_23568)"/>
<mask id="path-11-inside-6_9875_23568" fill="white">
<path fill-rule="evenodd" clip-rule="evenodd" d="M183.16 674.926C183.16 686.006 192.143 694.989 203.223 694.989L273.173 694.989C284.253 694.989 293.235 686.006 293.235 674.926L293.235 608.223C293.235 606.706 294.582 605.553 296.099 605.553L366.048 605.553C377.129 605.553 386.111 596.57 386.111 585.49L386.111 515.54C386.111 504.46 377.129 495.477 366.048 495.477L296.099 495.477C285.018 495.477 276.036 504.46 276.036 515.54L276.036 582.244C276.036 583.76 274.689 584.914 273.173 584.914L203.223 584.914C192.143 584.914 183.16 593.896 183.16 604.976L183.16 674.926Z"/>
</mask>
<path d="M366.048 495.477L366.048 497.682L366.048 495.477ZM296.099 495.477L296.099 493.273L296.099 495.477ZM203.223 692.784C193.36 692.784 185.365 684.789 185.365 674.926L180.955 674.926C180.955 687.224 190.925 697.194 203.223 697.194L203.223 692.784ZM273.173 692.784L203.223 692.784L203.223 697.194L273.173 697.194L273.173 692.784ZM291.031 674.926C291.031 684.789 283.035 692.784 273.173 692.784L273.173 697.194C285.471 697.194 295.44 687.224 295.44 674.926L291.031 674.926ZM291.031 608.223L291.031 674.926L295.44 674.926L295.44 608.223L291.031 608.223ZM366.048 603.348L296.099 603.348L296.099 607.757L366.048 607.757L366.048 603.348ZM383.906 585.49C383.906 595.353 375.911 603.348 366.048 603.348L366.048 607.757C378.346 607.757 388.316 597.788 388.316 585.49L383.906 585.49ZM383.906 515.54L383.906 585.49L388.316 585.49L388.316 515.54L383.906 515.54ZM366.048 497.682C375.911 497.682 383.906 505.677 383.906 515.54L388.316 515.54C388.316 503.242 378.346 493.273 366.048 493.273L366.048 497.682ZM296.099 497.682L366.048 497.682L366.048 493.273L296.099 493.273L296.099 497.682ZM278.241 515.54C278.241 505.677 286.236 497.682 296.099 497.682L296.099 493.273C283.801 493.273 273.831 503.242 273.831 515.54L278.241 515.54ZM278.241 582.244L278.241 515.54L273.831 515.54L273.831 582.244L278.241 582.244ZM203.223 587.118L273.173 587.118L273.173 582.709L203.223 582.709L203.223 587.118ZM185.365 604.976C185.365 595.114 193.36 587.118 203.223 587.118L203.223 582.709C190.925 582.709 180.955 592.678 180.955 604.976L185.365 604.976ZM185.365 674.926L185.365 604.976L180.955 604.976L180.955 674.926L185.365 674.926ZM273.831 582.244C273.831 582.318 273.805 582.411 273.69 582.515C273.566 582.628 273.377 582.709 273.173 582.709L273.173 587.118C275.702 587.118 278.241 585.172 278.241 582.244L273.831 582.244ZM295.44 608.223C295.44 608.149 295.466 608.055 295.581 607.951C295.705 607.838 295.894 607.757 296.099 607.757L296.099 603.348C293.569 603.348 291.031 605.294 291.031 608.223L295.44 608.223Z" fill="url(#paint5_linear_9875_23568)" mask="url(#path-11-inside-6_9875_23568)"/>
<mask id="path-13-inside-7_9875_23568" fill="white">
<path fill-rule="evenodd" clip-rule="evenodd" d="M983.894 456.99C983.894 468.07 992.876 477.053 1003.96 477.053L1073.91 477.053C1084.99 477.053 1093.97 468.07 1093.97 456.99L1093.97 390.287C1093.97 388.771 1095.32 387.617 1096.83 387.617L1166.78 387.617C1177.86 387.617 1186.84 378.634 1186.84 367.554L1186.84 297.604C1186.84 286.524 1177.86 277.541 1166.78 277.541L1096.83 277.541C1085.75 277.541 1076.77 286.524 1076.77 297.604L1076.77 364.307C1076.77 365.824 1075.42 366.978 1073.91 366.978L1003.96 366.978C992.876 366.978 983.894 375.96 983.894 387.04L983.894 456.99Z"/>
</mask>
<path d="M1166.78 277.541L1166.78 275.337L1166.78 277.541ZM1096.83 277.541L1096.83 279.746L1096.83 277.541ZM1003.96 474.848C994.094 474.848 986.098 466.853 986.098 456.99L981.689 456.99C981.689 469.288 991.658 479.258 1003.96 479.258L1003.96 474.848ZM1073.91 474.848L1003.96 474.848L1003.96 479.258L1073.91 479.258L1073.91 474.848ZM1091.76 456.99C1091.76 466.853 1083.77 474.848 1073.91 474.848L1073.91 479.258C1086.2 479.258 1096.17 469.288 1096.17 456.99L1091.76 456.99ZM1091.76 390.287L1091.76 456.99L1096.17 456.99L1096.17 390.287L1091.76 390.287ZM1166.78 385.412L1096.83 385.412L1096.83 389.821L1166.78 389.821L1166.78 385.412ZM1184.64 367.554C1184.64 377.417 1176.64 385.412 1166.78 385.412L1166.78 389.821C1179.08 389.821 1189.05 379.852 1189.05 367.554L1184.64 367.554ZM1184.64 297.604L1184.64 367.554L1189.05 367.554L1189.05 297.604L1184.64 297.604ZM1166.78 279.746C1176.64 279.746 1184.64 287.742 1184.64 297.604L1189.05 297.604C1189.05 285.306 1179.08 275.337 1166.78 275.337L1166.78 279.746ZM1096.83 279.746L1166.78 279.746L1166.78 275.337L1096.83 275.337L1096.83 279.746ZM1078.97 297.604C1078.97 287.742 1086.97 279.746 1096.83 279.746L1096.83 275.337C1084.53 275.337 1074.56 285.306 1074.56 297.604L1078.97 297.604ZM1078.97 364.307L1078.97 297.604L1074.56 297.604L1074.56 364.307L1078.97 364.307ZM1003.96 369.182L1073.91 369.182L1073.91 364.773L1003.96 364.773L1003.96 369.182ZM986.098 387.04C986.098 377.178 994.094 369.182 1003.96 369.182L1003.96 364.773C991.658 364.773 981.689 374.742 981.689 387.04L986.098 387.04ZM986.098 456.99L986.098 387.04L981.689 387.04L981.689 456.99L986.098 456.99ZM1074.56 364.307C1074.56 364.381 1074.54 364.475 1074.42 364.579C1074.3 364.692 1074.11 364.773 1073.91 364.773L1073.91 369.182C1076.44 369.182 1078.97 367.236 1078.97 364.307L1074.56 364.307ZM1096.17 390.287C1096.17 390.213 1096.2 390.119 1096.31 390.015C1096.44 389.902 1096.63 389.821 1096.83 389.821L1096.83 385.412C1094.3 385.412 1091.76 387.358 1091.76 390.287L1096.17 390.287Z" fill="url(#paint6_linear_9875_23568)" mask="url(#path-13-inside-7_9875_23568)"/>
<mask id="path-15-inside-8_9875_23568" fill="white">
<path fill-rule="evenodd" clip-rule="evenodd" d="M406.629 585.085C406.629 596.166 415.611 605.148 426.692 605.148L496.641 605.148C507.722 605.148 516.704 596.166 516.704 585.085L516.704 518.383C516.704 516.866 518.051 515.712 519.568 515.712L589.517 515.712C600.598 515.712 609.58 506.73 609.58 495.649L609.58 425.7C609.58 414.619 600.598 405.637 589.517 405.637L519.568 405.637C508.487 405.637 499.505 414.619 499.505 425.7L499.505 492.403C499.505 493.919 498.158 495.073 496.641 495.073L426.692 495.073C415.611 495.073 406.629 504.055 406.629 515.136L406.629 585.085Z"/>
</mask>
<path d="M426.692 605.148L426.692 602.943L426.692 605.148ZM406.629 585.085L408.834 585.085L406.629 585.085ZM496.641 605.148L496.641 607.353L496.641 605.148ZM609.58 495.649L607.375 495.649L609.58 495.649ZM609.58 425.7L611.785 425.7L609.58 425.7ZM499.505 425.7L501.71 425.7L499.505 425.7ZM406.629 515.136L404.424 515.136L406.629 515.136ZM499.505 492.403L497.3 492.403L499.505 492.403ZM426.692 602.943C416.829 602.943 408.834 594.948 408.834 585.085L404.424 585.085C404.424 597.383 414.394 607.353 426.692 607.353L426.692 602.943ZM496.641 602.943L426.692 602.943L426.692 607.353L496.641 607.353L496.641 602.943ZM514.499 585.085C514.499 594.948 506.504 602.943 496.641 602.943L496.641 607.353C508.939 607.353 518.909 597.383 518.909 585.085L514.499 585.085ZM514.499 518.383L514.499 585.085L518.909 585.085L518.909 518.383L514.499 518.383ZM589.517 513.507L519.568 513.507L519.568 517.917L589.517 517.917L589.517 513.507ZM607.375 495.649C607.375 505.512 599.38 513.507 589.517 513.507L589.517 517.917C601.815 517.917 611.785 507.947 611.785 495.649L607.375 495.649ZM607.375 425.7L607.375 495.649L611.785 495.649L611.785 425.7L607.375 425.7ZM589.517 407.842C599.38 407.842 607.375 415.837 607.375 425.7L611.785 425.7C611.785 413.402 601.815 403.432 589.517 403.432L589.517 407.842ZM519.568 407.842L589.517 407.842L589.517 403.432L519.568 403.432L519.568 407.842ZM501.71 425.7C501.71 415.837 509.705 407.842 519.568 407.842L519.568 403.432C507.27 403.432 497.3 413.402 497.3 425.7L501.71 425.7ZM501.71 492.403L501.71 425.7L497.3 425.7L497.3 492.403L501.71 492.403ZM426.692 497.278L496.641 497.278L496.641 492.868L426.692 492.868L426.692 497.278ZM408.834 515.136C408.834 505.273 416.829 497.278 426.692 497.278L426.692 492.868C414.394 492.868 404.424 502.838 404.424 515.136L408.834 515.136ZM408.834 585.085L408.834 515.136L404.424 515.136L404.424 585.085L408.834 585.085ZM497.3 492.403C497.3 492.477 497.274 492.57 497.16 492.674C497.035 492.788 496.846 492.868 496.641 492.868L496.641 497.278C499.171 497.278 501.71 495.332 501.71 492.403L497.3 492.403ZM518.909 518.383C518.909 518.308 518.935 518.215 519.05 518.111C519.174 517.997 519.363 517.917 519.568 517.917L519.568 513.507C517.038 513.507 514.499 515.454 514.499 518.383L518.909 518.383Z" fill="url(#paint7_linear_9875_23568)" mask="url(#path-15-inside-8_9875_23568)"/>
</g>
<defs>
<linearGradient id="paint0_linear_9875_23568" x1="556.093" y1="138.638" x2="759.044" y2="138.638" gradientUnits="userSpaceOnUse">
<stop stop-color="#2EBB8E"/>
<stop offset="1" stop-color="#457EFF"/>
</linearGradient>
<linearGradient id="paint1_linear_9875_23568" x1="779.561" y1="48.798" x2="982.512" y2="48.798" gradientUnits="userSpaceOnUse">
<stop stop-color="#2EBB8E"/>
<stop offset="1" stop-color="#457EFF"/>
</linearGradient>
<linearGradient id="paint2_linear_9875_23568" x1="595.645" y1="277.365" x2="798.596" y2="277.365" gradientUnits="userSpaceOnUse">
<stop stop-color="#2EBB8E"/>
<stop offset="1" stop-color="#457EFF"/>
</linearGradient>
<linearGradient id="paint3_linear_9875_23568" x1="819.113" y1="187.525" x2="1022.06" y2="187.525" gradientUnits="userSpaceOnUse">
<stop stop-color="#2EBB8E"/>
<stop offset="1" stop-color="#457EFF"/>
</linearGradient>
<linearGradient id="paint4_linear_9875_23568" x1="143.608" y1="456.506" x2="346.56" y2="456.506" gradientUnits="userSpaceOnUse">
<stop stop-color="#2EBB8E"/>
<stop offset="1" stop-color="#457EFF"/>
</linearGradient>
<linearGradient id="paint5_linear_9875_23568" x1="183.16" y1="595.233" x2="386.111" y2="595.233" gradientUnits="userSpaceOnUse">
<stop stop-color="#2EBB8E"/>
<stop offset="1" stop-color="#457EFF"/>
</linearGradient>
<linearGradient id="paint6_linear_9875_23568" x1="983.894" y1="377.297" x2="1186.84" y2="377.297" gradientUnits="userSpaceOnUse">
<stop stop-color="#2EBB8E"/>
<stop offset="1" stop-color="#457EFF"/>
</linearGradient>
<linearGradient id="paint7_linear_9875_23568" x1="406.629" y1="505.392" x2="609.58" y2="505.392" gradientUnits="userSpaceOnUse">
<stop stop-color="#2EBB8E"/>
<stop offset="1" stop-color="#457EFF"/>
</linearGradient>
</defs>
</svg>
