<svg width="1335" height="397" viewBox="0 0 1335 397" fill="none" xmlns="http://www.w3.org/2000/svg">
<circle cx="847.687" cy="31.3073" r="24.5812" transform="rotate(18.7195 847.687 31.3073)" fill="white" fill-opacity="0.2"/>
<g clip-path="url(#clip0_9725_16565)">
<path d="M858.88 34.1648L858.005 33.8684C858.608 31.4289 858.328 28.855 857.215 26.602C856.102 24.349 854.229 22.562 851.926 21.5571L852.222 20.6822C852.298 20.4596 852.282 20.2162 852.178 20.0055C852.074 19.7948 851.89 19.6341 851.668 19.5587C851.445 19.4832 851.202 19.4993 850.991 19.6034C850.78 19.7074 850.619 19.8909 850.544 20.1135L850.248 20.9883C847.808 20.3862 845.234 20.6661 842.981 21.7787C840.728 22.8912 838.941 24.7647 837.936 27.0678L837.061 26.7713C836.839 26.6959 836.595 26.712 836.385 26.816C836.174 26.9201 836.013 27.1036 835.938 27.3261C835.862 27.5487 835.878 27.7921 835.983 28.0028C836.087 28.2135 836.27 28.3743 836.493 28.4497L837.367 28.7461C836.765 31.1856 837.045 33.7595 838.158 36.0125C839.27 38.2656 841.144 40.0526 843.447 41.0575L843.15 41.9323C843.075 42.1549 843.091 42.3983 843.195 42.609C843.299 42.8197 843.483 42.9804 843.705 43.0559C843.928 43.1313 844.171 43.1152 844.382 43.0112C844.593 42.9071 844.753 42.7236 844.829 42.501L845.125 41.6262C847.565 42.2284 850.139 41.9484 852.392 40.8358C854.645 39.7233 856.432 37.8498 857.437 35.5468L858.311 35.8432C858.534 35.9186 858.777 35.9026 858.988 35.7985C859.199 35.6945 859.36 35.511 859.435 35.2884C859.51 35.0658 859.494 34.8224 859.39 34.6117C859.286 34.401 859.103 34.2403 858.88 34.1648ZM854.955 34.7058L855.752 34.9759C854.903 36.8344 853.439 38.3432 851.607 39.2478C849.776 40.1524 847.688 40.3974 845.696 39.9415L845.966 39.1443C846.042 38.9217 846.026 38.6783 845.922 38.4676C845.818 38.2569 845.634 38.0962 845.411 38.0208C845.189 37.9453 844.945 37.9614 844.735 38.0655C844.524 38.1695 844.363 38.353 844.288 38.5756L844.018 39.3728C842.159 38.5241 840.651 37.0603 839.746 35.2283C838.841 33.3964 838.596 31.3086 839.052 29.317L839.849 29.5871C840.072 29.6626 840.315 29.6465 840.526 29.5424C840.737 29.4384 840.898 29.2549 840.973 29.0323C841.048 28.8098 841.032 28.5663 840.928 28.3556C840.824 28.1449 840.641 27.9842 840.418 27.9088L839.621 27.6386C840.47 25.7802 841.933 24.2714 843.765 23.3667C845.597 22.4621 847.685 22.2171 849.677 22.673L849.407 23.4702C849.331 23.6928 849.347 23.9362 849.451 24.1469C849.555 24.3576 849.739 24.5184 849.961 24.5938C850.184 24.6692 850.427 24.6531 850.638 24.5491C850.849 24.445 851.009 24.2615 851.085 24.039L851.355 23.2417C853.214 24.0905 854.722 25.5543 855.627 27.3862C856.532 29.2181 856.777 31.306 856.321 33.2975L855.523 33.0274C855.301 32.952 855.057 32.968 854.847 33.0721C854.636 33.1761 854.475 33.3596 854.4 33.5822C854.324 33.8048 854.341 34.0482 854.445 34.2589C854.549 34.4696 854.732 34.6303 854.955 34.7058ZM851.882 32.7291C851.601 33.559 851.08 34.2868 850.385 34.8206C849.69 35.3544 848.853 35.6701 847.979 35.7279C847.104 35.7857 846.232 35.5829 845.473 35.1452C844.714 34.7075 844.102 34.0545 843.714 33.2688C843.326 32.4832 843.18 31.6001 843.294 30.7313C843.408 29.8625 843.777 29.047 844.354 28.3879C844.931 27.7289 845.691 27.2558 846.537 27.0285C847.384 26.8013 848.278 26.8301 849.108 27.1113C850.221 27.4884 851.139 28.2921 851.659 29.3457C852.179 30.3992 852.259 31.6163 851.882 32.7291Z" fill="#A0B9F0"/>
</g>
<circle cx="704.356" cy="366.391" r="24.186" transform="rotate(-17.4577 704.356 366.391)" fill="white" fill-opacity="0.2"/>
<g clip-path="url(#clip1_9725_16565)">
<path d="M709.796 354.628L693.163 359.859C692.722 359.997 692.354 360.306 692.14 360.716C691.927 361.126 691.884 361.604 692.023 362.045L693.944 368.154C696.874 377.471 705.728 378.082 707.471 378.11C707.844 378.119 708.21 378.004 708.511 377.783C709.926 376.761 716.834 371.193 713.904 361.876L711.983 355.768C711.844 355.327 711.536 354.959 711.126 354.745C710.716 354.531 710.238 354.489 709.796 354.628ZM696.109 368.985L704.357 366.391L702.003 358.906L710.32 356.291L712.241 362.4C712.386 362.859 712.507 363.325 712.604 363.795L704.356 366.389L707.495 376.369C706.031 376.344 699.061 375.855 696.109 368.985Z" fill="#A0B9F0"/>
</g>
<circle cx="231.618" cy="42.7992" r="19.2707" transform="rotate(-36.0476 231.618 42.7992)" fill="white" fill-opacity="0.2"/>
<g clip-path="url(#clip2_9725_16565)">
<path d="M234.934 34.3713L223.702 42.5466C223.553 42.655 223.367 42.6998 223.185 42.6711C223.003 42.6425 222.84 42.5427 222.731 42.3937C222.623 42.2448 222.578 42.0589 222.607 41.8769C222.636 41.6949 222.735 41.5318 222.884 41.4233L232.432 34.4744C232.581 34.366 232.681 34.2028 232.709 34.0208C232.738 33.8388 232.693 33.6529 232.585 33.504C232.476 33.355 232.313 33.2552 232.131 33.2266C231.949 33.1979 231.763 33.2427 231.614 33.3511L222.067 40.3001C221.62 40.6253 221.321 41.1147 221.235 41.6607C221.148 42.2066 221.283 42.7644 221.608 43.2113L228.148 52.1974C228.474 52.6442 228.963 52.9436 229.509 53.0296C230.055 53.1156 230.613 52.9812 231.06 52.656L242.292 44.4807C242.59 44.2639 242.79 43.9376 242.847 43.5737C242.904 43.2097 242.815 42.8378 242.598 42.5399L236.875 34.6771C236.658 34.3792 236.332 34.1796 235.968 34.1223C235.604 34.0649 235.232 34.1545 234.934 34.3713ZM236.495 41.8271C236.328 41.9484 236.129 42.0175 235.923 42.0258C235.717 42.034 235.514 41.981 235.338 41.8735C235.162 41.766 235.022 41.6087 234.936 41.4217C234.849 41.2346 234.82 41.0261 234.852 40.8225C234.884 40.6189 234.976 40.4295 235.116 40.278C235.256 40.1266 235.437 40.02 235.637 39.9717C235.838 39.9234 236.048 39.9356 236.241 40.0068C236.435 40.078 236.603 40.2049 236.724 40.3715C236.887 40.5949 236.954 40.8738 236.911 41.1468C236.868 41.4198 236.718 41.6645 236.495 41.8271Z" fill="#A0B9F0"/>
</g>
<circle cx="1293.69" cy="206.19" r="33.7497" transform="rotate(13.3777 1293.69 206.19)" fill="white" fill-opacity="0.2"/>
<g clip-path="url(#clip3_9725_16565)">
<path d="M1309 213.569L1309.01 213.554C1309.01 213.542 1309.01 213.53 1309 213.519C1308.97 213.228 1308.92 212.939 1308.85 212.654L1306.02 197.213C1306 197.065 1305.94 196.922 1305.86 196.794C1305.53 196.249 1305.09 195.776 1304.57 195.402C1304.05 195.027 1303.47 194.758 1302.84 194.61C1302.22 194.463 1301.58 194.439 1300.95 194.54C1300.32 194.641 1299.71 194.866 1299.17 195.201C1298.89 195.37 1298.7 195.64 1298.62 195.953L1297.74 199.652L1293.01 198.526L1293.89 194.827C1293.93 194.672 1293.93 194.511 1293.91 194.353C1293.88 194.195 1293.82 194.044 1293.74 193.908C1293.41 193.363 1292.97 192.89 1292.45 192.516C1291.93 192.141 1291.34 191.872 1290.72 191.724C1290.1 191.577 1289.46 191.553 1288.83 191.654C1288.19 191.755 1287.59 191.98 1287.05 192.315C1286.92 192.394 1286.8 192.497 1286.71 192.617L1277.24 205.137C1277.05 205.36 1276.88 205.595 1276.72 205.84C1276.71 205.849 1276.7 205.858 1276.7 205.868C1276.7 205.868 1276.69 205.88 1276.69 205.885C1275.66 207.505 1275.31 209.466 1275.72 211.343C1276.12 213.22 1277.25 214.862 1278.86 215.913C1280.47 216.963 1282.42 217.338 1284.3 216.956C1286.19 216.574 1287.84 215.466 1288.91 213.872C1289.39 213.154 1289.73 212.358 1289.92 211.52L1292.45 200.894L1297.19 202.02L1294.66 212.647C1294.45 213.483 1294.4 214.349 1294.5 215.203C1294.74 217.109 1295.72 218.844 1297.23 220.032C1298.74 221.22 1300.65 221.766 1302.56 221.552C1304.47 221.337 1306.22 220.379 1307.42 218.885C1308.63 217.392 1309.2 215.482 1309.01 213.572L1309 213.569ZM1286.88 212.527C1286.16 213.589 1285.06 214.327 1283.8 214.58C1282.55 214.834 1281.24 214.583 1280.17 213.882C1279.1 213.181 1278.35 212.086 1278.08 210.835C1277.81 209.584 1278.05 208.276 1278.73 207.197L1279.15 206.649C1279.86 205.831 1280.83 205.275 1281.9 205.071C1282.96 204.866 1284.07 205.025 1285.04 205.521C1286 206.017 1286.77 206.823 1287.23 207.809C1287.69 208.796 1287.8 209.906 1287.55 210.964L1287.55 210.982C1287.41 211.534 1287.19 212.059 1286.87 212.532L1286.88 212.527ZM1302.32 219.195C1301.54 219.287 1300.75 219.19 1300.02 218.911C1299.29 218.633 1298.63 218.182 1298.11 217.597C1297.59 217.012 1297.22 216.309 1297.03 215.55C1296.84 214.79 1296.83 213.996 1297.01 213.234L1297.02 213.217C1297.27 212.162 1297.87 211.222 1298.72 210.547C1299.58 209.873 1300.63 209.502 1301.71 209.495C1302.8 209.487 1303.86 209.843 1304.72 210.506C1305.58 211.169 1306.19 212.101 1306.46 213.153L1306.58 213.828C1306.72 215.104 1306.36 216.385 1305.56 217.391C1304.76 218.396 1303.59 219.045 1302.32 219.195Z" fill="#A0B9F0"/>
</g>
<circle cx="49.1137" cy="284.743" r="36.5076" transform="rotate(24.5978 49.1137 284.743)" fill="white" fill-opacity="0.2"/>
<g clip-path="url(#clip4_9725_16565)">
<path d="M48.5234 301.841C48.3781 302.158 48.1127 302.405 47.7856 302.526C47.4585 302.648 47.0964 302.635 46.7791 302.489L37.2068 298.107C36.8894 297.962 36.6428 297.697 36.5211 297.37C36.3995 297.042 36.4127 296.68 36.558 296.363C36.7033 296.046 36.9687 295.799 37.2958 295.677C37.6229 295.556 37.985 295.569 38.3023 295.714L47.8746 300.096C48.192 300.242 48.4386 300.507 48.5603 300.834C48.6819 301.161 48.6687 301.523 48.5234 301.841ZM68.6134 281.426C68.4719 278.182 67.4706 275.034 65.7121 272.304C65.618 272.158 65.4961 272.033 65.3534 271.934C65.2106 271.836 65.0498 271.766 64.8802 271.73C64.7106 271.694 64.5355 271.692 64.365 271.724C64.1946 271.756 64.0321 271.821 63.8869 271.916C63.7416 272.01 63.6166 272.133 63.5189 272.276C63.4213 272.42 63.3529 272.581 63.3177 272.751C63.2825 272.92 63.2813 273.095 63.314 273.266C63.3467 273.436 63.4128 273.598 63.5084 273.743C65.0207 276.077 65.8764 278.775 65.9856 281.554C66.0117 281.896 66.1701 282.214 66.4272 282.441C66.6843 282.668 67.0197 282.785 67.3621 282.769C67.7045 282.752 68.0268 282.602 68.2605 282.351C68.4942 282.101 68.6208 281.769 68.6134 281.426ZM39.1446 270.048C39.3639 270.149 39.6065 270.187 39.8459 270.159C40.0853 270.13 40.3124 270.037 40.5024 269.888C42.6773 268.155 45.2791 267.039 48.0341 266.659C48.2061 266.637 48.372 266.581 48.5223 266.494C48.6726 266.408 48.8043 266.292 48.9098 266.155C49.0154 266.017 49.0927 265.86 49.1373 265.693C49.182 265.525 49.1931 265.35 49.1699 265.178C49.1468 265.006 49.09 264.841 49.0026 264.691C48.9153 264.541 48.7992 264.41 48.661 264.305C48.5229 264.201 48.3654 264.124 48.1976 264.08C48.0298 264.037 47.855 264.027 47.6832 264.051C44.4678 264.503 41.4305 265.803 38.8824 267.815C38.7045 267.954 38.5653 268.137 38.4784 268.345C38.3914 268.554 38.3596 268.781 38.3859 269.006C38.4123 269.23 38.4959 269.444 38.6288 269.626C38.7617 269.809 38.9393 269.954 39.1446 270.048ZM62.1748 287.828C63.6275 284.654 63.7602 281.034 62.5435 277.763C61.3268 274.492 58.8604 271.838 55.687 270.385C52.5136 268.932 48.8931 268.8 45.6219 270.016C42.3507 271.233 39.6968 273.699 38.244 276.873C36.4446 280.803 34.2158 283.783 31.8005 285.49C31.4221 285.757 31.1206 286.118 30.9266 286.539C30.7325 286.959 30.6526 287.423 30.695 287.883C30.7374 288.344 30.9006 288.786 31.1681 289.163C31.4356 289.541 31.7979 289.842 32.2186 290.035L56.1494 300.99C56.5703 301.182 57.0343 301.259 57.4947 301.214C57.955 301.169 58.3955 301.004 58.7716 300.735C59.1478 300.466 59.4464 300.102 59.6373 299.681C59.8283 299.26 59.9048 298.796 59.8593 298.335C59.5771 295.391 60.3761 291.757 62.1748 287.828Z" fill="#A0B9F0"/>
</g>
<defs>
<clipPath id="clip0_9725_16565">
<rect width="28.3538" height="28.3538" fill="white" transform="translate(838.81 13.3304) rotate(18.7195)"/>
</clipPath>
<clipPath id="clip1_9725_16565">
<rect width="27.898" height="27.898" fill="white" transform="translate(686.865 357.27) rotate(-17.4577)"/>
</clipPath>
<clipPath id="clip2_9725_16565">
<rect width="22.2283" height="22.2283" fill="white" transform="translate(216.092 40.3531) rotate(-36.0476)"/>
</clipPath>
<clipPath id="clip3_9725_16565">
<rect width="38.9295" height="38.9295" fill="white" transform="translate(1279.25 182.75) rotate(13.3777)"/>
</clipPath>
<clipPath id="clip4_9725_16565">
<rect width="42.1107" height="42.1107" fill="white" transform="translate(38.7334 256.834) rotate(24.5978)"/>
</clipPath>
</defs>
</svg>
