<svg width="25" height="25" viewBox="0 0 25 25" fill="none" xmlns="http://www.w3.org/2000/svg">
<path d="M3.32422 17.2375H21.3242C21.8765 17.2375 22.3242 17.6853 22.3242 18.2375C22.3242 18.7504 21.9382 19.1731 21.4408 19.2308L21.3242 19.2375H3.32422C2.77193 19.2375 2.32422 18.7898 2.32422 18.2375C2.32422 17.7247 2.71026 17.302 3.2076 17.2443L3.32422 17.2375H21.3242H3.32422ZM3.3241 11.2375L21.3241 11.2354C21.8764 11.2353 22.3242 11.683 22.3242 12.2353C22.3242 12.7481 21.9383 13.1708 21.441 13.2286L21.3243 13.2354L3.32434 13.2375C2.77205 13.2376 2.32422 12.79 2.32422 12.2377C2.32422 11.7248 2.71016 11.3021 3.20748 11.2443L3.3241 11.2375L21.3241 11.2354L3.3241 11.2375ZM3.32422 5.23755H21.3242C21.8765 5.23755 22.3242 5.68526 22.3242 6.23755C22.3242 6.75038 21.9382 7.17306 21.4408 7.23082L21.3242 7.23755H3.32422C2.77193 7.23755 2.32422 6.78983 2.32422 6.23755C2.32422 5.72471 2.71026 5.30204 3.2076 5.24428L3.32422 5.23755H21.3242H3.32422Z" fill="#212121"/>
</svg>
