<svg width="20" height="21" viewBox="0 0 20 21" fill="none" xmlns="http://www.w3.org/2000/svg">
<path d="M12.75 17.9956C13.1642 17.9956 13.5 17.6598 13.5 17.2456C13.5 16.8314 13.1642 16.4956 12.75 16.4956H6.5C5.39543 16.4956 4.5 15.6002 4.5 14.4956V6.49561C4.5 5.39104 5.39543 4.49561 6.5 4.49561H12.75C13.1642 4.49561 13.5 4.15982 13.5 3.74561C13.5 3.33139 13.1642 2.99561 12.75 2.99561H6.5C4.567 2.99561 3 4.56261 3 6.49561V14.4956C3 16.4286 4.567 17.9956 6.5 17.9956H12.75ZM13.7413 6.69451C14.0457 6.41355 14.5201 6.43253 14.8011 6.7369L17.8011 9.9869C18.0663 10.2742 18.0663 10.717 17.8011 11.0043L14.8011 14.2543C14.5201 14.5587 14.0457 14.5777 13.7413 14.2967C13.4369 14.0158 13.4179 13.5413 13.6989 13.2369L15.537 11.2456H7.75C7.33579 11.2456 7 10.9098 7 10.4956C7 10.0814 7.33579 9.74561 7.75 9.74561H15.537L13.6989 7.75432C13.4179 7.44995 13.4369 6.97546 13.7413 6.69451Z" fill="white"/>
</svg>
