<svg width="21" height="21" viewBox="0 0 21 21" fill="none" xmlns="http://www.w3.org/2000/svg">
<path d="M17.287 2.51074L11.248 7.34163L12.3696 4.49152L17.287 2.51074Z" fill="#E17726" stroke="#E17726" stroke-width="0.712817" stroke-linecap="round" stroke-linejoin="round"/>
<path d="M3.36133 2.51074L9.34536 7.38735L8.27875 4.49152L3.36133 2.51074Z" fill="#E27625" stroke="#E27625" stroke-width="0.712817" stroke-linecap="round" stroke-linejoin="round"/>
<path d="M15.1163 13.709L13.5098 16.3633L16.9473 17.3827L17.9297 13.7676L15.1163 13.709Z" fill="#E27625" stroke="#E27625" stroke-width="0.712817" stroke-linecap="round" stroke-linejoin="round"/>
<path d="M2.72461 13.7673L3.70105 17.3825L7.13858 16.3631L5.53806 13.7087L2.72461 13.7673Z" fill="#E27625" stroke="#E27625" stroke-width="0.712817" stroke-linecap="round" stroke-linejoin="round"/>
<path d="M6.95006 9.2241L5.99219 10.7869L9.39969 10.9504L9.28443 6.99487L6.95006 9.2241Z" fill="#E27625" stroke="#E27625" stroke-width="0.712817" stroke-linecap="round" stroke-linejoin="round"/>
<path d="M13.6977 9.22416L11.3269 6.94922L11.248 10.9505L14.6555 10.7869L13.6977 9.22416Z" fill="#E27625" stroke="#E27625" stroke-width="0.712817" stroke-linecap="round" stroke-linejoin="round"/>
<path d="M7.13867 16.3636L9.19448 15.2842L7.42357 13.7939L7.13867 16.3636Z" fill="#E27625" stroke="#E27625" stroke-width="0.712817" stroke-linecap="round" stroke-linejoin="round"/>
<path d="M11.4551 15.2842L13.5109 16.3636L13.226 13.7939L11.4551 15.2842Z" fill="#E27625" stroke="#E27625" stroke-width="0.712817" stroke-linecap="round" stroke-linejoin="round"/>
<path d="M13.5109 16.3633L11.4551 15.2839L11.6187 16.7291L11.6008 17.337L13.5109 16.3633Z" fill="#D5BFB2" stroke="#D5BFB2" stroke-width="0.712817" stroke-linecap="round" stroke-linejoin="round"/>
<path d="M7.13867 16.3633L9.04875 17.337L9.0368 16.7291L9.19448 15.2839L7.13867 16.3633Z" fill="#D5BFB2" stroke="#D5BFB2" stroke-width="0.712817" stroke-linecap="round" stroke-linejoin="round"/>
<path d="M9.08499 12.8392L7.375 12.297L8.58149 11.7019L9.08499 12.8392Z" fill="#233447" stroke="#233447" stroke-width="0.712817" stroke-linecap="round" stroke-linejoin="round"/>
<path d="M11.5645 12.839L12.068 11.7017L13.2804 12.2967L11.5645 12.839Z" fill="#233447" stroke="#233447" stroke-width="0.712817" stroke-linecap="round" stroke-linejoin="round"/>
<path d="M7.1378 16.3634L7.43464 13.7087L5.53711 13.7673L7.1378 16.3634Z" fill="#CC6228" stroke="#CC6228" stroke-width="0.712817" stroke-linecap="round" stroke-linejoin="round"/>
<path d="M13.2129 13.7087L13.5097 16.3634L15.1164 13.7673L13.2129 13.7087Z" fill="#CC6228" stroke="#CC6228" stroke-width="0.712817" stroke-linecap="round" stroke-linejoin="round"/>
<path d="M14.6555 10.7869L11.248 10.9504L11.5634 12.839L12.0668 11.7019L13.279 12.2968L14.6555 10.7869Z" fill="#CC6228" stroke="#CC6228" stroke-width="0.712817" stroke-linecap="round" stroke-linejoin="round"/>
<path d="M7.37466 12.2968L8.58095 11.7019L9.08438 12.839L9.39969 10.9504L5.99219 10.7869L7.37466 12.2968Z" fill="#CC6228" stroke="#CC6228" stroke-width="0.712817" stroke-linecap="round" stroke-linejoin="round"/>
<path d="M5.99219 10.7869L7.42303 13.7939L7.37466 12.2968L5.99219 10.7869Z" fill="#E27525" stroke="#E27525" stroke-width="0.712817" stroke-linecap="round" stroke-linejoin="round"/>
<path d="M13.279 12.2968L13.2246 13.7939L14.6554 10.7869L13.279 12.2968Z" fill="#E27525" stroke="#E27525" stroke-width="0.712817" stroke-linecap="round" stroke-linejoin="round"/>
<path d="M9.39929 10.9504L9.08398 12.839L9.48409 15.0683L9.56889 12.1333L9.39929 10.9504Z" fill="#E27525" stroke="#E27525" stroke-width="0.712817" stroke-linecap="round" stroke-linejoin="round"/>
<path d="M11.2476 10.9502L11.084 12.1266L11.1628 15.068L11.5629 12.8388L11.2476 10.9502Z" fill="#E27525" stroke="#E27525" stroke-width="0.712817" stroke-linecap="round" stroke-linejoin="round"/>
<path d="M11.5642 12.8391L11.1641 15.0683L11.4549 15.284L13.2255 13.794L13.2799 12.2969L11.5642 12.8391Z" fill="#F5841F" stroke="#F5841F" stroke-width="0.712817" stroke-linecap="round" stroke-linejoin="round"/>
<path d="M7.375 12.2969L7.42337 13.794L9.194 15.284L9.48483 15.0683L9.08472 12.8391L7.375 12.2969Z" fill="#F5841F" stroke="#F5841F" stroke-width="0.712817" stroke-linecap="round" stroke-linejoin="round"/>
<path d="M11.601 17.3367L11.6189 16.7288L11.4678 16.5852H9.18172L9.0366 16.7288L9.04855 17.3367L7.13867 16.363L7.80576 16.951L9.16381 17.9645H11.4858L12.8438 16.951L13.5109 16.363L11.601 17.3367Z" fill="#C0AC9D" stroke="#C0AC9D" stroke-width="0.712817" stroke-linecap="round" stroke-linejoin="round"/>
<path d="M11.4537 15.2841L11.1629 15.0684H9.48364L9.19281 15.2841L9.03516 16.729L9.18027 16.5854H11.4663L11.6174 16.729L11.4537 15.2841Z" fill="#161616" stroke="#161616" stroke-width="0.712817" stroke-linecap="round" stroke-linejoin="round"/>
<path d="M17.5424 7.65563L18.0518 4.9884L17.288 2.5105L11.4551 7.17846L13.6988 9.22428L16.8694 10.225L17.5669 9.34212L17.2635 9.10708L17.7485 8.62928L17.3788 8.31567L17.8637 7.91707L17.5424 7.65563Z" fill="#763E1A" stroke="#763E1A" stroke-width="0.712817" stroke-linecap="round" stroke-linejoin="round"/>
<path d="M2.59766 4.98865L3.11305 7.65587L2.78578 7.91732L3.27071 8.31592L2.90104 8.62952L3.38597 9.10733L3.08259 9.34237L3.78013 10.2252L6.95071 9.22453L9.19443 7.17871L3.36149 2.51074L2.59766 4.98865Z" fill="#763E1A" stroke="#763E1A" stroke-width="0.712817" stroke-linecap="round" stroke-linejoin="round"/>
<path d="M16.8682 10.2248L13.6976 9.22412L14.6555 10.787L13.2246 13.7942L15.116 13.7678H17.9294L16.8682 10.2248Z" fill="#F5841F" stroke="#F5841F" stroke-width="0.712817" stroke-linecap="round" stroke-linejoin="round"/>
<path d="M6.95046 9.22412L3.77988 10.2248L2.72461 13.7678H5.53806L7.42345 13.7942L5.99254 10.787L6.95046 9.22412Z" fill="#F5841F" stroke="#F5841F" stroke-width="0.712817" stroke-linecap="round" stroke-linejoin="round"/>
<path d="M11.2477 10.9503L11.4537 7.17826L12.3692 4.49121H8.27734L9.19282 7.17826L9.39884 10.9503L9.47767 12.1396L9.48364 15.0681H11.1629L11.1689 12.1396L11.2477 10.9503Z" fill="#F5841F" stroke="#F5841F" stroke-width="0.712817" stroke-linecap="round" stroke-linejoin="round"/>
</svg>
