<svg width="315" height="637" viewBox="0 0 315 637" fill="none" xmlns="http://www.w3.org/2000/svg" xmlns:xlink="http://www.w3.org/1999/xlink">
<g filter="url(#filter0_b_11383_1787)">
<mask id="path-1-outside-1_11383_1787" maskUnits="userSpaceOnUse" x="0.943359" y="0.377686" width="314" height="636" fill="black">
<rect fill="white" x="0.943359" y="0.377686" width="314" height="636"/>
<path fill-rule="evenodd" clip-rule="evenodd" d="M5.43555 49.3699C5.43555 23.4168 26.4747 2.37769 52.4278 2.37769L263.322 2.37769C289.275 2.37769 310.315 23.4168 310.315 49.37V185.447H311.839C312.397 185.447 312.849 185.899 312.849 186.457V254.303C312.849 254.861 312.397 255.313 311.839 255.313H310.315V587.168C310.315 613.121 289.275 634.16 263.322 634.16H52.4278C26.4747 634.16 5.43555 613.121 5.43555 587.168L5.43555 256.049H4.5432C3.98539 256.049 3.5332 255.597 3.5332 255.039L3.5332 212.499C3.5332 211.941 3.98539 211.489 4.5432 211.489H5.43555V199.9H4.5432C3.98539 199.9 3.5332 199.448 3.5332 198.89L3.5332 156.35C3.5332 155.792 3.98539 155.34 4.5432 155.34H5.43555L5.43555 135.993H3.95335C3.39555 135.993 2.94336 135.541 2.94336 134.983L2.94336 114.595C2.94336 114.037 3.39555 113.585 3.95336 113.585H5.43555L5.43555 49.3699Z"/>
</mask>
<path fill-rule="evenodd" clip-rule="evenodd" d="M5.43555 49.3699C5.43555 23.4168 26.4747 2.37769 52.4278 2.37769L263.322 2.37769C289.275 2.37769 310.315 23.4168 310.315 49.37V185.447H311.839C312.397 185.447 312.849 185.899 312.849 186.457V254.303C312.849 254.861 312.397 255.313 311.839 255.313H310.315V587.168C310.315 613.121 289.275 634.16 263.322 634.16H52.4278C26.4747 634.16 5.43555 613.121 5.43555 587.168L5.43555 256.049H4.5432C3.98539 256.049 3.5332 255.597 3.5332 255.039L3.5332 212.499C3.5332 211.941 3.98539 211.489 4.5432 211.489H5.43555V199.9H4.5432C3.98539 199.9 3.5332 199.448 3.5332 198.89L3.5332 156.35C3.5332 155.792 3.98539 155.34 4.5432 155.34H5.43555L5.43555 135.993H3.95335C3.39555 135.993 2.94336 135.541 2.94336 134.983L2.94336 114.595C2.94336 114.037 3.39555 113.585 3.95336 113.585H5.43555L5.43555 49.3699Z" fill="#0E0E0E" fill-opacity="0.05"/>
<path d="M310.315 185.447H308.315V187.447H310.315V185.447ZM310.315 255.313V253.313H308.315V255.313H310.315ZM5.43555 256.049H7.43555V254.049H5.43555V256.049ZM5.43555 211.489V213.489H7.43555V211.489H5.43555ZM5.43555 199.9H7.43555V197.9H5.43555V199.9ZM5.43555 155.34V157.34H7.43555V155.34H5.43555ZM5.43555 135.993H7.43555V133.993H5.43555V135.993ZM5.43555 113.585V115.585H7.43555L7.43555 113.585H5.43555ZM52.4278 0.377686C25.3701 0.377686 3.43555 22.3122 3.43555 49.3699H7.43555C7.43555 24.5213 27.5793 4.37769 52.4278 4.37769V0.377686ZM263.322 0.377686L52.4278 0.377686V4.37769L263.322 4.37769V0.377686ZM312.315 49.37C312.315 22.3123 290.38 0.377686 263.322 0.377686V4.37769C288.171 4.37769 308.315 24.5214 308.315 49.37H312.315ZM312.315 185.447V49.37H308.315V185.447H312.315ZM310.315 187.447H311.839V183.447H310.315V187.447ZM311.839 187.447C311.293 187.447 310.849 187.004 310.849 186.457H314.849C314.849 184.795 313.502 183.447 311.839 183.447V187.447ZM310.849 186.457V254.303H314.849V186.457H310.849ZM310.849 254.303C310.849 253.756 311.293 253.313 311.839 253.313V257.313C313.502 257.313 314.849 255.965 314.849 254.303H310.849ZM311.839 253.313H310.315V257.313H311.839V253.313ZM312.315 587.168V255.313H308.315V587.168H312.315ZM263.322 636.16C290.38 636.16 312.315 614.225 312.315 587.168H308.315C308.315 612.016 288.171 632.16 263.322 632.16V636.16ZM52.4278 636.16H263.322V632.16H52.4278V636.16ZM3.43555 587.168C3.43555 614.225 25.3701 636.16 52.4278 636.16V632.16C27.5793 632.16 7.43555 612.016 7.43555 587.168H3.43555ZM3.43555 256.049L3.43555 587.168H7.43555L7.43555 256.049H3.43555ZM4.5432 258.049H5.43555V254.049H4.5432V258.049ZM1.5332 255.039C1.5332 256.701 2.88082 258.049 4.5432 258.049V254.049C5.08997 254.049 5.5332 254.492 5.5332 255.039H1.5332ZM1.5332 212.499L1.5332 255.039H5.5332L5.5332 212.499H1.5332ZM4.5432 209.489C2.88082 209.489 1.5332 210.836 1.5332 212.499H5.5332C5.5332 213.045 5.08997 213.489 4.5432 213.489V209.489ZM5.43555 209.489H4.5432V213.489H5.43555V209.489ZM3.43555 199.9L3.43555 211.489H7.43555L7.43555 199.9H3.43555ZM4.5432 201.9H5.43555V197.9H4.5432V201.9ZM1.5332 198.89C1.5332 200.553 2.88082 201.9 4.5432 201.9V197.9C5.08997 197.9 5.5332 198.343 5.5332 198.89H1.5332ZM1.5332 156.35L1.5332 198.89H5.5332L5.5332 156.35H1.5332ZM4.5432 153.34C2.88082 153.34 1.5332 154.688 1.5332 156.35H5.5332C5.5332 156.897 5.08997 157.34 4.5432 157.34V153.34ZM5.43555 153.34H4.5432V157.34H5.43555L5.43555 153.34ZM3.43555 135.993L3.43555 155.34H7.43555L7.43555 135.993H3.43555ZM3.95335 137.993H5.43555V133.993H3.95335V137.993ZM0.943359 134.983C0.943359 136.646 2.291 137.993 3.95335 137.993V133.993C4.5001 133.993 4.94336 134.437 4.94336 134.983H0.943359ZM0.943359 114.595L0.943359 134.983H4.94336V114.595H0.943359ZM3.95336 111.585C2.29098 111.585 0.943359 112.933 0.943359 114.595H4.94336C4.94336 115.142 4.50012 115.585 3.95336 115.585V111.585ZM5.43555 111.585H3.95336V115.585H5.43555V111.585ZM3.43555 49.3699L3.43555 113.585H7.43555L7.43555 49.3699H3.43555Z" fill="white" mask="url(#path-1-outside-1_11383_1787)"/>
</g>
<path d="M17.4551 50.2229C17.4551 30.6595 33.3143 14.8004 52.8776 14.8004L262.46 14.8004C282.023 14.8004 297.882 30.6596 297.882 50.2229V586.435C297.882 605.998 282.023 621.857 262.46 621.857H52.8776C33.3143 621.857 17.4551 605.998 17.4551 586.435L17.4551 50.2229Z" fill="url(#pattern2231)"/>
<rect fill="white" x="0.943359" y="0.377686" transform="scale(0.00133333 0.000615927)" width="750" height="1624"/>
<defs>
<filter id="filter0_b_11383_1787" x="-9.49073" y="-10.0564" width="334.774" height="656.65" filterUnits="userSpaceOnUse" color-interpolation-filters="sRGB">
<feFlood flood-opacity="0" result="BackgroundImageFix"/>
<feGaussianBlur in="BackgroundImageFix" stdDeviation="5.21704"/>
<feComposite in2="SourceAlpha" operator="in" result="effect1_backgroundBlur_11383_1787"/>
<feBlend mode="normal" in="SourceGraphic" in2="effect1_backgroundBlur_11383_1787" result="shape"/>
</filter>
<pattern id="pattern2231" patternContentUnits="objectBoundingBox" width="1" height="1">
<!-- <use xlink:href="#image0_11383_17872" transform="scale(0.00133333 0.000615927)"/> -->
</pattern>
<!-- <image id="image0_11383_17872" width="750" height="1624" xlink:href="white"/> -->

</defs>
</svg>
