<svg width="21" height="20" viewBox="0 0 21 20" fill="none" xmlns="http://www.w3.org/2000/svg">
<path d="M4.59961 3C3.77118 3 3.09961 3.67157 3.09961 4.5V14.5C3.09961 15.8807 4.2189 17 5.59961 17H15.0996C16.2042 17 17.0996 16.1046 17.0996 15V7C17.0996 6.25972 16.6974 5.61337 16.0996 5.26756V5C16.0996 3.89543 15.2042 3 14.0996 3H4.59961ZM15.0996 5H4.59961C4.32347 5 4.09961 4.77614 4.09961 4.5C4.09961 4.22386 4.32347 4 4.59961 4H14.0996C14.6519 4 15.0996 4.44772 15.0996 5ZM13.5996 11H14.5996C14.8758 11 15.0996 11.2239 15.0996 11.5C15.0996 11.7761 14.8758 12 14.5996 12H13.5996C13.3235 12 13.0996 11.7761 13.0996 11.5C13.0996 11.2239 13.3235 11 13.5996 11Z" fill="white"/>
</svg>
