<svg
      viewBox="0 0 188 211"
      fill="none"
      xmlns="http://www.w3.org/2000/svg"
    >
      <g opacity="0.3">
        <path
          d="M137.704 192.659C179.718 181.401 204.651 138.216 193.394 96.2011C182.136 54.1866 138.95 29.2532 96.9355 40.511C54.9209 51.7688 29.9876 94.9546 41.2454 136.969C52.5032 178.984 95.6889 203.917 137.704 192.659ZM79.2449 79.2252C79.823 71.8243 89.3821 69.2595 93.5872 75.3773L99.7137 84.2904C101.127 86.3465 103.393 87.6546 105.88 87.8502L116.654 88.6973C124.054 89.2791 126.614 98.8374 120.496 103.04L111.591 109.158C109.534 110.571 108.225 112.838 108.03 115.326L107.181 126.11C106.599 133.511 97.037 136.07 92.8361 129.949L86.7227 121.041C85.3089 118.981 83.0396 117.671 80.5488 117.476L69.77 116.633C62.3675 116.055 59.8046 106.492 65.9255 102.289L74.8405 96.1674C76.8996 94.7534 78.2093 92.4845 78.4038 89.9942L79.2449 79.2252ZM148.797 113.906L151.377 118.086C152.56 120.002 154.626 121.195 156.876 121.262L161.79 121.407C169.522 121.636 172.238 131.77 165.656 135.835L161.473 138.418C159.558 139.601 158.365 141.667 158.299 143.918L158.155 148.827C157.928 156.559 147.793 159.277 143.728 152.695L141.139 148.504C139.956 146.589 137.888 145.396 135.637 145.331L130.742 145.189C123.007 144.965 120.287 134.828 126.87 130.762L131.047 128.182C132.961 127 134.154 124.935 134.221 122.687L134.369 117.767C134.6 110.036 144.735 107.323 148.797 113.906Z"
          fill="#FF7833"
        />
      </g>
    </svg>