<svg width="28" height="18" viewBox="0 0 28 18" fill="none" xmlns="http://www.w3.org/2000/svg">
<path d="M5.7322 3.87813C10.2984 -0.444404 17.7016 -0.444404 22.2679 3.87813L22.8174 4.39834C23.0457 4.6145 23.0457 4.96488 22.8174 5.18104L20.9375 6.96061C20.8233 7.06868 20.6382 7.06868 20.5241 6.96061L19.7678 6.24475C16.5823 3.22921 11.4176 3.22921 8.23214 6.24475L7.42226 7.01137C7.30814 7.11944 7.12308 7.11944 7.00889 7.01137L5.12903 5.2318C4.90065 5.01564 4.90065 4.66526 5.12903 4.4491L5.7322 3.87813ZM26.1556 7.55852L27.8288 9.14231C28.0571 9.35846 28.0571 9.70885 27.8288 9.92501L20.2846 17.0668C20.0563 17.2828 19.6861 17.2828 19.4578 17.0668L14.1034 11.9981C14.0463 11.944 13.9538 11.944 13.8967 11.9981L8.5424 17.0668C8.3141 17.2828 7.9439 17.2828 7.7156 17.0668L0.171232 9.92493C-0.0570773 9.70878 -0.0570773 9.35839 0.171232 9.14224L1.84435 7.55838C2.07266 7.3423 2.44282 7.3423 2.67113 7.55838L8.02564 12.6271C8.08266 12.6812 8.17519 12.6812 8.23229 12.6271L13.5865 7.55838C13.8148 7.3423 14.185 7.3423 14.4133 7.55838L19.7678 12.6271C19.8249 12.6812 19.9174 12.6812 19.9745 12.6271L25.3288 7.55852C25.5572 7.34237 25.9273 7.34237 26.1556 7.55852Z" fill="#3396FF"/>
</svg>
