<svg width="56" height="56" viewBox="0 0 56 56" fill="none" xmlns="http://www.w3.org/2000/svg">
<rect width="56" height="56" rx="28" fill="white"/>
<path d="M29.3333 22.6667V17.3333C29.3333 16.9556 29.4613 16.6391 29.7173 16.384C29.9733 16.1289 30.2898 16.0009 30.6667 16H38.6667C39.0444 16 39.3613 16.128 39.6173 16.384C39.8733 16.64 40.0009 16.9564 40 17.3333V22.6667C40 23.0444 39.872 23.3613 39.616 23.6173C39.36 23.8733 39.0436 24.0009 38.6667 24H30.6667C30.2889 24 29.9724 23.872 29.7173 23.616C29.4622 23.36 29.3342 23.0436 29.3333 22.6667ZM16 28V17.3333C16 16.9556 16.128 16.6391 16.384 16.384C16.64 16.1289 16.9564 16.0009 17.3333 16H25.3333C25.7111 16 26.028 16.128 26.284 16.384C26.54 16.64 26.6676 16.9564 26.6667 17.3333V28C26.6667 28.3778 26.5387 28.6947 26.2827 28.9507C26.0267 29.2067 25.7102 29.3342 25.3333 29.3333H17.3333C16.9556 29.3333 16.6391 29.2053 16.384 28.9493C16.1289 28.6933 16.0009 28.3769 16 28ZM29.3333 38.6667V28C29.3333 27.6222 29.4613 27.3058 29.7173 27.0507C29.9733 26.7956 30.2898 26.6676 30.6667 26.6667H38.6667C39.0444 26.6667 39.3613 26.7947 39.6173 27.0507C39.8733 27.3067 40.0009 27.6231 40 28V38.6667C40 39.0444 39.872 39.3613 39.616 39.6173C39.36 39.8733 39.0436 40.0009 38.6667 40H30.6667C30.2889 40 29.9724 39.872 29.7173 39.616C29.4622 39.36 29.3342 39.0436 29.3333 38.6667ZM16 38.6667V33.3333C16 32.9556 16.128 32.6391 16.384 32.384C16.64 32.1289 16.9564 32.0009 17.3333 32H25.3333C25.7111 32 26.028 32.128 26.284 32.384C26.54 32.64 26.6676 32.9564 26.6667 33.3333V38.6667C26.6667 39.0444 26.5387 39.3613 26.2827 39.6173C26.0267 39.8733 25.7102 40.0009 25.3333 40H17.3333C16.9556 40 16.6391 39.872 16.384 39.616C16.1289 39.36 16.0009 39.0436 16 38.6667ZM18.6667 26.6667H24V18.6667H18.6667V26.6667ZM32 37.3333H37.3333V29.3333H32V37.3333ZM32 21.3333H37.3333V18.6667H32V21.3333ZM18.6667 37.3333H24V34.6667H18.6667V37.3333Z" fill="#29292D"/>
</svg>
