<svg width="56" height="56" viewBox="0 0 56 56" fill="none" xmlns="http://www.w3.org/2000/svg">
<rect width="56" height="56" rx="28" fill="white"/>
<path d="M27.9993 14.667C28.4998 14.667 28.9931 14.6941 29.4793 14.7483C29.6534 14.7676 29.8219 14.8209 29.9754 14.9053C30.1288 14.9897 30.2641 15.1035 30.3735 15.2402C30.483 15.3769 30.5644 15.5338 30.6133 15.702C30.6621 15.8701 30.6773 16.0463 30.658 16.2203C30.6388 16.3944 30.5854 16.5629 30.501 16.7163C30.4166 16.8698 30.3028 17.0051 30.1661 17.1145C30.0294 17.224 29.8725 17.3054 29.7044 17.3542C29.5362 17.403 29.3601 17.4183 29.186 17.399C26.9887 17.1532 24.7694 17.5962 22.8349 18.6669C20.9005 19.7375 19.3465 21.3828 18.388 23.3753C17.4295 25.3677 17.1138 27.6087 17.4845 29.7884C17.8553 31.968 18.8943 33.9786 20.4577 35.542C22.0211 37.1054 24.0317 38.1444 26.2113 38.5151C28.391 38.8859 30.632 38.5702 32.6244 37.6117C34.6168 36.6532 36.2621 35.0992 37.3328 33.1648C38.4034 31.2303 38.8465 29.0109 38.6007 26.8137C38.5814 26.6396 38.5966 26.4635 38.6454 26.2953C38.6942 26.1271 38.7757 25.9702 38.8852 25.8335C39.1062 25.5575 39.4278 25.3806 39.7793 25.3417C40.1308 25.3028 40.4834 25.4051 40.7595 25.6261C40.8961 25.7356 41.0099 25.8709 41.0943 26.0243C41.1787 26.1777 41.2321 26.3463 41.2513 26.5203C41.3047 27.0065 41.3318 27.4999 41.3327 28.0003C41.3327 35.3643 35.3633 41.3337 27.9993 41.3337C20.6353 41.3337 14.666 35.3643 14.666 28.0003C14.666 20.6363 20.6353 14.667 27.9993 14.667ZM27.9567 22.503C28.0446 22.8453 27.9929 23.2085 27.8132 23.5127C27.6334 23.817 27.3402 24.0375 26.998 24.1257C26.0578 24.3719 25.2394 24.9519 24.6954 25.7573C24.1514 26.5627 23.919 27.5385 24.0416 28.5026C24.1642 29.4667 24.6334 30.3533 25.3617 30.9969C26.0899 31.6405 27.0275 31.9972 27.9993 32.0003C28.8864 32.0007 29.7485 31.7062 30.4499 31.1631C31.1513 30.62 31.6522 29.8592 31.874 29.0003C31.9685 28.6648 32.1907 28.3796 32.4929 28.2059C32.7951 28.0322 33.1533 27.9837 33.4908 28.0708C33.8283 28.158 34.1183 28.3739 34.2986 28.6722C34.4789 28.9706 34.5351 29.3277 34.4553 29.667C34.0463 31.2349 33.0805 32.6003 31.7382 33.508C30.396 34.4158 28.7692 34.8038 27.1617 34.5997C25.5542 34.3955 24.0761 33.6131 23.0034 32.3986C21.9306 31.1842 21.3368 29.6207 21.3327 28.0003C21.3325 26.5222 21.8235 25.0859 22.7286 23.9172C23.6337 22.7486 24.9015 21.9139 26.3327 21.5443C26.5023 21.5006 26.6788 21.4907 26.8522 21.5153C27.0256 21.5398 27.1925 21.5982 27.3433 21.6873C27.4941 21.7763 27.6259 21.8941 27.7311 22.0341C27.8364 22.1741 27.913 22.3334 27.9567 22.503ZM36.6713 14.8363C36.9147 14.9372 37.1227 15.108 37.2692 15.327C37.4156 15.546 37.4938 15.8035 37.494 16.067V18.507H39.9327C40.1963 18.507 40.4541 18.5853 40.6733 18.7318C40.8925 18.8783 41.0634 19.0865 41.1643 19.3301C41.2651 19.5737 41.2915 19.8418 41.2401 20.1004C41.1887 20.359 41.0618 20.5965 40.8753 20.783L36.1593 25.4937C35.9094 25.7437 35.5703 25.8842 35.2167 25.8843H31.9993L29.562 28.323C29.3118 28.5732 28.9725 28.7137 28.6187 28.7137C28.2649 28.7137 27.9255 28.5732 27.6753 28.323C27.4252 28.0728 27.2846 27.7335 27.2846 27.3797C27.2846 27.0258 27.4252 26.6865 27.6753 26.4363L30.114 24.0003V20.7817C30.1141 20.4281 30.2546 20.089 30.5047 19.839L35.218 15.1243C35.4045 14.9377 35.6421 14.8107 35.9008 14.7592C36.1595 14.7077 36.4276 14.7341 36.6713 14.835M34.8273 19.2843L32.7807 21.3337V23.219H34.666L36.714 21.1723H36.1607C35.8071 21.1723 35.4679 21.0318 35.2179 20.7818C34.9678 20.5318 34.8273 20.1926 34.8273 19.839V19.2843Z" fill="#29292D"/>
</svg>
