<svg width="56" height="56" viewBox="0 0 56 56" fill="none" xmlns="http://www.w3.org/2000/svg">
<rect width="56" height="56" rx="28" fill="white"/>
<path d="M36.3125 22.0625H19.6875C19.3726 22.0625 19.0705 22.1876 18.8478 22.4103C18.6251 22.633 18.5 22.9351 18.5 23.25V38.6875C18.5 39.0024 18.6251 39.3045 18.8478 39.5272C19.0705 39.7499 19.3726 39.875 19.6875 39.875H36.3125C36.6274 39.875 36.9295 39.7499 37.1522 39.5272C37.3749 39.3045 37.5 39.0024 37.5 38.6875V23.25C37.5 22.9351 37.3749 22.633 37.1522 22.4103C36.9295 22.1876 36.6274 22.0625 36.3125 22.0625Z" stroke="#29292D" stroke-width="2.375" stroke-linecap="round" stroke-linejoin="round"/>
<path d="M23.8438 24.4375V20.2812C23.8437 19.7354 23.9513 19.195 24.1601 18.6907C24.369 18.1865 24.6751 17.7283 25.0611 17.3423C25.447 16.9564 25.9052 16.6502 26.4095 16.4414C26.9137 16.2325 27.4542 16.125 28 16.125C28.5458 16.125 29.0863 16.2325 29.5905 16.4414C30.0948 16.6502 30.553 16.9564 30.9389 17.3423C31.3249 17.7283 31.631 18.1865 31.8399 18.6907C32.0487 19.195 32.1563 19.7354 32.1562 20.2812V24.4375" stroke="#29292D" stroke-width="2.375" stroke-linecap="round" stroke-linejoin="round"/>
</svg>
