<svg width="1439" height="952" viewBox="0 0 1439 952" fill="none" xmlns="http://www.w3.org/2000/svg">
<path fill-rule="evenodd" clip-rule="evenodd" d="M608.491 85.7881L542.144 73.3211C529.466 70.9389 522.003 89.6808 532.286 97.4689C559.459 118.049 579.552 137.522 600.406 157.732C606.326 163.47 612.307 169.266 618.529 175.164C628.513 184.629 617.66 201.62 605.919 194.449C592.001 185.947 579.287 177.483 566.171 168.751C551.387 158.91 536.093 148.729 517.99 137.771C507.376 131.346 496.653 143.856 504.262 153.655L579.979 251.177C587.489 260.85 577.293 272.904 567.057 266.181C546.516 252.689 532.758 240.082 517.275 225.894C508.627 217.97 499.44 209.552 488.233 200.211C478.763 192.319 466.745 203.027 472.909 213.703L501.73 263.622C502.13 264.315 502.457 265.047 502.705 265.807L511.153 291.649C514.958 303.288 500.971 311.482 493.064 302.132C476.554 282.606 464.113 265.695 452.478 249.88C434.078 224.868 417.694 202.597 390.417 177.056C382.865 169.986 371.01 176.219 372.095 186.507L374.598 210.245C376.573 228.977 375.29 247.908 370.806 266.202L369.042 273.399C366.717 282.881 354.631 285.136 350.208 276.433C343.006 262.262 339.765 249.381 336.336 235.749C330.189 211.317 323.435 184.471 292.176 143.457C243.39 79.4478 181.899 1.46308 131.421 -21.9836C125.167 -24.8886 121.704 -32.1717 124.416 -38.5115C150.78 -100.124 164.637 -120.503 216.654 -150.714C217.413 -151.155 218.185 -151.537 219.057 -151.633C234.221 -153.287 289.666 -117.662 360.728 -72.0029C396.67 -48.9084 436.608 -23.2469 477.35 1.45624C478.165 1.95011 479.031 2.33786 479.941 2.62053C525.244 16.6969 575.495 42.0874 616.16 67.0351C626.624 73.455 620.557 88.0553 608.491 85.7881Z" fill="#C9D9FF"/>
<path fill-rule="evenodd" clip-rule="evenodd" d="M648.304 800.446L707.369 833.136C718.655 839.383 731.632 823.937 724.318 813.311C704.991 785.233 692.038 760.431 678.594 734.69C674.778 727.383 670.922 720 666.87 712.445C660.367 700.321 676.011 687.603 684.902 698.101C695.442 710.547 704.851 722.579 714.558 734.991C725.499 748.981 736.817 763.453 750.558 779.547C758.614 788.982 772.726 780.477 768.584 768.782L727.36 652.403C723.271 640.859 736.739 632.622 744.342 642.222C759.601 661.487 768.699 677.779 778.938 696.115C784.657 706.356 790.731 717.235 798.434 729.625C804.943 740.094 819.718 733.706 817.222 721.634L805.554 665.185C805.392 664.402 805.312 663.604 805.315 662.805L805.419 635.618C805.465 623.373 821.32 619.99 825.886 631.352C835.422 655.078 841.916 675.042 847.989 693.713C857.594 723.241 866.147 749.534 884.013 782.354C888.959 791.44 902.173 789.249 904.377 779.142L909.463 755.82C913.476 737.417 920.645 719.848 930.653 703.892L934.59 697.614C939.777 689.344 951.959 691.002 953.422 700.654C955.805 716.371 954.832 729.617 953.803 743.636C951.958 768.762 949.93 796.37 966.713 845.132C992.905 921.232 1026.76 1014.59 1067.31 1052.72C1072.34 1057.44 1073.34 1065.44 1068.77 1070.61C1024.37 1120.81 1004.81 1135.8 945.935 1148.13C945.076 1148.31 944.224 1148.43 943.366 1148.25C928.45 1145.05 887.014 1093.8 833.908 1028.12C807.046 994.899 777.199 957.984 746.288 921.726C745.67 921.001 744.97 920.361 744.195 919.806C705.613 892.203 665.891 852.303 635.129 815.837C627.213 806.454 637.563 794.501 648.304 800.446Z" fill="#73E5B7"/>
<path fill-rule="evenodd" clip-rule="evenodd" d="M1233.57 534.27C1251.97 559.281 1268.35 581.553 1295.63 607.093C1303.18 614.164 1315.04 607.931 1313.95 597.643L1311.45 573.904C1309.47 555.173 1310.76 536.241 1315.24 517.948L1317 510.751C1319.33 501.269 1331.42 499.013 1335.84 507.716C1343.04 521.888 1346.28 534.768 1349.71 548.4C1355.86 572.833 1362.61 599.679 1393.87 640.693C1442.66 704.702 1504.15 782.686 1554.63 806.133C1560.88 809.038 1564.34 816.321 1561.63 822.661C1535.27 884.273 1521.41 904.652 1469.39 934.864C1468.63 935.304 1467.84 935.703 1466.96 935.685C1456.07 935.462 1415.01 905.213 1371.46 873.127C1340.05 849.989 1307.35 825.896 1283.73 811.419C1280.55 809.471 1276.64 809.283 1273.14 810.562C1264.17 813.838 1246.61 818.963 1238.82 812.382C1238.72 812.302 1238.63 812.226 1238.55 812.151C1238.35 811.984 1238.17 811.825 1237.95 811.656C1232.41 807.309 1174.24 760.822 1186.19 735.296C1188.79 729.75 1190.86 723.221 1188.75 717.473C1182.95 701.675 1186.95 687.738 1204 674.6C1206.19 672.915 1207.82 670.574 1208.44 667.886L1209.98 661.332C1212.62 650.021 1219.66 640.228 1229.53 634.115C1233.09 631.914 1234.4 627.378 1232.56 623.621L1184.03 524.157C1183.77 523.626 1183.56 523.076 1183.38 522.512L1173.65 491.101C1170.05 479.497 1183.99 471.438 1191.86 480.695C1208.93 500.781 1221.67 518.098 1233.57 534.27Z" fill="#7DA3F9"/>
<path d="M1309.84 614.657C1297.24 641.526 1306.95 681.5 1339.83 696.207" stroke="#191919" stroke-width="4.75759" stroke-linecap="round" stroke-linejoin="round"/>
<path d="M1245.05 763.005C1225.88 760.529 1197.67 736.584 1197.74 715.95" stroke="#191919" stroke-width="4.75759" stroke-linecap="round" stroke-linejoin="round"/>
<path d="M1262.61 719.634C1243.43 717.158 1215.23 693.213 1215.3 672.579" stroke="#191919" stroke-width="4.75759" stroke-linecap="round" stroke-linejoin="round"/>
<path d="M1289.46 678.328C1270.28 675.851 1242.08 651.907 1242.14 631.272" stroke="#191919" stroke-width="4.75759" stroke-linecap="round" stroke-linejoin="round"/>
<path d="M407.467 838.388C402.261 861.561 374.122 882.228 358.758 880.894" stroke="#191919" stroke-width="4.75759" stroke-linecap="round" stroke-linejoin="round"/>
<path d="M176.508 589.478C182.054 566.542 208.607 544.899 222.691 545.428" stroke="#191919" stroke-width="4.75759" stroke-linecap="round" stroke-linejoin="round"/>
<path d="M435.482 820.138C436.587 863.502 400.138 911.332 347.492 911.745" stroke="#191919" stroke-width="4.75759" stroke-linecap="round" stroke-linejoin="round"/>
<path d="M145.863 606.629C146.267 564.26 181.351 515.621 229.774 512.554" stroke="#191919" stroke-width="4.75759" stroke-linecap="round" stroke-linejoin="round"/>
<path fill-rule="evenodd" clip-rule="evenodd" d="M50.8246 1017.09C82.4723 1020.29 304.632 883.688 439.552 783.439C449.406 776.117 442.305 761.217 430.342 763.975L364.559 779.139C351.989 782.036 343.767 763.615 353.724 755.413C380.034 733.742 399.316 713.464 419.328 692.42C425.009 686.446 430.748 680.41 436.724 674.263C446.314 664.399 434.776 647.865 423.338 655.509C409.779 664.572 397.42 673.548 384.671 682.807C370.302 693.244 355.436 704.041 337.795 715.729C327.452 722.581 316.228 710.519 323.43 700.417L395.104 599.887C402.214 589.915 391.535 578.288 381.581 585.423C361.608 599.742 348.376 612.9 333.484 627.708C325.167 635.978 316.332 644.764 305.515 654.554C296.375 662.827 283.93 652.618 289.653 641.699L316.413 590.645C316.784 589.937 317.081 589.192 317.298 588.422L324.685 562.257C328.011 550.473 313.701 542.856 306.183 552.521C290.483 572.704 278.743 590.109 267.763 606.386C252.836 628.514 239.316 648.558 219.163 670.667C211.188 679.417 198.165 671.189 201.886 659.951L222.787 596.836C227.004 584.104 207.079 573.702 198.643 584.129C197.471 585.577 196.303 587.021 195.137 588.46C162.345 628.958 132.027 666.4 111.937 719.262C83.3088 794.586 9.99772 867.212 -41.8296 891.372C-48.0797 894.285 -51.2265 901.7 -48.2573 907.924C-19.401 968.41 -4.72444 988.206 48.4827 1016.27C49.2587 1016.68 49.9516 1017.01 50.8246 1017.09Z" fill="#A1A6B2"/>
<path d="M312.58 787.284C314.723 756.543 279.734 702.643 240.943 693.929" stroke="#191919" stroke-width="4.75759" stroke-linecap="round" stroke-linejoin="round"/>
</svg>
