<svg width="786" height="1400" viewBox="0 0 786 1400" fill="none" xmlns="http://www.w3.org/2000/svg">
<g clip-path="url(#clip0_5319_2145)">
<path fill-rule="evenodd" clip-rule="evenodd" d="M329.028 335.412L249.177 306.811C240.02 303.531 232.432 316.346 239.335 323.199C266.095 349.764 283.701 373.27 302.059 397.779C310.257 408.725 318.605 419.871 327.986 431.579C334.472 439.674 324.503 451.23 316.396 444.758C298.495 430.465 283.913 417.001 268.677 402.933C254.446 389.794 239.645 376.128 221.036 360.768C213.822 354.813 204.257 362.947 208.759 371.148L273.748 489.55C278.191 497.645 269.035 505.565 262.023 499.557C240.822 481.394 228.719 466.142 214.873 448.696C206.485 438.126 197.457 426.75 185.379 413.433C179.135 406.548 168.795 413.221 172.117 421.903L194.953 481.595C195.169 482.158 195.325 482.742 195.42 483.338L200.922 517.925C202.372 527.044 190.882 531.559 185.994 523.726C170.998 499.696 160.742 479.805 151.228 461.354C137.208 434.162 124.799 410.095 101.204 380.513C96.34 374.414 86.7463 377.662 86.3319 385.451L84.5825 418.335C83.8281 432.517 80.6237 446.461 75.1114 459.55L68.6035 475.002C65.7462 481.786 56.4379 482.054 53.92 475.137C48.0831 459.1 46.8814 445.52 45.6022 431.063C43.5166 407.494 41.2249 381.596 18.3015 338.932C-18.0211 271.33 -64.358 188.429 -108.298 160.404C-112.682 157.608 -114.395 151.759 -111.63 147.356C-77.1359 92.4421 -61.542 75.4552 -7.98289 54.8384C-7.36543 54.6007 -6.75876 54.4116 -6.09728 54.4228C7.92068 54.6589 54.265 96.076 113.761 149.246C143.738 176.037 177.054 205.811 211.256 234.804C211.804 235.269 212.403 235.66 213.047 235.978C255.87 257.125 302.074 291.218 337.169 322.144C344.114 328.264 337.743 338.533 329.028 335.412Z" fill="#C9D9FF"/>
<path fill-rule="evenodd" clip-rule="evenodd" d="M378.479 1216.91L451.266 1257.2C459.776 1261.91 469.332 1250.47 463.629 1242.59C441.863 1212.52 428.45 1186.83 414.467 1160.06C408.298 1148.25 402.019 1136.23 394.863 1123.52C389.773 1114.48 401.481 1104.69 408.431 1112.4C423.422 1129.01 435.407 1144.34 447.924 1160.34C459.681 1175.37 471.906 1191.01 487.532 1208.87C493.692 1215.91 504.435 1209.42 501.312 1200.61L456.887 1075.19C453.803 1066.48 464.11 1060.15 470.057 1067.21C487.739 1088.22 497.107 1104.99 507.817 1124.17C514.288 1135.76 521.249 1148.23 530.83 1163.03C535.88 1170.84 547.156 1165.92 545.274 1156.82L532.535 1095.19C532.413 1094.6 532.353 1094 532.355 1093.4L532.486 1059.07C532.521 1049.84 544.585 1047.24 548.145 1055.76C558.897 1081.49 565.723 1102.47 572.056 1121.94C581.414 1150.71 589.698 1176.17 607.984 1208.77C611.8 1215.57 621.789 1213.91 623.451 1206.29L630.315 1174.81C633.341 1160.94 638.746 1147.69 646.292 1135.66L654.916 1121.91C658.828 1115.67 668.056 1116.91 669.418 1124.14C672.53 1140.67 671.545 1154.1 670.495 1168.38C668.779 1191.76 666.893 1217.44 682.506 1262.81C707.23 1334.64 739.299 1423.01 777.76 1457.45C781.634 1460.92 782.386 1466.97 778.947 1470.87C736.521 1519 718.559 1533.12 662.946 1544.74C662.298 1544.87 661.668 1544.96 661.017 1544.84C647.342 1542.36 608.639 1494.49 558.956 1433.04C533.919 1402.08 506.094 1367.66 477.279 1333.87C476.812 1333.32 476.285 1332.84 475.7 1332.42C437.306 1305 397.676 1264.45 368.317 1228.69C362.443 1221.53 370.379 1212.43 378.479 1216.91Z" fill="#C3FBE5"/>
<path fill-rule="evenodd" clip-rule="evenodd" d="M616.38 647.447C634.503 672.082 650.543 693.886 678.493 719.372C684.257 724.628 693.219 719.91 692.401 712.153L688.95 679.426C687.461 665.302 688.429 651.027 691.81 637.234L695.798 620.965C697.551 613.815 706.701 612.085 710.277 618.519C718.563 633.429 721.888 646.646 725.427 660.714C731.198 683.655 737.54 708.86 766.89 747.369C813.395 808.385 872.195 882.927 919.987 903.674C924.757 905.745 927.37 911.251 925.333 916.035C899.929 975.678 887.21 994.904 837.583 1023.69C837.011 1024.02 836.44 1024.32 835.779 1024.34C825.965 1024.62 787.098 995.991 745.849 965.603C715.932 943.562 684.762 920.599 662.515 907.077C660.113 905.617 657.194 905.486 654.564 906.478C646.499 909.517 628.812 915.051 621.224 908.497C621.18 908.459 621.137 908.422 621.095 908.385C620.922 908.235 620.761 908.095 620.572 907.947C615.735 904.158 557.844 858.072 572.866 834.435C575.343 830.538 576.802 825.603 575.033 821.338C568.486 805.559 572.013 791.764 589.16 778.79C590.877 777.491 592.146 775.661 592.636 773.566L594.229 766.747C596.711 756.127 603.317 746.932 612.59 741.192C615.928 739.126 617.159 734.868 615.437 731.339L569.8 637.805C569.604 637.405 569.44 636.99 569.308 636.565L557.476 598.38C554.765 589.631 565.357 583.474 571.384 590.372C590.421 612.16 603.895 630.476 616.38 647.447Z" fill="#EDF3FF"/>
<path d="M687.986 722.922C676.162 748.149 685.28 785.682 716.147 799.491" stroke="#C2C5CC" stroke-width="3" stroke-linecap="round" stroke-linejoin="round"/>
<path d="M627.158 862.207C609.155 859.882 582.673 837.4 582.737 818.027" stroke="#C2C5CC" stroke-width="3" stroke-linecap="round" stroke-linejoin="round"/>
<path d="M643.643 821.485C625.64 819.16 599.157 796.678 599.222 777.305" stroke="#C2C5CC" stroke-width="3" stroke-linecap="round" stroke-linejoin="round"/>
<path d="M668.85 782.703C650.847 780.378 624.364 757.897 624.429 738.523" stroke="#C2C5CC" stroke-width="3" stroke-linecap="round" stroke-linejoin="round"/>
<path d="M246.59 1053.83C242.664 1071.31 221.447 1086.89 209.862 1085.88" stroke="#C2C5CC" stroke-width="3" stroke-linecap="round" stroke-linejoin="round"/>
<path d="M72.4404 866.15C76.6225 848.856 96.6433 832.537 107.263 832.935" stroke="#C2C5CC" stroke-width="3" stroke-linecap="round" stroke-linejoin="round"/>
<path d="M267.713 1040.07C268.547 1072.77 241.063 1108.83 201.367 1109.15" stroke="#C2C5CC" stroke-width="3" stroke-linecap="round" stroke-linejoin="round"/>
<path d="M49.3319 879.082C49.6371 847.135 76.0909 810.46 112.603 808.147" stroke="#C2C5CC" stroke-width="3" stroke-linecap="round" stroke-linejoin="round"/>
<path fill-rule="evenodd" clip-rule="evenodd" d="M-22.3341 1188.58C1.52897 1190.99 169.042 1087.99 270.775 1012.4C278.205 1006.88 272.851 995.645 263.831 997.724L214.228 1009.16C204.75 1011.34 198.551 997.452 206.059 991.268C225.898 974.927 240.437 959.638 255.526 943.77C259.809 939.266 264.137 934.714 268.643 930.079C275.874 922.642 267.174 910.174 258.55 915.939C248.326 922.772 239.007 929.54 229.394 936.522C218.559 944.391 207.35 952.532 194.048 961.345C186.25 966.512 177.786 957.417 183.216 949.8L237.261 873.998C242.621 866.479 234.569 857.712 227.064 863.092C212.003 873.889 202.026 883.81 190.798 894.975C184.526 901.212 177.864 907.836 169.708 915.218C162.816 921.456 153.433 913.758 157.748 905.525L177.926 867.029C178.206 866.495 178.429 865.934 178.593 865.353L184.163 845.624C186.671 836.739 175.881 830.995 170.212 838.283C158.374 853.502 149.521 866.625 141.242 878.899C129.987 895.584 119.792 910.697 104.597 927.368C98.5834 933.965 88.7638 927.762 91.57 919.288L107.33 871.697C110.509 862.097 95.4849 854.254 89.1243 862.116C88.2409 863.208 87.3596 864.297 86.4807 865.382C61.7547 895.918 38.8947 924.15 23.7458 964.009C2.15966 1020.81 -53.1185 1075.57 -92.1975 1093.78C-96.9102 1095.98 -99.283 1101.57 -97.0441 1106.27C-75.2858 1151.87 -64.2194 1166.8 -24.1 1187.96C-23.5148 1188.27 -22.9923 1188.52 -22.3341 1188.58Z" fill="#E6E6E6"/>
<path d="M175.038 1015.3C176.654 992.121 150.271 951.479 121.023 944.908" stroke="#C2C5CC" stroke-width="3" stroke-linecap="round" stroke-linejoin="round"/>
</g>
<defs>
<clipPath id="clip0_5319_2145">
<rect width="786" height="1704" fill="white"/>
</clipPath>
</defs>
</svg>
