<svg xmlns="http://www.w3.org/2000/svg" width="106" height="90" viewBox="0 0 106 90" fill="none">
    <path d="M74.8378 26.6808C77.2333 22.5614 83.1835 22.5614 85.579 26.6808L88.7023 32.0519C89.2439 32.9833 90.0185 33.7578 90.9498 34.2994L96.3209 37.4227C100.44 39.8182 100.44 45.7684 96.3209 48.164L90.9498 51.2873C90.0185 51.8289 89.2439 52.6034 88.7023 53.5348L85.579 58.9058C83.1835 63.0253 77.2333 63.0253 74.8378 58.9058L71.7144 53.5348C71.1728 52.6034 70.3983 51.8289 69.4669 51.2873L64.0959 48.1639C59.9765 45.7684 59.9765 39.8182 64.0959 37.4227L69.4669 34.2994C70.3983 33.7578 71.1728 32.9833 71.7144 32.0519L74.8378 26.6808Z" fill="#EDF3FF" stroke="#191919" stroke-width="2"/>
    <path d="M44.1061 7.25835C45.4089 4.4134 49.4511 4.4134 50.7539 7.25834L59.6659 26.7192C59.9236 27.282 60.3201 27.7702 60.8181 28.138L77.7933 40.673C79.7722 42.1343 79.7722 45.0936 77.7933 46.5549L60.8181 59.09C60.3201 59.4577 59.9236 59.9459 59.6659 60.5087L50.7539 79.9696C49.4511 82.8145 45.4089 82.8145 44.1061 79.9696L35.1941 60.5087C34.9363 59.9459 34.5399 59.4577 34.0419 59.09L17.0667 46.5549C15.0878 45.0936 15.0878 42.1343 17.0667 40.673L34.0419 28.138C34.5399 27.7702 34.9363 27.282 35.1941 26.7192L44.1061 7.25835Z" fill="#FFAC23" stroke="#191919" stroke-width="2"/>
    <path d="M20.2244 46.5533C22.6072 42.3686 28.6392 42.3686 31.022 46.5533L34.2315 52.1899C34.7645 53.126 35.5317 53.9074 36.4579 54.4574L42.252 57.8985C46.3058 60.306 46.3058 66.1743 42.252 68.5818L36.4579 72.0229C35.5317 72.5729 34.7645 73.3544 34.2315 74.2905L31.022 79.927C28.6392 84.1118 22.6072 84.1117 20.2244 79.927L17.0149 74.2905C16.4819 73.3544 15.7147 72.5729 14.7885 72.0229L8.99438 68.5818C4.94063 66.1743 4.94063 60.306 8.99438 57.8985L14.7885 54.4574C15.7147 53.9074 16.4819 53.126 17.0149 52.1899L20.2244 46.5533Z" fill="#EDF3FF" stroke="#191919" stroke-width="2"/>
</svg>
