<svg width="21" height="21" viewBox="0 0 21 21" fill="none" xmlns="http://www.w3.org/2000/svg">
<g clip-path="url(#clip0_12_738)">
<path d="M17.5933 10.7447L8.84334 20.1197C8.75061 20.2186 8.62821 20.2848 8.49462 20.308C8.36102 20.3313 8.22347 20.3105 8.10273 20.2488C7.98199 20.1871 7.8846 20.0877 7.82527 19.9658C7.76593 19.8439 7.74787 19.7059 7.77381 19.5728L8.91912 13.8439L4.41677 12.1533C4.32008 12.1171 4.23385 12.0576 4.16579 11.9799C4.09773 11.9023 4.04996 11.809 4.02675 11.7084C4.00353 11.6078 4.0056 11.5031 4.03276 11.4035C4.05992 11.3039 4.11133 11.2125 4.1824 11.1377L12.9324 1.76265C13.0251 1.6637 13.1475 1.59758 13.2811 1.57429C13.4147 1.551 13.5523 1.57179 13.673 1.63353C13.7937 1.69527 13.8911 1.7946 13.9505 1.91654C14.0098 2.03849 14.0279 2.17642 14.0019 2.30953L12.8535 8.04468L17.3558 9.73297C17.4518 9.76938 17.5374 9.82887 17.6049 9.90619C17.6724 9.98351 17.7199 10.0763 17.743 10.1763C17.7662 10.2763 17.7644 10.3805 17.7377 10.4796C17.7111 10.5787 17.6604 10.6698 17.5902 10.7447H17.5933Z" fill="white"/>
</g>
<defs>
<clipPath id="clip0_12_738">
<rect width="20" height="20" fill="white" transform="translate(0.88623 0.943115)"/>
</clipPath>
</defs>
</svg>
