<svg width="116" height="205" viewBox="0 0 116 205" fill="none" xmlns="http://www.w3.org/2000/svg">
<path d="M54.9994 4.2045C56.0057 2.54923 58.4083 2.54923 59.4147 4.2045L61.0807 6.94494C61.3133 7.32747 61.6412 7.64301 62.0325 7.86062L64.6479 9.31544C66.4182 10.3001 66.4182 12.8464 64.6479 13.831L62.0325 15.2859C61.6412 15.5035 61.3133 15.819 61.0807 16.2015L59.4147 18.942C58.4083 20.5973 56.0057 20.5973 54.9994 18.942L53.3334 16.2015C53.1008 15.819 52.7728 15.5035 52.3816 15.2859L49.7661 13.831C47.9958 12.8464 47.9958 10.3001 49.7661 9.31544L52.3816 7.86062C52.7728 7.64301 53.1008 7.32747 53.3334 6.94494L54.9994 4.2045Z" fill="#FFC93E" stroke="#29292D" stroke-width="1.5"/>
<path d="M81.4102 180.845C82.6055 178.789 85.5745 178.789 86.7698 180.845L89.303 185.201C89.5733 185.666 89.9597 186.052 90.4245 186.322L94.7806 188.856C96.8361 190.051 96.8361 193.02 94.7806 194.215L90.4245 196.748C89.9597 197.019 89.5733 197.405 89.303 197.87L86.7698 202.226C85.5745 204.282 82.6055 204.282 81.4102 202.226L78.877 197.87C78.6067 197.405 78.2203 197.019 77.7555 196.748L73.3994 194.215C71.3439 193.02 71.3439 190.051 73.3994 188.856L77.7555 186.322C78.2203 186.052 78.6067 185.666 78.877 185.201L81.4102 180.845Z" fill="#FFC93E" stroke="#29292D" stroke-width="1.5"/>
<path d="M37.4622 102.129C38.0174 101.174 39.3966 101.174 39.9519 102.129L41.0894 104.085C41.2149 104.301 41.3944 104.48 41.6103 104.606L43.5664 105.744C44.5212 106.299 44.5212 107.678 43.5664 108.233L41.6103 109.371C41.3944 109.496 41.2149 109.676 41.0894 109.892L39.9519 111.848C39.3966 112.803 38.0174 112.803 37.4622 111.848L36.3247 109.892C36.1992 109.676 36.0197 109.496 35.8038 109.371L33.8477 108.233C32.8929 107.678 32.8929 106.299 33.8477 105.744L35.8038 104.606C36.0197 104.48 36.1992 104.301 36.3247 104.085L37.4622 102.129Z" fill="#FFC93E" stroke="#29292D" stroke-width="1.5"/>
</svg>
