<svg width="83" height="83" viewBox="0 0 83 83" fill="none" xmlns="http://www.w3.org/2000/svg">
<g clipPath="url(#clip0_5171_19600)">
<path fill-rule="evenodd" clip-rule="evenodd" d="M44.4643 0H38.5357V26.25L28.7023 1.91142L23.2054 4.1323L33.2936 29.1014L14.2511 10.059L10.059 14.2511L28.3103 32.5024L4.658 22.1685L2.2844 27.6012L27.3114 38.5357H0V44.4643H27.3113L2.28441 55.3988L4.658 60.8315L28.3103 50.4976L10.059 68.7489L14.2511 72.9408L33.2936 53.8985L23.2054 78.8678L28.7023 81.0885L38.5357 56.75V83H44.4643V56.75L54.2978 81.0885L59.7944 78.8678L49.7066 53.8985L68.7489 72.9408L72.9408 68.7489L54.6895 50.4976L78.342 60.8315L80.7154 55.3988L55.6889 44.4643H83V38.5357H55.6884L80.7154 27.6012L78.342 22.1685L54.6895 32.5024L72.9408 14.2511L68.7489 10.059L49.7066 29.1014L59.7944 4.1323L54.2978 1.91142L44.4643 26.25V0Z" fill="#222426"/>
</g>
<defs>
<clipPath id="clip0_5171_19600">
<rect width="83" height="83" fill="white"/>
</clipPath>
</defs>
</svg>
