<svg width="24" height="24" viewBox="0 0 24 24" fill="none" xmlns="http://www.w3.org/2000/svg">
<path d="M12 21.9824C17.5228 21.9824 22 17.5053 22 11.9824C22 6.45957 17.5228 1.98242 12 1.98242C6.47715 1.98242 2 6.45957 2 11.9824C2 17.5053 6.47715 21.9824 12 21.9824Z" fill="#627EEA"/>
<path d="M12.3115 4.48242V10.0262L16.9971 12.1199L12.3115 4.48242Z" fill="white" fill-opacity="0.602"/>
<path d="M12.3112 4.48242L7.625 12.1199L12.3112 10.0262V4.48242Z" fill="white"/>
<path d="M12.3115 15.7127V19.4796L17.0003 12.9927L12.3115 15.7127Z" fill="white" fill-opacity="0.602"/>
<path d="M12.3112 19.4796V15.7121L7.625 12.9927L12.3112 19.4796Z" fill="white"/>
<path d="M12.3115 14.8405L16.9971 12.1198L12.3115 10.0273V14.8405Z" fill="white" fill-opacity="0.2"/>
<path d="M7.625 12.1198L12.3112 14.8405V10.0273L7.625 12.1198Z" fill="white" fill-opacity="0.602"/>
</svg>
