<svg width="32" height="33" viewBox="0 0 32 33" fill="none" xmlns="http://www.w3.org/2000/svg">
<g clip-path="url(#clip0_1783_8136)">
<path d="M30.9388 22.1696L27.2501 7.62085C27.153 7.2421 26.9476 6.89988 26.6589 6.63612C26.3703 6.37235 26.011 6.1985 25.6251 6.13585L21.1176 5.39585C20.6207 5.31593 20.1118 5.42368 19.6899 5.69815C19.268 5.97261 18.9633 6.39418 18.8351 6.88085L18.8088 6.9871C18.7918 7.0546 18.7891 7.12491 18.8008 7.19353C18.8126 7.26214 18.8385 7.32754 18.877 7.38555C18.9155 7.44356 18.9656 7.4929 19.0243 7.5304C19.0829 7.56791 19.1488 7.59275 19.2176 7.60335C20.2519 7.75515 21.2723 7.99008 22.2688 8.30585C22.5179 8.38102 22.7292 8.54814 22.8596 8.7733C22.9901 8.99847 23.03 9.26483 22.9713 9.51835C22.9376 9.65046 22.8772 9.77428 22.7938 9.8822C22.7105 9.99011 22.606 10.0798 22.4867 10.1459C22.3674 10.2119 22.2358 10.2528 22.1001 10.2662C21.9644 10.2795 21.8274 10.2649 21.6976 10.2233C17.9998 9.08933 14.0478 9.08498 10.3476 10.2108C10.0972 10.295 9.82393 10.2796 9.58464 10.1676C9.34535 10.0556 9.15838 9.8558 9.06256 9.6096C9.01702 9.48327 8.99739 9.34906 9.00484 9.21497C9.01229 9.08089 9.04668 8.94968 9.10594 8.82917C9.1652 8.70866 9.24813 8.60132 9.34978 8.51356C9.45142 8.4258 9.5697 8.35941 9.69756 8.31835C10.7066 7.99696 11.7399 7.75785 12.7876 7.60335C12.8564 7.59275 12.9222 7.56791 12.9808 7.5304C13.0395 7.4929 13.0896 7.44356 13.1281 7.38555C13.1666 7.32754 13.1925 7.26214 13.2043 7.19353C13.216 7.12491 13.2133 7.0546 13.1963 6.9871L13.1701 6.88085C13.0417 6.39376 12.7366 5.97193 12.3142 5.69761C11.8917 5.42329 11.3822 5.31616 10.8851 5.3971L6.37506 6.1371C5.98928 6.19966 5.6301 6.37333 5.34149 6.63685C5.05287 6.90038 4.84735 7.24233 4.75006 7.62085L1.06131 22.1696C0.945653 22.6269 0.99599 23.1104 1.20337 23.5341C1.41074 23.9578 1.76171 24.2941 2.19381 24.4833L10.5688 28.1971C10.8206 28.3091 11.0927 28.3683 11.3683 28.3713C11.6438 28.3742 11.9171 28.3208 12.1713 28.2143C12.4254 28.1077 12.6551 27.9503 12.8462 27.7518C13.0373 27.5532 13.1858 27.3177 13.2826 27.0596L13.7188 25.8783C13.7448 25.8076 13.7545 25.7319 13.7471 25.6569C13.7397 25.5818 13.7154 25.5095 13.6761 25.4452C13.6368 25.3808 13.5835 25.3262 13.5201 25.2855C13.4567 25.2447 13.3849 25.2187 13.3101 25.2096C12.0957 25.0626 10.8977 24.8031 9.73131 24.4346C9.4832 24.3592 9.2729 24.1926 9.14277 23.9683C9.01264 23.7439 8.97237 23.4787 9.03006 23.2258C9.0635 23.0934 9.12373 22.9691 9.20704 22.8608C9.29035 22.7525 9.39498 22.6625 9.51445 22.5962C9.63392 22.5299 9.76572 22.4888 9.9017 22.4754C10.0377 22.462 10.175 22.4766 10.3051 22.5183C14.0167 23.655 17.9835 23.655 21.6951 22.5183C21.825 22.4768 21.9621 22.4623 22.0979 22.4757C22.2336 22.4891 22.3652 22.5301 22.4845 22.5963C22.6038 22.6624 22.7083 22.7523 22.7916 22.8604C22.8749 22.9684 22.9352 23.0924 22.9688 23.2246C23.0272 23.4776 22.9872 23.7433 22.857 23.968C22.7268 24.1927 22.5161 24.3594 22.2676 24.4346C21.1017 24.8032 19.904 25.0627 18.6901 25.2096C18.6152 25.2187 18.5434 25.2447 18.4801 25.2855C18.4167 25.3262 18.3633 25.3808 18.324 25.4452C18.2847 25.5095 18.2604 25.5818 18.2531 25.6569C18.2457 25.7319 18.2553 25.8076 18.2813 25.8783L18.7176 27.0596C18.8144 27.3175 18.963 27.553 19.1541 27.7514C19.3453 27.9499 19.575 28.1072 19.8291 28.2137C20.0832 28.3202 20.3564 28.3737 20.6319 28.3709C20.9074 28.368 21.1795 28.3089 21.4313 28.1971L29.8063 24.4833C30.2384 24.2941 30.5894 23.9578 30.7968 23.5341C31.0041 23.1104 31.0545 22.6269 30.9388 22.1696ZM11.5001 19.3708C11.2034 19.3708 10.9134 19.2829 10.6667 19.1181C10.42 18.9532 10.2278 18.719 10.1142 18.4449C10.0007 18.1708 9.97101 17.8692 10.0289 17.5782C10.0868 17.2872 10.2296 17.02 10.4394 16.8102C10.6492 16.6004 10.9165 16.4575 11.2074 16.3997C11.4984 16.3418 11.8 16.3715 12.0741 16.485C12.3482 16.5986 12.5824 16.7908 12.7473 17.0375C12.9121 17.2842 13.0001 17.5742 13.0001 17.8708C13.0001 18.2687 12.842 18.6502 12.5607 18.9315C12.2794 19.2128 11.8979 19.3708 11.5001 19.3708ZM20.5001 19.3708C20.2034 19.3708 19.9134 19.2829 19.6667 19.1181C19.42 18.9532 19.2278 18.719 19.1142 18.4449C19.0007 18.1708 18.971 17.8692 19.0289 17.5782C19.0868 17.2872 19.2296 17.02 19.4394 16.8102C19.6492 16.6004 19.9165 16.4575 20.2074 16.3997C20.4984 16.3418 20.8 16.3715 21.0741 16.485C21.3482 16.5986 21.5824 16.7908 21.7473 17.0375C21.9121 17.2842 22.0001 17.5742 22.0001 17.8708C22.0001 18.2687 21.842 18.6502 21.5607 18.9315C21.2794 19.2128 20.8979 19.3708 20.5001 19.3708Z" fill="#676B73"/>
</g>
<defs>
<clipPath id="clip0_1783_8136">
<rect width="32" height="32" fill="white" transform="translate(0 0.371094)"/>
</clipPath>
</defs>
</svg>
