<svg width="32" height="33" viewBox="0 0 32 33" fill="none" xmlns="http://www.w3.org/2000/svg">
<g clip-path="url(#clip0_1783_8139)">
<path d="M27 3.37109H5C4.46957 3.37109 3.96086 3.58181 3.58579 3.95688C3.21071 4.33195 3 4.84066 3 5.37109V27.3711C3 27.9015 3.21071 28.4102 3.58579 28.7853C3.96086 29.1604 4.46957 29.3711 5 29.3711H27C27.5304 29.3711 28.0391 29.1604 28.4142 28.7853C28.7893 28.4102 29 27.9015 29 27.3711V5.37109C29 4.84066 28.7893 4.33195 28.4142 3.95688C28.0391 3.58181 27.5304 3.37109 27 3.37109ZM12 22.3711C12 22.6363 11.8946 22.8907 11.7071 23.0782C11.5196 23.2657 11.2652 23.3711 11 23.3711C10.7348 23.3711 10.4804 23.2657 10.2929 23.0782C10.1054 22.8907 10 22.6363 10 22.3711V14.3711C10 14.1059 10.1054 13.8515 10.2929 13.664C10.4804 13.4765 10.7348 13.3711 11 13.3711C11.2652 13.3711 11.5196 13.4765 11.7071 13.664C11.8946 13.8515 12 14.1059 12 14.3711V22.3711ZM11 12.3711C10.7033 12.3711 10.4133 12.2831 10.1666 12.1183C9.91997 11.9535 9.72771 11.7192 9.61418 11.4451C9.50065 11.171 9.47094 10.8694 9.52882 10.5785C9.5867 10.2875 9.72956 10.0202 9.93934 9.81043C10.1491 9.60065 10.4164 9.45779 10.7074 9.39992C10.9983 9.34204 11.2999 9.37174 11.574 9.48527C11.8481 9.59881 12.0824 9.79107 12.2472 10.0377C12.412 10.2844 12.5 10.5744 12.5 10.8711C12.5 11.2689 12.342 11.6504 12.0607 11.9318C11.7794 12.2131 11.3978 12.3711 11 12.3711ZM23 22.3711C23 22.6363 22.8946 22.8907 22.7071 23.0782C22.5196 23.2657 22.2652 23.3711 22 23.3711C21.7348 23.3711 21.4804 23.2657 21.2929 23.0782C21.1054 22.8907 21 22.6363 21 22.3711V17.8711C21 17.2081 20.7366 16.5722 20.2678 16.1033C19.7989 15.6345 19.163 15.3711 18.5 15.3711C17.837 15.3711 17.2011 15.6345 16.7322 16.1033C16.2634 16.5722 16 17.2081 16 17.8711V22.3711C16 22.6363 15.8946 22.8907 15.7071 23.0782C15.5196 23.2657 15.2652 23.3711 15 23.3711C14.7348 23.3711 14.4804 23.2657 14.2929 23.0782C14.1054 22.8907 14 22.6363 14 22.3711V14.3711C14.0012 14.1262 14.0923 13.8902 14.256 13.7079C14.4197 13.5257 14.6446 13.4099 14.888 13.3825C15.1314 13.355 15.3764 13.4179 15.5765 13.5591C15.7767 13.7003 15.918 13.9101 15.9738 14.1486C16.6502 13.6897 17.4389 13.4237 18.2552 13.3792C19.0714 13.3348 19.8844 13.5135 20.6067 13.8962C21.329 14.2789 21.9335 14.8511 22.3551 15.5514C22.7768 16.2517 22.9997 17.0536 23 17.8711V22.3711Z" fill="#676B73"/>
</g>
<defs>
<clipPath id="clip0_1783_8139">
<rect width="32" height="32" fill="white" transform="translate(0 0.371094)"/>
</clipPath>
</defs>
</svg>
