<svg width="32" height="33" viewBox="0 0 32 33" fill="none" xmlns="http://www.w3.org/2000/svg">
<g clip-path="url(#clip0_1783_8132)">
<path d="M17 16.3711C17 17.9533 16.5308 19.5001 15.6518 20.8157C14.7727 22.1312 13.5233 23.1566 12.0615 23.7621C10.5997 24.3676 8.99113 24.5261 7.43928 24.2174C5.88743 23.9087 4.46197 23.1468 3.34315 22.0279C2.22433 20.9091 1.4624 19.4837 1.15372 17.9318C0.84504 16.38 1.00347 14.7714 1.60897 13.3096C2.21447 11.8478 3.23985 10.5984 4.55544 9.71934C5.87103 8.84029 7.41775 8.37109 9 8.37109C11.121 8.37341 13.1545 9.21701 14.6543 10.7168C16.1541 12.2166 16.9977 14.2501 17 16.3711ZM23 8.37109C22.29 8.37109 20.95 8.71609 19.96 11.0273C19.3413 12.4711 19 14.3711 19 16.3711C19 18.3711 19.3413 20.2711 19.96 21.7148C20.95 24.0261 22.29 24.3711 23 24.3711C23.71 24.3711 25.05 24.0261 26.04 21.7148C26.6588 20.2711 27 18.3711 27 16.3711C27 14.3711 26.6588 12.4711 26.04 11.0273C25.05 8.71609 23.71 8.37109 23 8.37109ZM30 8.37109C29.7348 8.37109 29.4804 8.47645 29.2929 8.66399C29.1054 8.85152 29 9.10588 29 9.37109V23.3711C29 23.6363 29.1054 23.8907 29.2929 24.0782C29.4804 24.2657 29.7348 24.3711 30 24.3711C30.2652 24.3711 30.5196 24.2657 30.7071 24.0782C30.8946 23.8907 31 23.6363 31 23.3711V9.37109C31 9.10588 30.8946 8.85152 30.7071 8.66399C30.5196 8.47645 30.2652 8.37109 30 8.37109Z" fill="#676B73"/>
</g>
<defs>
<clipPath id="clip0_1783_8132">
<rect width="32" height="32" fill="white" transform="translate(0 0.371094)"/>
</clipPath>
</defs>
</svg>
