<svg width="32" height="33" viewBox="0 0 32 33" fill="none" xmlns="http://www.w3.org/2000/svg">
<g clip-path="url(#clip0_1783_8129)">
<path d="M30.9999 13.3712C30.9998 12.6046 30.7793 11.8543 30.3649 11.2095C29.9505 10.5647 29.3595 10.0525 28.6623 9.73391C27.9652 9.41535 27.1911 9.30381 26.4324 9.41257C25.6736 9.52134 24.9621 9.84583 24.3824 10.3474C22.2887 9.23492 19.7874 8.56242 17.1749 8.40617L17.8237 4.50992L20.0387 4.84992C20.1511 5.54863 20.5068 6.18512 21.0431 6.64689C21.5794 7.10866 22.2616 7.36598 22.9693 7.37337C23.6769 7.38076 24.3644 7.13775 24.9102 6.68728C25.456 6.23681 25.825 5.60789 25.952 4.91168C26.0789 4.21547 25.9556 3.49679 25.604 2.88267C25.2523 2.26856 24.6948 1.79854 24.0301 1.55569C23.3654 1.31285 22.6362 1.31281 21.9715 1.55559C21.3067 1.79837 20.7492 2.26834 20.3974 2.88242L17.1474 2.38242C16.8874 2.34233 16.6221 2.40631 16.409 2.56051C16.1958 2.7147 16.052 2.94668 16.0087 3.20617L15.1499 8.39117C12.4199 8.50867 9.79744 9.18867 7.61744 10.3474C6.82132 9.67488 5.79416 9.33961 4.75457 9.41297C3.71499 9.48633 2.74508 9.96252 2.0513 10.7402C1.35751 11.5179 0.99464 12.5356 1.03991 13.5768C1.08518 14.618 1.53503 15.6004 2.29369 16.3149C2.09926 16.983 2.00036 17.6753 1.99994 18.3712C1.99994 21.1124 3.49994 23.6649 6.23869 25.5574C8.85994 27.3712 12.3262 28.3712 15.9999 28.3712C19.6737 28.3712 23.1399 27.3712 25.7612 25.5574C28.4999 23.6649 29.9999 21.1124 29.9999 18.3712C29.9995 17.6753 29.9006 16.983 29.7062 16.3149C30.1128 15.9397 30.4376 15.4846 30.6602 14.978C30.8828 14.4715 30.9985 13.9245 30.9999 13.3712ZM22.9999 3.37117C23.1977 3.37117 23.3911 3.42982 23.5555 3.5397C23.72 3.64958 23.8481 3.80576 23.9238 3.98849C23.9995 4.17121 24.0193 4.37228 23.9807 4.56626C23.9421 4.76024 23.8469 4.93842 23.7071 5.07828C23.5672 5.21813 23.389 5.31337 23.195 5.35195C23.0011 5.39054 22.8 5.37074 22.6173 5.29505C22.4345 5.21936 22.2784 5.09119 22.1685 4.92674C22.0586 4.76229 21.9999 4.56895 21.9999 4.37117C21.9999 4.10595 22.1053 3.8516 22.2928 3.66406C22.4804 3.47653 22.7347 3.37117 22.9999 3.37117ZM8.99994 16.3712C8.99994 15.9756 9.11724 15.5889 9.337 15.26C9.55677 14.9311 9.86913 14.6748 10.2346 14.5234C10.6 14.372 11.0022 14.3324 11.3901 14.4096C11.7781 14.4868 12.1345 14.6773 12.4142 14.957C12.6939 15.2367 12.8843 15.593 12.9615 15.981C13.0387 16.369 12.9991 16.7711 12.8477 17.1365C12.6963 17.502 12.44 17.8143 12.1111 18.0341C11.7822 18.2539 11.3955 18.3712 10.9999 18.3712C10.4695 18.3712 9.9608 18.1605 9.58573 17.7854C9.21066 17.4103 8.99994 16.9016 8.99994 16.3712ZM20.4687 23.2549C19.0927 23.9862 17.5582 24.3686 15.9999 24.3686C14.4417 24.3686 12.9072 23.9862 11.5312 23.2549C11.4151 23.1934 11.3123 23.1095 11.2287 23.0083C11.145 22.907 11.0821 22.7902 11.0436 22.6646C11.005 22.539 10.9916 22.4071 11.0041 22.2763C11.0165 22.1455 11.0546 22.0185 11.1162 21.9024C11.1778 21.7864 11.2616 21.6836 11.3628 21.5999C11.4641 21.5162 11.5809 21.4533 11.7065 21.4148C11.8321 21.3763 11.964 21.3628 12.0948 21.3753C12.2256 21.3878 12.3526 21.4259 12.4687 21.4874C13.556 22.0655 14.7685 22.3678 15.9999 22.3678C17.2313 22.3678 18.4439 22.0655 19.5312 21.4874C19.6472 21.4259 19.7743 21.3878 19.9051 21.3753C20.0359 21.3628 20.1678 21.3763 20.2934 21.4148C20.419 21.4533 20.5358 21.5162 20.637 21.5999C20.7383 21.6836 20.8221 21.7864 20.8837 21.9024C20.9453 22.0185 20.9833 22.1455 20.9958 22.2763C21.0083 22.4071 20.9948 22.539 20.9563 22.6646C20.9178 22.7902 20.8549 22.907 20.7712 23.0083C20.6875 23.1095 20.5847 23.1934 20.4687 23.2549ZM20.9999 18.3712C20.6044 18.3712 20.2177 18.2539 19.8888 18.0341C19.5599 17.8143 19.3036 17.502 19.1522 17.1365C19.0008 16.7711 18.9612 16.369 19.0384 15.981C19.1155 15.593 19.306 15.2367 19.5857 14.957C19.8654 14.6773 20.2218 14.4868 20.6098 14.4096C20.9977 14.3324 21.3999 14.372 21.7653 14.5234C22.1308 14.6748 22.4431 14.9311 22.6629 15.26C22.8826 15.5889 22.9999 15.9756 22.9999 16.3712C22.9999 16.9016 22.7892 17.4103 22.4142 17.7854C22.0391 18.1605 21.5304 18.3712 20.9999 18.3712Z" fill="#676B73"/>
</g>
<defs>
<clipPath id="clip0_1783_8129">
<rect width="32" height="32" fill="white" transform="translate(0 0.371094)"/>
</clipPath>
</defs>
</svg>
