<svg width="32" height="33" viewBox="0 0 32 33" fill="none" xmlns="http://www.w3.org/2000/svg">
<g clip-path="url(#clip0_1783_8126)">
<path d="M29.6101 3.64461C29.4551 3.51082 29.2666 3.42185 29.0649 3.38726C28.8631 3.35268 28.6557 3.37381 28.4651 3.44836L3.13257 13.3621C2.77355 13.5017 2.4696 13.7542 2.26648 14.0815C2.06335 14.4088 1.97205 14.7932 2.00632 15.1769C2.04058 15.5606 2.19856 15.9227 2.45646 16.2089C2.71437 16.495 3.05825 16.6896 3.43632 16.7634L10.0001 18.0521V25.3709C9.99878 25.7695 10.1172 26.1594 10.3401 26.4899C10.563 26.8204 10.88 27.0764 11.2501 27.2246C11.6196 27.3755 12.0259 27.4117 12.4162 27.3286C12.8066 27.2454 13.1629 27.0467 13.4388 26.7584L16.6038 23.4759L21.6251 27.8709C21.9873 28.1922 22.4546 28.37 22.9388 28.3709C23.151 28.3707 23.3619 28.3374 23.5638 28.2721C23.8938 28.1674 24.1905 27.9781 24.4245 27.7231C24.6585 27.468 24.8216 27.1561 24.8976 26.8184L29.9713 4.74586C30.0167 4.5468 30.0071 4.33914 29.9434 4.14514C29.8798 3.95114 29.7646 3.77812 29.6101 3.64461ZM22.9413 26.3709L12.6063 17.3084L27.4813 6.64711L22.9413 26.3709Z" fill="#676B73"/>
</g>
<defs>
<clipPath id="clip0_1783_8126">
<rect width="32" height="32" fill="white" transform="translate(0 0.371094)"/>
</clipPath>
</defs>
</svg>
