<svg width="32" height="33" viewBox="0 0 32 33" fill="none" xmlns="http://www.w3.org/2000/svg">
<g clip-path="url(#clip0_1783_8123)">
<path d="M30.7076 10.0787L26.9701 13.8162C26.2151 22.5687 18.8338 29.3712 10.0001 29.3712C8.18506 29.3712 6.68881 29.0837 5.55256 28.5162C4.63631 28.0574 4.26131 27.5662 4.16756 27.4262C4.08397 27.3008 4.02978 27.1582 4.00906 27.0089C3.98834 26.8597 4.00161 26.7077 4.04789 26.5643C4.09417 26.4209 4.17225 26.2898 4.27631 26.1808C4.38036 26.0718 4.5077 25.9878 4.64881 25.9349C4.68131 25.9224 7.67881 24.7712 9.58256 22.5799C8.52679 21.7119 7.60516 20.6925 6.84756 19.5549C5.29756 17.2537 3.56256 13.2562 4.09756 7.28242C4.11452 7.0926 4.18536 6.91158 4.30175 6.76068C4.41814 6.60977 4.57523 6.49527 4.75451 6.43065C4.93379 6.36603 5.12781 6.35398 5.31371 6.39593C5.49961 6.43788 5.66965 6.53207 5.80381 6.66742C5.84756 6.71117 9.96381 10.8049 14.9963 12.1324V11.3712C14.9944 10.5729 15.1522 9.78234 15.4605 9.04601C15.7688 8.30968 16.2213 7.64247 16.7913 7.08367C17.3449 6.53083 18.0037 6.09447 18.7287 5.80035C19.4537 5.50623 20.2302 5.3603 21.0126 5.37117C22.062 5.38152 23.0909 5.66324 23.9993 6.18893C24.9076 6.71462 25.6645 7.4664 26.1963 8.37117H30.0001C30.198 8.37102 30.3915 8.42958 30.556 8.53945C30.7206 8.64932 30.8489 8.80556 30.9247 8.98838C31.0004 9.1712 31.0202 9.37239 30.9816 9.56648C30.9429 9.76056 30.8476 9.93882 30.7076 10.0787Z" fill="#676B73"/>
</g>
<defs>
<clipPath id="clip0_1783_8123">
<rect width="32" height="32" fill="white" transform="translate(0 0.371094)"/>
</clipPath>
</defs>
</svg>
