<svg width="28" height="23" viewBox="0 0 28 23" fill="none" xmlns="http://www.w3.org/2000/svg">
<path d="M27.2913 4.0611C27.1735 3.60028 26.9478 3.17407 26.6329 2.81764C26.318 2.4612 25.9228 2.18475 25.48 2.0111C21.195 0.356098 14.375 0.371099 14 0.371099C13.625 0.371099 6.805 0.356098 2.52 2.0111C2.0772 2.18475 1.68204 2.4612 1.36712 2.81764C1.05219 3.17407 0.826532 3.60028 0.70875 4.0611C0.385 5.3086 0 7.5886 0 11.3711C0 15.1536 0.385 17.4336 0.70875 18.6811C0.826356 19.1421 1.05194 19.5686 1.36687 19.9253C1.68181 20.2819 2.07706 20.5586 2.52 20.7323C6.625 22.3161 13.05 22.3711 13.9175 22.3711H14.0825C14.95 22.3711 21.3787 22.3161 25.48 20.7323C25.9229 20.5586 26.3182 20.2819 26.6331 19.9253C26.9481 19.5686 27.1736 19.1421 27.2913 18.6811C27.615 17.4311 28 15.1536 28 11.3711C28 7.5886 27.615 5.3086 27.2913 4.0611ZM18.2775 11.7873L12.2775 15.7873C12.2022 15.8376 12.1146 15.8665 12.0242 15.8708C11.9338 15.8752 11.8438 15.855 11.764 15.8122C11.6842 15.7695 11.6175 15.7059 11.571 15.6282C11.5245 15.5505 11.4999 15.4616 11.5 15.3711V7.3711C11.4999 7.28056 11.5245 7.1917 11.571 7.11401C11.6175 7.03631 11.6842 6.97271 11.764 6.92997C11.8438 6.88724 11.9338 6.86698 12.0242 6.87136C12.1146 6.87574 12.2022 6.9046 12.2775 6.95485L18.2775 10.9548C18.3461 11.0005 18.4023 11.0624 18.4412 11.135C18.4801 11.2076 18.5005 11.2887 18.5005 11.3711C18.5005 11.4535 18.4801 11.5346 18.4412 11.6072C18.4023 11.6798 18.3461 11.7417 18.2775 11.7873Z" fill="#676B73"/>
</svg>
