<svg width="408" height="408" viewBox="0 0 408 408" fill="none" xmlns="http://www.w3.org/2000/svg">
<g clip-path="url(#clip0_5069_7748)">
<g opacity="0.4">
<circle cx="248.833" cy="248.833" r="247.767" transform="matrix(-0.707106 -0.707108 0.707106 -0.707108 118.443 652.318)" stroke="#C9D9FF" stroke-width="2.13076"/>
<circle cx="124.416" cy="124.416" r="123.351" transform="matrix(-0.707106 -0.707108 0.707106 -0.707108 118.443 476.366)" stroke="#C9D9FF" stroke-width="2.13076"/>
<circle cx="186.624" cy="186.624" r="185.559" transform="matrix(-0.707106 -0.707108 0.707106 -0.707108 118.443 564.341)" stroke="#C9D9FF" stroke-width="2.13076"/>
<circle cx="62.2081" cy="62.2081" r="61.1428" transform="matrix(-0.707106 -0.707108 0.707106 -0.707108 118.443 388.391)" stroke="#C9D9FF" stroke-width="2.13076"/>
</g>
<g opacity="0.3">
<path d="M34.9692 100.776C34.9691 -36.062 145.898 -146.991 282.736 -146.991C419.574 -146.991 530.503 -36.062 530.503 100.776C530.503 237.614 419.574 348.544 282.736 348.544C145.898 348.544 34.9692 237.614 34.9692 100.776Z" stroke="#C9D9FF" stroke-width="2.13076"/>
<path d="M159.387 100.776C159.387 32.6515 214.613 -22.5746 282.738 -22.5747C350.863 -22.5747 406.089 32.6515 406.089 100.776C406.089 168.901 350.863 224.127 282.738 224.128C214.613 224.128 159.387 168.901 159.387 100.776Z" stroke="#C9D9FF" stroke-width="2.13076"/>
<path d="M97.1783 100.777C97.1783 -1.70419 180.256 -84.7819 282.737 -84.7819C385.218 -84.7819 468.296 -1.70422 468.296 100.777C468.296 203.259 385.218 286.337 282.737 286.337C180.256 286.337 97.1783 203.259 97.1783 100.777Z" stroke="#C9D9FF" stroke-width="2.13076"/>
<path d="M221.608 100.777C221.608 67.0091 248.983 39.6345 282.751 39.6345C316.519 39.6345 343.894 67.0091 343.894 100.777C343.894 134.546 316.519 161.92 282.751 161.92C248.983 161.92 221.608 134.546 221.608 100.777Z" stroke="#C9D9FF" stroke-width="2.13076"/>
</g>
<path d="M218.12 323.376C216.68 323.076 215.756 321.665 216.056 320.225L220.942 296.757C221.241 295.317 222.652 294.393 224.092 294.693C225.532 294.992 226.456 296.403 226.157 297.843L221.814 318.703L242.674 323.046C244.114 323.346 245.038 324.757 244.739 326.197C244.439 327.637 243.028 328.561 241.588 328.261L218.12 323.376ZM283.905 238.653C284.479 237.299 286.042 236.666 287.397 237.24C288.751 237.814 289.384 239.378 288.81 240.732L283.905 238.653ZM217.203 318.54C246.852 299.109 270.065 271.309 283.905 238.653L288.81 240.732C274.558 274.358 250.655 302.986 220.123 322.996L217.203 318.54Z" fill="black"/>
<path d="M205.603 263.238C205.603 310.351 167.411 348.543 120.298 348.543C73.1855 348.543 34.9931 310.351 34.9931 263.238C34.9931 216.125 73.1855 177.933 120.298 177.933C167.411 177.933 205.603 216.125 205.603 263.238Z" fill="#1A3D8D" stroke="#191919" stroke-width="2.13076"/>
<path d="M216.29 263.205C216.29 310.3 178.112 348.478 131.018 348.478C83.9229 348.478 45.7451 310.3 45.7451 263.205C45.7451 216.111 83.9229 177.933 131.018 177.933C178.112 177.933 216.29 216.111 216.29 263.205Z" fill="#457EFF" stroke="#191919" stroke-width="2.13076"/>
<path d="M133.695 200.198C137.858 194.938 145.839 194.938 150.002 200.198L160.146 213.018C162.532 216.034 166.172 217.786 170.017 217.772L186.365 217.71C193.074 217.685 198.05 223.924 196.532 230.459L192.834 246.383C191.964 250.129 192.863 254.067 195.272 257.065L205.513 269.808C209.716 275.037 207.94 282.818 201.885 285.705L187.129 292.743C183.658 294.398 181.139 297.557 180.298 301.309L176.72 317.261C175.252 323.806 168.062 327.269 162.029 324.336L147.327 317.187C143.868 315.506 139.829 315.506 136.37 317.187L121.668 324.336C115.635 327.269 108.444 323.806 106.976 317.261L103.399 301.309C102.557 297.557 100.039 294.398 96.5675 292.743L81.8118 285.705C75.7569 282.818 73.981 275.037 78.1833 269.808L88.4243 257.065C90.8334 254.067 91.7322 250.129 90.8623 246.383L87.1644 230.459C85.647 223.924 90.6231 217.685 97.3313 217.71L113.679 217.772C117.525 217.786 121.164 216.034 123.551 213.018L133.695 200.198Z" fill="#3568DD" stroke="#191919" stroke-width="2.13076"/>
<path d="M355.556 137.953C355.556 185.066 317.364 223.259 270.251 223.259C223.139 223.259 184.946 185.066 184.946 137.953C184.946 90.8404 223.139 52.6479 270.251 52.6479C317.364 52.6479 355.556 90.8404 355.556 137.953Z" fill="#7DA3F9" stroke="#191919" stroke-width="2.13076"/>
<path d="M366.251 137.921C366.251 185.015 328.073 223.193 280.979 223.193C233.884 223.193 195.706 185.015 195.706 137.921C195.706 90.8256 233.884 52.6477 280.979 52.6477C328.073 52.6477 366.251 90.8256 366.251 137.921Z" fill="#C9D9FF" stroke="#191919" stroke-width="2.13076"/>
<mask id="path-15-inside-1_5069_7748" fill="white">
<path fill-rule="evenodd" clip-rule="evenodd" d="M289.978 87.1797C279.354 75.3786 260.847 75.3786 250.223 87.1797L249.48 88.005L248.364 87.9465C232.507 87.1143 219.421 100.2 220.253 116.057L220.312 117.173L219.495 117.908C207.694 128.532 207.694 147.038 219.495 157.663L220.312 158.398L220.253 159.514C219.421 175.371 232.507 188.457 248.364 187.625L249.48 187.566L250.223 188.391C260.847 200.192 279.354 200.192 289.978 188.391L290.72 187.567L291.82 187.625C307.677 188.457 320.763 175.371 319.931 159.514L319.873 158.412L320.706 157.663C332.507 147.038 332.507 128.532 320.706 117.908L319.873 117.158L319.931 116.057C320.763 100.2 307.677 87.1143 291.82 87.9465L290.72 88.0042L289.978 87.1797Z"/>
</mask>
<path fill-rule="evenodd" clip-rule="evenodd" d="M289.978 87.1797C279.354 75.3786 260.847 75.3786 250.223 87.1797L249.48 88.005L248.364 87.9465C232.507 87.1143 219.421 100.2 220.253 116.057L220.312 117.173L219.495 117.908C207.694 128.532 207.694 147.038 219.495 157.663L220.312 158.398L220.253 159.514C219.421 175.371 232.507 188.457 248.364 187.625L249.48 187.566L250.223 188.391C260.847 200.192 279.354 200.192 289.978 188.391L290.72 187.567L291.82 187.625C307.677 188.457 320.763 175.371 319.931 159.514L319.873 158.412L320.706 157.663C332.507 147.038 332.507 128.532 320.706 117.908L319.873 117.158L319.931 116.057C320.763 100.2 307.677 87.1143 291.82 87.9465L290.72 88.0042L289.978 87.1797Z" fill="#A4BBF0"/>
<path d="M250.223 87.1797L251.807 88.6053L250.223 87.1797ZM289.978 87.1797L288.394 88.6053V88.6053L289.978 87.1797ZM249.48 88.005L249.368 90.1329L250.383 90.1861L251.064 89.4307L249.48 88.005ZM248.364 87.9465L248.476 85.8186V85.8186L248.364 87.9465ZM220.253 116.057L222.381 115.946L220.253 116.057ZM220.312 117.173L221.737 118.756L222.493 118.076L222.44 117.061L220.312 117.173ZM219.495 117.908L220.92 119.492L220.92 119.492L219.495 117.908ZM219.495 157.663L218.069 159.246H218.069L219.495 157.663ZM220.312 158.398L222.44 158.51L222.493 157.495L221.737 156.815L220.312 158.398ZM220.253 159.514L222.381 159.625L220.253 159.514ZM248.364 187.625L248.476 189.752H248.476L248.364 187.625ZM249.48 187.566L251.064 186.14L250.384 185.385L249.369 185.438L249.48 187.566ZM250.223 188.391L248.64 189.817V189.817L250.223 188.391ZM289.978 188.391L288.394 186.965L289.978 188.391ZM290.72 187.567L290.831 185.439L289.816 185.386L289.136 186.141L290.72 187.567ZM291.82 187.625L291.932 185.497H291.932L291.82 187.625ZM319.931 159.514L322.059 159.402L319.931 159.514ZM319.873 158.412L318.448 156.829L317.692 157.509L317.746 158.524L319.873 158.412ZM320.706 157.663L322.132 159.246L320.706 157.663ZM320.706 117.908L319.28 119.492V119.492L320.706 117.908ZM319.873 117.158L317.746 117.047L317.692 118.062L318.448 118.742L319.873 117.158ZM319.931 116.057L317.803 115.946L319.931 116.057ZM291.82 87.9465L291.709 85.8186L291.82 87.9465ZM290.72 88.0042L289.137 89.4299L289.817 90.1853L290.832 90.132L290.72 88.0042ZM251.807 88.6053C261.584 77.7444 278.616 77.7444 288.394 88.6053L291.561 85.754C280.091 73.0128 260.11 73.0128 248.64 85.754L251.807 88.6053ZM251.064 89.4307L251.807 88.6053L248.64 85.754L247.896 86.5794L251.064 89.4307ZM248.252 90.0743L249.368 90.1329L249.592 85.8772L248.476 85.8186L248.252 90.0743ZM222.381 115.946C221.615 101.352 233.659 89.3085 248.252 90.0743L248.476 85.8186C231.355 84.9202 217.227 99.0486 218.125 116.169L222.381 115.946ZM222.44 117.061L222.381 115.946L218.125 116.169L218.184 117.284L222.44 117.061ZM220.92 119.492L221.737 118.756L218.886 115.589L218.069 116.324L220.92 119.492ZM220.92 156.079C210.06 146.301 210.06 129.269 220.92 119.492L218.069 116.324C205.328 127.795 205.328 147.776 218.069 159.246L220.92 156.079ZM221.737 156.815L220.92 156.079L218.069 159.246L218.886 159.982L221.737 156.815ZM222.381 159.625L222.44 158.51L218.184 158.287L218.125 159.402L222.381 159.625ZM248.252 185.497C233.659 186.263 221.615 174.219 222.381 159.625L218.125 159.402C217.227 176.522 231.355 190.651 248.476 189.752L248.252 185.497ZM249.369 185.438L248.252 185.497L248.476 189.752L249.592 189.694L249.369 185.438ZM251.807 186.965L251.064 186.14L247.897 188.992L248.64 189.817L251.807 186.965ZM288.394 186.965C278.616 197.826 261.584 197.826 251.807 186.965L248.64 189.817C260.11 202.558 280.091 202.558 291.561 189.817L288.394 186.965ZM289.136 186.141L288.394 186.965L291.561 189.817L292.303 188.993L289.136 186.141ZM291.932 185.497L290.831 185.439L290.608 189.695L291.709 189.752L291.932 185.497ZM317.803 159.625C318.569 174.219 306.526 186.263 291.932 185.497L291.709 189.752C308.829 190.651 322.957 176.522 322.059 159.402L317.803 159.625ZM317.746 158.524L317.803 159.625L322.059 159.402L322.001 158.301L317.746 158.524ZM319.28 156.079L318.448 156.829L321.299 159.996L322.132 159.246L319.28 156.079ZM319.28 119.492C330.141 129.269 330.141 146.301 319.28 156.079L322.132 159.246C334.873 147.776 334.873 127.795 322.132 116.324L319.28 119.492ZM318.448 118.742L319.28 119.492L322.132 116.324L321.299 115.575L318.448 118.742ZM317.803 115.946L317.746 117.047L322.001 117.27L322.059 116.169L317.803 115.946ZM291.932 90.0743C306.526 89.3085 318.569 101.352 317.803 115.946L322.059 116.169C322.957 99.0486 308.829 84.9202 291.709 85.8186L291.932 90.0743ZM290.832 90.132L291.932 90.0743L291.709 85.8186L290.608 85.8764L290.832 90.132ZM288.394 88.6053L289.137 89.4299L292.304 86.5786L291.561 85.754L288.394 88.6053Z" fill="#191919" mask="url(#path-15-inside-1_5069_7748)"/>
<path d="M123.001 263.554C123.001 265.025 124.193 266.217 125.664 266.217C127.135 266.217 128.328 265.025 128.328 263.554H123.001ZM146.812 193.949L149.025 195.431L146.812 193.949ZM203.126 147.806L202.108 145.344L203.126 147.806ZM277.106 142.89C278.329 142.073 278.658 140.419 277.84 139.196L264.517 119.269C263.699 118.046 262.045 117.717 260.822 118.535C259.599 119.352 259.271 121.007 260.088 122.229L271.931 139.942L254.218 151.786C252.996 152.603 252.667 154.257 253.485 155.48C254.302 156.703 255.956 157.031 257.179 156.214L277.106 142.89ZM128.328 263.554C128.328 239.303 135.53 215.595 149.025 195.431L144.598 192.468C130.517 213.509 123.001 238.247 123.001 263.554H128.328ZM149.025 195.431C162.52 175.266 181.701 159.548 204.144 150.267L202.108 145.344C178.693 155.028 158.679 171.427 144.598 192.468L149.025 195.431ZM204.144 150.267C226.586 140.985 251.282 138.557 275.107 143.289L276.145 138.064C251.288 133.127 225.523 135.661 202.108 145.344L204.144 150.267Z" fill="black"/>
<path d="M353.316 163.348C355.299 159.937 360.226 159.937 362.21 163.348L363.173 165.005C363.622 165.776 364.263 166.417 365.034 166.866L366.691 167.829C370.102 169.813 370.102 174.739 366.691 176.723L365.034 177.686C364.263 178.135 363.622 178.776 363.173 179.547L362.21 181.204C360.226 184.615 355.299 184.615 353.316 181.204L352.352 179.547C351.904 178.776 351.263 178.135 350.491 177.686L348.834 176.723C345.424 174.739 345.424 169.813 348.834 167.829L350.491 166.866C351.263 166.417 351.904 165.776 352.352 165.005L353.316 163.348Z" fill="#EDF3FF" stroke="#191919" stroke-width="2.13076"/>
<path d="M331.885 182.528C333.716 178.517 339.414 178.517 341.245 182.528L343.685 187.874C344.046 188.666 344.603 189.353 345.302 189.871L351.848 194.72C354.624 196.777 354.624 200.93 351.848 202.987L345.302 207.836C344.603 208.354 344.046 209.041 343.685 209.833L341.245 215.179C339.414 219.19 333.716 219.19 331.885 215.179L329.445 209.833C329.084 209.041 328.527 208.354 327.828 207.836L321.282 202.987C318.507 200.93 318.507 196.777 321.282 194.72L327.828 189.871C328.527 189.353 329.084 188.666 329.445 187.874L331.885 182.528Z" fill="#A4BBF0" stroke="#191919" stroke-width="2.13076"/>
</g>
<defs>
<clipPath id="clip0_5069_7748">
<rect width="407.4" height="407.401" fill="white" transform="translate(0.5)"/>
</clipPath>
</defs>
</svg>
