<svg width="277" height="252" viewBox="0 0 277 252" fill="none" xmlns="http://www.w3.org/2000/svg">
<g clip-path="url(#clip0_5069_7781)">
<g opacity="0.3">
<circle cx="139.194" cy="48.8062" r="170.806" transform="rotate(180 139.194 48.8062)" stroke="#C9D9FF" stroke-width="2"/>
<circle cx="139.195" cy="48.806" r="84.903" transform="rotate(180 139.195 48.806)" stroke="#C9D9FF" stroke-width="2"/>
<circle cx="139.194" cy="48.8061" r="127.855" transform="rotate(180 139.194 48.8061)" stroke="#C9D9FF" stroke-width="2"/>
<circle cx="139.193" cy="48.8063" r="41.9515" transform="rotate(180 139.193 48.8063)" stroke="#C9D9FF" stroke-width="2"/>
</g>
<mask id="path-5-inside-1_5069_7781" fill="white">
<path fill-rule="evenodd" clip-rule="evenodd" d="M140.266 37C81.6222 37 34.082 84.5402 34.082 143.184V198.447H34.1427C36.0504 217.084 82.8334 232 140.266 232C197.699 232 244.482 217.084 246.39 198.447H246.45V197.316C246.45 197.299 246.45 197.281 246.45 197.263C246.45 197.245 246.45 197.228 246.45 197.21V143.184C246.45 84.5402 198.91 37 140.266 37Z"/>
</mask>
<path fill-rule="evenodd" clip-rule="evenodd" d="M140.266 37C81.6222 37 34.082 84.5402 34.082 143.184V198.447H34.1427C36.0504 217.084 82.8334 232 140.266 232C197.699 232 244.482 217.084 246.39 198.447H246.45V197.316C246.45 197.299 246.45 197.281 246.45 197.263C246.45 197.245 246.45 197.228 246.45 197.21V143.184C246.45 84.5402 198.91 37 140.266 37Z" fill="#C9D9FF"/>
<path d="M34.082 198.447H32.082V200.447H34.082V198.447ZM34.1427 198.447L36.1323 198.243L35.9484 196.447H34.1427V198.447ZM246.39 198.447V196.447H244.584L244.4 198.243L246.39 198.447ZM246.45 198.447V200.447H248.45V198.447H246.45ZM246.45 197.316L244.45 197.308V197.316H246.45ZM246.45 197.21H244.45L244.45 197.219L246.45 197.21ZM36.082 143.184C36.082 85.6448 82.7268 39 140.266 39V35C80.5177 35 32.082 83.4356 32.082 143.184H36.082ZM36.082 198.447V143.184H32.082V198.447H36.082ZM34.1427 196.447H34.082V200.447H34.1427V196.447ZM140.266 230C111.7 230 85.8588 226.288 66.9869 220.306C57.5424 217.312 49.9407 213.78 44.6257 209.932C39.2737 206.057 36.5248 202.078 36.1323 198.243L32.1531 198.651C32.7144 204.134 36.5288 209.008 42.28 213.172C48.0681 217.362 56.1094 221.054 65.7782 224.119C85.133 230.254 111.399 234 140.266 234V230ZM244.4 198.243C244.007 202.078 241.259 206.057 235.907 209.932C230.592 213.78 222.99 217.312 213.545 220.306C194.674 226.288 168.832 230 140.266 230V234C169.133 234 195.399 230.254 214.754 224.119C224.423 221.054 232.464 217.362 238.252 213.172C244.003 209.008 247.818 204.134 248.379 198.651L244.4 198.243ZM246.45 196.447H246.39V200.447H246.45V196.447ZM244.45 197.316V198.447H248.45V197.316H244.45ZM244.45 197.263C244.45 197.278 244.45 197.292 244.45 197.308L248.45 197.325C248.45 197.305 248.45 197.284 248.45 197.263H244.45ZM244.45 197.219C244.45 197.234 244.45 197.249 244.45 197.263H248.45C248.45 197.242 248.45 197.221 248.45 197.201L244.45 197.219ZM244.45 143.184V197.21H248.45V143.184H244.45ZM140.266 39C197.805 39 244.45 85.6448 244.45 143.184H248.45C248.45 83.4357 200.014 35 140.266 35V39Z" fill="#191919" mask="url(#path-5-inside-1_5069_7781)"/>
<path d="M245.448 197.263C245.448 201.613 242.753 205.924 237.492 209.993C232.244 214.052 224.587 217.751 215.037 220.875C195.946 227.121 169.51 231 140.264 231C111.018 231 84.582 227.121 65.4916 220.875C55.9409 217.751 48.2843 214.052 43.0363 209.993C37.7749 205.924 35.0801 201.613 35.0801 197.263C35.0801 192.913 37.7749 188.602 43.0363 184.533C48.2843 180.474 55.9409 176.775 65.4916 173.651C84.582 167.406 111.018 163.526 140.264 163.526C169.51 163.526 195.946 167.406 215.037 173.651C224.587 176.775 232.244 180.474 237.492 184.533C242.753 188.602 245.448 192.913 245.448 197.263Z" fill="#EDF3FF" stroke="#191919" stroke-width="2"/>
<circle cx="114.484" cy="132.847" r="43.3935" transform="rotate(-86.2353 114.484 132.847)" fill="#2A4FA2" stroke="#191919" stroke-width="2"/>
<circle cx="114.83" cy="127.344" r="43.3768" transform="rotate(-86.2353 114.83 127.344)" fill="#457EFF" stroke="#191919" stroke-width="2"/>
<path d="M103.262 160.031L102.611 160.789C101.856 160.14 101.764 159.031 102.349 158.26C104.75 155.092 106.526 151.777 107.719 148.425C112.153 135.961 108.611 122.743 98.5391 114.166C95.8297 111.859 92.6344 109.876 88.9709 108.334M103.262 160.031L88.9709 108.334M103.262 160.031L102.611 160.789L103.925 161.917C104.673 162.559 105.792 162.501 106.471 161.792L105.75 161.1M103.262 160.031L105.75 161.1M88.9709 108.334C88.0795 107.958 87.6044 106.951 87.9341 106.012M88.9709 108.334L87.9341 106.012M105.75 161.1L106.471 161.792L141.591 125.199C144.072 122.614 142.927 118.342 139.487 117.344L90.775 103.213C89.8323 102.94 88.8341 103.448 88.5076 104.378L87.9341 106.012L88.8776 106.343M105.75 161.1L88.8776 106.343M88.8776 106.343L87.9341 106.012M88.8776 106.343L87.9341 106.012" fill="white" stroke="#191919" stroke-width="2"/>
<circle cx="163.364" cy="161.639" r="43.3935" fill="#2A4FA2" stroke="#191919" stroke-width="2"/>
<circle cx="168.877" cy="161.623" r="43.3768" fill="#457EFF" stroke="#191919" stroke-width="2"/>
<path d="M150.664 189.263L149.839 189.827C149.278 189.005 149.476 187.909 150.24 187.316C153.379 184.878 155.952 182.135 157.972 179.206C165.481 168.314 165.481 154.63 157.972 143.739C155.952 140.809 153.379 138.067 150.24 135.628M150.664 189.263L150.24 135.628M150.664 189.263L149.839 189.827L150.816 191.256C151.372 192.07 152.468 192.303 153.308 191.795L152.79 190.939M150.664 189.263L152.79 190.939M150.24 135.628C149.476 135.035 149.278 133.939 149.839 133.118M150.24 135.628L149.839 133.118M152.79 190.939L153.308 191.795L196.702 165.538C199.767 163.684 199.767 159.26 196.702 157.406L153.308 131.149C152.468 130.641 151.372 130.874 150.816 131.688L149.839 133.118L150.665 133.682M152.79 190.939L150.665 133.682M150.665 133.682L149.839 133.118M150.665 133.682L149.839 133.118" fill="white" stroke="#191919" stroke-width="2"/>
<path d="M204.727 170.897C206.096 168.542 209.498 168.542 210.868 170.897L212.619 173.909C212.929 174.441 213.372 174.884 213.904 175.194L216.916 176.945C219.271 178.315 219.271 181.717 216.916 183.086L213.904 184.838C213.372 185.147 212.929 185.59 212.619 186.123L210.868 189.135C209.498 191.49 206.096 191.49 204.727 189.135L202.975 186.123C202.666 185.59 202.223 185.147 201.69 184.838L198.678 183.086C196.323 181.717 196.323 178.315 198.678 176.945L201.69 175.194C202.223 174.884 202.666 174.441 202.975 173.909L204.727 170.897Z" fill="#EDF3FF" stroke="#191919" stroke-width="2"/>
<path d="M31.5459 180.993C32.8099 178.224 36.744 178.224 38.008 180.993L41.0601 187.679C41.3097 188.226 41.6939 188.7 42.1768 189.058L49.0474 194.148C50.964 195.568 50.964 198.436 49.0474 199.856L42.1768 204.946C41.6939 205.304 41.3097 205.778 41.0601 206.325L38.008 213.011C36.744 215.781 32.8099 215.781 31.5459 213.011L28.4938 206.325C28.2443 205.778 27.86 205.304 27.3771 204.946L20.5065 199.856C18.5899 198.436 18.5899 195.568 20.5065 194.148L27.3771 189.058C27.86 188.7 28.2443 188.226 28.4938 187.679L31.5459 180.993Z" fill="#A4BBF0" stroke="#191919" stroke-width="2"/>
<path fill-rule="evenodd" clip-rule="evenodd" d="M196.533 79.0192C187.667 71.0385 177.244 64.9943 165.939 61.2544C163.328 60.3908 161.746 57.6748 162.458 55.0188C163.17 52.3628 165.905 50.7741 168.52 51.6221C181.34 55.7783 193.16 62.5858 203.195 71.6182C213.227 80.6476 221.22 91.6706 226.669 103.952C227.784 106.466 226.486 109.351 223.918 110.333C221.35 111.316 218.485 110.023 217.355 107.517C212.48 96.7057 205.395 86.9958 196.533 79.0192Z" fill="white"/>
<path fill-rule="evenodd" clip-rule="evenodd" d="M154.571 53.2508C154.105 55.9607 151.532 57.765 148.799 57.4565C144.778 57.0024 140.728 56.8318 136.682 56.9462C133.933 57.0239 131.52 55.0095 131.284 52.27C131.048 49.5305 133.078 47.1048 135.826 47.0107C140.722 46.8431 145.624 47.0495 150.488 47.6281C153.218 47.953 155.037 50.5408 154.571 53.2508Z" fill="white"/>
</g>
<defs>
<clipPath id="clip0_5069_7781">
<rect width="277" height="252" fill="white"/>
</clipPath>
</defs>
</svg>
