<svg width="822" height="232" viewBox="0 0 822 232" fill="none" xmlns="http://www.w3.org/2000/svg">
<rect x="556" y="1" width="230" height="230" rx="42.6706" fill="#3568DD" stroke="#0E0E0E" stroke-width="2"/>
<rect x="74" y="1" width="230" height="230" rx="115" fill="#3568DD" stroke="#0E0E0E" stroke-width="2"/>
<rect x="543" y="1" width="230" height="230" rx="42.6706" fill="#457EFF" stroke="#0E0E0E" stroke-width="2"/>
<rect x="555" y="13" width="206" height="206" rx="103" fill="#3568DD" stroke="#0E0E0E" stroke-width="2"/>
<rect x="294" y="1" width="230" height="230" rx="42.6706" fill="#E6E6E6" stroke="#191919" stroke-width="2"/>
<path d="M465.251 115.116L465.256 115.109L465.262 115.102C469.163 110.14 472.38 104.502 474.917 98.1936C477.651 91.8092 479 84.1768 479 75.3263C479 66.7791 477.39 59.0531 474.148 52.1676C470.911 45.1236 466.224 39.1914 460.096 34.3807C454.135 29.4023 446.836 25.6429 438.22 23.086C429.591 20.3564 419.805 19 408.875 19C387.174 19 370.047 24.4316 357.624 35.4168C345.17 46.2599 339 61.8056 339 81.8947V83.4316C339 85.0884 340.343 86.4316 342 86.4316H379.575C381.232 86.4316 382.575 85.0884 382.575 83.4316V81.8947C382.575 73.1569 385.021 66.8252 389.741 62.695C394.704 58.4992 401.055 56.3684 408.875 56.3684C416.9 56.3684 423.26 58.2669 428.049 61.97L428.057 61.9766L428.066 61.9829C432.783 65.4721 435.174 70.5416 435.174 77.3474C435.174 83.4511 434.03 88.675 431.782 93.0519C429.487 97.3493 426.617 101.404 423.168 105.216C419.691 108.89 415.88 112.483 411.735 115.995L411.727 116.001L411.719 116.008C407.669 119.583 403.875 123.58 400.336 127.999C396.763 132.291 393.794 137.26 391.423 142.897C389.02 148.609 387.838 155.485 387.838 163.495V165.032C387.838 166.688 389.182 168.032 390.838 168.032H424.156C425.813 168.032 427.156 166.688 427.156 165.032V164.505C427.156 159.104 428.371 154.495 430.76 150.637C433.386 146.499 436.589 142.604 440.375 138.951C444.198 135.263 448.271 131.573 452.595 127.882C457.154 124.134 461.372 119.878 465.251 115.116ZM390.838 175.632C389.182 175.632 387.838 176.975 387.838 178.632V210C387.838 211.657 389.182 213 390.838 213H424.156C425.813 213 427.156 211.657 427.156 210V178.632C427.156 176.975 425.813 175.632 424.156 175.632H390.838Z" fill="#FF7A00" stroke="#0E0E0E" stroke-width="2"/>
<path d="M121.588 41.4458L134.596 96.6946" stroke="#1D1D1D" stroke-width="2" stroke-linecap="round"/>
<path d="M257.18 41.4458L244.172 96.6946" stroke="#1D1D1D" stroke-width="2" stroke-linecap="round"/>
<path d="M189.385 37V94.1977" stroke="#1D1D1D" stroke-width="2" stroke-linecap="round"/>
<path d="M321.852 65.9106L286.455 105.874" stroke="#1D1D1D" stroke-width="2" stroke-linecap="round"/>
<path d="M55.8079 65.9106L92.346 105.874" stroke="#1D1D1D" stroke-width="2" stroke-linecap="round"/>
<path d="M376.658 96.4609L333.131 125.06" stroke="#1D1D1D" stroke-width="2" stroke-linecap="round"/>
<path d="M1 96.4609L44.5266 125.06" stroke="#1D1D1D" stroke-width="2" stroke-linecap="round"/>
<path d="M335.694 131.771C335.694 140.018 331.727 147.963 324.369 155.284C317.007 162.609 306.304 169.252 292.997 174.852C266.389 186.05 229.56 193 188.829 193C148.097 193 111.268 186.05 84.6599 174.852C71.3537 169.252 60.6504 162.609 53.2886 155.284C45.9306 147.963 41.9633 140.018 41.9633 131.771C41.9633 123.524 45.9306 115.579 53.2886 108.257C60.6504 100.933 71.3537 94.29 84.6599 88.6901C111.268 77.4919 148.097 70.5419 188.829 70.5419C229.56 70.5419 266.389 77.4919 292.997 88.6901C306.304 94.29 317.007 100.933 324.369 108.257C331.727 115.579 335.694 123.524 335.694 131.771Z" fill="white" stroke="#1D1D1D" stroke-width="2"/>
<circle cx="189.114" cy="132.056" r="51.8091" fill="#457EFF" stroke="#1D1D1D" stroke-width="2"/>
<circle cx="189.114" cy="132.056" r="17.5545" fill="#1D1D1D" stroke="#1D1D1D" stroke-width="2"/>
<path d="M537.762 78.5594C540.76 73.4034 548.207 73.4034 551.206 78.5594L561.644 96.51C562.322 97.6757 563.291 98.6451 564.457 99.323L582.408 109.762C587.564 112.76 587.564 120.207 582.408 123.206L564.457 133.644C563.291 134.322 562.322 135.291 561.644 136.457L551.206 154.408C548.207 159.564 540.76 159.564 537.762 154.408L527.323 136.457C526.645 135.291 525.676 134.322 524.51 133.644L506.559 123.206C501.403 120.207 501.403 112.76 506.559 109.762L524.51 99.323C525.676 98.6451 526.645 97.6757 527.323 96.51L537.762 78.5594Z" fill="white" stroke="#0E0E0E" stroke-width="2"/>
<path d="M651.762 78.5594C654.76 73.4034 662.207 73.4034 665.206 78.5594L675.644 96.51C676.322 97.6757 677.291 98.6451 678.457 99.323L696.408 109.762C701.564 112.76 701.564 120.207 696.408 123.206L678.457 133.644C677.291 134.322 676.322 135.291 675.644 136.457L665.206 154.408C662.207 159.564 654.76 159.564 651.762 154.408L641.323 136.457C640.645 135.291 639.676 134.322 638.51 133.644L620.559 123.206C615.403 120.207 615.403 112.76 620.559 109.762L638.51 99.323C639.676 98.6451 640.645 97.6757 641.323 96.51L651.762 78.5594Z" fill="white" stroke="#0E0E0E" stroke-width="2"/>
<path d="M765.762 78.5594C768.76 73.4034 776.207 73.4034 779.206 78.5594L789.644 96.51C790.322 97.6757 791.291 98.6451 792.457 99.323L810.408 109.762C815.564 112.76 815.564 120.207 810.408 123.206L792.457 133.644C791.291 134.322 790.322 135.291 789.644 136.457L779.206 154.408C776.207 159.564 768.76 159.564 765.762 154.408L755.323 136.457C754.645 135.291 753.676 134.322 752.51 133.644L734.559 123.206C729.403 120.207 729.403 112.76 734.559 109.762L752.51 99.323C753.676 98.6451 754.645 97.6757 755.323 96.51L765.762 78.5594Z" fill="white" stroke="#0E0E0E" stroke-width="2"/>
</svg>
