<svg width="186" height="186" viewBox="0 0 186 186" fill="none" xmlns="http://www.w3.org/2000/svg">
<g clip-path="url(#clip0_785_7867)">
<g opacity="0.4">
<circle cx="113.361" cy="113.361" r="112.876" transform="matrix(-0.707106 -0.707108 0.707106 -0.707108 53.7314 297.377)" stroke="#A0B9F0" stroke-width="0.970711"/>
<circle cx="56.6805" cy="56.6805" r="56.1951" transform="matrix(-0.707106 -0.707108 0.707106 -0.707108 53.7314 217.219)" stroke="#A0B9F0" stroke-width="0.970711"/>
<circle cx="85.0207" cy="85.0207" r="84.5354" transform="matrix(-0.707106 -0.707108 0.707106 -0.707108 53.7314 257.297)" stroke="#A0B9F0" stroke-width="0.970711"/>
<circle cx="28.3402" cy="28.3402" r="27.8549" transform="matrix(-0.707106 -0.707108 0.707106 -0.707108 53.7314 177.139)" stroke="#A0B9F0" stroke-width="0.970711"/>
</g>
<g opacity="0.3">
<path d="M15.7032 46.1106C15.7032 -16.229 66.2392 -66.7652 128.579 -66.7652C190.918 -66.7652 241.454 -16.229 241.454 46.1106C241.454 108.45 190.918 158.986 128.579 158.986C66.2392 158.986 15.7032 108.45 15.7032 46.1106Z" stroke="#A0B9F0" stroke-width="0.970711"/>
<path d="M72.3843 46.1106C72.3843 15.0748 97.5437 -10.0846 128.579 -10.0846C159.615 -10.0846 184.774 15.0748 184.774 46.1106C184.774 77.1463 159.615 102.306 128.579 102.306C97.5437 102.306 72.3843 77.1463 72.3843 46.1106Z" stroke="#A0B9F0" stroke-width="0.970711"/>
<path d="M44.0437 46.1111C44.0437 -0.576523 81.8914 -38.4244 128.579 -38.4244C175.267 -38.4244 213.114 -0.576538 213.114 46.1111C213.114 92.7988 175.267 130.647 128.579 130.647C81.8915 130.647 44.0437 92.7988 44.0437 46.1111Z" stroke="#A0B9F0" stroke-width="0.970711"/>
<path d="M100.731 46.111C100.731 30.7272 113.202 18.2561 128.586 18.2561C143.969 18.2561 156.44 30.7272 156.44 46.111C156.44 61.4949 143.969 73.9659 128.586 73.9659C113.202 73.9659 100.731 61.4949 100.731 46.111Z" stroke="#A0B9F0" stroke-width="0.970711"/>
</g>
<path d="M99.1414 147.52C98.4853 147.384 98.0642 146.741 98.2008 146.085L100.427 135.394C100.563 134.738 101.206 134.317 101.862 134.453C102.518 134.59 102.939 135.233 102.802 135.889L100.824 145.392L110.327 147.37C110.983 147.507 111.404 148.15 111.268 148.806C111.131 149.462 110.489 149.883 109.833 149.746L99.1414 147.52ZM129.111 108.924C129.372 108.307 130.085 108.018 130.702 108.28C131.319 108.541 131.607 109.253 131.345 109.871L129.111 108.924ZM98.7236 145.318C112.231 136.465 122.806 123.8 129.111 108.924L131.345 109.871C124.853 125.189 113.963 138.232 100.054 147.347L98.7236 145.318Z" fill="black"/>
<path d="M93.439 120.123C93.439 141.587 76.0396 158.986 54.5764 158.986C33.1132 158.986 15.7139 141.587 15.7139 120.123C15.7139 98.6601 33.1132 81.2607 54.5764 81.2607C76.0396 81.2607 93.439 98.6601 93.439 120.123Z" fill="#1A3D8D" stroke="#29292D" stroke-width="0.970711"/>
<path d="M98.3078 120.109C98.3078 141.564 80.9151 158.956 59.4601 158.956C38.005 158.956 20.6123 141.564 20.6123 120.109C20.6123 98.6535 38.005 81.2607 59.4601 81.2607C80.9151 81.2607 98.3078 98.6535 98.3078 120.109Z" fill="#457EFF" stroke="#29292D" stroke-width="0.970711"/>
<path d="M60.6799 91.4042C62.5763 89.0077 66.2122 89.0077 68.1086 91.4042L72.7301 97.2445C73.8173 98.6184 75.4753 99.4168 77.2273 99.4102L84.6749 99.3821C87.731 99.3706 89.9979 102.213 89.3067 105.19L87.622 112.445C87.2257 114.151 87.6352 115.945 88.7327 117.311L93.3982 123.116C95.3126 125.499 94.5036 129.043 91.7451 130.359L85.0229 133.565C83.4415 134.319 82.2942 135.758 81.9108 137.467L80.2809 144.735C79.6121 147.717 76.3362 149.294 73.5878 147.958L66.89 144.701C65.3143 143.935 63.4741 143.935 61.8985 144.701L55.2007 147.958C52.4522 149.294 49.1764 147.717 48.5076 144.735L46.8777 137.467C46.4943 135.758 45.347 134.319 43.7656 133.565L37.0433 130.359C34.2849 129.043 33.4758 125.499 35.3903 123.116L40.0558 117.311C41.1533 115.945 41.5628 114.151 41.1665 112.445L39.4818 105.19C38.7905 102.213 41.0575 99.3706 44.1136 99.3821L51.5612 99.4102C53.3132 99.4168 54.9712 98.6184 56.0583 97.2445L60.6799 91.4042Z" fill="#3568DD" stroke="#29292D" stroke-width="0.970711"/>
<path d="M161.753 63.0475C161.753 84.5107 144.354 101.91 122.891 101.91C101.428 101.91 84.0283 84.5107 84.0283 63.0475C84.0283 41.5842 101.428 24.1848 122.891 24.1848C144.354 24.1848 161.753 41.5842 161.753 63.0475Z" fill="#7DA3F9" stroke="#29292D" stroke-width="0.970711"/>
<path d="M166.626 63.0324C166.626 84.4875 149.233 101.88 127.778 101.88C106.323 101.88 88.9302 84.4875 88.9302 63.0324C88.9302 41.5774 106.323 24.1846 127.778 24.1846C149.233 24.1846 166.626 41.5774 166.626 63.0324Z" fill="#A0B9F0" stroke="#29292D" stroke-width="0.970711"/>
<mask id="path-15-inside-1_785_7867" fill="white">
<path fill-rule="evenodd" clip-rule="evenodd" d="M131.878 39.9165C127.038 34.5402 118.607 34.5402 113.767 39.9164L113.428 40.2925L112.92 40.2658C105.696 39.8867 99.7344 45.8482 100.114 53.0723L100.14 53.5803L99.768 53.9154C94.3918 58.7555 94.3918 67.1864 99.768 72.0265L100.14 72.3616L100.114 72.8698C99.7344 80.0938 105.696 86.0554 112.92 85.6763L113.429 85.6496L113.767 86.0254C118.607 91.4017 127.038 91.4017 131.878 86.0254L132.216 85.65L132.717 85.6763C139.941 86.0554 145.903 80.0938 145.524 72.8698L145.498 72.368L145.877 72.0265C151.253 67.1864 151.253 58.7555 145.877 53.9154L145.498 53.5739L145.524 53.0723C145.903 45.8482 139.941 39.8867 132.717 40.2658L132.216 40.2921L131.878 39.9165Z"/>
</mask>
<path fill-rule="evenodd" clip-rule="evenodd" d="M131.878 39.9165C127.038 34.5402 118.607 34.5402 113.767 39.9164L113.428 40.2925L112.92 40.2658C105.696 39.8867 99.7344 45.8482 100.114 53.0723L100.14 53.5803L99.768 53.9154C94.3918 58.7555 94.3918 67.1864 99.768 72.0265L100.14 72.3616L100.114 72.8698C99.7344 80.0938 105.696 86.0554 112.92 85.6763L113.429 85.6496L113.767 86.0254C118.607 91.4017 127.038 91.4017 131.878 86.0254L132.216 85.65L132.717 85.6763C139.941 86.0554 145.903 80.0938 145.524 72.8698L145.498 72.368L145.877 72.0265C151.253 67.1864 151.253 58.7555 145.877 53.9154L145.498 53.5739L145.524 53.0723C145.903 45.8482 139.941 39.8867 132.717 40.2658L132.216 40.2921L131.878 39.9165Z" fill="#A4BBF0"/>
<path d="M113.767 39.9164L114.488 40.5659V40.5659L113.767 39.9164ZM131.878 39.9165L132.599 39.267V39.267L131.878 39.9165ZM113.428 40.2925L113.378 41.2618L113.84 41.2861L114.15 40.942L113.428 40.2925ZM112.92 40.2658L112.869 41.2352H112.869L112.92 40.2658ZM100.114 53.0723L99.1441 53.1231L100.114 53.0723ZM100.14 53.5803L100.79 54.3018L101.134 53.9919L101.11 53.5295L100.14 53.5803ZM99.768 53.9154L99.1185 53.194H99.1185L99.768 53.9154ZM99.768 72.0265L99.1185 72.7479H99.1185L99.768 72.0265ZM100.14 72.3616L101.11 72.4124L101.134 71.95L100.79 71.6401L100.14 72.3616ZM100.114 72.8698L99.1441 72.8189L100.114 72.8698ZM112.92 85.6763L112.869 84.7069H112.869L112.92 85.6763ZM113.429 85.6496L114.15 85.0001L113.84 84.656L113.378 84.6802L113.429 85.6496ZM113.767 86.0254L114.488 85.376L114.488 85.376L113.767 86.0254ZM131.878 86.0254L132.599 86.6749L131.878 86.0254ZM132.216 85.65L132.267 84.6806L131.804 84.6563L131.495 85.0005L132.216 85.65ZM132.717 85.6763L132.667 86.6457H132.667L132.717 85.6763ZM145.524 72.8698L146.493 72.8189L145.524 72.8698ZM145.498 72.368L144.848 71.6466L144.504 71.9565L144.528 72.4189L145.498 72.368ZM145.877 72.0265L145.227 71.3051L145.877 72.0265ZM145.877 53.9154L145.227 54.6368L145.877 53.9154ZM145.498 53.5739L144.528 53.523L144.504 53.9855L144.848 54.2953L145.498 53.5739ZM145.524 53.0723L144.555 53.0214V53.0214L145.524 53.0723ZM132.717 40.2658L132.768 41.2352L132.717 40.2658ZM132.216 40.2921L131.495 40.9416L131.805 41.2857L132.267 41.2615L132.216 40.2921ZM114.488 40.5659C118.943 35.618 126.702 35.618 131.157 40.5659L132.599 39.267C127.374 33.4624 118.271 33.4624 113.045 39.267L114.488 40.5659ZM114.15 40.942L114.488 40.5659L113.045 39.267L112.707 39.643L114.15 40.942ZM112.869 41.2352L113.378 41.2618L113.479 39.3231L112.971 39.2964L112.869 41.2352ZM101.083 53.0214C100.734 46.3729 106.221 40.8863 112.869 41.2352L112.971 39.2964C105.171 38.8871 98.7348 45.3236 99.1441 53.1231L101.083 53.0214ZM101.11 53.5295L101.083 53.0214L99.1441 53.1231L99.1708 53.6312L101.11 53.5295ZM100.417 54.6368L100.79 54.3018L99.4907 52.8589L99.1185 53.194L100.417 54.6368ZM100.417 71.305C95.4696 66.8506 95.4696 59.0913 100.417 54.6368L99.1185 53.194C93.314 58.4197 93.314 67.5222 99.1185 72.7479L100.417 71.305ZM100.79 71.6401L100.417 71.305L99.1185 72.7479L99.4907 73.083L100.79 71.6401ZM101.083 72.9207L101.11 72.4124L99.1708 72.3107L99.1441 72.8189L101.083 72.9207ZM112.869 84.7069C106.221 85.0558 100.734 79.5692 101.083 72.9207L99.1441 72.8189C98.7349 80.6185 105.171 87.055 112.971 86.6457L112.869 84.7069ZM113.378 84.6802L112.869 84.7069L112.971 86.6457L113.479 86.619L113.378 84.6802ZM114.488 85.376L114.15 85.0001L112.707 86.2991L113.045 86.6749L114.488 85.376ZM131.157 85.376C126.702 90.3239 118.943 90.3239 114.488 85.376L113.045 86.6749C118.271 92.4795 127.374 92.4795 132.599 86.6749L131.157 85.376ZM131.495 85.0005L131.157 85.376L132.599 86.6749L132.937 86.2994L131.495 85.0005ZM132.768 84.7069L132.267 84.6806L132.165 86.6193L132.667 86.6457L132.768 84.7069ZM144.555 72.9207C144.903 79.5692 139.417 85.0558 132.768 84.7069L132.667 86.6457C140.466 87.055 146.903 80.6185 146.493 72.8189L144.555 72.9207ZM144.528 72.4189L144.555 72.9207L146.493 72.8189L146.467 72.3172L144.528 72.4189ZM145.227 71.3051L144.848 71.6466L146.147 73.0895L146.526 72.7479L145.227 71.3051ZM145.227 54.6368C150.175 59.0913 150.175 66.8506 145.227 71.3051L146.526 72.7479C152.331 67.5222 152.331 58.4197 146.526 53.194L145.227 54.6368ZM144.848 54.2953L145.227 54.6368L146.526 53.194L146.147 52.8525L144.848 54.2953ZM144.555 53.0214L144.528 53.523L146.467 53.6247L146.493 53.1231L144.555 53.0214ZM132.768 41.2352C139.417 40.8863 144.903 46.3729 144.555 53.0214L146.493 53.1231C146.903 45.3236 140.466 38.8871 132.667 39.2964L132.768 41.2352ZM132.267 41.2615L132.768 41.2352L132.667 39.2964L132.165 39.3227L132.267 41.2615ZM131.157 40.5659L131.495 40.9416L132.938 39.6426L132.599 39.267L131.157 40.5659Z" fill="#29292D" mask="url(#path-15-inside-1_785_7867)"/>
<path d="M55.8076 120.267C55.8076 120.938 56.3509 121.481 57.021 121.481C57.6911 121.481 58.2344 120.938 58.2344 120.267H55.8076ZM66.6552 88.5576L67.6636 89.2324L66.6552 88.5576ZM92.3104 67.5359L92.7741 68.6571L92.3104 67.5359ZM126.014 65.2966C126.571 64.9241 126.72 64.1706 126.348 63.6135L120.278 54.5352C119.906 53.9781 119.152 53.8285 118.595 54.201C118.038 54.5734 117.888 55.327 118.261 55.8841L123.656 63.9536L115.587 69.349C115.03 69.7215 114.88 70.4751 115.252 71.0321C115.625 71.5892 116.378 71.7389 116.936 71.3664L126.014 65.2966ZM58.2344 120.267C58.2344 109.219 61.5157 98.419 67.6636 89.2324L65.6468 87.8827C59.2317 97.4684 55.8076 108.738 55.8076 120.267H58.2344ZM67.6636 89.2324C73.8115 80.0459 82.5499 72.8855 92.7741 68.6571L91.8467 66.4146C81.1795 70.8261 72.0618 78.297 65.6468 87.8827L67.6636 89.2324ZM92.7741 68.6571C102.998 64.4288 114.249 63.3224 125.103 65.478L125.576 63.0977C114.252 60.8488 102.514 62.003 91.8467 66.4146L92.7741 68.6571Z" fill="black"/>
<path d="M160.733 74.6163C161.636 73.0624 163.881 73.0624 164.785 74.6163L165.224 75.3712C165.428 75.7225 165.72 76.0147 166.071 76.219L166.826 76.6579C168.38 77.5616 168.38 79.806 166.826 80.7096L166.071 81.1486C165.72 81.3529 165.428 81.6451 165.224 81.9964L164.785 82.7513C163.881 84.3052 161.636 84.3052 160.733 82.7513L160.294 81.9964C160.09 81.6451 159.797 81.3529 159.446 81.1486L158.691 80.7096C157.137 79.806 157.137 77.5616 158.691 76.6579L159.446 76.219C159.797 76.0147 160.09 75.7225 160.294 75.3712L160.733 74.6163Z" fill="#EDF3FF" stroke="#29292D" stroke-width="0.970711"/>
<path d="M150.97 83.3543C151.804 81.5272 154.4 81.5272 155.234 83.3543L156.345 85.7898C156.51 86.1505 156.764 86.4636 157.082 86.6997L160.064 88.9088C161.329 89.8457 161.329 91.738 160.064 92.6749L157.082 94.884C156.764 95.1201 156.51 95.4331 156.345 95.7939L155.234 98.2293C154.4 100.056 151.804 100.056 150.97 98.2293L149.858 95.7939C149.694 95.4331 149.44 95.1201 149.121 94.884L146.139 92.6749C144.875 91.738 144.875 89.8457 146.139 88.9088L149.121 86.6997C149.44 86.4636 149.694 86.1505 149.858 85.7898L150.97 83.3543Z" fill="#A4BBF0" stroke="#29292D" stroke-width="0.970711"/>
</g>
<defs>
<clipPath id="clip0_785_7867">
<rect width="185.6" height="185.6" fill="white" transform="translate(0 0.199829)"/>
</clipPath>
</defs>
</svg>
