<svg width="49" height="48" viewBox="0 0 49 48" fill="none" xmlns="http://www.w3.org/2000/svg">
<g clip-path="url(#clip0_1783_7579)">
<path d="M47.2588 32.6978L41.7257 10.8746C41.5801 10.3065 41.2719 9.79318 40.839 9.39753C40.406 9.00189 39.8671 8.74111 39.2882 8.64713L32.5269 7.53713C31.7816 7.41725 31.0183 7.57888 30.3855 7.99058C29.7527 8.40228 29.2956 9.03463 29.1032 9.76463L29.0638 9.92401C29.0383 10.0253 29.0342 10.1307 29.0519 10.2336C29.0695 10.3366 29.1084 10.4347 29.1661 10.5217C29.2238 10.6087 29.2991 10.6827 29.387 10.739C29.475 10.7952 29.5737 10.8325 29.6769 10.8484C31.2284 11.0761 32.759 11.4285 34.2538 11.9021C34.6275 12.0149 34.9443 12.2656 35.14 12.6033C35.3357 12.9411 35.3956 13.3406 35.3076 13.7209C35.257 13.9191 35.1664 14.1048 35.0413 14.2667C34.9163 14.4285 34.7595 14.5631 34.5806 14.6622C34.4016 14.7612 34.2043 14.8226 34.0008 14.8426C33.7972 14.8626 33.5917 14.8407 33.3969 14.7784C27.8504 13.0774 21.9222 13.0708 16.3719 14.7596C15.9963 14.8859 15.5865 14.8627 15.2275 14.6947C14.8686 14.5268 14.5882 14.2271 14.4444 13.8578C14.3761 13.6683 14.3467 13.4669 14.3579 13.2658C14.369 13.0647 14.4206 12.8679 14.5095 12.6871C14.5984 12.5064 14.7228 12.3453 14.8752 12.2137C15.0277 12.0821 15.2051 11.9825 15.3969 11.9209C16.9104 11.4388 18.4605 11.0801 20.0319 10.8484C20.1351 10.8325 20.2339 10.7952 20.3218 10.739C20.4098 10.6827 20.4851 10.6087 20.5428 10.5217C20.6005 10.4347 20.6394 10.3366 20.657 10.2336C20.6746 10.1307 20.6706 10.0253 20.6451 9.92401L20.6057 9.76463C20.4132 9.034 19.9555 8.40126 19.3218 7.98978C18.6881 7.5783 17.9239 7.4176 17.1782 7.53901L10.4132 8.64901C9.8345 8.74285 9.29573 9.00335 8.86282 9.39864C8.4299 9.79393 8.12161 10.3069 7.97568 10.8746L2.44255 32.6978C2.26907 33.3837 2.34457 34.109 2.65564 34.7445C2.9667 35.38 3.49315 35.8846 4.1413 36.1684L16.7038 41.739C17.0815 41.9069 17.4896 41.9959 17.903 42.0003C18.3164 42.0047 18.7263 41.9246 19.1075 41.7648C19.4888 41.6049 19.8333 41.3689 20.12 41.071C20.4066 40.7732 20.6293 40.4198 20.7744 40.0328L21.4288 38.2609C21.4678 38.1548 21.4823 38.0412 21.4712 37.9287C21.4601 37.8161 21.4237 37.7076 21.3647 37.6111C21.3058 37.5146 21.2258 37.4327 21.1307 37.3715C21.0356 37.3104 20.9279 37.2715 20.8157 37.2578C18.9942 37.0372 17.1971 36.648 15.4476 36.0953C15.0754 35.9822 14.7599 35.7322 14.5647 35.3957C14.3696 35.0593 14.3091 34.6614 14.3957 34.2821C14.4458 34.0834 14.5362 33.8971 14.6612 33.7346C14.7861 33.5722 14.9431 33.4371 15.1223 33.3376C15.3015 33.2382 15.4992 33.1765 15.7031 33.1564C15.9071 33.1364 16.113 33.1583 16.3082 33.2209C21.8756 34.9259 27.8258 34.9259 33.3932 33.2209C33.5881 33.1586 33.7937 33.1368 33.9974 33.1569C34.201 33.177 34.3984 33.2386 34.5774 33.3378C34.7563 33.437 34.9131 33.5718 35.038 33.7339C35.163 33.896 35.2534 34.0819 35.3038 34.2803C35.3913 34.6598 35.3314 35.0584 35.1361 35.3954C34.9408 35.7323 34.6247 35.9825 34.2519 36.0953C32.5031 36.6482 30.7066 37.0374 28.8857 37.2578C28.7734 37.2715 28.6658 37.3104 28.5707 37.3715C28.4756 37.4327 28.3956 37.5146 28.3366 37.6111C28.2776 37.7076 28.2413 37.8161 28.2302 37.9287C28.2191 38.0412 28.2336 38.1548 28.2726 38.2609L28.9269 40.0328C29.0723 40.4197 29.2951 40.7728 29.5818 41.0705C29.8685 41.3682 30.213 41.6042 30.5942 41.764C30.9754 41.9237 31.3852 42.0039 31.7985 41.9996C32.2117 41.9954 32.6198 41.9067 32.9976 41.739L45.5601 36.1684C46.2082 35.8846 46.7347 35.38 47.0457 34.7445C47.3568 34.109 47.4323 33.3837 47.2588 32.6978ZM18.1007 28.4996C17.6557 28.4996 17.2207 28.3677 16.8506 28.1204C16.4806 27.8732 16.1922 27.5218 16.022 27.1107C15.8517 26.6995 15.8071 26.2471 15.8939 25.8107C15.9807 25.3742 16.195 24.9733 16.5097 24.6586C16.8244 24.344 17.2253 24.1297 17.6617 24.0429C18.0982 23.9561 18.5506 24.0006 18.9617 24.1709C19.3729 24.3412 19.7243 24.6296 19.9715 24.9996C20.2187 25.3696 20.3507 25.8046 20.3507 26.2496C20.3507 26.8464 20.1136 27.4187 19.6917 27.8406C19.2697 28.2626 18.6974 28.4996 18.1007 28.4996ZM31.6007 28.4996C31.1557 28.4996 30.7207 28.3677 30.3507 28.1204C29.9806 27.8732 29.6923 27.5218 29.522 27.1107C29.3517 26.6995 29.3071 26.2471 29.3939 25.8107C29.4807 25.3742 29.695 24.9733 30.0097 24.6586C30.3244 24.344 30.7253 24.1297 31.1617 24.0429C31.5982 23.9561 32.0506 24.0006 32.4617 24.1709C32.8729 24.3412 33.2243 24.6296 33.4715 24.9996C33.7187 25.3696 33.8507 25.8046 33.8507 26.2496C33.8507 26.8464 33.6136 27.4187 33.1917 27.8406C32.7697 28.2626 32.1974 28.4996 31.6007 28.4996Z" fill="white" fill-opacity="0.4"/>
</g>
<defs>
<clipPath id="clip0_1783_7579">
<rect width="48" height="48" fill="white" transform="translate(0.850586 -0.000488281)"/>
</clipPath>
</defs>
</svg>
