<svg width="49" height="48" viewBox="0 0 49 48" fill="none" xmlns="http://www.w3.org/2000/svg">
<g clip-path="url(#clip0_1783_7611)">
<path d="M40.8193 4.5H7.81934C7.02369 4.5 6.26062 4.81607 5.69802 5.37868C5.13541 5.94129 4.81934 6.70435 4.81934 7.5V40.5C4.81934 41.2957 5.13541 42.0587 5.69802 42.6213C6.26062 43.1839 7.02369 43.5 7.81934 43.5H40.8193C41.615 43.5 42.378 43.1839 42.9407 42.6213C43.5033 42.0587 43.8193 41.2957 43.8193 40.5V7.5C43.8193 6.70435 43.5033 5.94129 42.9407 5.37868C42.378 4.81607 41.615 4.5 40.8193 4.5ZM18.3193 33C18.3193 33.3978 18.1613 33.7794 17.88 34.0607C17.5987 34.342 17.2172 34.5 16.8193 34.5C16.4215 34.5 16.04 34.342 15.7587 34.0607C15.4774 33.7794 15.3193 33.3978 15.3193 33V21C15.3193 20.6022 15.4774 20.2206 15.7587 19.9393C16.04 19.658 16.4215 19.5 16.8193 19.5C17.2172 19.5 17.5987 19.658 17.88 19.9393C18.1613 20.2206 18.3193 20.6022 18.3193 21V33ZM16.8193 18C16.3743 18 15.9393 17.868 15.5693 17.6208C15.1993 17.3736 14.9109 17.0222 14.7406 16.611C14.5703 16.1999 14.5258 15.7475 14.6126 15.311C14.6994 14.8746 14.9137 14.4737 15.2283 14.159C15.543 13.8443 15.9439 13.63 16.3804 13.5432C16.8168 13.4564 17.2692 13.501 17.6804 13.6713C18.0915 13.8416 18.4429 14.13 18.6901 14.5C18.9374 14.87 19.0693 15.305 19.0693 15.75C19.0693 16.3467 18.8323 16.919 18.4103 17.341C17.9884 17.7629 17.4161 18 16.8193 18ZM34.8193 33C34.8193 33.3978 34.6613 33.7794 34.38 34.0607C34.0987 34.342 33.7172 34.5 33.3193 34.5C32.9215 34.5 32.54 34.342 32.2587 34.0607C31.9774 33.7794 31.8193 33.3978 31.8193 33V26.25C31.8193 25.2554 31.4242 24.3016 30.721 23.5984C30.0177 22.8951 29.0639 22.5 28.0693 22.5C27.0748 22.5 26.1209 22.8951 25.4177 23.5984C24.7144 24.3016 24.3193 25.2554 24.3193 26.25V33C24.3193 33.3978 24.1613 33.7794 23.88 34.0607C23.5987 34.342 23.2172 34.5 22.8193 34.5C22.4215 34.5 22.04 34.342 21.7587 34.0607C21.4774 33.7794 21.3193 33.3978 21.3193 33V21C21.3212 20.6326 21.4578 20.2786 21.7034 20.0053C21.9489 19.7319 22.2862 19.5582 22.6513 19.517C23.0164 19.4759 23.3839 19.5702 23.6841 19.782C23.9843 19.9938 24.1963 20.3085 24.28 20.6663C25.2947 19.9779 26.4777 19.5789 27.7021 19.5122C28.9265 19.4455 30.1459 19.7136 31.2294 20.2876C32.3129 20.8617 33.2196 21.72 33.8521 22.7705C34.4845 23.8209 34.8189 25.0238 34.8193 26.25V33Z" fill="white" fill-opacity="0.4"/>
</g>
<defs>
<clipPath id="clip0_1783_7611">
<rect width="48" height="48" fill="white" transform="translate(0.319336)"/>
</clipPath>
</defs>
</svg>
