<svg width="49" height="48" viewBox="0 0 49 48" fill="none" xmlns="http://www.w3.org/2000/svg">
<g clip-path="url(#clip0_1783_7599)">
<path d="M26.3506 24C26.3506 26.3734 25.6468 28.6935 24.3282 30.6668C23.0097 32.6402 21.1355 34.1783 18.9428 35.0866C16.7501 35.9948 14.3373 36.2325 12.0095 35.7694C9.68174 35.3064 7.54354 34.1635 5.86531 32.4853C4.18708 30.8071 3.04419 28.6689 2.58117 26.3411C2.11815 24.0133 2.35579 21.6005 3.26404 19.4078C4.17229 17.2151 5.71036 15.3409 7.68375 14.0224C9.65714 12.7038 11.9772 12 14.3506 12C17.5321 12.0035 20.5824 13.2689 22.832 15.5186C25.0817 17.7682 26.3471 20.8185 26.3506 24ZM35.3506 12C34.2856 12 32.2756 12.5175 30.7906 15.9844C29.8625 18.15 29.3506 21 29.3506 24C29.3506 27 29.8625 29.85 30.7906 32.0156C32.2756 35.4825 34.2856 36 35.3506 36C36.4156 36 38.4256 35.4825 39.9106 32.0156C40.8387 29.85 41.3506 27 41.3506 24C41.3506 21 40.8387 18.15 39.9106 15.9844C38.4256 12.5175 36.4156 12 35.3506 12ZM45.8506 12C45.4528 12 45.0712 12.158 44.7899 12.4393C44.5086 12.7206 44.3506 13.1022 44.3506 13.5V34.5C44.3506 34.8978 44.5086 35.2794 44.7899 35.5607C45.0712 35.842 45.4528 36 45.8506 36C46.2484 36 46.63 35.842 46.9113 35.5607C47.1926 35.2794 47.3506 34.8978 47.3506 34.5V13.5C47.3506 13.1022 47.1926 12.7206 46.9113 12.4393C46.63 12.158 46.2484 12 45.8506 12Z" fill="white" fill-opacity="0.4"/>
</g>
<defs>
<clipPath id="clip0_1783_7599">
<rect width="48" height="48" fill="white" transform="translate(0.850586)"/>
</clipPath>
</defs>
</svg>
