<svg width="49" height="49" viewBox="0 0 49 49" fill="none" xmlns="http://www.w3.org/2000/svg">
<g clip-path="url(#clip0_1783_7605)">
<path d="M47.3505 20.4762C47.3502 19.3264 47.0196 18.2009 46.398 17.2337C45.7763 16.2664 44.8899 15.4982 43.8441 15.0203C42.7983 14.5425 41.6373 14.3751 40.4991 14.5383C39.361 14.7014 38.2937 15.1882 37.4242 15.9406C34.2836 14.2718 30.5317 13.2631 26.613 13.0287L27.5861 7.18431L30.9086 7.69431C31.0772 8.74238 31.6108 9.69711 32.4153 10.3898C33.2197 11.0824 34.243 11.4684 35.3045 11.4795C36.366 11.4906 37.3972 11.1261 38.2159 10.4503C39.0346 9.77464 39.5881 8.83127 39.7785 7.78695C39.9689 6.74263 39.784 5.66462 39.2565 4.74344C38.729 3.82227 37.8928 3.11724 36.8957 2.75298C35.8986 2.38871 34.8049 2.38866 33.8078 2.75282C32.8106 3.11699 31.9744 3.82194 31.4467 4.74306L26.5717 3.99306C26.1817 3.93293 25.7837 4.0289 25.464 4.26019C25.1443 4.49148 24.9286 4.83945 24.8636 5.22869L23.5755 13.0062C19.4805 13.1824 15.5467 14.2024 12.2767 15.9406C11.0826 14.9318 9.54182 14.4288 7.98244 14.5389C6.42307 14.6489 4.96821 15.3632 3.92753 16.5297C2.88686 17.6962 2.34255 19.2229 2.41045 20.7846C2.47836 22.3464 3.15313 23.82 4.29113 24.8918C3.99948 25.894 3.85113 26.9324 3.8505 27.9762C3.8505 32.0881 6.1005 35.9168 10.2086 38.7556C14.1405 41.4762 19.3399 42.9762 24.8505 42.9762C30.3611 42.9762 35.5605 41.4762 39.4924 38.7556C43.6005 35.9168 45.8505 32.0881 45.8505 27.9762C45.8499 26.9324 45.7015 25.894 45.4099 24.8918C46.0198 24.329 46.507 23.6463 46.8409 22.8865C47.1748 22.1267 47.3483 21.3061 47.3505 20.4762ZM35.3505 5.47619C35.6472 5.47619 35.9372 5.56416 36.1838 5.72898C36.4305 5.89381 36.6228 6.12807 36.7363 6.40216C36.8498 6.67625 36.8796 6.97785 36.8217 7.26882C36.7638 7.55979 36.6209 7.82707 36.4112 8.03685C36.2014 8.24663 35.9341 8.38949 35.6431 8.44737C35.3522 8.50524 35.0506 8.47554 34.7765 8.36201C34.5024 8.24848 34.2681 8.05622 34.1033 7.80954C33.9385 7.56287 33.8505 7.27286 33.8505 6.97619C33.8505 6.57836 34.0085 6.19683 34.2898 5.91553C34.5711 5.63422 34.9527 5.47619 35.3505 5.47619ZM14.3505 24.9762C14.3505 24.3828 14.5264 23.8028 14.8561 23.3095C15.1857 22.8161 15.6543 22.4316 16.2024 22.2045C16.7506 21.9775 17.3538 21.9181 17.9358 22.0338C18.5177 22.1496 19.0523 22.4353 19.4718 22.8549C19.8914 23.2744 20.1771 23.809 20.2929 24.3909C20.4086 24.9729 20.3492 25.5761 20.1221 26.1242C19.8951 26.6724 19.5106 27.141 19.0172 27.4706C18.5239 27.8002 17.9438 27.9762 17.3505 27.9762C16.5548 27.9762 15.7918 27.6601 15.2292 27.0975C14.6666 26.5349 14.3505 25.7718 14.3505 24.9762ZM31.5536 35.3018C29.4896 36.3987 27.1879 36.9723 24.8505 36.9723C22.5131 36.9723 20.2114 36.3987 18.1474 35.3018C17.9733 35.2095 17.8191 35.0838 17.6936 34.9318C17.5681 34.7799 17.4738 34.6047 17.416 34.4164C17.3582 34.228 17.338 34.03 17.3567 33.8339C17.3754 33.6377 17.4325 33.4471 17.5249 33.2731C17.6172 33.099 17.7429 32.9448 17.8949 32.8193C18.0468 32.6938 18.2219 32.5994 18.4103 32.5416C18.5987 32.4838 18.7966 32.4637 18.9928 32.4824C19.189 32.5011 19.3795 32.5582 19.5536 32.6506C21.1846 33.5176 23.0034 33.9711 24.8505 33.9711C26.6976 33.9711 28.5164 33.5176 30.1474 32.6506C30.3215 32.5582 30.512 32.5011 30.7082 32.4824C30.9044 32.4637 31.1023 32.4838 31.2907 32.5416C31.4791 32.5994 31.6542 32.6938 31.8061 32.8193C31.9581 32.9448 32.0838 33.099 32.1761 33.2731C32.2685 33.4471 32.3256 33.6377 32.3443 33.8339C32.363 34.03 32.3428 34.228 32.285 34.4164C32.2272 34.6047 32.1329 34.7799 32.0074 34.9318C31.8819 35.0838 31.7277 35.2095 31.5536 35.3018ZM32.3505 27.9762C31.7572 27.9762 31.1771 27.8002 30.6838 27.4706C30.1904 27.141 29.8059 26.6724 29.5789 26.1242C29.3518 25.5761 29.2924 24.9729 29.4081 24.3909C29.5239 23.809 29.8096 23.2744 30.2292 22.8549C30.6487 22.4353 31.1833 22.1496 31.7652 22.0338C32.3472 21.9181 32.9504 21.9775 33.4985 22.2045C34.0467 22.4316 34.5153 22.8161 34.8449 23.3095C35.1745 23.8028 35.3505 24.3828 35.3505 24.9762C35.3505 25.7718 35.0344 26.5349 34.4718 27.0975C33.9092 27.6601 33.1461 27.9762 32.3505 27.9762Z" fill="white" fill-opacity="0.4"/>
</g>
<defs>
<clipPath id="clip0_1783_7605">
<rect width="48" height="48" fill="white" transform="translate(0.850586 0.976074)"/>
</clipPath>
</defs>
</svg>
