<svg width="49" height="48" viewBox="0 0 49 48" fill="none" xmlns="http://www.w3.org/2000/svg">
<g clip-path="url(#clip0_1783_7593)">
<path d="M45.2656 4.91052C45.0332 4.70984 44.7504 4.57637 44.4478 4.5245C44.1451 4.47263 43.834 4.50431 43.5481 4.61615L5.54932 19.4868C5.01079 19.6962 4.55487 20.0749 4.25018 20.5658C3.94549 21.0568 3.80854 21.6334 3.85994 22.2089C3.91133 22.7844 4.1483 23.3277 4.53516 23.7569C4.92202 24.1861 5.43783 24.478 6.00495 24.5886L15.8506 26.5218V37.4999C15.8486 38.0979 16.0263 38.6826 16.3606 39.1784C16.695 39.6742 17.1705 40.0582 17.7256 40.2805C18.2798 40.5068 18.8893 40.5612 19.4748 40.4364C20.0604 40.3117 20.5948 40.0137 21.0087 39.5812L25.7562 34.6574L33.2881 41.2499C33.8315 41.7319 34.5323 41.9986 35.2587 41.9999C35.577 41.9996 35.8933 41.9497 36.1962 41.8518C36.6911 41.6947 37.1362 41.4108 37.4872 41.0282C37.8382 40.6456 38.0829 40.1777 38.1968 39.6712L45.8074 6.5624C45.8755 6.2638 45.8611 5.95231 45.7656 5.66131C45.6701 5.37031 45.4973 5.11078 45.2656 4.91052ZM35.2624 38.9999L19.7599 25.4061L42.0724 9.41427L35.2624 38.9999Z" fill="white" fill-opacity="0.4"/>
</g>
<defs>
<clipPath id="clip0_1783_7593">
<rect width="48" height="48" fill="white" transform="translate(0.850586)"/>
</clipPath>
</defs>
</svg>
