<svg width="49" height="48" viewBox="0 0 49 48" fill="none" xmlns="http://www.w3.org/2000/svg">
<g clip-path="url(#clip0_1783_7587)">
<path d="M46.9119 14.5614L41.3057 20.1676C40.1732 33.2964 29.1013 43.5001 15.8507 43.5001C13.1282 43.5001 10.8838 43.0689 9.17943 42.2176C7.80505 41.5295 7.24255 40.7926 7.10193 40.5826C6.97654 40.3946 6.89526 40.1806 6.86418 39.9568C6.83309 39.7329 6.853 39.5049 6.92242 39.2898C6.99183 39.0747 7.10896 38.878 7.26505 38.7146C7.42113 38.5511 7.61214 38.425 7.8238 38.3457C7.87255 38.327 12.3688 36.6001 15.2244 33.3132C13.6408 32.0112 12.2583 30.4822 11.1219 28.7757C8.79693 25.3239 6.19443 19.3276 6.99693 10.367C7.02237 10.0823 7.12863 9.81074 7.30321 9.58438C7.4778 9.35802 7.71343 9.18626 7.98235 9.08933C8.25128 8.9924 8.5423 8.97433 8.82115 9.03725C9.1 9.10018 9.35506 9.24147 9.5563 9.44449C9.62193 9.51012 15.7963 15.6507 23.3451 17.642V16.5001C23.3422 15.3027 23.5789 14.1169 24.0413 13.0124C24.5037 11.9079 25.1825 10.9071 26.0376 10.0689C26.868 9.2396 27.8561 8.58507 28.9436 8.14389C30.0311 7.7027 31.196 7.48381 32.3694 7.50012C33.9436 7.51564 35.487 7.93822 36.8495 8.72675C38.212 9.51529 39.3473 10.643 40.1451 12.0001H45.8507C46.1475 11.9999 46.4378 12.0877 46.6847 12.2525C46.9315 12.4173 47.124 12.6517 47.2376 12.9259C47.3512 13.2002 47.381 13.502 47.323 13.7931C47.265 14.0842 47.1219 14.3516 46.9119 14.5614Z" fill="white" fill-opacity="0.4"/>
</g>
<defs>
<clipPath id="clip0_1783_7587">
<rect width="48" height="48" fill="white" transform="translate(0.850586)"/>
</clipPath>
</defs>
</svg>
