<svg width="191" height="42" viewBox="0 0 191 42" fill="none" xmlns="http://www.w3.org/2000/svg">
<path d="M71.5667 32.0874C71.5903 32.1349 71.6026 32.1872 71.6026 32.2402C71.6026 32.4297 71.4491 32.5833 71.2596 32.5833H69.7471C69.1894 32.5833 68.6804 32.2655 68.4355 31.7643L66.1139 27.0115C65.8691 26.5103 65.3601 26.1925 64.8023 26.1925L52.7902 26.1925C52.2324 26.1925 51.7234 26.5103 51.4786 27.0115L49.157 31.7643C48.9122 32.2655 48.4032 32.5833 47.8454 32.5833H46.3329C46.1435 32.5833 45.9899 32.4297 45.9899 32.2402C45.9899 32.1872 46.0022 32.1349 46.0258 32.0874L56.9035 10.2304C57.1503 9.73452 57.6565 9.42105 58.2103 9.42105H59.3822C59.936 9.42105 60.4422 9.73452 60.689 10.2304L71.5667 32.0874ZM62.158 23.6953C63.2401 23.6953 63.9461 22.559 63.4665 21.5888L60.1048 14.7873C59.5691 13.7035 58.0234 13.7035 57.4877 14.7873L54.126 21.5888C53.6465 22.559 54.3524 23.6953 55.4346 23.6953L62.158 23.6953Z" fill="#3568DD"/>
<path d="M77.0314 9.42105C77.7857 9.42105 78.3972 10.0325 78.3972 10.7868V31.2175C78.3972 31.9718 77.7857 32.5833 77.0314 32.5833C76.2771 32.5833 75.6656 31.9718 75.6656 31.2175V10.7868C75.6656 10.0325 76.2771 9.42105 77.0314 9.42105Z" fill="#3568DD"/>
<path d="M107.48 16.5533C107.48 18.5071 106.747 20.0724 105.281 21.2493C103.815 22.4027 102.47 22.9794 97.4685 22.9794C97.4003 22.9794 97.3643 23.0604 97.4101 23.111L105.513 32.0722C105.564 32.1285 105.592 32.2016 105.592 32.2774C105.592 32.4463 105.455 32.5833 105.286 32.5833H103.116C102.705 32.5833 102.313 32.4097 102.036 32.1053L94.1781 23.4575C93.9014 23.153 93.5091 22.9794 93.0978 22.9794H89.2871C88.4809 22.9794 87.8274 23.633 87.8274 24.4391V31.2353C87.8274 31.9798 87.2238 32.5833 86.4793 32.5833C85.7348 32.5833 85.1313 31.9798 85.1313 31.2353V10.8807C85.1313 10.0746 85.7848 9.42105 86.591 9.42105L99.2857 9.42105C101.84 9.42105 103.838 10.0213 105.281 11.2218C106.747 12.3987 107.48 14.0229 107.48 16.0943V16.5533ZM99.2148 20.5785C100.941 20.5785 102.289 20.2136 103.259 19.4839C104.252 18.7542 104.749 17.742 104.749 16.4474V15.9884C104.749 14.6938 104.264 13.6816 103.294 12.9519C102.325 12.2222 100.965 11.8573 99.2148 11.8573L89.2871 11.8573C88.4809 11.8573 87.8274 12.5108 87.8274 13.317V19.1188C87.8274 19.9249 88.4809 20.5785 89.2871 20.5785H99.2148Z" fill="#3568DD"/>
<path d="M123.574 9.42105C127.689 9.42105 130.835 10.3861 133.01 12.3163C135.186 14.2465 136.274 17.0476 136.274 20.7197V21.3199C136.274 24.992 135.186 27.7931 133.01 29.7233C130.858 31.63 127.713 32.5833 123.574 32.5833H114.462C113.656 32.5833 113.003 31.9298 113.003 31.1236V10.8807C113.003 10.0746 113.656 9.42105 114.462 9.42105L123.574 9.42105ZM123.574 30.147C126.861 30.147 129.333 29.4173 130.988 27.9579C132.667 26.475 133.507 24.2741 133.507 21.3553V20.6844C133.507 17.7891 132.667 15.6 130.988 14.1171C129.309 12.6106 126.826 11.8573 123.539 11.8573L117.158 11.8573C116.352 11.8573 115.699 12.5108 115.699 13.317V28.6873C115.699 29.4935 116.352 30.147 117.158 30.147H123.574Z" fill="#3568DD"/>
<path d="M163.132 32.0874C163.155 32.1349 163.168 32.1872 163.168 32.2402C163.168 32.4297 163.014 32.5833 162.825 32.5833H161.312C160.754 32.5833 160.245 32.2655 160.001 31.7643L157.679 27.0115C157.434 26.5103 156.925 26.1925 156.367 26.1925L144.355 26.1925C143.798 26.1925 143.288 26.5103 143.044 27.0115L140.722 31.7643C140.477 32.2655 139.968 32.5833 139.41 32.5833H137.898C137.709 32.5833 137.555 32.4297 137.555 32.2402C137.555 32.1872 137.567 32.1349 137.591 32.0874L148.469 10.2304C148.715 9.73452 149.222 9.42105 149.775 9.42105H150.947C151.501 9.42105 152.007 9.73452 152.254 10.2304L163.132 32.0874ZM153.723 23.6953C154.805 23.6953 155.511 22.559 155.032 21.5888L151.67 14.7873C151.134 13.7035 149.588 13.7035 149.053 14.7873L145.691 21.5888C145.212 22.559 145.917 23.6953 147 23.6953L153.723 23.6953Z" fill="#3568DD"/>
<path d="M177.481 32.9717C174.832 32.9717 172.526 32.5009 170.563 31.5594C168.6 30.5943 167.087 29.229 166.022 27.4636C164.958 25.6982 164.426 23.6385 164.426 21.2846V20.755C164.426 18.3776 164.958 16.3062 166.022 14.5408C167.087 12.7753 168.6 11.4219 170.563 10.4803C172.526 9.5152 174.832 9.03265 177.481 9.03265C180.106 9.03265 182.4 9.5152 184.363 10.4803C186.326 11.4454 187.839 12.8106 188.904 14.5761C189.968 16.3415 190.5 18.4011 190.5 20.755V21.2846C190.5 23.6385 189.968 25.6982 188.904 27.4636C187.839 29.229 186.326 30.5943 184.363 31.5594C182.4 32.5009 180.106 32.9717 177.481 32.9717ZM177.481 30.4648C180.697 30.4648 183.204 29.6527 185.001 28.0285C186.822 26.4043 187.733 24.1681 187.733 21.3199V20.7197C187.733 17.8715 186.822 15.6353 185.001 14.0111C183.18 12.3634 180.673 11.5395 177.481 11.5395C174.264 11.5395 171.734 12.3634 169.889 14.0111C168.068 15.6353 167.158 17.8715 167.158 20.7197V21.3199C167.158 24.1681 168.068 26.4043 169.889 28.0285C171.734 29.6527 174.264 30.4648 177.481 30.4648Z" fill="#3568DD"/>
<path fill-rule="evenodd" clip-rule="evenodd" d="M2.05753 41.3494C1.79159 41.5115 1.44522 41.4364 1.2704 41.1786L0.60077 40.1913C0.425946 39.9335 0.48465 39.5844 0.729942 39.3925C2.93545 37.6667 4.74835 35.7216 6.17409 33.6383C11.4828 25.8809 11.4828 16.1191 6.17408 8.36172C4.74835 6.27838 2.93545 4.33325 0.729944 2.60751C0.484651 2.41558 0.425947 2.06647 0.600771 1.80871L1.2704 0.82139C1.44522 0.563624 1.79159 0.488461 2.05754 0.650577L31.8023 18.7828C33.4624 19.7948 33.4624 22.2052 31.8023 23.2172L2.05753 41.3494Z" fill="url(#paint0_linear_12278_12126)"/>
<defs>
<linearGradient id="paint0_linear_12278_12126" x1="33.0474" y1="14.0468" x2="0.500001" y2="14.0468" gradientUnits="userSpaceOnUse">
<stop stop-color="#3568DD"/>
<stop offset="1" stop-color="#7DA3F9"/>
</linearGradient>
</defs>
</svg>
