<svg width="22" height="22" viewBox="0 0 22 22" fill="none" xmlns="http://www.w3.org/2000/svg">
<g clip-path="url(#clip0_12296_12519)">
<path d="M21.275 14.9643L18.7533 5.01861C18.687 4.75969 18.5465 4.52575 18.3492 4.34543C18.1519 4.16512 17.9063 4.04627 17.6425 4.00345L14.5611 3.49757C14.2214 3.44294 13.8735 3.5166 13.5851 3.70423C13.2967 3.89186 13.0884 4.18004 13.0007 4.51274L12.9828 4.58537C12.9712 4.63152 12.9693 4.67958 12.9773 4.72649C12.9854 4.77339 13.0031 4.8181 13.0294 4.85776C13.0557 4.89741 13.09 4.93114 13.1301 4.95678C13.1702 4.98242 13.2152 4.9994 13.2622 5.00665C13.9693 5.11042 14.6668 5.27102 15.3481 5.48688C15.5184 5.53827 15.6628 5.65252 15.752 5.80644C15.8412 5.96037 15.8684 6.14245 15.8283 6.31577C15.8053 6.40608 15.764 6.49072 15.707 6.5645C15.65 6.63827 15.5786 6.69961 15.497 6.74475C15.4155 6.78989 15.3255 6.81787 15.2328 6.82698C15.14 6.83609 15.0463 6.82613 14.9576 6.79771C12.4298 6.02248 9.72808 6.01951 7.19856 6.78917C7.02738 6.84673 6.8406 6.83614 6.67702 6.7596C6.51344 6.68306 6.38563 6.54645 6.32012 6.37815C6.28899 6.29178 6.27557 6.20003 6.28066 6.10837C6.28576 6.01671 6.30926 5.92701 6.34978 5.84463C6.39029 5.76225 6.44698 5.68888 6.51646 5.62888C6.58595 5.56888 6.66681 5.5235 6.75422 5.49543C7.44398 5.27572 8.15041 5.11226 8.86658 5.00665C8.91361 4.9994 8.95861 4.98242 8.9987 4.95678C9.03879 4.93114 9.07309 4.89741 9.09939 4.85776C9.12569 4.8181 9.14342 4.77339 9.15145 4.72649C9.15948 4.67958 9.15763 4.63152 9.14601 4.58537L9.12806 4.51274C9.04034 4.17976 8.83175 3.89139 8.54295 3.70386C8.25416 3.51633 7.90587 3.44309 7.56601 3.49843L4.48291 4.0043C4.21919 4.04706 3.97365 4.16579 3.77635 4.34594C3.57905 4.52609 3.43855 4.75985 3.37204 5.01861L0.850365 14.9643C0.771298 15.2769 0.805709 15.6075 0.947475 15.8971C1.08924 16.1867 1.32916 16.4167 1.62456 16.546L7.34981 19.0848C7.52197 19.1613 7.70795 19.2019 7.89634 19.2039C8.08472 19.2059 8.27153 19.1694 8.44528 19.0965C8.61903 19.0237 8.77605 18.9161 8.90669 18.7804C9.03734 18.6446 9.13884 18.4836 9.20497 18.3072L9.50319 17.4997C9.52097 17.4513 9.52757 17.3995 9.52251 17.3483C9.51746 17.297 9.50087 17.2475 9.474 17.2035C9.44713 17.1596 9.41066 17.1222 9.36733 17.0944C9.32399 17.0665 9.27492 17.0487 9.22377 17.0425C8.39364 16.942 7.57463 16.7646 6.77729 16.5127C6.60768 16.4612 6.46391 16.3472 6.37495 16.1939C6.286 16.0406 6.25847 15.8592 6.2979 15.6864C6.32076 15.5958 6.36194 15.5109 6.41889 15.4369C6.47584 15.3628 6.54736 15.3013 6.62904 15.2559C6.71071 15.2106 6.80081 15.1825 6.89376 15.1734C6.98672 15.1642 7.08057 15.1742 7.16951 15.2027C9.7068 15.9798 12.4186 15.9798 14.9559 15.2027C15.0447 15.1743 15.1384 15.1644 15.2312 15.1736C15.324 15.1827 15.414 15.2108 15.4955 15.256C15.5771 15.3012 15.6486 15.3627 15.7055 15.4365C15.7624 15.5104 15.8036 15.5951 15.8266 15.6855C15.8665 15.8585 15.8392 16.0402 15.7502 16.1937C15.6612 16.3473 15.5171 16.4613 15.3472 16.5127C14.5502 16.7647 13.7315 16.9421 12.9016 17.0425C12.8505 17.0487 12.8014 17.0665 12.758 17.0944C12.7147 17.1222 12.6782 17.1596 12.6514 17.2035C12.6245 17.2475 12.6079 17.297 12.6029 17.3483C12.5978 17.3995 12.6044 17.4513 12.6222 17.4997L12.9204 18.3072C12.9866 18.4835 13.0882 18.6445 13.2189 18.7801C13.3495 18.9158 13.5065 19.0234 13.6802 19.0962C13.854 19.169 14.0407 19.2055 14.2291 19.2036C14.4174 19.2016 14.6034 19.1612 14.7756 19.0848L20.5008 16.546C20.7962 16.4167 21.0361 16.1867 21.1779 15.8971C21.3197 15.6075 21.3541 15.2769 21.275 14.9643ZM7.98643 13.0511C7.78362 13.0511 7.58537 12.9909 7.41674 12.8782C7.24811 12.7656 7.11668 12.6054 7.03906 12.4181C6.96145 12.2307 6.94115 12.0245 6.98071 11.8256C7.02028 11.6267 7.11794 11.444 7.26135 11.3006C7.40475 11.1572 7.58747 11.0595 7.78638 11.0199C7.98529 10.9804 8.19147 11.0007 8.37884 11.0783C8.56621 11.1559 8.72636 11.2873 8.83903 11.4559C8.95171 11.6246 9.01185 11.8228 9.01185 12.0256C9.01185 12.2976 8.90381 12.5584 8.71151 12.7507C8.51921 12.943 8.25839 13.0511 7.98643 13.0511ZM14.1389 13.0511C13.9361 13.0511 13.7379 12.9909 13.5693 12.8782C13.4006 12.7656 13.2692 12.6054 13.1916 12.4181C13.114 12.2307 13.0937 12.0245 13.1332 11.8256C13.1728 11.6267 13.2705 11.444 13.4139 11.3006C13.5573 11.1572 13.74 11.0595 13.9389 11.0199C14.1378 10.9804 14.344 11.0007 14.5314 11.0783C14.7187 11.1559 14.8789 11.2873 14.9915 11.4559C15.1042 11.6246 15.1644 11.8228 15.1644 12.0256C15.1644 12.2976 15.0563 12.5584 14.864 12.7507C14.6717 12.943 14.4109 13.0511 14.1389 13.0511Z" fill="white"/>
</g>
<defs>
<clipPath id="clip0_12296_12519">
<rect width="21.8756" height="21.8756" fill="white" transform="translate(0.12439 0.0622559)"/>
</clipPath>
</defs>
</svg>
