<svg width="1120" height="130" viewBox="0 0 1120 130" fill="none" xmlns="http://www.w3.org/2000/svg">
<path d="M88.1438 6.67994L112.083 124.645C109.448 125.548 106.211 126 102.372 126C99.6618 126 96.6505 125.548 93.4135 124.645L88.2944 97.1675H33.4147L18.6596 124.645C14.9709 125.548 11.8844 126 9.4001 126C5.8619 126 2.92595 125.548 0.592246 124.645L66.2371 6.67994C69.4742 5.62601 73.1629 5.09905 77.3787 5.09905C81.5944 5.09905 85.2079 5.62601 88.1438 6.67994ZM74.2921 21.6608L41.4697 82.3371H85.509L74.2921 21.6608ZM155.743 22.8653C153.108 22.8653 150.247 22.4136 147.086 21.435L149.72 6.37882C152.431 5.24961 155.442 4.64736 158.829 4.64736C161.916 4.64736 165.002 5.24961 167.938 6.37882L165.304 21.435C161.615 22.4136 158.378 22.8653 155.743 22.8653ZM137.525 126C134.363 126 131.578 125.548 129.244 124.645L144.601 37.0181C147.236 35.8889 150.172 35.3619 153.56 35.3619C156.646 35.3619 159.582 35.8889 162.217 37.0181L146.785 124.645C143.999 125.548 140.913 126 137.525 126ZM242.765 34.2327C242.99 34.835 243.066 35.8136 243.066 37.1687C243.066 42.5136 242.012 47.1057 239.829 50.7945C236.29 50.0417 233.354 49.6653 231.021 49.6653C224.471 49.6653 218.223 51.7731 212.652 55.9889C207.081 60.2799 202.715 67.7327 200.984 77.1428L192.778 124.645C190.294 125.548 187.358 126 183.82 126C180.808 126 178.023 125.548 175.539 124.645L190.896 36.717C193.681 35.8136 196.617 35.3619 199.553 35.3619C201.887 35.3619 204.296 35.8136 206.931 36.717L204.522 49.9664C207.91 44.9226 212.351 40.8574 217.771 37.7709C223.116 34.6844 229.063 33.1788 235.462 33.1788C237.645 33.1788 240.054 33.5552 242.765 34.2327ZM304.492 128.936C283.037 128.936 265.647 121.86 254.957 106.578C247.956 96.5652 243.891 82.036 243.891 64.345C243.891 43.0406 250.139 26.2529 261.13 15.8642C272.121 5.47545 287.177 0.205795 305.546 0.205795C323.463 0.205795 337.54 4.72264 347.778 13.8316C357.941 22.9406 363.512 36.4159 364.415 54.1821C360.124 55.6877 352.671 56.4405 342.207 56.4405C334.303 56.4405 327.076 55.6877 320.527 54.1821C320.225 50.117 318.795 46.8799 316.16 44.3956C313.525 41.9114 310.439 40.7069 306.901 40.7069C299.373 40.7069 289.963 44.9226 289.963 63.5922C289.963 76.9169 292.673 83.7675 296.964 86.7787C299.975 88.9618 302.76 89.4888 306.901 89.4888C310.514 89.4888 313.601 88.209 316.236 85.6495C318.87 83.1652 320.225 79.4012 320.376 74.5079C327.001 72.8518 334.228 72.0237 342.057 72.0237C352.521 72.0237 359.974 72.8518 364.566 74.5079C364.792 107.481 339.723 129.388 304.492 128.936ZM436.155 129.087C416.958 129.087 401.676 123.365 390.309 111.922C378.941 100.48 373.295 85.0472 373.295 65.5495C373.295 45.9012 378.941 30.3934 390.309 19.026C401.601 7.65859 416.883 2.01253 436.155 2.01253C455.276 2.01253 470.408 7.65859 481.549 19.026C492.615 30.3934 498.186 45.9012 498.186 65.5495C498.186 85.0472 492.615 100.555 481.474 111.922C470.257 123.365 455.201 129.087 436.155 129.087ZM436.155 89.7899C446.468 89.7899 452.19 81.2079 452.19 65.5495C452.19 49.8911 446.468 41.3844 436.155 41.3844C425.39 41.3844 419.518 49.8158 419.518 65.5495C419.518 81.2832 425.54 89.7899 436.155 89.7899ZM525.736 126C519.187 126 513.014 125.247 507.066 123.666V7.43275C509.626 6.60466 512.261 6.00242 514.896 5.62601C517.53 5.24961 521.596 5.09905 526.941 5.09905C535.447 5.09905 543.201 5.85185 550.202 7.43275L584.003 62.6136H584.154V7.43275C591.757 5.85185 598.457 5.09905 604.329 5.09905C612.083 5.09905 618.482 5.85185 623.601 7.43275V123.666C618.708 125.247 612.083 126 603.727 126C595.597 126 587.843 125.247 580.465 123.666L545.309 68.1844H545.158V123.666C539.362 125.247 532.888 126 525.736 126ZM718.675 93.027H770.769C774.006 97.318 775.587 102.889 775.587 109.815C775.587 115.31 773.855 121.784 770.769 126H677.195C676.367 122.311 675.99 118.096 675.99 113.202C676.141 93.7045 678.776 82.036 686.906 73.2282C692.326 67.5821 699.328 63.5169 709.867 59.8282C715.362 57.9462 719.578 56.3653 722.589 55.2361C725.601 54.1068 728.386 52.9023 730.87 51.7731C733.354 50.6439 735.086 49.6653 736.065 48.6866C738.097 46.8046 739 44.9226 739 42.1372C739 39.6529 738.549 38.6743 736.742 37.1687C734.559 35.2866 731.623 34.3833 727.934 34.3833C722.89 34.3833 719.051 35.4372 716.492 37.4698C714.158 39.2765 713.631 41.7608 713.631 46.8799C707.985 49.1383 702.263 50.2675 696.467 50.2675C688.562 50.2675 682.088 49.1383 677.044 46.8799C675.99 32.2754 679.755 21.2091 688.337 13.7563C692.101 10.5193 697.445 7.88444 704.447 6.00242C711.372 4.1204 719.277 3.14175 728.085 3.14175C734.935 3.14175 741.936 4.19568 748.938 6.30354C755.939 8.4114 761.284 11.1215 764.972 14.5091C768.812 18.0473 771.221 20.7575 774.006 25.2743C776.716 29.7911 778.222 35.5125 778.222 42.1372C778.222 49.59 775.738 56.3653 773.027 60.8821C771.672 63.1405 769.715 65.3237 767.08 67.4315C764.445 69.6147 762.187 71.2709 760.456 72.4001C758.649 73.5293 756.089 74.8091 752.702 76.1641C749.314 77.5945 746.98 78.4978 745.7 78.8742C744.345 79.3259 742.087 80.0034 738.925 80.9821C738.248 81.2079 737.796 81.3585 737.495 81.4338C730.343 83.5416 725.45 85.2731 722.815 86.7034C720.18 88.1338 718.825 89.5641 718.825 90.9944C718.825 91.9731 718.75 92.6506 718.675 93.027ZM881.956 111.847C872.395 122.462 858.694 127.731 841.003 127.731C823.312 127.731 809.611 122.462 800.05 111.847C790.49 101.308 785.672 85.8001 785.672 65.2484C785.672 44.772 790.49 29.2642 800.05 18.7249C809.611 8.26084 823.312 2.99118 841.003 2.99118C858.694 2.99118 872.395 8.26084 881.956 18.7249C891.516 29.2642 896.334 44.772 896.334 65.2484C896.334 85.8001 891.516 101.308 881.956 111.847ZM833.324 83.6169C835.206 87.1551 838.142 88.9618 842.057 88.9618C845.971 88.9618 848.907 87.1551 850.865 83.5416C852.822 80.0034 853.801 73.9057 853.801 65.2484C853.801 56.7417 852.822 50.7945 850.865 47.2563C848.907 43.7181 845.971 41.9866 842.057 41.9866C838.142 41.9866 835.206 43.7181 833.324 47.181C831.367 50.7192 830.388 56.7417 830.388 65.2484C830.388 73.9057 831.367 80.0787 833.324 83.6169ZM947.372 93.027H999.466C1002.7 97.318 1004.28 102.889 1004.28 109.815C1004.28 115.31 1002.55 121.784 999.466 126H905.892C905.064 122.311 904.687 118.096 904.687 113.202C904.838 93.7045 907.473 82.036 915.603 73.2282C921.023 67.5821 928.025 63.5169 938.564 59.8282C944.059 57.9462 948.275 56.3653 951.286 55.2361C954.298 54.1068 957.083 52.9023 959.567 51.7731C962.051 50.6439 963.783 49.6653 964.762 48.6866C966.794 46.8046 967.698 44.9226 967.698 42.1372C967.698 39.6529 967.246 38.6743 965.439 37.1687C963.256 35.2866 960.32 34.3833 956.631 34.3833C951.587 34.3833 947.748 35.4372 945.189 37.4698C942.855 39.2765 942.328 41.7608 942.328 46.8799C936.682 49.1383 930.96 50.2675 925.164 50.2675C917.259 50.2675 910.785 49.1383 905.741 46.8799C904.687 32.2754 908.452 21.2091 917.034 13.7563C920.798 10.5193 926.143 7.88444 933.144 6.00242C940.069 4.1204 947.974 3.14175 956.782 3.14175C963.632 3.14175 970.633 4.19568 977.635 6.30354C984.636 8.4114 989.981 11.1215 993.669 14.5091C997.509 18.0473 999.918 20.7575 1002.7 25.2743C1005.41 29.7911 1006.92 35.5125 1006.92 42.1372C1006.92 49.59 1004.43 56.3653 1001.72 60.8821C1000.37 63.1405 998.412 65.3237 995.777 67.4315C993.142 69.6147 990.884 71.2709 989.153 72.4001C987.346 73.5293 984.786 74.8091 981.399 76.1641C978.011 77.5945 975.677 78.4978 974.398 78.8742C973.042 79.3259 970.784 80.0034 967.622 80.9821C966.945 81.2079 966.493 81.3585 966.192 81.4338C959.04 83.5416 954.147 85.2731 951.512 86.7034C948.877 88.1338 947.522 89.5641 947.522 90.9944C947.522 91.9731 947.447 92.6506 947.372 93.027ZM1119.08 85.7248C1119.08 92.5 1117.88 97.9955 1115.4 102.287H1104.71V123.365C1098.31 126.151 1091.68 127.506 1084.83 127.506C1078.88 127.506 1072.56 126.151 1065.86 123.365V102.287H1013.92C1011.58 96.2641 1010.38 90.0158 1010.38 83.6169C1010.38 77.0675 1011.36 71.7225 1013.31 67.4315L1063.23 6.52938C1067.07 5.24961 1070 4.34624 1072.11 3.96983C1074.14 3.59343 1077 3.44287 1080.69 3.44287C1089.42 3.44287 1097.4 4.72264 1104.71 7.28219V71.4214H1115.4C1116.68 73.6798 1117.58 75.7877 1118.18 77.8203C1118.78 79.8529 1119.08 82.4877 1119.08 85.7248ZM1065.86 48.0091L1047.57 71.4214H1065.86V48.0091Z" fill="url(#paint0_linear_12278_12043)"/>
<defs>
<linearGradient id="paint0_linear_12278_12043" x1="563" y1="-18" x2="563" y2="142" gradientUnits="userSpaceOnUse">
<stop stop-color="#5080EC"/>
<stop offset="1" stop-color="#3568DD"/>
</linearGradient>
</defs>
</svg>
