<svg width="24" height="24" viewBox="0 0 24 24" fill="none" xmlns="http://www.w3.org/2000/svg">
<path d="M18.157 16.8822L16.97 18.0561C16.0952 18.9148 14.96 20.0187 13.5642 21.3683C12.6919 22.2117 11.3081 22.2115 10.436 21.3681L6.9449 17.9722C6.50614 17.5414 6.13887 17.1781 5.84303 16.8822C2.44262 13.4818 2.44262 7.96866 5.84303 4.56825C9.24344 1.16784 14.7566 1.16784 18.157 4.56825C21.5574 7.96866 21.5574 13.4818 18.157 16.8822ZM14.5002 10.9999C14.5002 9.61912 13.3808 8.49974 12 8.49974C10.6192 8.49974 9.49982 9.61912 9.49982 10.9999C9.49982 12.3808 10.6192 13.5001 12 13.5001C13.3808 13.5001 14.5002 12.3808 14.5002 10.9999Z" fill="#9B9CA5"/>
</svg>
