<svg width="23" height="22" viewBox="0 0 23 22" fill="none" xmlns="http://www.w3.org/2000/svg">
<g clip-path="url(#clip0_12296_12516)">
<path d="M20.4901 2.30002C20.3842 2.20856 20.2553 2.14773 20.1174 2.12409C19.9794 2.10045 19.8377 2.11489 19.7074 2.16586L2.38973 8.94303C2.1443 9.03846 1.93652 9.21105 1.79766 9.43479C1.6588 9.65854 1.59638 9.92134 1.61981 10.1836C1.64323 10.4459 1.75123 10.6935 1.92754 10.8891C2.10384 11.0847 2.33892 11.2177 2.59738 11.2682L7.08444 12.1492V17.1524C7.08356 17.4249 7.16455 17.6914 7.31691 17.9173C7.46927 18.1433 7.68598 18.3183 7.93896 18.4196C8.19155 18.5228 8.46932 18.5475 8.73617 18.4907C9.00302 18.4338 9.24659 18.298 9.43522 18.1009L11.5989 15.8569L15.0314 18.8614C15.2791 19.0811 15.5985 19.2026 15.9295 19.2032C16.0746 19.2031 16.2188 19.1803 16.3568 19.1357C16.5823 19.0641 16.7852 18.9347 16.9452 18.7604C17.1051 18.586 17.2166 18.3728 17.2686 18.1419L20.737 3.05285C20.7681 2.91677 20.7615 2.77481 20.718 2.64218C20.6745 2.50956 20.5957 2.39128 20.4901 2.30002ZM15.9312 17.836L8.86611 11.6407L19.0349 4.35257L15.9312 17.836Z" fill="white"/>
</g>
<defs>
<clipPath id="clip0_12296_12516">
<rect width="21.8756" height="21.8756" fill="white" transform="translate(0.248779 0.0622559)"/>
</clipPath>
</defs>
</svg>
