<svg width="23" height="22" viewBox="0 0 23 22" fill="none" xmlns="http://www.w3.org/2000/svg">
<g clip-path="url(#clip0_12296_12513)">
<path d="M21.3663 6.69847L18.8113 9.25348C18.2951 15.2368 13.2492 19.8871 7.21034 19.8871C5.96958 19.8871 4.94673 19.6905 4.16997 19.3026C3.54361 18.989 3.28726 18.6532 3.22317 18.5574C3.16602 18.4717 3.12898 18.3742 3.11482 18.2722C3.10065 18.1702 3.10972 18.0663 3.14136 17.9682C3.17299 17.8702 3.22637 17.7806 3.29751 17.7061C3.36864 17.6316 3.45569 17.5741 3.55216 17.538C3.57438 17.5295 5.62351 16.7425 6.92493 15.2445C6.20319 14.6511 5.57315 13.9543 5.05525 13.1766C3.99565 11.6034 2.80958 8.87065 3.17532 4.78692C3.18691 4.65716 3.23534 4.53341 3.3149 4.43025C3.39447 4.32709 3.50185 4.24882 3.62441 4.20464C3.74697 4.16046 3.87961 4.15223 4.00669 4.18091C4.13377 4.20958 4.25002 4.27397 4.34173 4.3665C4.37164 4.39641 7.18556 7.19495 10.6258 8.10244V7.58204C10.6245 7.03635 10.7324 6.4959 10.9432 5.99253C11.1539 5.48917 11.4632 5.03305 11.8529 4.65105C12.2314 4.27312 12.6817 3.97483 13.1773 3.77376C13.673 3.57269 14.2038 3.47293 14.7386 3.48037C15.456 3.48744 16.1594 3.68003 16.7804 4.0394C17.4013 4.39876 17.9188 4.91269 18.2823 5.53121H20.8826C21.0179 5.5311 21.1502 5.57113 21.2627 5.64624C21.3752 5.72135 21.4629 5.82816 21.5147 5.95314C21.5665 6.07812 21.58 6.21565 21.5536 6.34833C21.5272 6.48101 21.462 6.60287 21.3663 6.69847Z" fill="white"/>
</g>
<defs>
<clipPath id="clip0_12296_12513">
<rect width="21.8756" height="21.8756" fill="white" transform="translate(0.373169 0.0622559)"/>
</clipPath>
</defs>
</svg>
