<svg width="148" height="49" viewBox="0 0 148 49" fill="none" xmlns="http://www.w3.org/2000/svg">
<path d="M9.50141 48.1763C9.11908 48.1763 8.74599 48.1714 8.36667 48.1628C7.58087 48.1526 6.7969 48.0842 6.0212 47.9582C5.2979 47.8336 4.59722 47.6019 3.94226 47.2706C3.29331 46.9422 2.70142 46.5114 2.18925 45.995C1.66968 45.4846 1.2371 44.8927 0.908678 44.2426C0.576635 43.5883 0.346841 42.887 0.227301 42.1631C0.0982091 41.3852 0.0283649 40.5987 0.0183709 39.8103C0.0104152 39.5456 0 38.6645 0 38.6645V9.67701C0 9.67701 0.0110928 8.8094 0.0184336 8.5545C0.0280028 7.76732 0.097441 6.98201 0.226147 6.20536C0.345907 5.47946 0.575879 4.77612 0.908101 4.11969C1.23532 3.47008 1.66549 2.87769 2.18194 2.36549C2.6978 1.84843 3.29159 1.41548 3.94165 1.08246C4.5951 0.752289 5.29446 0.522201 6.0163 0.399901C6.79454 0.272618 7.58123 0.203803 8.36976 0.194033L9.50202 0.178711H138.46L139.606 0.194647C140.387 0.203932 141.167 0.272134 141.938 0.398671C142.667 0.522505 143.373 0.754199 144.034 1.08613C145.337 1.75728 146.396 2.81909 147.065 4.12275C147.392 4.77465 147.618 5.47225 147.736 6.19188C147.867 6.9749 147.94 7.76639 147.955 8.56003C147.958 8.91539 147.958 9.29712 147.958 9.67701C147.968 10.1476 147.968 10.5955 147.968 11.047V37.3091C147.968 37.765 147.968 38.2098 147.958 38.6583C147.958 39.0664 147.958 39.4402 147.953 39.8249C147.939 40.6044 147.867 41.3818 147.739 42.1508C147.622 42.8799 147.393 43.5867 147.061 44.2464C146.73 44.8894 146.3 45.4762 145.787 45.9852C145.274 46.5044 144.681 46.9377 144.031 47.2683C143.372 47.602 142.666 47.8346 141.938 47.9582C141.162 48.0849 140.378 48.1533 139.592 48.1628C139.225 48.1714 138.84 48.1763 138.466 48.1763L137.106 48.1788L9.50141 48.1763Z" fill="#0E0E0E" fill-opacity="0.1"/>
<path d="M30.2709 24.0402C30.285 22.951 30.5743 21.8831 31.1119 20.9358C31.6496 19.9885 32.4181 19.1926 33.346 18.6222C32.7565 17.7803 31.9789 17.0875 31.0748 16.5987C30.1707 16.11 29.1652 15.8387 28.1379 15.8066C25.9467 15.5766 23.8224 17.1178 22.7058 17.1178C21.5675 17.1178 19.8483 15.8294 17.997 15.8675C16.7995 15.9062 15.6325 16.2544 14.6096 16.8783C13.5867 17.5021 12.7429 18.3802 12.1603 19.4271C9.63668 23.7965 11.5191 30.218 13.9365 33.7498C15.146 35.4793 16.5596 37.4111 18.4092 37.3426C20.2192 37.2676 20.8952 36.1885 23.08 36.1885C25.2445 36.1885 25.8787 37.3426 27.7659 37.2991C29.7081 37.2676 30.9318 35.5619 32.0989 33.8161C32.9679 32.5838 33.6366 31.2219 34.0803 29.7807C32.9519 29.3035 31.989 28.5046 31.3116 27.4838C30.6342 26.463 30.2722 25.2653 30.2709 24.0402Z" fill="black"/>
<path d="M26.7061 13.4831C27.7651 12.2119 28.2868 10.5779 28.1605 8.92822C26.5426 9.09815 25.0482 9.87138 23.9749 11.0938C23.4502 11.6911 23.0483 12.3858 22.7922 13.1385C22.5361 13.8911 22.4309 14.6868 22.4825 15.4801C23.2917 15.4885 24.0923 15.3131 24.8239 14.9672C25.5555 14.6212 26.1991 14.1138 26.7061 13.4831Z" fill="black"/>
<path d="M51.9863 33.1366H46.0467L44.6203 37.3484H42.1045L47.7304 21.7659H50.3443L55.9702 37.3484H53.4115L51.9863 33.1366ZM46.6619 31.1931H51.37L49.049 24.3577H48.984L46.6619 31.1931Z" fill="black"/>
<path d="M68.1202 31.6683C68.1202 35.1987 66.2305 37.467 63.379 37.467C62.6566 37.5048 61.9382 37.3384 61.306 36.9868C60.6739 36.6353 60.1535 36.1129 59.8044 35.4793H59.7504V41.1065H57.4185V25.9872H59.6757V27.8768H59.7186C60.0837 27.2463 60.6129 26.7265 61.2499 26.3729C61.8869 26.0192 62.6078 25.8448 63.336 25.8683C66.2195 25.8683 68.1202 28.1476 68.1202 31.6683ZM65.7232 31.6683C65.7232 29.3681 64.5345 27.856 62.7209 27.856C60.9391 27.856 59.7407 29.4 59.7407 31.6683C59.7407 33.9574 60.9391 35.4904 62.7209 35.4904C64.5346 35.4904 65.7232 33.9892 65.7232 31.6683H65.7232Z" fill="black"/>
<path d="M80.6251 31.6683C80.6251 35.1987 78.7349 37.467 75.8834 37.467C75.161 37.5048 74.4426 37.3384 73.8104 36.9868C73.1783 36.6353 72.6578 36.1129 72.3088 35.4793H72.2548V41.1065H69.9229V25.9872H72.1801V27.8768H72.223C72.5881 27.2463 73.1173 26.7265 73.7543 26.3729C74.3913 26.0192 75.1122 25.8448 75.8404 25.8683C78.7239 25.8683 80.6251 28.1476 80.6251 31.6683ZM78.2276 31.6683C78.2276 29.3681 77.0389 27.856 75.2253 27.856C73.4435 27.856 72.2451 29.4 72.2451 31.6683C72.2451 33.9574 73.4435 35.4904 75.2253 35.4904C77.0389 35.4904 78.2276 33.9892 78.2276 31.6683Z" fill="black"/>
<path d="M88.8882 33.0068C89.061 34.5521 90.5621 35.5667 92.6135 35.5667C94.5791 35.5667 95.9932 34.552 95.9932 33.1587C95.9932 31.9492 95.1403 31.225 93.1208 30.7287L91.1013 30.2422C88.2399 29.551 86.9116 28.2129 86.9116 26.0414C86.9116 23.3528 89.2546 21.5061 92.5804 21.5061C95.8743 21.5061 98.1316 23.3528 98.2076 26.0414H95.8535C95.7126 24.4863 94.4271 23.5477 92.5485 23.5477C90.6699 23.5477 89.3845 24.4974 89.3845 25.8797C89.3845 26.9813 90.2055 27.6296 92.214 28.1258L93.9308 28.5474C97.1279 29.3035 98.4551 30.5877 98.4551 32.867C98.4551 35.7823 96.1341 37.6082 92.4406 37.6082C88.9849 37.6082 86.6517 35.8252 86.501 33.0067L88.8882 33.0068Z" fill="black"/>
<path d="M103.49 23.2999V25.9885H105.651V27.8352H103.49V34.0983C103.49 35.0713 103.923 35.5247 104.873 35.5247C105.129 35.5203 105.385 35.5023 105.64 35.4708V37.3065C105.213 37.3862 104.779 37.4224 104.345 37.4143C102.044 37.4143 101.147 36.5504 101.147 34.3471V27.8352H99.4956V25.9885H101.147V23.2999H103.49Z" fill="black"/>
<path d="M106.901 31.6695C106.901 28.095 109.006 25.8488 112.289 25.8488C115.583 25.8488 117.679 28.0949 117.679 31.6695C117.679 35.2539 115.594 37.4903 112.289 37.4903C108.985 37.4903 106.901 35.2539 106.901 31.6695ZM115.302 31.6695C115.302 29.2175 114.179 27.7702 112.289 27.7702C110.399 27.7702 109.276 29.2285 109.276 31.6695C109.276 34.1314 110.399 35.5676 112.289 35.5676C114.179 35.5676 115.302 34.1314 115.302 31.6695H115.302Z" fill="black"/>
<path d="M119.602 25.9872H121.826V27.9209H121.88C122.03 27.317 122.384 26.7832 122.882 26.4094C123.379 26.0356 123.99 25.8446 124.612 25.8683C124.881 25.8674 125.149 25.8966 125.411 25.9553V28.1366C125.072 28.0329 124.718 27.9853 124.364 27.9957C124.025 27.9819 123.687 28.0416 123.374 28.1708C123.06 28.2999 122.778 28.4953 122.547 28.7436C122.316 28.9919 122.142 29.2873 122.036 29.6093C121.93 29.9314 121.895 30.2726 121.934 30.6095V37.3481H119.602L119.602 25.9872Z" fill="black"/>
<path d="M136.163 34.0126C135.849 36.0749 133.841 37.4903 131.271 37.4903C127.966 37.4903 125.915 35.276 125.915 31.7235C125.915 28.1599 127.977 25.8488 131.173 25.8488C134.316 25.8488 136.293 28.008 136.293 31.4526V32.2516H128.269V32.3925C128.232 32.8106 128.284 33.2319 128.422 33.6282C128.56 34.0245 128.781 34.3869 129.07 34.6912C129.36 34.9956 129.71 35.235 130.099 35.3935C130.487 35.552 130.905 35.6259 131.325 35.6105C131.876 35.6621 132.429 35.5345 132.902 35.2466C133.374 34.9587 133.741 34.5259 133.948 34.0125L136.163 34.0126ZM128.28 30.6218H133.959C133.98 30.2459 133.923 29.8696 133.792 29.5168C133.661 29.1639 133.458 28.842 133.196 28.5712C132.935 28.3005 132.62 28.0867 132.272 27.9434C131.923 27.8001 131.549 27.7303 131.173 27.7384C130.793 27.7361 130.417 27.8091 130.065 27.953C129.714 28.097 129.394 28.3092 129.125 28.5773C128.856 28.8453 128.643 29.164 128.498 29.5149C128.353 29.8659 128.279 30.242 128.28 30.6218V30.6218Z" fill="black"/>
<path d="M46.37 10.0369C46.8589 10.0019 47.3495 10.0757 47.8064 10.2532C48.2633 10.4307 48.6752 10.7073 49.0122 11.0632C49.3492 11.4191 49.6031 11.8454 49.7554 12.3113C49.9077 12.7772 49.9548 13.2711 49.8931 13.7573C49.8931 16.1494 48.6003 17.5244 46.37 17.5244H43.6655V10.0369H46.37ZM44.8284 16.4655H46.2401C46.5895 16.4864 46.9391 16.4291 47.2635 16.2978C47.588 16.1665 47.879 15.9646 48.1156 15.7066C48.3521 15.4487 48.5281 15.1412 48.6308 14.8067C48.7336 14.4721 48.7604 14.1188 48.7094 13.7726C48.7567 13.4277 48.7271 13.0767 48.6228 12.7445C48.5185 12.4124 48.3421 12.1075 48.1061 11.8516C47.8701 11.5957 47.5804 11.3952 47.2578 11.2644C46.9352 11.1336 46.5877 11.0757 46.2401 11.095H44.8284V16.4655Z" fill="black"/>
<path d="M51.2065 14.6976C51.1709 14.3263 51.2134 13.9517 51.3312 13.5977C51.4489 13.2438 51.6393 12.9183 51.8902 12.6423C52.1411 12.3662 52.447 12.1457 52.7881 11.9948C53.1292 11.8438 53.4981 11.7659 53.8711 11.7659C54.2442 11.7659 54.6131 11.8438 54.9542 11.9948C55.2953 12.1457 55.6012 12.3662 55.852 12.6423C56.1029 12.9183 56.2934 13.2438 56.4111 13.5977C56.5289 13.9517 56.5714 14.3263 56.5358 14.6976C56.572 15.0694 56.5301 15.4445 56.4126 15.7991C56.2952 16.1536 56.1049 16.4796 55.8539 16.7562C55.6029 17.0328 55.2969 17.2538 54.9554 17.405C54.614 17.5563 54.2446 17.6344 53.8711 17.6344C53.4977 17.6344 53.1283 17.5563 52.7869 17.405C52.4454 17.2538 52.1393 17.0328 51.8884 16.7562C51.6374 16.4796 51.4471 16.1536 51.3297 15.7991C51.2122 15.4445 51.1703 15.0694 51.2065 14.6976ZM55.3888 14.6976C55.3888 13.4728 54.8386 12.7566 53.873 12.7566C52.9037 12.7566 52.3584 13.4728 52.3584 14.6977C52.3584 15.9323 52.9037 16.643 53.873 16.643C54.8386 16.643 55.3888 15.9274 55.3888 14.6976H55.3888Z" fill="black"/>
<path d="M63.6204 17.5245H62.4636L61.2958 13.3629H61.2075L60.0446 17.5245H58.8988L57.3413 11.874H58.4724L59.4846 16.1856H59.5679L60.7296 11.874H61.7994L62.9611 16.1856H63.0494L64.0567 11.874H65.1718L63.6204 17.5245Z" fill="black"/>
<path d="M66.4815 11.8736H67.5549V12.7712H67.6383C67.7796 12.4488 68.018 12.1786 68.3203 11.9981C68.6226 11.8177 68.9736 11.736 69.3244 11.7645C69.5994 11.7439 69.8754 11.7853 70.1322 11.8858C70.3889 11.9863 70.6198 12.1433 70.8076 12.3452C70.9954 12.547 71.1354 12.7885 71.2172 13.0518C71.2991 13.3151 71.3206 13.5934 71.2802 13.8661V17.524H70.1651V14.1462C70.1651 13.2381 69.7705 12.7866 68.9458 12.7866C68.7591 12.7779 68.5728 12.8096 68.3995 12.8797C68.2263 12.9497 68.0703 13.0564 67.9421 13.1924C67.814 13.3284 67.7167 13.4905 67.6571 13.6676C67.5975 13.8447 67.5768 14.0326 67.5966 14.2185V17.5241H66.4814L66.4815 11.8736Z" fill="black"/>
<path d="M73.0576 9.66821H74.1728V17.5244H73.0576V9.66821Z" fill="black"/>
<path d="M75.7225 14.6959C75.687 14.3245 75.7295 13.9498 75.8473 13.5959C75.9651 13.2419 76.1556 12.9165 76.4065 12.6404C76.6574 12.3644 76.9633 12.1438 77.3044 11.9929C77.6456 11.8419 78.0145 11.764 78.3875 11.764C78.7606 11.764 79.1295 11.8419 79.4707 11.9929C79.8118 12.1438 80.1177 12.3644 80.3686 12.6404C80.6195 12.9165 80.8099 13.2419 80.9277 13.5959C81.0455 13.9498 81.088 14.3245 81.0525 14.6959C81.0887 15.0676 81.0467 15.4428 80.9292 15.7973C80.8117 16.1518 80.6214 16.4778 80.3704 16.7544C80.1194 17.031 79.8133 17.252 79.4718 17.4032C79.1304 17.5545 78.761 17.6326 78.3875 17.6326C78.0141 17.6326 77.6447 17.5545 77.3032 17.4032C76.9617 17.252 76.6557 17.031 76.4047 16.7544C76.1537 16.4778 75.9634 16.1518 75.8459 15.7973C75.7284 15.4428 75.6864 15.0676 75.7225 14.6959ZM79.9049 14.6959C79.9049 13.471 79.3547 12.7548 78.3891 12.7548C77.4197 12.7548 76.8745 13.471 76.8745 14.6959C76.8745 15.9305 77.4198 16.6412 78.3891 16.6412C79.3547 16.6412 79.9049 15.9256 79.9049 14.6959H79.9049Z" fill="black"/>
<path d="M82.2271 15.9274C82.2271 14.9103 82.9844 14.3239 84.3286 14.2406L85.8592 14.1524V13.6647C85.8592 13.0679 85.4646 12.7309 84.7024 12.7309C84.0799 12.7309 83.6486 12.9594 83.5248 13.3589H82.4452C82.5591 12.3884 83.4721 11.7659 84.7539 11.7659C86.1705 11.7659 86.9695 12.4711 86.9695 13.6647V17.5254H85.896V16.7313H85.8078C85.6287 17.0161 85.3772 17.2483 85.079 17.4042C84.7808 17.5601 84.4466 17.634 84.1105 17.6185C83.8733 17.6431 83.6336 17.6178 83.4068 17.5442C83.1799 17.4705 82.9711 17.3502 82.7936 17.1908C82.6161 17.0315 82.474 16.8368 82.3765 16.6191C82.2789 16.4015 82.228 16.1659 82.2271 15.9274ZM85.8592 15.4446V14.9722L84.4794 15.0604C83.7012 15.1125 83.3483 15.3772 83.3483 15.8753C83.3483 16.3839 83.7895 16.6798 84.3961 16.6798C84.5738 16.6978 84.7534 16.6799 84.924 16.627C85.0947 16.5742 85.253 16.4876 85.3895 16.3724C85.526 16.2571 85.638 16.1156 85.7186 15.9562C85.7993 15.7968 85.8471 15.6228 85.8592 15.4446Z" fill="black"/>
<path d="M88.4346 14.6968C88.4346 12.9113 89.3524 11.7803 90.78 11.7803C91.1332 11.764 91.4836 11.8486 91.7905 12.0241C92.0973 12.1997 92.3478 12.4589 92.5128 12.7716H92.5961V9.66821H93.7113V17.5244H92.6427V16.6317H92.5545C92.3768 16.9423 92.1175 17.1983 91.8047 17.3721C91.492 17.5458 91.1376 17.6307 90.78 17.6175C89.3426 17.6176 88.4346 16.4865 88.4346 14.6968ZM89.5865 14.6968C89.5865 15.8952 90.1514 16.6164 91.0962 16.6164C92.0361 16.6164 92.617 15.8848 92.617 14.7017C92.617 13.524 92.03 12.782 91.0962 12.782C90.1575 12.782 89.5865 13.5081 89.5865 14.6968H89.5865Z" fill="black"/>
<path d="M98.3251 14.6976C98.2896 14.3263 98.3321 13.9517 98.4498 13.5977C98.5676 13.2438 98.758 12.9183 99.0089 12.6423C99.2598 12.3662 99.5656 12.1457 99.9067 11.9948C100.248 11.8438 100.617 11.7659 100.99 11.7659C101.363 11.7659 101.732 11.8438 102.073 11.9948C102.414 12.1457 102.72 12.3662 102.971 12.6423C103.222 12.9183 103.412 13.2438 103.53 13.5977C103.648 13.9517 103.69 14.3263 103.654 14.6976C103.691 15.0694 103.649 15.4445 103.531 15.7991C103.414 16.1536 103.224 16.4796 102.973 16.7562C102.722 17.0328 102.416 17.2538 102.074 17.405C101.733 17.5563 101.363 17.6344 100.99 17.6344C100.616 17.6344 100.247 17.5563 99.9055 17.405C99.564 17.2538 99.258 17.0328 99.007 16.7562C98.7561 16.4796 98.5658 16.1536 98.4483 15.7991C98.3309 15.4445 98.2889 15.0694 98.3251 14.6976ZM102.507 14.6976C102.507 13.4728 101.957 12.7566 100.992 12.7566C100.022 12.7566 99.477 13.4728 99.477 14.6977C99.477 15.9323 100.022 16.643 100.992 16.643C101.957 16.643 102.507 15.9274 102.507 14.6976Z" fill="black"/>
<path d="M105.15 11.8736H106.224V12.7712H106.307C106.449 12.4488 106.687 12.1786 106.989 11.9981C107.292 11.8177 107.643 11.736 107.993 11.7645C108.268 11.7439 108.544 11.7853 108.801 11.8858C109.058 11.9863 109.289 12.1433 109.477 12.3452C109.664 12.547 109.804 12.7885 109.886 13.0518C109.968 13.3151 109.99 13.5934 109.949 13.8661V17.524H108.834V14.1462C108.834 13.2381 108.439 12.7866 107.615 12.7866C107.428 12.7779 107.242 12.8096 107.068 12.8797C106.895 12.9497 106.739 13.0564 106.611 13.1924C106.483 13.3284 106.386 13.4905 106.326 13.6676C106.266 13.8447 106.246 14.0326 106.266 14.2185V17.5241H105.15V11.8736Z" fill="black"/>
<path d="M116.251 10.4672V11.8997H117.475V12.839H116.251V15.7445C116.251 16.3364 116.495 16.5955 117.05 16.5955C117.192 16.5951 117.334 16.5865 117.475 16.5698V17.4987C117.275 17.5345 117.072 17.5535 116.869 17.5556C115.629 17.5556 115.135 17.1194 115.135 16.03V12.8389H114.238V11.8996H115.135V10.4672H116.251Z" fill="black"/>
<path d="M118.999 9.66821H120.104V12.782H120.192C120.34 12.4566 120.585 12.1848 120.894 12.0037C121.202 11.8226 121.559 11.7409 121.915 11.7698C122.188 11.7549 122.462 11.8006 122.716 11.9036C122.97 12.0065 123.198 12.1642 123.383 12.3654C123.569 12.5666 123.708 12.8063 123.791 13.0675C123.874 13.3287 123.897 13.6049 123.861 13.8763V17.5244H122.745V14.1514C122.745 13.2489 122.324 12.7918 121.536 12.7918C121.345 12.7761 121.152 12.8024 120.972 12.869C120.791 12.9356 120.627 13.0408 120.492 13.1772C120.356 13.3137 120.252 13.4781 120.187 13.659C120.122 13.8398 120.097 14.0328 120.114 14.2243V17.5244H118.999L118.999 9.66821Z" fill="black"/>
<path d="M130.363 15.9979C130.211 16.5143 129.883 16.961 129.436 17.2599C128.988 17.5587 128.45 17.6907 127.915 17.6326C127.542 17.6425 127.172 17.5712 126.83 17.4237C126.488 17.2762 126.183 17.0561 125.934 16.7786C125.686 16.5011 125.501 16.1729 125.392 15.8167C125.283 15.4606 125.253 15.085 125.304 14.7161C125.255 14.3461 125.285 13.9697 125.394 13.6125C125.502 13.2553 125.686 12.9256 125.933 12.6456C126.18 12.3657 126.485 12.1421 126.826 11.99C127.167 11.838 127.536 11.7609 127.91 11.7641C129.482 11.7641 130.43 12.8382 130.43 14.6126V15.0017H126.44V15.0642C126.423 15.2715 126.449 15.4802 126.517 15.6769C126.585 15.8736 126.693 16.054 126.835 16.2064C126.976 16.3588 127.148 16.4799 127.34 16.562C127.531 16.644 127.737 16.6852 127.945 16.6829C128.212 16.7149 128.482 16.6669 128.722 16.5449C128.961 16.4229 129.159 16.2325 129.289 15.9979L130.363 15.9979ZM126.44 14.1769H129.294C129.308 13.9873 129.283 13.7968 129.219 13.6177C129.155 13.4386 129.054 13.2749 128.923 13.1371C128.792 12.9992 128.634 12.8903 128.458 12.8173C128.282 12.7443 128.094 12.7088 127.903 12.7132C127.711 12.7107 127.519 12.747 127.341 12.8197C127.162 12.8924 127 13.0001 126.863 13.1365C126.727 13.273 126.619 13.4353 126.547 13.614C126.474 13.7927 126.438 13.9841 126.44 14.1769H126.44Z" fill="black"/>
</svg>
