<svg width="163" height="49" viewBox="0 0 163 49" fill="none" xmlns="http://www.w3.org/2000/svg">
<g clip-path="url(#clip0_5069_8075)">
<g clip-path="url(#clip1_5069_8075)">
<path d="M155.626 48.0592H6.70397C3.42767 48.0592 0.74707 45.3726 0.74707 42.0891V6.26816C0.74707 2.98458 3.42767 0.298008 6.70397 0.298008H155.626C158.903 0.298008 161.583 2.98458 161.583 6.26816V42.0891C161.583 45.3726 158.903 48.0592 155.626 48.0592Z" fill="#0E0E0E" fill-opacity="0.1"/>
<path d="M25.3092 23.3711L12.6255 36.8633C12.626 36.8661 12.6269 36.8685 12.6274 36.8713C13.0164 38.3362 14.3515 39.415 15.9361 39.415C16.5696 39.415 17.1643 39.2434 17.6743 38.9421L17.7148 38.9183L31.9919 30.6616L25.3092 23.3711Z" fill="black"/>
<path d="M25.3092 23.3711L12.6255 36.8633C12.626 36.8661 12.6269 36.8685 12.6274 36.8713C13.0164 38.3362 14.3515 39.415 15.9361 39.415C16.5696 39.415 17.1643 39.2434 17.6743 38.9421L17.7148 38.9183L31.9919 30.6616L25.3092 23.3711" stroke="#0E0E0E" stroke-opacity="0.1" stroke-width="0.73825"/>
<path d="M38.1417 21.0736L38.1295 21.0652L31.9657 17.4841L25.0215 23.6771L31.9899 30.6601L38.1212 27.1145C39.1962 26.5329 39.9259 25.3972 39.9259 24.0875C39.9259 22.7872 39.2059 21.6571 38.1417 21.0736Z" fill="black"/>
<path d="M38.1417 21.0736L38.1295 21.0652L31.9657 17.4841L25.0215 23.6771L31.9899 30.6601L38.1212 27.1145C39.1962 26.5329 39.9259 25.3972 39.9259 24.0875C39.9259 22.7872 39.2059 21.6571 38.1417 21.0736" stroke="#0E0E0E" stroke-opacity="0.1" stroke-width="0.73825"/>
<path d="M12.6251 11.2557C12.5489 11.5375 12.5088 11.8327 12.5088 12.1392V35.9805C12.5088 36.2864 12.5484 36.5826 12.6256 36.8633L25.7458 23.7163L12.6251 11.2557Z" fill="black" stroke="#0E0E0E" stroke-opacity="0.1" stroke-width="0.73825"/>
<path d="M25.4027 24.0595L31.9677 17.4818L17.7068 9.19516C17.1885 8.88401 16.5835 8.70443 15.9361 8.70443C14.3515 8.70443 13.0146 9.78512 12.6255 11.2519C12.625 11.2534 12.625 11.2543 12.625 11.2557L25.4027 24.0595Z" fill="black" stroke="#0E0E0E" stroke-opacity="0.1" stroke-width="0.73825"/>
</g>
<path d="M57.5814 12.5287C57.5814 13.5291 57.2858 14.3257 56.6938 14.92C56.0214 15.6266 55.145 15.9802 54.0676 15.9802C53.0359 15.9802 52.1587 15.622 51.4373 14.9046C50.7146 14.1877 50.354 13.2987 50.354 12.2381C50.354 11.1769 50.7146 10.2885 51.4373 9.57109C52.1587 8.85419 53.0359 8.4955 54.0676 8.4955C54.5796 8.4955 55.0697 8.5958 55.5351 8.79592C56.0004 8.99652 56.3737 9.26279 56.6529 9.59628L56.0246 10.2264C55.5514 9.65968 54.8998 9.37658 54.0676 9.37658C53.3152 9.37658 52.6646 9.64154 52.1155 10.1718C51.5662 10.7027 51.2917 11.391 51.2917 12.2381C51.2917 13.0851 51.5662 13.7735 52.1155 14.3043C52.6646 14.8346 53.3152 15.0996 54.0676 15.0996C54.8659 15.0996 55.5314 14.8332 56.0642 14.2997C56.41 13.9521 56.6101 13.469 56.6635 12.8486H54.0676V11.988H57.5316C57.5651 12.1751 57.5814 12.3547 57.5814 12.5287Z" fill="black"/>
<path d="M57.5814 12.5289H57.4623C57.4613 13.5065 57.1764 14.2658 56.6096 14.8358L56.6083 14.8367L56.6078 14.8377C55.9567 15.52 55.1199 15.8596 54.0676 15.861C53.0634 15.8596 52.2229 15.5163 51.5211 14.8204C50.8208 14.1231 50.4745 13.2719 50.4731 12.2383C50.4745 11.2043 50.8208 10.3535 51.5211 9.65669C52.2229 8.96033 53.0634 8.61657 54.0676 8.61513C54.5642 8.61513 55.0371 8.71221 55.488 8.90576C55.9394 9.10075 56.296 9.35627 56.5617 9.67352L56.6529 9.59651L56.5687 9.51209L55.9404 10.1427L56.0246 10.2266L56.1163 10.1502C55.6211 9.55543 54.9259 9.25561 54.0676 9.2574C53.2873 9.25645 52.6008 9.53585 52.033 10.0863C51.4597 10.6385 51.1716 11.3656 51.1726 12.2383C51.1716 13.111 51.4597 13.8381 52.033 14.3903C52.6008 14.9407 53.2873 15.2201 54.0676 15.2192C54.8923 15.2206 55.5951 14.9403 56.1484 14.3843C56.518 14.013 56.7274 13.4986 56.7823 12.8591L56.7934 12.7294H54.1868V12.1077H57.5316V11.9883L57.4142 12.0093C57.4469 12.1903 57.4623 12.3624 57.4623 12.5289H57.5814H57.7005C57.7005 12.3474 57.6837 12.1609 57.6488 11.9669L57.6312 11.8689H53.9485V12.8488V12.9682H56.6635V12.8488L56.5449 12.8385C56.4923 13.4394 56.3015 13.8918 55.9799 14.2155C55.468 14.7267 54.8398 14.979 54.0676 14.9804C53.3431 14.9794 52.7283 14.7294 52.1983 14.2187C51.6733 13.7098 51.4122 13.0601 51.4109 12.2383C51.4122 11.4164 51.6733 10.7668 52.1983 10.2579C52.7283 9.74719 53.3431 9.49716 54.0676 9.49621C54.8733 9.49812 55.4816 9.76486 55.9335 10.3036L56.0172 10.4034L56.7372 9.68093L56.8144 9.60355L56.7441 9.51997C56.4514 9.17024 56.0614 8.89263 55.582 8.68654C55.1018 8.47985 54.595 8.37633 54.0676 8.37633C53.0085 8.37537 52.0945 8.74851 51.3531 9.4869C50.609 10.2239 50.2339 11.1502 50.2349 12.2383C50.2339 13.3259 50.609 14.2527 51.3536 14.9902C52.0945 15.7281 53.0085 16.1007 54.0676 16.0998C55.1706 16.1007 56.0856 15.7336 56.7799 15.0027L56.6938 14.9202L56.778 15.0046C57.3952 14.3866 57.7014 13.5517 57.7005 12.5289H57.5814Z" fill="black"/>
<path d="M63.0729 9.53631H59.8176V11.8078H62.7533V12.6687H59.8176V14.9403H63.0729V15.8204H58.8999V8.65619H63.0729V9.53631Z" fill="black"/>
<path d="M63.0734 9.53629V9.41689H59.699V11.9272H62.6346V12.549L59.699 12.5493V15.0596H62.9543V15.701H59.0195V8.77558H62.9543V9.53629H63.0734V9.41689V9.53629H63.1926V8.65617V8.53677H58.7812V15.9398H63.1926V14.9402V14.8208H59.9372V12.7881H62.8729V11.8078V11.6884H59.9372V9.6557H63.1926V9.53629H63.0734Z" fill="black"/>
<path d="M66.9464 15.8204H66.0273V9.53631H64.0308V8.65619H68.9429V9.53631H66.9464V15.8204Z" fill="black"/>
<path d="M66.9464 15.8204V15.701H66.1464V9.41689H64.1499V8.77558H68.8238V9.41689H66.8273V15.8204H66.9464V15.701V15.8204H67.0656V9.6557H69.0621V8.65617V8.53677H63.9116V9.53629V9.6557H65.9081V15.9398H66.9464H67.0656V15.8204H66.9464Z" fill="black"/>
<path d="M72.4966 15.8204V8.65619H73.4148V15.8204H72.4966Z" fill="black"/>
<path d="M72.4966 15.8204H72.6157V8.77558H73.2956V15.701H72.4966V15.8204H72.6157H72.4966V15.9398H73.4148H73.5339V8.53677H72.4966H72.3774V15.9398H72.4966V15.8204Z" fill="black"/>
<path d="M77.4898 15.8204H76.5706V9.53631H74.5742V8.65619H79.4863V9.53631H77.4898V15.8204Z" fill="black"/>
<path d="M77.4893 15.8204V15.701H76.6893V9.41689H74.6929V8.77558H79.3666V9.41689H77.3701V15.8204H77.4893V15.701V15.8204H77.6084V9.6557H79.6049V8.65617V8.53677H74.4546V9.53629V9.6557H76.451V15.9398H77.4893H77.6084V15.8204H77.4893Z" fill="black"/>
<path d="M84.2219 14.2946C84.751 14.8314 85.3984 15.0996 86.164 15.0996C86.9296 15.0996 87.5773 14.8314 88.1056 14.2946C88.6351 13.7577 88.9004 13.0715 88.9004 12.2381C88.9004 11.4046 88.6351 10.7184 88.1056 10.1816C87.5773 9.64476 86.9296 9.37658 86.164 9.37658C85.3984 9.37658 84.751 9.64476 84.2219 10.1816C83.6937 10.7184 83.4285 11.4046 83.4285 12.2381C83.4285 13.0715 83.6937 13.7577 84.2219 14.2946ZM88.785 14.8943C88.0822 15.6186 87.2082 15.9802 86.164 15.9802C85.1187 15.9802 84.2451 15.6186 83.5439 14.8943C82.8406 14.1709 82.4907 13.2852 82.4907 12.2381C82.4907 11.1909 82.8406 10.3052 83.5439 9.58183C84.2451 8.85741 85.1187 8.4955 86.164 8.4955C87.2027 8.4955 88.0743 8.85932 88.7804 9.58649C89.4854 10.3137 89.8382 11.1975 89.8382 12.2381C89.8382 13.2852 89.4862 14.1709 88.785 14.8943Z" fill="black"/>
<path d="M84.2214 14.2948L84.1367 14.3787C84.6855 14.937 85.37 15.2206 86.1635 15.2192C86.9565 15.2206 87.642 14.937 88.1898 14.3787C88.7421 13.8199 89.0199 13.0969 89.0191 12.2383C89.0199 11.3797 88.7421 10.6567 88.1898 10.0979C87.642 9.53955 86.9565 9.25597 86.1635 9.2574C85.37 9.25597 84.6855 9.53955 84.1367 10.0979C83.5857 10.6567 83.3074 11.3797 83.3088 12.2383C83.3074 13.0969 83.5857 13.8199 84.1367 14.3787L84.2214 14.2948L84.3061 14.2108C83.8008 13.6954 83.5481 13.047 83.5471 12.2383C83.5481 11.4296 83.8008 10.7812 84.3061 10.2658C84.8162 9.75042 85.4253 9.49764 86.1635 9.49621C86.9011 9.49764 87.5117 9.75042 88.0204 10.2658C88.5267 10.7812 88.7794 11.4296 88.7804 12.2383C88.7794 13.047 88.5267 13.6954 88.0204 14.2108C87.5117 14.7262 86.9011 14.979 86.1635 14.9804C85.4253 14.979 84.8162 14.7262 84.3061 14.2108L84.2214 14.2948ZM88.7845 14.8945L88.6994 14.8116C88.0162 15.513 87.1808 15.8596 86.1635 15.861C85.1457 15.8596 84.3103 15.513 83.6285 14.8116L83.6253 14.8078L83.6285 14.8116C82.9468 14.1077 82.6103 13.2588 82.6094 12.2383C82.6103 11.2178 82.9468 10.3689 83.6285 9.66504C84.3103 8.96355 85.1457 8.61657 86.1635 8.61513C87.1743 8.61657 88.0078 8.96498 88.6947 9.67018C89.3788 10.3773 89.7171 11.2248 89.7186 12.2383C89.7171 13.2588 89.3797 14.1077 88.6994 14.8116L88.7845 14.8945L88.8702 14.9775C89.5924 14.2341 89.9577 13.312 89.9569 12.2383C89.9577 11.1707 89.591 10.2505 88.8654 9.50373C88.1395 8.75412 87.2301 8.37501 86.1635 8.37633C85.0913 8.37501 84.1791 8.75233 83.4578 9.49907V9.4986C82.7341 10.2425 82.3701 11.1646 82.3711 12.2383C82.3701 13.312 82.7341 14.2341 83.4578 14.978L83.461 14.9813L83.4578 14.9775C84.1791 15.7243 85.0913 16.1007 86.1635 16.0998C87.2353 16.1007 88.1474 15.7243 88.8702 14.9775L88.7845 14.8945Z" fill="black"/>
<path d="M91.127 15.8204V8.65619H92.2448L95.7189 14.2294H95.7584L95.7189 12.8488V8.65619H96.638V15.8204H95.6793L92.0447 9.97703H92.0051L92.0447 11.3582V15.8204H91.127Z" fill="black"/>
<path d="M91.127 15.8204H91.2461V8.77558H92.1787L95.6528 14.3488H95.7584H95.8808L95.838 12.847V8.77558H96.5189V15.701H95.7455L92.1108 9.85761H92.0051H91.8828L91.9255 11.3601V15.701H91.127V15.8204H91.2461H91.127V15.9398H92.0447H92.1638V11.3562L92.1243 9.97379L92.0051 9.97701V10.0964H92.0447V9.97701L91.9436 10.0405L95.6132 15.9398H96.638H96.7572V8.53677H95.7189H95.5997V12.8502L95.6393 14.2327L95.7584 14.2294V14.11H95.7189V14.2294L95.8199 14.166L92.3108 8.53677H91.127H91.0078V15.9398H91.127V15.8204Z" fill="black"/>
<path d="M128.489 36.1189H130.712V21.1921H128.489V36.1189ZM148.512 26.5691L145.964 33.0406H145.888L143.243 26.5691H140.848L144.814 35.6142L142.553 40.6455H144.873L150.985 26.5691H148.512ZM135.905 34.4235C135.176 34.4235 134.161 34.0587 134.161 33.1558C134.161 32.0037 135.426 31.562 136.518 31.562C137.496 31.562 137.954 31.7732 138.549 32.0616C138.376 33.4441 137.188 34.4235 135.905 34.4235ZM136.173 26.2425C134.564 26.2425 132.897 26.9533 132.207 28.528L134.18 29.3535C134.602 28.528 135.387 28.2589 136.211 28.2589C137.361 28.2589 138.53 28.9506 138.549 30.1796V30.333C138.146 30.1026 137.285 29.757 136.23 29.757C134.104 29.757 131.938 30.9281 131.938 33.1175C131.938 35.1147 133.682 36.4015 135.636 36.4015C137.131 36.4015 137.954 35.7294 138.473 34.9422H138.549V36.0942H140.695V30.3712C140.695 27.7215 138.722 26.2425 136.173 26.2425ZM122.434 28.3861H119.272V23.2696H122.434C124.096 23.2696 125.04 24.6487 125.04 25.8278C125.04 26.9846 124.096 28.3861 122.434 28.3861ZM122.377 21.1921H117.05V36.1189H119.272V30.4636H122.377C124.841 30.4636 127.263 28.6758 127.263 25.8278C127.263 22.9799 124.841 21.1921 122.377 21.1921ZM93.3301 34.4263C91.7943 34.4263 90.5084 33.1375 90.5084 31.3675C90.5084 29.5789 91.7943 28.2706 93.3301 28.2706C94.8464 28.2706 96.0363 29.5789 96.0363 31.3675C96.0363 33.1375 94.8464 34.4263 93.3301 34.4263ZM95.8827 27.4049H95.8059C95.3071 26.8087 94.3469 26.2701 93.1379 26.2701C90.6043 26.2701 88.2821 28.5014 88.2821 31.3675C88.2821 34.2146 90.6043 36.4267 93.1379 36.4267C94.3469 36.4267 95.3071 35.888 95.8059 35.2728H95.8827V36.0037C95.8827 37.9469 94.8464 38.9855 93.1765 38.9855C91.8138 38.9855 90.9692 38.0042 90.6234 37.1772L88.6851 37.9851C89.2418 39.3316 90.7198 40.986 93.1765 40.986C95.7868 40.986 97.9941 39.4468 97.9941 35.6959V26.5779H95.8827V27.4049ZM99.5294 36.1189H101.756V21.1916H99.5294V36.1189ZM105.038 31.1945C104.98 29.2322 106.554 28.2322 107.687 28.2322C108.57 28.2322 109.318 28.6744 109.567 29.3097L105.038 31.1945ZM111.948 29.5018C111.526 28.3666 110.239 26.2701 107.61 26.2701C105 26.2701 102.831 28.3283 102.831 31.3484C102.831 34.1955 104.98 36.4267 107.859 36.4267C110.182 36.4267 111.526 35.0032 112.082 34.1762L110.355 33.0218C109.779 33.8684 108.992 34.4263 107.859 34.4263C106.727 34.4263 105.921 33.9067 105.403 32.8875L112.178 30.0788L111.948 29.5018ZM57.9685 27.8283V29.9827H63.1123C62.9587 31.1945 62.5557 32.0793 61.9414 32.6949C61.1931 33.4454 60.0222 34.2724 57.9685 34.2724C54.8015 34.2724 52.3257 31.714 52.3257 28.5401C52.3257 25.3661 54.8015 22.8074 57.9685 22.8074C59.6768 22.8074 60.9241 23.4808 61.8455 24.3465L63.3618 22.827C62.0759 21.5956 60.3675 20.653 57.9685 20.653C53.6306 20.653 49.9839 24.1926 49.9839 28.5401C49.9839 32.8875 53.6306 36.4267 57.9685 36.4267C60.3103 36.4267 62.0759 35.6577 63.4577 34.2146C64.878 32.791 65.3197 30.7906 65.3197 29.1749C65.3197 28.6744 65.2814 28.2131 65.2042 27.8283H57.9685ZM71.1677 34.4263C69.6319 34.4263 68.3074 33.1566 68.3074 31.3484C68.3074 29.5209 69.6319 28.2706 71.1677 28.2706C72.7029 28.2706 74.0274 29.5209 74.0274 31.3484C74.0274 33.1566 72.7029 34.4263 71.1677 34.4263ZM71.1677 26.2701C68.3651 26.2701 66.081 28.4052 66.081 31.3484C66.081 34.2724 68.3651 36.4267 71.1677 36.4267C73.9697 36.4267 76.2538 34.2724 76.2538 31.3484C76.2538 28.4052 73.9697 26.2701 71.1677 26.2701ZM82.2632 34.4263C80.728 34.4263 79.4035 33.1566 79.4035 31.3484C79.4035 29.5209 80.728 28.2706 82.2632 28.2706C83.7986 28.2706 85.123 29.5209 85.123 31.3484C85.123 33.1566 83.7986 34.4263 82.2632 34.4263ZM82.2632 26.2701C79.4608 26.2701 77.1771 28.4052 77.1771 31.3484C77.1771 34.2724 79.4608 36.4267 82.2632 36.4267C85.0654 36.4267 87.3495 34.2724 87.3495 31.3484C87.3495 28.4052 85.0654 26.2701 82.2632 26.2701Z" fill="black"/>
</g>
<defs>
<clipPath id="clip0_5069_8075">
<rect width="161.194" height="48" fill="white" transform="translate(0.968262 0.178711)"/>
</clipPath>
<clipPath id="clip1_5069_8075">
<rect width="161.194" height="48" fill="white" transform="translate(0.62793 0.178589)"/>
</clipPath>
</defs>
</svg>
