<svg width="251" height="233" viewBox="0 0 251 233" fill="none" xmlns="http://www.w3.org/2000/svg">
<path d="M171.014 102.46V228.51" stroke="#2DBA8D" stroke-width="8.32464" stroke-linecap="round"/>
<path d="M227.039 164.703V227.904" stroke="#3668DD" stroke-width="8.32464" stroke-linecap="round"/>
<path d="M49.6187 164.703V228.024" stroke="#FF7833" stroke-width="8.32464" stroke-linecap="round"/>
<path d="M151.351 102.46V228.51" stroke="#2DBA8D" stroke-width="8.32464" stroke-linecap="round"/>
<path d="M207.376 164.703V227.904" stroke="#3668DD" stroke-width="8.32464" stroke-linecap="round"/>
<path d="M77.8159 164.703V228.024" stroke="#FF7833" stroke-width="8.32464" stroke-linecap="round"/>
<path d="M93.4204 97.207C100.905 76.5096 85.5723 54.6602 63.5631 54.6602H56.6912C40.6978 54.6602 26.5596 65.0523 21.7861 80.3167L17.7231 93.3091C10.3923 116.751 12.265 142.106 22.9605 164.216L27.9677 174.568C34.003 187.045 46.6421 194.971 60.5021 194.971H66.141C89.7305 194.971 105.428 170.224 95.5682 148.619C88.2007 132.474 87.3759 113.922 93.4204 97.207Z" fill="#FF7833" stroke="#FF7833" stroke-width="10.0812"/>
<rect x="188.624" y="106.741" width="57.3326" height="93.8483" rx="28.6663" fill="#3668DD" stroke="#3668DD" stroke-width="10.0812"/>
<rect x="115.55" y="36.518" width="91.0394" height="91.0394" rx="45.5197" fill="#2DBA8D" stroke="#2DBA8D" stroke-width="10.0812"/>
<circle cx="148.807" cy="12.2104" r="6.19504" fill="#2DBA8D" stroke="#2DBA8D" stroke-width="10.0812"/>
<path d="M111.443 185.503V228.513" stroke="#3668DD" stroke-width="8.32464" stroke-linecap="round"/>
<path d="M92.0195 185.503V228.513" stroke="#3668DD" stroke-width="8.32464" stroke-linecap="round"/>
<rect x="71.9312" y="108.684" width="60.6783" height="91.202" rx="30.3391" fill="#3668DD" stroke="#3668DD" stroke-width="10.0812"/>
<circle cx="101.731" cy="81.4455" r="11.6087" fill="#3668DD" stroke="#3668DD" stroke-width="10.0812"/>
<circle cx="217.26" cy="87.2359" r="6.19504" fill="#3668DD" stroke="#3668DD" stroke-width="10.0812"/>
<circle cx="15.1958" cy="15.1958" r="10.1552" transform="matrix(-1 0 0 1 76.3315 11.8843)" fill="#FF7833" stroke="#FF7833" stroke-width="10.0812"/>
</svg>
