<svg width="344" height="275" viewBox="0 0 344 275" fill="none" xmlns="http://www.w3.org/2000/svg">
<mask id="mask0_3198_18094" style="mask-type:alpha" maskUnits="userSpaceOnUse" x="0" y="0" width="275" height="275">
<circle cx="137.5" cy="137.5" r="137.5" fill="#D9D9D9"/>
</mask>
<g mask="url(#mask0_3198_18094)">
<path d="M135.131 188.816L136.466 160.335C136.507 159.454 136.838 158.612 137.408 157.939L151.681 141.07C152.526 140.072 153.805 139.55 155.108 139.672L197.258 143.623C199.373 143.822 200.964 145.639 200.881 147.762L198.679 204.133C198.596 206.28 196.831 207.977 194.682 207.977H159.824C158.983 207.977 158.162 207.711 157.48 207.218L136.782 192.245C135.688 191.454 135.067 190.164 135.131 188.816Z" fill="#C9834C" stroke="#1E1E1E" stroke-width="4" stroke-linecap="round"/>
<path d="M259.381 89.9287L180.983 148.14C179.313 149.38 178.872 151.693 179.969 153.46L184.797 161.244C185.995 163.176 188.559 163.722 190.441 162.447L273.596 106.095C275.472 104.824 275.918 102.251 274.581 100.422L269.506 93.4859C269.191 93.0554 268.793 92.6922 268.336 92.4177L263.823 89.7102C262.435 88.8771 260.681 88.9633 259.381 89.9287Z" fill="#935D3F" stroke="#1E1E1E" stroke-width="4" stroke-linecap="round"/>
<path d="M285.379 141.273L218.601 74.4955C217.851 73.7453 216.834 73.3239 215.773 73.3239L205.097 73.3239C203.8 73.3239 202.584 73.9526 201.834 75.0105L169.906 120.046C168.778 121.637 168.962 123.809 170.341 125.188L236.464 191.311C237.714 192.561 239.637 192.842 241.193 192.002L248.41 188.103C248.82 187.882 249.188 187.591 249.497 187.244L285.538 146.761C286.947 145.179 286.877 142.772 285.379 141.273Z" fill="#AAA2B7" stroke="#1E1E1E" stroke-width="4" stroke-linecap="round"/>
<path d="M285.458 141.35L265.994 121.889C264.432 120.327 261.899 120.327 260.337 121.889L216.517 165.708C214.955 167.271 214.955 169.803 216.518 171.366L236.774 191.619C237.872 192.717 239.505 193.08 240.964 192.552L249.018 189.635C249.68 189.395 250.268 188.985 250.721 188.445L285.694 146.749C287.027 145.16 286.924 142.817 285.458 141.35Z" fill="#575E81" stroke="#1E1E1E" stroke-width="4" stroke-linecap="round"/>
<path d="M91.0976 197.847L99.2216 186C99.6437 185.384 99.892 184.652 99.8979 183.906C100.072 161.86 76.3233 151.715 62.2978 148.901C60.8656 148.614 59.4201 149.207 58.53 150.365L37.6029 177.595C29.5272 188.103 25.8844 201.355 27.4539 214.514C28.7621 225.483 33.6147 235.724 41.2744 243.683L53.68 256.573C54.5031 257.428 55.6657 257.887 56.8436 257.74C76.7521 255.256 94.1973 236.288 101.781 225.209C102.62 223.983 102.642 222.39 101.899 221.104L90.9323 202.109C90.1622 200.775 90.2264 199.117 91.0976 197.847Z" fill="#3568DD" stroke="#1E1E1E" stroke-width="4" stroke-linecap="round"/>
<path d="M174.489 142.73L27.3322 237.639C25.4987 238.821 24.951 241.255 26.101 243.109L30.8551 250.773C32.031 252.669 34.53 253.236 36.4092 252.034L184.891 157.085C186.89 155.806 187.343 153.077 185.863 151.221L179.785 143.598C178.504 141.992 176.215 141.617 174.489 142.73Z" fill="#935D3F" stroke="#1E1E1E" stroke-width="4" stroke-linecap="round"/>
<path d="M42.8261 169.016L41.1158 163.03C40.7493 161.747 41.0465 160.366 41.9084 159.347L55.6808 143.07C56.5257 142.072 57.8055 141.55 59.1078 141.672L101.258 145.623C103.373 145.822 104.964 147.639 104.881 149.762L102.919 199.999C102.778 203.605 98.3105 205.196 95.9227 202.489L73.4862 177.061C72.8678 176.361 72.0237 175.898 71.1002 175.755L46.0588 171.869C44.5168 171.63 43.2548 170.516 42.8261 169.016Z" fill="#C9834C" stroke="#1E1E1E" stroke-width="4" stroke-linecap="round"/>
<path d="M80.0293 137.477L168.264 137.477L179.764 229.477H80.0293L80.0293 137.477Z" fill="#8C983D" stroke="#1E1E1E" stroke-width="4"/>
<path d="M59.0017 283.704L76.0365 237.805C76.3318 237.009 77.0969 236.486 77.9453 236.501L164.205 237.955C165.008 237.968 165.725 238.46 166.026 239.205L183.746 283.039C184.173 284.095 183.633 285.294 182.559 285.674L152.599 296.275C152.227 296.407 151.825 296.426 151.443 296.329L142.509 294.08C141.893 293.925 141.387 293.487 141.146 292.899L131.038 268.219C130.73 267.468 129.999 266.977 129.187 266.977H114.418C113.583 266.977 112.836 267.496 112.544 268.278L102.597 294.953C102.266 295.841 101.358 296.375 100.422 296.232L65.6215 290.924C65.2352 290.865 64.8746 290.694 64.5843 290.433L59.538 285.886C58.929 285.337 58.7165 284.472 59.0017 283.704Z" fill="#7E373C" stroke="#1E1E1E" stroke-width="4" stroke-linecap="round"/>
<path d="M92.849 203.011L101.494 197.497C102.807 196.66 103.524 195.115 103.248 193.583C96.982 158.745 61.931 154.507 42.2976 157.104C40.3893 157.357 39.0288 159.019 39.0288 160.944V172.652C39.0288 175.037 41.1188 176.878 43.501 176.765C69.0616 175.55 81.5966 189.741 86.2091 200.626C87.3003 203.201 90.4909 204.516 92.849 203.011Z" fill="#FECC65" stroke="#1E1E1E" stroke-width="4" stroke-linecap="round"/>
<rect x="71.0293" y="81.4769" width="78" height="76" fill="#3568DD" stroke="#1E1E1E" stroke-width="4"/>
<path d="M147.029 140.977C151.829 138.977 146.696 110.477 143.529 96.4768H165.029L170.029 153.477L141.529 191.477L139.529 184.477L132.529 205.977L126.529 201.977L105.529 218.977L88.5293 203.977L87.5293 208.477L74.0294 194.477C49.0294 170.977 65.0294 157.477 67.5294 153.477C70.0294 149.477 82.0294 134.977 101.529 131.977C121.029 128.977 141.029 143.477 147.029 140.977Z" fill="#10307A" stroke="#1E1E1E" stroke-width="4" stroke-linecap="round"/>
<path d="M80.029 171.977C78.8623 163.643 84.729 147.677 117.529 150.477" stroke="#1E1E1E" stroke-width="4" stroke-linecap="round"/>
<path d="M78.0292 110.477C83.0293 108.977 87.1692 109.216 90.9116 111.376" stroke="#1E1E1E" stroke-width="5" stroke-linecap="round"/>
<path d="M102.029 109.048C105.749 104.945 112.029 102.477 118.529 103.477" stroke="#1E1E1E" stroke-width="5" stroke-linecap="round"/>
<path d="M70.5293 243.937V225.866C70.5293 224.749 71.4444 223.848 72.5614 223.866L171.061 225.445C172.153 225.463 173.029 226.353 173.029 227.445V242.016C173.029 243.105 172.157 243.994 171.068 244.015L72.5683 245.937C71.4487 245.959 70.5293 245.057 70.5293 243.937Z" fill="#935D3F" stroke="#1E1E1E" stroke-width="4" stroke-linecap="round"/>
<path d="M100.885 224.834L133.874 224.834L132.174 247.477H99.1851L100.885 224.834Z" fill="#D2974A" stroke="#1E1E1E" stroke-width="4"/>
<path d="M106.029 45.4769C98.5293 52.9769 83.2293 68.5769 82.0293 70.9769L183.029 109.977C187.696 99.4769 191.729 73.1769 170.529 51.9769C149.329 30.7769 118.696 38.8102 106.029 45.4769Z" fill="#FF5E0D" stroke="#1E1E1E" stroke-width="4" stroke-linecap="round"/>
<path d="M170.097 202.348L158.881 184.183C158.335 183.298 158.147 182.225 158.411 181.22C163.931 160.118 183.394 155.011 196.917 155.801C198.243 155.879 199.401 156.68 200.022 157.854L217.812 191.486C224.293 203.74 225.062 218.223 219.913 231.094C216.095 240.639 209.266 248.677 200.463 253.986L184.133 263.836C183.117 264.449 181.876 264.589 180.772 264.153C162.518 256.949 152.281 238.813 147.93 226.666C147.356 225.064 147.945 223.299 149.313 222.287L169.073 207.665C170.744 206.428 171.189 204.117 170.097 202.348Z" fill="#3568DD" stroke="#1E1E1E" stroke-width="4" stroke-linecap="round"/>
<path d="M57.2575 114.605C62.8028 119.284 70.4158 125.557 71.0293 126.477V111.741C71.0293 109.706 72.0248 107.74 73.3248 106.175C75.521 103.529 79.0871 99.0998 90.0293 92.4769C103.815 84.1332 137.286 97.9152 156.575 108.013C160.078 109.846 162.523 113.177 163.39 117.035L170.529 148.834L190.43 134.125C192.425 132.65 193.8 130.487 194.289 128.055L197.889 110.162C198.305 108.092 198.068 105.926 197.121 104.039C186.309 82.4956 171.991 76.8237 137.029 61.9769C107.829 49.5769 75.196 66.1436 62.5293 75.9769L54.4897 105.597C53.595 108.893 54.6469 112.403 57.2575 114.605Z" fill="#FF7835" stroke="#1E1E1E" stroke-width="4" stroke-linecap="round"/>
<path d="M81.5293 109.977H88.5293V119.477C88.5293 121.41 86.9623 122.977 85.0293 122.977C83.0963 122.977 81.5293 121.41 81.5293 119.477V109.977Z" fill="#1E1E1E" stroke="#1E1E1E"/>
<path d="M105.529 116.477V105.867L112.529 104.117V116.477C112.529 118.41 110.962 119.977 109.029 119.977C107.096 119.977 105.529 118.41 105.529 116.477Z" fill="#1E1E1E" stroke="#1E1E1E"/>
<path d="M153.327 186.365L144.682 180.85C143.369 180.013 142.652 178.469 142.927 176.936C149.194 142.098 184.245 137.86 203.878 140.457C205.787 140.71 207.147 142.372 207.147 144.297V156.005C207.147 158.39 205.057 160.231 202.675 160.118C177.114 158.903 164.579 173.094 159.967 183.979C158.875 186.555 155.685 187.869 153.327 186.365Z" fill="#FECC65" stroke="#1E1E1E" stroke-width="4" stroke-linecap="round"/>
<path d="M70.6486 66.1984L69.9574 64.9169C69.1694 63.4558 69.7132 61.6316 71.2128 60.9193C86.4331 53.69 116.529 45.6635 116.529 55.2583C116.529 63.0833 94.6361 80.6633 84.0072 87.6972C82.6427 88.6002 80.8349 88.1565 79.9685 86.7684L77.99 83.5985C77.1642 82.2755 77.5059 80.5589 78.8833 79.8276C83.481 77.3866 90.3641 74.7856 90.0293 68.7583C89.6822 62.5107 80.9023 64.8466 74.6655 67.5339C73.1771 68.1752 71.418 67.6249 70.6486 66.1984Z" fill="white" stroke="#1E1E1E" stroke-width="4" stroke-linecap="round"/>
</g>
<circle cx="137.5" cy="137.5" r="129.5" stroke="#6EB4EF" stroke-width="16"/>
<circle cx="137.5" cy="137.5" r="129.5" stroke="#DAEAFB" stroke-width="16"/>
<mask id="mask1_3198_18094" style="mask-type:alpha" maskUnits="userSpaceOnUse" x="153" y="72" width="190" height="203">
<path d="M209.854 219.284L155.949 243.002C152.823 244.378 152.748 248.786 155.825 250.268L160.964 252.742C161.32 252.913 161.647 253.136 161.937 253.402L173.681 264.207C173.893 264.402 174.125 264.573 174.374 264.718L189.802 273.718C191.143 274.5 192.816 274.436 194.093 273.553L304.362 197.287C305.099 196.777 305.644 196.035 305.909 195.179L342.398 77.1817C343.193 74.6084 341.27 72 338.576 72H253.033C251.015 72 249.313 73.5032 249.064 75.5058L234.176 195.089C234.062 196.002 233.637 196.847 232.973 197.484L211.01 218.512C210.672 218.835 210.281 219.096 209.854 219.284Z" fill="#D9D9D9"/>
</mask>
<g mask="url(#mask1_3198_18094)">
<path d="M134.601 188.047L135.936 159.566C135.978 158.685 136.309 157.843 136.878 157.17L151.152 140.301C151.996 139.303 153.276 138.781 154.578 138.903L196.729 142.854C198.844 143.053 200.435 144.87 200.352 146.993L198.15 203.364C198.066 205.511 196.302 207.208 194.153 207.208H159.295C158.453 207.208 157.633 206.942 156.951 206.449L136.252 191.476C135.159 190.685 134.538 189.395 134.601 188.047Z" fill="#C9834C" stroke="#1E1E1E" stroke-width="4" stroke-linecap="round"/>
<path d="M258.851 89.1596L180.454 147.371C178.784 148.611 178.343 150.924 179.439 152.691L184.268 160.475C185.466 162.407 188.03 162.953 189.911 161.678L273.067 105.326C274.943 104.055 275.389 101.482 274.051 99.6532L268.977 92.7169C268.662 92.2863 268.264 91.9232 267.807 91.6487L263.294 88.9412C261.906 88.108 260.152 88.1943 258.851 89.1596Z" fill="#935D3F" stroke="#1E1E1E" stroke-width="4" stroke-linecap="round"/>
<path d="M284.849 140.504L218.072 73.7264C217.322 72.9763 216.305 72.5549 215.244 72.5548L204.567 72.5549C203.271 72.5549 202.054 73.1835 201.304 74.2415L169.377 119.277C168.249 120.868 168.433 123.04 169.811 124.419L235.934 190.542C237.185 191.792 239.108 192.073 240.664 191.233L247.881 187.334C248.291 187.113 248.658 186.822 248.968 186.475L285.008 145.992C286.418 144.41 286.348 142.003 284.849 140.504Z" fill="#AAA2B7" stroke="#1E1E1E" stroke-width="4" stroke-linecap="round"/>
<path d="M215.988 170.596L237.153 191.758C237.732 192.338 238.476 192.725 239.284 192.868L260.66 196.65C261.904 196.87 263.178 196.49 264.098 195.625L299.802 162.038C301.324 160.606 301.487 158.243 300.176 156.615L288.191 141.736C288.064 141.579 287.925 141.431 287.776 141.295L265.459 120.874C263.88 119.429 261.444 119.484 259.93 120.997L215.988 164.939C214.426 166.501 214.426 169.034 215.988 170.596Z" fill="#575E81" stroke="#1E1E1E" stroke-width="4" stroke-linecap="round"/>
<path d="M173.96 141.961L26.8029 236.87C24.9694 238.052 24.4217 240.486 25.5717 242.34L30.3258 250.004C31.5017 251.899 34.0007 252.467 35.8799 251.265L184.361 156.316C186.361 155.037 186.814 152.308 185.334 150.452L179.256 142.829C177.975 141.223 175.686 140.848 173.96 141.961Z" fill="#935D3F" stroke="#1E1E1E" stroke-width="4" stroke-linecap="round"/>
<path d="M79.5 136.708L167.734 136.708L179.234 228.708H79.5L79.5 136.708Z" fill="#8C983D" stroke="#1E1E1E" stroke-width="4"/>
<path d="M146.5 140.208C151.3 138.208 146.167 109.708 143 95.7078H164.5L169.5 152.708L141 190.708L139 183.708L132 205.208L126 201.208L105 218.208L88 203.208L87 207.708L73.5001 193.708C48.5001 170.208 64.5001 156.708 67.0001 152.708C69.5001 148.708 81.5001 134.208 101 131.208C120.5 128.208 140.5 142.708 146.5 140.208Z" fill="#10307A" stroke="#1E1E1E" stroke-width="4" stroke-linecap="round"/>
<path d="M105.5 44.7078C98 52.2078 82.7 67.8078 81.5 70.2078L182.5 109.208C187.167 98.7078 191.2 72.4078 170 51.2078C148.8 30.0078 118.167 38.0412 105.5 44.7078Z" fill="#FF5E0D" stroke="#1E1E1E" stroke-width="4" stroke-linecap="round"/>
<path d="M169.568 201.579L158.352 183.414C157.805 182.529 157.618 181.456 157.881 180.451C163.402 159.349 182.864 154.242 196.388 155.032C197.714 155.11 198.872 155.911 199.493 157.085L217.282 190.717C223.764 202.971 224.532 217.454 219.384 230.325C215.566 239.87 208.737 247.908 199.934 253.217L183.604 263.067C182.588 263.68 181.346 263.82 180.242 263.384C161.989 256.18 151.751 238.044 147.401 225.897C146.827 224.295 147.416 222.53 148.784 221.518L168.544 206.895C170.215 205.659 170.66 203.348 169.568 201.579Z" fill="#3568DD" stroke="#1E1E1E" stroke-width="4" stroke-linecap="round"/>
<path d="M56.7282 113.836C62.2735 118.515 69.8865 124.788 70.5 125.708V110.972C70.5 108.937 71.4955 106.971 72.7955 105.405C74.9917 102.76 78.5578 98.3308 89.5 91.7079C103.285 83.3641 136.756 97.1462 156.046 107.244C159.549 109.077 161.994 112.408 162.86 116.266L170 148.065L189.9 133.356C191.895 131.881 193.271 129.718 193.76 127.286L197.359 109.393C197.776 107.323 197.539 105.157 196.592 103.27C185.78 81.7266 171.462 76.0547 136.5 61.2079C107.3 48.8079 74.6667 65.3746 62 75.2079L53.9604 104.828C53.0657 108.124 54.1176 111.634 56.7282 113.836Z" fill="#FF7835" stroke="#1E1E1E" stroke-width="4" stroke-linecap="round"/>
<path d="M152.798 185.596L144.153 180.081C142.84 179.244 142.122 177.7 142.398 176.167C148.664 141.329 183.715 137.091 203.349 139.688C205.257 139.941 206.618 141.603 206.618 143.528V155.236C206.618 157.621 204.528 159.462 202.145 159.349C176.585 158.134 164.05 172.325 159.437 183.21C158.346 185.786 155.156 187.1 152.798 185.596Z" fill="#FECC65" stroke="#1E1E1E" stroke-width="4" stroke-linecap="round"/>
</g>
</svg>
