<svg width="280" height="240" viewBox="0 0 280 240" fill="none" xmlns="http://www.w3.org/2000/svg">
<g clip-path="url(#clip0_6818_10464)">
<path d="M79.3339 117.47C81.531 113.692 86.9881 113.692 89.1851 117.47L96.8341 130.624C97.3308 131.478 98.0411 132.188 98.8953 132.685L112.049 140.334C115.827 142.531 115.827 147.988 112.049 150.185L98.8953 157.834C98.0411 158.331 97.3308 159.041 96.8341 159.895L89.1851 173.049C86.9881 176.827 81.5309 176.827 79.3339 173.049L71.685 159.895C71.1882 159.041 70.4779 158.331 69.6237 157.834L56.4702 150.185C52.6922 147.988 52.6922 142.531 56.4702 140.334L69.6237 132.685C70.4779 132.188 71.1882 131.478 71.685 130.624L79.3339 117.47Z" fill="#FFC93E" stroke="#191919" stroke-width="2"/>
<path d="M177.918 213.887C176.399 211.256 177.3 207.892 179.931 206.374L206.778 190.874C209.408 189.355 212.772 190.256 214.291 192.887C215.81 195.517 214.908 198.881 212.278 200.4L185.431 215.9C182.8 217.419 179.437 216.517 177.918 213.887Z" fill="#676B73" stroke="#191919" stroke-width="2"/>
<mask id="path-3-inside-1_6818_10464" fill="white">
<path fill-rule="evenodd" clip-rule="evenodd" d="M218.948 153.772C204.306 128.411 206.417 96.4037 199.682 67.9039C198.085 61.1458 195.489 54.5035 191.838 48.1805C171.692 13.2868 127.074 1.33141 92.1805 21.4773C57.2869 41.6231 45.3314 86.2414 65.4773 121.135C68.8882 127.043 73.0007 132.293 77.6488 136.842C98.8437 157.582 127.95 172.068 142.778 197.749C146.355 203.945 154.278 206.068 160.474 202.491L214.207 171.468C220.403 167.891 222.526 159.968 218.948 153.772Z"/>
</mask>
<path fill-rule="evenodd" clip-rule="evenodd" d="M218.948 153.772C204.306 128.411 206.417 96.4037 199.682 67.9039C198.085 61.1458 195.489 54.5035 191.838 48.1805C171.692 13.2868 127.074 1.33141 92.1805 21.4773C57.2869 41.6231 45.3314 86.2414 65.4773 121.135C68.8882 127.043 73.0007 132.293 77.6488 136.842C98.8437 157.582 127.95 172.068 142.778 197.749C146.355 203.945 154.278 206.068 160.474 202.491L214.207 171.468C220.403 167.891 222.526 159.968 218.948 153.772Z" fill="#FFE773"/>
<path d="M199.682 67.9039L197.736 68.3638L199.682 67.9039ZM190.106 49.1805C193.658 55.333 196.183 61.7932 197.736 68.3638L201.629 67.444C199.987 60.4984 197.319 53.6739 193.57 47.1805L190.106 49.1805ZM93.1805 23.2093C127.118 3.61574 170.513 15.2434 190.106 49.1805L193.57 47.1805C172.872 11.3303 127.031 -0.952926 91.1805 19.7452L93.1805 23.2093ZM67.2093 120.135C47.6158 86.198 59.2435 42.8029 93.1805 23.2093L91.1805 19.7452C55.3303 40.4433 43.0471 86.2848 63.7452 122.135L67.2093 120.135ZM79.0476 135.412C74.5284 130.99 70.5284 125.884 67.2093 120.135L63.7452 122.135C67.2481 128.202 71.4731 133.597 76.25 138.271L79.0476 135.412ZM159.474 200.759C154.234 203.784 147.535 201.989 144.51 196.749L141.045 198.749C145.175 205.902 154.321 208.353 161.474 204.223L159.474 200.759ZM213.207 169.736L159.474 200.759L161.474 204.223L215.207 173.2L213.207 169.736ZM217.216 154.772C220.241 160.012 218.446 166.711 213.207 169.736L215.207 173.2C222.359 169.071 224.81 159.925 220.68 152.772L217.216 154.772ZM76.25 138.271C86.9414 148.733 99.7107 157.691 111.352 167.004C123.088 176.394 133.826 186.245 141.045 198.749L144.51 196.749C136.902 183.572 125.673 173.34 113.851 163.881C101.933 154.346 89.5511 145.69 79.0476 135.412L76.25 138.271ZM197.736 68.3638C201.077 82.5053 202.199 97.378 204.371 112.303C206.524 127.1 209.699 141.752 217.216 154.772L220.68 152.772C213.555 140.431 210.464 126.399 208.329 111.727C206.212 97.183 205.022 81.8023 201.629 67.444L197.736 68.3638Z" fill="#191919" mask="url(#path-3-inside-1_6818_10464)"/>
<path d="M152.747 104.289L144.328 135.708" stroke="#191919" stroke-width="2" stroke-linecap="round"/>
<path d="M158.247 113.815L149.828 145.234" stroke="#191919" stroke-width="2" stroke-linecap="round"/>
<path d="M163.746 123.341L155.327 154.76" stroke="#191919" stroke-width="2" stroke-linecap="round"/>
<path d="M176.173 227.177C174.416 224.133 175.459 220.24 178.503 218.483L218.299 195.506C221.343 193.749 225.236 194.792 226.993 197.836C228.124 199.795 228.13 202.207 227.01 204.172L214.85 225.487C213.077 228.594 209.768 230.504 206.191 230.486L181.652 230.359C179.39 230.347 177.304 229.136 176.173 227.177Z" fill="#676B73" stroke="#191919" stroke-width="2"/>
<path d="M171.418 202.628C169.899 199.998 170.8 196.634 173.431 195.115L200.278 179.615C202.908 178.097 206.272 178.998 207.791 181.628C209.31 184.259 208.408 187.623 205.778 189.142L178.931 204.642C176.3 206.16 172.937 205.259 171.418 202.628Z" fill="#676B73" stroke="#191919" stroke-width="2"/>
<path d="M167.775 212.631C166.828 210.989 167.39 208.891 169.031 207.943L213.907 182.034C215.549 181.086 217.648 181.648 218.595 183.29C219.543 184.931 218.981 187.03 217.339 187.978L172.463 213.887C170.822 214.835 168.723 214.272 167.775 212.631Z" fill="#676B73" stroke="#191919" stroke-width="2"/>
<path d="M160.82 200.585C159.873 198.943 160.435 196.845 162.076 195.897L206.952 169.988C208.594 169.04 210.692 169.603 211.64 171.244C212.588 172.885 212.025 174.984 210.384 175.932L165.508 201.841C163.867 202.789 161.768 202.226 160.82 200.585Z" fill="#676B73" stroke="#191919" stroke-width="2"/>
<path d="M163.354 32.4146C166.539 35.0601 168.602 38.3794 169.396 41.5702C170.191 44.7616 169.706 47.7496 167.924 49.8949C166.142 52.0402 163.293 53.0653 160.01 52.8702C156.728 52.6751 153.086 51.2554 149.901 48.6098C146.717 45.9643 144.653 42.645 143.859 39.4542C143.065 36.2628 143.55 33.2748 145.332 31.1295C147.113 28.9842 149.962 27.9591 153.245 28.1542C156.527 28.3493 160.169 29.769 163.354 32.4146Z" fill="white" stroke="#191919" stroke-width="2"/>
<circle cx="179.012" cy="62.3768" r="6.74387" transform="rotate(-60 179.012 62.3768)" fill="white" stroke="#191919" stroke-width="2"/>
<path d="M219.047 26.6446C220.251 24.5729 223.244 24.5729 224.449 26.6446L226.019 29.3457C226.292 29.8141 226.681 30.2036 227.15 30.476L229.851 32.0467C231.922 33.2514 231.922 36.2438 229.851 37.4485L227.15 39.0193C226.681 39.2917 226.292 39.6812 226.019 40.1496L224.449 42.8507C223.244 44.9223 220.251 44.9223 219.047 42.8507L217.476 40.1496C217.204 39.6812 216.814 39.2917 216.346 39.0193L213.645 37.4485C211.573 36.2438 211.573 33.2514 213.645 32.0467L216.346 30.476C216.814 30.2036 217.204 29.8141 217.476 29.3457L219.047 26.6446Z" fill="#FF7A00" stroke="#191919" stroke-width="2"/>
<path d="M69.0467 121.645C70.2514 119.573 73.2438 119.573 74.4485 121.645L76.0193 124.346C76.2917 124.814 76.6812 125.204 77.1496 125.476L79.8507 127.047C81.9223 128.251 81.9223 131.244 79.8507 132.449L77.1496 134.019C76.6812 134.292 76.2917 134.681 76.0193 135.15L74.4485 137.851C73.2438 139.922 70.2514 139.922 69.0467 137.851L67.476 135.15C67.2036 134.681 66.8141 134.292 66.3457 134.019L63.6446 132.449C61.5729 131.244 61.5729 128.251 63.6446 127.047L66.3457 125.476C66.8141 125.204 67.2036 124.814 67.476 124.346L69.0467 121.645Z" fill="#FF7A00" stroke="#191919" stroke-width="2"/>
</g>
<defs>
<clipPath id="clip0_6818_10464">
<rect width="280" height="240" fill="white"/>
</clipPath>
</defs>
</svg>
