<svg width="604" height="605" viewBox="0 0 604 605" fill="none" xmlns="http://www.w3.org/2000/svg">
<path d="M176.845 75.0178C231.702 -23.0811 372.928 -23.0452 427.835 75.0817L443.605 103.265C455.773 125.011 473.384 143.226 494.711 156.122L533.542 179.603C626.066 235.552 626.1 369.704 533.605 425.606L494.786 449.067C473.465 461.953 455.864 480.158 443.707 501.898L427.951 530.074C373.094 628.173 231.868 628.137 176.961 530.01L161.191 501.826C149.023 480.08 131.412 461.866 110.085 448.969L71.2538 425.488C-21.2696 369.54 -21.3038 235.387 71.1912 179.486L110.011 156.024C131.331 143.139 148.933 124.933 161.09 103.193L176.845 75.0178Z" fill="url(#paint0_linear_7619_29133)" stroke="#191919" stroke-width="2"/>
<defs>
<linearGradient id="paint0_linear_7619_29133" x1="442.493" y1="59.8937" x2="400.217" y2="341.5" gradientUnits="userSpaceOnUse">
<stop stop-color="#EDF3FF"/>
<stop offset="1" stop-color="#EDF3FF" stop-opacity="0"/>
</linearGradient>
</defs>
</svg>
