<svg width="1380" height="1382" viewBox="0 0 1380 1382" fill="none" xmlns="http://www.w3.org/2000/svg">
<path d="M977.464 1212.38C851.814 1437.07 528.335 1436.99 402.571 1212.23L366.449 1147.68C338.578 1097.87 298.24 1056.15 249.391 1026.61L160.447 972.824C-51.4778 844.673 -51.5562 537.397 160.304 409.354L249.22 355.615C298.055 326.101 338.371 284.401 366.217 234.606L402.306 170.069C527.956 -54.6267 851.435 -54.5443 977.199 170.216L1013.32 234.77C1041.19 284.58 1081.53 326.3 1130.38 355.839L1219.32 409.623C1431.25 537.774 1431.33 845.05 1219.47 973.093L1130.55 1026.83C1081.72 1056.35 1041.4 1098.05 1013.55 1147.84L977.464 1212.38Z" fill="white" stroke="#191919" stroke-width="2"/>
</svg>
