<svg width="2000" height="576" viewBox="0 0 2000 576" fill="none" xmlns="http://www.w3.org/2000/svg">
<g clip-path="url(#clip0_7619_29192)">
<g clip-path="url(#clip1_7619_29192)">
<rect width="2000" height="576" fill="white"/>
<rect width="90" height="496" fill="#EDF3FF"/>
<rect x="110" width="90" height="496" fill="#EDF3FF"/>
<rect x="220" width="90" height="496" fill="#EDF3FF"/>
<rect x="330" width="90" height="496" fill="#EDF3FF"/>
<rect x="440" width="90" height="496" fill="#EDF3FF"/>
<rect x="550" width="90" height="496" fill="#EDF3FF"/>
<rect x="660" width="90" height="496" fill="#EDF3FF"/>
<rect x="770" width="90" height="496" fill="#EDF3FF"/>
<rect x="880" width="90" height="496" fill="#EDF3FF"/>
<rect x="990" width="90" height="496" fill="#EDF3FF"/>
<rect x="1100" width="90" height="496" fill="#EDF3FF"/>
<rect x="1210" width="90" height="496" fill="#EDF3FF"/>
<rect x="1320" width="90" height="496" fill="#EDF3FF"/>
<rect x="1430" width="90" height="496" fill="#EDF3FF"/>
<rect x="1540" width="90" height="496" fill="#EDF3FF"/>
<rect x="1650" width="90" height="496" fill="#EDF3FF"/>
<rect x="1760" width="90" height="496" fill="#EDF3FF"/>
<rect x="1870" width="90" height="496" fill="#EDF3FF"/>
<rect x="1980" width="90" height="496" fill="#EDF3FF"/>
<rect width="2000" height="496" fill="url(#paint0_linear_7619_29192)"/>
<path d="M330 143.011V127.67C341.523 127.67 349.568 125.318 354.136 120.614C358.705 115.841 360.989 107.966 360.989 96.9887V67.6363C360.989 57.2045 362.148 48.4432 364.466 41.3523C366.852 34.1932 370.466 28.4659 375.307 24.1704C380.148 19.875 386.284 16.7727 393.716 14.8636C401.148 12.9545 409.909 12 420 12V36.2387C412.091 36.2387 405.92 37.3977 401.489 39.7159C397.057 42.0341 393.955 45.6477 392.182 50.5568C390.477 55.3977 389.625 61.6023 389.625 69.1704V106.398C389.625 111.648 388.841 116.523 387.273 121.023C385.705 125.455 382.807 129.307 378.58 132.58C374.352 135.852 368.318 138.409 360.477 140.25C352.636 142.091 342.477 143.011 330 143.011ZM420 272.898C409.909 272.898 401.148 271.943 393.716 270.034C386.284 268.125 380.148 265.023 375.307 260.727C370.466 256.432 366.852 250.705 364.466 243.545C362.148 236.455 360.989 227.693 360.989 217.261V187.807C360.989 176.898 358.705 169.057 354.136 164.284C349.568 159.511 341.523 157.125 330 157.125V141.886C342.477 141.886 352.636 142.807 360.477 144.648C368.318 146.42 374.352 148.977 378.58 152.318C382.807 155.591 385.705 159.477 387.273 163.977C388.841 168.409 389.625 173.25 389.625 178.5V215.727C389.625 223.227 390.477 229.398 392.182 234.239C393.955 239.148 397.057 242.761 401.489 245.08C405.92 247.466 412.091 248.659 420 248.659V272.898ZM330 157.125V127.67H358.33V157.125H330Z" fill="white"/>
<path d="M640 166.948V182.251C628.477 182.251 620.432 184.647 615.864 189.44C611.295 194.233 609.011 202.107 609.011 213.062V242.641C609.011 253.117 607.818 261.916 605.432 269.036C603.114 276.226 599.534 281.977 594.693 286.291C589.852 290.604 583.716 293.72 576.284 295.637C568.852 297.554 560.091 298.513 550 298.513V274.172C557.909 274.172 564.08 272.973 568.511 270.577C572.943 268.249 576.011 264.62 577.716 259.69C579.489 254.829 580.375 248.632 580.375 241.101V203.716C580.375 198.444 581.159 193.583 582.727 189.132C584.295 184.613 587.193 180.71 591.42 177.424C595.648 174.069 601.682 171.501 609.523 169.721C617.364 167.872 627.523 166.948 640 166.948ZM550 36.5127C560.091 36.5127 568.852 37.4713 576.284 39.3884C583.716 41.3056 589.852 44.421 594.693 48.7346C599.534 53.0482 603.114 58.7996 605.432 65.989C607.818 73.1098 609.011 81.9082 609.011 92.3841V121.86C609.011 132.884 611.295 140.792 615.864 145.585C620.432 150.31 628.477 152.672 640 152.672V168.078C627.523 168.078 617.364 167.153 609.523 165.305C601.682 163.456 595.648 160.888 591.42 157.602C587.193 154.315 584.295 150.447 582.727 145.996C581.159 141.477 580.375 136.581 580.375 131.309V93.9247C580.375 86.3245 579.489 80.0938 577.716 75.2324C576.011 70.3026 572.943 66.6737 568.511 64.3457C564.08 62.0177 557.909 60.8538 550 60.8538V36.5127ZM640 152.672V182.251H611.67V152.672H640Z" fill="white"/>
</g>
</g>
<defs>
<linearGradient id="paint0_linear_7619_29192" x1="1000" y1="0" x2="1000" y2="496" gradientUnits="userSpaceOnUse">
<stop stop-color="white" stop-opacity="0"/>
<stop offset="0.84375" stop-color="white"/>
</linearGradient>
<clipPath id="clip0_7619_29192">
<rect width="2000" height="576" fill="white"/>
</clipPath>
<clipPath id="clip1_7619_29192">
<rect width="2000" height="576" fill="white"/>
</clipPath>
</defs>
</svg>
