<svg width="370" height="150" viewBox="0 0 370 150" fill="none" xmlns="http://www.w3.org/2000/svg">
<circle cx="295" cy="75" r="74" fill="white" stroke="#191919" stroke-width="2"/>
<path fill-rule="evenodd" clip-rule="evenodd" d="M271.398 118.968C270.818 119.322 270.062 119.158 269.681 118.596L268.22 116.442C267.838 115.879 267.967 115.118 268.502 114.699C273.313 110.935 277.268 106.691 280.378 102.147C291.958 85.2247 291.958 63.9298 280.378 47.0077C277.268 42.463 273.313 38.2198 268.502 34.4552C267.967 34.0365 267.838 33.275 268.22 32.7127L269.681 30.5589C270.062 29.9966 270.818 29.8326 271.398 30.1863L336.284 69.7406C339.905 71.9482 339.905 77.2062 336.284 79.4138L271.398 118.968Z" fill="url(#paint0_linear_6818_10491)"/>
<circle cx="213" cy="75" r="46" transform="rotate(-180 213 75)" fill="#7DA3F9" stroke="#191919" stroke-width="2"/>
<circle cx="181" cy="74.5" r="46" transform="rotate(-180 181 74.5)" fill="#457EFF" stroke="#191919" stroke-width="2"/>
<rect x="158" y="46.5" width="55" height="55" rx="27.5" fill="#FFAC23" stroke="#191919" stroke-width="2"/>
<circle cx="149" cy="75" r="46" transform="rotate(-180 149 75)" fill="#3568DD" stroke="#191919" stroke-width="2"/>
<rect x="126" y="51.5" width="46" height="46" rx="3" fill="#D9D9D9" stroke="#191919" stroke-width="2"/>
<circle cx="47" cy="75" r="46" transform="rotate(-180 47 75)" fill="#1A3D8D" stroke="#191919" stroke-width="2"/>
<path d="M28.1269 59.88C30.3005 56.1422 35.6995 56.1422 37.8731 59.88L40.7071 64.7535C41.1986 65.5986 41.9014 66.3014 42.7465 66.7929L47.62 69.6269C51.3578 71.8005 51.3578 77.1995 47.62 79.3731L42.7465 82.2071C41.9014 82.6986 41.1986 83.4014 40.7071 84.2465L37.8731 89.12C35.6995 92.8578 30.3005 92.8578 28.1269 89.12L25.2929 84.2465C24.8014 83.4014 24.0986 82.6986 23.2535 82.2071L18.38 79.3731C14.6422 77.1995 14.6422 71.8005 18.38 69.6269L23.2535 66.7929C24.0986 66.3014 24.8014 65.5986 25.2929 64.7535L28.1269 59.88Z" fill="#BC3B97" stroke="#191919" stroke-width="2"/>
<path d="M55.1269 59.88C57.3005 56.1422 62.6995 56.1422 64.8731 59.88L67.7071 64.7535C68.1986 65.5986 68.9014 66.3014 69.7465 66.7929L74.62 69.6269C78.3578 71.8005 78.3578 77.1995 74.62 79.3731L69.7465 82.2071C68.9014 82.6986 68.1986 83.4014 67.7071 84.2465L64.8731 89.12C62.6995 92.8578 57.3005 92.8578 55.1269 89.12L52.2929 84.2465C51.8014 83.4014 51.0986 82.6986 50.2535 82.2071L45.38 79.3731C41.6422 77.1995 41.6422 71.8005 45.38 69.6269L50.2535 66.7929C51.0986 66.3014 51.8014 65.5986 52.2929 64.7535L55.1269 59.88Z" fill="#BC3B97" stroke="#191919" stroke-width="2"/>
<path d="M42.1269 52.88C44.3005 49.1422 49.6995 49.1422 51.8731 52.88L57.281 62.1797C57.7725 63.0248 58.4752 63.7275 59.3203 64.219L68.62 69.6269C72.3578 71.8005 72.3578 77.1995 68.62 79.3731L59.3203 84.781C58.4752 85.2725 57.7725 85.9752 57.281 86.8203L51.8731 96.12C49.6995 99.8578 44.3005 99.8578 42.1269 96.12L36.719 86.8203C36.2275 85.9752 35.5248 85.2725 34.6797 84.781L25.38 79.3731C21.6422 77.1995 21.6422 71.8005 25.38 69.6269L34.6797 64.219C35.5248 63.7275 36.2275 63.0248 36.719 62.1797L42.1269 52.88Z" fill="#EB93B3" stroke="#191919" stroke-width="2"/>
<defs>
<linearGradient id="paint0_linear_6818_10491" x1="347.287" y1="75.3669" x2="241.889" y2="75.3669" gradientUnits="userSpaceOnUse">
<stop stop-color="#3568DD"/>
<stop offset="1" stop-color="#3568DD" stop-opacity="0.6"/>
</linearGradient>
</defs>
</svg>
