<svg width="579" height="171" viewBox="0 0 579 171" fill="none" xmlns="http://www.w3.org/2000/svg">
<g clip-path="url(#clip0_13481_33195)">
<rect x="0.0214844" y="0.728516" width="578" height="170" rx="14" fill="#29292D"/>
<path d="M38.0682 3.86249C94.5846 -47.1951 184.955 -22.9805 208.371 49.4949L208.94 51.2573C213.071 64.0432 219.618 75.9173 228.225 86.2353L236.029 95.5912C282.548 151.358 259.767 236.378 191.597 261.413L180.161 265.614C167.548 270.246 155.941 277.256 145.971 286.263L144.596 287.505C88.08 338.562 -2.29049 314.348 -25.7063 241.872L-26.2758 240.11C-30.4067 227.324 -36.9532 215.45 -45.5602 205.132L-53.3646 195.776C-99.8832 140.01 -77.1022 54.9898 -8.93274 29.9539L2.50408 25.7536C15.1169 21.1214 26.7235 14.1114 36.6939 5.10406L38.0682 3.86249Z" fill="#46464D" stroke="#0C0C0D" stroke-width="3"/>
<circle cx="90.766" cy="70.473" r="47.2677" transform="rotate(-8.92691 90.766 70.473)" fill="#29292D" stroke="#0C0C0D" stroke-width="3"/>
<path d="M432.068 -217.138C488.585 -268.195 578.955 -243.98 602.371 -171.505L602.94 -169.743C607.071 -156.957 613.618 -145.083 622.225 -134.765L630.029 -125.409C676.548 -69.6423 653.767 15.3775 585.597 40.4134L574.161 44.6137C561.548 49.2459 549.941 56.2559 539.971 65.2633L538.596 66.5049C482.08 117.562 391.71 93.3478 368.294 20.8724L367.724 19.11C363.593 6.32421 357.047 -5.54992 348.44 -15.8679L340.635 -25.2239C294.117 -80.9903 316.898 -166.01 385.067 -191.046L396.504 -195.246C409.117 -199.879 420.724 -206.889 430.694 -215.896L432.068 -217.138Z" fill="#46464D" stroke="#0C0C0D" stroke-width="3"/>
<circle cx="121.531" cy="89.6907" r="46.9338" transform="rotate(-86.2353 121.531 89.6907)" fill="#457EFF" stroke="#0C0C0D" stroke-width="3"/>
<circle cx="230.766" cy="120.473" r="47.2677" transform="rotate(-8.92691 230.766 120.473)" fill="#29292D" stroke="#0C0C0D" stroke-width="3"/>
<path d="M107.93 126.504L108.907 125.366L107.93 126.504L109.364 127.735C110.345 128.578 111.812 128.501 112.703 127.572L151.034 87.6332C153.954 84.5907 152.606 79.5594 148.556 78.3845L95.3913 62.9619C94.1551 62.6033 92.8459 63.2702 92.4173 64.4908L93.8327 64.9877L92.4173 64.4908L91.7913 66.274C91.358 67.5082 91.9834 68.8284 93.1499 69.3195C97.111 70.9875 100.562 73.13 103.486 75.6199C114.35 84.8708 118.168 99.1187 113.385 112.562C112.098 116.181 110.18 119.762 107.584 123.187C106.819 124.195 106.937 125.651 107.93 126.504Z" fill="white" stroke="#0C0C0D" stroke-width="3"/>
<circle cx="263.522" cy="110.958" r="46.9338" fill="#457EFF" stroke="#0C0C0D" stroke-width="3"/>
<path d="M242.406 141.97L243.645 141.124L242.406 141.97L243.473 143.53C244.202 144.598 245.64 144.904 246.741 144.237L294.103 115.58C297.71 113.397 297.71 108.188 294.103 106.005L246.741 77.3482C245.64 76.6819 244.202 76.9871 243.473 78.0552L244.711 78.9015L243.473 78.0552L242.406 79.6156C241.668 80.6956 241.931 82.1327 242.93 82.909C246.325 85.5453 249.104 88.5082 251.284 91.6701C259.384 103.418 259.384 118.168 251.284 129.915C249.104 133.077 246.325 136.04 242.93 138.676C241.931 139.453 241.668 140.89 242.406 141.97Z" fill="white" stroke="#0C0C0D" stroke-width="3"/>
<path d="M357.563 6.65824C363.65 -15.2284 391.397 -21.9359 406.809 -5.24608L450.909 42.5118C454.319 46.2038 458.629 48.9466 463.418 50.4711L526.931 70.6917C547.671 77.2946 554.016 103.541 538.582 118.889L491.318 165.888C487.754 169.432 485.173 173.84 483.826 178.682L466.41 241.311C460.324 263.197 432.576 269.905 417.165 253.215L373.064 205.457C369.655 201.765 365.345 199.022 360.556 197.498L297.042 177.277C276.302 170.674 269.958 144.428 285.391 129.08L332.656 82.0807C336.219 78.5372 338.801 74.1285 340.147 69.2869L357.563 6.65824Z" fill="#FF5E0D" stroke="#0C0C0D" stroke-width="3"/>
<circle cx="397.548" cy="85.2545" r="31.3294" transform="rotate(-8.92691 397.548 85.2545)" fill="#29292D" stroke="#0C0C0D" stroke-width="3"/>
<circle cx="431.548" cy="100.017" r="31.3294" transform="rotate(-8.92691 431.548 100.017)" fill="#5080EC" stroke="#0C0C0D" stroke-width="3"/>
<path d="M421.416 121.441L420.324 120.414C422.286 118.326 423.807 116.091 424.912 113.79C429.013 105.253 427.496 95.5915 420.975 88.7226C419.218 86.8718 417.085 85.2102 414.576 83.8251C413.608 83.2903 413.183 82.0823 413.676 81.0445L415.031 81.6883L413.676 81.0445L414.226 79.8874L415.581 80.5313L414.226 79.8874C414.713 78.8626 415.916 78.4034 416.96 78.8304L451.688 93.038C454.669 94.2578 455.287 98.1911 452.823 100.266L424.123 124.437L423.157 123.29L424.123 124.437C423.261 125.163 421.975 125.095 421.197 124.269M421.416 121.441L421.197 124.269M421.416 121.441L420.324 120.414C419.566 121.219 419.532 122.5 420.319 123.336L421.411 122.308L420.319 123.336L421.197 124.269M421.416 121.441L422.289 123.241L421.197 124.269" fill="white" stroke="#0C0C0D" stroke-width="3"/>
<path d="M63.7557 119.952C63.164 118.764 61.5249 118.623 60.7396 119.693L58.3776 122.911C58.1958 123.159 57.9528 123.355 57.6725 123.481L54.1337 125.064C52.8629 125.633 52.7134 127.377 53.8688 128.154L57.0865 130.317C57.3414 130.488 57.5474 130.723 57.6844 130.997L59.4643 134.571C60.056 135.759 61.6951 135.899 62.4804 134.829L64.8424 131.611C65.0242 131.363 65.2671 131.167 65.5475 131.042L69.0863 129.458C70.3571 128.89 70.5066 127.145 69.3512 126.369L66.1335 124.206C65.8786 124.035 65.6725 123.8 65.5356 123.525L63.7557 119.952Z" fill="#FFC93E" stroke="#0C0C0D" stroke-width="3" stroke-linejoin="round"/>
<path d="M188.428 42.607C187.989 41.8307 186.829 41.975 186.594 42.8355L183.652 53.5696C183.608 53.7289 183.526 53.8748 183.412 53.9945L176.357 61.4109C175.922 61.8682 176.014 62.6093 176.548 62.946L185.207 68.4055C185.346 68.4936 185.462 68.6149 185.543 68.7586L191.028 78.4433C191.468 79.2196 192.627 79.0753 192.863 78.2148L195.804 67.4807C195.848 67.3214 195.931 67.1754 196.044 67.0558L203.099 59.6394C203.534 59.182 203.442 58.441 202.908 58.1043L194.25 52.6448C194.11 52.5567 193.994 52.4354 193.913 52.2917L188.428 42.607Z" fill="#FFC93E" stroke="#0C0C0D" stroke-width="3" stroke-linejoin="round"/>
<path d="M524.454 112.491C524.198 111.637 523.036 111.519 522.614 112.305L517.355 122.114C517.277 122.26 517.164 122.384 517.026 122.475L508.496 128.133C507.97 128.482 507.895 129.225 508.34 129.672L515.565 136.923C515.681 137.04 515.767 137.185 515.814 137.343L519.003 148.006C519.259 148.861 520.421 148.978 520.843 148.192L526.102 138.383C526.18 138.238 526.293 138.114 526.431 138.023L534.961 132.365C535.487 132.016 535.562 131.273 535.116 130.826L527.892 123.574C527.776 123.457 527.69 123.313 527.643 123.155L524.454 112.491Z" fill="#FFC93E" stroke="#0C0C0D" stroke-width="3" stroke-linejoin="round"/>
<path d="M539.085 142.189C538.599 141.395 537.444 141.395 536.958 142.189L534.517 146.178C534.404 146.362 534.245 146.514 534.056 146.618L529.997 148.861C529.138 149.335 529.138 150.569 529.997 151.043L534.056 153.286C534.245 153.39 534.404 153.542 534.517 153.726L536.958 157.715C537.444 158.509 538.599 158.509 539.085 157.715L541.526 153.726C541.639 153.542 541.798 153.39 541.987 153.286L546.046 151.043C546.905 150.569 546.905 149.335 546.046 148.861L541.987 146.618C541.798 146.514 541.639 146.362 541.526 146.178L539.085 142.189Z" fill="#FFC93E" stroke="#0C0C0D" stroke-width="3" stroke-linejoin="round"/>
<path d="M313.108 134.248C314.281 132.232 317.193 132.232 318.365 134.248L321.111 138.97C321.376 139.426 321.755 139.805 322.211 140.07L326.932 142.815C328.948 143.988 328.948 146.9 326.932 148.072L322.211 150.818C321.755 151.083 321.376 151.462 321.111 151.918L318.365 156.639C317.193 158.655 314.281 158.655 313.108 156.639L310.363 151.918C310.098 151.462 309.719 151.083 309.263 150.818L304.541 148.072C302.525 146.9 302.525 143.988 304.541 142.815L309.263 140.07C309.719 139.805 310.098 139.426 310.363 138.97L313.108 134.248Z" fill="#29292D" stroke="#0C0C0D" stroke-width="3"/>
</g>
<defs>
<clipPath id="clip0_13481_33195">
<rect x="0.0214844" y="0.728516" width="578" height="170" rx="14" fill="white"/>
</clipPath>
</defs>
</svg>
