<svg width="225" height="288" viewBox="0 0 225 288" fill="none" xmlns="http://www.w3.org/2000/svg">
<g clip-path="url(#clip0_13485_34426)">
<rect x="0.5" width="224" height="288" rx="16" fill="#E9EFFB"/>
<g filter="url(#filter0_b_13485_34426)">
<circle cx="108.5" cy="196.771" r="41" fill="white" fill-opacity="0.14"/>
</g>
<mask id="mask0_13485_34426" style="mask-type:alpha" maskUnits="userSpaceOnUse" x="67" y="155" width="83" height="83">
<circle cx="108.5" cy="196.771" r="41" fill="#D9D9D9"/>
</mask>
<g mask="url(#mask0_13485_34426)">
<path fill-rule="evenodd" clip-rule="evenodd" d="M95.1336 176.251L103.308 171.455C104.41 170.808 105.827 171.177 106.473 172.279L111.27 180.453C111.58 180.983 111.681 181.619 111.465 182.193C109.992 186.108 105.993 188.494 101.86 187.947C101.856 187.969 101.851 187.991 101.845 188.013L95.0794 213.992L97.9275 214.734C98.6611 214.925 99.1288 215.567 98.9723 216.168C98.8157 216.769 98.0942 217.102 97.3606 216.911L94.5125 216.169L93.6982 219.295C93.5417 219.897 92.9275 220.257 92.3263 220.1L86.3288 218.538C85.7277 218.382 85.3673 217.768 85.5238 217.167C85.6804 216.565 86.2946 216.205 86.8957 216.362L91.8048 217.64L92.3356 215.602L90.0418 215.005C89.3083 214.813 88.8405 214.171 88.9971 213.57C89.1536 212.969 89.8752 212.637 90.6087 212.828L92.9025 213.425L93.3891 211.557L89.5836 210.566C88.7636 210.352 88.2258 209.692 88.3823 209.091C88.5389 208.49 89.3305 208.175 90.1505 208.389L93.956 209.38L99.6683 187.446C99.6741 187.424 99.6804 187.402 99.6874 187.381C95.8157 185.84 93.4911 181.809 94.1146 177.674C94.2061 177.068 94.6045 176.562 95.1336 176.251Z" fill="#2DBA8D"/>
<path d="M106.473 172.279L106.224 172.426L106.473 172.279ZM111.27 180.453L111.02 180.6L111.27 180.453ZM111.465 182.193L111.194 182.091L111.465 182.193ZM101.86 187.947L101.577 187.891L101.629 187.625L101.898 187.661L101.86 187.947ZM101.845 188.013L102.125 188.086L101.845 188.013ZM95.0794 213.992L95.0065 214.272L94.7267 214.199L94.7996 213.919L95.0794 213.992ZM94.5125 216.169L94.2326 216.096L94.3055 215.816L94.5853 215.889L94.5125 216.169ZM86.8957 216.362L86.8228 216.641L86.8957 216.362ZM91.8048 217.64L92.0847 217.713L92.0118 217.993L91.732 217.92L91.8048 217.64ZM92.3356 215.602L92.4085 215.322L92.6883 215.395L92.6155 215.675L92.3356 215.602ZM90.6087 212.828L90.6816 212.548L90.6087 212.828ZM92.9025 213.425L93.1824 213.498L93.1095 213.778L92.8297 213.705L92.9025 213.425ZM93.3891 211.557L93.462 211.277L93.7418 211.35L93.6689 211.63L93.3891 211.557ZM89.5836 210.566L89.5107 210.846L89.5836 210.566ZM90.1505 208.389L90.2234 208.109L90.1505 208.389ZM93.956 209.38L94.2358 209.453L94.1629 209.733L93.8831 209.66L93.956 209.38ZM99.6874 187.381L99.7943 187.112L100.046 187.212L99.9624 187.47L99.6874 187.381ZM94.1146 177.674L94.4005 177.718L94.1146 177.674ZM103.454 171.704L95.2799 176.5L94.9873 176.002L103.161 171.205L103.454 171.704ZM106.224 172.426C105.658 171.461 104.418 171.139 103.454 171.704L103.161 171.205C104.401 170.478 105.996 170.893 106.723 172.133L106.224 172.426ZM111.02 180.6L106.224 172.426L106.723 172.133L111.519 180.307L111.02 180.6ZM111.194 182.091C111.374 181.613 111.295 181.068 111.02 180.6L111.519 180.307C111.865 180.897 111.988 181.624 111.736 182.295L111.194 182.091ZM101.898 187.661C105.898 188.19 109.769 185.88 111.194 182.091L111.736 182.295C110.215 186.336 106.089 188.798 101.822 188.234L101.898 187.661ZM101.565 187.94C101.57 187.924 101.573 187.907 101.577 187.891L102.144 188.003C102.138 188.031 102.132 188.058 102.125 188.086L101.565 187.94ZM94.7996 213.919L101.565 187.94L102.125 188.086L95.3592 214.065L94.7996 213.919ZM97.8547 215.014L95.0065 214.272L95.1522 213.712L98.0004 214.454L97.8547 215.014ZM98.6924 216.095C98.7959 215.698 98.4883 215.179 97.8547 215.014L98.0004 214.454C98.8338 214.671 99.4618 215.436 99.2521 216.241L98.6924 216.095ZM97.4335 216.631C98.0672 216.796 98.589 216.492 98.6924 216.095L99.2521 216.241C99.0424 217.046 98.1212 217.407 97.2877 217.19L97.4335 216.631ZM94.5853 215.889L97.4335 216.631L97.2877 217.19L94.4396 216.449L94.5853 215.889ZM93.4184 219.223L94.2326 216.096L94.7923 216.242L93.978 219.368L93.4184 219.223ZM92.3992 219.821C92.8458 219.937 93.3021 219.669 93.4184 219.223L93.978 219.368C93.7812 220.124 93.0091 220.577 92.2535 220.38L92.3992 219.821ZM86.4017 218.259L92.3992 219.821L92.2535 220.38L86.2559 218.818L86.4017 218.259ZM85.8036 217.239C85.6873 217.686 85.9551 218.142 86.4017 218.259L86.2559 218.818C85.5003 218.621 85.0472 217.849 85.244 217.094L85.8036 217.239ZM86.8228 216.641C86.3762 216.525 85.9199 216.793 85.8036 217.239L85.244 217.094C85.4408 216.338 86.2129 215.885 86.9686 216.082L86.8228 216.641ZM91.732 217.92L86.8228 216.641L86.9686 216.082L91.8777 217.36L91.732 217.92ZM92.6155 215.675L92.0847 217.713L91.525 217.567L92.0558 215.529L92.6155 215.675ZM90.1147 214.725L92.4085 215.322L92.2628 215.882L89.9689 215.284L90.1147 214.725ZM89.2769 213.643C89.1735 214.04 89.481 214.56 90.1147 214.725L89.9689 215.284C89.1355 215.067 88.5075 214.303 88.7172 213.497L89.2769 213.643ZM90.5358 213.108C89.9022 212.942 89.3803 213.246 89.2769 213.643L88.7172 213.497C88.9269 212.692 89.8482 212.331 90.6816 212.548L90.5358 213.108ZM92.8297 213.705L90.5358 213.108L90.6816 212.548L92.9754 213.145L92.8297 213.705ZM93.6689 211.63L93.1824 213.498L92.6227 213.352L93.1093 211.484L93.6689 211.63ZM89.6565 210.286L93.462 211.277L93.3162 211.837L89.5107 210.846L89.6565 210.286ZM88.6621 209.164C88.6127 209.354 88.6662 209.576 88.841 209.791C89.0156 210.005 89.2997 210.193 89.6565 210.286L89.5107 210.846C89.0475 210.725 88.6527 210.476 88.3925 210.156C88.1326 209.837 87.9954 209.429 88.1025 209.018L88.6621 209.164ZM90.0776 208.669C89.7209 208.576 89.3814 208.601 89.1243 208.703C88.867 208.805 88.7116 208.974 88.6621 209.164L88.1025 209.018C88.2096 208.607 88.5283 208.317 88.911 208.166C89.2938 208.014 89.7602 207.988 90.2234 208.109L90.0776 208.669ZM93.8831 209.66L90.0776 208.669L90.2234 208.109L94.0289 209.1L93.8831 209.66ZM99.9481 187.519L94.2358 209.453L93.6762 209.307L99.3885 187.373L99.9481 187.519ZM99.9624 187.47C99.9572 187.486 99.9524 187.502 99.9481 187.519L99.3885 187.373C99.3957 187.345 99.4037 187.318 99.4124 187.291L99.9624 187.47ZM94.4005 177.718C93.7971 181.719 96.0473 185.621 99.7943 187.112L99.5805 187.649C95.5842 186.059 93.1851 181.899 93.8287 177.631L94.4005 177.718ZM95.2799 176.5C94.8113 176.775 94.4767 177.213 94.4005 177.718L93.8287 177.631C93.9356 176.923 94.3976 176.348 94.9873 176.002L95.2799 176.5Z" fill="#0C0C0D"/>
<path fill-rule="evenodd" clip-rule="evenodd" d="M99.6142 189.293C98.3256 184.484 101.179 179.541 105.989 178.252C110.798 176.964 115.741 179.817 117.029 184.626C118.219 189.067 115.877 193.622 111.724 195.309C111.732 195.331 111.739 195.354 111.745 195.377L120.112 226.601C120.272 227.201 119.916 227.818 119.316 227.979L113.33 229.583C112.73 229.744 112.113 229.388 111.952 228.788C111.792 228.188 112.148 227.571 112.748 227.41L117.648 226.097L117.102 224.061L111.753 225.494C111.153 225.655 110.537 225.299 110.376 224.699C110.215 224.099 110.571 223.482 111.171 223.321L116.52 221.888L116.021 220.025L113.711 220.644C113.111 220.805 112.494 220.449 112.333 219.849C112.173 219.249 112.529 218.632 113.129 218.471L115.439 217.852L109.572 195.959C109.566 195.936 109.561 195.913 109.556 195.89C105.114 196.51 100.805 193.736 99.6142 189.293Z" fill="#FF7833"/>
<path d="M111.724 195.309L111.45 195.401L111.364 195.143L111.616 195.041L111.724 195.309ZM111.745 195.377L111.466 195.451L111.745 195.377ZM120.112 226.601L120.391 226.526L120.112 226.601ZM112.748 227.41L112.673 227.131L112.748 227.41ZM117.648 226.097L117.927 226.022L118.002 226.302L117.723 226.376L117.648 226.097ZM117.102 224.061L117.027 223.782L117.307 223.707L117.381 223.986L117.102 224.061ZM111.753 225.494L111.679 225.215L111.753 225.494ZM111.171 223.321L111.246 223.601L111.171 223.321ZM116.52 221.888L116.799 221.813L116.874 222.093L116.595 222.167L116.52 221.888ZM116.021 220.025L115.946 219.746L116.225 219.671L116.3 219.95L116.021 220.025ZM115.439 217.852L115.718 217.778L115.793 218.057L115.513 218.132L115.439 217.852ZM109.572 195.959L109.851 195.884L109.572 195.959ZM109.556 195.89L109.516 195.604L109.785 195.566L109.839 195.833L109.556 195.89ZM106.063 178.531C101.409 179.779 98.6462 184.563 99.8935 189.218L99.3349 189.368C98.005 184.404 100.95 179.303 105.914 177.973L106.063 178.531ZM116.75 184.701C115.503 180.047 110.718 177.284 106.063 178.531L105.914 177.973C110.877 176.643 115.979 179.588 117.309 184.552L116.75 184.701ZM111.616 195.041C115.634 193.409 117.902 188.999 116.75 184.701L117.309 184.552C118.537 189.135 116.119 193.836 111.833 195.576L111.616 195.041ZM111.466 195.451C111.461 195.434 111.456 195.417 111.45 195.401L111.999 195.216C112.008 195.244 112.016 195.273 112.024 195.302L111.466 195.451ZM119.832 226.676L111.466 195.451L112.024 195.302L120.391 226.526L119.832 226.676ZM119.241 227.699C119.687 227.58 119.952 227.122 119.832 226.676L120.391 226.526C120.593 227.281 120.145 228.056 119.391 228.258L119.241 227.699ZM113.255 229.304L119.241 227.699L119.391 228.258L113.405 229.862L113.255 229.304ZM112.232 228.713C112.351 229.158 112.809 229.423 113.255 229.304L113.405 229.862C112.65 230.064 111.875 229.617 111.673 228.862L112.232 228.713ZM112.822 227.689C112.377 227.809 112.112 228.267 112.232 228.713L111.673 228.862C111.471 228.108 111.919 227.333 112.673 227.131L112.822 227.689ZM117.723 226.376L112.822 227.689L112.673 227.131L117.573 225.818L117.723 226.376ZM117.381 223.986L117.927 226.022L117.368 226.172L116.823 224.136L117.381 223.986ZM111.679 225.215L117.027 223.782L117.177 224.34L111.828 225.773L111.679 225.215ZM110.655 224.624C110.775 225.07 111.233 225.334 111.679 225.215L111.828 225.773C111.074 225.976 110.299 225.528 110.097 224.774L110.655 224.624ZM111.246 223.601C110.8 223.72 110.536 224.178 110.655 224.624L110.097 224.774C109.895 224.019 110.342 223.244 111.096 223.042L111.246 223.601ZM116.595 222.167L111.246 223.601L111.096 223.042L116.445 221.609L116.595 222.167ZM116.3 219.95L116.799 221.813L116.241 221.963L115.741 220.1L116.3 219.95ZM113.636 220.365L115.946 219.746L116.096 220.305L113.786 220.923L113.636 220.365ZM112.613 219.774C112.732 220.22 113.19 220.484 113.636 220.365L113.786 220.923C113.032 221.126 112.256 220.678 112.054 219.924L112.613 219.774ZM113.204 218.751C112.758 218.87 112.493 219.328 112.613 219.774L112.054 219.924C111.852 219.169 112.3 218.394 113.054 218.192L113.204 218.751ZM115.513 218.132L113.204 218.751L113.054 218.192L115.364 217.573L115.513 218.132ZM109.851 195.884L115.718 217.778L115.159 217.927L109.293 196.034L109.851 195.884ZM109.839 195.833C109.843 195.85 109.847 195.867 109.851 195.884L109.293 196.034C109.285 196.005 109.278 195.977 109.273 195.948L109.839 195.833ZM99.8935 189.218C101.046 193.518 105.217 196.204 109.516 195.604L109.596 196.177C105.012 196.816 100.564 193.953 99.3349 189.368L99.8935 189.218Z" fill="#0C0C0D"/>
<ellipse cx="3.09736" cy="3.20417" rx="3.09736" ry="3.20417" transform="matrix(-0.258819 -0.965926 -0.965926 0.258819 111.438 186.08)" fill="#E9EFFB" stroke="#0C0C0D" stroke-width="0.578313"/>
<circle cx="1.81859" cy="1.81859" r="1.52943" transform="matrix(-0.997253 -0.0740736 -0.0740736 0.997253 127.661 178.111)" fill="#EDF3FF" stroke="#0C0C0D" stroke-width="0.578313"/>
<circle cx="1.81859" cy="1.81859" r="1.52943" transform="matrix(-0.997253 -0.0740736 -0.0740736 0.997253 122.753 201.82)" fill="#EDF3FF" stroke="#0C0C0D" stroke-width="0.578313"/>
<circle cx="1.81859" cy="1.81859" r="1.52943" transform="matrix(-0.997253 -0.0740736 -0.0740736 0.997253 85.8008 208.655)" fill="#EDF3FF" stroke="#0C0C0D" stroke-width="0.578313"/>
<circle cx="1.81859" cy="1.81859" r="1.52943" transform="matrix(-0.997253 -0.0740736 -0.0740736 0.997253 99.2539 176.828)" fill="#EDF3FF" stroke="#0C0C0D" stroke-width="0.578313"/>
<path d="M87.6602 199.022C87.8303 198.666 88.3373 198.666 88.5074 199.022L89.1252 200.315C89.1597 200.387 89.2122 200.449 89.2776 200.496L90.5177 201.373C90.7821 201.56 90.7821 201.953 90.5177 202.14L89.2776 203.017C89.2122 203.064 89.1597 203.126 89.1252 203.198L88.5074 204.491C88.3373 204.847 87.8303 204.847 87.6602 204.491L87.0424 203.198C87.0079 203.126 86.9554 203.064 86.89 203.017L85.6499 202.14C85.3855 201.953 85.3855 201.56 85.6499 201.373L86.89 200.496C86.9554 200.449 87.0079 200.387 87.0424 200.315L87.6602 199.022Z" fill="#FFC93E" stroke="#0C0C0D" stroke-width="0.578313" stroke-linejoin="round"/>
<path d="M131.689 212.716C131.87 212.405 132.319 212.405 132.5 212.716L132.975 213.532C133.016 213.602 133.074 213.661 133.145 213.702L133.96 214.176C134.271 214.357 134.271 214.807 133.96 214.988L133.145 215.462C133.074 215.503 133.016 215.561 132.975 215.632L132.5 216.447C132.319 216.759 131.87 216.759 131.689 216.447L131.215 215.632C131.174 215.561 131.115 215.503 131.045 215.462L130.229 214.988C129.918 214.807 129.918 214.357 130.229 214.176L131.045 213.702C131.115 213.661 131.174 213.602 131.215 213.532L131.689 212.716Z" fill="#FFC93E" stroke="#0C0C0D" stroke-width="0.578313" stroke-linejoin="round"/>
<path d="M90.676 170.421C90.8571 170.109 91.3067 170.109 91.4877 170.421L91.962 171.236C92.0029 171.306 92.0614 171.365 92.1318 171.406L92.9473 171.88C93.2586 172.061 93.2586 172.511 92.9473 172.692L92.1318 173.166C92.0614 173.207 92.0029 173.266 91.962 173.336L91.4877 174.151C91.3067 174.463 90.8571 174.463 90.676 174.151L90.2018 173.336C90.1609 173.266 90.1024 173.207 90.032 173.166L89.2165 172.692C88.9052 172.511 88.9052 172.061 89.2165 171.88L90.032 171.406C90.1024 171.365 90.1609 171.306 90.2018 171.236L90.676 170.421Z" fill="#FFC93E" stroke="#0C0C0D" stroke-width="0.578313" stroke-linejoin="round"/>
<path d="M128.916 182.384C129.097 182.073 129.547 182.073 129.728 182.384L130.202 183.199C130.243 183.27 130.302 183.328 130.372 183.369L131.188 183.844C131.499 184.025 131.499 184.474 131.188 184.655L130.372 185.129C130.302 185.17 130.243 185.229 130.202 185.299L129.728 186.115C129.547 186.426 129.097 186.426 128.916 186.115L128.442 185.299C128.401 185.229 128.343 185.17 128.272 185.129L127.457 184.655C127.145 184.474 127.145 184.025 127.457 183.844L128.272 183.369C128.343 183.328 128.401 183.27 128.442 183.199L128.916 182.384Z" fill="#FFC93E" stroke="#0C0C0D" stroke-width="0.578313" stroke-linejoin="round"/>
<path d="M109.666 181.684L109.125 182.248C107.833 183.593 106.048 184.354 104.183 184.354H103.265C99.476 184.354 96.6088 180.928 97.2768 177.198V177.198" stroke="#0C0C0D" stroke-width="0.578313" stroke-linecap="round" stroke-dasharray="1.93 1.93"/>
<path d="M135.198 156.694L112.769 179.23" stroke="#0C0C0D" stroke-width="0.578313" stroke-linecap="round" stroke-dasharray="1.93 1.93"/>
<path d="M97.3267 154.664L97.3266 174.817" stroke="#0C0C0D" stroke-width="0.578313" stroke-linecap="round" stroke-dasharray="1.93 1.93"/>
</g>
<circle cx="108.5" cy="196.771" r="41" stroke="white" stroke-width="3"/>
<path d="M43.4805 36.8086C44.9492 36.8086 46.1992 36.9648 47.2617 37.2773V86.1523C45.9805 86.8086 45.0117 87.0586 42.793 87.0586C41.0117 87.0586 39.4805 86.7461 38.168 86.1523V53.3398H27.168H25.5117C25.043 52.4336 24.793 51.4336 24.793 50.4023C24.793 49.4648 25.043 48.5586 25.5117 47.7148L26.1992 47.6211C29.6992 47.2773 31.8555 46.9023 34.043 45.9336C35.1367 45.4648 36.0117 44.8398 36.6992 44.1211C38.0742 42.6523 39.1367 40.4648 39.6367 37.3398C40.8555 36.9961 42.1367 36.8086 43.4805 36.8086ZM65.8255 86.9961C64.513 86.9961 63.0442 86.6211 61.4192 85.9023C61.263 84.9336 61.1692 83.7461 61.1692 82.4023C61.1692 76.4961 62.6692 69.9961 65.638 62.9023C68.6067 55.8398 72.513 49.8398 77.3567 44.9336L77.2942 44.7461H52.013C51.3567 43.4023 51.0442 42.1836 51.0442 41.0586C51.0442 39.6836 51.3567 38.4336 52.013 37.2773H88.5442C88.9817 38.5586 89.2005 39.5586 89.2005 40.2773C89.2005 41.0586 88.9817 42.0586 88.5442 43.3398C82.2005 48.7461 77.2942 55.7461 74.4505 62.7461C71.6067 69.7461 70.263 76.6211 70.263 83.3398V85.9023C68.8567 86.6211 67.3567 86.9961 65.8255 86.9961ZM98.9205 78.8086H126.577C127.858 81.4648 127.858 84.3398 126.577 86.9961H89.6392C89.358 85.5273 89.2017 84.0586 89.2017 82.5898C89.2017 78.4648 90.3892 74.9961 92.1705 72.3711C93.0767 71.0898 94.2642 69.8398 95.733 68.6211C97.2017 67.4336 98.733 66.3711 100.327 65.4648C101.889 64.5586 103.764 63.5898 105.983 62.5586C110.639 60.4023 113.764 58.4961 115.42 56.9023C117.077 55.3086 117.889 53.3086 117.889 50.9648C117.889 49.0586 117.264 47.4648 116.014 46.2148C114.42 44.6211 112.014 43.8086 108.795 43.8086C104.952 43.8086 102.202 44.6211 100.545 46.2773C98.983 47.8398 98.3267 49.9023 98.608 52.4336C97.3267 52.9648 95.858 53.2148 94.2017 53.2148C92.5455 53.2148 91.1392 52.9648 89.983 52.4336C89.3267 47.4648 90.7642 43.4648 94.2642 40.4023C97.608 37.4648 102.389 35.9961 108.545 35.9961C114.577 35.9961 119.295 37.5586 122.67 40.6523C125.608 43.3711 127.077 46.6836 127.077 50.5898C127.077 53.7773 126.327 56.4961 124.858 58.6211C123.795 60.1523 122.858 61.2773 121.233 62.5273C119.608 63.8086 118.389 64.6523 116.295 65.8086C115.264 66.4023 114.327 66.9023 113.483 67.3086C112.639 67.7148 111.608 68.2148 110.389 68.8086C106.327 70.7773 103.452 72.4336 101.795 73.8086C100.108 75.2148 99.1392 76.8711 98.9205 78.8086ZM147.922 79.1211C146.922 79.1211 145.797 78.9336 144.578 78.5586V65.1211H131.265C130.89 63.9023 130.703 62.8086 130.703 61.9023C130.703 61.0898 130.89 60.0586 131.265 58.8398H144.578V45.4023C145.672 44.9961 146.765 44.8086 147.922 44.8086C148.953 44.8086 150.015 44.9961 151.109 45.4023V58.8398H164.422C164.828 60.1523 165.015 61.1836 165.015 61.9023C165.015 62.7461 164.828 63.8086 164.422 65.1211H151.109V78.5586C149.89 78.9336 148.828 79.1211 147.922 79.1211Z" fill="url(#paint0_linear_13485_34426)"/>
<path d="M25.3072 108.36L28.5458 117.837H28.6765L31.9151 108.36H33.8129L29.6254 119.996H27.5969L23.4094 108.36H25.3072ZM38.0833 120.172C37.2234 120.172 36.4829 119.989 35.8617 119.621C35.2442 119.25 34.767 118.729 34.4298 118.059C34.0965 117.384 33.9298 116.595 33.9298 115.689C33.9298 114.795 34.0965 114.007 34.4298 113.326C34.767 112.644 35.2367 112.112 35.8389 111.729C36.445 111.346 37.1533 111.155 37.9639 111.155C38.4564 111.155 38.9336 111.237 39.3958 111.4C39.8579 111.562 40.2726 111.818 40.6401 112.167C41.0075 112.515 41.2973 112.968 41.5094 113.525C41.7215 114.078 41.8276 114.75 41.8276 115.542V116.144H34.8901V114.871H40.1628C40.1628 114.424 40.0719 114.028 39.8901 113.684C39.7083 113.335 39.4526 113.06 39.123 112.86C38.7973 112.659 38.4147 112.559 37.9753 112.559C37.498 112.559 37.0814 112.676 36.7253 112.911C36.373 113.142 36.1003 113.445 35.9071 113.82C35.7177 114.191 35.623 114.595 35.623 115.03V116.025C35.623 116.608 35.7253 117.104 35.9298 117.513C36.1382 117.922 36.4279 118.235 36.7992 118.451C37.1704 118.663 37.6041 118.769 38.1003 118.769C38.4223 118.769 38.7158 118.723 38.981 118.632C39.2461 118.538 39.4753 118.398 39.6685 118.212C39.8617 118.026 40.0094 117.797 40.1117 117.525L41.7196 117.814C41.5908 118.288 41.3598 118.703 41.0264 119.059C40.6969 119.411 40.2821 119.685 39.7821 119.882C39.2859 120.076 38.7196 120.172 38.0833 120.172ZM43.5525 119.996V111.269H45.1946V112.655H45.2855C45.4446 112.185 45.7249 111.816 46.1264 111.547C46.5317 111.275 46.99 111.138 47.5014 111.138C47.6074 111.138 47.7324 111.142 47.8764 111.15C48.0241 111.157 48.1396 111.167 48.223 111.178V112.803C48.1548 112.784 48.0336 112.763 47.8593 112.74C47.6851 112.714 47.5108 112.701 47.3366 112.701C46.9351 112.701 46.5771 112.786 46.2627 112.956C45.9521 113.123 45.7059 113.356 45.5241 113.655C45.3423 113.951 45.2514 114.288 45.2514 114.667V119.996H43.5525ZM49.5331 119.996V111.269H51.232V119.996H49.5331ZM50.3911 109.922C50.0956 109.922 49.8419 109.824 49.6297 109.627C49.4214 109.426 49.3172 109.187 49.3172 108.911C49.3172 108.631 49.4214 108.392 49.6297 108.195C49.8419 107.994 50.0956 107.894 50.3911 107.894C50.6865 107.894 50.9384 107.994 51.1468 108.195C51.3589 108.392 51.465 108.631 51.465 108.911C51.465 109.187 51.3589 109.426 51.1468 109.627C50.9384 109.824 50.6865 109.922 50.3911 109.922ZM57.5109 111.269V112.632H52.5791V111.269H57.5109ZM53.9314 119.996V110.257C53.9314 109.712 54.0507 109.259 54.2893 108.9C54.528 108.536 54.8443 108.265 55.2382 108.087C55.6321 107.905 56.0602 107.814 56.5223 107.814C56.8632 107.814 57.1549 107.843 57.3973 107.9C57.6397 107.953 57.8196 108.002 57.9371 108.047L57.5393 109.422C57.4598 109.4 57.3575 109.373 57.2325 109.343C57.1075 109.309 56.956 109.292 56.778 109.292C56.3651 109.292 56.0696 109.394 55.8916 109.598C55.7174 109.803 55.6302 110.098 55.6302 110.485V119.996H53.9314ZM59.1038 119.996V111.269H60.8026V119.996H59.1038ZM59.9617 109.922C59.6663 109.922 59.4125 109.824 59.2004 109.627C58.992 109.426 58.8879 109.187 58.8879 108.911C58.8879 108.631 58.992 108.392 59.2004 108.195C59.4125 107.994 59.6663 107.894 59.9617 107.894C60.2572 107.894 60.5091 107.994 60.7174 108.195C60.9295 108.392 61.0356 108.631 61.0356 108.911C61.0356 109.187 60.9295 109.426 60.7174 109.627C60.5091 109.824 60.2572 109.922 59.9617 109.922ZM66.6895 120.172C65.8297 120.172 65.0891 119.989 64.4679 119.621C63.8505 119.25 63.3732 118.729 63.0361 118.059C62.7028 117.384 62.5361 116.595 62.5361 115.689C62.5361 114.795 62.7028 114.007 63.0361 113.326C63.3732 112.644 63.8429 112.112 64.4452 111.729C65.0512 111.346 65.7596 111.155 66.5702 111.155C67.0626 111.155 67.5399 111.237 68.002 111.4C68.4641 111.562 68.8789 111.818 69.2463 112.167C69.6137 112.515 69.9035 112.968 70.1156 113.525C70.3278 114.078 70.4338 114.75 70.4338 115.542V116.144H63.4963V114.871H68.769C68.769 114.424 68.6781 114.028 68.4963 113.684C68.3145 113.335 68.0588 113.06 67.7293 112.86C67.4035 112.659 67.0209 112.559 66.5815 112.559C66.1043 112.559 65.6876 112.676 65.3315 112.911C64.9793 113.142 64.7065 113.445 64.5134 113.82C64.324 114.191 64.2293 114.595 64.2293 115.03V116.025C64.2293 116.608 64.3315 117.104 64.5361 117.513C64.7444 117.922 65.0342 118.235 65.4054 118.451C65.7766 118.663 66.2103 118.769 66.7065 118.769C67.0285 118.769 67.3221 118.723 67.5872 118.632C67.8524 118.538 68.0815 118.398 68.2747 118.212C68.4679 118.026 68.6156 117.797 68.7179 117.525L70.3259 117.814C70.1971 118.288 69.966 118.703 69.6327 119.059C69.3031 119.411 68.8884 119.685 68.3884 119.882C67.8922 120.076 67.3259 120.172 66.6895 120.172ZM75.4258 120.167C74.7213 120.167 74.0925 119.987 73.5394 119.627C72.9902 119.263 72.5584 118.746 72.244 118.076C71.9334 117.401 71.7781 116.593 71.7781 115.65C71.7781 114.706 71.9353 113.9 72.2497 113.229C72.5679 112.559 73.0035 112.045 73.5565 111.689C74.1095 111.333 74.7364 111.155 75.4372 111.155C75.9788 111.155 76.4144 111.246 76.744 111.428C77.0773 111.606 77.3349 111.814 77.5167 112.053C77.7023 112.292 77.8463 112.502 77.9485 112.684H78.0508V108.36H79.7497V119.996H78.0906V118.638H77.9485C77.8463 118.824 77.6985 119.036 77.5054 119.275C77.316 119.513 77.0546 119.721 76.7213 119.9C76.3879 120.078 75.9561 120.167 75.4258 120.167ZM75.8008 118.718C76.2894 118.718 76.7023 118.589 77.0394 118.331C77.3804 118.07 77.6379 117.708 77.8122 117.246C77.9902 116.784 78.0792 116.246 78.0792 115.632C78.0792 115.026 77.9921 114.496 77.8179 114.042C77.6436 113.587 77.3879 113.233 77.0508 112.979C76.7137 112.725 76.297 112.598 75.8008 112.598C75.2894 112.598 74.8633 112.731 74.5224 112.996C74.1815 113.261 73.9239 113.623 73.7497 114.081C73.5792 114.54 73.494 115.057 73.494 115.632C73.494 116.216 73.5811 116.74 73.7554 117.206C73.9296 117.672 74.1872 118.042 74.5281 118.314C74.8728 118.583 75.297 118.718 75.8008 118.718ZM92.5717 111.417C92.5111 110.879 92.2611 110.462 91.8217 110.167C91.3823 109.867 90.8293 109.718 90.1626 109.718C89.6854 109.718 89.2725 109.793 88.924 109.945C88.5755 110.093 88.3047 110.297 88.1115 110.559C87.9221 110.816 87.8274 111.11 87.8274 111.439C87.8274 111.716 87.8918 111.954 88.0206 112.155C88.1532 112.356 88.3255 112.525 88.5376 112.661C88.7535 112.793 88.9846 112.905 89.2308 112.996C89.477 113.083 89.7138 113.155 89.941 113.212L91.0774 113.507C91.4486 113.598 91.8293 113.721 92.2194 113.877C92.6096 114.032 92.9713 114.237 93.3047 114.49C93.638 114.744 93.9069 115.059 94.1115 115.434C94.3198 115.809 94.424 116.257 94.424 116.78C94.424 117.439 94.2535 118.025 93.9126 118.536C93.5755 119.047 93.085 119.451 92.441 119.746C91.8009 120.042 91.0263 120.189 90.1172 120.189C89.246 120.189 88.4922 120.051 87.8558 119.775C87.2194 119.498 86.7213 119.106 86.3615 118.598C86.0016 118.087 85.8028 117.481 85.7649 116.78H87.5263C87.5604 117.201 87.6967 117.551 87.9354 117.831C88.1778 118.108 88.4865 118.314 88.8615 118.451C89.2403 118.583 89.6551 118.65 90.1058 118.65C90.602 118.65 91.0433 118.572 91.4297 118.417C91.8198 118.257 92.1266 118.038 92.3501 117.757C92.5736 117.473 92.6854 117.142 92.6854 116.763C92.6854 116.418 92.5869 116.136 92.3899 115.917C92.1967 115.697 91.9335 115.515 91.6001 115.371C91.2706 115.227 90.8975 115.1 90.4808 114.99L89.1058 114.615C88.174 114.362 87.4354 113.989 86.8899 113.496C86.3482 113.004 86.0774 112.352 86.0774 111.542C86.0774 110.871 86.2592 110.286 86.6229 109.786C86.9865 109.286 87.4789 108.898 88.1001 108.621C88.7213 108.341 89.4221 108.201 90.2024 108.201C90.9903 108.201 91.6854 108.339 92.2876 108.615C92.8937 108.892 93.371 109.273 93.7194 109.757C94.0679 110.239 94.2498 110.792 94.2649 111.417H92.5717ZM96.362 119.996V108.36H100.623C101.449 108.36 102.133 108.496 102.675 108.769C103.216 109.038 103.621 109.403 103.89 109.865C104.159 110.324 104.294 110.841 104.294 111.417C104.294 111.901 104.205 112.31 104.027 112.644C103.849 112.973 103.61 113.239 103.311 113.439C103.015 113.636 102.69 113.78 102.334 113.871V113.985C102.72 114.004 103.097 114.129 103.464 114.36C103.835 114.587 104.142 114.911 104.385 115.331C104.627 115.752 104.748 116.263 104.748 116.865C104.748 117.46 104.608 117.994 104.328 118.468C104.051 118.937 103.623 119.31 103.044 119.587C102.464 119.86 101.724 119.996 100.822 119.996H96.362ZM98.1177 118.49H100.652C101.493 118.49 102.095 118.328 102.459 118.002C102.822 117.676 103.004 117.269 103.004 116.78C103.004 116.413 102.911 116.076 102.726 115.769C102.54 115.462 102.275 115.218 101.93 115.036C101.589 114.854 101.184 114.763 100.714 114.763H98.1177V118.49ZM98.1177 113.394H100.47C100.864 113.394 101.218 113.318 101.532 113.167C101.851 113.015 102.103 112.803 102.288 112.53C102.478 112.254 102.572 111.928 102.572 111.553C102.572 111.072 102.404 110.668 102.067 110.343C101.729 110.017 101.212 109.854 100.515 109.854H98.1177V113.394ZM106.097 109.871V108.36H115.103V109.871H111.472V119.996H109.722V109.871H106.097ZM122.57 114.814V119.996H120.871V108.36H122.547V112.689H122.655C122.859 112.22 123.172 111.846 123.592 111.57C124.013 111.293 124.562 111.155 125.24 111.155C125.838 111.155 126.361 111.278 126.808 111.525C127.259 111.771 127.607 112.138 127.854 112.627C128.104 113.112 128.229 113.718 128.229 114.445V119.996H126.53V114.65C126.53 114.009 126.365 113.513 126.035 113.161C125.706 112.805 125.248 112.627 124.66 112.627C124.259 112.627 123.899 112.712 123.581 112.882C123.266 113.053 123.018 113.303 122.837 113.632C122.659 113.958 122.57 114.352 122.57 114.814ZM134.012 120.172C133.194 120.172 132.48 119.985 131.87 119.61C131.26 119.235 130.786 118.71 130.449 118.036C130.112 117.362 129.944 116.574 129.944 115.672C129.944 114.767 130.112 113.975 130.449 113.297C130.786 112.619 131.26 112.093 131.87 111.718C132.48 111.343 133.194 111.155 134.012 111.155C134.83 111.155 135.544 111.343 136.154 111.718C136.764 112.093 137.237 112.619 137.574 113.297C137.911 113.975 138.08 114.767 138.08 115.672C138.08 116.574 137.911 117.362 137.574 118.036C137.237 118.71 136.764 119.235 136.154 119.61C135.544 119.985 134.83 120.172 134.012 120.172ZM134.017 118.746C134.548 118.746 134.987 118.606 135.336 118.326C135.684 118.045 135.942 117.672 136.108 117.206C136.279 116.74 136.364 116.227 136.364 115.667C136.364 115.11 136.279 114.598 136.108 114.132C135.942 113.663 135.684 113.286 135.336 113.002C134.987 112.718 134.548 112.576 134.017 112.576C133.483 112.576 133.04 112.718 132.688 113.002C132.339 113.286 132.08 113.663 131.91 114.132C131.743 114.598 131.66 115.11 131.66 115.667C131.66 116.227 131.743 116.74 131.91 117.206C132.08 117.672 132.339 118.045 132.688 118.326C133.04 118.606 133.483 118.746 134.017 118.746ZM141.515 108.36V119.996H139.816V108.36H141.515ZM146.908 120.167C146.203 120.167 145.574 119.987 145.021 119.627C144.472 119.263 144.04 118.746 143.726 118.076C143.415 117.401 143.26 116.593 143.26 115.65C143.26 114.706 143.417 113.9 143.732 113.229C144.05 112.559 144.485 112.045 145.038 111.689C145.591 111.333 146.218 111.155 146.919 111.155C147.461 111.155 147.896 111.246 148.226 111.428C148.559 111.606 148.817 111.814 148.999 112.053C149.184 112.292 149.328 112.502 149.43 112.684H149.533V108.36H151.232V119.996H149.572V118.638H149.43C149.328 118.824 149.18 119.036 148.987 119.275C148.798 119.513 148.536 119.721 148.203 119.9C147.87 120.078 147.438 120.167 146.908 120.167ZM147.283 118.718C147.771 118.718 148.184 118.589 148.521 118.331C148.862 118.07 149.12 117.708 149.294 117.246C149.472 116.784 149.561 116.246 149.561 115.632C149.561 115.026 149.474 114.496 149.3 114.042C149.125 113.587 148.87 113.233 148.533 112.979C148.196 112.725 147.779 112.598 147.283 112.598C146.771 112.598 146.345 112.731 146.004 112.996C145.663 113.261 145.406 113.623 145.232 114.081C145.061 114.54 144.976 115.057 144.976 115.632C144.976 116.216 145.063 116.74 145.237 117.206C145.411 117.672 145.669 118.042 146.01 118.314C146.355 118.583 146.779 118.718 147.283 118.718ZM157.258 120.172C156.398 120.172 155.657 119.989 155.036 119.621C154.419 119.25 153.941 118.729 153.604 118.059C153.271 117.384 153.104 116.595 153.104 115.689C153.104 114.795 153.271 114.007 153.604 113.326C153.941 112.644 154.411 112.112 155.013 111.729C155.619 111.346 156.328 111.155 157.138 111.155C157.631 111.155 158.108 111.237 158.57 111.4C159.032 111.562 159.447 111.818 159.814 112.167C160.182 112.515 160.472 112.968 160.684 113.525C160.896 114.078 161.002 114.75 161.002 115.542V116.144H154.064V114.871H159.337C159.337 114.424 159.246 114.028 159.064 113.684C158.883 113.335 158.627 113.06 158.297 112.86C157.972 112.659 157.589 112.559 157.15 112.559C156.672 112.559 156.256 112.676 155.9 112.911C155.547 113.142 155.275 113.445 155.081 113.82C154.892 114.191 154.797 114.595 154.797 115.03V116.025C154.797 116.608 154.9 117.104 155.104 117.513C155.313 117.922 155.602 118.235 155.974 118.451C156.345 118.663 156.778 118.769 157.275 118.769C157.597 118.769 157.89 118.723 158.155 118.632C158.421 118.538 158.65 118.398 158.843 118.212C159.036 118.026 159.184 117.797 159.286 117.525L160.894 117.814C160.765 118.288 160.534 118.703 160.201 119.059C159.871 119.411 159.456 119.685 158.956 119.882C158.46 120.076 157.894 120.172 157.258 120.172ZM162.727 119.996V111.269H164.369V112.655H164.46C164.619 112.185 164.899 111.816 165.301 111.547C165.706 111.275 166.164 111.138 166.676 111.138C166.782 111.138 166.907 111.142 167.051 111.15C167.198 111.157 167.314 111.167 167.397 111.178V112.803C167.329 112.784 167.208 112.763 167.034 112.74C166.859 112.714 166.685 112.701 166.511 112.701C166.109 112.701 165.752 112.786 165.437 112.956C165.127 113.123 164.88 113.356 164.698 113.655C164.517 113.951 164.426 114.288 164.426 114.667V119.996H162.727ZM175.247 113.4L173.708 113.672C173.643 113.475 173.541 113.288 173.401 113.11C173.264 112.932 173.079 112.786 172.844 112.672C172.609 112.559 172.315 112.502 171.963 112.502C171.482 112.502 171.081 112.61 170.759 112.826C170.437 113.038 170.276 113.312 170.276 113.65C170.276 113.941 170.384 114.176 170.6 114.354C170.815 114.532 171.164 114.678 171.645 114.792L173.031 115.11C173.834 115.295 174.433 115.581 174.827 115.968C175.221 116.354 175.418 116.856 175.418 117.473C175.418 117.996 175.266 118.462 174.963 118.871C174.664 119.276 174.245 119.595 173.708 119.826C173.173 120.057 172.554 120.172 171.85 120.172C170.872 120.172 170.075 119.964 169.458 119.547C168.84 119.127 168.461 118.53 168.321 117.757L169.963 117.507C170.065 117.935 170.276 118.259 170.594 118.479C170.912 118.695 171.327 118.803 171.838 118.803C172.395 118.803 172.84 118.687 173.173 118.456C173.507 118.221 173.673 117.935 173.673 117.598C173.673 117.326 173.571 117.096 173.367 116.911C173.166 116.725 172.857 116.585 172.44 116.49L170.963 116.167C170.149 115.981 169.547 115.685 169.156 115.28C168.77 114.875 168.577 114.362 168.577 113.74C168.577 113.225 168.721 112.775 169.009 112.388C169.297 112.002 169.694 111.701 170.202 111.485C170.709 111.265 171.291 111.155 171.946 111.155C172.889 111.155 173.632 111.36 174.173 111.769C174.715 112.174 175.073 112.718 175.247 113.4Z" fill="#9B9CA5"/>
<g filter="url(#filter1_b_13485_34426)">
<circle cx="34.5" cy="161.771" r="26" fill="white" fill-opacity="0.14"/>
</g>
<mask id="mask1_13485_34426" style="mask-type:alpha" maskUnits="userSpaceOnUse" x="8" y="135" width="53" height="53">
<circle cx="34.5" cy="161.771" r="26" fill="#D9D9D9"/>
</mask>
<g mask="url(#mask1_13485_34426)">
<circle cx="34.4707" cy="161.741" r="14.7659" transform="rotate(15 34.4707 161.741)" fill="url(#paint1_linear_13485_34426)" stroke="#0C0C0D" stroke-width="0.589259"/>
<path d="M40.7992 163.438C39.7311 167.424 38.0329 170.822 36.1632 173.095C34.275 175.39 32.2954 176.446 30.6496 176.005C29.0039 175.565 27.8176 173.66 27.33 170.728C26.8471 167.825 27.0754 164.033 28.1435 160.047C29.2115 156.061 30.9098 152.663 32.7794 150.391C34.6676 148.095 36.6473 147.039 38.293 147.48C39.9388 147.921 41.125 149.826 41.6126 152.757C42.0955 155.66 41.8672 159.452 40.7992 163.438Z" stroke="#0C0C0D" stroke-width="0.589259"/>
<path d="M50.1821 160.157C50.1667 160.215 50.1089 160.305 49.9165 160.402C49.7257 160.498 49.4405 160.579 49.0518 160.635C48.2769 160.748 47.1609 160.75 45.7409 160.628C42.9052 160.384 39.1498 159.669 35.3023 158.639C31.4549 157.608 27.8452 156.349 25.2675 155.142C23.9767 154.538 23.0114 153.978 22.3964 153.493C22.088 153.25 21.8817 153.037 21.7644 152.858C21.6461 152.679 21.6412 152.572 21.6566 152.514" stroke="#0C0C0D" stroke-width="0.589259" stroke-linecap="round"/>
<path d="M47.2525 171.083C47.268 171.025 47.2631 170.918 47.1448 170.738C47.0274 170.56 46.8212 170.347 46.5127 170.104C45.8977 169.619 44.9325 169.059 43.6416 168.455C41.0639 167.248 37.4543 165.989 33.6068 164.958C29.7594 163.927 26.004 163.213 23.1683 162.969C21.7482 162.847 20.6322 162.849 19.8573 162.961C19.4687 163.018 19.1834 163.099 18.9926 163.195C18.8002 163.292 18.7424 163.382 18.727 163.44" stroke="#0C0C0D" stroke-width="0.589259" stroke-linecap="round"/>
<path d="M43.8038 151.437C45.0386 153.246 45.8273 155.516 46.0804 158.018C46.3335 160.52 46.0411 163.157 45.2314 165.658" stroke="#0C0C0D" stroke-width="0.589259" stroke-linecap="round" stroke-linejoin="round"/>
<path d="M44.5476 167.457C43.7547 169.265 42.702 170.898 41.4542 172.26C40.2063 173.622 38.7907 174.683 37.2941 175.384C35.7977 176.085 34.2516 176.411 32.7472 176.35C31.2433 176.289 29.8064 175.841 28.5203 175.033C27.2337 174.224 26.1204 173.068 25.2501 171.628C24.3795 170.188 23.7706 168.495 23.4633 166.647C23.1561 164.799 23.1573 162.837 23.4685 160.879C23.7797 158.921 24.3942 157.009 25.2749 155.258" stroke="#0C0C0D" stroke-width="0.589259" stroke-linecap="round" stroke-linejoin="round"/>
<path d="M26.6566 152.952C28.1565 150.834 30.0292 149.208 32.0656 148.244C34.1007 147.28 36.2201 147.014 38.1969 147.461" stroke="#0C0C0D" stroke-width="0.589259" stroke-linecap="round" stroke-linejoin="round"/>
<path d="M38.0775 148.283C38.7083 148.452 39.2988 148.561 39.7462 148.599C39.9675 148.618 40.1686 148.62 40.3268 148.598C40.4047 148.587 40.4903 148.568 40.5671 148.53C40.6421 148.493 40.7503 148.417 40.7886 148.273C40.827 148.13 40.7717 148.01 40.7252 147.94C40.6777 147.869 40.6131 147.809 40.5512 147.761C40.4252 147.663 40.2498 147.564 40.0488 147.47C39.6424 147.279 39.0765 147.078 38.4457 146.909C37.8149 146.74 37.2244 146.631 36.777 146.593C36.5557 146.574 36.3546 146.572 36.1963 146.594C36.1185 146.605 36.0328 146.624 35.9561 146.662C35.8811 146.699 35.7729 146.776 35.7345 146.919C35.6961 147.062 35.7515 147.183 35.7979 147.252C35.8455 147.323 35.91 147.383 35.972 147.431C36.0979 147.53 36.2733 147.628 36.4743 147.723C36.8807 147.914 37.4467 148.114 38.0775 148.283Z" fill="#3568DD" stroke="#0C0C0D" stroke-width="0.589259"/>
<path d="M30.8356 175.313C30.2048 175.144 29.6143 175.035 29.1669 174.997C28.9456 174.979 28.7445 174.976 28.5863 174.998C28.5084 175.009 28.4228 175.029 28.346 175.067C28.271 175.104 28.1628 175.18 28.1244 175.323C28.086 175.467 28.1414 175.587 28.1879 175.657C28.2354 175.728 28.2999 175.787 28.3619 175.836C28.4879 175.934 28.6633 176.032 28.8642 176.127C29.2706 176.318 29.8366 176.519 30.4674 176.688C31.0982 176.857 31.6887 176.966 32.1361 177.004C32.3574 177.022 32.5585 177.025 32.7168 177.003C32.7946 176.992 32.8802 176.972 32.957 176.935C33.032 176.898 33.1402 176.821 33.1786 176.678C33.217 176.534 33.1616 176.414 33.1151 176.344C33.0676 176.273 33.0031 176.214 32.9411 176.165C32.8152 176.067 32.6398 175.969 32.4388 175.874C32.0324 175.683 31.4664 175.482 30.8356 175.313Z" fill="#3568DD" stroke="#0C0C0D" stroke-width="0.589259"/>
<path d="M47.5761 148.5C47.7494 148.137 48.266 148.137 48.4393 148.5L48.6423 148.925C48.6775 148.999 48.731 149.062 48.7976 149.109L49.3279 149.485C49.5973 149.675 49.5973 150.075 49.3279 150.266L48.7976 150.641C48.731 150.688 48.6775 150.752 48.6423 150.825L48.4393 151.25C48.266 151.613 47.7494 151.613 47.5761 151.25L47.3731 150.825C47.3379 150.752 47.2844 150.688 47.2178 150.641L46.6875 150.266C46.4181 150.075 46.4181 149.675 46.6875 149.485L47.2178 149.109C47.2844 149.062 47.3379 148.999 47.3731 148.925L47.5761 148.5Z" fill="#FFC93E" stroke="#0C0C0D" stroke-width="0.589259" stroke-linejoin="round"/>
<path fill-rule="evenodd" clip-rule="evenodd" d="M20.9083 146.791C21.2883 146.215 22.0702 146.045 22.6548 146.412L22.7292 146.459C22.8958 146.563 23.1156 146.514 23.2222 146.349L23.2697 146.275C23.6436 145.695 24.4238 145.517 25.0123 145.878C25.6008 146.239 25.7748 147.002 25.4009 147.582L23.9852 149.779C23.8787 149.945 23.6589 149.993 23.4922 149.889L21.2788 148.499C20.6942 148.132 20.5283 147.368 20.9083 146.791Z" fill="#FF6767" stroke="#29292D" stroke-width="0.589259"/>
<path fill-rule="evenodd" clip-rule="evenodd" d="M51.0439 154.914C51.4943 154.664 52.0704 154.822 52.3306 155.266C52.4231 155.424 52.6256 155.478 52.7848 155.388C53.2325 155.133 53.8101 155.285 54.075 155.727C54.3399 156.169 54.1917 156.733 53.744 156.988L52.1273 157.909C51.9563 158.006 51.7388 157.948 51.6394 157.778L50.6996 156.173C50.4394 155.728 50.5935 155.165 51.0439 154.914Z" fill="#FF6767" stroke="#29292D" stroke-width="0.589259"/>
<path fill-rule="evenodd" clip-rule="evenodd" d="M29.3867 169.175C29.6864 168.756 30.2743 168.651 30.7 168.942C30.8513 169.045 31.0575 169.007 31.1625 168.857C31.4577 168.435 32.0446 168.324 32.4734 168.61C32.9021 168.896 33.0103 169.47 32.7151 169.892L31.6488 171.417C31.536 171.578 31.3145 171.619 31.152 171.508L29.6148 170.46C29.1891 170.169 29.087 169.594 29.3867 169.175Z" fill="#FF6767" stroke="#29292D" stroke-width="0.589259"/>
<path fill-rule="evenodd" clip-rule="evenodd" d="M14.7412 160.706C15.0408 160.287 15.6288 160.182 16.0545 160.472C16.2058 160.575 16.412 160.538 16.517 160.388C16.8122 159.965 17.3991 159.855 17.8279 160.141C18.2566 160.427 18.3648 161.001 18.0696 161.423L17.0033 162.947C16.8905 163.109 16.669 163.149 16.5065 163.038L14.9693 161.99C14.5436 161.7 14.4415 161.125 14.7412 160.706Z" fill="#FF6767" stroke="#29292D" stroke-width="0.589259"/>
<path d="M21.679 159.181C21.8376 158.847 22.312 158.847 22.4705 159.181C22.5026 159.248 22.5515 159.306 22.6124 159.35L22.7357 159.437C23.004 159.628 23.004 160.026 22.7357 160.217L22.6124 160.305C22.5515 160.348 22.5026 160.406 22.4705 160.474C22.312 160.807 21.8376 160.807 21.679 160.474C21.6469 160.406 21.598 160.348 21.5371 160.305L21.4138 160.217C21.1455 160.026 21.1455 159.628 21.4138 159.437L21.5371 159.35C21.598 159.306 21.6469 159.248 21.679 159.181Z" fill="#FFC93E" stroke="#0C0C0D" stroke-width="0.589259" stroke-linejoin="round"/>
<path d="M48.4261 174.905C48.5846 174.572 49.059 174.572 49.2176 174.905C49.2497 174.973 49.2986 175.031 49.3595 175.074L49.4828 175.162C49.7511 175.352 49.7511 175.751 49.4828 175.941L49.3595 176.029C49.2986 176.072 49.2497 176.131 49.2176 176.198C49.059 176.531 48.5846 176.531 48.4261 176.198C48.394 176.131 48.3451 176.072 48.2842 176.029L48.1609 175.941C47.8926 175.751 47.8926 175.352 48.1609 175.162L48.2842 175.074C48.3451 175.031 48.394 174.973 48.4261 174.905Z" fill="#FFC93E" stroke="#0C0C0D" stroke-width="0.589259" stroke-linejoin="round"/>
</g>
<circle cx="34.5" cy="161.771" r="26" stroke="white" stroke-width="3"/>
<g filter="url(#filter2_b_13485_34426)">
<circle cx="60.5684" cy="238.156" r="63.153" transform="rotate(-6.67792 60.5684 238.156)" fill="white" fill-opacity="0.14"/>
</g>
<mask id="mask2_13485_34426" style="mask-type:alpha" maskUnits="userSpaceOnUse" x="-3" y="174" width="127" height="128">
<circle cx="60.5723" cy="238.156" r="63.153" transform="rotate(-6.67792 60.5723 238.156)" fill="#D9D9D9"/>
</mask>
<g mask="url(#mask2_13485_34426)">
<path d="M84.518 260.82C83.1889 262.281 83.0285 264.46 84.1294 266.1L102.481 293.43C104.169 295.943 107.858 295.966 109.576 293.473L112.429 289.332C113.246 288.146 113.414 286.63 112.875 285.294L99.886 253.075C98.7034 250.142 94.862 249.453 92.7335 251.792L84.518 260.82Z" fill="#5080EC" stroke="#0C0C0D" stroke-width="0.578313"/>
<path d="M26.1605 260.183C23.6748 259.765 21.366 261.57 21.1715 264.083L18.7739 295.065C18.5902 297.439 20.3746 299.508 22.7497 299.676L26.0221 299.906C28.0785 300.051 29.9474 298.713 30.4727 296.72L38.3116 266.972C38.9546 264.532 37.3628 262.066 34.8741 261.648L26.1605 260.183Z" fill="#5080EC" stroke="#0C0C0D" stroke-width="0.578313"/>
<path d="M95.6712 249.375C98.3611 249.218 100.528 251.551 100.174 254.222L92.2458 314.067C91.9879 316.014 90.4416 317.537 88.4914 317.765L43.8652 322.99C41.7075 323.243 39.7015 321.843 39.1944 319.73L24.5133 258.577C23.8894 255.979 25.7676 253.448 28.4356 253.293L95.6712 249.375Z" fill="url(#paint2_linear_13485_34426)" stroke="#0C0C0D" stroke-width="0.578313"/>
<path d="M87.2307 247.173C87.07 246.93 86.7096 246.942 86.5658 247.196L85.3127 249.403C85.2794 249.462 85.2313 249.511 85.1732 249.546L82.9792 250.855C82.7151 251.012 82.7284 251.399 83.0026 251.538L85.2811 252.693C85.3414 252.724 85.3928 252.769 85.4301 252.826L86.8314 254.943C86.9922 255.185 87.3526 255.173 87.4963 254.92L88.7494 252.712C88.7828 252.653 88.8308 252.604 88.8889 252.569L91.083 251.261C91.347 251.103 91.3338 250.717 91.0596 250.577L88.781 249.422C88.7207 249.392 88.6694 249.346 88.6321 249.289L87.2307 247.173Z" fill="#FFC93E" stroke="#0C0C0D" stroke-width="0.578313" stroke-linejoin="round"/>
<path d="M93.3084 235.295C93.1193 235.074 92.7631 235.13 92.6512 235.399L91.6757 237.742C91.6498 237.805 91.608 237.859 91.5546 237.901L89.5358 239.466C89.2929 239.655 89.3531 240.037 89.6421 240.142L92.0442 241.012C92.1078 241.035 92.1643 241.074 92.2082 241.125L93.8564 243.056C94.0455 243.277 94.4017 243.221 94.5136 242.952L95.4891 240.609C95.515 240.546 95.5568 240.492 95.6102 240.45L97.629 238.885C97.8719 238.696 97.8117 238.314 97.5227 238.209L95.1206 237.339C95.057 237.316 95.0005 237.277 94.9566 237.226L93.3084 235.295Z" fill="#FFC93E" stroke="#0C0C0D" stroke-width="0.578313" stroke-linejoin="round"/>
<path d="M15.523 210.396C15.3519 210.099 14.909 210.151 14.811 210.479L13.9915 213.223C13.9728 213.286 13.9388 213.343 13.8926 213.389L11.9416 215.327C11.7621 215.505 11.7971 215.804 12.013 215.936L14.3589 217.371C14.4145 217.405 14.4607 217.453 14.4933 217.509L15.9244 219.99C16.0956 220.286 16.5385 220.234 16.6365 219.906L17.4559 217.162C17.4746 217.1 17.5086 217.043 17.5549 216.997L19.5058 215.059C19.6854 214.881 19.6503 214.581 19.4344 214.449L17.0885 213.014C17.0329 212.98 16.9867 212.933 16.9541 212.876L15.523 210.396Z" fill="#FFC93E" stroke="#0C0C0D" stroke-width="0.578313" stroke-linejoin="round"/>
<path d="M71.6577 189.125C71.5311 188.964 71.2792 188.993 71.1931 189.179L70.5867 190.487C70.5667 190.531 70.5359 190.568 70.4972 190.595L69.3218 191.435C69.1459 191.56 69.1775 191.831 69.3777 191.912L70.7152 192.457C70.7592 192.475 70.7978 192.504 70.8272 192.542L71.7194 193.675C71.8461 193.836 72.098 193.806 72.1841 193.62L72.7905 192.312C72.8105 192.269 72.8413 192.231 72.88 192.204L74.0554 191.365C74.2313 191.239 74.1997 190.969 73.9994 190.887L72.662 190.342C72.618 190.324 72.5794 190.295 72.55 190.258L71.6577 189.125Z" fill="#FFC93E" stroke="#0C0C0D" stroke-width="0.578313" stroke-linejoin="round"/>
<circle cx="57.6083" cy="235.782" r="25.253" transform="rotate(-171.678 57.6083 235.782)" fill="url(#paint3_linear_13485_34426)" stroke="#0C0C0D" stroke-width="0.578313"/>
<mask id="path-53-inside-1_13485_34426" fill="white">
<path fill-rule="evenodd" clip-rule="evenodd" d="M56.5471 201.178C55.5914 201.13 54.7773 201.865 54.7288 202.821L54.6971 203.445C52.3296 203.662 49.9932 204.175 47.7434 204.975C44.2188 206.23 40.9757 208.166 38.1994 210.674C35.4232 213.182 33.168 216.212 31.5628 219.592C30.1449 222.577 29.2586 225.782 28.9403 229.065C28.8705 229.784 29.429 230.4 30.1507 230.436L57.2965 231.815L84.4424 233.194C85.1641 233.231 85.782 232.675 85.7855 231.953C85.8014 228.655 85.2445 225.375 84.1364 222.262C82.8819 218.737 80.9454 215.494 78.4375 212.718C75.9297 209.942 72.8995 207.687 69.5201 206.081C67.4265 205.087 65.2242 204.354 62.963 203.895L62.9963 203.241C63.0448 202.285 62.3094 201.471 61.3538 201.422L56.5471 201.178Z"/>
</mask>
<path fill-rule="evenodd" clip-rule="evenodd" d="M56.5471 201.178C55.5914 201.13 54.7773 201.865 54.7288 202.821L54.6971 203.445C52.3296 203.662 49.9932 204.175 47.7434 204.975C44.2188 206.23 40.9757 208.166 38.1994 210.674C35.4232 213.182 33.168 216.212 31.5628 219.592C30.1449 222.577 29.2586 225.782 28.9403 229.065C28.8705 229.784 29.429 230.4 30.1507 230.436L57.2965 231.815L84.4424 233.194C85.1641 233.231 85.782 232.675 85.7855 231.953C85.8014 228.655 85.2445 225.375 84.1364 222.262C82.8819 218.737 80.9454 215.494 78.4375 212.718C75.9297 209.942 72.8995 207.687 69.5201 206.081C67.4265 205.087 65.2242 204.354 62.963 203.895L62.9963 203.241C63.0448 202.285 62.3094 201.471 61.3538 201.422L56.5471 201.178Z" fill="#FF5E0D"/>
<path d="M56.5471 201.178L56.5764 200.601L56.5471 201.178ZM54.6971 203.445L54.7498 204.021L55.2492 203.975L55.2747 203.474L54.6971 203.445ZM47.7434 204.975L47.9374 205.52L47.7434 204.975ZM31.5628 219.592L31.0404 219.343L31.5628 219.592ZM28.9403 229.065L29.5159 229.121L28.9403 229.065ZM30.1507 230.436L30.1213 231.014L30.1213 231.014L30.1507 230.436ZM57.2965 231.815L57.3259 231.238L57.2965 231.815ZM85.7855 231.953L86.3638 231.955L85.7855 231.953ZM84.1364 222.262L83.5916 222.456L84.1364 222.262ZM78.4375 212.718L78.8667 212.33L78.4375 212.718ZM69.5201 206.081L69.7683 205.559L69.5201 206.081ZM62.963 203.895L62.3854 203.866L62.3602 204.363L62.848 204.462L62.963 203.895ZM61.3538 201.422L61.3244 202L61.3538 201.422ZM55.3063 202.85C55.3387 202.213 55.881 201.724 56.5177 201.756L56.5764 200.601C55.3017 200.536 54.216 201.517 54.1512 202.791L55.3063 202.85ZM55.2747 203.474L55.3063 202.85L54.1512 202.791L54.1195 203.415L55.2747 203.474ZM54.6443 202.869C52.2288 203.09 49.845 203.613 47.5495 204.43L47.9374 205.52C50.1415 204.736 52.4304 204.233 54.7498 204.021L54.6443 202.869ZM47.5495 204.43C43.9533 205.71 40.6444 207.686 37.8118 210.245L38.5871 211.103C41.307 208.646 44.4842 206.749 47.9374 205.52L47.5495 204.43ZM37.8118 210.245C34.9791 212.804 32.6782 215.895 31.0404 219.343L32.0852 219.84C33.6578 216.529 35.8672 213.56 38.5871 211.103L37.8118 210.245ZM31.0404 219.343C29.5938 222.389 28.6895 225.66 28.3646 229.009L29.5159 229.121C29.8278 225.905 30.6961 222.764 32.0852 219.84L31.0404 219.343ZM28.3646 229.009C28.2614 230.074 29.088 230.961 30.1213 231.014L30.18 229.859C29.7699 229.838 29.4796 229.494 29.5159 229.121L28.3646 229.009ZM30.1213 231.014L57.2672 232.393L57.3259 231.238L30.18 229.859L30.1213 231.014ZM57.2672 232.393L84.4131 233.772L84.4717 232.617L57.3259 231.238L57.2672 232.393ZM84.4131 233.772C85.4464 233.824 86.3587 233.025 86.3638 231.955L85.2072 231.95C85.2054 232.325 84.8819 232.637 84.4717 232.617L84.4131 233.772ZM86.3638 231.955C86.3801 228.59 85.8119 225.245 84.6813 222.068L83.5916 222.456C84.6772 225.506 85.2228 228.719 85.2072 231.95L86.3638 231.955ZM84.6813 222.068C83.4013 218.472 81.4255 215.163 78.8667 212.33L78.0084 213.106C80.4654 215.826 82.3625 219.003 83.5916 222.456L84.6813 222.068ZM78.8667 212.33C76.3079 209.498 73.2163 207.197 69.7683 205.559L69.272 206.604C72.5828 208.176 75.5514 210.386 78.0084 213.106L78.8667 212.33ZM69.7683 205.559C67.6321 204.544 65.3852 203.797 63.078 203.328L62.848 204.462C65.0633 204.911 67.2209 205.63 69.272 206.604L69.7683 205.559ZM62.4187 203.211L62.3854 203.866L63.5406 203.924L63.5738 203.27L62.4187 203.211ZM61.3244 202C61.9611 202.032 62.451 202.575 62.4187 203.211L63.5738 203.27C63.6386 201.995 62.6578 200.91 61.3831 200.845L61.3244 202ZM56.5177 201.756L61.3244 202L61.3831 200.845L56.5764 200.601L56.5177 201.756Z" fill="#0C0C0D" mask="url(#path-53-inside-1_13485_34426)"/>
<circle cx="68.6798" cy="218.629" r="12.3924" transform="rotate(11.2231 68.6798 218.629)" fill="white" stroke="#0C0C0D" stroke-width="0.578313"/>
<path d="M63.357 223.176L63.4863 223.433L63.357 223.176C63.14 223.285 63.0374 223.545 63.1355 223.776L63.2765 224.108C63.3738 224.336 63.633 224.448 63.8656 224.363L73.772 220.752C74.5288 220.476 74.7227 219.499 74.1286 218.955L66.3515 211.835C66.1689 211.668 65.8866 211.672 65.7095 211.846L65.4525 212.099C65.2738 212.275 65.2691 212.555 65.428 212.738C65.9635 213.357 66.3721 214.015 66.6615 214.687C67.7367 217.186 67.1889 219.947 65.2412 221.845C64.7169 222.356 64.0883 222.808 63.357 223.176Z" fill="#3668DD" stroke="#0C0C0D" stroke-width="0.578313"/>
<path d="M22.0744 247.16C22.1926 247.188 22.3038 247.24 22.4011 247.313L113.615 315.398C114.008 315.691 114.089 316.248 113.796 316.641L105.72 327.461C105.426 327.854 104.869 327.935 104.476 327.641L13.2622 259.556C13.1648 259.484 13.0834 259.392 13.023 259.286L4.56872 244.552C4.18158 243.877 4.78711 243.066 5.54409 243.245L22.0744 247.16L22.1411 246.879L22.0744 247.16Z" fill="#FFC93E" stroke="#0C0C0D" stroke-width="0.578313"/>
<path d="M22.0744 247.16C22.1926 247.188 22.3038 247.24 22.4011 247.313L24.5493 248.916L23.4453 252.321C23.3849 252.507 23.2646 252.669 23.1032 252.779L20.312 254.697C20.0455 254.88 19.847 255.146 19.7473 255.453L18.7028 258.675C18.6424 258.861 18.5222 259.022 18.3608 259.133L15.4104 261.16L13.2622 259.556C13.1648 259.484 13.0834 259.392 13.023 259.286L4.56872 244.552C4.18158 243.877 4.78711 243.066 5.54409 243.245L22.0744 247.16L22.1411 246.879L22.0744 247.16Z" fill="#FFEDC2" stroke="#0C0C0D" stroke-width="0.578313"/>
<path d="M5.5491 243.246L12.1815 244.816L7.96579 250.464L4.57374 244.552C4.18659 243.878 4.79212 243.066 5.5491 243.246Z" fill="#0C0C0D" stroke="#0C0C0D" stroke-width="0.578313"/>
<path d="M18.5244 258.825L107.652 325.353" stroke="#0C0C0D" stroke-width="0.578313"/>
<path d="M23.2031 252.562L112.331 319.09" stroke="#0C0C0D" stroke-width="0.578313"/>
<path d="M67.712 300.862C68.4463 303.253 71.061 304.511 73.3873 303.594L111.986 288.371C114.07 287.55 115.171 285.262 114.513 283.12L113.749 280.632C113.014 278.239 110.393 276.981 108.066 277.904L69.4914 293.206C67.4118 294.03 66.3152 296.315 66.9721 298.453L67.712 300.862Z" fill="#5080EC" stroke="#0C0C0D" stroke-width="0.578313"/>
<path d="M18.4397 305.099C19.4302 307.396 22.1666 308.361 24.379 307.196L61.0878 287.856C63.07 286.812 63.9149 284.418 63.0274 282.361L61.9964 279.971C61.0045 277.671 58.2625 276.707 56.0494 277.878L19.3737 297.294C17.3965 298.341 16.5554 300.732 17.4416 302.786L18.4397 305.099Z" fill="#5080EC" stroke="#0C0C0D" stroke-width="0.578313"/>
<circle cx="5.02601" cy="5.02601" r="4.73685" transform="matrix(-0.999797 0.0201379 0.0201379 0.999797 70.4297 233.284)" fill="white" stroke="#0C0C0D" stroke-width="0.578313"/>
<circle cx="5.02601" cy="5.02601" r="4.73685" transform="matrix(-0.999797 0.0201379 0.0201379 0.999797 55.0625 233.596)" fill="white" stroke="#0C0C0D" stroke-width="0.578313"/>
<mask id="mask3_13485_34426" style="mask-type:alpha" maskUnits="userSpaceOnUse" x="45" y="233" width="11" height="11">
<circle cx="5.02601" cy="5.02601" r="4.73685" transform="matrix(-0.999797 0.0201379 0.0201379 0.999797 55.1162 233.597)" fill="white" stroke="#0C0C0D" stroke-width="0.578313"/>
</mask>
<g mask="url(#mask3_13485_34426)">
<circle cx="3.25649" cy="3.25649" r="2.96734" transform="matrix(-0.999797 0.0201379 0.0201379 0.999797 51.2969 233.501)" fill="#0C0C0D" stroke="#0C0C0D" stroke-width="0.578313"/>
</g>
<mask id="mask4_13485_34426" style="mask-type:alpha" maskUnits="userSpaceOnUse" x="60" y="233" width="11" height="11">
<circle cx="5.02601" cy="5.02601" r="4.73685" transform="matrix(-0.999797 0.0201379 0.0201379 0.999797 70.623 232.918)" fill="white" stroke="#0C0C0D" stroke-width="0.578313"/>
</mask>
<g mask="url(#mask4_13485_34426)">
<circle cx="3.25649" cy="3.25649" r="2.96734" transform="matrix(-0.999797 0.0201379 0.0201379 0.999797 66.498 233.189)" fill="#0C0C0D" stroke="#0C0C0D" stroke-width="0.578313"/>
</g>
<path d="M51.8267 248.919C52.4421 249.937 53.3145 250.775 54.3563 251.348C55.3981 251.922 56.5726 252.212 57.7617 252.188C58.9508 252.164 60.1127 251.827 61.1306 251.212C62.1484 250.597 62.9864 249.724 63.5602 248.682" stroke="#0C0C0D" stroke-width="0.578313" stroke-linecap="round" stroke-linejoin="round"/>
<path d="M26.6593 225.063C26.6909 224.441 27.2211 223.962 27.8435 223.993L87.461 227.022C88.0835 227.053 88.5624 227.583 88.5308 228.206L88.2687 233.366C88.237 233.989 87.7068 234.468 87.0844 234.436L27.467 231.408C26.8446 231.376 26.3656 230.846 26.3972 230.223L26.6593 225.063Z" fill="#FF5E0D" stroke="#0C0C0D" stroke-width="0.578313"/>
</g>
<circle cx="60.5684" cy="238.156" r="63.153" transform="rotate(-6.67792 60.5684 238.156)" stroke="white" stroke-width="3"/>
<g filter="url(#filter3_b_13485_34426)">
<circle cx="182.501" cy="184.673" r="49" transform="rotate(11.6743 182.501 184.673)" fill="white" fill-opacity="0.14"/>
</g>
<circle cx="182.501" cy="184.673" r="49" transform="rotate(11.6743 182.501 184.673)" stroke="white" stroke-width="3"/>
<mask id="mask5_13485_34426" style="mask-type:alpha" maskUnits="userSpaceOnUse" x="133" y="135" width="99" height="99">
<circle cx="182.501" cy="184.673" r="49" transform="rotate(11.6743 182.501 184.673)" fill="#D9D9D9"/>
</mask>
<g mask="url(#mask5_13485_34426)">
<path fill-rule="evenodd" clip-rule="evenodd" d="M215.115 175.88C214.267 175.148 213 175.204 212.224 176.008L191.847 197.111C191.378 197.596 190.604 197.607 190.12 197.135C189.635 196.663 189.621 195.887 190.09 195.401L210.467 174.298C212.142 172.564 214.877 172.443 216.706 174.023L220.799 177.561C221.311 178.003 221.37 178.778 220.931 179.29C220.491 179.803 219.72 179.86 219.208 179.418L215.115 175.88Z" fill="#FF6767" stroke="#0C0C0D" stroke-width="0.578313" stroke-linecap="round"/>
<path fill-rule="evenodd" clip-rule="evenodd" d="M176.949 160.982C176.206 160.144 174.942 160.031 174.066 160.725L151.075 178.945C150.546 179.365 149.778 179.273 149.36 178.741C148.941 178.209 149.031 177.438 149.56 177.018L172.552 158.799C174.442 157.301 177.168 157.544 178.772 159.352L182.361 163.4C182.81 163.907 182.765 164.682 182.262 165.132C181.759 165.582 180.987 165.537 180.538 165.03L176.949 160.982Z" fill="#FF6767" stroke="#0C0C0D" stroke-width="0.578313" stroke-linecap="round"/>
<mask id="path-78-inside-2_13485_34426" fill="white">
<path d="M167.193 191.264C168.101 191.57 169.097 191.083 169.292 190.145C169.947 186.994 169.534 183.695 168.089 180.782C166.386 177.348 163.388 174.732 159.756 173.508C156.123 172.284 152.153 172.553 148.72 174.256C145.807 175.701 143.482 178.077 142.096 180.982C141.684 181.847 142.181 182.837 143.089 183.143L155.141 187.204L167.193 191.264Z"/>
</mask>
<path d="M167.193 191.264C168.101 191.57 169.097 191.083 169.292 190.145C169.947 186.994 169.534 183.695 168.089 180.782C166.386 177.348 163.388 174.732 159.756 173.508C156.123 172.284 152.153 172.553 148.72 174.256C145.807 175.701 143.482 178.077 142.096 180.982C141.684 181.847 142.181 182.837 143.089 183.143L155.141 187.204L167.193 191.264Z" fill="#FF6767" stroke="#0C0C0D" stroke-width="1.15663" mask="url(#path-78-inside-2_13485_34426)"/>
<mask id="path-79-inside-3_13485_34426" fill="white">
<path d="M198.163 201.699C199.071 202.005 200.066 201.518 200.261 200.58C200.916 197.429 200.503 194.13 199.059 191.217C197.355 187.783 194.358 185.166 190.725 183.943C187.093 182.719 183.123 182.988 179.689 184.691C176.776 186.136 174.451 188.512 173.066 191.417C172.654 192.282 173.151 193.272 174.059 193.578L186.111 197.639L198.163 201.699Z"/>
</mask>
<path d="M198.163 201.699C199.071 202.005 200.066 201.518 200.261 200.58C200.916 197.429 200.503 194.13 199.059 191.217C197.355 187.783 194.358 185.166 190.725 183.943C187.093 182.719 183.123 182.988 179.689 184.691C176.776 186.136 174.451 188.512 173.066 191.417C172.654 192.282 173.151 193.272 174.059 193.578L186.111 197.639L198.163 201.699Z" fill="#FF6767" stroke="#0C0C0D" stroke-width="1.15663" mask="url(#path-79-inside-3_13485_34426)"/>
<circle cx="155.068" cy="187.064" r="11.8288" transform="rotate(18.6194 155.068 187.064)" fill="#A0B9F0" stroke="#0C0C0D" stroke-width="0.578313"/>
<path d="M163.159 177.989L144.029 190.459L144.939 192.993L146.379 194.855L165.858 182.587L164.942 180.312L163.159 177.989Z" fill="#7A9DEC"/>
<path d="M166.457 189.752L150.334 197.76L147.243 195.688L166.761 185.122L166.457 189.752Z" fill="#7A9DEC"/>
<circle cx="155.068" cy="187.064" r="11.8288" transform="rotate(18.6194 155.068 187.064)" stroke="#0C0C0D" stroke-width="0.578313"/>
<circle cx="186.042" cy="197.5" r="11.8288" transform="rotate(18.6194 186.042 197.5)" fill="#C9D9FF" stroke="#0C0C0D" stroke-width="0.578313"/>
<path d="M194.129 188.952L174.602 200.819L176.78 204.788L197.251 194.029L195.912 191.276L194.129 188.952Z" fill="#7A9DEC"/>
<path d="M197.744 198.562L179.764 207.36L178.07 206.097L197.735 196.084L197.744 198.562Z" fill="#7A9DEC"/>
<circle cx="186.042" cy="197.5" r="11.8288" transform="rotate(18.6194 186.042 197.5)" stroke="#0C0C0D" stroke-width="0.578313"/>
<rect x="163.536" y="192.064" width="13.9651" height="2.83058" rx="1.41529" transform="rotate(18.6194 163.536 192.064)" fill="#FF6767" stroke="#0C0C0D" stroke-width="0.578313"/>
<circle cx="2.17343" cy="2.17343" r="1.88428" transform="matrix(-0.961635 -0.274333 -0.274333 0.961635 203.414 158.218)" fill="#EDF3FF" stroke="#0C0C0D" stroke-width="0.578313"/>
<circle cx="2.17343" cy="2.17343" r="1.88428" transform="matrix(-0.961635 -0.274333 -0.274333 0.961635 208.778 166.281)" fill="#EDF3FF" stroke="#0C0C0D" stroke-width="0.578313"/>
<circle cx="2.17343" cy="2.17343" r="1.88428" transform="matrix(-0.961635 -0.274333 -0.274333 0.961635 211.708 191.217)" fill="#EDF3FF" stroke="#0C0C0D" stroke-width="0.578313"/>
<circle cx="2.17343" cy="2.17343" r="1.88428" transform="matrix(-0.961635 -0.274333 -0.274333 0.961635 150.36 201.741)" fill="#EDF3FF" stroke="#0C0C0D" stroke-width="0.578313"/>
<path d="M144.397 186.489C144.636 186.175 145.132 186.277 145.227 186.66L145.689 188.532C145.708 188.61 145.747 188.682 145.801 188.74L147.145 190.179C147.366 190.416 147.287 190.8 146.99 190.93L145.186 191.719C145.113 191.751 145.049 191.801 145 191.865L143.834 193.4C143.595 193.715 143.099 193.612 143.004 193.229L142.542 191.357C142.523 191.279 142.484 191.208 142.43 191.149L141.086 189.71C140.865 189.473 140.944 189.089 141.241 188.959L143.045 188.171C143.118 188.138 143.182 188.088 143.231 188.024L144.397 186.489Z" fill="#FFC93E" stroke="#0C0C0D" stroke-width="0.578313" stroke-linejoin="round"/>
<path d="M189.545 204.785C189.937 204.39 190.607 204.528 190.81 205.047L191.466 206.717C191.514 206.84 191.594 206.949 191.697 207.033L192.997 208.089C193.482 208.483 193.321 209.26 192.72 209.43L191.108 209.884C190.98 209.92 190.864 209.989 190.77 210.083L189.506 211.357C189.114 211.752 188.445 211.614 188.241 211.095L187.586 209.425C187.537 209.301 187.457 209.192 187.354 209.108L186.055 208.053C185.569 207.659 185.73 206.881 186.332 206.712L187.943 206.258C188.071 206.222 188.188 206.153 188.281 206.059L189.545 204.785Z" fill="#FFC93E" stroke="#0C0C0D" stroke-width="0.578313" stroke-linejoin="round"/>
<path d="M182.217 182.183C182.61 181.779 183.289 181.919 183.49 182.446L184.386 184.795C184.434 184.919 184.513 185.03 184.615 185.114L186.505 186.677C186.981 187.071 186.823 187.838 186.229 188.011L183.875 188.697C183.747 188.734 183.631 188.804 183.538 188.9L181.784 190.701C181.391 191.105 180.712 190.965 180.511 190.438L179.615 188.089C179.568 187.965 179.489 187.855 179.386 187.77L177.497 186.207C177.02 185.813 177.179 185.046 177.773 184.873L180.127 184.187C180.255 184.15 180.371 184.08 180.464 183.984L182.217 182.183Z" fill="#FFC93E" stroke="#0C0C0D" stroke-width="0.578313" stroke-linejoin="round"/>
</g>
<mask id="mask6_13485_34426" style="mask-type:alpha" maskUnits="userSpaceOnUse" x="130" y="227" width="57" height="57">
<circle cx="158.5" cy="255.771" r="28" transform="rotate(-2.82551 158.5 255.771)" fill="#D9D9D9"/>
</mask>
<g mask="url(#mask6_13485_34426)">
<circle cx="158.5" cy="255.771" r="28" transform="rotate(-2.82551 158.5 255.771)" fill="#E9EFFB"/>
<path fill-rule="evenodd" clip-rule="evenodd" d="M164.139 297.676C165.461 296.988 167.061 297.849 167.214 299.332L171.707 342.943C171.912 344.933 174.513 345.548 175.587 343.86L200.16 305.267C200.786 304.284 200.496 302.979 199.513 302.353L180.587 290.302C179.842 289.828 179.471 288.94 179.657 288.077L188.523 246.938C188.899 245.19 187.07 243.795 185.484 244.621L137.326 269.706C136.292 270.245 135.89 271.519 136.429 272.553L148.225 295.199C148.763 296.233 148.362 297.507 147.328 298.046L131.691 306.191C130.657 306.729 130.256 308.004 130.794 309.038L144.523 335.394C145.062 336.428 146.336 336.83 147.37 336.291L159.832 329.8C160.526 329.439 160.963 328.722 160.967 327.939L161.107 300.525C161.111 299.742 161.548 299.026 162.243 298.664L164.139 297.676Z" fill="#A0B9F0"/>
<path d="M161.107 300.525L160.818 300.524L161.107 300.525ZM162.243 298.664L162.376 298.92L162.243 298.664ZM160.967 327.939L160.678 327.937L160.967 327.939ZM144.523 335.394L144.78 335.261L144.523 335.394ZM131.691 306.191L131.825 306.447L131.691 306.191ZM130.794 309.038L130.538 309.172L130.794 309.038ZM147.328 298.046L147.194 297.79L147.328 298.046ZM137.326 269.706L137.459 269.963L137.326 269.706ZM136.429 272.553L136.685 272.42L136.429 272.553ZM188.523 246.938L188.806 246.999L188.523 246.938ZM185.484 244.621L185.351 244.364L185.484 244.621ZM180.587 290.302L180.431 290.546L180.587 290.302ZM200.16 305.267L199.916 305.112L200.16 305.267ZM199.513 302.353L199.358 302.597L199.513 302.353ZM167.214 299.332L166.926 299.362L167.214 299.332ZM164.139 297.676L164.006 297.42L164.139 297.676ZM171.707 342.943L171.419 342.973L171.707 342.943ZM171.995 342.913L167.502 299.302L166.926 299.362L171.419 342.973L171.995 342.913ZM199.916 305.112L175.343 343.705L175.831 344.016L200.404 305.423L199.916 305.112ZM180.431 290.546L199.358 302.597L199.668 302.109L180.742 290.058L180.431 290.546ZM188.24 246.877L179.374 288.016L179.939 288.138L188.806 246.999L188.24 246.877ZM137.459 269.963L185.618 244.877L185.351 244.364L137.192 269.45L137.459 269.963ZM148.481 295.065L136.685 272.42L136.172 272.687L147.968 295.332L148.481 295.065ZM131.825 306.447L147.461 298.302L147.194 297.79L131.558 305.934L131.825 306.447ZM144.78 335.261L131.051 308.904L130.538 309.172L144.267 335.528L144.78 335.261ZM159.698 329.544L147.237 336.035L147.504 336.548L159.965 330.057L159.698 329.544ZM160.818 300.524L160.678 327.937L161.256 327.94L161.396 300.527L160.818 300.524ZM164.006 297.42L162.109 298.408L162.376 298.92L164.273 297.933L164.006 297.42ZM161.396 300.527C161.4 299.851 161.777 299.233 162.376 298.92L162.109 298.408C161.32 298.819 160.823 299.633 160.818 300.524L161.396 300.527ZM159.965 330.057C160.755 329.645 161.252 328.831 161.256 327.94L160.678 327.937C160.675 328.613 160.297 329.232 159.698 329.544L159.965 330.057ZM144.267 335.528C144.879 336.703 146.328 337.16 147.504 336.548L147.237 336.035C146.344 336.5 145.244 336.153 144.78 335.261L144.267 335.528ZM131.558 305.934C130.382 306.547 129.926 307.996 130.538 309.172L131.051 308.904C130.586 308.012 130.933 306.912 131.825 306.447L131.558 305.934ZM147.968 295.332C148.433 296.225 148.086 297.325 147.194 297.79L147.461 298.302C148.637 297.69 149.093 296.241 148.481 295.065L147.968 295.332ZM137.192 269.45C136.017 270.062 135.56 271.511 136.172 272.687L136.685 272.42C136.221 271.527 136.567 270.427 137.459 269.963L137.192 269.45ZM188.806 246.999C189.234 245.012 187.153 243.426 185.351 244.364L185.618 244.877C186.986 244.165 188.565 245.369 188.24 246.877L188.806 246.999ZM180.742 290.058C180.099 289.649 179.779 288.883 179.939 288.138L179.374 288.016C179.163 288.998 179.584 290.007 180.431 290.546L180.742 290.058ZM200.404 305.423C201.116 304.305 200.786 302.821 199.668 302.109L199.358 302.597C200.206 303.137 200.456 304.263 199.916 305.112L200.404 305.423ZM167.502 299.302C167.328 297.616 165.509 296.637 164.006 297.42L164.273 297.933C165.414 297.338 166.795 298.082 166.926 299.362L167.502 299.302ZM171.419 342.973C171.652 345.235 174.609 345.935 175.831 344.016L175.343 343.705C174.416 345.162 172.171 344.631 171.995 342.913L171.419 342.973Z" fill="#0C0C0D"/>
<path fill-rule="evenodd" clip-rule="evenodd" d="M134.568 290.692C136.029 290.987 136.733 292.662 135.92 293.912L110.521 332.967C109.43 334.644 111.067 336.756 112.963 336.118L158.976 320.638C160.081 320.266 160.676 319.069 160.304 317.964L152.76 295.54C152.462 294.655 152.781 293.68 153.543 293.142L190.631 266.972C192.128 265.916 191.661 263.585 189.872 263.187L130.877 250.081C129.723 249.825 128.584 250.565 128.35 251.724L123.005 278.224C122.774 279.367 121.661 280.106 120.518 279.876L102.125 276.165C100.982 275.935 99.8688 276.674 99.6382 277.817L93.4139 308.672C93.1834 309.815 93.9229 310.928 95.0656 311.158L109.724 314.115C110.492 314.27 111.282 313.987 111.777 313.381L130.09 290.937C130.585 290.331 131.375 290.048 132.143 290.203L134.568 290.692Z" fill="#C5D4F5"/>
<path d="M130.09 290.937L130.314 291.12L130.09 290.937ZM132.143 290.203L132.2 289.919L132.143 290.203ZM111.777 313.381L112.001 313.564L111.777 313.381ZM93.4139 308.672L93.1304 308.615L93.4139 308.672ZM102.125 276.165L102.068 276.449L102.125 276.165ZM99.6382 277.817L99.9217 277.874L99.6382 277.817ZM120.518 279.876L120.575 279.592L120.518 279.876ZM130.877 250.081L130.94 249.799L130.877 250.081ZM190.631 266.972L190.464 266.736L190.631 266.972ZM189.872 263.187L189.934 262.905L189.872 263.187ZM152.76 295.54L152.485 295.632L152.76 295.54ZM153.543 293.142L153.377 292.906L153.543 293.142ZM158.976 320.638L159.069 320.912L158.976 320.638ZM160.304 317.964L160.578 317.872L160.304 317.964ZM135.92 293.912L136.162 294.069L135.92 293.912ZM134.568 290.692L134.511 290.975L134.568 290.692ZM110.763 333.124L136.162 294.069L135.677 293.754L110.278 332.809L110.763 333.124ZM158.884 320.364L112.871 335.844L113.056 336.392L159.069 320.912L158.884 320.364ZM152.485 295.632L160.03 318.056L160.578 317.872L153.034 295.448L152.485 295.632ZM190.464 266.736L153.377 292.906L153.71 293.378L190.798 267.209L190.464 266.736ZM130.815 250.363L189.809 263.469L189.934 262.905L130.94 249.799L130.815 250.363ZM123.288 278.281L128.634 251.781L128.067 251.667L122.721 278.167L123.288 278.281ZM102.068 276.449L120.461 280.159L120.575 279.592L102.182 275.882L102.068 276.449ZM93.6973 308.729L99.9217 277.874L99.3548 277.76L93.1304 308.615L93.6973 308.729ZM109.782 313.832L95.1228 310.875L95.0084 311.442L109.667 314.399L109.782 313.832ZM129.866 290.754L111.553 313.198L112.001 313.564L130.314 291.12L129.866 290.754ZM134.625 290.408L132.2 289.919L132.085 290.486L134.511 290.975L134.625 290.408ZM130.314 291.12C130.741 290.596 131.423 290.352 132.085 290.486L132.2 289.919C131.327 289.743 130.429 290.065 129.866 290.754L130.314 291.12ZM109.667 314.399C110.54 314.575 111.439 314.253 112.001 313.564L111.553 313.198C111.126 313.722 110.444 313.966 109.782 313.832L109.667 314.399ZM93.1304 308.615C92.8683 309.914 93.7091 311.18 95.0084 311.442L95.1228 310.875C94.1366 310.676 93.4984 309.715 93.6973 308.729L93.1304 308.615ZM102.182 275.882C100.883 275.62 99.6169 276.46 99.3548 277.76L99.9217 277.874C100.121 276.888 101.081 276.25 102.068 276.449L102.182 275.882ZM122.721 278.167C122.522 279.153 121.561 279.791 120.575 279.592L120.461 280.159C121.76 280.421 123.026 279.58 123.288 278.281L122.721 278.167ZM130.94 249.799C129.628 249.507 128.333 250.35 128.067 251.667L128.634 251.781C128.836 250.781 129.819 250.142 130.815 250.363L130.94 249.799ZM190.798 267.209C192.5 266.008 191.968 263.357 189.934 262.905L189.809 263.469C191.353 263.812 191.756 265.824 190.464 266.736L190.798 267.209ZM153.034 295.448C152.777 294.684 153.052 293.843 153.71 293.378L153.377 292.906C152.509 293.518 152.147 294.626 152.485 295.632L153.034 295.448ZM159.069 320.912C160.325 320.489 161.001 319.128 160.578 317.872L160.03 318.056C160.351 319.01 159.838 320.043 158.884 320.364L159.069 320.912ZM136.162 294.069C137.086 292.649 136.286 290.744 134.625 290.408L134.511 290.975C135.772 291.23 136.379 292.676 135.677 293.754L136.162 294.069ZM110.278 332.809C109.038 334.716 110.9 337.117 113.056 336.392L112.871 335.844C111.235 336.395 109.822 334.572 110.763 333.124L110.278 332.809Z" fill="#0C0C0D"/>
<path d="M163.51 274.241L163.375 271.516L171.946 272.613C172.603 272.698 173.105 273.241 173.138 273.903C173.158 274.306 172.847 274.649 172.444 274.668L168.673 274.855C168.507 274.863 168.341 274.838 168.184 274.781L166.918 274.322C166.355 274.118 165.725 274.288 165.341 274.747C165.19 274.928 164.97 275.037 164.735 275.049L164.419 275.065C163.94 275.088 163.533 274.719 163.51 274.241Z" fill="#D2A630" stroke="#0C0C0D" stroke-width="0.578313"/>
<path d="M157.104 274.557L156.969 271.832L148.549 273.768C147.903 273.917 147.456 274.507 147.489 275.169C147.509 275.572 147.852 275.882 148.255 275.862L152.026 275.676C152.192 275.668 152.355 275.627 152.505 275.555L153.721 274.973C154.26 274.715 154.904 274.822 155.331 275.241C155.499 275.406 155.729 275.493 155.964 275.482L156.28 275.466C156.759 275.443 157.128 275.035 157.104 274.557Z" fill="#D2A630" stroke="#0C0C0D" stroke-width="0.578313"/>
<rect x="162.281" y="258.221" width="3.79811" height="13.2804" rx="1.63855" transform="rotate(-2.82551 162.281 258.221)" fill="#D24D0C" stroke="#0C0C0D" stroke-width="0.578313"/>
<rect x="153.997" y="258.373" width="3.79811" height="13.2804" rx="1.63855" transform="rotate(4.74154 153.997 258.373)" fill="#D24D0C" stroke="#0C0C0D" stroke-width="0.578313"/>
<rect x="162.038" y="270.41" width="5.54868" height="1.6099" rx="0.80495" transform="rotate(-0.883706 162.038 270.41)" fill="#A43C09" stroke="#0C0C0D" stroke-width="0.578313"/>
<rect x="152.082" y="271.097" width="5.54868" height="1.6099" rx="0.80495" transform="rotate(-4.93258 152.082 271.097)" fill="#A43C09" stroke="#0C0C0D" stroke-width="0.578313"/>
<circle cx="157.056" cy="249.29" r="13.996" transform="rotate(-2.82551 157.056 249.29)" fill="#2C55B6" stroke="#0C0C0D" stroke-width="0.578313"/>
<circle cx="158.828" cy="249.197" r="13.9906" transform="rotate(-2.82551 158.828 249.197)" fill="#457EFF" stroke="#0C0C0D" stroke-width="0.578313"/>
<path d="M170.124 248.171C171.136 247.984 172.041 247.691 172.686 247.36C173.008 247.195 173.28 247.014 173.469 246.82C173.651 246.633 173.804 246.382 173.751 246.095C173.698 245.808 173.466 245.628 173.229 245.518C172.983 245.405 172.664 245.332 172.305 245.293C171.584 245.215 170.634 245.263 169.622 245.45C168.61 245.637 167.706 245.93 167.06 246.261C166.739 246.425 166.466 246.606 166.278 246.8C166.095 246.987 165.942 247.239 165.995 247.525C166.048 247.812 166.281 247.992 166.518 248.102C166.763 248.216 167.082 248.288 167.441 248.327C168.162 248.406 169.112 248.357 170.124 248.171Z" fill="#FF6767" stroke="#0C0C0D" stroke-width="0.578313"/>
<path d="M153.412 258.369L153.182 258.544C152.999 258.302 153.043 257.967 153.266 257.775C154.239 256.939 155.025 256.014 155.629 255.038C157.877 251.407 157.659 246.994 155.065 243.602C154.367 242.69 153.494 241.847 152.444 241.111C152.203 240.942 152.126 240.612 152.284 240.354L152.576 239.879M153.412 258.369L152.576 239.879M153.412 258.369L153.182 258.544L153.519 258.988C153.7 259.226 154.036 259.281 154.284 259.114L154.122 258.874M153.412 258.369L154.122 258.874M152.576 239.879C152.732 239.624 153.062 239.537 153.325 239.678M152.576 239.879L153.325 239.678M154.122 258.874L154.284 259.114L167.814 249.987C168.749 249.356 168.681 247.965 167.688 247.429L153.325 239.678M154.122 258.874L153.325 239.678" fill="white" stroke="#0C0C0D" stroke-width="0.578313"/>
<path d="M145.606 237.056C146.21 234.529 148.685 232.915 151.241 233.381L151.369 233.405C152.906 233.685 154.486 233.259 155.675 232.245C157.692 230.523 160.743 230.851 162.349 232.962L162.944 233.745C163.741 235.091 163.013 236.827 161.491 237.201L145.877 241.04C145.59 241.111 145.287 241.021 145.085 240.805C144.898 240.605 144.824 240.324 144.888 240.058L145.606 237.056Z" fill="#259974" stroke="#0C0C0D" stroke-width="0.578313"/>
<circle cx="0.868391" cy="0.868391" r="0.579234" transform="matrix(0.529002 0.848621 0.848621 -0.529002 139.962 238.317)" fill="#FF6767" stroke="#0C0C0D" stroke-width="0.578313"/>
<circle cx="0.868391" cy="0.868391" r="0.579234" transform="matrix(0.529002 0.848621 0.848621 -0.529002 142.452 238.949)" fill="#FF6767" stroke="#0C0C0D" stroke-width="0.578313"/>
<circle cx="0.868391" cy="0.868391" r="0.579234" transform="matrix(0.529002 0.848621 0.848621 -0.529002 137.832 236.355)" fill="#FF6767" stroke="#0C0C0D" stroke-width="0.578313"/>
<circle cx="0.868391" cy="0.868391" r="0.579234" transform="matrix(0.529002 0.848621 0.848621 -0.529002 140.49 235.18)" fill="#FF6767" stroke="#0C0C0D" stroke-width="0.578313"/>
<circle cx="0.868391" cy="0.868391" r="0.579234" transform="matrix(0.529002 0.848621 0.848621 -0.529002 143.076 235.936)" fill="#FF6767" stroke="#0C0C0D" stroke-width="0.578313"/>
<path d="M139.262 236.671C141.18 236.838 145.738 237.729 148.626 239.958" stroke="#0C0C0D" stroke-width="0.578313" stroke-linecap="round"/>
<path d="M141.135 238.458C141.756 238.18 143.316 237.675 144.589 237.868" stroke="#0C0C0D" stroke-width="0.578313" stroke-linecap="round"/>
<path d="M143.813 239.055C144.254 238.856 145.338 238.471 146.151 238.521" stroke="#0C0C0D" stroke-width="0.578313" stroke-linecap="round"/>
<path d="M144.428 236.342C144.717 236.729 145.803 238.347 146.539 238.696" stroke="#0C0C0D" stroke-width="0.578313" stroke-linecap="round"/>
<path d="M141.747 235.635C142.15 236.182 143.258 237.392 144.461 237.852" stroke="#0C0C0D" stroke-width="0.578313" stroke-linecap="round"/>
<path d="M147.981 239.74L147.999 239.34C148.068 237.857 148.645 236.443 149.634 235.336C149.749 235.207 149.962 235.289 149.96 235.462L149.959 235.529C149.943 237.125 149.364 238.664 148.326 239.877C148.205 240.019 147.972 239.927 147.981 239.74Z" fill="#4FCBA3" stroke="#0C0C0D" stroke-width="0.578313" stroke-linecap="round" stroke-linejoin="round"/>
<rect x="142.638" y="240.897" width="24.6119" height="2.07401" rx="1.037" transform="rotate(-13.8637 142.638 240.897)" fill="#155742" stroke="#0C0C0D" stroke-width="0.578313"/>
<path d="M155.026 254.962C155.93 254.627 156.716 254.204 157.257 253.781C157.525 253.57 157.746 253.35 157.887 253.129C158.025 252.913 158.117 252.645 158.019 252.38C157.921 252.115 157.678 251.972 157.432 251.898C157.181 251.821 156.87 251.798 156.529 251.813C155.844 251.843 154.971 252.032 154.067 252.367C153.163 252.701 152.376 253.125 151.836 253.548C151.568 253.758 151.346 253.979 151.205 254.2C151.067 254.416 150.976 254.683 151.074 254.948C151.172 255.213 151.415 255.356 151.661 255.431C151.911 255.507 152.223 255.531 152.564 255.516C153.249 255.485 154.122 255.296 155.026 254.962Z" fill="#FF6767" stroke="#0C0C0D" stroke-width="0.578313"/>
<path d="M147.102 253.784C146.852 253.38 146.256 253.41 146.047 253.836L146.012 253.908C145.966 254.002 145.896 254.082 145.81 254.141L145.684 254.227C145.311 254.481 145.339 255.039 145.734 255.255L145.868 255.328C145.96 255.379 146.037 255.452 146.092 255.541L146.134 255.608C146.384 256.012 146.981 255.983 147.19 255.556L147.225 255.485C147.271 255.391 147.34 255.311 147.426 255.252L147.553 255.166C147.925 254.911 147.898 254.353 147.502 254.137L147.368 254.064C147.276 254.014 147.199 253.941 147.144 253.852L147.102 253.784Z" fill="#FFC93E" stroke="#0C0C0D" stroke-width="0.578313" stroke-linejoin="round"/>
<path d="M167.742 233.791C167.492 233.387 166.895 233.417 166.686 233.843L166.651 233.915C166.605 234.008 166.536 234.089 166.449 234.148L166.323 234.234C165.951 234.488 165.978 235.046 166.374 235.262L166.508 235.335C166.6 235.385 166.677 235.459 166.732 235.547L166.774 235.615C167.024 236.019 167.62 235.989 167.829 235.563L167.864 235.492C167.91 235.398 167.98 235.317 168.066 235.258L168.192 235.172C168.565 234.918 168.537 234.36 168.142 234.144L168.008 234.071C167.916 234.021 167.839 233.948 167.784 233.859L167.742 233.791Z" fill="#FFC93E" stroke="#0C0C0D" stroke-width="0.578313" stroke-linejoin="round"/>
<path d="M162.734 233.585C162.484 233.184 161.892 233.214 161.682 233.636L161.461 234.082C161.414 234.175 161.344 234.255 161.258 234.314L160.806 234.619C160.429 234.872 160.457 235.435 160.857 235.65L161.336 235.909C161.428 235.959 161.506 236.031 161.561 236.12L161.825 236.541C162.076 236.942 162.668 236.912 162.877 236.489L163.098 236.044C163.145 235.951 163.215 235.871 163.302 235.812L163.754 235.507C164.13 235.254 164.102 234.691 163.703 234.476L163.223 234.217C163.131 234.167 163.053 234.095 162.998 234.006L162.734 233.585Z" fill="#EDF3FF" stroke="#0C0C0D" stroke-width="0.578313" stroke-linejoin="round"/>
<circle cx="166.17" cy="242.256" r="2.62846" transform="rotate(-2.82551 166.17 242.256)" fill="#F2F2F3" stroke="#0C0C0D" stroke-width="0.578313"/>
<circle cx="2.91762" cy="2.91762" r="2.62846" transform="matrix(-0.328101 0.944643 0.944643 0.328101 151.105 244.9)" fill="#F2F2F3" stroke="#0C0C0D" stroke-width="0.578313"/>
<circle cx="165.977" cy="242.778" r="1.24259" transform="rotate(-2.82551 165.977 242.778)" fill="#0C0C0D" stroke="#0C0C0D" stroke-width="0.578313"/>
<circle cx="1.53175" cy="1.53175" r="1.24259" transform="matrix(-0.328101 0.944643 0.944643 0.328101 152.514 246.624)" fill="#0C0C0D" stroke="#0C0C0D" stroke-width="0.578313"/>
<path d="M139.375 245.797C139.178 245.478 138.705 245.501 138.54 245.838L138.513 245.895C138.476 245.969 138.421 246.033 138.353 246.08L138.253 246.148C137.958 246.349 137.98 246.79 138.293 246.961L138.399 247.019C138.472 247.059 138.533 247.117 138.576 247.187L138.609 247.241C138.807 247.56 139.279 247.537 139.445 247.2L139.472 247.143C139.509 247.069 139.564 247.005 139.632 246.958L139.732 246.89C140.027 246.689 140.005 246.248 139.692 246.077L139.586 246.019C139.513 245.979 139.452 245.921 139.409 245.851L139.375 245.797Z" fill="#FFC93E" stroke="#0C0C0D" stroke-width="0.578313" stroke-linejoin="round"/>
<path d="M175.792 258.607C175.595 258.288 175.122 258.311 174.957 258.649L174.93 258.705C174.893 258.779 174.838 258.843 174.77 258.89L174.67 258.958C174.375 259.159 174.397 259.6 174.71 259.771L174.816 259.829C174.889 259.869 174.95 259.927 174.993 259.997L175.026 260.051C175.224 260.37 175.696 260.347 175.862 260.01L175.889 259.953C175.926 259.879 175.981 259.815 176.049 259.769L176.149 259.7C176.444 259.499 176.422 259.058 176.109 258.887L176.003 258.829C175.93 258.789 175.869 258.731 175.826 258.661L175.792 258.607Z" fill="#EDF3FF" stroke="#0C0C0D" stroke-width="0.578313" stroke-linejoin="round"/>
<path d="M166.809 255.152C166.847 255.929 166.631 256.696 166.194 257.339C165.757 257.982 165.123 258.465 164.387 258.715C163.651 258.965 162.853 258.968 162.115 258.725C161.377 258.481 160.738 258.004 160.296 257.364" stroke="#0C0C0D" stroke-width="0.578313" stroke-linecap="round" stroke-linejoin="round"/>
</g>
<circle cx="158.5" cy="255.771" r="28" transform="rotate(-2.82551 158.5 255.771)" stroke="white" stroke-width="3"/>
</g>
<defs>
<filter id="filter0_b_13485_34426" x="65.9" y="154.171" width="85.2" height="85.2" filterUnits="userSpaceOnUse" color-interpolation-filters="sRGB">
<feFlood flood-opacity="0" result="BackgroundImageFix"/>
<feGaussianBlur in="BackgroundImageFix" stdDeviation="0.8"/>
<feComposite in2="SourceAlpha" operator="in" result="effect1_backgroundBlur_13485_34426"/>
<feBlend mode="normal" in="SourceGraphic" in2="effect1_backgroundBlur_13485_34426" result="shape"/>
</filter>
<filter id="filter1_b_13485_34426" x="6.9" y="134.171" width="55.2" height="55.2" filterUnits="userSpaceOnUse" color-interpolation-filters="sRGB">
<feFlood flood-opacity="0" result="BackgroundImageFix"/>
<feGaussianBlur in="BackgroundImageFix" stdDeviation="0.8"/>
<feComposite in2="SourceAlpha" operator="in" result="effect1_backgroundBlur_13485_34426"/>
<feBlend mode="normal" in="SourceGraphic" in2="effect1_backgroundBlur_13485_34426" result="shape"/>
</filter>
<filter id="filter2_b_13485_34426" x="-4.19082" y="173.397" width="129.518" height="129.518" filterUnits="userSpaceOnUse" color-interpolation-filters="sRGB">
<feFlood flood-opacity="0" result="BackgroundImageFix"/>
<feGaussianBlur in="BackgroundImageFix" stdDeviation="0.8"/>
<feComposite in2="SourceAlpha" operator="in" result="effect1_backgroundBlur_13485_34426"/>
<feBlend mode="normal" in="SourceGraphic" in2="effect1_backgroundBlur_13485_34426" result="shape"/>
</filter>
<filter id="filter3_b_13485_34426" x="131.891" y="134.063" width="101.22" height="101.22" filterUnits="userSpaceOnUse" color-interpolation-filters="sRGB">
<feFlood flood-opacity="0" result="BackgroundImageFix"/>
<feGaussianBlur in="BackgroundImageFix" stdDeviation="0.8"/>
<feComposite in2="SourceAlpha" operator="in" result="effect1_backgroundBlur_13485_34426"/>
<feBlend mode="normal" in="SourceGraphic" in2="effect1_backgroundBlur_13485_34426" result="shape"/>
</filter>
<linearGradient id="paint0_linear_13485_34426" x1="23.0117" y1="21.9961" x2="33.4433" y2="116.066" gradientUnits="userSpaceOnUse">
<stop offset="0.0127869" stop-color="#69DBFF"/>
<stop offset="1" stop-color="#319CFF"/>
</linearGradient>
<linearGradient id="paint1_linear_13485_34426" x1="34.4707" y1="146.681" x2="34.4707" y2="176.802" gradientUnits="userSpaceOnUse">
<stop stop-color="#5080EC"/>
<stop offset="1" stop-color="#3568DD"/>
</linearGradient>
<linearGradient id="paint2_linear_13485_34426" x1="63.6827" y1="243.278" x2="51.659" y2="325.475" gradientUnits="userSpaceOnUse">
<stop stop-color="#5080EC"/>
<stop offset="1" stop-color="#3568DD"/>
</linearGradient>
<linearGradient id="paint3_linear_13485_34426" x1="57.6083" y1="210.24" x2="57.6083" y2="261.325" gradientUnits="userSpaceOnUse">
<stop stop-color="#5080EC"/>
<stop offset="1" stop-color="#3568DD"/>
</linearGradient>
<clipPath id="clip0_13485_34426">
<rect x="0.5" width="224" height="288" rx="16" fill="white"/>
</clipPath>
</defs>
</svg>
