<svg width="308" height="153" viewBox="0 0 308 153" fill="none" xmlns="http://www.w3.org/2000/svg">
<g clip-path="url(#clip0_13572_2755)">
<rect x="0.926758" y="0.164551" width="307" height="152" rx="8.46332" fill="#E9EFFB"/>
<g filter="url(#filter0_b_13572_2755)">
<circle cx="224.287" cy="63.8502" r="33.89" fill="white" fill-opacity="0.14"/>
</g>
<mask id="mask0_13572_2755" style="mask-type:alpha" maskUnits="userSpaceOnUse" x="190" y="29" width="69" height="69">
<circle cx="224.286" cy="63.8502" r="33.89" fill="#D9D9D9"/>
</mask>
<g mask="url(#mask0_13572_2755)">
<path fill-rule="evenodd" clip-rule="evenodd" d="M213.239 46.8892L219.996 42.9247C220.907 42.3903 222.078 42.6954 222.613 43.6062L226.577 50.3627C226.834 50.8001 226.917 51.326 226.738 51.8006C225.521 55.0365 222.216 57.0084 218.8 56.5571C218.797 56.5751 218.793 56.5931 218.788 56.6111L213.195 78.0852L215.55 78.6984C216.156 78.8563 216.543 79.3871 216.413 79.8839C216.284 80.3808 215.687 80.6556 215.081 80.4977L212.727 79.8845L212.054 82.4689C211.924 82.9658 211.417 83.2637 210.92 83.1343L205.962 81.8432C205.465 81.7138 205.167 81.2061 205.297 80.7093C205.426 80.2124 205.934 79.9145 206.431 80.0439L210.489 81.1007L210.927 79.4159L209.032 78.9222C208.425 78.7643 208.039 78.2335 208.168 77.7366C208.297 77.2397 208.894 76.965 209.5 77.1229L211.396 77.6166L211.798 76.0725L208.653 75.2533C207.975 75.0768 207.53 74.5309 207.66 74.034C207.789 73.5372 208.443 73.2775 209.121 73.454L212.267 74.2732L216.989 56.1425C216.993 56.1244 216.998 56.1066 217.004 56.0891C213.803 54.816 211.881 51.4835 212.397 48.0657C212.472 47.5642 212.802 47.1458 213.239 46.8892Z" fill="#2DBA8D"/>
<path d="M219.996 42.9247L219.875 42.7185L219.996 42.9247ZM213.239 46.8892L213.36 47.0953L213.239 46.8892ZM222.613 43.6062L222.819 43.4852L222.819 43.4852L222.613 43.6062ZM226.577 50.3627L226.783 50.2418L226.783 50.2418L226.577 50.3627ZM226.738 51.8006L226.515 51.7165L226.738 51.8006ZM218.8 56.5571L218.566 56.5106L218.609 56.2909L218.832 56.3202L218.8 56.5571ZM213.195 78.0852L213.135 78.3165L212.904 78.2563L212.964 78.025L213.195 78.0852ZM212.727 79.8845L212.495 79.8243L212.556 79.593L212.787 79.6532L212.727 79.8845ZM212.054 82.4689L211.822 82.4087L212.054 82.4689ZM210.489 81.1007L210.72 81.1609L210.66 81.3922L210.428 81.332L210.489 81.1007ZM210.927 79.4159L210.988 79.1846L211.219 79.2449L211.159 79.4762L210.927 79.4159ZM209.032 78.9222L209.092 78.6909L209.032 78.9222ZM211.396 77.6166L211.627 77.6768L211.567 77.9081L211.336 77.8479L211.396 77.6166ZM211.798 76.0725L211.858 75.8412L212.09 75.9015L212.029 76.1328L211.798 76.0725ZM209.121 73.454L209.061 73.6853L209.121 73.454ZM212.267 74.2732L212.498 74.3334L212.438 74.5647L212.207 74.5045L212.267 74.2732ZM216.989 56.1425L216.757 56.0823L216.989 56.1425ZM217.004 56.0891L217.092 55.867L217.301 55.9498L217.231 56.1628L217.004 56.0891ZM212.397 48.0657L212.161 48.03L212.397 48.0657ZM220.117 43.1308L213.36 47.0953L213.118 46.683L219.875 42.7185L220.117 43.1308ZM222.406 43.7271C221.939 42.9302 220.914 42.6632 220.117 43.1308L219.875 42.7185C220.899 42.1173 222.217 42.4606 222.819 43.4852L222.406 43.7271ZM226.371 50.4837L222.406 43.7271L222.819 43.4852L226.783 50.2418L226.371 50.4837ZM226.515 51.7165C226.663 51.3216 226.598 50.8711 226.371 50.4837L226.783 50.2418C227.069 50.7292 227.171 51.3304 226.962 51.8848L226.515 51.7165ZM218.832 56.3202C222.138 56.7569 225.336 54.8481 226.515 51.7165L226.962 51.8848C225.705 55.2249 222.295 57.2599 218.769 56.7941L218.832 56.3202ZM218.557 56.5509C218.56 56.5375 218.563 56.524 218.566 56.5106L219.035 56.6037C219.03 56.6263 219.025 56.6488 219.019 56.6714L218.557 56.5509ZM212.964 78.025L218.557 56.5509L219.019 56.6714L213.427 78.1454L212.964 78.025ZM215.49 78.9297L213.135 78.3165L213.256 77.8539L215.61 78.4671L215.49 78.9297ZM216.182 79.8237C216.267 79.4955 216.013 79.0661 215.49 78.9297L215.61 78.4671C216.299 78.6465 216.818 79.2786 216.645 79.9442L216.182 79.8237ZM215.141 80.2664C215.665 80.4028 216.097 80.1519 216.182 79.8237L216.645 79.9442C216.471 80.6097 215.71 80.9084 215.021 80.729L215.141 80.2664ZM212.787 79.6532L215.141 80.2664L215.021 80.729L212.667 80.1158L212.787 79.6532ZM211.822 82.4087L212.495 79.8243L212.958 79.9448L212.285 82.5292L211.822 82.4087ZM210.98 82.903C211.349 82.9991 211.726 82.7778 211.822 82.4087L212.285 82.5292C212.122 83.1538 211.484 83.5283 210.86 83.3656L210.98 82.903ZM206.022 81.6119L210.98 82.903L210.86 83.3656L205.902 82.0745L206.022 81.6119ZM205.528 80.7695C205.432 81.1386 205.653 81.5158 206.022 81.6119L205.902 82.0745C205.277 81.9119 204.903 81.2736 205.066 80.649L205.528 80.7695ZM206.371 80.2752C206.001 80.1791 205.624 80.4004 205.528 80.7695L205.066 80.649C205.228 80.0244 205.866 79.6499 206.491 79.8126L206.371 80.2752ZM210.428 81.332L206.371 80.2752L206.491 79.8126L210.549 80.8694L210.428 81.332ZM211.159 79.4762L210.72 81.1609L210.257 81.0404L210.696 79.3557L211.159 79.4762ZM209.092 78.6909L210.988 79.1846L210.867 79.6472L208.971 79.1535L209.092 78.6909ZM208.399 77.7968C208.314 78.125 208.568 78.5545 209.092 78.6909L208.971 79.1535C208.282 78.9741 207.763 78.3419 207.937 77.6764L208.399 77.7968ZM209.44 77.3542C208.916 77.2177 208.485 77.4686 208.399 77.7968L207.937 77.6764C208.11 77.0108 208.871 76.7122 209.56 76.8916L209.44 77.3542ZM211.336 77.8479L209.44 77.3542L209.56 76.8916L211.456 77.3853L211.336 77.8479ZM212.029 76.1328L211.627 77.6768L211.165 77.5564L211.567 76.0123L212.029 76.1328ZM208.713 75.022L211.858 75.8412L211.738 76.3038L208.592 75.4846L208.713 75.022ZM207.891 74.0943C207.85 74.2513 207.894 74.4355 208.039 74.6129C208.183 74.7901 208.418 74.9452 208.713 75.022L208.592 75.4846C208.209 75.3849 207.883 75.1788 207.668 74.9147C207.453 74.6508 207.34 74.3136 207.428 73.9738L207.891 74.0943ZM209.061 73.6853C208.766 73.6085 208.485 73.6293 208.273 73.7136C208.06 73.798 207.932 73.9373 207.891 74.0943L207.428 73.9738C207.517 73.6339 207.78 73.3949 208.097 73.2693C208.413 73.1437 208.798 73.123 209.181 73.2227L209.061 73.6853ZM212.207 74.5045L209.061 73.6853L209.181 73.2227L212.327 74.0419L212.207 74.5045ZM217.22 56.2028L212.498 74.3334L212.035 74.2129L216.757 56.0823L217.22 56.2028ZM217.231 56.1628C217.227 56.1759 217.223 56.1893 217.22 56.2028L216.757 56.0823C216.763 56.0596 216.77 56.0373 216.777 56.0153L217.231 56.1628ZM212.633 48.1013C212.134 51.4091 213.995 54.6349 217.092 55.867L216.916 56.3112C213.612 54.9971 211.629 51.5579 212.161 48.03L212.633 48.1013ZM213.36 47.0953C212.973 47.3226 212.696 47.6841 212.633 48.1013L212.161 48.03C212.249 47.4443 212.631 46.969 213.118 46.683L213.36 47.0953Z" fill="#0C0C0D"/>
<path fill-rule="evenodd" clip-rule="evenodd" d="M216.943 57.6692C215.877 53.6941 218.236 49.6082 222.211 48.5431C226.187 47.478 230.272 49.837 231.338 53.812C232.321 57.4823 230.385 61.2471 226.954 62.6413C226.96 62.6598 226.966 62.6787 226.971 62.6979L233.886 88.5077C234.019 89.0037 233.725 89.5134 233.229 89.6463L228.281 90.9722C227.785 91.1051 227.275 90.8108 227.142 90.3148C227.009 89.8189 227.304 89.3091 227.8 89.1762L231.85 88.0909L231.399 86.4085L226.978 87.5931C226.482 87.726 225.973 87.4316 225.84 86.9357C225.707 86.4397 226.001 85.93 226.497 85.7971L230.918 84.6125L230.505 83.0723L228.595 83.5841C228.099 83.717 227.589 83.4227 227.456 82.9267C227.324 82.4308 227.618 81.921 228.114 81.7881L230.024 81.2763L225.175 63.1791C225.17 63.1602 225.165 63.1414 225.161 63.1225C221.49 63.6352 217.927 61.342 216.943 57.6692Z" fill="#FF7833"/>
<path d="M226.954 62.6413L226.727 62.7175L226.655 62.5044L226.864 62.4198L226.954 62.6413ZM233.229 89.6463L233.167 89.4155L233.229 89.6463ZM228.281 90.9722L228.343 91.2031L228.281 90.9722ZM227.8 89.1762L227.738 88.9453L227.8 89.1762ZM231.85 88.0909L232.081 88.0291L232.143 88.2599L231.912 88.3218L231.85 88.0909ZM231.399 86.4085L231.337 86.1777L231.568 86.1158L231.63 86.3467L231.399 86.4085ZM226.978 87.5931L227.04 87.8239L226.978 87.5931ZM230.918 84.6125L231.149 84.5507L231.211 84.7815L230.98 84.8434L230.918 84.6125ZM230.505 83.0723L230.443 82.8414L230.674 82.7796L230.736 83.0104L230.505 83.0723ZM228.595 83.5841L228.657 83.815L228.595 83.5841ZM230.024 81.2763L230.255 81.2144L230.317 81.4453L230.086 81.5072L230.024 81.2763ZM225.175 63.1791L224.944 63.241L225.175 63.1791ZM225.161 63.1225L225.128 62.8858L225.351 62.8547L225.396 63.0749L225.161 63.1225ZM222.273 48.7739C218.426 49.8049 216.142 53.7597 217.173 57.6073L216.712 57.731C215.612 53.6284 218.047 49.4115 222.15 48.3122L222.273 48.7739ZM231.107 53.8739C230.076 50.0263 226.121 47.743 222.273 48.7739L222.15 48.3122C226.252 47.2129 230.469 49.6476 231.568 53.7502L231.107 53.8739ZM226.864 62.4198C230.185 61.0705 232.059 57.4263 231.107 53.8739L231.568 53.7502C232.583 57.5384 230.586 61.4237 227.044 62.8627L226.864 62.4198ZM226.74 62.7597C226.736 62.7454 226.732 62.7313 226.727 62.7175L227.18 62.5651C227.188 62.5883 227.195 62.612 227.202 62.636L226.74 62.7597ZM233.656 88.5696L226.74 62.7597L227.202 62.636L234.117 88.4458L233.656 88.5696ZM233.167 89.4155C233.536 89.3167 233.754 88.938 233.656 88.5696L234.117 88.4458C234.284 89.0693 233.914 89.7101 233.291 89.8772L233.167 89.4155ZM228.219 90.7413L233.167 89.4155L233.291 89.8772L228.343 91.2031L228.219 90.7413ZM227.373 90.253C227.472 90.6214 227.85 90.8401 228.219 90.7413L228.343 91.2031C227.719 91.3701 227.078 91.0001 226.911 90.3767L227.373 90.253ZM227.861 89.4071C227.493 89.5058 227.274 89.8845 227.373 90.253L226.911 90.3767C226.744 89.7532 227.114 89.1124 227.738 88.9453L227.861 89.4071ZM231.912 88.3218L227.861 89.4071L227.738 88.9453L231.788 87.8601L231.912 88.3218ZM231.63 86.3467L232.081 88.0291L231.619 88.1528L231.168 86.4704L231.63 86.3467ZM226.916 87.3622L231.337 86.1777L231.461 86.6394L227.04 87.8239L226.916 87.3622ZM226.071 86.8738C226.169 87.2423 226.548 87.4609 226.916 87.3622L227.04 87.8239C226.417 87.991 225.776 87.621 225.609 86.9976L226.071 86.8738ZM226.559 86.0279C226.19 86.1267 225.972 86.5054 226.071 86.8738L225.609 86.9976C225.442 86.3741 225.812 85.7333 226.435 85.5662L226.559 86.0279ZM230.98 84.8434L226.559 86.0279L226.435 85.5662L230.856 84.3817L230.98 84.8434ZM230.736 83.0104L231.149 84.5507L230.687 84.6744L230.274 83.1342L230.736 83.0104ZM228.533 83.3532L230.443 82.8414L230.567 83.3032L228.657 83.815L228.533 83.3532ZM227.687 82.8648C227.786 83.2333 228.165 83.4519 228.533 83.3532L228.657 83.815C228.034 83.982 227.393 83.612 227.226 82.9886L227.687 82.8648ZM228.176 82.019C227.807 82.1177 227.589 82.4964 227.687 82.8648L227.226 82.9886C227.059 82.3651 227.429 81.7243 228.052 81.5572L228.176 82.019ZM230.086 81.5072L228.176 82.019L228.052 81.5572L229.962 81.0454L230.086 81.5072ZM225.406 63.1172L230.255 81.2144L229.793 81.3382L224.944 63.241L225.406 63.1172ZM225.396 63.0749C225.399 63.089 225.402 63.1031 225.406 63.1172L224.944 63.241C224.938 63.2173 224.932 63.1937 224.927 63.17L225.396 63.0749ZM217.173 57.6073C218.126 61.1622 221.575 63.382 225.128 62.8858L225.194 63.3592C221.405 63.8884 217.727 61.5219 216.712 57.731L217.173 57.6073Z" fill="#0C0C0D"/>
<ellipse cx="2.56023" cy="2.64852" rx="2.56023" ry="2.64852" transform="matrix(-0.258819 -0.965926 -0.965926 0.258819 226.715 55.0129)" fill="#E9EFFB" stroke="#0C0C0D" stroke-width="0.478025"/>
<circle cx="1.50322" cy="1.50322" r="1.2642" transform="matrix(-0.997253 -0.0740736 -0.0740736 0.997253 240.125 48.4263)" fill="#EDF3FF" stroke="#0C0C0D" stroke-width="0.478025"/>
<circle cx="1.50322" cy="1.50322" r="1.2642" transform="matrix(-0.997253 -0.0740736 -0.0740736 0.997253 236.069 68.0242)" fill="#EDF3FF" stroke="#0C0C0D" stroke-width="0.478025"/>
<circle cx="1.50322" cy="1.50322" r="1.2642" transform="matrix(-0.997253 -0.0740736 -0.0740736 0.997253 205.523 73.6738)" fill="#EDF3FF" stroke="#0C0C0D" stroke-width="0.478025"/>
<circle cx="1.50322" cy="1.50322" r="1.2642" transform="matrix(-0.997253 -0.0740736 -0.0740736 0.997253 216.644 47.3655)" fill="#EDF3FF" stroke="#0C0C0D" stroke-width="0.478025"/>
<path d="M207.06 65.7109C207.201 65.4165 207.62 65.4165 207.761 65.7109L208.271 66.7795C208.3 66.8393 208.343 66.8907 208.397 66.929L209.422 67.6545C209.641 67.8091 209.641 68.1334 209.422 68.288L208.397 69.0135C208.343 69.0518 208.3 69.1032 208.271 69.163L207.761 70.2316C207.62 70.526 207.201 70.526 207.06 70.2316L206.55 69.163C206.521 69.1032 206.478 69.0518 206.424 69.0135L205.399 68.288C205.18 68.1334 205.18 67.8091 205.399 67.6545L206.424 66.929C206.478 66.8907 206.521 66.8393 206.55 66.7795L207.06 65.7109Z" fill="#FFC93E" stroke="#0C0C0D" stroke-width="0.478025" stroke-linejoin="round"/>
<path d="M243.455 77.0308C243.605 76.7734 243.977 76.7734 244.126 77.0308L244.518 77.7048C244.552 77.763 244.6 77.8114 244.659 77.8452L245.333 78.2372C245.59 78.3868 245.59 78.7585 245.333 78.9081L244.659 79.3001C244.6 79.334 244.552 79.3823 244.518 79.4405L244.126 80.1146C243.977 80.3719 243.605 80.3719 243.455 80.1146L243.063 79.4405C243.029 79.3823 242.981 79.334 242.923 79.3001L242.249 78.9081C241.991 78.7585 241.991 78.3868 242.249 78.2372L242.923 77.8452C242.981 77.8114 243.029 77.763 243.063 77.7048L243.455 77.0308Z" fill="#FFC93E" stroke="#0C0C0D" stroke-width="0.478025" stroke-linejoin="round"/>
<path d="M209.554 42.0698C209.703 41.8125 210.075 41.8125 210.225 42.0698L210.617 42.7439C210.651 42.8021 210.699 42.8504 210.757 42.8843L211.431 43.2763C211.689 43.4259 211.689 43.7976 211.431 43.9472L210.757 44.3392C210.699 44.373 210.651 44.4214 210.617 44.4796L210.225 45.1537C210.075 45.411 209.703 45.411 209.554 45.1537L209.162 44.4796C209.128 44.4214 209.08 44.373 209.021 44.3392L208.347 43.9472C208.09 43.7976 208.09 43.4259 208.347 43.2763L209.021 42.8843C209.08 42.8504 209.128 42.8021 209.162 42.7439L209.554 42.0698Z" fill="#FFC93E" stroke="#0C0C0D" stroke-width="0.478025" stroke-linejoin="round"/>
<path d="M241.162 51.9582C241.312 51.7009 241.684 51.7009 241.833 51.9582L242.225 52.6323C242.259 52.6905 242.307 52.7389 242.366 52.7727L243.04 53.1647C243.297 53.3143 243.297 53.686 243.04 53.8356L242.366 54.2276C242.307 54.2615 242.259 54.3098 242.225 54.368L241.833 55.0421C241.684 55.2994 241.312 55.2994 241.162 55.0421L240.77 54.368C240.736 54.3098 240.688 54.2615 240.63 54.2276L239.956 53.8356C239.698 53.686 239.698 53.3143 239.956 53.1647L240.63 52.7727C240.688 52.7389 240.736 52.6905 240.77 52.6323L241.162 51.9582Z" fill="#FFC93E" stroke="#0C0C0D" stroke-width="0.478025" stroke-linejoin="round"/>
<path d="M225.251 51.3798L224.803 51.8456C223.735 52.9581 222.26 53.5869 220.718 53.5869H219.959C216.827 53.5869 214.457 50.7548 215.01 47.6719V47.6719" stroke="#0C0C0D" stroke-width="0.478025" stroke-linecap="round" stroke-dasharray="1.59 1.59"/>
<path d="M246.354 30.7229L227.814 49.3508" stroke="#0C0C0D" stroke-width="0.478025" stroke-linecap="round" stroke-dasharray="1.59 1.59"/>
<path d="M215.051 29.0446L215.051 45.703" stroke="#0C0C0D" stroke-width="0.478025" stroke-linecap="round" stroke-dasharray="1.59 1.59"/>
</g>
<circle cx="224.287" cy="63.8502" r="33.89" stroke="white" stroke-width="2.47976"/>
<path d="M28.1855 38.1587C29.2871 38.1587 30.2246 38.2759 31.0215 38.5103V75.1665C30.0605 75.6587 29.334 75.8462 27.6699 75.8462C26.334 75.8462 25.1855 75.6118 24.2012 75.1665V50.5571H15.9512H14.709C14.3574 49.8774 14.1699 49.1274 14.1699 48.354C14.1699 47.6509 14.3574 46.9712 14.709 46.3384L15.2246 46.2681C17.8496 46.0103 19.4668 45.729 21.1074 45.0024C21.9277 44.6509 22.584 44.1821 23.0996 43.6431C24.1309 42.5415 24.9277 40.9009 25.3027 38.5571C26.2168 38.2993 27.1777 38.1587 28.1855 38.1587ZM44.9443 75.7993C43.9599 75.7993 42.8584 75.5181 41.6396 74.979C41.5224 74.2524 41.4521 73.3618 41.4521 72.354C41.4521 67.9243 42.5771 63.0493 44.8037 57.729C47.0302 52.4321 49.9599 47.9321 53.5927 44.2524L53.5459 44.1118H34.5849C34.0927 43.104 33.8584 42.1899 33.8584 41.3462C33.8584 40.3149 34.0927 39.3774 34.5849 38.5103H61.9834C62.3115 39.4712 62.4755 40.2212 62.4755 40.7603C62.4755 41.3462 62.3115 42.0962 61.9834 43.0571C57.2255 47.1118 53.5459 52.3618 51.413 57.6118C49.2802 62.8618 48.2724 68.0181 48.2724 73.0571V74.979C47.2177 75.5181 46.0927 75.7993 44.9443 75.7993ZM69.7655 69.6587H90.5077C91.4687 71.6509 91.4687 73.8071 90.5077 75.7993H62.8046C62.5937 74.6978 62.4765 73.5962 62.4765 72.4946C62.4765 69.4009 63.3671 66.7993 64.703 64.8306C65.3827 63.8696 66.2734 62.9321 67.3749 62.0181C68.4765 61.1274 69.6249 60.3306 70.8202 59.6509C71.9921 58.9712 73.3984 58.2446 75.0624 57.4712C78.5546 55.854 80.8984 54.4243 82.1405 53.229C83.3827 52.0337 83.9921 50.5337 83.9921 48.7759C83.9921 47.3462 83.5234 46.1509 82.5859 45.2134C81.3905 44.0181 79.5859 43.4087 77.1718 43.4087C74.289 43.4087 72.2265 44.0181 70.9843 45.2603C69.8124 46.4321 69.3202 47.979 69.5312 49.8774C68.5702 50.2759 67.4687 50.4634 66.2265 50.4634C64.9843 50.4634 63.9296 50.2759 63.0624 49.8774C62.5702 46.1509 63.6484 43.1509 66.2734 40.854C68.7812 38.6509 72.3671 37.5493 76.9843 37.5493C81.5077 37.5493 85.0468 38.7212 87.578 41.0415C89.7812 43.0806 90.8827 45.5649 90.8827 48.4946C90.8827 50.8853 90.3202 52.9243 89.2187 54.5181C88.4218 55.6665 87.7187 56.5103 86.4999 57.4478C85.2812 58.4087 84.3671 59.0415 82.7968 59.9087C82.0234 60.354 81.3202 60.729 80.6874 61.0337C80.0546 61.3384 79.2812 61.7134 78.3671 62.1587C75.3202 63.6353 73.164 64.8774 71.9218 65.9087C70.6562 66.9634 69.9296 68.2056 69.7655 69.6587ZM106.516 69.8931C105.766 69.8931 104.923 69.7524 104.009 69.4712V59.3931H94.0243C93.743 58.479 93.6024 57.6587 93.6024 56.979C93.6024 56.3696 93.743 55.5962 94.0243 54.6821H104.009V44.604C104.829 44.2993 105.649 44.1587 106.516 44.1587C107.29 44.1587 108.087 44.2993 108.907 44.604V54.6821H118.891C119.196 55.6665 119.337 56.4399 119.337 56.979C119.337 57.6118 119.196 58.4087 118.891 59.3931H108.907V69.4712C107.993 69.7524 107.196 69.8931 106.516 69.8931Z" fill="url(#paint0_linear_13572_2755)"/>
<path d="M14.5556 88.072L16.9846 95.18H17.0826L19.5115 88.072H20.9348L17.7942 96.7993H16.2729L13.1323 88.072H14.5556ZM24.1376 96.9314C23.4927 96.9314 22.9374 96.7936 22.4714 96.5181C22.0084 96.2397 21.6504 95.849 21.3976 95.3462C21.1476 94.8405 21.0226 94.2482 21.0226 93.5692C21.0226 92.8987 21.1476 92.3078 21.3976 91.7965C21.6504 91.2851 22.0027 90.886 22.4544 90.599C22.9089 90.3121 23.4402 90.1686 24.0481 90.1686C24.4175 90.1686 24.7754 90.2297 25.122 90.3519C25.4686 90.474 25.7797 90.6658 26.0552 90.9272C26.3308 91.1885 26.5481 91.528 26.7072 91.9456C26.8663 92.3604 26.9459 92.8647 26.9459 93.4584V93.9101H21.7427V92.9556H25.6973C25.6973 92.6203 25.6291 92.3235 25.4927 92.0649C25.3564 91.8036 25.1646 91.5976 24.9175 91.447C24.6731 91.2965 24.3862 91.2212 24.0567 91.2212C23.6987 91.2212 23.3862 91.3093 23.1192 91.4854C22.855 91.6587 22.6504 91.886 22.5055 92.1672C22.3635 92.4456 22.2925 92.7482 22.2925 93.0749V93.8206C22.2925 94.2581 22.3692 94.6303 22.5226 94.9371C22.6788 95.2439 22.8962 95.4783 23.1746 95.6402C23.453 95.7993 23.7783 95.8789 24.1504 95.8789C24.3919 95.8789 24.6121 95.8448 24.8109 95.7766C25.0098 95.7056 25.1817 95.6005 25.3266 95.4612C25.4714 95.322 25.5822 95.1502 25.6589 94.9456L26.8649 95.163C26.7683 95.5181 26.595 95.8291 26.345 96.0962C26.0979 96.3604 25.7868 96.5664 25.4118 96.7141C25.0396 96.859 24.6149 96.9314 24.1376 96.9314ZM28.2396 96.7993V90.2539H29.4711V91.2936H29.5393C29.6586 90.9414 29.8688 90.6644 30.17 90.4627C30.474 90.2581 30.8177 90.1559 31.2012 90.1559C31.2808 90.1559 31.3745 90.1587 31.4825 90.1644C31.5933 90.1701 31.6799 90.1772 31.7424 90.1857V91.4044C31.6913 91.3902 31.6004 91.3746 31.4697 91.3576C31.339 91.3377 31.2083 91.3277 31.0776 91.3277C30.7765 91.3277 30.508 91.3916 30.2723 91.5195C30.0393 91.6445 29.8546 91.8192 29.7183 92.0436C29.5819 92.2652 29.5137 92.5181 29.5137 92.8022V96.7993H28.2396ZM32.725 96.7993V90.2539H33.9992V96.7993H32.725ZM33.3685 89.2439C33.1469 89.2439 32.9566 89.1701 32.7975 89.0223C32.6412 88.8718 32.5631 88.6928 32.5631 88.4854C32.5631 88.2752 32.6412 88.0962 32.7975 87.9485C32.9566 87.7979 33.1469 87.7226 33.3685 87.7226C33.5901 87.7226 33.779 87.7979 33.9353 87.9485C34.0944 88.0962 34.1739 88.2752 34.1739 88.4854C34.1739 88.6928 34.0944 88.8718 33.9353 89.0223C33.779 89.1701 33.5901 89.2439 33.3685 89.2439ZM38.7084 90.2539V91.2766H35.0095V90.2539H38.7084ZM36.0237 96.7993V89.4953C36.0237 89.0862 36.1132 88.7468 36.2922 88.4769C36.4712 88.2041 36.7084 88.001 37.0038 87.8675C37.2993 87.7311 37.6203 87.663 37.9669 87.663C38.2226 87.663 38.4413 87.6843 38.6232 87.7269C38.805 87.7666 38.9399 87.8036 39.028 87.8377L38.7297 88.8689C38.67 88.8519 38.5933 88.832 38.4996 88.8093C38.4058 88.7837 38.2922 88.7709 38.1587 88.7709C37.849 88.7709 37.6274 88.8476 37.4939 89.001C37.3632 89.1544 37.2979 89.376 37.2979 89.6658V96.7993H36.0237ZM39.903 96.7993V90.2539H41.1772V96.7993H39.903ZM40.5465 89.2439C40.3249 89.2439 40.1346 89.1701 39.9755 89.0223C39.8192 88.8718 39.7411 88.6928 39.7411 88.4854C39.7411 88.2752 39.8192 88.0962 39.9755 87.9485C40.1346 87.7979 40.3249 87.7226 40.5465 87.7226C40.7681 87.7226 40.957 87.7979 41.1132 87.9485C41.2723 88.0962 41.3519 88.2752 41.3519 88.4854C41.3519 88.6928 41.2723 88.8718 41.1132 89.0223C40.957 89.1701 40.7681 89.2439 40.5465 89.2439ZM45.5923 96.9314C44.9474 96.9314 44.392 96.7936 43.9261 96.5181C43.4631 96.2397 43.1051 95.849 42.8523 95.3462C42.6023 94.8405 42.4773 94.2482 42.4773 93.5692C42.4773 92.8987 42.6023 92.3078 42.8523 91.7965C43.1051 91.2851 43.4574 90.886 43.9091 90.599C44.3636 90.3121 44.8949 90.1686 45.5028 90.1686C45.8722 90.1686 46.2301 90.2297 46.5767 90.3519C46.9233 90.474 47.2344 90.6658 47.5099 90.9272C47.7855 91.1885 48.0028 91.528 48.1619 91.9456C48.321 92.3604 48.4006 92.8647 48.4006 93.4584V93.9101H43.1974V92.9556H47.152C47.152 92.6203 47.0838 92.3235 46.9474 92.0649C46.8111 91.8036 46.6193 91.5976 46.3722 91.447C46.1278 91.2965 45.8409 91.2212 45.5114 91.2212C45.1534 91.2212 44.8409 91.3093 44.5739 91.4854C44.3097 91.6587 44.1051 91.886 43.9602 92.1672C43.8182 92.4456 43.7472 92.7482 43.7472 93.0749V93.8206C43.7472 94.2581 43.8239 94.6303 43.9773 94.9371C44.1335 95.2439 44.3508 95.4783 44.6293 95.6402C44.9077 95.7993 45.2329 95.8789 45.6051 95.8789C45.8466 95.8789 46.0668 95.8448 46.2656 95.7766C46.4645 95.7056 46.6364 95.6005 46.7812 95.4612C46.9261 95.322 47.0369 95.1502 47.1136 94.9456L48.3196 95.163C48.223 95.5181 48.0497 95.8291 47.7997 96.0962C47.5526 96.3604 47.2415 96.5664 46.8665 96.7141C46.4943 96.859 46.0696 96.9314 45.5923 96.9314ZM52.1446 96.9272C51.6161 96.9272 51.1446 96.7922 50.7298 96.5223C50.3178 96.2496 49.994 95.8618 49.7582 95.359C49.5252 94.8533 49.4088 94.2468 49.4088 93.5394C49.4088 92.832 49.5267 92.2269 49.7625 91.724C50.0011 91.2212 50.3278 90.8362 50.7426 90.5692C51.1573 90.3022 51.6275 90.1686 52.1531 90.1686C52.5593 90.1686 52.886 90.2368 53.1332 90.3732C53.3832 90.5067 53.5764 90.663 53.7127 90.8419C53.8519 91.0209 53.9599 91.1786 54.0366 91.3149H54.1133V88.072H55.3875V96.7993H54.1431V95.7809H54.0366C53.9599 95.9201 53.8491 96.0791 53.7042 96.2581C53.5622 96.4371 53.3661 96.5934 53.1161 96.7269C52.8661 96.8604 52.5423 96.9272 52.1446 96.9272ZM52.4258 95.8405C52.7923 95.8405 53.1019 95.7439 53.3548 95.5507C53.6105 95.3547 53.8036 95.0834 53.9343 94.7368C54.0678 94.3902 54.1346 93.9868 54.1346 93.5266C54.1346 93.072 54.0693 92.6743 53.9386 92.3334C53.8079 91.9925 53.6161 91.7269 53.3633 91.5365C53.1105 91.3462 52.798 91.251 52.4258 91.251C52.0423 91.251 51.7227 91.3505 51.467 91.5493C51.2113 91.7482 51.0181 92.0195 50.8875 92.3632C50.7596 92.707 50.6957 93.0948 50.6957 93.5266C50.6957 93.9641 50.761 94.3576 50.8917 94.707C51.0224 95.0564 51.2156 95.3334 51.4713 95.538C51.7298 95.7397 52.048 95.8405 52.4258 95.8405ZM65.004 90.3647C64.9585 89.9612 64.771 89.6487 64.4415 89.4272C64.1119 89.2027 63.6972 89.0905 63.1972 89.0905C62.8392 89.0905 62.5296 89.1473 62.2682 89.261C62.0068 89.3718 61.8037 89.5252 61.6588 89.7212C61.5168 89.9144 61.4457 90.1345 61.4457 90.3817C61.4457 90.5891 61.494 90.7681 61.5906 90.9186C61.6901 91.0692 61.8193 91.1956 61.9784 91.2979C62.1403 91.3973 62.3136 91.4811 62.4983 91.5493C62.683 91.6147 62.8605 91.6686 63.031 91.7112L63.8832 91.9328C64.1617 92.001 64.4472 92.0934 64.7398 92.2098C65.0324 92.3263 65.3037 92.4797 65.5537 92.6701C65.8037 92.8604 66.0054 93.0962 66.1588 93.3774C66.3151 93.6587 66.3932 93.9953 66.3932 94.3874C66.3932 94.8817 66.2653 95.3206 66.0097 95.7041C65.7568 96.0877 65.3889 96.3902 64.906 96.6118C64.4259 96.8334 63.8449 96.9442 63.1631 96.9442C62.5097 96.9442 61.9443 96.8405 61.4671 96.6331C60.9898 96.4257 60.6162 96.1317 60.3463 95.751C60.0764 95.3675 59.9273 94.913 59.8989 94.3874H61.2199C61.2455 94.7027 61.3477 94.9655 61.5267 95.1757C61.7085 95.3831 61.9401 95.538 62.2213 95.6402C62.5054 95.7397 62.8165 95.7894 63.1546 95.7894C63.5267 95.7894 63.8577 95.7311 64.1474 95.6147C64.4401 95.4953 64.6702 95.3306 64.8378 95.1203C65.0054 94.9073 65.0892 94.6587 65.0892 94.3746C65.0892 94.1161 65.0153 93.9044 64.8676 93.7397C64.7227 93.5749 64.5253 93.4385 64.2753 93.3306C64.0281 93.2226 63.7483 93.1274 63.4358 93.0451L62.4046 92.7638C61.7057 92.5735 61.1517 92.2936 60.7426 91.9243C60.3364 91.555 60.1332 91.0664 60.1332 90.4584C60.1332 89.9556 60.2696 89.5166 60.5423 89.1416C60.8151 88.7666 61.1844 88.4755 61.6503 88.2681C62.1162 88.0578 62.6418 87.9527 63.227 87.9527C63.8179 87.9527 64.3392 88.0564 64.7909 88.2638C65.2455 88.4712 65.6034 88.7567 65.8648 89.1203C66.1261 89.4811 66.2625 89.8959 66.2739 90.3647H65.004ZM67.8467 96.7993V88.072H71.0427C71.662 88.072 72.1748 88.1743 72.5811 88.3789C72.9873 88.5806 73.2913 88.8547 73.493 89.2013C73.6947 89.5451 73.7956 89.9328 73.7956 90.3647C73.7956 90.7283 73.7288 91.0351 73.5953 91.2851C73.4618 91.5323 73.2828 91.7311 73.0583 91.8817C72.8368 92.0294 72.5924 92.1374 72.3254 92.2056V92.2908C72.6152 92.305 72.8978 92.3987 73.1734 92.572C73.4518 92.7425 73.6819 92.9854 73.8637 93.3007C74.0456 93.6161 74.1365 93.9996 74.1365 94.4513C74.1365 94.8973 74.0314 95.2979 73.8211 95.653C73.6137 96.0053 73.2927 96.2851 72.8581 96.4925C72.4234 96.697 71.868 96.7993 71.1919 96.7993H67.8467ZM69.1635 95.6701H71.064C71.6947 95.6701 72.1464 95.5479 72.4191 95.3036C72.6919 95.0593 72.8282 94.7539 72.8282 94.3874C72.8282 94.1118 72.7586 93.859 72.6194 93.6289C72.4802 93.3987 72.2814 93.2155 72.0228 93.0791C71.7672 92.9428 71.4632 92.8746 71.1109 92.8746H69.1635V95.6701ZM69.1635 91.8476H70.9277C71.2231 91.8476 71.4887 91.7908 71.7245 91.6772C71.9632 91.5635 72.1521 91.4044 72.2913 91.1999C72.4333 90.9925 72.5044 90.7482 72.5044 90.4669C72.5044 90.1061 72.3779 89.8036 72.1251 89.5593C71.8723 89.3149 71.4845 89.1928 70.9618 89.1928H69.1635V91.8476ZM75.1479 89.2056V88.072H81.9021V89.2056H79.1791V96.7993H77.8666V89.2056H75.1479ZM14.9647 107.913V111.799H13.6905V103.072H14.9476V106.319H15.0286C15.182 105.967 15.4164 105.687 15.7317 105.48C16.0471 105.272 16.459 105.169 16.9675 105.169C17.4164 105.169 17.8084 105.261 18.1436 105.446C18.4817 105.63 18.7431 105.906 18.9277 106.272C19.1152 106.636 19.209 107.091 19.209 107.636V111.799H17.9348V107.789C17.9348 107.309 17.8113 106.937 17.5641 106.673C17.3169 106.406 16.9732 106.272 16.5328 106.272C16.2317 106.272 15.9618 106.336 15.7232 106.464C15.4874 106.592 15.3013 106.779 15.165 107.027C15.0314 107.271 14.9647 107.566 14.9647 107.913ZM23.5464 111.931C22.9327 111.931 22.3972 111.791 21.9398 111.51C21.4825 111.228 21.1273 110.835 20.8745 110.329C20.6217 109.823 20.4952 109.233 20.4952 108.556C20.4952 107.877 20.6217 107.284 20.8745 106.775C21.1273 106.267 21.4825 105.872 21.9398 105.591C22.3972 105.309 22.9327 105.169 23.5464 105.169C24.16 105.169 24.6955 105.309 25.1529 105.591C25.6103 105.872 25.9654 106.267 26.2182 106.775C26.4711 107.284 26.5975 107.877 26.5975 108.556C26.5975 109.233 26.4711 109.823 26.2182 110.329C25.9654 110.835 25.6103 111.228 25.1529 111.51C24.6955 111.791 24.16 111.931 23.5464 111.931ZM23.5506 110.862C23.9484 110.862 24.2779 110.757 24.5393 110.546C24.8006 110.336 24.9938 110.056 25.1188 109.707C25.2467 109.358 25.3106 108.973 25.3106 108.552C25.3106 108.135 25.2467 107.751 25.1188 107.402C24.9938 107.049 24.8006 106.767 24.5393 106.554C24.2779 106.341 23.9484 106.234 23.5506 106.234C23.1501 106.234 22.8177 106.341 22.5535 106.554C22.2921 106.767 22.0975 107.049 21.9697 107.402C21.8447 107.751 21.7822 108.135 21.7822 108.552C21.7822 108.973 21.8447 109.358 21.9697 109.707C22.0975 110.056 22.2921 110.336 22.5535 110.546C22.8177 110.757 23.1501 110.862 23.5506 110.862ZM29.1739 103.072V111.799H27.8997V103.072H29.1739ZM33.2183 111.927C32.6899 111.927 32.2183 111.792 31.8035 111.522C31.3916 111.25 31.0677 110.862 30.8319 110.359C30.599 109.853 30.4825 109.247 30.4825 108.539C30.4825 107.832 30.6004 107.227 30.8362 106.724C31.0748 106.221 31.4015 105.836 31.8163 105.569C32.2311 105.302 32.7013 105.169 33.2268 105.169C33.6331 105.169 33.9598 105.237 34.2069 105.373C34.4569 105.507 34.6501 105.663 34.7865 105.842C34.9257 106.021 35.0336 106.179 35.1103 106.315H35.1871V103.072H36.4612V111.799H35.2169V110.781H35.1103C35.0336 110.92 34.9228 111.079 34.778 111.258C34.6359 111.437 34.4399 111.593 34.1899 111.727C33.9399 111.86 33.616 111.927 33.2183 111.927ZM33.4996 110.841C33.866 110.841 34.1757 110.744 34.4285 110.551C34.6842 110.355 34.8774 110.083 35.0081 109.737C35.1416 109.39 35.2084 108.987 35.2084 108.527C35.2084 108.072 35.143 107.674 35.0123 107.333C34.8817 106.992 34.6899 106.727 34.4371 106.537C34.1842 106.346 33.8717 106.251 33.4996 106.251C33.116 106.251 32.7964 106.35 32.5407 106.549C32.2851 106.748 32.0919 107.019 31.9612 107.363C31.8334 107.707 31.7694 108.095 31.7694 108.527C31.7694 108.964 31.8348 109.358 31.9655 109.707C32.0961 110.056 32.2893 110.333 32.545 110.538C32.8035 110.74 33.1217 110.841 33.4996 110.841ZM40.9808 111.931C40.3359 111.931 39.7805 111.794 39.3146 111.518C38.8515 111.24 38.4935 110.849 38.2407 110.346C37.9907 109.841 37.8657 109.248 37.8657 108.569C37.8657 107.899 37.9907 107.308 38.2407 106.796C38.4935 106.285 38.8458 105.886 39.2975 105.599C39.7521 105.312 40.2833 105.169 40.8913 105.169C41.2606 105.169 41.6185 105.23 41.9651 105.352C42.3117 105.474 42.6228 105.666 42.8984 105.927C43.1739 106.189 43.3913 106.528 43.5504 106.946C43.7095 107.36 43.789 107.865 43.789 108.458V108.91H38.5859V107.956H42.5404C42.5404 107.62 42.4722 107.323 42.3359 107.065C42.1995 106.804 42.0077 106.598 41.7606 106.447C41.5163 106.296 41.2293 106.221 40.8998 106.221C40.5418 106.221 40.2293 106.309 39.9623 106.485C39.6981 106.659 39.4935 106.886 39.3487 107.167C39.2066 107.446 39.1356 107.748 39.1356 108.075V108.821C39.1356 109.258 39.2123 109.63 39.3657 109.937C39.522 110.244 39.7393 110.478 40.0177 110.64C40.2961 110.799 40.6214 110.879 40.9935 110.879C41.235 110.879 41.4552 110.845 41.6541 110.777C41.8529 110.706 42.0248 110.6 42.1697 110.461C42.3146 110.322 42.4254 110.15 42.5021 109.946L43.708 110.163C43.6114 110.518 43.4381 110.829 43.1881 111.096C42.941 111.36 42.6299 111.566 42.2549 111.714C41.8827 111.859 41.458 111.931 40.9808 111.931ZM45.0827 111.799V105.254H46.3142V106.294H46.3824C46.5017 105.941 46.712 105.664 47.0131 105.463C47.3171 105.258 47.6608 105.156 48.0444 105.156C48.1239 105.156 48.2176 105.159 48.3256 105.164C48.4364 105.17 48.523 105.177 48.5855 105.186V106.404C48.5344 106.39 48.4435 106.375 48.3128 106.358C48.1821 106.338 48.0515 106.328 47.9208 106.328C47.6196 106.328 47.3512 106.392 47.1154 106.519C46.8824 106.644 46.6978 106.819 46.5614 107.044C46.425 107.265 46.3569 107.518 46.3569 107.802V111.799H45.0827ZM54.473 106.852L53.3182 107.056C53.2699 106.909 53.1932 106.768 53.0881 106.635C52.9858 106.501 52.8466 106.392 52.6704 106.306C52.4943 106.221 52.2741 106.179 52.0099 106.179C51.6491 106.179 51.348 106.26 51.1065 106.421C50.865 106.581 50.7443 106.787 50.7443 107.039C50.7443 107.258 50.8253 107.434 50.9872 107.568C51.1491 107.701 51.4105 107.811 51.7713 107.896L52.8111 108.135C53.4133 108.274 53.8622 108.488 54.1577 108.778C54.4531 109.068 54.6008 109.444 54.6008 109.907C54.6008 110.299 54.4872 110.649 54.2599 110.956C54.0355 111.26 53.7216 111.498 53.3182 111.671C52.9176 111.845 52.4531 111.931 51.9247 111.931C51.1918 111.931 50.5937 111.775 50.1307 111.463C49.6676 111.147 49.3835 110.7 49.2784 110.12L50.5099 109.933C50.5866 110.254 50.7443 110.497 50.9829 110.662C51.2216 110.823 51.5327 110.904 51.9162 110.904C52.3338 110.904 52.6676 110.818 52.9176 110.644C53.1676 110.468 53.2926 110.254 53.2926 110.001C53.2926 109.796 53.2159 109.625 53.0625 109.485C52.9119 109.346 52.6804 109.241 52.3679 109.17L51.2599 108.927C50.6491 108.788 50.1974 108.566 49.9048 108.262C49.615 107.958 49.4702 107.573 49.4702 107.108C49.4702 106.721 49.5781 106.383 49.794 106.093C50.0099 105.804 50.3082 105.578 50.6889 105.416C51.0696 105.251 51.5057 105.169 51.9972 105.169C52.7045 105.169 53.2614 105.322 53.6676 105.629C54.0739 105.933 54.3423 106.341 54.473 106.852Z" fill="#63636D"/>
<g filter="url(#filter1_b_13572_2755)">
<circle cx="163.12" cy="34.9197" r="21.4912" fill="white" fill-opacity="0.14"/>
</g>
<mask id="mask1_13572_2755" style="mask-type:alpha" maskUnits="userSpaceOnUse" x="141" y="13" width="44" height="44">
<circle cx="163.12" cy="34.9197" r="21.4912" fill="#D9D9D9"/>
</mask>
<g mask="url(#mask1_13572_2755)">
<circle cx="163.1" cy="34.8951" r="12.2053" transform="rotate(15 163.1 34.8951)" fill="url(#paint1_linear_13572_2755)" stroke="#0C0C0D" stroke-width="0.487073"/>
<path d="M168.331 36.2974C167.448 39.5922 166.044 42.401 164.499 44.2795C162.938 46.1766 161.302 47.0498 159.941 46.6853C158.581 46.3208 157.6 44.7464 157.197 42.3231C156.798 39.9235 156.987 36.7892 157.87 33.4944C158.753 30.1996 160.156 27.3908 161.702 25.5123C163.262 23.6152 164.899 22.742 166.259 23.1065C167.62 23.471 168.6 25.0454 169.003 27.4688C169.402 29.8683 169.214 33.0026 168.331 36.2974Z" stroke="#0C0C0D" stroke-width="0.487073"/>
<path d="M176.086 33.5854C176.074 33.633 176.026 33.7077 175.867 33.7876C175.709 33.8667 175.473 33.9341 175.152 33.9807C174.511 34.0734 173.589 34.0754 172.415 33.9745C170.071 33.7729 166.967 33.1822 163.787 32.33C160.607 31.4779 157.623 30.4374 155.492 29.44C154.425 28.9405 153.627 28.4775 153.119 28.0769C152.864 27.876 152.694 27.6998 152.597 27.5523C152.499 27.4037 152.495 27.3151 152.508 27.2675" stroke="#0C0C0D" stroke-width="0.487073" stroke-linecap="round"/>
<path d="M173.664 42.6164C173.677 42.5688 173.673 42.4803 173.575 42.3316C173.478 42.1841 173.307 42.0079 173.052 41.807C172.544 41.4064 171.746 40.9434 170.679 40.444C168.548 39.4465 165.565 38.4061 162.384 37.5539C159.204 36.7018 156.1 36.111 153.756 35.9095C152.582 35.8085 151.66 35.8105 151.019 35.9033C150.698 35.9498 150.462 36.0172 150.305 36.0964C150.146 36.1762 150.098 36.2509 150.085 36.2985" stroke="#0C0C0D" stroke-width="0.487073" stroke-linecap="round"/>
<path d="M170.813 26.3772C171.833 27.8728 172.485 29.7492 172.695 31.8173C172.904 33.8851 172.662 36.065 171.993 38.1321" stroke="#0C0C0D" stroke-width="0.487073" stroke-linecap="round" stroke-linejoin="round"/>
<path d="M171.428 39.6198C170.772 41.114 169.902 42.4638 168.871 43.5895C167.839 44.7153 166.669 45.5923 165.432 46.1718C164.195 46.7511 162.917 47.0209 161.674 46.9703C160.43 46.9198 159.243 46.5498 158.18 45.8815C157.116 45.213 156.196 44.2574 155.477 43.0672C154.757 41.8768 154.254 40.477 154 38.9496C153.746 37.4223 153.747 35.8009 154.004 34.1824C154.261 32.5639 154.769 30.9835 155.497 29.5356" stroke="#0C0C0D" stroke-width="0.487073" stroke-linecap="round" stroke-linejoin="round"/>
<path d="M156.639 27.6299C157.879 25.8787 159.427 24.5352 161.11 23.7382C162.792 22.9418 164.544 22.7216 166.178 23.0907" stroke="#0C0C0D" stroke-width="0.487073" stroke-linecap="round" stroke-linejoin="round"/>
<path d="M166.08 23.7708C166.601 23.9105 167.09 24.0008 167.459 24.032C167.642 24.0475 167.809 24.0496 167.939 24.0312C168.004 24.0222 168.074 24.0063 168.138 23.9749C168.2 23.9444 168.289 23.881 168.321 23.7626C168.353 23.6442 168.307 23.5446 168.269 23.4871C168.229 23.4283 168.176 23.3791 168.125 23.3391C168.021 23.2578 167.876 23.1765 167.71 23.0984C167.374 22.9405 166.906 22.7747 166.384 22.635C165.863 22.4953 165.375 22.405 165.005 22.3738C164.822 22.3583 164.656 22.3562 164.525 22.3746C164.461 22.3836 164.39 22.3996 164.327 22.4309C164.265 22.4614 164.175 22.5248 164.143 22.6432C164.112 22.7616 164.157 22.8612 164.196 22.9187C164.235 22.9775 164.288 23.0267 164.34 23.0667C164.444 23.148 164.589 23.2293 164.755 23.3074C165.091 23.4653 165.559 23.6311 166.08 23.7708Z" fill="#3568DD" stroke="#0C0C0D" stroke-width="0.487073"/>
<path d="M160.093 46.1132C159.571 45.9735 159.083 45.8832 158.713 45.852C158.531 45.8366 158.364 45.8344 158.234 45.8528C158.169 45.8619 158.098 45.8778 158.035 45.9091C157.973 45.9397 157.884 46.003 157.852 46.1214C157.82 46.2399 157.866 46.3394 157.904 46.3969C157.944 46.4557 157.997 46.5049 158.048 46.5449C158.152 46.6262 158.297 46.7075 158.463 46.7856C158.799 46.9435 159.267 47.1094 159.788 47.2491C160.31 47.3888 160.798 47.479 161.168 47.5103C161.351 47.5257 161.517 47.5278 161.648 47.5094C161.712 47.5004 161.783 47.4845 161.846 47.4532C161.908 47.4226 161.998 47.3593 162.029 47.2408C162.061 47.1224 162.015 47.0228 161.977 46.9654C161.938 46.9065 161.884 46.8573 161.833 46.8173C161.729 46.736 161.584 46.6548 161.418 46.5767C161.082 46.4188 160.614 46.2529 160.093 46.1132Z" fill="#3568DD" stroke="#0C0C0D" stroke-width="0.487073"/>
<path d="M173.932 23.9496C174.075 23.6497 174.502 23.6497 174.645 23.9496L174.813 24.3008C174.842 24.3617 174.886 24.4141 174.941 24.4531L175.38 24.7633C175.602 24.9209 175.602 25.2512 175.38 25.4088L174.941 25.719C174.886 25.758 174.842 25.8104 174.813 25.8713L174.645 26.2225C174.502 26.5224 174.075 26.5224 173.932 26.2225L173.764 25.8713C173.735 25.8104 173.691 25.758 173.636 25.719L173.197 25.4088C172.975 25.2512 172.975 24.9209 173.197 24.7633L173.636 24.4531C173.691 24.4141 173.735 24.3617 173.764 24.3008L173.932 23.9496Z" fill="#FFC93E" stroke="#0C0C0D" stroke-width="0.487073" stroke-linejoin="round"/>
<path fill-rule="evenodd" clip-rule="evenodd" d="M151.887 22.5368C152.201 22.0604 152.847 21.92 153.331 22.2234L153.392 22.2619C153.53 22.3484 153.712 22.308 153.8 22.1713L153.839 22.1103C154.148 21.6307 154.793 21.4838 155.279 21.7822C155.766 22.0806 155.91 22.7112 155.601 23.1908L154.43 25.0066C154.342 25.1433 154.161 25.1837 154.023 25.0972L152.193 23.9488C151.71 23.6454 151.573 23.0133 151.887 22.5368Z" fill="#FF6767" stroke="#29292D" stroke-width="0.487073"/>
<path fill-rule="evenodd" clip-rule="evenodd" d="M176.799 29.2514C177.171 29.0445 177.648 29.1746 177.863 29.5422C177.939 29.6728 178.106 29.7177 178.238 29.6427C178.608 29.432 179.086 29.5574 179.305 29.9227C179.523 30.2881 179.401 30.755 179.031 30.9658L177.695 31.7268C177.553 31.8072 177.373 31.7591 177.291 31.6187L176.514 30.2915C176.299 29.924 176.427 29.4583 176.799 29.2514Z" fill="#FF6767" stroke="#29292D" stroke-width="0.487073"/>
<path fill-rule="evenodd" clip-rule="evenodd" d="M158.897 41.0391C159.145 40.6926 159.631 40.6062 159.983 40.846C160.108 40.9313 160.278 40.9001 160.365 40.7761C160.609 40.4271 161.094 40.3358 161.448 40.5721C161.803 40.8083 161.892 41.2828 161.648 41.6317L160.767 42.8919C160.674 43.0252 160.491 43.0587 160.356 42.9671L159.086 42.1008C158.734 41.8609 158.649 41.3856 158.897 41.0391Z" fill="#FF6767" stroke="#29292D" stroke-width="0.487073"/>
<path fill-rule="evenodd" clip-rule="evenodd" d="M146.794 34.0386C147.041 33.6921 147.527 33.6057 147.879 33.8456C148.004 33.9308 148.175 33.8997 148.261 33.7756C148.505 33.4266 148.991 33.3353 149.345 33.5716C149.699 33.8078 149.789 34.2823 149.545 34.6312L148.663 35.8915C148.57 36.0247 148.387 36.0582 148.253 35.9666L146.982 35.1003C146.63 34.8604 146.546 34.3851 146.794 34.0386Z" fill="#FF6767" stroke="#29292D" stroke-width="0.487073"/>
<path d="M152.526 32.7779C152.657 32.5024 153.049 32.5024 153.18 32.7779C153.207 32.8337 153.247 32.8818 153.298 32.9176L153.4 32.99C153.621 33.1476 153.621 33.477 153.4 33.6346L153.298 33.707C153.247 33.7428 153.207 33.7909 153.18 33.8467C153.049 34.1222 152.657 34.1222 152.526 33.8467C152.5 33.7909 152.459 33.7428 152.409 33.707L152.307 33.6346C152.085 33.477 152.085 33.1476 152.307 32.99L152.409 32.9176C152.459 32.8818 152.5 32.8337 152.526 32.7779Z" fill="#FFC93E" stroke="#0C0C0D" stroke-width="0.487073" stroke-linejoin="round"/>
<path d="M174.635 45.7752C174.766 45.4997 175.158 45.4997 175.289 45.7752C175.315 45.831 175.356 45.8791 175.406 45.9149L175.508 45.9873C175.73 46.1449 175.73 46.4743 175.508 46.6319L175.406 46.7043C175.356 46.7401 175.315 46.7882 175.289 46.844C175.158 47.1195 174.766 47.1195 174.635 46.844C174.608 46.7882 174.568 46.7401 174.517 46.7043L174.415 46.6319C174.194 46.4743 174.194 46.1449 174.415 45.9873L174.517 45.9149C174.568 45.8791 174.608 45.831 174.635 45.7752Z" fill="#FFC93E" stroke="#0C0C0D" stroke-width="0.487073" stroke-linejoin="round"/>
</g>
<circle cx="163.12" cy="34.9197" r="21.4912" stroke="white" stroke-width="2.47976"/>
<g filter="url(#filter2_b_13572_2755)">
<circle cx="184.666" cy="98.058" r="52.2013" transform="rotate(-6.67792 184.666 98.058)" fill="white" fill-opacity="0.14"/>
</g>
<mask id="mask2_13572_2755" style="mask-type:alpha" maskUnits="userSpaceOnUse" x="132" y="45" width="105" height="106">
<circle cx="184.67" cy="98.0578" r="52.2013" transform="rotate(-6.67792 184.67 98.0578)" fill="#D9D9D9"/>
</mask>
<g mask="url(#mask2_13572_2755)">
<path d="M182.996 146.513C185.114 146.265 186.971 147.929 186.954 150.062L186.543 204.352C186.529 206.141 185.186 207.639 183.409 207.847L178.193 208.458C176.072 208.706 174.215 207.038 174.235 204.902L174.743 150.601C174.76 148.815 176.102 147.32 177.877 147.112L182.996 146.513Z" fill="#5080EC" stroke="#0C0C0D" stroke-width="0.478025"/>
<path d="M195.915 144.999C193.797 145.247 192.375 147.295 192.883 149.367L205.825 202.093C206.251 203.831 207.904 204.978 209.681 204.77L214.897 204.16C217.018 203.911 218.44 201.859 217.927 199.786L204.889 147.071C204.46 145.336 202.809 144.192 201.034 144.4L195.915 144.999Z" fill="#5080EC" stroke="#0C0C0D" stroke-width="0.478025"/>
<path d="M204.464 116.792C203.365 117.999 203.233 119.801 204.143 121.156L219.312 143.747C220.707 145.824 223.757 145.842 225.176 143.782L227.535 140.36C228.21 139.379 228.349 138.125 227.904 137.021L217.167 110.39C216.189 107.966 213.014 107.396 211.255 109.329L204.464 116.792Z" fill="#5080EC" stroke="#0C0C0D" stroke-width="0.478025"/>
<path d="M156.227 116.265C154.172 115.92 152.263 117.412 152.103 119.489L150.121 145.098C149.969 147.06 151.444 148.771 153.407 148.909L156.112 149.1C157.812 149.22 159.357 148.114 159.791 146.466L166.27 121.877C166.802 119.86 165.486 117.822 163.429 117.476L156.227 116.265Z" fill="#5080EC" stroke="#0C0C0D" stroke-width="0.478025"/>
<path d="M213.683 107.332C215.906 107.202 217.698 109.13 217.405 111.338L210.852 160.805C210.639 162.414 209.36 163.673 207.748 163.862L170.861 168.181C169.077 168.39 167.419 167.232 167 165.486L154.865 114.938C154.349 112.79 155.902 110.698 158.107 110.57L213.683 107.332Z" fill="url(#paint2_linear_13572_2755)" stroke="#0C0C0D" stroke-width="0.478025"/>
<path d="M206.706 105.511C206.573 105.31 206.275 105.32 206.156 105.53L205.12 107.354C205.093 107.403 205.053 107.444 205.005 107.472L203.191 108.554C202.973 108.684 202.984 109.004 203.211 109.119L205.094 110.074C205.144 110.099 205.186 110.137 205.217 110.183L206.376 111.933C206.508 112.134 206.806 112.124 206.925 111.914L207.961 110.089C207.988 110.041 208.028 110 208.076 109.972L209.89 108.89C210.108 108.76 210.097 108.44 209.87 108.325L207.987 107.37C207.937 107.345 207.895 107.307 207.864 107.26L206.706 105.511Z" fill="#FFC93E" stroke="#0C0C0D" stroke-width="0.478025" stroke-linejoin="round"/>
<path d="M211.73 95.6928C211.574 95.5098 211.279 95.5561 211.187 95.7783L210.38 97.7156C210.359 97.7672 210.324 97.8123 210.28 97.8465L208.612 99.1407C208.411 99.2964 208.461 99.6124 208.699 99.6989L210.685 100.418C210.738 100.437 210.784 100.469 210.821 100.512L212.183 102.108C212.339 102.291 212.634 102.244 212.726 102.022L213.532 100.085C213.554 100.033 213.588 99.9883 213.633 99.954L215.301 98.6599C215.502 98.5042 215.452 98.1882 215.213 98.1016L213.228 97.3826C213.175 97.3636 213.129 97.3313 213.092 97.2888L211.73 95.6928Z" fill="#FFC93E" stroke="#0C0C0D" stroke-width="0.478025" stroke-linejoin="round"/>
<path d="M147.432 75.1116C147.291 74.8664 146.924 74.9092 146.843 75.1805L146.166 77.4486C146.151 77.5002 146.123 77.5471 146.084 77.5851L144.472 79.187C144.323 79.3345 144.352 79.582 144.531 79.6911L146.47 80.8772C146.516 80.9053 146.554 80.9445 146.581 80.9912L147.764 83.0415C147.905 83.2866 148.271 83.2438 148.352 82.9726L149.03 80.7045C149.045 80.6528 149.073 80.6059 149.112 80.5679L150.724 78.966C150.873 78.8186 150.844 78.571 150.665 78.4619L148.726 77.2758C148.68 77.2477 148.642 77.2085 148.615 77.1618L147.432 75.1116Z" fill="#FFC93E" stroke="#0C0C0D" stroke-width="0.478025" stroke-linejoin="round"/>
<path d="M193.835 57.5289C193.73 57.3959 193.522 57.4203 193.451 57.5739L192.949 58.6554C192.933 58.6911 192.907 58.7218 192.875 58.7446L191.904 59.4384C191.758 59.5422 191.785 59.7656 191.95 59.8331L193.056 60.2836C193.092 60.2985 193.124 60.3225 193.148 60.3534L193.886 61.2899C193.99 61.4228 194.199 61.3985 194.27 61.2449L194.771 60.1633C194.787 60.1277 194.813 60.0969 194.845 60.0741L195.816 59.3804C195.962 59.2765 195.936 59.0531 195.77 58.9857L194.665 58.5351C194.628 58.5203 194.596 58.4963 194.572 58.4654L193.835 57.5289Z" fill="#FFC93E" stroke="#0C0C0D" stroke-width="0.478025" stroke-linejoin="round"/>
<circle cx="182.221" cy="96.0957" r="20.8738" transform="rotate(-171.678 182.221 96.0957)" fill="url(#paint3_linear_13572_2755)" stroke="#0C0C0D" stroke-width="0.478025"/>
<mask id="path-55-inside-1_13572_2755" fill="white">
<path fill-rule="evenodd" clip-rule="evenodd" d="M181.343 67.4923C180.553 67.4522 179.88 68.0601 179.84 68.85L179.814 69.3659C177.857 69.5452 175.926 69.9692 174.067 70.6309C171.154 71.6679 168.473 73.2686 166.178 75.3416C163.883 77.4145 162.019 79.9192 160.692 82.7126C159.52 85.1799 158.788 87.8299 158.525 90.5432C158.467 91.1378 158.928 91.6463 159.525 91.6766L181.963 92.8164L204.402 93.9562C204.998 93.9865 205.509 93.5273 205.512 92.93C205.525 90.2039 205.065 87.4934 204.149 84.92C203.112 82.0065 201.511 79.3259 199.438 77.031C197.365 74.7362 194.861 72.8721 192.067 71.5453C190.336 70.7231 188.516 70.1172 186.646 69.7379L186.674 69.1971C186.714 68.4072 186.106 67.7343 185.316 67.6942L181.343 67.4923Z"/>
</mask>
<path fill-rule="evenodd" clip-rule="evenodd" d="M181.343 67.4923C180.553 67.4522 179.88 68.0601 179.84 68.85L179.814 69.3659C177.857 69.5452 175.926 69.9692 174.067 70.6309C171.154 71.6679 168.473 73.2686 166.178 75.3416C163.883 77.4145 162.019 79.9192 160.692 82.7126C159.52 85.1799 158.788 87.8299 158.525 90.5432C158.467 91.1378 158.928 91.6463 159.525 91.6766L181.963 92.8164L204.402 93.9562C204.998 93.9865 205.509 93.5273 205.512 92.93C205.525 90.2039 205.065 87.4934 204.149 84.92C203.112 82.0065 201.511 79.3259 199.438 77.031C197.365 74.7362 194.861 72.8721 192.067 71.5453C190.336 70.7231 188.516 70.1172 186.646 69.7379L186.674 69.1971C186.714 68.4072 186.106 67.7343 185.316 67.6942L181.343 67.4923Z" fill="#FF5E0D"/>
<path d="M181.343 67.4923L181.367 67.0149L181.343 67.4923ZM179.814 69.3659L179.857 69.8419L180.27 69.8041L180.291 69.3901L179.814 69.3659ZM174.067 70.6309L173.907 70.1806L174.067 70.6309ZM166.178 75.3416L166.498 75.6963L166.178 75.3416ZM160.692 82.7126L160.26 82.5075L160.692 82.7126ZM158.525 90.5432L158.049 90.4971L158.525 90.5432ZM159.525 91.6766L159.501 92.154L159.525 91.6766ZM181.963 92.8164L181.988 92.339L181.963 92.8164ZM205.512 92.93L205.99 92.9323L205.512 92.93ZM204.149 84.92L204.599 84.7597L204.149 84.92ZM199.438 77.031L199.793 76.7106L199.438 77.031ZM192.067 71.5453L191.862 71.9771L191.862 71.9771L192.067 71.5453ZM186.646 69.7379L186.169 69.7136L186.148 70.1245L186.551 70.2063L186.646 69.7379ZM186.674 69.1971L187.151 69.2214L186.674 69.1971ZM185.316 67.6942L185.292 68.1716L185.316 67.6942ZM180.317 68.8742C180.344 68.348 180.792 67.943 181.319 67.9697L181.367 67.0149C180.314 66.9614 179.416 67.7721 179.363 68.8257L180.317 68.8742ZM180.291 69.3901L180.317 68.8742L179.363 68.8257L179.336 69.3416L180.291 69.3901ZM179.77 68.8898C177.774 69.0728 175.804 69.5054 173.907 70.1806L174.227 71.0813C176.049 70.4329 177.941 70.0176 179.857 69.8419L179.77 68.8898ZM173.907 70.1806C170.934 71.2386 168.199 72.8718 165.858 74.9868L166.498 75.6963C168.747 73.6654 171.373 72.0972 174.227 71.0813L173.907 70.1806ZM165.858 74.9868C163.516 77.1019 161.614 79.6574 160.26 82.5075L161.124 82.9177C162.424 80.181 164.25 77.7272 166.498 75.6963L165.858 74.9868ZM160.26 82.5075C159.065 85.0249 158.317 87.7286 158.049 90.4971L159 90.5894C159.258 87.9311 159.976 85.3349 161.124 82.9177L160.26 82.5075ZM158.049 90.4971C157.963 91.3774 158.647 92.1107 159.501 92.154L159.549 91.1992C159.21 91.182 158.97 90.8981 159 90.5894L158.049 90.4971ZM159.501 92.154L181.939 93.2938L181.988 92.339L159.549 91.1992L159.501 92.154ZM181.939 93.2938L204.378 94.4336L204.426 93.4788L181.988 92.339L181.939 93.2938ZM204.378 94.4336C205.232 94.477 205.986 93.8167 205.99 92.9323L205.034 92.9277C205.032 93.2379 204.765 93.496 204.426 93.4788L204.378 94.4336ZM205.99 92.9323C206.003 90.1509 205.534 87.3853 204.599 84.7597L203.699 85.0802C204.596 87.6014 205.047 90.2569 205.034 92.9277L205.99 92.9323ZM204.599 84.7597C203.541 81.7871 201.908 79.052 199.793 76.7106L199.084 77.3515C201.114 79.5997 202.683 82.226 203.699 85.0802L204.599 84.7597ZM199.793 76.7106C197.678 74.3692 195.122 72.4673 192.272 71.1135L191.862 71.9771C194.599 73.277 197.053 75.1032 199.084 77.3515L199.793 76.7106ZM192.272 71.1135C190.506 70.2746 188.649 69.6564 186.741 69.2694L186.551 70.2063C188.383 70.578 190.166 71.1716 191.862 71.9771L192.272 71.1135ZM186.196 69.1729L186.169 69.7136L187.124 69.7621L187.151 69.2214L186.196 69.1729ZM185.292 68.1716C185.818 68.1983 186.223 68.6466 186.196 69.1729L187.151 69.2214C187.205 68.1678 186.394 67.2703 185.34 67.2167L185.292 68.1716ZM181.319 67.9697L185.292 68.1716L185.34 67.2167L181.367 67.0149L181.319 67.9697Z" fill="#0C0C0D" mask="url(#path-55-inside-1_13572_2755)"/>
<circle cx="191.373" cy="81.9169" r="10.2434" transform="rotate(11.2231 191.373 81.9169)" fill="white" stroke="#0C0C0D" stroke-width="0.478025"/>
<path d="M187.08 85.8882L186.973 85.6746C187.577 85.3707 188.097 84.9974 188.53 84.575C190.14 83.0055 190.593 80.7235 189.704 78.6582C189.465 78.1023 189.127 77.5589 188.685 77.0472M187.08 85.8882L188.685 77.0472M187.08 85.8882L186.973 85.6746C186.794 85.7648 186.709 85.9802 186.79 86.1708L187.01 86.0773M187.08 85.8882L187.01 86.0773M188.685 77.0472C188.554 76.8955 188.557 76.6639 188.705 76.5187L188.918 76.3099C189.064 76.166 189.297 76.1625 189.448 76.3007L195.877 82.1858C196.368 82.6354 196.207 83.4433 195.582 83.6713L187.393 86.6561M188.685 77.0472L187.393 86.6561M187.01 86.0773L186.79 86.1708L186.906 86.4449M187.01 86.0773L187.393 86.6561M186.906 86.4449C186.987 86.6338 187.201 86.7262 187.393 86.6561M186.906 86.4449L187.126 86.3516L186.906 86.4449L186.906 86.4449Z" fill="#3668DD" stroke="#0C0C0D" stroke-width="0.478025"/>
<path d="M152.849 105.5C152.946 105.524 153.038 105.567 153.119 105.627L228.515 161.905C228.84 162.147 228.907 162.608 228.664 162.933L221.988 171.876C221.746 172.201 221.286 172.268 220.961 172.025L145.564 115.747C145.484 115.687 145.417 115.611 145.367 115.524L138.379 103.345C138.059 102.787 138.559 102.116 139.185 102.264L152.849 105.5Z" fill="#FFC93E" stroke="#0C0C0D" stroke-width="0.478025"/>
<path d="M152.849 105.5C152.946 105.524 153.038 105.567 153.119 105.627L154.894 106.952L153.982 109.767C153.932 109.921 153.832 110.054 153.699 110.145L151.392 111.73C151.171 111.882 151.007 112.101 150.925 112.356L150.062 115.018C150.012 115.172 149.912 115.305 149.779 115.397L147.34 117.072L145.564 115.747C145.484 115.687 145.417 115.611 145.367 115.524L138.379 103.345C138.059 102.787 138.559 102.116 139.185 102.264L152.849 105.5Z" fill="#FFEDC2" stroke="#0C0C0D" stroke-width="0.478025"/>
<path d="M139.19 102.265L144.672 103.563L141.187 108.232L138.384 103.345C138.064 102.787 138.564 102.117 139.19 102.265Z" fill="#0C0C0D" stroke="#0C0C0D" stroke-width="0.478025"/>
<path d="M149.915 115.143L223.587 170.134" stroke="#0C0C0D" stroke-width="0.478025"/>
<path d="M153.782 109.966L227.454 164.957" stroke="#0C0C0D" stroke-width="0.478025"/>
<path d="M190.573 149.89C191.18 151.866 193.341 152.906 195.264 152.148L227.169 139.566C228.892 138.886 229.802 136.995 229.258 135.225L228.626 133.168C228.019 131.19 225.853 130.15 223.929 130.913L192.044 143.561C190.325 144.243 189.418 146.131 189.961 147.899L190.573 149.89Z" fill="#5080EC" stroke="#0C0C0D" stroke-width="0.478025"/>
<path d="M149.847 153.392C150.665 155.29 152.927 156.089 154.756 155.125L185.099 139.139C186.737 138.276 187.436 136.297 186.702 134.597L185.85 132.621C185.03 130.721 182.764 129.923 180.934 130.892L150.619 146.941C148.984 147.806 148.289 149.782 149.022 151.48L149.847 153.392Z" fill="#5080EC" stroke="#0C0C0D" stroke-width="0.478025"/>
<circle cx="4.15443" cy="4.15443" r="3.91541" transform="matrix(-0.999797 0.0201379 0.0201379 0.999797 192.818 94.0305)" fill="white" stroke="#0C0C0D" stroke-width="0.478025"/>
<circle cx="4.15443" cy="4.15443" r="3.91541" transform="matrix(-0.999797 0.0201379 0.0201379 0.999797 180.117 94.2893)" fill="white" stroke="#0C0C0D" stroke-width="0.478025"/>
<mask id="mask3_13572_2755" style="mask-type:alpha" maskUnits="userSpaceOnUse" x="171" y="94" width="10" height="9">
<circle cx="4.15443" cy="4.15443" r="3.91541" transform="matrix(-0.999797 0.0201379 0.0201379 0.999797 180.161 94.2893)" fill="white" stroke="#0C0C0D" stroke-width="0.478025"/>
</mask>
<g mask="url(#mask3_13572_2755)">
<circle cx="2.69177" cy="2.69177" r="2.45276" transform="matrix(-0.999797 0.0201379 0.0201379 0.999797 177.004 94.2102)" fill="#0C0C0D" stroke="#0C0C0D" stroke-width="0.478025"/>
</g>
<mask id="mask4_13572_2755" style="mask-type:alpha" maskUnits="userSpaceOnUse" x="184" y="93" width="10" height="10">
<circle cx="4.15443" cy="4.15443" r="3.91541" transform="matrix(-0.999797 0.0201379 0.0201379 0.999797 192.979 93.7275)" fill="white" stroke="#0C0C0D" stroke-width="0.478025"/>
</mask>
<g mask="url(#mask4_13572_2755)">
<circle cx="2.69177" cy="2.69177" r="2.45276" transform="matrix(-0.999797 0.0201379 0.0201379 0.999797 189.569 93.9519)" fill="#0C0C0D" stroke="#0C0C0D" stroke-width="0.478025"/>
</g>
<path d="M177.442 106.954C177.95 107.795 178.671 108.488 179.532 108.962C180.394 109.437 181.364 109.676 182.347 109.656C183.33 109.636 184.291 109.358 185.132 108.85C185.973 108.341 186.666 107.62 187.14 106.759" stroke="#0C0C0D" stroke-width="0.478025" stroke-linecap="round" stroke-linejoin="round"/>
<path d="M156.64 87.2354C156.666 86.7209 157.105 86.325 157.619 86.3511L206.898 88.8543C207.413 88.8804 207.808 89.3187 207.782 89.8332L207.566 94.0987C207.54 94.6131 207.101 95.009 206.587 94.9829L157.308 92.4797C156.793 92.4536 156.397 92.0154 156.424 91.5009L156.64 87.2354Z" fill="#FF5E0D" stroke="#0C0C0D" stroke-width="0.478025"/>
</g>
<circle cx="184.666" cy="98.058" r="52.2013" transform="rotate(-6.67792 184.666 98.058)" stroke="white" stroke-width="2.47976"/>
<g filter="url(#filter3_b_13572_2755)">
<circle cx="285.456" cy="53.85" r="40.5027" transform="rotate(11.6743 285.456 53.85)" fill="white" fill-opacity="0.14"/>
</g>
<circle cx="285.456" cy="53.85" r="40.5027" transform="rotate(11.6743 285.456 53.85)" stroke="white" stroke-width="2.47976"/>
<mask id="mask5_13572_2755" style="mask-type:alpha" maskUnits="userSpaceOnUse" x="244" y="13" width="82" height="82">
<circle cx="285.456" cy="53.8497" r="40.5027" transform="rotate(11.6743 285.456 53.8497)" fill="#D9D9D9"/>
</mask>
<g mask="url(#mask5_13572_2755)">
<path fill-rule="evenodd" clip-rule="evenodd" d="M312.415 46.5812C311.714 45.9759 310.667 46.0221 310.025 46.6866L293.182 64.1301C292.794 64.5316 292.155 64.5407 291.754 64.1505C291.353 63.7604 291.342 63.1187 291.73 62.7172L308.573 45.2737C309.958 43.8398 312.218 43.7402 313.73 45.0464L317.113 47.9705C317.537 48.3362 317.585 48.9762 317.222 49.4001C316.859 49.8239 316.221 49.871 315.798 49.5054L312.415 46.5812Z" fill="#FF6767" stroke="#0C0C0D" stroke-width="0.478025" stroke-linecap="round"/>
<path fill-rule="evenodd" clip-rule="evenodd" d="M280.866 34.2671C280.252 33.5744 279.208 33.4815 278.484 34.0552L259.479 49.1154C259.042 49.462 258.407 49.3864 258.062 48.9466C257.716 48.5068 257.79 47.8693 258.227 47.5227L277.232 32.4625C278.794 31.2246 281.048 31.4251 282.373 32.9199L285.34 36.2662C285.711 36.6847 285.674 37.3256 285.258 37.6976C284.842 38.0696 284.204 38.032 283.833 37.6135L280.866 34.2671Z" fill="#FF6767" stroke="#0C0C0D" stroke-width="0.478025" stroke-linecap="round"/>
<mask id="path-80-inside-2_13572_2755" fill="white">
<path d="M272.802 59.2978C273.552 59.5506 274.375 59.1478 274.536 58.3724C275.078 55.7677 274.736 53.0411 273.542 50.6333C272.134 47.7949 269.657 45.632 266.654 44.6204C263.652 43.6088 260.37 43.8314 257.532 45.2392C255.124 46.4334 253.202 48.3975 252.057 50.7988C251.716 51.5137 252.127 52.3322 252.878 52.5851L262.84 55.9414L272.802 59.2978Z"/>
</mask>
<path d="M272.802 59.2978C273.552 59.5506 274.375 59.1478 274.536 58.3724C275.078 55.7677 274.736 53.0411 273.542 50.6333C272.134 47.7949 269.657 45.632 266.654 44.6204C263.652 43.6088 260.37 43.8314 257.532 45.2392C255.124 46.4334 253.202 48.3975 252.057 50.7988C251.716 51.5137 252.127 52.3322 252.878 52.5851L262.84 55.9414L272.802 59.2978Z" fill="#FF6767" stroke="#0C0C0D" stroke-width="0.956051" mask="url(#path-80-inside-2_13572_2755)"/>
<mask id="path-81-inside-3_13572_2755" fill="white">
<path d="M298.401 67.9233C299.152 68.1761 299.975 67.7733 300.136 66.9979C300.677 64.3932 300.336 61.6666 299.142 59.2588C297.734 56.4204 295.256 54.2575 292.254 53.2459C289.251 52.2343 285.97 52.4569 283.131 53.8647C280.724 55.0589 278.802 57.023 277.657 59.4243C277.316 60.1392 277.727 60.9577 278.477 61.2106L288.439 64.5669L298.401 67.9233Z"/>
</mask>
<path d="M298.401 67.9233C299.152 68.1761 299.975 67.7733 300.136 66.9979C300.677 64.3932 300.336 61.6666 299.142 59.2588C297.734 56.4204 295.256 54.2575 292.254 53.2459C289.251 52.2343 285.97 52.4569 283.131 53.8647C280.724 55.0589 278.802 57.023 277.657 59.4243C277.316 60.1392 277.727 60.9577 278.477 61.2106L288.439 64.5669L298.401 67.9233Z" fill="#FF6767" stroke="#0C0C0D" stroke-width="0.956051" mask="url(#path-81-inside-3_13572_2755)"/>
<circle cx="262.779" cy="55.8266" r="9.77751" transform="rotate(18.6194 262.779 55.8266)" fill="#A0B9F0" stroke="#0C0C0D" stroke-width="0.478025"/>
<path d="M269.467 48.3247L253.655 58.6325L254.407 60.7273L255.597 62.2661L271.699 52.1256L270.942 50.2454L269.467 48.3247Z" fill="#7A9DEC"/>
<path d="M272.195 58.0474L258.868 64.6671L256.313 62.954L272.447 54.2209L272.195 58.0474Z" fill="#7A9DEC"/>
<circle cx="262.779" cy="55.8266" r="9.77751" transform="rotate(18.6194 262.779 55.8266)" stroke="#0C0C0D" stroke-width="0.478025"/>
<circle cx="288.383" cy="64.4523" r="9.77751" transform="rotate(18.6194 288.383 64.4523)" fill="#C9D9FF" stroke="#0C0C0D" stroke-width="0.478025"/>
<path d="M295.067 57.3867L278.927 67.1958L280.727 70.4767L297.648 61.583L296.541 59.3074L295.067 57.3867Z" fill="#7A9DEC"/>
<path d="M298.056 65.3302L283.193 72.6023L281.793 71.5588L298.048 63.2816L298.056 65.3302Z" fill="#7A9DEC"/>
<circle cx="288.383" cy="64.4523" r="9.77751" transform="rotate(18.6194 288.383 64.4523)" stroke="#0C0C0D" stroke-width="0.478025"/>
<rect x="269.779" y="59.9588" width="11.5434" height="2.33972" rx="1.16986" transform="rotate(18.6194 269.779 59.9588)" fill="#FF6767" stroke="#0C0C0D" stroke-width="0.478025"/>
<circle cx="1.79653" cy="1.79653" r="1.55751" transform="matrix(-0.961635 -0.274333 -0.274333 0.961635 302.742 31.9819)" fill="#EDF3FF" stroke="#0C0C0D" stroke-width="0.478025"/>
<circle cx="1.79653" cy="1.79653" r="1.55751" transform="matrix(-0.961635 -0.274333 -0.274333 0.961635 307.175 38.6465)" fill="#EDF3FF" stroke="#0C0C0D" stroke-width="0.478025"/>
<circle cx="1.79653" cy="1.79653" r="1.55751" transform="matrix(-0.961635 -0.274333 -0.274333 0.961635 309.597 59.2583)" fill="#EDF3FF" stroke="#0C0C0D" stroke-width="0.478025"/>
<circle cx="1.79653" cy="1.79653" r="1.55751" transform="matrix(-0.961635 -0.274333 -0.274333 0.961635 258.888 67.958)" fill="#EDF3FF" stroke="#0C0C0D" stroke-width="0.478025"/>
<path d="M253.96 55.3505C254.157 55.0907 254.567 55.1754 254.645 55.4922L255.027 57.0394C255.043 57.1037 255.075 57.1629 255.12 57.2113L256.231 58.4009C256.414 58.5966 256.348 58.9141 256.103 59.0213L254.612 59.6733C254.551 59.6998 254.498 59.7414 254.458 59.7942L253.494 61.0634C253.297 61.3232 252.887 61.2384 252.808 60.9216L252.427 59.3744C252.411 59.3101 252.379 59.2509 252.333 59.2025L251.223 58.0129C251.04 57.8173 251.106 57.4997 251.351 57.3925L252.842 56.7405C252.903 56.714 252.956 56.6724 252.996 56.6197L253.96 55.3505Z" fill="#FFC93E" stroke="#0C0C0D" stroke-width="0.478025" stroke-linejoin="round"/>
<path d="M291.276 70.4741C291.6 70.1473 292.154 70.2616 292.322 70.6901L292.864 72.0706C292.904 72.1729 292.97 72.2631 293.055 72.3324L294.129 73.2051C294.53 73.5308 294.398 74.1731 293.9 74.3133L292.568 74.6887C292.462 74.7185 292.366 74.7752 292.289 74.8532L291.244 75.9059C290.92 76.2327 290.367 76.1184 290.198 75.6898L289.657 74.3094C289.616 74.2071 289.551 74.1169 289.465 74.0476L288.391 73.1749C287.99 72.8492 288.123 72.2068 288.62 72.0667L289.952 71.6912C290.058 71.6614 290.154 71.6047 290.232 71.5267L291.276 70.4741Z" fill="#FFC93E" stroke="#0C0C0D" stroke-width="0.478025" stroke-linejoin="round"/>
<path d="M285.221 51.7909C285.546 51.4571 286.107 51.5731 286.273 52.0083L287.014 53.9502C287.053 54.0531 287.118 54.1441 287.203 54.2143L288.765 55.5058C289.159 55.8317 289.028 56.4658 288.537 56.6089L286.591 57.1756C286.485 57.2065 286.389 57.2641 286.313 57.3431L284.863 58.8324C284.538 59.1662 283.977 59.0502 283.811 58.615L283.07 56.6731C283.031 56.5702 282.966 56.4792 282.881 56.409L281.319 55.1176C280.925 54.7916 281.056 54.1575 281.547 54.0145L283.493 53.4477C283.599 53.4169 283.695 53.3592 283.771 53.2803L285.221 51.7909Z" fill="#FFC93E" stroke="#0C0C0D" stroke-width="0.478025" stroke-linejoin="round"/>
</g>
<mask id="mask6_13572_2755" style="mask-type:alpha" maskUnits="userSpaceOnUse" x="242" y="89" width="47" height="47">
<circle cx="265.615" cy="112.619" r="23.1444" transform="rotate(-2.82551 265.615 112.619)" fill="#D9D9D9"/>
</mask>
<g mask="url(#mask6_13572_2755)">
<circle cx="265.615" cy="112.619" r="23.1444" transform="rotate(-2.82551 265.615 112.619)" fill="#E9EFFB"/>
<path fill-rule="evenodd" clip-rule="evenodd" d="M270.277 147.257C271.37 146.688 272.692 147.4 272.819 148.626L276.532 184.674C276.702 186.319 278.852 186.827 279.74 185.432L300.051 153.532C300.569 152.719 300.329 151.641 299.517 151.123L283.872 141.162C283.256 140.77 282.949 140.036 283.103 139.322L290.432 105.318C290.743 103.873 289.23 102.72 287.92 103.403L248.113 124.138C247.258 124.583 246.926 125.637 247.372 126.491L257.122 145.209C257.567 146.064 257.235 147.117 256.38 147.563L243.454 154.296C242.6 154.741 242.268 155.794 242.713 156.649L254.061 178.435C254.506 179.289 255.56 179.621 256.414 179.176L266.714 173.811C267.289 173.512 267.65 172.92 267.653 172.272L267.769 149.613C267.772 148.966 268.134 148.374 268.708 148.075L270.277 147.257Z" fill="#A0B9F0"/>
<path d="M268.708 148.075L268.818 148.287L268.708 148.075ZM267.653 172.272L267.892 172.273L267.653 172.272ZM243.454 154.296L243.565 154.508L243.454 154.296ZM256.38 147.563L256.27 147.351L256.38 147.563ZM248.113 124.138L248.223 124.35L248.113 124.138ZM247.372 126.491L247.584 126.381L247.372 126.491ZM287.92 103.403L288.03 103.615L287.92 103.403ZM283.872 141.162L283.743 141.363L283.872 141.162ZM283.103 139.322L283.337 139.373L283.103 139.322ZM300.051 153.532L300.253 153.66L300.051 153.532ZM299.517 151.123L299.645 150.921L299.517 151.123ZM272.819 148.626L272.581 148.65L272.819 148.626ZM270.277 147.257L270.387 147.469L270.277 147.257ZM279.74 185.432L279.538 185.304L279.74 185.432ZM276.77 184.65L273.056 148.601L272.581 148.65L276.295 184.699L276.77 184.65ZM299.85 153.403L279.538 185.304L279.941 185.561L300.253 153.66L299.85 153.403ZM283.743 141.363L299.388 151.325L299.645 150.921L284 140.96L283.743 141.363ZM290.198 105.267L282.87 139.272L283.337 139.373L290.665 105.368L290.198 105.267ZM248.223 124.35L288.03 103.615L287.81 103.191L248.003 123.926L248.223 124.35ZM257.334 145.099L247.584 126.381L247.16 126.602L256.91 145.32L257.334 145.099ZM243.565 154.508L256.491 147.775L256.27 147.351L243.344 154.084L243.565 154.508ZM254.273 178.324L242.925 156.539L242.501 156.759L253.849 178.545L254.273 178.324ZM266.604 173.599L256.304 178.964L256.525 179.388L266.825 174.023L266.604 173.599ZM267.53 149.612L267.414 172.271L267.892 172.273L268.008 149.614L267.53 149.612ZM270.167 147.045L268.597 147.863L268.818 148.287L270.387 147.469L270.167 147.045ZM268.008 149.614C268.011 149.056 268.323 148.545 268.818 148.287L268.597 147.863C267.944 148.203 267.534 148.876 267.53 149.612L268.008 149.614ZM266.825 174.023C267.478 173.683 267.888 173.009 267.892 172.273L267.414 172.271C267.411 172.83 267.099 173.341 266.604 173.599L266.825 174.023ZM253.849 178.545C254.355 179.517 255.553 179.894 256.525 179.388L256.304 178.964C255.566 179.348 254.657 179.062 254.273 178.324L253.849 178.545ZM243.344 154.084C242.372 154.59 241.995 155.788 242.501 156.759L242.925 156.539C242.541 155.801 242.827 154.892 243.565 154.508L243.344 154.084ZM256.91 145.32C257.294 146.057 257.007 146.966 256.27 147.351L256.491 147.775C257.462 147.268 257.84 146.07 257.334 145.099L256.91 145.32ZM248.003 123.926C247.031 124.432 246.653 125.63 247.16 126.602L247.584 126.381C247.199 125.643 247.486 124.734 248.223 124.35L248.003 123.926ZM290.665 105.368C291.019 103.726 289.299 102.415 287.81 103.191L288.03 103.615C289.161 103.026 290.467 104.021 290.198 105.267L290.665 105.368ZM284 140.96C283.469 140.622 283.204 139.989 283.337 139.373L282.87 139.272C282.695 140.083 283.043 140.918 283.743 141.363L284 140.96ZM300.253 153.66C300.841 152.736 300.569 151.51 299.645 150.921L299.388 151.325C300.09 151.771 300.296 152.702 299.85 153.403L300.253 153.66ZM273.056 148.601C272.913 147.208 271.409 146.398 270.167 147.045L270.387 147.469C271.331 146.978 272.472 147.593 272.581 148.65L273.056 148.601ZM276.295 184.699C276.487 186.569 278.931 187.147 279.941 185.561L279.538 185.304C278.772 186.508 276.916 186.069 276.77 184.65L276.295 184.699Z" fill="#0C0C0D"/>
<path fill-rule="evenodd" clip-rule="evenodd" d="M245.833 141.483C247.041 141.727 247.622 143.112 246.95 144.145L225.956 176.427C225.054 177.814 226.407 179.56 227.975 179.032L266.008 166.236C266.922 165.929 267.413 164.94 267.106 164.026L260.87 145.492C260.624 144.761 260.887 143.955 261.518 143.51L292.175 121.878C293.413 121.004 293.026 119.077 291.548 118.749L242.784 107.915C241.83 107.703 240.888 108.316 240.695 109.273L236.276 131.178C236.086 132.123 235.166 132.734 234.221 132.544L219.015 129.476C218.07 129.285 217.15 129.897 216.959 130.841L211.814 156.346C211.624 157.29 212.235 158.21 213.18 158.401L225.296 160.845C225.931 160.973 226.584 160.739 226.993 160.238L242.13 141.686C242.54 141.185 243.193 140.951 243.827 141.079L245.833 141.483Z" fill="#C5D4F5"/>
<path d="M242.13 141.686L241.945 141.535L242.13 141.686ZM236.276 131.178L236.042 131.131L236.276 131.178ZM242.784 107.915L242.836 107.682L242.784 107.915ZM240.695 109.273L240.461 109.226L240.695 109.273ZM291.548 118.749L291.6 118.515L291.548 118.749ZM260.87 145.492L261.097 145.416L260.87 145.492ZM261.518 143.51L261.656 143.705L261.518 143.51ZM266.008 166.236L266.085 166.463L266.008 166.236ZM267.106 164.026L267.332 163.95L267.106 164.026ZM246.95 144.145L246.75 144.015L246.95 144.145ZM225.956 176.427L226.156 176.558L225.956 176.427ZM227.975 179.032L228.051 179.259L227.975 179.032ZM226.156 176.558L247.151 144.275L246.75 144.015L225.755 176.297L226.156 176.558ZM265.932 166.01L227.899 178.806L228.051 179.259L266.085 166.463L265.932 166.01ZM260.644 145.568L266.879 164.103L267.332 163.95L261.097 145.416L260.644 145.568ZM292.038 121.682L261.38 143.315L261.656 143.705L292.313 122.073L292.038 121.682ZM242.732 108.149L291.496 118.982L291.6 118.515L242.836 107.682L242.732 108.149ZM236.511 131.225L240.929 109.321L240.461 109.226L236.042 131.131L236.511 131.225ZM218.967 129.71L234.174 132.778L234.268 132.309L219.062 129.242L218.967 129.71ZM212.049 156.393L217.194 130.888L216.725 130.794L211.58 156.298L212.049 156.393ZM225.344 160.611L213.227 158.167L213.132 158.635L225.249 161.079L225.344 160.611ZM241.945 141.535L226.808 160.087L227.178 160.389L242.316 141.837L241.945 141.535ZM245.88 141.249L243.875 140.844L243.78 141.313L245.786 141.718L245.88 141.249ZM242.316 141.837C242.669 141.404 243.232 141.203 243.78 141.313L243.875 140.844C243.153 140.699 242.41 140.965 241.945 141.535L242.316 141.837ZM225.249 161.079C225.971 161.225 226.713 160.959 227.178 160.389L226.808 160.087C226.455 160.52 225.891 160.721 225.344 160.611L225.249 161.079ZM211.58 156.298C211.363 157.372 212.058 158.418 213.132 158.635L213.227 158.167C212.412 158.002 211.884 157.208 212.049 156.393L211.58 156.298ZM219.062 129.242C217.988 129.025 216.942 129.72 216.725 130.794L217.194 130.888C217.358 130.073 218.152 129.546 218.967 129.71L219.062 129.242ZM236.042 131.131C235.878 131.946 235.083 132.474 234.268 132.309L234.174 132.778C235.248 132.994 236.294 132.299 236.511 131.225L236.042 131.131ZM242.836 107.682C241.751 107.441 240.68 108.137 240.461 109.226L240.929 109.321C241.096 108.494 241.909 107.966 242.732 108.149L242.836 107.682ZM292.313 122.073C293.72 121.08 293.281 118.889 291.6 118.515L291.496 118.982C292.772 119.266 293.106 120.929 292.038 121.682L292.313 122.073ZM261.097 145.416C260.884 144.785 261.112 144.089 261.656 143.705L261.38 143.315C260.663 143.82 260.364 144.737 260.644 145.568L261.097 145.416ZM266.085 166.463C267.123 166.114 267.682 164.989 267.332 163.95L266.879 164.103C267.144 164.891 266.72 165.745 265.932 166.01L266.085 166.463ZM247.151 144.275C247.915 143.101 247.253 141.526 245.88 141.249L245.786 141.718C246.828 141.928 247.33 143.123 246.75 144.015L247.151 144.275ZM225.755 176.297C224.73 177.873 226.269 179.858 228.051 179.259L227.899 178.806C226.546 179.261 225.378 177.754 226.156 176.558L225.755 176.297Z" fill="#0C0C0D"/>
<path d="M269.757 127.885L269.645 125.633L276.73 126.54C277.273 126.61 277.688 127.059 277.715 127.606C277.732 127.939 277.475 128.222 277.142 128.239L274.025 128.393C273.887 128.399 273.75 128.379 273.621 128.332L272.573 127.952C272.108 127.784 271.588 127.924 271.27 128.304C271.146 128.453 270.964 128.544 270.769 128.553L270.508 128.566C270.113 128.586 269.776 128.281 269.757 127.885Z" fill="#D2A630" stroke="#0C0C0D" stroke-width="0.478025"/>
<path d="M264.462 128.147L264.351 125.894L257.39 127.495C256.856 127.618 256.487 128.105 256.514 128.653C256.531 128.986 256.814 129.242 257.147 129.226L260.264 129.072C260.402 129.065 260.536 129.031 260.66 128.972L261.665 128.491C262.111 128.277 262.643 128.366 262.996 128.712C263.135 128.849 263.325 128.921 263.52 128.911L263.781 128.898C264.176 128.879 264.481 128.542 264.462 128.147Z" fill="#D2A630" stroke="#0C0C0D" stroke-width="0.478025"/>
<rect x="268.741" y="114.644" width="3.13946" height="10.9774" rx="1.35441" transform="rotate(-2.82551 268.741 114.644)" fill="#D24D0C" stroke="#0C0C0D" stroke-width="0.478025"/>
<rect x="261.892" y="114.769" width="3.13946" height="10.9774" rx="1.35441" transform="rotate(4.74154 261.892 114.769)" fill="#D24D0C" stroke="#0C0C0D" stroke-width="0.478025"/>
<rect x="268.54" y="124.72" width="4.58646" height="1.33072" rx="0.66536" transform="rotate(-0.883706 268.54 124.72)" fill="#A43C09" stroke="#0C0C0D" stroke-width="0.478025"/>
<rect x="260.31" y="125.287" width="4.58646" height="1.33072" rx="0.66536" transform="rotate(-4.93258 260.31 125.287)" fill="#A43C09" stroke="#0C0C0D" stroke-width="0.478025"/>
<circle cx="264.422" cy="107.261" r="11.5689" transform="rotate(-2.82551 264.422 107.261)" fill="#2C55B6" stroke="#0C0C0D" stroke-width="0.478025"/>
<circle cx="265.887" cy="107.185" r="11.5644" transform="rotate(-2.82551 265.887 107.185)" fill="#457EFF" stroke="#0C0C0D" stroke-width="0.478025"/>
<path d="M275.223 106.336C276.059 106.182 276.807 105.94 277.341 105.666C277.606 105.53 277.831 105.38 277.988 105.22C278.138 105.066 278.265 104.858 278.221 104.621C278.177 104.384 277.985 104.235 277.789 104.144C277.586 104.05 277.322 103.99 277.026 103.958C276.43 103.893 275.645 103.933 274.808 104.088C273.972 104.242 273.224 104.484 272.69 104.758C272.425 104.894 272.199 105.044 272.043 105.204C271.893 105.358 271.766 105.566 271.81 105.803C271.854 106.04 272.046 106.189 272.242 106.28C272.445 106.374 272.709 106.433 273.005 106.466C273.601 106.531 274.386 106.491 275.223 106.336Z" fill="#FF6767" stroke="#0C0C0D" stroke-width="0.478025"/>
<path d="M261.41 114.767L261.22 114.911C261.069 114.711 261.105 114.434 261.29 114.275L261.41 114.767ZM261.41 114.767L261.22 114.911L261.498 115.278C261.648 115.475 261.926 115.52 262.131 115.382L261.999 115.187L261.41 114.767Z" fill="white" stroke="#0C0C0D" stroke-width="0.478025"/>
<path d="M254.957 97.1492C255.457 95.0603 257.502 93.7264 259.615 94.1114L259.721 94.1307C260.991 94.3621 262.298 94.0102 263.28 93.1724C264.948 91.7492 267.469 92.0201 268.796 93.7651L269.289 94.4121C269.947 95.5249 269.346 96.9598 268.088 97.269L255.181 100.442C254.944 100.5 254.694 100.426 254.527 100.248C254.372 100.082 254.311 99.8502 254.364 99.6299L254.957 97.1492Z" fill="#259974" stroke="#0C0C0D" stroke-width="0.478025"/>
<circle cx="0.7178" cy="0.7178" r="0.478787" transform="matrix(0.529002 0.848621 0.848621 -0.529002 250.291 98.1926)" fill="#FF6767" stroke="#0C0C0D" stroke-width="0.478025"/>
<circle cx="0.7178" cy="0.7178" r="0.478787" transform="matrix(0.529002 0.848621 0.848621 -0.529002 252.349 98.7151)" fill="#FF6767" stroke="#0C0C0D" stroke-width="0.478025"/>
<circle cx="0.7178" cy="0.7178" r="0.478787" transform="matrix(0.529002 0.848621 0.848621 -0.529002 248.528 96.571)" fill="#FF6767" stroke="#0C0C0D" stroke-width="0.478025"/>
<circle cx="0.7178" cy="0.7178" r="0.478787" transform="matrix(0.529002 0.848621 0.848621 -0.529002 250.727 95.5999)" fill="#FF6767" stroke="#0C0C0D" stroke-width="0.478025"/>
<circle cx="0.7178" cy="0.7178" r="0.478787" transform="matrix(0.529002 0.848621 0.848621 -0.529002 252.863 96.2246)" fill="#FF6767" stroke="#0C0C0D" stroke-width="0.478025"/>
<path d="M249.711 96.8315C251.296 96.9698 255.064 97.7069 257.451 99.5492" stroke="#0C0C0D" stroke-width="0.478025" stroke-linecap="round"/>
<path d="M251.26 98.3091C251.773 98.0801 253.063 97.662 254.115 97.8217" stroke="#0C0C0D" stroke-width="0.478025" stroke-linecap="round"/>
<path d="M253.473 98.8027C253.837 98.6383 254.733 98.3197 255.405 98.3613" stroke="#0C0C0D" stroke-width="0.478025" stroke-linecap="round"/>
<path d="M253.981 96.5598C254.221 96.8798 255.118 98.2177 255.727 98.506" stroke="#0C0C0D" stroke-width="0.478025" stroke-linecap="round"/>
<path d="M251.766 95.9756C252.099 96.428 253.015 97.4279 254.009 97.8083" stroke="#0C0C0D" stroke-width="0.478025" stroke-linecap="round"/>
<path d="M256.917 99.3679L256.933 99.037C256.989 97.8113 257.466 96.6425 258.284 95.7273C258.379 95.621 258.555 95.6892 258.553 95.8318L258.553 95.8873C258.539 97.2066 258.061 98.4789 257.203 99.481C257.102 99.5984 256.91 99.5223 256.917 99.3679Z" fill="#4FCBA3" stroke="#0C0C0D" stroke-width="0.478025" stroke-linecap="round" stroke-linejoin="round"/>
<rect x="252.505" y="100.324" width="20.3438" height="1.71435" rx="0.857173" transform="rotate(-13.8637 252.505 100.324)" fill="#155742" stroke="#0C0C0D" stroke-width="0.478025"/>
<path d="M262.743 111.95C263.49 111.673 264.14 111.323 264.587 110.974C264.809 110.8 264.991 110.617 265.108 110.435C265.222 110.256 265.298 110.035 265.217 109.816C265.136 109.597 264.935 109.479 264.732 109.417C264.525 109.354 264.267 109.335 263.985 109.347C263.419 109.372 262.697 109.529 261.95 109.805C261.203 110.081 260.553 110.431 260.106 110.781C259.884 110.955 259.701 111.137 259.585 111.32C259.471 111.498 259.395 111.719 259.476 111.938C259.557 112.158 259.758 112.276 259.961 112.338C260.168 112.4 260.426 112.42 260.708 112.408C261.274 112.383 261.996 112.226 262.743 111.95Z" fill="#FF6767" stroke="#0C0C0D" stroke-width="0.478025"/>
<path d="M256.194 110.976C255.988 110.643 255.495 110.667 255.322 111.019L255.293 111.078C255.255 111.156 255.198 111.222 255.126 111.271L255.022 111.342C254.714 111.552 254.737 112.014 255.064 112.192L255.175 112.253C255.251 112.294 255.314 112.355 255.36 112.428L255.394 112.484C255.601 112.818 256.094 112.793 256.267 112.441L256.296 112.382C256.334 112.304 256.391 112.238 256.463 112.189L256.567 112.118C256.875 111.908 256.852 111.447 256.525 111.268L256.414 111.208C256.338 111.166 256.274 111.106 256.229 111.032L256.194 110.976Z" fill="#FFC93E" stroke="#0C0C0D" stroke-width="0.478025" stroke-linejoin="round"/>
<path d="M273.253 94.4504C273.047 94.1167 272.553 94.141 272.381 94.4935L272.352 94.5525C272.314 94.6301 272.256 94.6966 272.185 94.7453L272.081 94.8164C271.773 95.0264 271.795 95.4877 272.123 95.6664L272.233 95.7269C272.309 95.7683 272.373 95.8287 272.418 95.9022L272.453 95.9581C272.659 96.2919 273.153 96.2676 273.325 95.9151L273.354 95.8561C273.392 95.7784 273.45 95.712 273.521 95.6633L273.625 95.5922C273.933 95.3822 273.911 94.9209 273.583 94.7422L273.473 94.6817C273.397 94.6403 273.333 94.5798 273.288 94.5063L273.253 94.4504Z" fill="#FFC93E" stroke="#0C0C0D" stroke-width="0.478025" stroke-linejoin="round"/>
<path d="M269.116 94.2795C268.909 93.9487 268.419 93.9729 268.246 94.3224L268.064 94.6904C268.025 94.7678 267.967 94.834 267.895 94.8823L267.522 95.1342C267.211 95.3439 267.234 95.8089 267.564 95.987L267.961 96.2008C268.037 96.2419 268.101 96.302 268.147 96.3753L268.365 96.7235C268.572 97.0543 269.061 97.0301 269.234 96.6806L269.417 96.3126C269.455 96.2351 269.513 96.169 269.585 96.1207L269.959 95.8688C270.27 95.6591 270.247 95.1941 269.916 95.016L269.52 94.8021C269.444 94.7611 269.38 94.701 269.334 94.6277L269.116 94.2795Z" fill="#EDF3FF" stroke="#0C0C0D" stroke-width="0.478025" stroke-linejoin="round"/>
<circle cx="271.955" cy="101.448" r="2.17265" transform="rotate(-2.82551 271.955 101.448)" fill="#F2F2F3" stroke="#0C0C0D" stroke-width="0.478025"/>
<circle cx="2.41166" cy="2.41166" r="2.17265" transform="matrix(-0.328101 0.944643 0.944643 0.328101 259.503 103.633)" fill="#F2F2F3" stroke="#0C0C0D" stroke-width="0.478025"/>
<circle cx="271.796" cy="101.879" r="1.02711" transform="rotate(-2.82551 271.796 101.879)" fill="#0C0C0D" stroke="#0C0C0D" stroke-width="0.478025"/>
<circle cx="1.26612" cy="1.26612" r="1.02711" transform="matrix(-0.328101 0.944643 0.944643 0.328101 260.667 105.058)" fill="#0C0C0D" stroke="#0C0C0D" stroke-width="0.478025"/>
<path d="M249.806 104.375C249.643 104.111 249.252 104.13 249.116 104.409L249.093 104.455C249.063 104.517 249.017 104.569 248.961 104.608L248.878 104.664C248.635 104.831 248.653 105.196 248.911 105.337L248.999 105.385C249.059 105.418 249.11 105.465 249.146 105.524L249.173 105.568C249.336 105.832 249.727 105.813 249.863 105.534L249.886 105.487C249.916 105.426 249.962 105.373 250.018 105.335L250.101 105.278C250.344 105.112 250.326 104.747 250.068 104.606L249.98 104.558C249.92 104.525 249.869 104.477 249.833 104.419L249.806 104.375Z" fill="#FFC93E" stroke="#0C0C0D" stroke-width="0.478025" stroke-linejoin="round"/>
<path d="M279.909 114.963C279.745 114.699 279.355 114.718 279.218 114.997L279.195 115.044C279.165 115.106 279.12 115.158 279.063 115.197L278.981 115.253C278.737 115.419 278.755 115.784 279.014 115.926L279.102 115.973C279.162 116.006 279.212 116.054 279.248 116.112L279.275 116.156C279.439 116.421 279.829 116.401 279.966 116.122L279.989 116.076C280.019 116.014 280.064 115.962 280.121 115.923L280.203 115.867C280.447 115.701 280.429 115.336 280.17 115.194L280.082 115.146C280.022 115.114 279.972 115.066 279.936 115.008L279.909 114.963Z" fill="#EDF3FF" stroke="#0C0C0D" stroke-width="0.478025" stroke-linejoin="round"/>
<path d="M272.484 112.107C272.515 112.749 272.337 113.384 271.976 113.915C271.615 114.446 271.09 114.846 270.482 115.052C269.873 115.259 269.214 115.262 268.604 115.06C267.994 114.859 267.466 114.464 267.1 113.936" stroke="#0C0C0D" stroke-width="0.478025" stroke-linecap="round" stroke-linejoin="round"/>
</g>
<circle cx="265.615" cy="112.619" r="23.1444" transform="rotate(-2.82551 265.615 112.619)" stroke="white" stroke-width="2.47976"/>
</g>
<defs>
<filter id="filter0_b_13572_2755" x="189.075" y="28.6377" width="70.4253" height="70.4251" filterUnits="userSpaceOnUse" color-interpolation-filters="sRGB">
<feFlood flood-opacity="0" result="BackgroundImageFix"/>
<feGaussianBlur in="BackgroundImageFix" stdDeviation="0.661268"/>
<feComposite in2="SourceAlpha" operator="in" result="effect1_backgroundBlur_13572_2755"/>
<feBlend mode="normal" in="SourceGraphic" in2="effect1_backgroundBlur_13572_2755" result="shape"/>
</filter>
<filter id="filter1_b_13572_2755" x="140.306" y="12.1059" width="45.6275" height="45.6275" filterUnits="userSpaceOnUse" color-interpolation-filters="sRGB">
<feFlood flood-opacity="0" result="BackgroundImageFix"/>
<feGaussianBlur in="BackgroundImageFix" stdDeviation="0.661268"/>
<feComposite in2="SourceAlpha" operator="in" result="effect1_backgroundBlur_13572_2755"/>
<feBlend mode="normal" in="SourceGraphic" in2="effect1_backgroundBlur_13572_2755" result="shape"/>
</filter>
<filter id="filter2_b_13572_2755" x="131.136" y="44.5293" width="107.058" height="107.058" filterUnits="userSpaceOnUse" color-interpolation-filters="sRGB">
<feFlood flood-opacity="0" result="BackgroundImageFix"/>
<feGaussianBlur in="BackgroundImageFix" stdDeviation="0.661268"/>
<feComposite in2="SourceAlpha" operator="in" result="effect1_backgroundBlur_13572_2755"/>
<feBlend mode="normal" in="SourceGraphic" in2="effect1_backgroundBlur_13572_2755" result="shape"/>
</filter>
<filter id="filter3_b_13572_2755" x="243.622" y="12.0166" width="83.6675" height="83.6668" filterUnits="userSpaceOnUse" color-interpolation-filters="sRGB">
<feFlood flood-opacity="0" result="BackgroundImageFix"/>
<feGaussianBlur in="BackgroundImageFix" stdDeviation="0.661268"/>
<feComposite in2="SourceAlpha" operator="in" result="effect1_backgroundBlur_13572_2755"/>
<feBlend mode="normal" in="SourceGraphic" in2="effect1_backgroundBlur_13572_2755" result="shape"/>
</filter>
<linearGradient id="paint0_linear_13572_2755" x1="12.834" y1="35.7993" x2="16.9057" y2="86.847" gradientUnits="userSpaceOnUse">
<stop offset="0.0127869" stop-color="#69DBFF"/>
<stop offset="1" stop-color="#319CFF"/>
</linearGradient>
<linearGradient id="paint1_linear_13572_2755" x1="163.1" y1="22.4462" x2="163.1" y2="47.3439" gradientUnits="userSpaceOnUse">
<stop stop-color="#5080EC"/>
<stop offset="1" stop-color="#3568DD"/>
</linearGradient>
<linearGradient id="paint2_linear_13572_2755" x1="187.242" y1="102.292" x2="177.303" y2="170.235" gradientUnits="userSpaceOnUse">
<stop stop-color="#5080EC"/>
<stop offset="1" stop-color="#3568DD"/>
</linearGradient>
<linearGradient id="paint3_linear_13572_2755" x1="182.221" y1="74.983" x2="182.221" y2="117.209" gradientUnits="userSpaceOnUse">
<stop stop-color="#5080EC"/>
<stop offset="1" stop-color="#3568DD"/>
</linearGradient>
<clipPath id="clip0_13572_2755">
<rect x="0.926758" y="0.164551" width="307" height="152" rx="8.46332" fill="white"/>
</clipPath>
</defs>
</svg>
