<svg width="24" height="25" viewBox="0 0 24 25" fill="none" xmlns="http://www.w3.org/2000/svg">
<path d="M4.2097 4.8871L4.29289 4.79289C4.65338 4.43241 5.22061 4.40468 5.6129 4.7097L5.70711 4.79289L12 11.085L18.2929 4.79289C18.6834 4.40237 19.3166 4.40237 19.7071 4.79289C20.0976 5.18342 20.0976 5.81658 19.7071 6.20711L13.415 12.5L19.7071 18.7929C20.0676 19.1534 20.0953 19.7206 19.7903 20.1129L19.7071 20.2071C19.3466 20.5676 18.7794 20.5953 18.3871 20.2903L18.2929 20.2071L12 13.915L5.70711 20.2071C5.31658 20.5976 4.68342 20.5976 4.29289 20.2071C3.90237 19.8166 3.90237 19.1834 4.29289 18.7929L10.585 12.5L4.29289 6.20711C3.93241 5.84662 3.90468 5.27939 4.2097 4.8871L4.29289 4.79289L4.2097 4.8871Z" fill="#4F1C14"/>
</svg>
