<svg width="24" height="25" viewBox="0 0 24 25" fill="none" xmlns="http://www.w3.org/2000/svg">
<path d="M12 2.49897C17.5237 2.49897 22.0015 6.97682 22.0015 12.5005C22.0015 18.0242 17.5237 22.5021 12 22.5021C6.47626 22.5021 1.99841 18.0242 1.99841 12.5005C1.99841 6.97682 6.47626 2.49897 12 2.49897ZM14.9389 17.0003H9.06106C9.7131 19.4144 10.8465 21.0021 12 21.0021C13.1535 21.0021 14.2868 19.4144 14.9389 17.0003ZM7.50827 17.0008L4.78579 17.0007C5.74413 18.5337 7.17757 19.7393 8.87996 20.4113C8.35768 19.5915 7.92669 18.5652 7.60969 17.3958L7.50827 17.0008ZM19.2141 17.0007L16.4917 17.0008C16.1679 18.3346 15.7003 19.5004 15.1189 20.4114C16.7159 19.7813 18.0756 18.6824 19.0289 17.2842L19.2141 17.0007ZM7.09339 10.4999H3.73578L3.73102 10.5171C3.57894 11.1534 3.49841 11.8176 3.49841 12.5005C3.49841 13.5567 3.691 14.5678 4.04298 15.5008L7.21614 15.5005C7.07384 14.5514 6.99841 13.5431 6.99841 12.5005C6.99841 11.8165 7.03088 11.1473 7.09339 10.4999ZM15.3969 10.4999H8.60304C8.53501 11.1402 8.49841 11.8099 8.49841 12.5005C8.49841 13.56 8.58456 14.5703 8.73815 15.5006H15.2618C15.4154 14.5703 15.5015 13.56 15.5015 12.5005C15.5015 11.8099 15.4649 11.1402 15.3969 10.4999ZM20.2646 10.499L16.9065 10.4999C16.9691 11.1473 17.0015 11.8165 17.0015 12.5005C17.0015 13.5431 16.9261 14.5514 16.7838 15.5005L19.9569 15.5008C20.3089 14.5678 20.5015 13.5567 20.5015 12.5005C20.5015 11.8111 20.4195 11.1409 20.2646 10.499ZM8.88101 4.58967L8.85811 4.59839C6.81079 5.4131 5.15478 7.00041 4.25011 9.00027L7.29823 9.00064C7.61159 7.24785 8.15843 5.72192 8.88101 4.58967ZM12 3.99897L11.8843 4.00427C10.6189 4.12003 9.39639 6.12199 8.82868 9.00022H15.1713C14.6051 6.13006 13.3879 4.13126 12.1263 4.00529L12 3.99897ZM15.12 4.58973L15.2268 4.76383C15.896 5.87629 16.4041 7.33618 16.7017 9.00064L19.7498 9.00027C18.8852 7.08887 17.3342 5.55433 15.4112 4.71101L15.12 4.58973Z" fill="#4F1C14"/>
</svg>
