<svg width="420" height="264" viewBox="0 0 420 264" fill="none" xmlns="http://www.w3.org/2000/svg">
<rect width="420" height="264" rx="24" fill="#2D2F31"/>
<path d="M104.707 28.3263C104.707 20.4141 111.121 14 119.033 14H369.651C377.563 14 383.977 20.4141 383.977 28.3263V43.7632C383.977 48.2087 385.79 52.4621 388.997 55.5408L411.617 77.2562C417.491 82.8945 417.491 92.2876 411.617 97.9258L388.997 119.641C385.79 122.72 383.977 126.973 383.977 131.419V146.856C383.977 154.768 377.563 161.182 369.651 161.182H119.033C111.121 161.182 104.707 154.768 104.707 146.856V28.3263Z" fill="#393B40" stroke="#191919" stroke-width="2"/>
<path d="M157.578 61.1732H348.2" stroke="#191919" stroke-width="2"/>
<path d="M157.316 87.8496H347.938" stroke="#191919" stroke-width="2"/>
<path d="M157.059 114.526H347.68" stroke="#191919" stroke-width="2"/>
<path d="M316.12 117.939C316.12 110.026 309.706 103.612 301.794 103.612H51.1759C43.2636 103.612 36.8495 110.026 36.8495 117.939V133.375C36.8495 137.821 35.0367 142.074 31.8297 145.153L9.2095 166.869C3.3363 172.507 3.3363 181.9 9.2095 187.538L31.8297 209.254C35.0367 212.332 36.8495 216.586 36.8495 221.031V236.468C36.8495 244.38 43.2637 250.794 51.1759 250.794H301.794C309.706 250.794 316.12 244.38 316.12 236.468V117.939Z" fill="#EDF3FF" stroke="#191919" stroke-width="2"/>
<circle cx="172.858" cy="142.757" r="89.9078" fill="#FF7A00" stroke="#191919" stroke-width="2"/>
<path d="M140.842 182.799L142.689 184.071C161.385 196.944 186.136 196.75 204.628 183.586L205.733 182.799" stroke="#191919" stroke-width="3" stroke-linecap="round" stroke-linejoin="round"/>
<circle cx="130.124" cy="144.052" r="12.9858" fill="white" stroke="#191919" stroke-width="2"/>
<path d="M228.06 144.052C228.06 151.206 222.148 157.038 214.816 157.038C207.483 157.038 201.571 151.206 201.571 144.052C201.571 136.897 207.483 131.066 214.816 131.066C222.148 131.066 228.06 136.897 228.06 144.052Z" fill="white" stroke="#191919" stroke-width="2"/>
<path d="M378.907 134.823C381.104 131.045 386.562 131.045 388.759 134.823L396.408 147.976C396.904 148.83 397.615 149.541 398.469 150.037L411.622 157.686C415.4 159.883 415.4 165.341 411.622 167.538L398.469 175.186C397.615 175.683 396.904 176.394 396.408 177.248L388.759 190.401C386.562 194.179 381.104 194.179 378.907 190.401L371.258 177.248C370.762 176.394 370.051 175.683 369.197 175.186L356.044 167.538C352.266 165.341 352.266 159.883 356.044 157.686L369.197 150.037C370.051 149.541 370.762 148.83 371.258 147.976L378.907 134.823Z" fill="white" stroke="#191919" stroke-width="2"/>
<path d="M99.013 37.1835C101.21 33.4054 106.667 33.4054 108.864 37.1835L111.729 42.1095C112.225 42.9637 112.936 43.674 113.79 44.1708L118.716 47.0353C122.494 49.2323 122.494 54.6895 118.716 56.8865L113.79 59.751C112.936 60.2477 112.225 60.9581 111.729 61.8123L108.864 66.7383C106.667 70.5163 101.21 70.5163 99.013 66.7383L96.1484 61.8123C95.6517 60.9581 94.9413 60.2477 94.0871 59.751L89.1612 56.8865C85.3831 54.6895 85.3831 49.2323 89.1612 47.0353L94.0871 44.1708C94.9413 43.674 95.6517 42.9637 96.1484 42.1095L99.013 37.1835Z" fill="#393B40" stroke="#191919" stroke-width="2"/>
</svg>
