<svg width="262" height="69" viewBox="0 0 262 69" fill="none" xmlns="http://www.w3.org/2000/svg">
<path fill-rule="evenodd" clip-rule="evenodd" d="M15.6878 59.2748C15.3637 59.4724 14.9416 59.3808 14.7285 59.0667L13.9124 57.8633C13.6993 57.5492 13.7708 57.1237 14.0698 56.8898C16.7578 54.7865 18.9673 52.4159 20.7049 49.8767C27.1751 40.4224 27.1751 28.5249 20.7049 19.0705C18.9673 16.5314 16.7578 14.1607 14.0698 12.0575C13.7708 11.8236 13.6993 11.3981 13.9124 11.0839L14.7285 9.88061C14.9416 9.56646 15.3637 9.47485 15.6878 9.67243L51.9398 31.7714C53.963 33.0048 53.963 35.9425 51.9398 37.1758L15.6878 59.2748Z" fill="url(#paint0_linear_5379_6647)"/>
<path d="M100.487 47.9841C100.516 48.042 100.531 48.1058 100.531 48.1704C100.531 48.4013 100.344 48.5885 100.113 48.5885L98.2695 48.5885C97.5897 48.5885 96.9694 48.2011 96.671 47.5903L93.8415 41.7978C93.5431 41.187 92.9227 40.7996 92.243 40.7996H77.6029C76.9232 40.7996 76.3028 41.187 76.0044 41.7978L73.1749 47.5903C72.8765 48.2011 72.2562 48.5885 71.5764 48.5885H69.733C69.5021 48.5885 69.3149 48.4013 69.3149 48.1704C69.3149 48.1058 69.3299 48.042 69.3587 47.9841L82.6162 21.3455C82.9169 20.7412 83.5338 20.3591 84.2089 20.3591H85.6371C86.3121 20.3591 86.929 20.7412 87.2297 21.3455L100.487 47.9841ZM89.0201 37.7561C90.339 37.7561 91.1994 36.3712 90.6149 35.1888L86.5178 26.8994C85.8649 25.5784 83.981 25.5784 83.3281 26.8994L79.231 35.1888C78.6465 36.3712 79.5069 37.7561 80.8258 37.7561H89.0201Z" fill="#3568DD"/>
<path d="M107.147 20.3591C108.067 20.3591 108.812 21.1044 108.812 22.0237V46.9239C108.812 47.8433 108.067 48.5885 107.147 48.5885C106.228 48.5885 105.483 47.8433 105.483 46.9239V22.0237C105.483 21.1044 106.228 20.3591 107.147 20.3591Z" fill="#3568DD"/>
<path d="M144.258 29.0517C144.258 31.4328 143.364 33.3406 141.577 34.775C139.79 36.1808 138.152 36.8836 132.055 36.8836C131.972 36.8836 131.928 36.9823 131.984 37.044L141.86 47.9656C141.922 48.0342 141.956 48.1233 141.956 48.2157C141.956 48.4216 141.789 48.5885 141.584 48.5885H138.939C138.438 48.5885 137.959 48.3769 137.622 48.0059L128.045 37.4663C127.708 37.0952 127.23 36.8836 126.729 36.8836H122.084C121.102 36.8836 120.305 37.6801 120.305 38.6627V46.9456C120.305 47.8529 119.57 48.5885 118.662 48.5885C117.755 48.5885 117.019 47.8529 117.019 46.9456V22.1381C117.019 21.1556 117.816 20.3591 118.798 20.3591H134.27C137.383 20.3591 139.819 21.0907 141.577 22.5538C143.364 23.9882 144.258 25.9677 144.258 28.4923V29.0517ZM134.184 33.9574C136.288 33.9574 137.931 33.5127 139.113 32.6234C140.323 31.7341 140.928 30.5005 140.928 28.9226V28.3632C140.928 26.7853 140.338 25.5517 139.156 24.6624C137.974 23.773 136.317 23.3284 134.184 23.3284H122.084C121.102 23.3284 120.305 24.1249 120.305 25.1074V32.1784C120.305 33.1609 121.102 33.9574 122.084 33.9574L134.184 33.9574Z" fill="#3568DD"/>
<path d="M163.872 20.3591C168.887 20.3591 172.721 21.5353 175.373 23.8878C178.024 26.2402 179.35 29.6541 179.35 34.1295V34.8611C179.35 39.3365 178.024 42.7504 175.373 45.1029C172.75 47.4266 168.916 48.5885 163.872 48.5885H152.767C151.784 48.5885 150.988 47.792 150.988 46.8095V22.1381C150.988 21.1556 151.784 20.3591 152.767 20.3591L163.872 20.3591ZM163.872 45.6193C167.878 45.6193 170.891 44.7299 172.908 42.9512C174.955 41.1439 175.978 38.4615 175.978 34.9041V34.0865C175.978 30.5578 174.955 27.8898 172.908 26.0824C170.862 24.2464 167.835 23.3284 163.829 23.3284L156.053 23.3284C155.07 23.3284 154.274 24.1249 154.274 25.1074V43.8402C154.274 44.8228 155.07 45.6193 156.053 45.6193H163.872Z" fill="#3568DD"/>
<path d="M212.084 47.9841C212.113 48.042 212.128 48.1058 212.128 48.1704C212.128 48.4013 211.94 48.5885 211.709 48.5885H209.866C209.186 48.5885 208.566 48.2011 208.268 47.5903L205.438 41.7978C205.14 41.187 204.519 40.7996 203.839 40.7996L189.199 40.7996C188.52 40.7996 187.899 41.187 187.601 41.7978L184.771 47.5903C184.473 48.2011 183.853 48.5885 183.173 48.5885H181.33C181.099 48.5885 180.911 48.4013 180.911 48.1704C180.911 48.1058 180.926 48.042 180.955 47.9841L194.213 21.3455C194.513 20.7412 195.13 20.3591 195.805 20.3591L197.234 20.3591C197.909 20.3591 198.526 20.7412 198.826 21.3455L212.084 47.9841ZM200.617 37.7561C201.936 37.7561 202.796 36.3712 202.211 35.1888L198.114 26.8994C197.461 25.5784 195.578 25.5784 194.925 26.8994L190.827 35.1888C190.243 36.3712 191.103 37.7561 192.422 37.7561L200.617 37.7561Z" fill="#3568DD"/>
<path d="M229.572 49.0619C226.343 49.0619 223.533 48.4881 221.141 47.3406C218.748 46.1643 216.904 44.5004 215.607 42.3488C214.31 40.1971 213.661 37.6869 213.661 34.8181V34.1726C213.661 31.275 214.31 28.7505 215.607 26.5988C216.904 24.4472 218.748 22.7976 221.141 21.6501C223.533 20.4739 226.343 19.8857 229.572 19.8857C232.771 19.8857 235.567 20.4739 237.959 21.6501C240.352 22.8263 242.196 24.4902 243.493 26.6419C244.791 28.7935 245.439 31.3037 245.439 34.1726V34.8181C245.439 37.6869 244.791 40.1971 243.493 42.3488C242.196 44.5004 240.352 46.1643 237.959 47.3406C235.567 48.4881 232.771 49.0619 229.572 49.0619ZM229.572 46.0065C233.492 46.0065 236.547 45.0168 238.738 43.0373C240.957 41.0578 242.067 38.3324 242.067 34.8611V34.1295C242.067 30.6582 240.957 27.9328 238.738 25.9533C236.518 23.9452 233.463 22.9411 229.572 22.9411C225.652 22.9411 222.568 23.9452 220.319 25.9533C218.1 27.9328 216.99 30.6582 216.99 34.1295V34.8611C216.99 38.3324 218.1 41.0578 220.319 43.0373C222.568 45.0168 225.652 46.0065 229.572 46.0065Z" fill="#3568DD"/>
<defs>
<linearGradient id="paint0_linear_5379_6647" x1="53.4572" y1="25.9993" x2="13.7896" y2="25.9993" gradientUnits="userSpaceOnUse">
<stop stop-color="#3568DD"/>
<stop offset="1" stop-color="#7DA3F9"/>
</linearGradient>
</defs>
</svg>
