<svg width="160" height="161" viewBox="0 0 160 161" fill="none" xmlns="http://www.w3.org/2000/svg">
<path fill-rule="evenodd" clip-rule="evenodd" d="M27.9732 152.89C27.033 153.463 25.8085 153.197 25.1904 152.286L22.8231 148.795C22.205 147.884 22.4125 146.65 23.2797 145.971C31.077 139.87 37.4862 132.994 42.5267 125.628C61.295 98.2033 61.295 63.6916 42.5267 36.2667C37.4862 28.9013 31.077 22.0246 23.2797 15.9235C22.4125 15.2449 22.205 14.0107 22.8231 13.0994L25.1904 9.6089C25.8085 8.69761 27.033 8.43188 27.9732 9.00501L133.132 73.109C139.001 76.6867 139.001 85.2082 133.132 88.7859L27.9732 152.89Z" fill="url(#paint0_linear_5379_6653)"/>
<defs>
<linearGradient id="paint0_linear_5379_6653" x1="137.533" y1="56.3654" x2="22.4668" y2="56.3654" gradientUnits="userSpaceOnUse">
<stop stop-color="#3568DD"/>
<stop offset="1" stop-color="#7DA3F9"/>
</linearGradient>
</defs>
</svg>
