<svg width="700" height="700" viewBox="0 0 700 700" fill="none" xmlns="http://www.w3.org/2000/svg">
<g clip-path="url(#clip0_5425_2701)">
<path fill-rule="evenodd" clip-rule="evenodd" d="M350 77C350 34.4741 315.526 0 273 0L77 0C34.4741 0 0 34.474 0 77L0 275.518C0 318.044 34.4741 352.516 77 352.516H273C315.526 352.516 350 386.991 350 429.516V623C350 665.525 384.475 700 427 700H623C665.525 700 700 665.525 700 623V424.48C700 381.955 665.525 347.482 623 347.482H427C384.475 347.482 350 313.008 350 270.482V77Z" fill="url(#paint0_linear_5425_2701)"/>
</g>
<defs>
<linearGradient id="paint0_linear_5425_2701" x1="0" y1="0" x2="567.425" y2="273.309" gradientUnits="userSpaceOnUse">
<stop stop-color="#EDF3FF"/>
<stop offset="1" stop-color="#A4BBF0"/>
</linearGradient>
<clipPath id="clip0_5425_2701">
<rect width="700" height="700" fill="white"/>
</clipPath>
</defs>
</svg>
